<svg id="Layer_1" data-name="Layer 1" xmlns="http://www.w3.org/2000/svg" viewBox="0 0 32.05 20.01"><title>typeArtboard 1</title><path d="M25.06,2.8A16,16,0,0,0,7,2.8,16.16,16.16,0,0,0,.39,19.62.5.5,0,0,0,.88,20h30.3a.5.5,0,0,0,.49-.39A16.17,16.17,0,0,0,25.06,2.8ZM30.77,19H1.28A15.16,15.16,0,0,1,7.56,3.62a15,15,0,0,1,16.94,0A15.16,15.16,0,0,1,30.77,19Z" fill="#122844"/><path d="M24.48,15.51a.5.5,0,0,0,.5.5h2.5a.5.5,0,0,0,0-1H25A.5.5,0,0,0,24.48,15.51Z" fill="#122844"/><path d="M7,15H4.48a.5.5,0,1,0,0,1H7a.5.5,0,0,0,0-1Z" fill="#122844"/><path d="M7,8.31a.5.5,0,1,0-.6.8l2,1.5a.5.5,0,0,0,.6-.8Z" fill="#122844"/><path d="M13,4.45a.5.5,0,0,0-.95.32l.8,2.4a.5.5,0,0,0,.47.34l.16,0a.5.5,0,0,0,.32-.63Z" fill="#122844"/><path d="M19.64,4.13a.5.5,0,0,0-.63.32l-.8,2.4a.5.5,0,0,0,.32.63l.16,0a.5.5,0,0,0,.47-.34l.8-2.4A.5.5,0,0,0,19.64,4.13Z" fill="#122844"/><path d="M25.68,8.41a.5.5,0,0,0-.7-.1l-2,1.5a.5.5,0,1,0,.6.8l2-1.5A.5.5,0,0,0,25.68,8.41Z" fill="#122844"/><path d="M15.18,15.21a1.07,1.07,0,0,0,1.5,1.5c.4-.4,3-3.9,2.7-4.3S15.58,14.81,15.18,15.21Z" fill="#122844"/></svg>