<?xml version="1.0" encoding="utf-8"?>
<!-- Generator: Adobe Illustrator 19.1.1, SVG Export Plug-In . SVG Version: 6.00 Build 0)  -->
<svg version="1.1" id="Calque_1" xmlns="http://www.w3.org/2000/svg" xmlns:xlink="http://www.w3.org/1999/xlink" x="0px" y="0px"
	 viewBox="0 0 80 80" style="enable-background:new 0 0 80 80;" xml:space="preserve">
<g>
	<path d="M33.5,46.2c-2.8,0-5.1-2.3-5.1-5.1s2.3-5.1,5.1-5.1c2.8,0,5.1,2.3,5.1,5.1S36.3,46.2,33.5,46.2z M33.5,40
		c-0.6,0-1.1,0.5-1.1,1.1s0.5,1.1,1.1,1.1c0.6,0,1.1-0.5,1.1-1.1S34.1,40,33.5,40z"/>
</g>
<g>
	<g>
		<path d="M70.7,33.8c-0.2,0-0.4,0-0.7-0.1c-1-0.4-1.6-1.5-1.2-2.5c0.8-2.3,1.2-4.8,1.2-7.5C70,13.9,64.2,4,51.2,4
			C38.2,4,32.3,14.2,32.3,23.6c0,2.6,0.4,5.1,1.1,7.3c0.4,1-0.2,2.2-1.3,2.5c-1,0.4-2.2-0.2-2.5-1.3c-0.9-2.6-1.4-5.5-1.4-8.6
			C28.3,12.2,35.5,0,51.2,0C66.9,0,74,12.2,74,23.6c0,3.2-0.5,6.2-1.4,8.9C72.3,33.3,71.5,33.8,70.7,33.8z"/>
	</g>
</g>
<path d="M59.5,21.7c-0.2-0.8-7.5-1.6-9.2-1.2c-1.8,0.4-2.9,2.2-2.4,4c0.4,1.8,2.2,2.9,4,2.4C53.7,26.6,59.7,22.6,59.5,21.7z
	 M51.1,24.7c-0.5,0-0.9-0.4-0.9-0.9c0-0.5,0.4-0.9,0.9-0.9c0.5,0,0.9,0.4,0.9,0.9C52,24.3,51.6,24.7,51.1,24.7z"/>
<g>
	<path d="M51,13c-1.1,0-2-0.9-2-2V7c0-1.1,0.9-2,2-2s2,0.9,2,2v4C53,12.1,52.1,13,51,13z"/>
</g>
<g>
	<path d="M40,28h-5c-1.1,0-2-0.9-2-2s0.9-2,2-2h5c1.1,0,2,0.9,2,2S41.1,28,40,28z"/>
</g>
<g>
	<path d="M67,28h-5c-1.1,0-2-0.9-2-2s0.9-2,2-2h5c1.1,0,2,0.9,2,2S68.1,28,67,28z"/>
</g>
<g>
	<path d="M43.2,19.5c-0.5,0-1-0.2-1.4-0.6l-3.5-3.5c-0.8-0.8-0.8-2,0-2.8c0.8-0.8,2-0.8,2.8,0l3.5,3.5c0.8,0.8,0.8,2,0,2.8
		C44.2,19.3,43.7,19.5,43.2,19.5z"/>
</g>
<g>
	<path d="M58.9,19.5c-0.5,0-1-0.2-1.4-0.6c-0.8-0.8-0.8-2,0-2.8l3.5-3.5c0.8-0.8,2-0.8,2.8,0c0.8,0.8,0.8,2,0,2.8l-3.5,3.5
		C60,19.3,59.4,19.5,58.9,19.5z"/>
</g>
<path d="M51.6,64.3c-0.6-1-3.6-4.9-6.4-8.5c4-3.3,6.4-8.4,6.4-14.6c0-1.8-0.2-3.1-0.6-5.1h-4.1c0.5,2,0.7,3.3,0.7,5.1
	c0,4.3-1.6,8.7-4.9,11.5c-1.5-1.9-2.7-3.4-2.8-3.6c-1.2-2.1-4.8-1.1-3.6,2c0.1,0.2,0.7,1.8,1.5,4.1c-1.3,0.4-2.7,0.6-4.3,0.6
	c-9.7,0-14.1-7.6-14.1-14.6c0-5,2.1-9.2,5.5-11.8c-0.3-1.5-0.4-3-0.5-4.5c-5.5,3.1-9,9-9,16.4c0,9.3,6.2,18.6,18.1,18.6
	c2,0,3.9-0.3,5.7-0.8c1.6,4.3,3.3,9,3.9,10.1C46.3,74.4,54.3,70.3,51.6,64.3z"/>
<path d="M57,36v40H15.3c-3,0-5.4-2.5-5.4-5.5V20h14.6c0.2-1,0.4-3,0.7-4H6v54.5c0,5.2,4.1,9.5,9.4,9.5H61V36H57z"/>
</svg>
