<?xml version="1.0" encoding="utf-8"?>
<!-- Generator: Adobe Illustrator 19.2.1, SVG Export Plug-In . SVG Version: 6.00 Build 0)  -->
<svg version="1.1" id="Calque_1" xmlns="http://www.w3.org/2000/svg" xmlns:xlink="http://www.w3.org/1999/xlink" x="0px" y="0px"
	 viewBox="0 0 80 80" style="enable-background:new 0 0 80 80;" xml:space="preserve">
<path d="M34,46.3L22.1,58.6L21,59.7v1.6V68L19,70v-8.7v-1.6l-1.1-1.2L6.1,46.3H34 M37.3,42.3H2.7c-2.3,0-3.4,2.7-1.9,4.4L15,61.4V80
	L25,69.6v-8.2l14.2-14.7C40.8,45,39.6,42.3,37.3,42.3L37.3,42.3z"/>
<path d="M78.1,47.1l-8.8-8.8c-1.1-1.1-2.6-1.7-4.2-1.7c-1.6,0-3.1,0.6-4.2,1.7L57,43.1C55,45,51.8,45,49.9,43L37.7,30.9
	c-2-2-2-6,0-8l3.9-3.9c2.3-2.3,2.3-6.1,0-8.4l-8.8-8.8C31.7,0.6,30.2,0,28.5,0s-3.1,0.6-4.3,1.8L20,6.1c-7.7,7.7-7.7,20-0.1,28.6
	l3.7,3.7h5.7l-6.4-6.4c-6.2-7-6.2-16.9,0-23l4.3-4.3c0.8-0.8,2.1-0.8,2.9,0l8.8,8.8c0.8,0.8,0.8,2,0,2.8L34.9,20
	c-3.5,3.5-3.5,10.2,0,13.7l12.2,12.2c3.5,3.5,9.3,3.5,12.8,0l3.9-4.8c0.8-0.7,2-0.7,2.7,0.1l8.8,8.8c0.4,0.4,0.6,0.9,0.6,1.5
	c0,0.6-0.2,1.1-0.6,1.5L71,57.1c-5.9,5.9-15.8,6.3-22.2,0.8l-7.6-7.6l-2.8,2.9l7.6,7.6l0.1,0.1c3.7,3.3,8.5,4.9,13.3,4.9
	c5.3,0,10.5-2,14.4-5.8l4.3-4.3c1.1-1.1,1.8-2.7,1.8-4.3C79.9,49.7,79.2,48.2,78.1,47.1z"/>
</svg>
