<?xml version="1.0" encoding="utf-8"?>
<!-- Generator: Adobe Illustrator 19.1.1, SVG Export Plug-In . SVG Version: 6.00 Build 0)  -->
<svg version="1.1" id="Calque_1" xmlns="http://www.w3.org/2000/svg" xmlns:xlink="http://www.w3.org/1999/xlink" x="0px" y="0px"
	 viewBox="0 0 80 80" style="enable-background:new 0 0 80 80;" xml:space="preserve">
<g>
	<path d="M24.6,37h3.5c1.4-7.3,6.2-13.8,14.5-13.8c5.5,0,8.5,2.5,10.5,5.1c0,0-2.5,2.8-2.8,3c-0.4,0.3-1.1,0.3-1.5,0
		c-1.3-0.9-2.4-2.6-5.9-2.6c-4.8,0-7.3,4-8.1,8.3h13.1v2c0,0.8-0.6,1.6-1.8,1.6H34.2c0,0.3-0.1,2.5,0,3h11v2c0,1-0.9,1.6-1.8,1.6
		h-8.9c0.5,3.1,2.1,8.9,7.9,8.9c4.1,0,5.6-2.4,6-2.8c0.7-0.7,1.5-0.7,2-0.1l2.8,2.5c-1.8,2.8-5.1,5.8-11.2,5.8
		c-10.7,0-13.6-9.5-14.2-14.4h-3.3v-3.6h3c0-0.3,0-2.6,0-3h-3V37z"/>
</g>
<path d="M75.8,43c0-21-13.7-36-33.6-37V4h6c1.1,0,2-0.9,2-2s-0.9-2-2-2h-16c-1.1,0-2,0.9-2,2s0.9,2,2,2h6v2c-19.8,0.9-34,16.2-34,37
	c0,17.8,11.2,37,35.8,37c0.1,0,0.1,0,0.2,0c0,0,0,0,0,0c0,0,0,0,0.1,0C61.2,79.9,75.8,64.7,75.8,43z M42.2,75.9V72c0-1.1-0.9-2-2-2
	s-2,0.9-2,2v4C18.5,75.1,9,59.8,8.3,45l3.9,0c1.1,0,2-0.9,2-2c0-1.1-0.9-2-2-2c0,0,0,0,0,0l-3.9,0c0.9-17.5,13.1-30.1,29.9-31v4
	c0,1.1,0.9,2,2,2s2-0.9,2-2v-3.9c16.9,1,28.7,13.3,29.5,30.9h-3.5c-1.1,0-2,0.9-2,2s0.9,2,2,2h3.5C71,59.7,61.6,74.9,42.2,75.9z"/>
</svg>
