<?xml version="1.0" encoding="utf-8"?>
<!-- Generator: Adobe Illustrator 19.1.1, SVG Export Plug-In . SVG Version: 6.00 Build 0)  -->
<svg version="1.1" id="Calque_1" xmlns="http://www.w3.org/2000/svg" xmlns:xlink="http://www.w3.org/1999/xlink" x="0px" y="0px"
	 viewBox="0 0 80 80" style="enable-background:new 0 0 80 80;" xml:space="preserve">
<g id="XMLID_585_">
	<path d="M55.3,59.2H24.7c-7.7,0-14-6.3-14-14v-31c0-7.7,6.3-14,14-14h30.6c7.7,0,14,6.3,14,14v31C69.3,52.9,63,59.2,55.3,59.2z
		 M24.7,4.1c-5.5,0-10,4.5-10,10v31c0,5.5,4.5,10,10,10h30.6c5.5,0,10-4.5,10-10v-31c0-5.5-4.5-10-10-10H24.7z"/>
</g>
<path d="M51.9,19.2c-0.5-4-3.7-7-7.7-7h-8.8c-4.1,0-7.8,3.2-8.4,7.1c-4.6,0.7-8.1,4.9-8.1,10v10c0,5.6,4.1,9.9,9.5,9.9h22.6
	c5.5,0,9.8-4.3,9.8-9.9v-10C61,24,57,19.6,51.9,19.2z M57,39.3c0,3.1-2.1,5.4-5,5.8v-6.9h-4v7h-3v-7h-4v7h-3v-7h-4v7h-3v-7h-4v6.8
	c-2.4-0.7-4-2.8-4-5.7v-10c0-3.5,2.4-6.1,5.5-6.1H31v-2.9c0-2.1,2.2-4.1,4.4-4.1h8.8c2.1,0,3.8,1.8,3.8,4.1v2.9h3.2
	c3.2,0,5.8,2.7,5.8,6.1V39.3z"/>
<path d="M53.6,68.1c-0.3,0.5-0.7,0.6-1.2,0.3c-0.6-0.3-1.4-0.8-2.3-0.8c-0.6,0-1.5,0.2-1.8,0.9c-0.2,0.7-0.2,1.3,0.9,1.8
	c0.6,0.3,2.4,0.7,3.4,1.3c1.6,0.9,2.4,2.5,1.9,4.7c-0.4,1.8-2.1,3.5-5,3.5c-2.2,0-4.3-1.2-5-1.9l1-1.6c0.3-0.4,0.8-0.5,1.3-0.2
	c1,0.6,1.7,1,2.7,1c0.9,0,1.7-0.3,1.9-1.2c0.2-0.9-0.1-1.4-1-1.9C50,73.9,47.9,73.4,47,73c-2.1-1.1-2.4-3.4-1.7-5.2
	c0.5-1.2,2-2.7,4.7-2.7c2.5,0,4,1.1,4.4,1.5L53.6,68.1z"/>
<path d="M43.6,72.5c0,4.2-3,7.3-7.6,7.3h-5.7V65.2h5.7C40.7,65.2,43.6,68.4,43.6,72.5z M40.2,72.5c0-2.8-1.5-4.7-4.1-4.7h-2.3v9.4
	h2.3C38.8,77.2,40.2,75.1,40.2,72.5z"/>
<path d="M29.2,79.7h-2.6c-0.3,0-0.5-0.1-0.7-0.2c-0.2-0.1-0.3-0.3-0.4-0.5l-0.9-2.5h-5.5L18.2,79c-0.1,0.2-0.2,0.4-0.4,0.5
	c-0.2,0.1-0.4,0.2-0.7,0.2h-2.6l5.6-14.6h3.5L29.2,79.7z M23.8,74.2c0,0-1.9-5.6-2-6c-0.1,0.4-2,6-2,6H23.8z"/>
<path d="M65.5,77v2.7h-8.8V65.2h3.4V77H65.5z"/>
</svg>
