<?xml version="1.0" encoding="utf-8"?>
<!-- Generator: Adobe Illustrator 19.1.1, SVG Export Plug-In . SVG Version: 6.00 Build 0)  -->
<svg version="1.1" id="Calque_1" xmlns="http://www.w3.org/2000/svg" xmlns:xlink="http://www.w3.org/1999/xlink" x="0px" y="0px"
	 viewBox="0 0 80 80" style="enable-background:new 0 0 80 80;" xml:space="preserve">
<path d="M76,27.9C76,23,73.7,19,70,17l0-10.6c0-3.1-2.2-6.3-6-6.3c-3.7,0-6,3.3-6,6.3l0,10.7c-3.6,2.1-6,6-6,10.8
	c0,4.3,2,8.7,6,10.9l0,34.9c0,3.1,2.2,6.3,6,6.3c3.7,0,6-3.3,6-6.3l0-34.8C73.7,36.8,76,32.9,76,27.9z M62,6.4c0-0.9,0.7-2.3,2-2.3
	c1.6,0,2,1.6,2,2.3l0,9.3c-0.6-0.1-1.3-0.2-2-0.2c-0.7,0-1.4,0.1-2,0.2L62,6.4z M65.9,73.6c0,0.9-0.6,2.3-2,2.3c-1.6,0-2-1.6-2-2.3
	l0-33.5c0.6,0.1,1.3,0.2,2,0.2c0.7,0,1.3-0.1,2-0.1L65.9,73.6z M64,36.2c-5.5,0-8-4.2-8-8.3c0-4.9,3.3-8.4,8-8.4c5.5,0,8,4.2,8,8.4
	C72,32,69.5,36.2,64,36.2z"/>
<path d="M52,57.4c0-4.9-2.4-8.9-6.1-10.9l0-40.1c0-3.1-2.2-6.3-6-6.3c-3.7,0-6,3.3-6,6.3l0,40.1c-3.6,2.1-6,6-6,10.8
	c0,4.3,2.1,8.7,6,10.9l0,5.4c0,3.1,2.2,6.3,6,6.3c3.7,0,6-3.3,6-6.3l0-5.3C49.7,66.3,52,62.3,52,57.4z M38,6.4c0-0.9,0.7-2.3,2-2.3
	c1.6,0,2,1.6,2,2.3l0,38.7C41.3,45,40.7,45,40,45c-0.7,0-1.4,0.1-2,0.2L38,6.4z M41.9,73.6c0,0.9-0.6,2.3-2,2.3c-1.6,0-2-1.6-2-2.3
	l0-4.1c0.6,0.1,1.3,0.2,2,0.2c0.7,0,1.3-0.1,1.9-0.1L41.9,73.6z M40,65.7c-5.5,0-8-4.2-8-8.3c0-4.9,3.3-8.4,8-8.4c5.5,0,8,4.2,8,8.4
	C48,61.5,45.5,65.7,40,65.7z"/>
<path d="M28,40.6c0-4.9-2.4-8.9-6-10.9l0-23.3c0-3.1-2.2-6.3-6-6.3c-3.7,0-6,3.3-6,6.3l0,23.4c-3.6,2.1-6,6-6,10.8
	c0,4.3,2,8.7,6,10.9l0,22.1c0,3.1,2.2,6.3,6,6.3c3.7,0,6-3.3,6-6.3l0-22.1C25.7,49.6,28,45.6,28,40.6z M14,6.4c0-0.9,0.7-2.3,2-2.3
	c1.6,0,2,1.6,2,2.3l0,22c-0.6-0.1-1.3-0.2-2-0.2c-0.7,0-1.4,0.1-2,0.2L14,6.4z M17.9,73.6c0,0.9-0.6,2.3-2,2.3c-1.6,0-2-1.6-2-2.3
	l0-20.8c0.6,0.1,1.3,0.2,2,0.2c0.7,0,1.3-0.1,1.9-0.1L17.9,73.6z M16,49c-5.5,0-8-4.2-8-8.3c0-4.9,3.3-8.4,8-8.4c5.5,0,8,4.2,8,8.4
	C24,44.8,21.5,49,16,49z"/>
</svg>
