<?xml version="1.0" encoding="utf-8"?>
<!-- Generator: Adobe Illustrator 19.1.1, SVG Export Plug-In . SVG Version: 6.00 Build 0)  -->
<svg version="1.1" id="Calque_1" xmlns="http://www.w3.org/2000/svg" xmlns:xlink="http://www.w3.org/1999/xlink" x="0px" y="0px"
	 viewBox="0 0 80.1 80.1" style="enable-background:new 0 0 80.1 80.1;" xml:space="preserve">
<g>
	<path d="M26.5,47.8L16,74h-5.5L0,47.8h4.9c1,0,1.7,0.6,2,1.3l5.1,14c0.2,0.6,0.5,1.3,0.7,2c0.2,0.7,0.4,1.5,0.6,2.3
		c0.2-0.8,0.4-1.6,0.6-2.3c0.2-0.7,0.4-1.4,0.7-2l5-14c0.3-0.7,1-1.3,2-1.3H26.5z"/>
	<path d="M46.1,63.9V67c0,0.5-0.4,1-1.1,1h-1.6v6h-4.9v-6H28c-0.6,0-1.3-0.5-1.5-1.1L26,64.1l12.1-16.3h5.3v16H46.1z M38.6,63.9V57
		c0-0.4,0-0.9,0-1.4c0-0.5,0.1-1,0.1-1.5l-6.9,9.7H38.6z"/>
</g>
<g id="XMLID_134_">
	<path d="M61.5,61.3c-3-2.2-4.6-7.4-1.4-11.5c5.8-7.3,4.5-18-2.8-23.8c-5.4-4.3-12.8-4.8-18.7-1.5l6.5,5c1,0.7,1.4,1.9,1.2,3.1
		c-0.2,1.2-1.1,2.1-2.2,2.5l-29.2,8.8c-1,0.3-2.1,0.1-2.9-0.6s-1.3-1.7-1.2-2.7l2-29.5c0.1-1.2,0.8-2.2,1.9-2.7
		C15.7,8,17,8.1,17.9,8.8l7.1,5.4c11.9-10.4,29.9-11,42.4-1.1C84,26.3,82.7,47.8,73,59.9C69.8,64,64.8,63.8,61.5,61.3z M59.8,22.9
		c9.1,7.1,10.6,20.3,3.5,29.4c-1.4,1.9-1.1,4.3,0.7,5.9c1.7,1.5,4.6,0.9,5.9-0.7C78.8,46,79.2,27.9,65,16.3l0,0
		c-11.5-9-28-8.2-38.5,2c-0.7,0.7-1.8,0.8-2.6,0.2l-7.2-5.5l-1.8,26.8l26.6-8l-7.5-5.7c-1-0.8-1.1-2.3,0-3.2
		C40.1,17.9,51,16.1,59.8,22.9z"/>
</g>
</svg>
