<?xml version="1.0" encoding="utf-8"?>
<!-- Generator: Adobe Illustrator 19.1.1, SVG Export Plug-In . SVG Version: 6.00 Build 0)  -->
<svg version="1.1" id="Calque_1" xmlns="http://www.w3.org/2000/svg" xmlns:xlink="http://www.w3.org/1999/xlink" x="0px" y="0px"
	 viewBox="0 0 80 80" style="enable-background:new 0 0 80 80;" xml:space="preserve">
<path d="M65.6,11H14.4C6.5,11,0,17.8,0,25.7v28.2C0,62.1,6.7,69,15,69h50.4C73.5,69,80,62.3,80,54.3V25.7C80,17.8,73.5,11,65.6,11z
	 M14.4,15h51.1c4.1,0,7.6,2.6,9.3,6H5.1C6.9,17.6,10.4,15,14.4,15z M76,25.7V33H4v-7.3c0-0.2,0-0.5,0-0.7H76
	C76,25.2,76,25.5,76,25.7z M65.4,65H15C8.9,65,4,59.9,4,53.9V37h72v17.3C76,60.1,71.2,65,65.4,65z"/>
<g>
	<path d="M14,57c-1.1,0-2-0.9-2-2v-4c0-1.1,0.9-2,2-2s2,0.9,2,2v4C16,56.1,15.1,57,14,57z"/>
</g>
<g>
	<path d="M24,57c-1.1,0-2-0.9-2-2v-4c0-1.1,0.9-2,2-2s2,0.9,2,2v4C26,56.1,25.1,57,24,57z"/>
</g>
<g>
	<path d="M34,57c-1.1,0-2-0.9-2-2v-4c0-1.1,0.9-2,2-2s2,0.9,2,2v4C36,56.1,35.1,57,34,57z"/>
</g>
</svg>
