<?xml version="1.0" encoding="utf-8"?>
<!-- Generator: Adobe Illustrator 21.1.0, SVG Export Plug-In . SVG Version: 6.00 Build 0)  -->
<svg version="1.1" id="Calque_1" xmlns="http://www.w3.org/2000/svg" xmlns:xlink="http://www.w3.org/1999/xlink" x="0px" y="0px"
	 viewBox="0 0 80 80" style="enable-background:new 0 0 80 80;" xml:space="preserve">
<g>
	<path d="M40,52c8.8,0,16-7.2,16-16V16c0-8.8-7.2-16-16-16S24,7.2,24,16v20C24,44.8,31.2,52,40,52z M28,16c0-6.6,5.4-12,12-12
		c6.6,0,12,5.4,12,12v20c0,6.6-5.4,12-12,12c-6.6,0-12-5.4-12-12V16z"/>
	<path d="M64,36V26c0-1.1-0.9-2-2-2s-2,0.9-2,2v10c0,11-9,20-20,20c-11,0-20-9-20-20V26c0-1.1-0.9-2-2-2s-2,0.9-2,2v10
		c0,10.4,6.7,19.3,16,22.6V60c0,6.3-3,12.2-8,16h-6c-1.1,0-2,0.9-2,2s0.9,2,2,2h44c1.1,0,2-0.9,2-2s-0.9-2-2-2h-6c-5-3.8-8-9.7-8-16
		v-1.4C57.3,55.3,64,46.4,64,36z M50.1,76H29.9c3.9-4.4,6.1-10,6.1-16v-0.3c1.3,0.2,2.6,0.3,4,0.3s2.7-0.1,4-0.3V60
		C44,66,46.2,71.6,50.1,76z"/>
</g>
</svg>
