<?xml version="1.0" encoding="utf-8"?>
<!-- Generator: Adobe Illustrator 20.0.0, SVG Export Plug-In . SVG Version: 6.00 Build 0)  -->
<svg version="1.1" id="Calque_1" xmlns="http://www.w3.org/2000/svg" xmlns:xlink="http://www.w3.org/1999/xlink" x="0px" y="0px"
	 viewBox="0 0 80 80" style="enable-background:new 0 0 80 80;" xml:space="preserve">
<g>
	<path d="M18,49.7c-0.3,0-0.7-0.1-1-0.3c-0.6-0.4-1-1-1-1.7V43H2c-1.1,0-2-0.9-2-2v-8c0-1.1,0.9-2,2-2h14v-6c0-0.7,0.4-1.4,1-1.7
		c0.6-0.4,1.4-0.4,2,0l19.7,11.4c0.6,0.4,1,1,1,1.7s-0.4,1.4-1,1.7L19,49.5C18.7,49.7,18.3,49.7,18,49.7z M4,39h14c1.1,0,2,0.9,2,2
		v3.3l13.7-7.9L20,28.4V33c0,1.1-0.9,2-2,2H4V39z"/>
</g>
<g>
	<rect x="36.4" y="25" width="30.9" height="4"/>
</g>
<g>
	<rect x="36.4" y="43.5" width="30.9" height="4"/>
</g>
<path d="M43.3,34c0.3,1,0.4,1.4,0.4,2.1c0,0.7-0.1,1.9-0.3,1.9H67v-4H43.3z"/>
<g>
	<path d="M30.9,11c-4.2,0-7.9,3.7-7.9,7.9V21l4,2.3v-4.4c0-2,1.9-3.9,3.9-3.9H76v38c0,2-1.1,4-3.1,4h-33L27,62.7V49.4l-4,2.3V69
		L40.8,61h32.1c4.2,0,7.1-3.8,7.1-8V11H30.9z"/>
</g>
</svg>
