<?xml version="1.0" encoding="utf-8"?>
<!-- Generator: Adobe Illustrator 19.1.1, SVG Export Plug-In . SVG Version: 6.00 Build 0)  -->
<svg version="1.1" id="Calque_1" xmlns="http://www.w3.org/2000/svg" xmlns:xlink="http://www.w3.org/1999/xlink" x="0px" y="0px"
	 viewBox="0 0 80 80" style="enable-background:new 0 0 80 80;" xml:space="preserve">
<path d="M70,20.4c-0.5-1.2-1-2.4-1.6-3.6l-0.6-1.1l-1.2,0c-4.1,0-8-0.7-11.5-2.2c-3.3-1.4-6.3-3.4-8.9-6.1c-1.7-1.8-3.2-3.9-4.4-6.4
	L41.4,0l-2.8,0L38,1.1c-1.2,2.5-2.6,4.5-4.4,6.4c-2.6,2.7-5.5,4.7-8.9,6.1c-3.5,1.4-7.4,2.2-11.5,2.2l-1.2,0l-0.6,1.1
	c-0.6,1.1-1.1,2.3-1.6,3.6C8.6,24.2,3.3,40,3.3,45.7C3.3,52,5,57,8.4,60.7c3.1,3.3,27.8,17.2,30.6,18.7l1,0.5l1-0.5
	c2.8-1.6,27.5-15.4,30.6-18.7C75,57,76.7,52,76.7,45.6C76.7,39.9,71.4,24.1,70,20.4z M68.6,58c-2,2.1-18.2,11.6-28.6,17.4
	c-2.4-1.3-5-2.8-7.7-4.4l0,0C21.7,64.7,18.1,50,24.5,38.8c2.5-4.2,6.4-7.3,11-8.5c4.6-1.2,9.3-0.5,13.3,1.9
	c6.6,3.9,8.8,12.6,4.9,19.4c-1.5,2.6-3.8,4.4-6.6,5.1c-2.7,0.7-5.6,0.3-8-1.1c-3.9-2.3-5.2-7.4-2.9-11.4c0.8-1.5,2.2-2.5,3.8-2.9
	c1.6-0.4,3.2-0.2,4.6,0.6c0.7,0.4,1.3,1.1,1.7,1.8c-0.4-0.5-0.8-0.9-1.4-1.3c-1.2-0.7-2.6-0.9-4-0.6c-1.4,0.4-2.6,1.3-3.3,2.5
	c-1.7,3-0.7,6.8,2.2,8.5c1.6,1,3.6,1.2,5.4,0.8c1.9-0.5,3.5-1.7,4.4-3.4c2.4-4.1,1-9.4-3-11.7c-2.3-1.4-5-1.8-7.6-1.1
	c-2.6,0.7-4.9,2.4-6.2,4.8C29.5,48,31.4,55.6,37.1,59c3.3,2,7.3,2.5,11,1.6c3.8-1,7.1-3.5,9.1-7c5-8.6,2.2-19.7-6.3-24.8
	c-5-3-10.8-3.8-16.4-2.3c-5.7,1.5-10.5,5.2-13.5,10.3c-5,8.7-4.9,19-0.7,27.2c-4.6-2.8-8.2-5.1-9.1-6.1c-2.7-2.9-4.1-7-4.1-12.3
	c0-4.7,4.9-19.9,6.4-23.9c0.3-0.7,0.6-1.5,0.9-2.1c4.1-0.1,8.1-1,11.7-2.5c3.8-1.6,7.3-3.9,10.2-7C37.8,8.9,39,7.4,40,5.8
	c1,1.6,2.2,3.1,3.4,4.4c2.9,3.1,6.4,5.4,10.2,7c3.6,1.5,7.6,2.3,11.7,2.5c0.3,0.7,0.6,1.4,0.9,2.1c1.6,4.1,6.4,19,6.4,23.8
	C72.7,50.9,71.3,55.1,68.6,58z"/>
</svg>
