<?xml version="1.0" encoding="utf-8"?>
<!-- Generator: Adobe Illustrator 19.2.1, SVG Export Plug-In . SVG Version: 6.00 Build 0)  -->
<svg version="1.1" id="Calque_1" xmlns="http://www.w3.org/2000/svg" xmlns:xlink="http://www.w3.org/1999/xlink" x="0px" y="0px"
	 viewBox="0 0 80 80" style="enable-background:new 0 0 80 80;" xml:space="preserve">
<g>
	<path d="M76,34.1c-0.3-7.3-3.7-14.5-9.5-20.4c-5.9-5.9-13.1-9.3-20.4-9.6l0.2-4c8.3,0.3,16.5,4.2,23.1,10.7
		c6.5,6.5,10.4,14.7,10.7,23L76,34.1z"/>
</g>
<g>
	<path d="M66.2,34.1c-0.2-4.9-2.5-9.8-6.4-13.7c-4-3.9-8.8-6.2-13.7-6.4l0.2-4c5.9,0.2,11.7,2.9,16.4,7.6c4.6,4.6,7.3,10.4,7.6,16.3
		L66.2,34.1z"/>
</g>
<g>
	<path d="M56.4,34.1c-0.1-2.5-1.3-5-3.3-7c-2-2-4.5-3.2-7-3.3l0.2-4c3.5,0.1,6.9,1.7,9.7,4.5c2.7,2.7,4.3,6.2,4.5,9.7L56.4,34.1z"/>
</g>
<g>
	<path d="M54.9,79.8c-5.7,0-11.5-1.9-15.9-5.9l-0.1-0.1l-32-32C-2.3,31.5-2.3,16.7,6.9,7.5l5.3-5.3c2.7-2.7,7.1-2.7,9.9,0L32.8,13
		c2.7,2.7,2.7,7,0,9.7l-4.7,4.7c-1.2,1.2-1.9,3.1-1.9,5.2c0,2.1,0.7,4,1.9,5.2L43,52.7c1.3,1.3,2.9,1.9,4.7,1.9
		c1.7,0,3.4-0.7,4.6-1.9l4.8-5.9c2.7-2.7,7-2.7,9.7,0l10.7,10.7c1.3,1.3,2,3.1,2,4.9c0,1.9-0.7,3.6-2,4.9l-5.3,5.3
		C67.6,77.5,61.3,79.8,54.9,79.8z M41.7,71c7.9,6.8,20.4,6.4,27.8-1l5.3-5.3c0.6-0.6,0.9-1.3,0.9-2.1c0-0.8-0.3-1.5-0.9-2.1L64,49.8
		c-1.1-1.1-2.9-1.1-4-0.1l-4.8,5.9c-2,2-4.7,3.1-7.5,3.1c-2.8,0-5.5-1.1-7.5-3.1L25.3,40.7c-2-2-3.1-4.9-3.1-8.1
		c0-3.1,1.1-6.1,3.1-8.1l4.7-4.7c1.1-1.1,1.1-2.9,0-4.1L19.2,5c-1.2-1.2-3.1-1.2-4.2,0l-5.3,5.3c-7.7,7.7-7.7,20.1,0,28.8L41.7,71z"
		/>
</g>
</svg>
