<?xml version="1.0" encoding="utf-8"?>
<!-- Generator: Adobe Illustrator 19.1.1, SVG Export Plug-In . SVG Version: 6.00 Build 0)  -->
<svg version="1.1" id="Calque_1" xmlns="http://www.w3.org/2000/svg" xmlns:xlink="http://www.w3.org/1999/xlink" x="0px" y="0px"
	 viewBox="0 0 80 80" style="enable-background:new 0 0 80 80;" xml:space="preserve">
<path d="M65,5.9V2.1c0-1.1-0.9-2-2-2s-2,0.9-2,2v3.8H50V2.1c0-1.1-0.9-2-2-2s-2,0.9-2,2v3.8H34V2.1c0-1.1-0.9-2-2-2s-2,0.9-2,2v3.8
	H18V2.1c0-1.1-0.9-2-2-2s-2,0.9-2,2v3.8h0.3C6.5,5.9,0,12.2,0,19.9v60h66.1c7.7,0,13.9-6.3,13.9-14v-60H65z M14.3,9.9H14v6.7
	c0,1.1,0.9,2,2,2s2-0.9,2-2V9.9h12v6.7c0,1.1,0.9,2,2,2s2-0.9,2-2V9.9h12v6.7c0,1.1,0.9,2,2,2s2-0.9,2-2V9.9h11v6.7c0,1.1,0.9,2,2,2
	s2-0.9,2-2V9.9h11v18H4v-8C4,14.4,8.7,9.9,14.3,9.9z M66.1,75.9H4v-44h72v34C76,71.4,71.6,75.9,66.1,75.9z"/>
<path d="M58,63v3.2H44.4V63h5V48.7c0-0.6,0-1.2,0.1-1.8l-3.5,3c-0.7,0.5-1.6,0.3-1.9-0.2l-1.3-1.8l7.5-6.4h3.5V63H58z"/>
<path d="M39.6,53.9c0,9.1-4.3,12.6-9,12.6c-4.6,0-9-3.5-9-12.6c0-8.8,4.1-12.6,9-12.6C35.2,41.3,39.6,44.8,39.6,53.9z M35.2,53.9
	c0-7.3-2.5-9.1-4.7-9.1c-1.9,0-4.6,1.4-4.6,9.1c0,7.3,2.3,9.1,4.6,9.1C32.7,62.9,35.2,61.4,35.2,53.9z"/>
</svg>
