<?xml version="1.0" encoding="utf-8"?>
<!-- Generator: Adobe Illustrator 19.1.1, SVG Export Plug-In . SVG Version: 6.00 Build 0)  -->
<svg version="1.1" id="Calque_1" xmlns="http://www.w3.org/2000/svg" xmlns:xlink="http://www.w3.org/1999/xlink" x="0px" y="0px"
	 viewBox="-0.2 0.2 80 80" style="enable-background:new -0.2 0.2 80 80;" xml:space="preserve">
<path d="M45.5,40.2l33-33c1.6-1.6,1.6-4.1,0-5.7s-4.1-1.6-5.7,0l-33,33l-33-33c-1.6-1.6-4.1-1.6-5.7,0s-1.6,4.1,0,5.7l33,33l-33,33
	c-1.6,1.6-1.6,4.1,0,5.7C2,79.6,3,80,4,80s2.1-0.4,2.8-1.2l33-33l33,33c0.8,0.8,1.8,1.2,2.8,1.2s2.1-0.4,2.8-1.2
	c1.6-1.6,1.6-4.1,0-5.7L45.5,40.2z"/>
</svg>
