<?xml version="1.0" encoding="utf-8"?>
<!-- Generator: Adobe Illustrator 20.0.0, SVG Export Plug-In . SVG Version: 6.00 Build 0)  -->
<svg version="1.1" id="Calque_1" xmlns="http://www.w3.org/2000/svg" xmlns:xlink="http://www.w3.org/1999/xlink" x="0px" y="0px"
	 viewBox="0 0 80 80" style="enable-background:new 0 0 80 80;" xml:space="preserve">
<path d="M79.1,68.6L44.7,6.8c-2.2-3.9-5.8-4-8.1-0.1L1,68.6C-1.3,72.5,0.6,76,5.1,76h69.8C79.4,76,81.3,72.5,79.1,68.6z M40.5,65.7
	c-2.5,0-3.9-1.2-3.9-3.9c0-2.7,1.4-4,3.9-4c2.5,0,3.9,1.3,3.9,4C44.3,64.4,43,65.7,40.5,65.7z M44.2,49L44.2,49
	c-0.2,3-1.2,2.6-2.8,2.6c-0.2,0-0.5,0.3-0.5,0.3c-0.1,0-0.3-0.2-0.5-0.2c-1.6,0-2.6,0.3-2.7-2.7h0c0,0-1.4-9.9-1.2-18.1
	c0.1-4.8,0.5-6,0.8-6.6c0.5-1.1,1.8-1.7,3.1-1.7c0.2,0,0.3,0,0.5,0c0,0,0.3-0.1,0.5-0.1c1.4,0,2.6,0.5,3.1,1.6
	c0.3,0.6,0.7,1.9,0.8,6.8C45.5,39.1,44.2,49,44.2,49z"/>
</svg>
