<?xml version="1.0" encoding="utf-8"?>
<!-- Generator: Adobe Illustrator 19.1.1, SVG Export Plug-In . SVG Version: 6.00 Build 0)  -->
<svg version="1.1" id="Calque_1" xmlns="http://www.w3.org/2000/svg" xmlns:xlink="http://www.w3.org/1999/xlink" x="0px" y="0px"
	 viewBox="0 0 80 80" style="enable-background:new 0 0 80 80;" xml:space="preserve">
<g>
	<path d="M68.1,4.1H12.1C5.5,4.1,0,9.6,0,16.2v28c0,6.6,5.5,11.8,12.1,11.8H38v4c-3,0.7-5.1,3-5.8,6H11v4h21.2c0.9,3,4,5.9,7.7,5.9
		s6.8-2.9,7.7-5.9H69v-4H47.7c-0.7-3-2.7-5.1-5.7-5.9v-4.1h26.1c6.6,0,11.9-5.2,11.9-11.8v-28C80,9.6,74.7,4.1,68.1,4.1z M43.9,67.8
		c0,2.2-1.8,4-4,4s-4-1.8-4-4s1.8-4,4-4S43.9,65.6,43.9,67.8z M12.1,8.1h55.9c4.4,0,7.9,3.7,7.9,8.2v12.8H4V16.2
		C4,11.8,7.7,8.1,12.1,8.1z M68.1,52.1H12.1c-4.4,0-8.1-3.4-8.1-7.8V33.1h72v11.2C76,48.6,72.5,52.1,68.1,52.1z"/>
	<circle cx="66.4" cy="18.4" r="3"/>
	<circle cx="66.4" cy="42.4" r="3"/>
</g>
</svg>
