<?xml version="1.0" encoding="utf-8"?>
<!-- Generator: Adobe Illustrator 19.2.1, SVG Export Plug-In . SVG Version: 6.00 Build 0)  -->
<svg version="1.1" id="Calque_1" xmlns="http://www.w3.org/2000/svg" xmlns:xlink="http://www.w3.org/1999/xlink" x="0px" y="0px"
	 viewBox="0 0 80 80" style="enable-background:new 0 0 80 80;" xml:space="preserve">
<path d="M48.3,0.1c-17.5,0-31.7,14.2-31.7,31.7c0,0.9,0,1.8,0.1,2.6l3.9-1c0-0.5-0.1-1.1-0.1-1.6C20.6,16.5,33,4.1,48.3,4.1
	S76,16.5,76,31.8c0,15.3-12.4,27.7-27.7,27.7c-7.6,0-14.4-3-19.4-8l-1.2,4.3c5.5,4.7,12.7,7.6,20.6,7.6C65.8,63.5,80,49.3,80,31.8
	S65.8,0.1,48.3,0.1z"/>
<g>
	<path d="M9.9,79.9c-0.5,0-1-0.2-1.4-0.6C-2,68.8-2.8,58.7,6.3,48.4L3,45.1c-0.5-0.5-0.7-1.3-0.5-1.9c0.2-0.7,0.7-1.2,1.4-1.4
		l21.8-5.4c0.7-0.2,1.4,0,1.9,0.5c0.5,0.5,0.7,1.2,0.5,1.9l-5.8,21.4c-0.2,0.7-0.7,1.2-1.4,1.4c-0.7,0.2-1.4,0-1.9-0.5l-2.9-2.9
		C7.5,68,11.5,76.6,11.7,77c0.4,0.9,0.1,1.9-0.6,2.5C10.7,79.8,10.3,79.9,9.9,79.9z M8.4,44.8l2.1,2.1c0.8,0.8,0.8,2,0,2.8
		c-7.1,7.4-8.4,13.9-3.9,21.1c0.1-4.6,1.9-10.6,8.1-16.9c0.8-0.8,2-0.8,2.8,0l1.9,1.9l4-14.8L8.4,44.8z"/>
</g>
<g>
	<path d="M56.3,50h-5.9c-0.6,0-1.1-0.2-1.5-0.7c-0.4-0.4-0.6-1-0.5-1.6l0.4-3.8h-3.5l-0.5,4.2c-0.1,1-1,1.8-2,1.8h-5.9
		c-0.6,0-1.1-0.2-1.5-0.7c-0.4-0.4-0.6-1-0.5-1.6l0.4-3.8h-2.7c-1.1,0-2-0.9-2-2v-6c0-1.1,0.9-2,2-2h3.8l0.4-4h-4.2
		c-1.1,0-2-0.9-2-2v-6c0-1.1,0.9-2,2-2h5.2l0.5-4.2c0.1-1,1-1.8,2-1.8h5.9c0.6,0,1.1,0.2,1.5,0.7c0.4,0.4,0.6,1,0.5,1.6L47.8,20h3.5
		l0.5-4.2c0.1-1,1-1.8,2-1.8h5.9c0.6,0,1.1,0.2,1.5,0.7c0.4,0.4,0.6,1,0.5,1.6L61.2,20h3.4c1.1,0,2,0.9,2,2v6c0,1.1-0.9,2-2,2h-4.5
		l-0.4,4h4.8c1.1,0,2,0.9,2,2v6c0,1.1-0.9,2-2,2h-5.9l-0.5,4.2C58.1,49.2,57.3,50,56.3,50z M52.5,46h1.9l0.5-4.2c0.1-1,1-1.8,2-1.8
		h5.7v-2h-5.1c-0.6,0-1.1-0.2-1.5-0.7c-0.4-0.4-0.6-1-0.5-1.5l0.8-8c0.1-1,1-1.8,2-1.8h4.3v-2H59c-0.6,0-1.1-0.2-1.5-0.7
		c-0.4-0.4-0.6-1-0.5-1.6l0.4-3.8h-1.9L55,22.2c-0.1,1-1,1.8-2,1.8h-7.5c-0.6,0-1.1-0.2-1.5-0.7c-0.4-0.4-0.6-1-0.5-1.6L44,18H42
		l-0.5,4.2c-0.1,1-1,1.8-2,1.8h-5v2H39c0.6,0,1.1,0.2,1.5,0.7c0.4,0.4,0.6,1,0.5,1.5l-0.8,8c-0.1,1-1,1.8-2,1.8h-3.6v2h3
		c0.6,0,1.1,0.2,1.5,0.7c0.4,0.4,0.6,1,0.5,1.6L39.1,46H41l0.5-4.2c0.1-1,1-1.8,2-1.8H51c0.6,0,1.1,0.2,1.5,0.7
		c0.4,0.4,0.6,1,0.5,1.6L52.5,46z M51.6,38h-7.5c-0.6,0-1.1-0.2-1.5-0.7c-0.4-0.4-0.6-1-0.5-1.5l0.8-8c0.1-1,1-1.8,2-1.8h7.5
		c0.6,0,1.1,0.2,1.5,0.7c0.4,0.4,0.6,1,0.5,1.5l-0.8,8C53.5,37.2,52.6,38,51.6,38z M46.3,34h3.5l0.4-4h-3.5L46.3,34z"/>
</g>
</svg>
