<?xml version="1.0" encoding="utf-8"?>
<!-- Generator: Adobe Illustrator 21.1.0, SVG Export Plug-In . SVG Version: 6.00 Build 0)  -->
<svg version="1.1" id="Calque_1" xmlns="http://www.w3.org/2000/svg" xmlns:xlink="http://www.w3.org/1999/xlink" x="0px" y="0px"
	 viewBox="0 0 80 80" style="enable-background:new 0 0 80 80;" xml:space="preserve">
<path d="M79.8,65.3c0-0.1,0-0.1,0.1-0.2c0-0.1,0-0.1,0.1-0.2c0.1-0.3,0.1-0.5,0-0.8c0-0.1,0-0.1-0.1-0.2c0-0.1,0-0.1-0.1-0.2
	c0-0.1-0.1-0.1-0.1-0.2c0,0,0-0.1-0.1-0.1c-0.1-0.1-0.2-0.2-0.3-0.3l-12-12c-0.8-0.8-2-0.8-2.8,0s-0.8,2,0,2.8l8.4,8.4
	C57.2,61,51.6,53.5,47.1,47.4c-2-2.7-3.9-5.2-6.4-6.9c2.5-1.7,4.4-4.3,6.4-6.9C51.6,27.5,57.2,20,73,18.7l-8.4,8.4
	c-0.8,0.8-0.8,2,0,2.8c0.4,0.4,0.9,0.6,1.4,0.6s1-0.2,1.4-0.6l12-12c0.1-0.1,0.2-0.2,0.3-0.3c0,0,0.1-0.1,0.1-0.2s0.1-0.1,0.1-0.2
	s0-0.1,0.1-0.2c0-0.1,0-0.1,0.1-0.2c0.1-0.3,0.1-0.5,0-0.8c0-0.1,0-0.1-0.1-0.2c0-0.1,0-0.1-0.1-0.2c0-0.1-0.1-0.1-0.1-0.2
	c0-0.1-0.1-0.1-0.1-0.2c-0.1-0.1-0.2-0.2-0.3-0.3l-12-12c-0.8-0.8-2-0.8-2.8,0c-0.8,0.8-0.8,2,0,2.8l8.8,8.8
	C55.3,15.8,48.8,24.5,44,31c-3,4-5,6.5-8.2,7.1c-1-4.5-5-7.8-9.8-7.8s-8.9,3.4-9.8,8H2c-1.1,0-2,0.9-2,2s0.9,2,2,2h14.2
	c0.9,4.6,5,8,9.8,8s8.8-3.4,9.8-7.8c3.2,0.7,5.2,3.2,8.2,7.1c4.8,6.5,11.3,15.2,29.4,16.5l-8.8,8.8c-0.8,0.8-0.8,2,0,2.8
	c0.4,0.4,0.9,0.6,1.4,0.6s1-0.2,1.4-0.6l12-12C79.5,65.6,79.6,65.5,79.8,65.3L79.8,65.3C79.8,65.4,79.8,65.3,79.8,65.3z M26,46.5
	c-3.3,0-6-2.7-6-6s2.7-6,6-6s6,2.7,6,6S29.3,46.5,26,46.5z"/>
</svg>
