<?xml version="1.0" encoding="utf-8"?>
<!-- Generator: Adobe Illustrator 19.1.1, SVG Export Plug-In . SVG Version: 6.00 Build 0)  -->
<svg version="1.1" id="Calque_1" xmlns="http://www.w3.org/2000/svg" xmlns:xlink="http://www.w3.org/1999/xlink" x="0px" y="0px"
	 viewBox="0 0 80 80" style="enable-background:new 0 0 80 80;" xml:space="preserve">
<g>
	<path d="M74.4,80H17.6c-6.6,0-12-5.4-12-12V0h56.9c6.6,0,12,5.4,12,12V80z M9.6,4V68c0,4.4,3.6,8,8,8h52.9V12c0-4.4-3.6-8-8-8H9.6z
		"/>
</g>
<path d="M62.9,60.6c-0.7-1.3-4.8-6.5-8.4-11.2c4.9-4.1,7.9-10.4,7.9-18.1c0-13.6-9.2-23.1-22.3-23.1c-12.9,0-22.3,9.7-22.3,23.1
	c0,11.4,7.7,23,22.3,23c2.5,0,4.8-0.3,7-1c2,5.6,4.3,11.9,5.1,13.2C56.2,73.4,66.4,68.3,62.9,60.6z M40,50.4
	c-12.6,0-18.3-9.9-18.3-19c0-11.1,7.7-19.1,18.3-19.1c10.8,0,18.3,7.9,18.3,19.1c0,5.7-2,11.3-6.4,15c-2.1-2.7-3.7-4.7-3.8-4.9
	c-1.5-2.7-6-1.3-4.6,2.6c0.1,0.2,1,2.6,2.1,5.7C43.9,50.1,42.1,50.4,40,50.4z"/>
<g>
	<path d="M40,37.2c-3.3,0-5.9-2.7-5.9-5.9s2.7-5.9,5.9-5.9c3.3,0,5.9,2.7,5.9,5.9S43.3,37.2,40,37.2z M40,29.4
		c-1.1,0-1.9,0.9-1.9,1.9s0.9,1.9,1.9,1.9s1.9-0.9,1.9-1.9S41.1,29.4,40,29.4z"/>
</g>
</svg>
