<?xml version="1.0" encoding="utf-8"?>
<!-- Generator: Adobe Illustrator 19.2.1, SVG Export Plug-In . SVG Version: 6.00 Build 0)  -->
<svg version="1.1" id="Calque_1" xmlns="http://www.w3.org/2000/svg" xmlns:xlink="http://www.w3.org/1999/xlink" x="0px" y="0px"
	 viewBox="0 0 80 80" style="enable-background:new 0 0 80 80;" xml:space="preserve">
<path d="M80,3.2C80,3.2,80,3.2,80,3.2c0-0.2,0-0.4-0.1-0.5c0,0,0-0.1,0-0.1c-0.1-0.3-0.2-0.6-0.4-0.8c0,0,0,0-0.1-0.1c0,0,0,0,0,0
	c0,0,0,0-0.1,0c-0.1-0.1-0.2-0.2-0.3-0.2c0,0-0.1,0-0.1-0.1c-0.1-0.1-0.3-0.1-0.5-0.2c0,0-0.1,0-0.1,0c-0.1,0-0.3,0-0.4,0
	c0,0-0.1,0-0.1,0c-0.2,0-0.3,0-0.5,0.1c0,0,0,0,0,0l-76,27.1c-0.7,0.2-1.2,0.8-1.3,1.5c-0.1,0.7,0.1,1.4,0.7,1.9l22.8,19.7V76
	c0,0.8,0.5,1.5,1.2,1.8c0.3,0.1,0.5,0.2,0.8,0.2c0.5,0,1-0.2,1.4-0.5l12.8-11.9l14.7,12.7c0.4,0.3,0.8,0.5,1.3,0.5
	c0.2,0,0.4,0,0.6-0.1c0.7-0.2,1.2-0.7,1.4-1.3L79.9,3.8c0,0,0,0,0,0C80,3.6,80,3.4,80,3.2z M69.2,8.5L25.4,48L5.9,31L69.2,8.5z
	 M27.5,71.4V55l9.1,7.9L27.5,71.4z M54.6,73.3L28.5,50.6L74,9.5L54.6,73.3z"/>
</svg>
