<?xml version="1.0" encoding="utf-8"?>
<!-- Generator: Adobe Illustrator 19.2.1, SVG Export Plug-In . SVG Version: 6.00 Build 0)  -->
<svg version="1.1" id="Calque_1" xmlns="http://www.w3.org/2000/svg" xmlns:xlink="http://www.w3.org/1999/xlink" x="0px" y="0px"
	 viewBox="0 0 80 80" style="enable-background:new 0 0 80 80;" xml:space="preserve">
<g>
	<rect x="23.7" y="52.2" width="12.4" height="4"/>
</g>
<g>
	<rect x="23.7" y="59.3" width="20.2" height="4"/>
</g>
<circle cx="12.9" cy="36.3" r="3"/>
<g>
	<g>
		<path d="M58,62.1c-0.3,0-0.7-0.1-1-0.3c-0.6-0.4-1-1-1-1.7v-5.1H42c-1.1,0-2-0.9-2-2v-8c0-1.1,0.9-2,2-2h14v-6
			c0-0.7,0.4-1.4,1-1.7c0.6-0.4,1.4-0.4,2,0l20,11.6c0.6,0.4,1,1,1,1.7s-0.4,1.4-1,1.7L59,61.8C58.6,62,58.3,62.1,58,62.1z M44,50.9
			h14c1.1,0,2,0.9,2,2v3.7l14-8.1l-14-8.1v4.6c0,1.1-0.9,2-2,2H44V50.9z"/>
	</g>
</g>
<g>
	<path d="M47,58.5v7H21v-19h15v-1.6c0-0.8,0.2-1.4,0.5-2.4H17v9H7.4c-1.9,0-3.4-1.9-3.4-3.8V31.5c0-2.4,2-4,4.4-4h50.8
		c1.9,0,3.8,1.1,3.8,3.1v2.3l4,2.3v-4.6c0-4.1-3.6-7.1-7.8-7.1H51v-13H17v13H8.4c-4.6,0-8.4,3.3-8.4,8v16.3c0,4.1,3.3,7.8,7.4,7.8
		H17v14h34v-11H47z M21,15.5h26v8H21V15.5z"/>
</g>
</svg>
