<?xml version="1.0" encoding="utf-8"?>
<!-- Generator: Adobe Illustrator 19.1.1, SVG Export Plug-In . SVG Version: 6.00 Build 0)  -->
<svg version="1.1" id="Calque_1" xmlns="http://www.w3.org/2000/svg" xmlns:xlink="http://www.w3.org/1999/xlink" x="0px" y="0px"
	 viewBox="0 0 80 80" style="enable-background:new 0 0 80 80;" xml:space="preserve">
<path d="M40,0C17.1,0,1.4,17.5,1.4,40.1C1.4,60.9,15,80,40,80c24.7,0,38.6-18.4,38.6-39.9C78.6,17.8,64,0,40,0z M39.3,64.6
	c-3.6,0-5.6-2.6-5.6-5.5c0-3.1,2.3-5.5,5.6-5.5c3.5,0,5.6,2.4,5.6,5.5C45,62.1,42.9,64.6,39.3,64.6z M49.2,37.9
	c-0.8,0.6-3.7,2.9-4.3,3.4s-0.9,1.3-1,2L43,48h-6.8l-0.7-5.4c-0.3-1.9,0.4-3.4,1.9-4.9c1.3-1.4,4.6-3.1,6.1-5.3
	c2.3-3.4,0.8-7-2.1-7.4c-3.2-0.5-5.5,0.4-7.7,1.8c-1,0.6-2.4,0.5-3.3-0.8l-2.6-4c3-2.5,7.2-4.8,13-4.8c7.3,0,13.1,3.8,13.1,11.3
	C53.9,33.3,51.3,36.3,49.2,37.9z"/>
</svg>
