<?xml version="1.0" encoding="utf-8"?>
<!-- Generator: Adobe Illustrator 20.0.0, SVG Export Plug-In . SVG Version: 6.00 Build 0)  -->
<svg version="1.1" id="Calque_1" xmlns="http://www.w3.org/2000/svg" xmlns:xlink="http://www.w3.org/1999/xlink" x="0px" y="0px"
	 viewBox="0 0 80 80" style="enable-background:new 0 0 80 80;" xml:space="preserve">
<g>
	<rect x="13.4" y="25" width="30.9" height="4"/>
</g>
<g>
	<rect x="13.4" y="43.4" width="30.9" height="4"/>
</g>
<g>
	<g>
		<path d="M57.9,49.4c-0.3,0-0.7-0.1-1-0.3c-0.6-0.4-1-1-1-1.7v-5.1H42c-1.1,0-2-0.9-2-2v-8c0-1.1,0.9-2,2-2h14v-6
			c0-0.7,0.4-1.4,1-1.7c0.6-0.4,1.4-0.4,2,0l20,11.6c0.6,0.4,1,1,1,1.7s-0.4,1.4-1,1.7l-20,11.6C58.6,49.4,58.3,49.4,57.9,49.4z
			 M44,38.3h14c1.1,0,2,0.9,2,2V44l14-8.1l-14-8.1v4.6c0,1.1-0.9,2-2,2H44V38.3z"/>
	</g>
</g>
<rect x="13" y="33.9" width="23" height="4"/>
<path d="M55.2,52.6c-0.6-0.3-1.2-0.7-1.2-1.2V53c0,2-2.1,4-4.1,4h-33L4,62.7V18.8c0-2,1.8-3.9,3.9-3.9H54v5.4c0-0.5,0.9-0.9,1.5-1.2
	c0.8-0.4,1.5-0.7,2.5-0.8v-7.4H7.8c-4.2,0-7.9,3.6-7.9,7.9v50.3l17.8-8.1h32.1c4.1,0,7.5-3.4,7.7-7.4C56.7,53.5,56,53.1,55.2,52.6z"
	/>
</svg>
