<?xml version="1.0" encoding="utf-8"?>
<!-- Generator: Adobe Illustrator 19.0.0, SVG Export Plug-In . SVG Version: 6.00 Build 0)  -->
<svg version="1.1" id="Calque_1" xmlns="http://www.w3.org/2000/svg" xmlns:xlink="http://www.w3.org/1999/xlink" x="0px" y="0px"
	 viewBox="-267 357.5 76.8 79.5" style="enable-background:new -267 357.5 76.8 79.5;" xml:space="preserve">
<path id="XMLID_776_" d="M-226.7,395.2l-0.1-21.4c0-1.1-0.9-2.1-2-2c-1.1,0-2,0.8-2,2l0.1,21.4l-21.4-0.1c-1.1,0-2,0.8-2,2
	c0,1.1,0.8,2,2,2l21.4,0.1l0.1,21.5c0,1.1,0.9,2.1,2,2c0.6,0,1.1-0.2,1.4-0.6c0.4-0.4,0.6-0.8,0.6-1.4l-0.1-21.4l21.4,0.1
	c0.6,0,1.1-0.2,1.4-0.6c0.4-0.4,0.6-0.8,0.6-1.4c0-1.1-0.8-2-2-2L-226.7,395.2z"/>
<g id="XMLID_778_">
	<path id="XMLID_771_" d="M-228.6,437c-5.7,0-10.9-1-15.6-2.9s-8.8-4.7-12.2-8.2s-6-7.8-7.8-12.6c-1.9-4.9-2.8-10.3-2.8-16
		c0-5.8,0.9-11.1,2.8-16c1.8-4.9,4.5-9.1,7.8-12.6c3.4-3.5,7.5-6.3,12.2-8.3c4.7-1.9,9.9-2.9,15.6-2.9c5.7,0,10.9,1,15.6,2.9
		c4.7,2,8.8,4.7,12.2,8.3c3.4,3.5,6,7.8,7.8,12.6c1.8,4.8,2.8,10.2,2.8,15.9c0,5.8-0.9,11.1-2.8,15.9c-1.8,4.9-4.5,9.1-7.8,12.6
		c-3.4,3.5-7.5,6.3-12.2,8.2C-217.7,436-222.9,437-228.6,437z M-228.6,361.5c-5.1,0-9.9,0.9-14.1,2.6c-4.2,1.7-7.8,4.2-10.8,7.3
		s-5.3,6.9-7,11.3c-1.7,4.4-2.5,9.3-2.5,14.6c0,5.2,0.8,10.1,2.5,14.5c1.6,4.3,4,8.1,7,11.3c3,3.1,6.6,5.6,10.8,7.3
		c4.2,1.7,8.9,2.6,14.1,2.6c5.1,0,9.9-0.9,14.1-2.6c4.2-1.7,7.8-4.2,10.8-7.3s5.3-6.9,7-11.3c1.7-4.4,2.5-9.3,2.5-14.5
		c0-5.3-0.8-10.2-2.5-14.5c-1.6-4.3-4-8.1-7-11.3c-3-3.1-6.6-5.6-10.8-7.3C-218.7,362.4-223.5,361.5-228.6,361.5z"/>
</g>
</svg>
