<?xml version="1.0" encoding="utf-8"?>
<!-- Generator: Adobe Illustrator 21.1.0, SVG Export Plug-In . SVG Version: 6.00 Build 0)  -->
<svg version="1.1" id="Calque_1" xmlns="http://www.w3.org/2000/svg" xmlns:xlink="http://www.w3.org/1999/xlink" x="0px" y="0px"
	 viewBox="0 0 80 80" style="enable-background:new 0 0 80 80;" xml:space="preserve">
<g>
	<g>
		<path d="M40,32c-8.8,0-16-7.2-16-16S31.2,0,40,0s16,7.2,16,16S48.8,32,40,32z M40,4c-6.6,0-12,5.4-12,12s5.4,12,12,12
			s12-5.4,12-12S46.6,4,40,4z"/>
	</g>
	<g>
		<path d="M62,80H18c-1.1,0-2-0.9-2-2V64.8C16,50.9,26.5,40,40,40s24,10.9,24,24.8V78C64,79.1,63.1,80,62,80z M20,76h40V64.8
			C60,53.1,51.2,44,40,44s-20,9.1-20,20.8V76z"/>
	</g>
</g>
</svg>
