<?xml version="1.0" encoding="utf-8"?>
<!-- Generator: Adobe Illustrator 19.1.1, SVG Export Plug-In . SVG Version: 6.00 Build 0)  -->
<svg version="1.1" id="Calque_1" xmlns="http://www.w3.org/2000/svg" xmlns:xlink="http://www.w3.org/1999/xlink" x="0px" y="0px"
	 viewBox="0 0 80 80" style="enable-background:new 0 0 80 80;" xml:space="preserve">
<g>
	<g>
		<path d="M30,62.6c-1.1,0-2-0.9-2-2v-3.4c0-1.1,0.9-2,2-2s2,0.9,2,2v3.4C32,61.7,31.1,62.6,30,62.6z"/>
	</g>
</g>
<g>
	<g>
		<path d="M21,62.6c-1.1,0-2-0.9-2-2v-3.4c0-1.1,0.9-2,2-2s2,0.9,2,2v3.4C23,61.7,22.1,62.6,21,62.6z"/>
	</g>
</g>
<g>
	<g>
		<path d="M12,62.6c-1.1,0-2-0.9-2-2v-3.4c0-1.1,0.9-2,2-2s2,0.9,2,2v3.4C14,61.7,13.1,62.6,12,62.6z"/>
	</g>
</g>
<path d="M77,29.8H58V10.3c0-1.7-1.3-3-3-3s-3,1.3-3,3v19.5H34c-1.7,0-3,1.3-3,3s1.3,3,3,3H52v17.5c0,1.7,1.3,3,3,3s3-1.3,3-3V35.8
	H77c1.7,0,3-1.3,3-3S78.6,29.8,77,29.8z"/>
<path d="M65,39.8v21.1c0,4.4-3.2,7.9-7.6,7.9H12c-4.4,0-8-3.5-8-7.9V45.8h44v-4H4v-7h23.3c-0.3,0-0.4-1.5-0.4-2.3
	c0-0.6,0.1-0.7,0.2-1.7H5.1c1.4-2.4,4-4,6.9-4h36v-4H12c-6.6,0-12,5.3-12,11.9v26.1c0,6.6,5.4,11.9,12,11.9h45.4
	C64,72.8,69,67.4,69,60.8V39.8H65z"/>
</svg>
