<?xml version="1.0" encoding="utf-8"?>
<!-- Generator: Adobe Illustrator 19.1.1, SVG Export Plug-In . SVG Version: 6.00 Build 0)  -->
<svg version="1.1" id="Calque_1" xmlns="http://www.w3.org/2000/svg" xmlns:xlink="http://www.w3.org/1999/xlink" x="0px" y="0px"
	 viewBox="0 1.1 80 80" style="enable-background:new 0 1.1 80 80;" xml:space="preserve">
<path d="M0,7.2v4h13v33.7c0,5.6,4.9,10.3,10.5,10.3H76v-4H23.5c-3.4,0-6.5-2.9-6.5-6.3v-1.7h51c6.6,0,12-5.5,12-12.1V7.2H0z
	 M76,31.1c0,4.4-3.6,8.1-8,8.1H17v-28h59V31.1z"/>
<g>
	<path d="M29.3,75c-4.4,0-8-3.6-8-8s3.6-8,8-8s8,3.6,8,8S33.7,75,29.3,75z M29.3,63c-2.2,0-4,1.8-4,4c0,2.2,1.8,4,4,4s4-1.8,4-4
		C33.3,64.8,31.5,63,29.3,63z"/>
</g>
<g>
	<path d="M68.3,75c-4.4,0-8-3.6-8-8s3.6-8,8-8s8,3.6,8,8S72.7,75,68.3,75z M68.3,63c-2.2,0-4,1.8-4,4c0,2.2,1.8,4,4,4s4-1.8,4-4
		C72.3,64.8,70.5,63,68.3,63z"/>
</g>
</svg>
