<?xml version="1.0" encoding="utf-8"?>
<!-- Generator: Adobe Illustrator 19.1.1, SVG Export Plug-In . SVG Version: 6.00 Build 0)  -->
<svg version="1.1" id="Calque_1" xmlns="http://www.w3.org/2000/svg" xmlns:xlink="http://www.w3.org/1999/xlink" x="0px" y="0px"
	 viewBox="0 0 80 80" style="enable-background:new 0 0 80 80;" xml:space="preserve">
<g>
	<g>
		<path d="M75.6,69.2c-0.2,0-0.4,0-0.7-0.1c-1-0.4-1.6-1.5-1.2-2.5c1.5-4.3,2.3-9.1,2.3-14.3c0-18.6-11.1-37.4-36-37.4
			c-24.7,0-36,19.4-36,37.4c0,5,0.7,9.7,2.2,13.9c0.4,1-0.2,2.2-1.3,2.5c-1,0.4-2.2-0.2-2.5-1.3C0.8,62.8,0,57.7,0,52.2
			c0-19.9,12.5-41.4,40-41.4c27.5,0,40,21.5,40,41.4c0,5.6-0.8,10.9-2.5,15.6C77.2,68.7,76.4,69.2,75.6,69.2z"/>
	</g>
</g>
<path d="M55.2,48.8c-0.4-1.5-13.6-2.9-16.8-2.1c-3.2,0.8-5.2,4.1-4.5,7.3c0.8,3.2,4.1,5.2,7.3,4.5C44.5,57.6,55.6,50.3,55.2,48.8z
	 M39.8,54.2c-0.9,0-1.6-0.7-1.6-1.6c0-0.9,0.7-1.6,1.6-1.6c0.9,0,1.6,0.7,1.6,1.6C41.5,53.4,40.7,54.2,39.8,54.2z"/>
<g>
	<path d="M39.9,31.4c-1.1,0-2-0.9-2-2v-8c0-1.1,0.9-2,2-2s2,0.9,2,2v8C41.9,30.5,41,31.4,39.9,31.4z"/>
</g>
<g>
	<path d="M18.9,57.4h-9c-1.1,0-2-0.9-2-2s0.9-2,2-2h9c1.1,0,2,0.9,2,2S20,57.4,18.9,57.4z"/>
</g>
<g>
	<path d="M68.9,57.4h-10c-1.1,0-2-0.9-2-2s0.9-2,2-2h10c1.1,0,2,0.9,2,2S70,57.4,68.9,57.4z"/>
</g>
<g>
	<path d="M25.5,43.1c-0.5,0-1-0.2-1.4-0.6l-6.4-6.4c-0.8-0.8-0.8-2,0-2.8c0.8-0.8,2-0.8,2.8,0l6.4,6.4c0.8,0.8,0.8,2,0,2.8
		C26.5,42.9,26,43.1,25.5,43.1z"/>
</g>
<g>
	<path d="M54.1,43.1c-0.5,0-1-0.2-1.4-0.6c-0.8-0.8-0.8-2,0-2.8l6.4-6.4c0.8-0.8,2-0.8,2.8,0c0.8,0.8,0.8,2,0,2.8l-6.4,6.4
		C55.1,42.9,54.6,43.1,54.1,43.1z"/>
</g>
</svg>
