<?xml version="1.0" encoding="utf-8"?>
<!-- Generator: Adobe Illustrator 19.1.1, SVG Export Plug-In . SVG Version: 6.00 Build 0)  -->
<svg version="1.1" id="Calque_1" xmlns="http://www.w3.org/2000/svg" xmlns:xlink="http://www.w3.org/1999/xlink" x="0px" y="0px"
	 viewBox="0 0 80 80" style="enable-background:new 0 0 80 80;" xml:space="preserve">
<path d="M50.3,31.8L41.7,17c-0.4-0.6-1-1-1.7-1s-1.4,0.4-1.7,1l-8.5,14.8c-0.6,1-0.2,2.2,0.7,2.7c1,0.6,2.2,0.2,2.7-0.7l4.7-8.1
	v16.1c0,1.1,0.9,2,2,2s2-0.9,2-2V25.2l5,8.6c0.6,1,1.8,1.3,2.7,0.7C50.5,34,50.8,32.7,50.3,31.8z"/>
<g>
	<g>
		<path d="M74.6,80H5.4V0h51.2c9.9,0,18,8.1,18,18V80z M9.4,76h61.3V18c0-7.7-6.3-14-14-14H9.4V76z"/>
	</g>
</g>
<path d="M32,64.3c0.2,0.1,1.6,1.6,1.6,1.6c-0.6,0.8-2.1,2.3-5.3,2.3c-3.8,0-7.1-2.5-7.1-7.5c0-4.9,3.5-7.4,7.3-7.4
	c3,0,4.7,1.7,5,1.9c0,0-1.2,1.7-1.4,1.8c-0.1,0.1-0.6,0.2-0.8,0c-0.6-0.3-1.3-1-2.9-1c-1.7,0-3.8,1-3.8,4.7c0,3.3,2,4.7,3.9,4.7
	c1.6,0,2.3-0.5,2.8-0.9C31.4,64.3,31.8,64.2,32,64.3z"/>
<path d="M58.9,53.4L53,68H50l-5.8-14.6h2.7c0.3,0,0.5,0.1,0.7,0.2s0.3,0.3,0.4,0.5l2.8,7.8c0.1,0.3,0.3,0.7,0.4,1.1s0.2,0.8,0.4,1.3
	c0.1-0.4,0.2-0.9,0.3-1.3c0.1-0.4,0.2-0.8,0.4-1.1l2.8-7.8c0.1-0.2,0.2-0.4,0.4-0.5c0.2-0.2,0.4-0.2,0.7-0.2H58.9z"/>
<path d="M43.1,56.4c-0.3,0.5-0.7,0.6-1.2,0.3c-0.6-0.3-1.4-0.8-2.3-0.8c-0.6,0-1.5,0.2-1.8,0.9c-0.2,0.7-0.2,1.3,0.9,1.8
	c0.6,0.3,2.4,0.7,3.4,1.3c1.6,0.9,2.4,2.5,1.9,4.7c-0.4,1.8-2.1,3.5-5,3.5c-2.2,0-4.3-1.2-5-1.9l1-1.6c0.3-0.4,0.8-0.5,1.3-0.2
	c1,0.6,1.7,1,2.8,1c0.9,0,1.7-0.3,1.9-1.2c0.2-0.9-0.1-1.4-1-1.9c-0.4-0.2-2.6-0.8-3.4-1.2c-2.1-1.1-2.4-3.4-1.7-5.2
	c0.5-1.2,2-2.7,4.7-2.7c2.5,0,4,1.1,4.5,1.5L43.1,56.4z"/>
</svg>
