<?xml version="1.0" encoding="utf-8"?>
<!-- Generator: Adobe Illustrator 21.0.0, SVG Export Plug-In . SVG Version: 6.00 Build 0)  -->
<svg version="1.1" id="Calque_1" xmlns="http://www.w3.org/2000/svg" xmlns:xlink="http://www.w3.org/1999/xlink" x="0px" y="0px"
	 viewBox="0 0 64 64" style="enable-background:new 0 0 64 64;" xml:space="preserve">
<g>
	<g>
		<path d="M46.2,8.3c-1.2-0.4-2.4,0-2.8,0.8c-0.4,1.2,0,2.4,0.8,2.8c8.3,4.7,13.4,13,13.4,22.5C57.7,48.6,46.2,60,32,60
			S6.3,48.6,6.3,34.4c0-9.5,5.1-18.2,13.4-22.5c0.8-0.8,1.2-2,0.8-2.8c-0.8-0.8-2-1.2-2.8-0.8C8.3,13.8,2.4,23.7,2.4,34.4
			C2.4,50.6,15.8,64,32,64s29.6-13.4,29.6-29.6C61.6,23.3,55.7,13.4,46.2,8.3L46.2,8.3z"/>
		<path d="M32,23.7c1.2,0,2-0.8,2-2V2c0-1.2-0.8-2-2-2c-1.2,0-2,0.8-2,2v19.8C30,22.9,30.8,23.7,32,23.7z"/>
	</g>
</g>
</svg>
