<svg xmlns="http://www.w3.org/2000/svg" width="32" height="32" viewBox="0 0 32 32">
    <path fill="#0050D7" fill-rule="evenodd" d="M30.5 4c.828 0 1.5.672 1.5 1.5v21c0 .829-.672 1.5-1.5 1.5l-29 .02c-.829 0-1.5-.671-1.5-1.5v-21c0-.828.671-1.5 1.5-1.5zm.5 8.02H1v14.5c0 .276.224.5.5.5l29-.02c.275 0 .5-.224.5-.5V12.02zm-15 2c3.314 0 6 2.687 6 6s-2.686 6-6 6c-3.313 0-6-2.687-6-6s2.687-6 6-6zm1.82 8h-3.64c.332 1.777 1.079 3 1.82 3 .742 0 1.488-1.223 1.82-3zm-4.659 0h-1.745c.508 1.165 1.448 2.099 2.618 2.599-.4-.684-.702-1.58-.873-2.6zm7.423 0H18.84c-.171 1.019-.473 1.915-.873 2.599 1.17-.5 2.11-1.434 2.618-2.6zM11.1 19.019c-.066.323-.1.658-.1 1 0 .344.034.678.1 1h1.939c-.025-.325-.04-.66-.04-1 0-.34.014-.674.04-1zm6.856 0h-3.912c-.029.323-.045.657-.045 1 0 .345.016.679.044 1h3.913c.029-.321.044-.655.044-1 0-.343-.015-.677-.044-1zm2.944 0h-1.94c.026.326.04.66.04 1 0 .34-.014.675-.04 1h1.94c.066-.322.1-.656.1-1 0-.342-.035-.677-.1-1zm-6.865-3.598l-.075.033c-1.135.507-2.046 1.426-2.544 2.566l1.745-.001c.171-1.018.473-1.914.873-2.598zm3.93 0l.012.02c.395.683.692 1.57.861 2.578h1.745c-.508-1.164-1.447-2.098-2.617-2.598zM16 15.02c-.74 0-1.487 1.223-1.819 2.999h3.64c-.319-1.702-1.017-2.895-1.727-2.992zM30.5 5l-29 .02c-.276 0-.5.224-.5.5v5.5h30V5.5c0-.276-.225-.5-.5-.5zM12 7.02c.552 0 1 .448 1 1s-.448 1-1 1-1-.448-1-1 .448-1 1-1zm-4 0c.552 0 1 .448 1 1s-.448 1-1 1-1-.448-1-1 .448-1 1-1zm-4 0c.552 0 1 .448 1 1s-.448 1-1 1-1-.448-1-1 .448-1 1-1z"/>
</svg>
