<svg xmlns="http://www.w3.org/2000/svg" width="32" height="32" viewBox="0 0 32 32">
    <path fill="#0050D7" fill-rule="evenodd" d="M30.5 4c.828 0 1.5.672 1.5 1.5v21c0 .828-.672 1.5-1.5 1.5h-29C.672 28 0 27.328 0 26.5v-21C0 4.672.672 4 1.5 4h29zm.5 8H1v14.5c0 .276.224.5.5.5l7.572.001c-.363-.626-.639-1.3-.82-2.001H6.65c-.243 0-.45-.175-.493-.414-.183-1.05-.183-2.123 0-3.172.042-.24.25-.414.493-.414h1.604c.188-.723.478-1.416.86-2.059l-1.148-1.147c-.171-.172-.195-.442-.055-.641.611-.872 1.37-1.631 2.242-2.242.199-.14.469-.116.64.055l1.15 1.15c.642-.38 1.334-.667 2.057-.854V13.66c0-.243.175-.45.414-.493 1.05-.183 2.123-.183 3.172 0 .24.042.414.25.414.493v1.602c.723.187 1.415.474 2.058.853l1.148-1.149c.172-.171.443-.195.641-.055.872.612 1.63 1.37 2.242 2.242.14.198.116.469-.055.64l-1.15 1.15c.38.642.667 1.335.853 2.057h1.603c.243 0 .45.175.493.414.183 1.05.183 2.123 0 3.172-.042.24-.25.414-.493.414h-1.602c-.182.701-.457 1.375-.82 2.001L30.5 27c.276 0 .5-.224.5-.5V12zm-16 2.091v1.569c0 .238-.167.443-.4.49-.876.178-1.709.523-2.454 1.017-.198.131-.461.105-.63-.063l-1.125-1.126c-.527.411-1.002.886-1.413 1.413l1.126 1.125c.168.169.194.433.062.632-.497.744-.845 1.577-1.026 2.453-.048.232-.253.399-.49.399H7.081c-.081.664-.081 1.336 0 2H8.65c.238 0 .443.167.49.4.178.876.523 1.709 1.017 2.454.03.046.052.096.066.146h11.544c.014-.05.035-.1.066-.146.493-.745.839-1.578 1.017-2.454.048-.233.252-.4.49-.4h1.569c.081-.664.081-1.336 0-2H23.34c-.238 0-.442-.167-.49-.4-.179-.876-.524-1.709-1.017-2.454-.131-.198-.105-.462.063-.63l1.126-1.125c-.412-.526-.887-1.001-1.413-1.413l-1.125 1.126c-.169.168-.432.194-.63.063-.745-.494-1.578-.839-2.454-1.017-.233-.047-.4-.252-.4-.49v-1.569c-.664-.081-1.336-.081-2 0zM16 20c1.657 0 3 1.343 3 3s-1.343 3-3 3-3-1.343-3-3 1.343-3 3-3zm0 1c-1.105 0-2 .895-2 2s.895 2 2 2 2-.895 2-2-.895-2-2-2zM30.5 5h-29c-.276 0-.5.224-.5.5V11h30V5.5c0-.276-.224-.5-.5-.5zM4 7c.552 0 1 .448 1 1s-.448 1-1 1-1-.448-1-1 .448-1 1-1zm4 0c.552 0 1 .448 1 1s-.448 1-1 1-1-.448-1-1 .448-1 1-1zm4 0c.552 0 1 .448 1 1s-.448 1-1 1-1-.448-1-1 .448-1 1-1z"/>
</svg>
