<svg xmlns="http://www.w3.org/2000/svg" width="32" height="32" viewBox="0 0 32 32">
    <path fill="#0050D7" fill-rule="evenodd" d="M29.45 1c.828 0 1.5.672 1.5 1.5l.002 5.787c.03.064.048.137.048.213 0 .076-.017.149-.048.213L30.95 21.5c0 .828-.672 1.5-1.5 1.5H17v4.5c0 .416-.478.65-.806.395l-2.284-1.77L12 30.693c-.106.254-.398.374-.652.269l-3.14-1.3c-.256-.106-.377-.4-.27-.655l1.902-4.553-2.625-.287c-.418-.046-.597-.555-.298-.852L7.234 23H2.45c-.828 0-1.5-.672-1.5-1.5v-19c0-.828.672-1.5 1.5-1.5h27zM16 15.702l-7.635 7.585 2.25.246c.331.036.535.382.406.69L9.055 28.93l2.216.917 1.968-4.71c.127-.303.507-.404.767-.202L16 26.48l-.001-3.765c-.032-.065-.049-.138-.049-.215 0-.077.017-.15.049-.215L16 15.702zM29.95 9h-28v12.5c0 .276.224.5.5.5h5.791l7.907-7.855c.315-.313.852-.09.852.355V22h12.45c.276 0 .5-.224.5-.5V9zm-.5-7h-27c-.276 0-.5.224-.5.5V8h28V2.5c0-.276-.224-.5-.5-.5zM5 4c.552 0 1 .448 1 1s-.448 1-1 1-1-.448-1-1 .448-1 1-1zm4 0c.552 0 1 .448 1 1s-.448 1-1 1-1-.448-1-1 .448-1 1-1zm4 0c.552 0 1 .448 1 1s-.448 1-1 1-1-.448-1-1 .448-1 1-1z"/>
</svg>
