<svg xmlns="http://www.w3.org/2000/svg" width="32" height="32" viewBox="0 0 32 32">
    <path fill="#0050D7" fill-rule="evenodd" d="M4.854 18.146c.195.196.195.512 0 .708L1.707 22H31.46c.276 0 .5.224.5.5s-.224.5-.5.5H1.707l3.147 3.146c.195.196.195.512 0 .708-.196.195-.512.195-.708 0l-4-4-.011-.013c-.012-.012-.023-.025-.033-.039l.044.052c-.026-.027-.05-.056-.069-.087l-.02-.035-.02-.041-.014-.04c-.005-.015-.009-.03-.012-.046l-.006-.03c-.003-.022-.004-.043-.005-.063v-.022c0-.022.002-.043.005-.064L0 22.5c0-.036.004-.071.011-.105l.012-.046.015-.04c.005-.014.012-.027.019-.04.006-.013.013-.025.02-.036l.025-.035c.01-.014.02-.027.033-.04l.011-.012 4-4c.196-.195.512-.195.708 0zm23-13l4 4c.195.196.195.512 0 .708l-4 4c-.196.195-.512.195-.708 0-.195-.196-.195-.512 0-.708l3.156-3.156H.5c-.276 0-.5-.224-.5-.5s.224-.5.5-.5h29.782l-3.136-3.136c-.195-.196-.195-.512 0-.708.196-.195.512-.195.708 0z"/>
</svg>
