<svg xmlns="http://www.w3.org/2000/svg" width="32" height="32" viewBox="0 0 32 32">
    <path fill="#0050D7" fill-rule="evenodd" d="M16 0c1.38 0 2.5 1.12 2.5 2.5v1.785C23.37 5.418 27 9.785 27 15v8.5c0 2.414 1.901 4.384 4.288 4.495L31.5 28h-3.163c.82.578 1.805.937 2.87.992L31.5 29H19.464c-.243 1.697-1.701 3-3.464 3s-3.221-1.303-3.464-3H.5c1.177 0 2.268-.37 3.163-1l-3.121-.001L.5 28v1c-.667 0-.667-1 0-1l.042-.001.17-.004C3.099 27.885 5 25.915 5 23.5V15c0-5.215 3.63-9.583 8.5-10.715V2.5C13.5 1.12 14.62 0 16 0zm2.45 29h-4.9c.232 1.141 1.24 2 2.45 2 1.21 0 2.218-.859 2.45-2zm13.05-1c.63 0 .665.892.105.991L31.5 29v-1zM16 5C10.477 5 6 9.477 6 15v8.5c0 1.86-.923 3.505-2.337 4.5h24.674C26.923 27.005 26 25.36 26 23.5V15c0-5.523-4.477-10-10-10zm0-4c-.828 0-1.5.672-1.5 1.5v1.601C14.99 4.035 15.491 4 16 4c.51 0 1.01.035 1.5.102V2.5c0-.828-.672-1.5-1.5-1.5z"/>
</svg>
