<svg xmlns="http://www.w3.org/2000/svg" width="32" height="32" viewBox="0 0 32 32">
    <path fill="#0050D7" fill-rule="evenodd" d="M24.702.411l5 27.8c.049.272-.132.532-.404.581l-17.42 3.13c-2.187.39-4.287-.87-5.02-2.889-.023-.043-.04-.09-.05-.14l-.002-.013c-.062-.19-.112-.388-.148-.591l-3.59-19.92C2.855 7.193 3.118 5.981 3.8 5c.682-.981 1.726-1.651 2.902-1.862l17.42-3.13c.271-.049.531.132.58.403zm2.646 20.36l-15.066 3.075c-.018.006-.037.011-.056.015l-.052.005-1.732.354c-1.866.387-3.08 2.195-2.73 4.066l.064.342c.549 1.607 2.203 2.618 3.926 2.31l16.927-3.042-.894-4.972-1.243.246.717 3.304c.06.275-.12.546-.397.598L11.645 29.9c-1.191.23-2.345-.543-2.585-1.73-.133-.65-.002-1.327.364-1.88.366-.553.936-.938 1.589-1.071l16.545-3.281-.21-1.167zm-1.837 2.594L11.21 26.2c-.39.08-.732.31-.952.643-.22.331-.298.737-.218 1.128.132.65.763 1.074 1.418.947l14.664-2.735-.611-2.818zM7.835 3.95l-.957.172c-.914.164-1.726.685-2.257 1.448-.53.764-.735 1.706-.569 2.621l3.126 17.345c.607-1.142 1.7-2.013 3.062-2.296l1.303-.266L7.835 3.95zm15.971-2.87L8.82 3.774l3.704 19.002 14.648-2.987L23.806 1.08z"/>
</svg>
