<svg xmlns="http://www.w3.org/2000/svg" width="32" height="32" viewBox="0 0 32 32">
    <path fill="#0050D7" fill-rule="evenodd" d="M26.5 0c.276 0 .5.224.5.5V3h1.5C30.433 3 32 4.567 32 6.5v22c0 1.933-1.567 3.5-3.5 3.5h-25C1.567 32 0 30.433 0 28.5v-22C0 4.567 1.567 3 3.5 3H5V.5c0-.276.224-.5.5-.5s.5.224.5.5V3h6V.5c0-.276.224-.5.5-.5s.5.224.5.5V3h6V.5c0-.276.224-.5.5-.5s.5.224.5.5V3h6V.5c0-.276.224-.5.5-.5zM31 11H1v17.5C1 29.88 2.12 31 3.5 31h25c1.38 0 2.5-1.12 2.5-2.5V11zM10.5 22c.276 0 .5.224.5.5v5c0 .276-.224.5-.5.5h-5c-.276 0-.5-.224-.5-.5v-5c0-.276.224-.5.5-.5h5zm16 0c.276 0 .5.224.5.5v5c0 .276-.224.5-.5.5h-5c-.276 0-.5-.224-.5-.5v-5c0-.276.224-.5.5-.5h5zm-8 0c.276 0 .5.224.5.5v5c0 .276-.224.5-.5.5h-5c-.276 0-.5-.224-.5-.5v-5c0-.276.224-.5.5-.5h5zM10 23H6v4h4v-4zm16 0h-4v4h4v-4zm-8 0h-4v4h4v-4zm-7.5-9c.276 0 .5.224.5.5v5c0 .276-.224.5-.5.5h-5c-.276 0-.5-.224-.5-.5v-5c0-.276.224-.5.5-.5h5zm16 0c.276 0 .5.224.5.5v5c0 .276-.224.5-.5.5h-5c-.276 0-.5-.224-.5-.5v-5c0-.276.224-.5.5-.5h5zm-8 0c.276 0 .5.224.5.5v5c0 .276-.224.5-.5.5h-5c-.276 0-.5-.224-.5-.5v-5c0-.276.224-.5.5-.5h5zM10 15H6v4h4v-4zm16 0h-4v4h4v-4zm-8 0h-4v4h4v-4zM5 4H3.5C2.12 4 1 5.12 1 6.5V10h30V6.5C31 5.12 29.88 4 28.5 4H27v2.5c0 .276-.224.5-.5.5s-.5-.224-.5-.5V4h-6v2.5c0 .276-.224.5-.5.5s-.5-.224-.5-.5V4h-6v2.5c0 .276-.224.5-.5.5s-.5-.224-.5-.5V4H6v2.5c0 .276-.224.5-.5.5S5 6.776 5 6.5V4z"/>
</svg>
