<svg xmlns="http://www.w3.org/2000/svg" width="32" height="32" viewBox="0 0 32 32">
    <path fill="#0050D7" fill-rule="evenodd" d="M16.62 4c5.523 0 10 4.477 10 10 0 6.136-5.998 18-10 18-3.316 0-10-12.428-10-18 0-5.523 4.477-10 10-10zm0 1c-4.97 0-9 4.03-9 9 0 5.093 6.404 17 9 17 3.265 0 9-11.345 9-17 0-4.97-4.03-9-9-9zm.01 3c3.314 0 6 2.686 6 6s-2.686 6-6 6-6-2.686-6-6 2.686-6 6-6zm0 1c-2.761 0-5 2.239-5 5s2.239 5 5 5 5-2.239 5-5-2.239-5-5-5zm1.99 3c-.269.972-.706 1.889-1.29 2.71-.397.34-.988.317-1.358-.052-.369-.37-.392-.961-.052-1.358.81-.6 1.726-1.04 2.7-1.3zM9.247 2.977c.168.219.126.533-.094.7-1.288.984-2.382 2.2-3.226 3.583-.144.236-.452.31-.687.167-.236-.144-.31-.452-.167-.687.909-1.49 2.087-2.798 3.474-3.857.219-.168.533-.126.7.094zm15.011-.125c1.502.905 2.82 2.083 3.889 3.473.168.22.127.533-.092.702-.22.168-.533.127-.702-.092-.992-1.292-2.217-2.386-3.611-3.227-.237-.142-.313-.45-.17-.686.142-.237.45-.313.686-.17zM19.13 0c.276 0 .5.224.5.5s-.224.5-.5.5h-5c-.276 0-.5-.224-.5-.5s.224-.5.5-.5h5z"/>
</svg>
