<svg xmlns="http://www.w3.org/2000/svg" width="32" height="32" viewBox="0 0 32 32">
    <path fill="#0050D7" fill-rule="evenodd" d="M20.036.316C24.071 1.267 26.933 4.85 26.97 9v.285c3.246.953 5.367 4.113 4.978 7.512-.405 3.532-3.393 6.2-6.948 6.203l-6.942-.001c.027.061.042.13.042.201v3.5h.567c1.283 0 2.352.918 2.586 2.133h10.214c.276 0 .5.224.5.5s-.224.5-.5.5H21.253c-.234 1.216-1.303 2.134-2.586 2.134h-5.334c-1.283 0-2.352-.918-2.586-2.134H.533c-.276 0-.5-.224-.5-.5s.224-.5.5-.5h10.214c.234-1.215 1.303-2.133 2.586-2.133h.566l.001-3.5c0-.072.015-.14.042-.201L6.998 23c-3.156-.011-5.914-2.133-6.734-5.18-.786-2.92.393-5.998 2.888-7.652-.484-1.899.195-3.923 1.761-5.14 1.53-1.19 3.596-1.371 5.294-.507 1.986-3.389 5.967-5.116 9.83-4.205zM18.666 27.7h-5.333c-.902 0-1.633.731-1.633 1.633s.731 1.634 1.633 1.634h5.334c.902 0 1.633-.732 1.633-1.634 0-.902-.731-1.633-1.633-1.633zm-1.524-4.701h-2.284c.027.061.042.13.042.201v3.5h2.2v-3.5c0-.072.015-.14.042-.201zM10.845 5.437c-.135.265-.47.354-.719.191-1.415-.926-3.263-.85-4.599.189-1.335 1.038-1.863 2.81-1.314 4.41.077.226-.015.474-.22.595-2.335 1.366-3.467 4.126-2.764 6.738C1.932 20.172 4.297 21.99 7 22h18c3.047-.003 5.607-2.29 5.954-5.317.347-3.027-1.63-5.834-4.598-6.526-.226-.053-.386-.255-.386-.487v-.666c-.033-3.684-2.577-6.87-6.163-7.715-3.586-.846-7.286.867-8.962 4.148z"/>
</svg>
