<svg xmlns="http://www.w3.org/2000/svg" width="32" height="32" viewBox="0 0 32 32">
    <path fill="#0050D7" fill-rule="evenodd" d="M20.044 5.284c4.045.954 6.91 4.557 6.926 8.716v.285c3.246.953 5.367 4.113 4.978 7.512-.405 3.532-3.393 6.2-6.948 6.203H6.998c-3.156-.011-5.914-2.133-6.734-5.18-.786-2.92.393-5.998 2.888-7.652-.484-1.899.195-3.923 1.761-5.14 1.53-1.19 3.594-1.371 5.292-.508 1.976-3.407 5.965-5.15 9.839-4.236zm-9.198 5.151c-.134.267-.47.357-.72.193-1.415-.926-3.263-.85-4.599.189-1.335 1.038-1.863 2.81-1.314 4.41.077.226-.015.474-.22.595-2.335 1.366-3.467 4.126-2.764 6.738C1.932 25.172 4.297 26.99 7 27h18c3.047-.003 5.607-2.29 5.954-5.317.347-3.027-1.63-5.834-4.598-6.526-.226-.053-.386-.255-.386-.487v-.668c-.015-3.694-2.56-6.897-6.156-7.745-3.595-.848-7.304.88-8.968 4.178zM16 13c.077 0 .154.001.23.004L15.997 13c3.898.021 7.533 1.948 9.737 5.16.343.507.343 1.173 0 1.681-2.115 3.11-5.583 5.016-9.326 5.145-.135.01-.27.014-.408.014-.137 0-.273-.005-.408-.014-3.743-.13-7.21-2.035-9.326-5.146-.343-.507-.343-1.173.002-1.683 2.16-3.148 5.698-5.061 9.506-5.154l.072-.001.151-.002H16zm0 1c-2.761 0-5 2.239-5 5 0 2.653 2.067 4.824 4.679 4.99.106.002.214.004.321.004l.322-.004C18.933 23.824 21 21.653 21 19c0-2.689-2.122-4.882-4.783-4.995L16 14zm-4.456.982l-.289.137c-1.65.813-3.09 2.042-4.16 3.601-.115.17-.115.39-.002.559 1.132 1.664 2.687 2.952 4.469 3.758C10.592 21.972 10 20.555 10 19c0-1.545.584-2.954 1.544-4.018zm8.91 0l.074.082C21.445 16.117 22 17.494 22 19c0 1.555-.591 2.972-1.562 4.037 1.781-.806 3.337-2.093 4.468-3.757.114-.17.114-.39.002-.557-1.134-1.652-2.682-2.933-4.453-3.741zM16.09 17.01c-.057.157-.088.323-.09.49 0 .828.672 1.5 1.5 1.5l.01.01c.167-.002.333-.033.49-.09v.09c0 1.105-.895 2-2 2s-2-.895-2-2 .895-2 2-2z"/>
</svg>
