<svg xmlns="http://www.w3.org/2000/svg" width="32" height="32" viewBox="0 0 32 32">
    <path fill="#0050D7" fill-rule="evenodd" d="M16.53 4c.685 0 1.34.28 1.813.776.072.076.14.156.201.24 4.717.297 8.427 4.217 8.426 8.984v.285c3.246.953 5.367 4.113 4.978 7.512-.405 3.532-3.393 6.2-6.948 6.203h-8.42c-.045 0-.09-.006-.131-.017L2.47 27.98c-1.38 0-2.5-1.12-2.5-2.5v-6.5h.029L0 12.5V6.625c-.034-.684.215-1.353.687-1.85C1.16 4.28 1.815 4 2.5 4h14.03zm2.465 2.063l.022.143c.015.131.02.264.013.397l-.031 5.997.001 6.9h-.03l.03 5.977c0 .574-.192 1.102-.516 1.523H25c3.048-.003 5.608-2.29 5.955-5.317.347-3.027-1.63-5.834-4.598-6.526-.226-.053-.386-.255-.386-.487V14c.001-4.063-3.03-7.432-6.975-7.937zM17.972 19.98H.97v5.5c0 .828.672 1.5 1.5 1.5H16.5c.828 0 1.5-.67 1.5-1.499l-.028-5.501zM15.5 24c.276 0 .5.224.5.5s-.224.5-.5.5-.5-.224-.5-.5.224-.5.5-.5zm0-2c.276 0 .5.224.5.5s-.224.5-.5.5-.5-.224-.5-.5.224-.5.5-.5zm2.499-9h-17v5.98h17V13zM15.5 16c.276 0 .5.224.5.5s-.224.5-.5.5-.5-.224-.5-.5.224-.5.5-.5zm0-2c.276 0 .5.224.5.5s-.224.5-.5.5-.5-.224-.5-.5.224-.5.5-.5zm1.03-9H2.5c-.412 0-.805.168-1.089.466-.248.26-.393.6-.411.972V12h17.003l.028-5.425c.01-.225-.029-.447-.114-.651-.133-.082-.222-.222-.235-.383-.018-.027-.04-.051-.063-.075-.284-.298-.677-.467-1.089-.466zM15.5 9c.276 0 .5.224.5.5s-.224.5-.5.5-.5-.224-.5-.5.224-.5.5-.5zm0-2c.276 0 .5.224.5.5s-.224.5-.5.5-.5-.224-.5-.5.224-.5.5-.5z"/>
</svg>
