<svg xmlns="http://www.w3.org/2000/svg" width="32" height="33" viewBox="0 0 32 33">
    <path fill="#0050D7" fill-rule="evenodd" d="M21.37 26.177l.014-.003.025-.005.03-.008.024-.006.045-.011.048-.013-.045.012.198-.059.191-.069c.077-.03.153-.062.23-.097.045-.02.088-.04.137-.064l6.444-3.081c.333-.182.707-.277 1.082-.275.197 0 .393.025.58.074.575.146 1.066.516 1.364 1.023.302.508.38 1.119.217 1.679-.157.57-.536 1.054-1.036 1.331l-7.56 4.624c-.318.197-.87.44-1.634.656-1.061.3-2.326.488-3.804.52l-.45.005c-1.49 0-3.336-.484-5.39-1.301-.74-.295-1.466-.617-2.158-.95-.46-.221-.83-.41-1.078-.546-.27-.104-.543-.192-.82-.265-.296-.078-.596-.137-.898-.18l-.12-.015-.199-.022-.017-.002-.028-.002-.029-.003-.193-.014c-.159-.01-.319-.015-.478-.015v2.834c0 .246-.177.45-.41.492l-.09.008H.5c-.276 0-.5-.224-.5-.5s.224-.5.5-.5h4.562V18H.5c-.276 0-.5-.224-.5-.5s.224-.5.5-.5h5.062c.276 0 .5.224.5.5l-.001 2.327 3.316.458.471.065c.107.015.206.064.283.14.854.842 1.94 1.413 3.038 1.63l3.306.098.189-.006.186.008c.805.064 1.54.508 1.967 1.21.493.81.493 1.827 0 2.637-.046.075-.096.148-.148.217l-.05.063.223-.002.176-.001.13-.001.16-.002.236-.005c.085-.001.167-.003.246-.006l.05-.001.036-.002.052-.001-.039.001c.178-.006.34-.013.49-.022.153-.01.294-.022.423-.036.108-.011.208-.025.303-.04l.12-.022.011-.002.016-.003-.01.003.059-.012.038-.009.041-.009-.01.002zm-18.932.22l.144.004c.143.012.286.047.422.107.5.217.82.715.808 1.26-.005.353-.15.69-.402.936-.216.212-.498.342-.793.373l-.149.007c-.546 0-1.038-.331-1.244-.837-.206-.506-.085-1.086.306-1.468.248-.243.575-.375.908-.382zm.008 1l-.078.015c-.052.015-.1.043-.14.082-.1.098-.13.246-.078.376.053.129.179.214.324.214.089 0 .174-.033.238-.095.063-.062.1-.147.1-.235.003-.146-.078-.273-.206-.33-.052-.021-.106-.03-.16-.027zM22.65.19c3.155.747 5.393 3.561 5.422 6.819v.224c2.538.748 4.197 3.23 3.892 5.898-.316 2.773-2.653 4.867-5.433 4.87H12.455c-2.468-.009-4.625-1.675-5.266-4.067-.615-2.293.307-4.71 2.258-6.008-.379-1.49.153-3.08 1.378-4.036 1.196-.934 2.811-1.076 4.14-.398C16.516.831 19.628-.526 22.65.19zm-7.112 4.147c-.104.202-.36.27-.552.146-1.086-.708-2.504-.65-3.529.144s-1.43 2.15-1.009 3.373c.06.172-.011.362-.169.454-1.791 1.044-2.66 3.155-2.12 5.152.54 1.997 2.354 3.388 4.428 3.395H26.4c2.338-.002 4.304-1.75 4.57-4.065.266-2.315-1.251-4.461-3.529-4.99-.173-.04-.296-.195-.296-.373v-.509c-.025-2.817-1.978-5.252-4.73-5.9-2.752-.646-5.591.664-6.877 3.173zm2.425 21.211c.298-.49.298-1.107 0-1.597-.299-.49-.846-.774-1.468-.733l-3.435-.106c-1.317-.253-2.534-.875-3.51-1.792l-3.489-.483v7.259l.25.004.05.001.013.001h.02c.223.01.445.026.667.052l.061.008c.17.02.34.047.51.079.188.034.376.076.563.123.234.06.466.13.698.208.123.042.244.087.366.134.292.156.65.338 1.096.553.673.323 1.377.636 2.095.922 1.946.774 3.685 1.23 5.02 1.23 2.73 0 4.51-.504 5.363-1.032l7.581-4.636c.283-.157.49-.422.578-.74.088-.301.046-.625-.116-.898-.164-.28-.434-.483-.752-.564-.072-.019-.145-.031-.22-.037l-.112-.005c-.21-.001-.417.051-.625.165l-6.464 3.09c-.054.027-.108.053-.162.077-.94.423-1.603.507-3.933.517h-.592l-.363-.012-.166-.008h-.018l-.016-.002-.164-.007.104.004-.587-.03-.117-.007c-.07 0-.142-.001-.214-.006l-.082-.014c-1.347-.094-2.678-.252-3.956-.47h-.107c-.276 0-.5-.224-.5-.5s.224-.5.5-.5l.19.007.827.13.115.016.561.076.066.008-.03-.004-.036-.004L13.84 26l.142.02.077.008.042.006.031.005-.01-.002-.021-.003-.012-.002.033.005.1.012-.09-.01.371.045-.192-.024.218.027.01.001h-.001l.005.001h.004l.063.007-.026-.003.242.027-.216-.024.297.034h.009l.134.014.307.032.31.028-.26-.024.334.031.036.003.172.014.222.019-.198-.017.196.016.014.001h-.012l.137.009-.084-.006.216.016.088.006.058.004-.056-.004.18.013c.066-.004.13-.01.195-.021l.076-.015.075-.019.076-.023.005-.002-.017.007.05-.019-.023.009.04-.014.046-.019.035-.014.042-.02.013-.006.018-.009.052-.027.015-.009-.009.005.05-.028.028-.019-.01.007.042-.027-.023.014.031-.02.03-.022-.028.021.051-.036.012-.011h.001l.025-.02.022-.017.001-.001.021-.018.011-.01.024-.021.019-.018.031-.029.007-.008.08-.085c.05-.06.097-.125.139-.194z"/>
</svg>
