<svg xmlns="http://www.w3.org/2000/svg" width="32" height="32" viewBox="0 0 32 32">
    <path fill="#0050D7" fill-rule="evenodd" d="M31.948 21.797c-.405 3.532-3.393 6.2-6.948 6.203H6.998c-3.156-.011-5.914-2.133-6.734-5.18-.786-2.92.393-5.998 2.888-7.652-.484-1.899.195-3.923 1.761-5.14 1.53-1.19 3.596-1.371 5.294-.507 1.986-3.389 5.967-5.116 9.83-4.205C24.07 6.267 26.932 9.85 26.97 14v.285c3.246.953 5.367 4.113 4.978 7.512zm-5.978-7.793c-.033-3.684-2.577-6.87-6.163-7.715-3.586-.846-7.286.867-8.962 4.148-.135.265-.47.354-.719.191-1.415-.926-3.263-.85-4.599.189-1.335 1.038-1.863 2.81-1.314 4.41.077.226-.015.474-.22.595-2.335 1.366-3.467 4.126-2.764 6.738C1.932 25.172 4.297 26.99 7 27h18c3.047-.003 5.607-2.29 5.954-5.317.347-3.027-1.63-5.834-4.598-6.526-.226-.053-.386-.255-.386-.487v-.666z"/>
</svg>
