<svg xmlns="http://www.w3.org/2000/svg" width="32" height="32" viewBox="0 0 32 32">
    <path fill="#0050D7" fill-rule="evenodd" d="M16.533.033c2.044 0 3.7 1.657 3.7 3.7 0 2.044-1.656 3.7-3.7 3.7-.276 0-.546-.03-.805-.088l-2.334 6.27c3.396 1.469 5.773 4.85 5.773 8.785 0 .288-.013.573-.038.855l5.579.796c.441-1.55 1.867-2.684 3.559-2.684 2.043 0 3.7 1.656 3.7 3.7 0 2.043-1.657 3.7-3.7 3.7-2.044 0-3.7-1.657-3.7-3.7v-.026l-5.578-.796c-.86 4.4-4.736 7.722-9.389 7.722-5.284 0-9.567-4.283-9.567-9.567 0-3.913 2.35-7.278 5.715-8.76l-1.183-3.1c-.267.06-.546.093-.832.093-2.043 0-3.7-1.656-3.7-3.7 0-2.043 1.657-3.7 3.7-3.7 2.044 0 3.7 1.657 3.7 3.7 0 1.404-.781 2.625-1.933 3.252l1.183 3.101c.92-.294 1.9-.453 2.917-.453.995 0 1.954.152 2.856.434l2.335-6.269c-1.165-.623-1.958-1.851-1.958-3.265 0-2.043 1.657-3.7 3.7-3.7zm-6.09 24.627H8.757c-2.463 0-4.466 1.968-4.522 4.418 1.467 1.182 3.334 1.889 5.365 1.889s3.897-.707 5.365-1.888l.002.105c0-2.499-2.026-4.524-4.524-4.524zM9.6 13.833c-4.731 0-8.567 3.836-8.567 8.567 0 2.249.867 4.295 2.284 5.824.372-2.126 1.96-3.833 4.02-4.38-1.184-.75-1.97-2.071-1.97-3.577 0-2.338 1.895-4.234 4.233-4.234 2.338 0 4.233 1.896 4.233 4.234 0 1.506-.786 2.828-1.97 3.578 2.06.546 3.648 2.253 4.02 4.379 1.417-1.529 2.284-3.575 2.284-5.824 0-4.731-3.836-8.567-8.567-8.567zm18.667 8.534c-1.492 0-2.7 1.208-2.7 2.7 0 1.49 1.208 2.7 2.7 2.7 1.49 0 2.7-1.21 2.7-2.7 0-1.492-1.21-2.7-2.7-2.7zM9.6 17.033c-1.786 0-3.233 1.448-3.233 3.234 0 1.785 1.447 3.233 3.233 3.233s3.233-1.448 3.233-3.233c0-1.786-1.447-3.234-3.233-3.234zm-5.867-12.8c-1.49 0-2.7 1.21-2.7 2.7 0 1.492 1.21 2.7 2.7 2.7 1.492 0 2.7-1.208 2.7-2.7 0-1.49-1.208-2.7-2.7-2.7zm12.8-3.2c-1.49 0-2.7 1.21-2.7 2.7 0 1.492 1.21 2.7 2.7 2.7 1.492 0 2.7-1.208 2.7-2.7 0-1.49-1.208-2.7-2.7-2.7z"/>
</svg>
