<svg xmlns="http://www.w3.org/2000/svg" width="32" height="32" viewBox="0 0 32 32">
    <path fill="#0050D7" fill-rule="evenodd" d="M30.5 2c.828 0 1.5.672 1.5 1.5v19c0 .828-.672 1.5-1.5 1.5h-9.665l1.366 5H23.5c.276 0 .5.224.5.5s-.224.5-.5.5h-15c-.276 0-.5-.224-.5-.5s.224-.5.5-.5h1.298l1.366-5H1.5C.672 24 0 23.328 0 22.5v-19C0 2.672.672 2 1.5 2h29zm-9.335 27l-1.367-5h-7.597l-1.367 5h10.331zM31 19H1v3.5c0 .276.224.5.5.5h29c.276 0 .5-.224.5-.5V19zm-.5-16h-29c-.276 0-.5.224-.5.5V18h30V3.5c0-.276-.224-.5-.5-.5z"/>
</svg>
