<svg xmlns="http://www.w3.org/2000/svg" width="32" height="32" viewBox="0 0 32 32">
    <path fill="#0050D7" fill-rule="evenodd" d="M30.5 2c.828 0 1.5.672 1.5 1.5v19c0 .828-.672 1.5-1.5 1.5h-9.665l1.366 5H23.5c.276 0 .5.224.5.5s-.224.5-.5.5h-15c-.276 0-.5-.224-.5-.5s.224-.5.5-.5h1.576l.833-5H1.5C.672 24 0 23.328 0 22.5v-19C0 2.672.672 2 1.5 2h29zM19.798 24h-7.875l-.833 5h10.075l-1.367-5zM30.5 3h-29c-.276 0-.5.224-.5.5v19c0 .276.224.5.5.5h29c.276 0 .5-.224.5-.5v-19c0-.276-.224-.5-.5-.5zM19.607 7c.406-.002.796.16 1.096.468l.877.985c.272.282.422.659.42 1.047v8c0 .828-.672 1.5-1.5 1.5h-9c-.828 0-1.5-.672-1.5-1.5v-9c0-.828.672-1.5 1.5-1.5h8.107zM13 7.999L11.5 8c-.276 0-.5.224-.5.5v9c0 .276.224.5.5.5h9c.276 0 .5-.224.5-.5V9.497c0-.13-.05-.256-.153-.365l-.874-.982c-.095-.097-.225-.15-.363-.15L19 7.999V10.5c0 .276-.224.5-.5.5h-5c-.276 0-.5-.224-.5-.5V7.999zM19.5 12c.276 0 .5.224.5.5v4c0 .276-.224.5-.5.5h-7c-.276 0-.5-.224-.5-.5v-4c0-.276.224-.5.5-.5h7zm-.5 1h-6v3h6v-3zm-1-5.001h-4V10h4V7.999z"/>
</svg>
