<svg xmlns="http://www.w3.org/2000/svg" width="32" height="32" viewBox="0 0 32 32">
    <path fill="#0050D7" fill-rule="evenodd" d="M31.477 17.1c.282 0 .51.229.51.51v13.867c0 .282-.228.51-.51.51H.544c-.282 0-.51-.228-.51-.51V17.611c0-.282.228-.51.51-.51h30.933zm-.51 1.02H1.054v12.847h29.913V18.121zm-3.756 2.19c.276 0 .5.225.5.5v7.467c0 .276-.224.5-.5.5s-.5-.224-.5-.5v-7.466c0-.276.224-.5.5-.5zm-3.2 0c.276 0 .5.225.5.5v7.467c0 .276-.224.5-.5.5s-.5-.224-.5-.5v-7.466c0-.276.224-.5.5-.5zm-3.2 0c.276 0 .5.225.5.5v7.467c0 .276-.224.5-.5.5s-.5-.224-.5-.5v-7.466c0-.276.224-.5.5-.5zm-3.2 0c.276 0 .5.225.5.5v7.467c0 .276-.224.5-.5.5s-.5-.224-.5-.5v-7.466c0-.276.224-.5.5-.5zm-3.2 0c.276 0 .5.225.5.5v7.467c0 .276-.224.5-.5.5s-.5-.224-.5-.5v-7.466c0-.276.224-.5.5-.5zm-3.2 0c.276 0 .5.225.5.5v7.467c0 .276-.224.5-.5.5s-.5-.224-.5-.5v-7.466c0-.276.224-.5.5-.5zm-3.2 0c.276 0 .5.225.5.5v7.467c0 .276-.224.5-.5.5s-.5-.224-.5-.5v-7.466c0-.276.224-.5.5-.5zm-3.2 0c.276 0 .5.225.5.5v7.467c0 .276-.224.5-.5.5s-.5-.224-.5-.5v-7.466c0-.276.224-.5.5-.5zM31.477.035c.282 0 .51.228.51.51v13.867c0 .281-.228.51-.51.51H.544c-.282 0-.51-.229-.51-.51V.544c0-.282.228-.51.51-.51h30.933zm-.51 1.02H1.054v12.847h29.913V1.054zm-3.756 2.19c.276 0 .5.224.5.5v7.467c0 .276-.224.5-.5.5s-.5-.224-.5-.5V3.744c0-.276.224-.5.5-.5zm-3.2 0c.276 0 .5.224.5.5v7.467c0 .276-.224.5-.5.5s-.5-.224-.5-.5V3.744c0-.276.224-.5.5-.5zm-3.2 0c.276 0 .5.224.5.5v7.467c0 .276-.224.5-.5.5s-.5-.224-.5-.5V3.744c0-.276.224-.5.5-.5zm-3.2 0c.276 0 .5.224.5.5v7.467c0 .276-.224.5-.5.5s-.5-.224-.5-.5V3.744c0-.276.224-.5.5-.5zm-3.2 0c.276 0 .5.224.5.5v7.467c0 .276-.224.5-.5.5s-.5-.224-.5-.5V3.744c0-.276.224-.5.5-.5zm-3.2 0c.276 0 .5.224.5.5v7.467c0 .276-.224.5-.5.5s-.5-.224-.5-.5V3.744c0-.276.224-.5.5-.5zm-3.2 0c.276 0 .5.224.5.5v7.467c0 .276-.224.5-.5.5s-.5-.224-.5-.5V3.744c0-.276.224-.5.5-.5zm-3.2 0c.276 0 .5.224.5.5v7.467c0 .276-.224.5-.5.5s-.5-.224-.5-.5V3.744c0-.276.224-.5.5-.5z"/>
</svg>
