<svg xmlns="http://www.w3.org/2000/svg" width="32" height="32" viewBox="0 0 32 32">
    <path fill="#0050D7" fill-rule="evenodd" d="M25.026 8.809c5.44 3.714 8.049 10.383 6.571 16.803-.052.227-.254.388-.487.388H.9c-.233 0-.435-.16-.487-.388-1.478-6.42 1.13-13.089 6.57-16.803 5.441-3.714 12.603-3.714 18.043 0zm-17.478.826C2.556 13.042.108 19.102 1.303 25h29.404c1.195-5.898-1.253-11.958-6.245-15.365-5.1-3.482-11.814-3.482-16.914 0zM19.5 18.45c.39.39-2.44 3.86-2.83 4.24-.397.34-.988.317-1.358-.052-.369-.37-.392-.961-.052-1.358.39-.39 3.85-3.22 4.24-2.83zm8 2.55c.276 0 .5.224.5.5s-.224.5-.5.5h-2.48c-.276 0-.5-.224-.5-.5s.224-.5.5-.5h2.48zM7 21c.276 0 .5.224.5.5s-.224.5-.5.5H4.5c-.276 0-.5-.224-.5-.5s.224-.5.5-.5H7zm-.006-6.664l2.02 1.47c.223.162.273.475.11.698-.162.223-.475.273-.698.11l-2.02-1.47c-.223-.162-.273-.475-.11-.698.162-.223.475-.273.698-.11zm18.71.11c.163.223.113.536-.11.698l-2.02 1.47c-.223.163-.536.113-.698-.11-.163-.223-.113-.536.11-.698l2.02-1.47c.223-.163.536-.113.698.11zm-6-4.362c.263.085.407.367.322.63l-.77 2.38c-.085.263-.367.407-.63.322-.263-.085-.407-.367-.322-.63l.77-2.38c.085-.263.367-.407.63-.322zm-6.778.322l.77 2.37c.085.262-.059.544-.322.63-.262.085-.544-.059-.63-.322l-.77-2.37c-.085-.262.059-.544.322-.63.262-.085.544.059.63.322z"/>
</svg>
