<svg xmlns="http://www.w3.org/2000/svg" width="32" height="32" viewBox="0 0 32 32">
    <path fill="#0050D7" fill-rule="evenodd" d="M11 8c2.963 0 5.38 2.344 5.496 5.279l.004.221c0 1.008-.271 1.953-.745 2.765l3.89 2.764c.356-.328.832-.529 1.355-.529.346 0 .671.088.955.242l6.38-7.132c-.211-.318-.335-.7-.335-1.11 0-1.105.895-2 2-2s2 .895 2 2-.895 2-2 2c-.331 0-.644-.08-.92-.223l-6.393 7.148c.198.31.313.68.313 1.075 0 1.105-.895 2-2 2s-2-.895-2-2c0-.22.036-.433.102-.631l-3.927-2.789C14.167 18.255 12.67 19 11 19c-1.339 0-2.566-.478-3.52-1.273l-3.757 3.757c.176.298.277.645.277 1.016 0 1.105-.895 2-2 2s-2-.895-2-2 .895-2 2-2c.371 0 .718.101 1.016.277l3.757-3.757C5.978 16.066 5.5 14.839 5.5 13.5 5.5 10.462 7.962 8 11 8zm0 7.5c-.371 0-.718-.101-1.016-.277L8.19 17.016c.77.616 1.747.984 2.809.984 1.334 0 2.532-.58 3.356-1.502l-2.067-1.469c-.348.294-.798.471-1.289.471zM11 9c-2.485 0-4.5 2.015-4.5 4.5 0 1.062.368 2.039.984 2.809l1.793-1.793C9.101 14.218 9 13.871 9 13.5c0-1.105.895-2 2-2s2 .895 2 2c0 .252-.047.493-.131.715l2.067 1.468c.327-.589.526-1.258.56-1.971l.004-.212c0-2.485-2.015-4.5-4.5-4.5z"/>
</svg>
