<svg xmlns="http://www.w3.org/2000/svg" width="32" height="32" viewBox="0 0 32 32">
    <path fill="#0050D7" fill-rule="evenodd" d="M28.5 0c.276 0 .5.224.5.5v31c0 .276-.224.5-.5.5h-25c-.276 0-.5-.224-.5-.5V.5c0-.276.224-.5.5-.5h25zM28 1H4v30h24V1zm-3.5 2c.828 0 1.5.672 1.5 1.5v6c0 .385-.145.736-.383 1.001.239.264.383.615.383.999v6c0 .385-.145.736-.383 1.001.239.264.383.615.383.999v6c0 .828-.672 1.5-1.5 1.5h-17c-.828 0-1.5-.672-1.5-1.5v-6c0-.384.144-.735.382-1-.237-.264-.382-.615-.382-1v-6c0-.384.144-.735.382-1-.237-.264-.382-.615-.382-1v-6C6 3.672 6.672 3 7.5 3h17zm0 17h-17c-.276 0-.5.224-.5.5v6c0 .276.224.5.5.5h17c.276 0 .5-.224.5-.5v-6c0-.276-.224-.5-.5-.5zM22 22c.552 0 1 .448 1 1s-.448 1-1 1-1-.448-1-1 .448-1 1-1zm2.5-10h-17c-.276 0-.5.224-.5.5v6c0 .276.224.5.5.5h17c.276 0 .5-.224.5-.5v-6c0-.276-.224-.5-.5-.5zM22 14c.552 0 1 .448 1 1s-.448 1-1 1-1-.448-1-1 .448-1 1-1zm2.5-10h-17c-.276 0-.5.224-.5.5v6c0 .276.224.5.5.5h17c.276 0 .5-.224.5-.5v-6c0-.276-.224-.5-.5-.5zM22 6c.552 0 1 .448 1 1s-.448 1-1 1-1-.448-1-1 .448-1 1-1z"/>
</svg>
