<svg xmlns="http://www.w3.org/2000/svg" width="31" height="31" viewBox="0 0 31 31">
    <path fill="#0050D7" fill-rule="evenodd" d="M.736 28.77c.2-.003.394.08.533.23.152.163.233.384.223.61.008.22-.073.433-.223.59-.14.15-.332.233-.533.23-.204.003-.4-.08-.543-.23-.151-.156-.232-.37-.223-.59-.01-.226.07-.447.223-.61.142-.15.339-.234.543-.23zm11.985-5.09c.363-.007.723.065 1.057.21.306.135.575.344.786.61.222.297.383.637.475 1 .115.402.17.82.165 1.24.015.2.015.4 0 .6h-4.228c.024.593.247 1.158.63 1.6.38.406.908.627 1.455.61.28.003.56-.044.824-.14.255-.092.499-.212.727-.36l.369.71c-.29.183-.595.337-.912.46-.366.139-.754.206-1.144.2-.402.004-.8-.074-1.173-.23-.366-.146-.696-.371-.97-.66-.277-.303-.491-.66-.63-1.05-.16-.452-.238-.93-.233-1.41h.01c-.01-.484.07-.966.232-1.42.143-.394.357-.757.63-1.07.25-.283.554-.511.893-.67.326-.152.68-.23 1.037-.23zm5.1-1.68v1.8H19.5v.88h-1.677v3.62c-.018.322.056.642.213.92.18.23.461.351.747.32.121 0 .242-.017.359-.05l.349-.12.203.82c-.184.064-.372.117-.562.16-.194.047-.392.07-.592.07-.289.009-.576-.046-.843-.16-.217-.097-.407-.248-.553-.44-.147-.198-.25-.427-.3-.67-.061-.286-.09-.578-.088-.87v-3.55h-.97v-.82l.97-.07.184-1.84h.883zm-9.92 2.32c.341.561.5 1.22.457 1.88v4.07H7.32v-3.93c.041-.466-.057-.933-.281-1.34-.216-.282-.555-.433-.902-.4-.302-.006-.6.081-.853.25-.305.217-.588.465-.844.74v4.65H3.383v-6.4h.873l.087.93c.292-.296.617-.555.97-.77.346-.212.742-.319 1.144-.31.553-.05 1.094.186 1.445.63zm4.84.23c-.218 0-.433.048-.63.14-.205.096-.39.232-.544.4-.173.186-.31.403-.407.64-.114.277-.186.57-.213.87l3.335-.02c.034-.536-.11-1.069-.407-1.51-.276-.35-.697-.544-1.134-.52zm1.28-7.62c.2-.003.394.08.533.23.152.163.232.384.223.61.007.22-.073.433-.223.59-.14.15-.332.233-.533.23-.204.003-.4-.08-.543-.23-.15-.157-.231-.37-.223-.59-.01-.226.07-.447.223-.61.143-.15.339-.233.543-.23zM17.715 9v3.73c.294-.257.62-.473.97-.64.318-.169.67-.258 1.028-.26.368-.008.732.07 1.066.23.306.153.572.38.776.66.218.3.379.639.475 1 .113.437.168.888.165 1.34.008.499-.064.996-.213 1.47-.13.402-.33.775-.592 1.1-.236.29-.53.521-.863.68-.322.154-.673.232-1.028.23-.31-.003-.617-.071-.901-.2-.26-.114-.503-.265-.723-.447l-.16-.143-.087.64h-.844L16.668 9h1.047zm7.118 3v6.43h-1.048V12h1.048zm6.06 0v.58l-3.277 4.96H31v.89h-4.722v-.58l3.287-4.96h-2.929V12h4.257zm-11.52.72c-.641.066-1.236.376-1.668.87l.01 3.41c.238.223.515.4.815.52.226.092.465.142.708.15.246 0 .49-.061.707-.18.222-.122.414-.292.563-.5.169-.241.294-.512.368-.8.095-.348.14-.708.136-1.07.006-.336-.023-.67-.087-1-.05-.267-.149-.521-.291-.75-.129-.203-.306-.368-.514-.48-.232-.119-.488-.177-.747-.17zm5.47-3.25c.142.128.22.315.213.51.003.19-.075.374-.214.5-.142.134-.33.206-.523.2-.19.004-.374-.068-.514-.2-.139-.126-.217-.31-.213-.5-.008-.195.07-.382.213-.51.301-.257.736-.257 1.037 0zM12.372.23c.345.15.656.376.91.66.284.322.501.7.64 1.11.167.457.25.942.243 1.43.006.485-.077.966-.242 1.42-.14.393-.355.753-.63 1.06-.256.283-.567.508-.912.66-.703.295-1.49.295-2.192 0-.345-.152-.655-.377-.911-.66-.276-.307-.49-.667-.63-1.06-.163-.454-.242-.936-.233-1.42l-.02-.04c-.004-.474.075-.945.233-1.39.14-.41.357-.788.64-1.11.255-.284.566-.51.912-.66.702-.295 1.489-.295 2.191 0zM.735 5.08c.2-.003.394.08.533.23.152.163.233.384.223.61.008.22-.073.433-.223.59-.14.15-.332.233-.533.23-.204.004-.401-.08-.543-.23-.151-.156-.232-.37-.223-.59-.01-.226.07-.447.223-.61.143-.15.339-.233.543-.23zM6.874.23c.278.142.536.324.766.54l-.524.7c-.177-.16-.372-.298-.581-.41C6.324.951 6.09.896 5.855.9c-.544-.007-1.06.248-1.396.69-.18.236-.318.504-.407.79-.1.323-.149.66-.145 1-.006.339.04.676.135 1 .084.279.215.54.388.77.164.213.373.384.611.5.507.247 1.094.247 1.6 0 .236-.123.454-.278.65-.46l.436.72c-.288.258-.615.464-.97.61-.307.133-.636.208-.97.22-.395.001-.787-.077-1.153-.23-.368-.141-.7-.367-.97-.66-.27-.307-.478-.668-.61-1.06-.156-.456-.231-.937-.224-1.42l-.01.02c-.002-.475.08-.946.243-1.39.142-.411.363-.79.65-1.11.273-.29.604-.514.97-.66.35-.147.726-.225 1.105-.23.375-.015.747.064 1.086.23zM23.94.64c.348.558.511 1.218.465 1.88v4.07H23.36V2.66c.037-.46-.061-.92-.281-1.32-.203-.282-.534-.434-.873-.4-.632.097-1.197.459-1.561 1v4.65h-1.057V2.66c.037-.46-.061-.92-.282-1.32-.21-.295-.56-.449-.911-.4-.632.097-1.197.459-1.561 1v4.65h-1.028V.16h.873l.087.93c.262-.297.562-.556.892-.77.323-.215.701-.327 1.086-.32.4-.026.795.086 1.125.32.28.236.486.553.591.91.287-.337.612-.636.97-.89.321-.222.7-.34 1.086-.34.548-.04 1.08.199 1.426.64zm-13.402.44c-.226.122-.422.297-.572.51-.167.239-.292.506-.368.79-.087.326-.13.662-.126 1l.039.05c-.005.338.038.675.126 1 .077.277.201.538.368.77.151.21.347.38.572.5.46.239 1.004.239 1.464 0 .225-.12.421-.29.573-.5.166-.232.291-.493.368-.77.088-.325.13-.662.126-1 .003-.338-.04-.674-.126-1-.083-.304-.22-.59-.407-.84-.15-.213-.346-.388-.572-.51-.46-.239-1.004-.239-1.465 0z"/>
</svg>
