<svg xmlns="http://www.w3.org/2000/svg" width="32" height="32" viewBox="0 0 32 32">
    <path fill="#0050D7" fill-rule="evenodd" d="M26.5 3c.276 0 .5.224.5.5V7h3.5c.828 0 1.5.672 1.5 1.5v19c0 .828-.672 1.5-1.5 1.5h-29C.672 29 0 28.328 0 27.5v-19C0 7.672.672 7 1.5 7H5V3.5c0-.276.224-.5.5-.5h21zM11.731 17.975L1.706 28h28.587L20.272 17.979l-2.862 2.487c-.804.705-2.006.705-2.808.002l-2.871-2.493zM31 8.661l-9.972 8.66L31 27.293V8.661zM1 8.662v18.63l9.974-9.974L1 8.662zM26 4H6v7.678l9.26 8.036c.426.374 1.064.374 1.492-.001L26 11.68V4zm1 6.811L30.237 8H27v2.811zM5 8H1.763L5 10.81V8z"/>
</svg>
