<svg xmlns="http://www.w3.org/2000/svg" width="32" height="32" viewBox="0 0 32 32">
    <path fill="#0050D7" fill-rule="evenodd" d="M30.467.033c.828 0 1.5.672 1.5 1.5v28.934c0 .828-.672 1.5-1.5 1.5H1.533c-.828 0-1.5-.672-1.5-1.5V1.533c0-.828.672-1.5 1.5-1.5h28.934zm0 1H1.533c-.276 0-.5.224-.5.5v28.934c0 .276.224.5.5.5h28.934c.276 0 .5-.224.5-.5V1.533c0-.276-.224-.5-.5-.5zM4.8 25.567c-.276 0-.5-.224-.5-.5V13.333c0-.276.224-.5.5-.5h4.833v-5.9c0-.276.224-.5.5-.5h11.734c.276 0 .5.224.5.5v5.9H27.2c.276 0 .5.224.5.5v11.734c0 .276-.224.5-.5.5H4.8zM21.367 7.433H10.633v5.9c0 .276-.224.5-.5.5H5.3v10.734h2.2V20.8c0-.276.224-.5.5-.5s.5.224.5.5v3.766h2.2V20.8c0-.276.224-.5.5-.5s.5.224.5.5v3.766h2.2V20.8c0-.276.224-.5.5-.5s.5.224.5.5v3.766h2.2V20.8c0-.276.224-.5.5-.5s.5.224.5.5v3.766h2.2V20.8c0-.276.224-.5.5-.5s.5.224.5.5v3.766h2.2V20.8c0-.276.224-.5.5-.5s.5.224.5.5v3.766h2.2V13.834h-4.833c-.276 0-.5-.224-.5-.5v-5.9z"/>
</svg>
