<svg xmlns="http://www.w3.org/2000/svg" width="32" height="32" viewBox="0 0 32 32">
    <path fill="#0050D7" fill-rule="evenodd" d="M8.377 23.623c.208.208.208.546 0 .754L1.82 30.933h5.113c.295 0 .534.24.534.534 0 .294-.24.533-.534.533H.52c-.017 0-.034-.002-.051-.004L.533 32c-.04 0-.08-.005-.118-.013l-.03-.008c-.018-.005-.037-.012-.054-.019l-.029-.013c-.02-.01-.04-.02-.059-.033l-.013-.008-.012-.009c-.044-.032-.083-.071-.115-.115l.053.062c-.027-.027-.05-.057-.07-.088-.013-.018-.024-.038-.033-.058L.04 31.67l-.02-.054-.007-.03c-.004-.017-.007-.035-.009-.052L0 31.48V25.067c0-.295.239-.534.533-.534.295 0 .534.24.534.534l-.001 5.112 6.557-6.556c.208-.208.546-.208.754 0zm23.405 8.274l.062-.053c-.027.027-.057.05-.088.07-.018.013-.038.024-.058.033l-.029.013-.054.02-.03.007c-.017.004-.035.007-.052.009L31.48 32H25.067c-.295 0-.534-.239-.534-.533 0-.295.24-.534.534-.534h5.112l-6.556-6.556c-.208-.208-.208-.546 0-.754.208-.208.546-.208.754 0l6.556 6.556v-5.112c0-.295.24-.534.534-.534.294 0 .533.24.533.534V31.48c0 .017-.002.034-.004.051l.004-.065c0 .04-.005.08-.013.118l-.008.03c-.005.018-.012.037-.019.054l-.013.029c-.01.02-.02.04-.033.059l-.008.013-.009.012c-.032.044-.071.083-.115.115zM16 8.533c4.124 0 7.467 3.343 7.467 7.467S20.124 23.467 16 23.467 8.533 20.124 8.533 16 11.876 8.533 16 8.533zM16 9.6c-3.535 0-6.4 2.865-6.4 6.4s2.865 6.4 6.4 6.4 6.4-2.865 6.4-6.4-2.865-6.4-6.4-6.4zM6.933 0c.295 0 .534.239.534.533 0 .295-.24.534-.534.534L1.82 1.066l6.557 6.557c.208.208.208.546 0 .754-.208.208-.546.208-.754 0L1.066 1.82v5.113c0 .295-.238.534-.533.534-.294 0-.533-.24-.533-.534V.52C0 .502.002.485.004.468L0 .533c0-.04.005-.08.013-.118l.008-.03C.026.367.033.348.04.33L.053.302c.01-.02.02-.04.033-.059L.094.23.103.218C.135.174.174.135.218.103L.156.156C.183.13.213.106.244.086.262.072.282.061.302.052L.33.04.385.02l.03-.007C.432.01.45.006.467.004L.52 0h6.413zm24.534 0h.013c.018 0 .035.002.052.004L31.467 0c.04 0 .08.005.118.013l.03.008c.018.005.037.012.054.019l.029.013c.02.01.04.02.059.033l.013.008.012.009c.044.032.083.071.115.115l-.053-.062c.027.027.05.057.07.088.013.018.024.038.033.058l.013.029.02.054.007.03c.004.017.007.035.009.052L32 .52v6.413c0 .295-.239.534-.533.534-.295 0-.534-.24-.534-.534V1.82l-6.556 6.557c-.208.208-.546.208-.754 0-.208-.208-.208-.546 0-.754l6.556-6.557h-5.112c-.295 0-.534-.238-.534-.533 0-.294.24-.533.534-.533h6.4z"/>
</svg>
