<svg xmlns="http://www.w3.org/2000/svg" width="32" height="32" viewBox="0 0 32 32">
    <path fill="#0050D7" fill-rule="evenodd" d="M9.067.033c.132 0 .26.053.353.147l3.054 3.053H30.4c.276 0 .5.224.5.5v18.134c0 .276-.224.5-.5.5H18.1v4.332l.567.001c1.283 0 2.352.918 2.586 2.133h10.214c.276 0 .5.224.5.5s-.224.5-.5.5H21.253c-.233 1.215-1.303 2.134-2.586 2.134h-5.334c-1.283 0-2.353-.919-2.586-2.135l-10.214.001c-.276 0-.5-.224-.5-.5s.224-.5.5-.5h10.214c.234-1.215 1.303-2.133 2.586-2.133h.566v-4.334H1.6c-.276 0-.5-.223-.5-.5V.534c0-.276.224-.5.5-.5h7.467zm9.6 27.667h-5.334c-.902 0-1.633.731-1.633 1.633s.731 1.634 1.633 1.634h5.334c.902 0 1.633-.732 1.633-1.634 0-.902-.731-1.633-1.633-1.633zm-1.568-5.334h-2.2V26.7h2.2v-4.333zM8.86 1.033H2.1v20.334h27.8V4.233H12.267c-.133 0-.26-.052-.354-.146L8.86 1.033z"/>
</svg>
