<svg xmlns="http://www.w3.org/2000/svg" width="32" height="32" viewBox="0 0 32 32">
    <path fill="#0050D7" fill-rule="evenodd" d="M17.555.092c.775.07 1.368.722 1.365 1.498v1.333c-.007.237.154.446.398.504 1.091.288 2.14.718 3.135 1.288.197.121.45.092.613-.069l1.017-1.015c.573-.524 1.451-.524 1.98-.036.443.322.868.667 1.307 1.068.368.405.714.83 1.006 1.237.497.566.497 1.414-.022 2.004l-1.02 1.017c-.165.15-.212.39-.13.56.561.98.991 2.03 1.283 3.134.054.23.263.392.513.385h1.408c.778-.003 1.43.59 1.499 1.351.13 1.096.13 2.202.001 3.284-.07.775-.722 1.368-1.5 1.365h-.01l-1.321-.03c-.237-.007-.446.154-.505.401-.292 1.074-.722 2.106-1.287 3.082-.121.197-.092.45.069.613l1.015 1.017c.524.573.524 1.451.036 1.98-.321.444-.667.869-1.051 1.29-.352.353-.722.688-1.103 1-.596.5-1.475.46-2.025-.09l-.998-.998c-.164-.162-.418-.191-.63-.061-.98.561-2.029.991-3.133 1.283-.23.054-.392.263-.385.513v1.458c.003.778-.59 1.43-1.351 1.499-1.096.13-2.202.13-3.284.001-.775-.07-1.368-.722-1.365-1.498v-1.383c.007-.237-.154-.446-.397-.504-1.092-.287-2.142-.718-3.136-1.288-.197-.121-.45-.092-.613.069l-1.016 1.015c-.574.524-1.452.524-1.982.036-.442-.322-.867-.667-1.306-1.068-.368-.405-.714-.83-1.006-1.237-.497-.566-.497-1.414.022-2.004l1.014-1.013c.159-.147.205-.379.137-.533-.557-.963-.987-1.995-1.284-3.085-.054-.23-.263-.392-.513-.385H1.592c-.778.003-1.43-.59-1.499-1.351-.13-1.096-.13-2.202-.001-3.284.07-.775.722-1.368 1.498-1.365h1.333c.237.007.446-.154.504-.398.288-1.091.718-2.14 1.288-3.135.121-.197.092-.45-.069-.613L3.631 7.918c-.524-.574-.524-1.452-.036-1.981.32-.444.667-.869 1.069-1.307.405-.368.83-.713 1.236-1.006.566-.497 1.414-.497 2.004.022L8.91 4.653c.142.147.36.193.491.143.98-.561 2.03-.991 3.134-1.283.23-.054.392-.263.385-.513V1.592c-.003-.778.59-1.43 1.351-1.499 1.096-.13 2.202-.13 3.284-.001zm-3.18.996c-.258.023-.456.24-.455.502v1.397c.019.71-.463 1.336-1.142 1.496-1.008.266-1.976.663-2.938 1.21-.568.233-1.222.097-1.644-.34l-.976-.977c-.189-.166-.471-.166-.696.029-.414.3-.81.622-1.154.932-.344.377-.666.773-1.001 1.23-.175.192-.175.484-.015.66l1.001 1.001c.488.493.575 1.255.219 1.83-.518.905-.914 1.873-1.177 2.867-.164.692-.79 1.174-1.487 1.155H1.588c-.26-.001-.477.197-.501.469-.12 1.017-.12 2.045.001 3.076.023.258.24.456.502.455h1.397c.71-.019 1.336.463 1.495 1.138.27.991.667 1.943 1.203 2.874.27.59.13 1.285-.331 1.712l-.978.976c-.166.189-.166.471.029.697.3.413.621.81.931 1.153.378.343.774.666 1.231 1.001.192.175.484.175.66.015l1.001-1.001c.493-.488 1.255-.575 1.83-.219.904.518 1.872.915 2.867 1.177.692.164 1.174.79 1.155 1.487v1.372c-.001.26.197.477.469.501 1.017.12 2.045.12 3.076-.001.258-.023.456-.24.455-.502v-1.447c-.019-.71.463-1.336 1.142-1.496 1.008-.266 1.976-.663 2.865-1.172.59-.365 1.352-.278 1.847.211l1 1c.183.184.476.197.68.027.359-.294.704-.607 1.016-.92.344-.377.666-.773 1.001-1.23.175-.192.175-.484.015-.66l-1.001-1.001c-.488-.493-.575-1.255-.218-1.832.514-.89.91-1.84 1.176-2.815.164-.692.79-1.174 1.498-1.155l1.315.03c.258 0 .473-.198.497-.469.12-1.017.12-2.045-.001-3.076-.023-.258-.24-.456-.502-.455h-1.397c-.71.019-1.336-.463-1.496-1.142-.266-1.008-.663-1.976-1.197-2.91-.292-.6-.151-1.322.326-1.752l.978-.976c.166-.189.166-.471-.03-.697-.298-.413-.62-.81-.93-1.153-.378-.343-.774-.666-1.232-1.001-.19-.175-.483-.175-.658-.015l-1.002 1.001c-.493.488-1.255.575-1.83.219-.904-.518-1.872-.915-2.867-1.177-.692-.164-1.174-.79-1.155-1.487V1.588c.001-.26-.197-.477-.469-.501-1.017-.12-2.045-.12-3.076.001zm2.701 8.046v1.703l.231.03c.451.072.842.211 1.171.417.384.241.731.528 1.04.86l-.756.843-.192-.177c-.254-.226-.503-.408-.746-.545-.303-.172-.69-.258-1.16-.258-.528 0-.947.149-1.256.447-.31.298-.465.7-.465 1.204 0 .413.118.751.353 1.015.235.264.53.496.886.696.355.201.742.396 1.16.585.42.19.806.419 1.162.688.355.27.65.602.886.998.235.395.352.903.352 1.522 0 .826-.238 1.502-.714 2.03-.475.527-1.126.848-1.952.963v1.737h-1.032v-1.703l-.274-.036c-.453-.074-.895-.214-1.325-.42-.516-.246-.958-.536-1.325-.868l.654-.98.224.186c.306.241.635.452.988.63.442.224.926.336 1.454.336.642 0 1.12-.16 1.436-.482.315-.32.473-.75.473-1.29 0-.458-.118-.84-.353-1.144-.235-.303-.53-.567-.885-.79-.356-.224-.743-.434-1.161-.629-.419-.195-.806-.418-1.161-.67-.356-.253-.651-.56-.886-.92-.235-.362-.353-.823-.353-1.385 0-.768.227-1.408.68-1.918.453-.51 1.057-.823 1.814-.937V9.134h1.032z"/>
</svg>
