<svg xmlns="http://www.w3.org/2000/svg" width="32" height="32" viewBox="0 0 32 32">
    <path fill="#0050D7" fill-rule="evenodd" d="M24.5 0C26.433 0 28 1.567 28 3.5v25c0 1.933-1.567 3.5-3.5 3.5h-17C5.567 32 4 30.433 4 28.5v-25C4 1.567 5.567 0 7.5 0h17zm0 1h-17C6.12 1 5 2.12 5 3.5v25C5 29.88 6.12 31 7.5 31h17c1.38 0 2.5-1.12 2.5-2.5v-25C27 2.12 25.88 1 24.5 1zm.385 9.315c.784 4.2-1.485 8.323-5.338 9.957 1.868 1.325 3.99 3.02 4.566 3.614 1.17 1.167 1.176 3.062.012 4.236-.564.565-1.328.882-2.125.882-.797 0-1.561-.317-2.124-.88-.642-.643-2.472-2.944-3.805-4.843-.65-.925-1.182-1.73-1.583-2.422-4.413-.756-7.622-4.654-7.486-9.16.14-4.606 3.727-8.366 8.32-8.722 4.594-.355 8.717 2.809 9.563 7.338zM14.578 18.6c-.114.11.117.642.554 1.399.12.081.2.213.215.36 1.321 2.19 3.954 5.776 5.237 7.059.375.376.885.587 1.416.587.531 0 1.04-.21 1.415-.587.776-.782.772-2.045-.014-2.829-1.702-1.755-8.372-6.426-8.823-5.99zM15.4 3.974c-4.085.316-7.275 3.66-7.398 7.755-.113 3.744 2.37 7.015 5.898 7.978-.365-.867-.388-1.467-.018-1.826.679-.658 2.19.02 4.668 1.698l-.224.072c3.923-1.179 6.328-5.125 5.576-9.152-.752-4.027-4.418-6.84-8.502-6.525zM16 9c1.657 0 3 1.343 3 3s-1.343 3-3 3-3-1.343-3-3 1.343-3 3-3zm0 1c-1.105 0-2 .895-2 2s.895 2 2 2 2-.895 2-2-.895-2-2-2z"/>
</svg>
