<svg xmlns="http://www.w3.org/2000/svg" width="32" height="32" viewBox="0 0 32 32">
    <path fill="#0050D7" fill-rule="evenodd" d="M31.5 0c.276 0 .5.224.5.5v2c0 .276-.224.5-.5.5l-.519.001C30.794 8.59 27.51 13.591 22.505 16c5.005 2.409 8.29 7.412 8.477 13h.518c.276 0 .5.224.5.5v2c0 .276-.224.5-.5.5H.5c-.276 0-.5-.224-.5-.5v-2c0-.276.224-.5.5-.5h.498c.188-5.588 3.472-10.591 8.477-13C4.47 13.591 1.186 8.589 1 3.001L.5 3C.224 3 0 2.776 0 2.5v-2C0 .224.224 0 .5 0h31zM31 30H1v1h30v-1zM10.911 15.534c.425.165.425.767 0 .932C5.691 18.496 2.2 23.434 2 29h4.292l9.355-8.863c.193-.183.495-.183.688 0L25.688 29h4.293c-.2-5.566-3.691-10.505-8.912-12.534-.425-.165-.425-.767 0-.932 5.22-2.03 8.712-6.968 8.912-12.533H1.999c.2 5.565 3.692 10.504 8.912 12.533zm5.079 5.655L7.743 29h16.493l-8.246-7.811zM21.49 10c.457 0 .675.563.336.87l-5.5 5c-.19.173-.482.173-.672 0l-5.5-5c-.339-.307-.121-.87.336-.87h11zm-1.293 1h-8.414l4.207 3.824L20.197 11zM31 1H1v1h30V1z"/>
</svg>
