<svg xmlns="http://www.w3.org/2000/svg" width="32" height="32" viewBox="0 0 32 32">
    <path fill="#0050D7" fill-rule="evenodd" d="M29.777.033c.588.008 1.149.248 1.56.67.41.42.637.987.63 1.569v27.45c.007.588-.22 1.155-.63 1.576-.411.42-.972.661-1.566.669H5.423c-.588-.008-1.149-.248-1.56-.67-.41-.42-.637-.987-.63-1.569V18.667c0-.276.224-.5.5-.5s.5.224.5.5v11.067c-.004.323.12.634.346.865.226.232.534.364.85.368h24.335c.323-.004.631-.136.857-.368.225-.23.35-.542.346-.871V2.266c.004-.323-.12-.634-.346-.865-.226-.232-.534-.364-.85-.368H5.436c-.323.004-.631.136-.857.368-.225.23-.35.542-.346.871V8c0 .276-.224.5-.5.5s-.5-.224-.5-.5V2.278c-.007-.588.22-1.155.63-1.576.411-.42.972-.661 1.566-.669h24.348zm-18.223 8.68l4.266 4.267c.195.195.195.512 0 .707l-4.266 4.267c-.196.195-.512.195-.708 0-.195-.196-.195-.512 0-.708l3.413-3.413H.533c-.276 0-.5-.224-.5-.5s.224-.5.5-.5H14.26L10.846 9.42c-.195-.195-.195-.512 0-.707.196-.195.512-.195.708 0z"/>
</svg>
