<svg xmlns="http://www.w3.org/2000/svg" width="32" height="32" viewBox="0 0 32 32">
    <path fill="#0050D7" fill-rule="evenodd" d="M11.772 7.308l2.17 5.23c.106.256-.016.549-.271.654l-5.23 2.16c-.255.106-.548-.016-.653-.271-.106-.255.016-.548.271-.653l4.428-1.829c-2.24-1.85-5.423-2.133-7.972-.65-2.73 1.588-4.06 4.807-3.244 7.858C2.086 22.858 4.844 24.986 8 25c3.244 0 5.154-2.121 7.54-7.198C17.634 12.73 20.147 10 24 10c4.418 0 8 3.582 8 8s-3.582 8-8.005 8c-2.118-.02-4.158-.803-5.746-2.205-.207-.183-.227-.499-.044-.706.183-.207.499-.227.706-.044C20.319 24.288 22.127 24.982 24 25c3.866 0 7-3.134 7-7s-3.134-7-7-7c-3.328 0-5.581 2.448-7.538 7.19l-.005.013-.004.01C13.909 23.629 11.777 26 7.998 26c-3.61-.016-6.761-2.447-7.693-5.935-.932-3.487.587-7.166 3.707-8.98 2.622-1.525 5.83-1.416 8.312.162l-1.476-3.555c-.106-.255.015-.548.27-.654.255-.106.548.015.654.27z"/>
</svg>
