<svg xmlns="http://www.w3.org/2000/svg" width="32" height="32" viewBox="0 0 32 32">
    <path fill="#0050D7" fill-rule="evenodd" d="M8 0c4.418 0 8 3.582 8 8.005-.004.397-.038.794-.102 1.186l15.956 15.955c.093.094.146.221.146.354v6c0 .276-.224.5-.5.5h-6c-.133 0-.26-.053-.354-.146L23.5 30.207l-1.646 1.647c-.196.195-.512.195-.708 0l-4-4c-.195-.196-.195-.512 0-.708l1.647-1.646-2.293-2.293-1.646 1.647c-.196.195-.512.195-.708 0l-4-4c-.195-.196-.195-.512 0-.708l1.647-1.646-2.596-2.596c-.394.058-.793.09-1.197.096-4.418 0-8-3.582-8-8s3.582-8 8-8zm0 1C4.134 1 1 4.134 1 8s3.134 7 6.993 7c.433-.006.864-.047 1.29-.122.16-.029.325.023.44.138l3.13 3.13c.196.196.196.512 0 .708L11.208 20.5l3.293 3.293 1.646-1.647c.196-.195.512-.195.708 0l3 3c.195.196.195.512 0 .708L18.207 27.5l3.293 3.293 1.646-1.647c.196-.195.512-.195.708 0L25.707 31H31v-5.293L15.006 9.714c-.118-.118-.169-.288-.136-.451.082-.418.126-.842.13-1.263 0-3.866-3.134-7-7-7zM5.5 3C6.88 3 8 4.12 8 5.5S6.88 8 5.5 8 3 6.88 3 5.5 4.12 3 5.5 3zm0 1C4.672 4 4 4.672 4 5.5S4.672 7 5.5 7 7 6.328 7 5.5 6.328 4 5.5 4z"/>
</svg>
