<svg xmlns="http://www.w3.org/2000/svg" width="32" height="32" viewBox="0 0 32 32">
    <path fill="#0050D7" fill-rule="evenodd" d="M19.5 24c.828 0 1.5.672 1.5 1.5v2c0 .78-.595 1.42-1.356 1.493L19.5 29h-7c-.828 0-1.5-.672-1.5-1.5v-2c0-.828.672-1.5 1.5-1.5h7zm0 1h-7c-.276 0-.5.224-.5.5v2c0 .276.224.5.5.5h7c.276 0 .5-.224.5-.5v-2c0-.276-.224-.5-.5-.5zm-11-8c.828 0 1.5.672 1.5 1.5v3c0 .78-.595 1.42-1.356 1.493L8.5 23h-7C.672 23 0 22.328 0 21.5v-3c0-.828.672-1.5 1.5-1.5h7zm11 0c.828 0 1.5.672 1.5 1.5v3c0 .78-.595 1.42-1.356 1.493L19.5 23h-7c-.828 0-1.5-.672-1.5-1.5v-3c0-.828.672-1.5 1.5-1.5h7zm11 0c.828 0 1.5.672 1.5 1.5v3c0 .78-.595 1.42-1.356 1.493L30.5 23h-7c-.828 0-1.5-.672-1.5-1.5v-3c0-.828.672-1.5 1.5-1.5h7zm-22 1h-7c-.276 0-.5.224-.5.5v3c0 .276.224.5.5.5h7c.276 0 .5-.224.5-.5v-3c0-.276-.224-.5-.5-.5zm11 0h-7c-.276 0-.5.224-.5.5v3c0 .276.224.5.5.5h7c.276 0 .5-.224.5-.5v-3c0-.276-.224-.5-.5-.5zm11 0h-7c-.276 0-.5.224-.5.5v3c0 .276.224.5.5.5h7c.276 0 .5-.224.5-.5v-3c0-.276-.224-.5-.5-.5zm-22-8c.828 0 1.5.672 1.5 1.5v3c0 .78-.595 1.42-1.356 1.493L8.5 16h-7C.672 16 0 15.328 0 14.5v-3c0-.828.672-1.5 1.5-1.5h7zm11 0c.828 0 1.5.672 1.5 1.5v3c0 .78-.595 1.42-1.356 1.493L19.5 16h-7c-.828 0-1.5-.672-1.5-1.5v-3c0-.828.672-1.5 1.5-1.5h7zm11 0c.828 0 1.5.672 1.5 1.5v3c0 .78-.595 1.42-1.356 1.493L30.5 16h-7c-.828 0-1.5-.672-1.5-1.5v-3c0-.828.672-1.5 1.5-1.5h7zm-22 1h-7c-.276 0-.5.224-.5.5v3c0 .276.224.5.5.5h7c.276 0 .5-.224.5-.5v-3c0-.276-.224-.5-.5-.5zm11 0h-7c-.276 0-.5.224-.5.5v3c0 .276.224.5.5.5h7c.276 0 .5-.224.5-.5v-3c0-.276-.224-.5-.5-.5zm11 0h-7c-.276 0-.5.224-.5.5v3c0 .276.224.5.5.5h7c.276 0 .5-.224.5-.5v-3c0-.276-.224-.5-.5-.5zm-22-8c.828 0 1.5.672 1.5 1.5v3c0 .78-.595 1.42-1.356 1.493L8.5 9h-7C.672 9 0 8.328 0 7.5v-3C0 3.672.672 3 1.5 3h7zm11 0c.828 0 1.5.672 1.5 1.5v3c0 .78-.595 1.42-1.356 1.493L19.5 9h-7c-.828 0-1.5-.672-1.5-1.5v-3c0-.828.672-1.5 1.5-1.5h7zm11 0c.828 0 1.5.672 1.5 1.5v3c0 .78-.595 1.42-1.356 1.493L30.5 9h-7c-.828 0-1.5-.672-1.5-1.5v-3c0-.828.672-1.5 1.5-1.5h7zm-22 1h-7c-.276 0-.5.224-.5.5v3c0 .276.224.5.5.5h7c.276 0 .5-.224.5-.5v-3c0-.276-.224-.5-.5-.5zm11 0h-7c-.276 0-.5.224-.5.5v3c0 .276.224.5.5.5h7c.276 0 .5-.224.5-.5v-3c0-.276-.224-.5-.5-.5zm11 0h-7c-.276 0-.5.224-.5.5v3c0 .276.224.5.5.5h7c.276 0 .5-.224.5-.5v-3c0-.276-.224-.5-.5-.5z"/>
</svg>
