<svg xmlns="http://www.w3.org/2000/svg" width="32" height="32" viewBox="0 0 32 32">
    <path fill="#0050D7" fill-rule="evenodd" d="M31.57.005c.116.015.213.068.286.142.072.072.123.167.139.279L32 .478v.054c.002.98-.061 2.567-.249 4.557-.31 3.284-.872 6.562-1.75 9.627-1.28 4.465-3.128 8.108-5.647 10.637-2.345 2.354-5.531 3.676-8.854 3.676-3.155 0-6.187-1.192-8.493-3.328L.854 31.854c-.196.195-.512.195-.708 0-.195-.196-.195-.512 0-.708L6.3 24.994l-.05-.055c-2.107-2.303-3.278-5.313-3.278-8.439 0-3.323 1.322-6.509 3.676-8.854 2.53-2.52 6.172-4.367 10.637-5.647 3.065-.878 6.343-1.44 9.627-1.75 1.99-.188 3.577-.25 4.558-.25.034-.001.068 0 .102.006zm-.594 1.726L19.707 12.999 24.5 13c.276 0 .5.224.5.5s-.224.5-.5.5l-5.793-.001-7 7L19.5 21c.276 0 .5.224.5.5s-.224.5-.5.5l-8.793-.001-2.993 2.994c2.118 1.949 4.896 3.036 7.786 3.036 3.057 0 5.988-1.217 8.146-3.382 2.382-2.391 4.157-5.89 5.394-10.207.86-3 1.411-6.218 1.716-9.445.12-1.278.188-2.385.22-3.264zm-.707-.708c-.879.033-1.986.1-3.264.221-3.227.305-6.446.857-9.445 1.716-4.317 1.237-7.816 3.012-10.207 5.394-2.165 2.158-3.382 5.09-3.382 8.146 0 2.876 1.077 5.645 3.016 7.764l.02.022L10 21.292V12.5c0-.276.224-.5.5-.5s.5.224.5.5v7.792l7-7V7.5c0-.276.224-.5.5-.5s.5.224.5.5v4.792L30.27 1.023z"/>
</svg>
