<svg xmlns="http://www.w3.org/2000/svg" width="32" height="32" viewBox="0 0 32 32">
    <path fill="#0050D7" fill-rule="evenodd" d="M18.5 0C25.956 0 32 6.044 32 13.5S25.956 27 18.5 27c-3.548 0-6.776-1.369-9.186-3.607l-8.46 8.46c-.196.196-.512.196-.708 0-.195-.195-.195-.511 0-.707l8.46-8.46C6.37 20.276 5 17.048 5 13.5 5 6.044 11.044 0 18.5 0zm0 1C11.596 1 6 6.596 6 13.5c0 3.443 1.392 6.56 3.644 8.821l.02.015.015.02C11.939 24.608 15.057 26 18.5 26 25.404 26 31 20.404 31 13.5S25.404 1 18.5 1zm0 3c.276 0 .5.224.5.5s-.224.5-.5.5C13.806 5 10 8.806 10 13.5c0 .276-.224.5-.5.5s-.5-.224-.5-.5C9 8.253 13.253 4 18.5 4z"/>
</svg>
