<svg xmlns="http://www.w3.org/2000/svg" width="32" height="32" viewBox="0 0 32 32">
    <path fill="#0050D7" fill-rule="evenodd" d="M28.27.03c2.044 0 3.7 1.656 3.7 3.7 0 2.043-1.656 3.7-3.7 3.7-1.813 0-3.321-1.304-3.638-3.025l-7.287 10.562H24.6c.244-1.807 1.793-3.2 3.667-3.2 2.043 0 3.7 1.656 3.7 3.7 0 2.043-1.657 3.7-3.7 3.7-1.874 0-3.422-1.393-3.667-3.2h-7.945l-.014.02 7.985 11.598c.32-1.718 1.827-3.018 3.637-3.018 2.044 0 3.7 1.656 3.7 3.7 0 2.043-1.656 3.7-3.7 3.7-1.559 0-2.893-.965-3.438-2.33l-8.792-12.77-8.939 12.96c-.588 1.266-1.87 2.143-3.357 2.143-2.044 0-3.7-1.656-3.7-3.7 0-2.043 1.656-3.7 3.7-3.7 1.83 0 3.35 1.33 3.647 3.076l8.043-11.66-.014-.02-8.013.001c-.245 1.807-1.793 3.2-3.667 3.2-2.043 0-3.7-1.657-3.7-3.7 0-2.044 1.657-3.7 3.7-3.7 1.874 0 3.423 1.393 3.667 3.2h7.324L7.388 4.312C7.111 6.08 5.58 7.433 3.733 7.433c-2.043 0-3.7-1.656-3.7-3.7 0-2.043 1.657-3.7 3.7-3.7 1.393 0 2.606.77 3.237 1.907l8.97 13.027h.191l8.706-12.62C25.385.987 26.716.03 28.27.03zM3.737 25.57c-1.491 0-2.7 1.21-2.7 2.7 0 1.492 1.209 2.7 2.7 2.7 1.038 0 1.94-.586 2.391-1.445.014-.059.038-.115.074-.166l.015-.02c.141-.327.22-.689.22-1.069 0-1.49-1.21-2.7-2.7-2.7zm24.526-.003c-1.491 0-2.7 1.208-2.7 2.7 0 .322.057.631.16.918l-.02-.04c.037.055.062.115.076.176.41.968 1.367 1.646 2.484 1.646 1.491 0 2.7-1.21 2.7-2.7 0-1.492-1.209-2.7-2.7-2.7zm-24.53-12.8c-1.49 0-2.7 1.208-2.7 2.7 0 1.49 1.21 2.7 2.7 2.7 1.492 0 2.7-1.21 2.7-2.7 0-1.492-1.208-2.7-2.7-2.7zm24.534 0c-1.492 0-2.7 1.208-2.7 2.7 0 1.49 1.208 2.7 2.7 2.7 1.49 0 2.7-1.21 2.7-2.7 0-1.492-1.21-2.7-2.7-2.7zM3.733 1.033c-1.491 0-2.7 1.21-2.7 2.7 0 1.492 1.209 2.7 2.7 2.7s2.7-1.208 2.7-2.7c0-.457-.114-.888-.314-1.265l-.013-.02c-.019-.026-.034-.053-.047-.082-.467-.798-1.334-1.333-2.326-1.333zM28.27 1.03c-1.133 0-2.103.697-2.503 1.686-.006.026-.015.05-.027.073-.11.293-.17.61-.17.94 0 1.492 1.209 2.7 2.7 2.7s2.7-1.208 2.7-2.7c0-1.49-1.209-2.7-2.7-2.7z"/>
</svg>
