<svg xmlns="http://www.w3.org/2000/svg" width="32" height="32" viewBox="0 0 32 32">
    <path fill="#0050D7" fill-rule="evenodd" d="M12.267.033c.276 0 .5.224.5.5s-.224.5-.5.5H1.033v29.934h29.934V19.733c0-.276.224-.5.5-.5s.5.224.5.5v11.734c0 .276-.224.5-.5.5H.533c-.276 0-.5-.224-.5-.5V.533c0-.276.224-.5.5-.5h11.734zm19.2 0h.011c.02 0 .042.003.062.006l-.073-.006c.036 0 .071.004.105.011l.047.013.039.014c.013.006.027.012.04.02.013.006.024.012.036.02.012.007.023.015.035.024l.039.033.012.012.012.012.035.041L31.82.18c.026.025.048.053.067.083.009.013.017.027.024.041l.018.039.014.04.012.042.007.042c.002.015.004.03.004.045V11.2c0 .276-.223.5-.5.5-.275 0-.5-.224-.5-.5V1.74L15.82 16.886c-.195.195-.512.195-.707 0-.195-.195-.195-.512 0-.707L30.258 1.033H20.8c-.276 0-.5-.224-.5-.5s.224-.5.5-.5h10.667z"/>
</svg>
