<svg xmlns="http://www.w3.org/2000/svg" width="32" height="32" viewBox="0 0 32 32">
    <path fill="#0050D7" fill-rule="evenodd" d="M16 4c3.314 0 6 2.686 6 6v3h2.5c.828 0 1.5.672 1.5 1.5V20h4.293l-1.147-1.146c-.195-.196-.195-.512 0-.708.196-.195.512-.195.708 0l2 2c.195.196.195.512 0 .708l-2 2c-.196.195-.512.195-.708 0-.195-.196-.195-.512 0-.708L30.292 21H26v5.5c0 .828-.672 1.5-1.5 1.5h-17c-.828 0-1.5-.672-1.5-1.5V21H1.707l1.147 1.146c.195.196.195.512 0 .708-.196.195-.512.195-.708 0l-2-2c-.195-.196-.195-.512 0-.708l2-2c.196-.195.512-.195.708 0 .195.196.195.512 0 .708L1.707 20H6v-5.5c0-.828.672-1.5 1.5-1.5H10v-3c0-3.314 2.686-6 6-6zm8.5 10h-17c-.276 0-.5.224-.5.5v12c0 .276.224.5.5.5h17c.276 0 .5-.224.5-.5v-12c0-.276-.224-.5-.5-.5zM16 18c1.105 0 2 .895 2 2 0 .74-.402 1.386-.999 1.732L17 23c0 .552-.448 1-1 1s-1-.448-1-1v-1.268c-.598-.345-1-.992-1-1.732 0-1.105.895-2 2-2zm0-13c-2.761 0-5 2.239-5 5v3h10v-3c0-2.761-2.239-5-5-5z"/>
</svg>
