<svg xmlns="http://www.w3.org/2000/svg" width="32" height="32" viewBox="0 0 32 32">
    <path fill="#0050D7" fill-rule="evenodd" d="M16 0c4.418 0 8 3.582 8 8v4h3.5c.828 0 1.5.672 1.5 1.5v17c0 .828-.672 1.5-1.5 1.5h-23c-.828 0-1.5-.672-1.5-1.5v-17c0-.828.672-1.5 1.5-1.5H23V8c0-3.866-3.134-7-7-7S9 4.134 9 8v.5c0 .276-.224.5-.5.5S8 8.776 8 8.5V8c0-4.418 3.582-8 8-8zm11.5 13h-23c-.276 0-.5.224-.5.5v17c0 .276.224.5.5.5h23c.276 0 .5-.224.5-.5v-17c0-.276-.224-.5-.5-.5zM16 19c1.105 0 2 .895 2 2 0 .74-.402 1.386-.999 1.732L17 25c0 .552-.448 1-1 1s-1-.448-1-1v-2.268c-.598-.345-1-.992-1-1.732 0-1.105.895-2 2-2z"/>
</svg>
