<svg xmlns="http://www.w3.org/2000/svg" width="32" height="32" viewBox="0 0 32 32">
    <path fill="#0050D7" fill-rule="evenodd" d="M22.5 0c.029 0 .058.003.086.007L22.5 0c.037 0 .073.004.108.012.02.004.04.01.058.016l.032.013.041.02c.012.006.024.014.036.022l.03.02c.013.01.025.02.036.032l.013.011 6 6 .011.013c.011.011.022.023.031.036l-.042-.049c.024.025.045.05.063.079.008.012.016.024.022.036l.017.034.016.04c.006.018.012.037.016.057l.005.022c.004.028.007.057.007.086v24c0 .828-.672 1.5-1.5 1.5h-23c-.828 0-1.5-.672-1.5-1.5v-29C3 .672 3.672 0 4.5 0h18zM22 1H4.5c-.276 0-.5.224-.5.5v29c0 .276.224.5.5.5h23c.276 0 .5-.224.5-.5V7h-4.5c-.828 0-1.5-.672-1.5-1.5V1zm2.5 25c.276 0 .5.224.5.5s-.224.5-.5.5h-17c-.276 0-.5-.224-.5-.5s.224-.5.5-.5h17zm0-5c.276 0 .5.224.5.5s-.224.5-.5.5h-17c-.276 0-.5-.224-.5-.5s.224-.5.5-.5h17zm0-5c.276 0 .5.224.5.5s-.224.5-.5.5h-17c-.276 0-.5-.224-.5-.5s.224-.5.5-.5h17zm0-5c.276 0 .5.224.5.5s-.224.5-.5.5h-17c-.276 0-.5-.224-.5-.5s.224-.5.5-.5h17zM23 1.708V5.5c0 .276.224.5.5.5h3.793L23 1.708z"/>
</svg>
