<svg xmlns="http://www.w3.org/2000/svg" width="32" height="32" viewBox="0 0 32 32">
    <path fill="#0050D7" fill-rule="evenodd" d="M21.092 0c.394.002.77.158 1.051.436l5.422 5.412c.28.283.437.666.435 1.062V27.5c0 .828-.672 1.5-1.5 1.5H23v2.5c0 .456-.56.674-.868.339l-2.632-2.86-2.632 2.86c-.309.335-.868.117-.868-.339V29H5.5c-.828 0-1.5-.672-1.5-1.5v-26C4 .672 4.672 0 5.5 0h15.592zM19.5 26c-.925 0-1.785-.279-2.5-.757v4.975l2.132-2.317c.198-.215.538-.215.736 0L22 30.218V28.51 25.242c-.715.479-1.575.758-2.5.758zM21 1H5.5c-.276 0-.5.224-.5.5v26c0 .276.224.5.5.5H16v-3.671c-.625-.773-1-1.757-1-2.829 0-2.485 2.015-4.5 4.5-4.5s4.5 2.015 4.5 4.5c0 1.071-.374 2.055-1 2.828V28h3.5c.276 0 .5-.224.5-.5L26.999 7H22.5c-.828 0-1.5-.672-1.5-1.5V1zm-1.5 17c-1.933 0-3.5 1.567-3.5 3.5 0 .874.32 1.674.85 2.287.022.017.04.038.055.06C17.544 24.555 18.47 25 19.5 25c1.03 0 1.956-.445 2.596-1.153.015-.022.032-.043.051-.062.532-.611.853-1.41.853-2.285 0-1.933-1.567-3.5-3.5-3.5zm4.5-5c.276 0 .5.224.5.5s-.224.5-.5.5H8c-.276 0-.5-.224-.5-.5s.224-.5.5-.5h16zm0-3c.276 0 .5.224.5.5s-.224.5-.5.5H8c-.276 0-.5-.224-.5-.5s.224-.5.5-.5h16zm-2-8.294V5.5c0 .276.224.5.5.5h3.802L22 1.706z"/>
</svg>
