<svg xmlns="http://www.w3.org/2000/svg" width="32" height="32" viewBox="0 0 32 32">
    <path fill="#0050D7" fill-rule="evenodd" d="M22.5 0c.029 0 .058.003.086.007L22.5 0c.037 0 .073.004.108.012.02.004.04.01.058.016l.032.013.041.02c.012.006.024.014.036.022l.03.02c.013.01.025.02.036.032l.013.011 6 6c.093.094.146.221.146.354v24c0 .828-.672 1.5-1.5 1.5h-23c-.828 0-1.5-.672-1.5-1.5v-29C3 .672 3.672 0 4.5 0h18zM22 1H4.5c-.276 0-.5.224-.5.5v29c0 .276.224.5.5.5h23c.276 0 .5-.224.5-.5V7h-4.5c-.828 0-1.5-.672-1.5-1.5V1zm-8.136 11.147c.195.196.194.513-.001.707L10.199 16.5l3.664 3.646c.195.194.196.51.001.707-.194.195-.51.196-.707.001l-4.02-4c-.196-.195-.196-.513 0-.708l4.02-4c.196-.195.513-.194.707.001zm4.979-.001l4.02 4c.196.195.196.513 0 .708l-4.02 4c-.196.195-.513.194-.707-.001-.195-.196-.194-.513.001-.707l3.664-3.646-3.664-3.646c-.195-.194-.196-.51-.001-.707.194-.195.51-.196.707-.001zM23 1.708V5.5c0 .276.224.5.5.5h3.793L23 1.708z"/>
</svg>
