<svg xmlns="http://www.w3.org/2000/svg" width="32" height="32" viewBox="0 0 32 32">
    <path fill="#0050D7" fill-rule="evenodd" d="M22.5 0C23.88 0 25 1.12 25 2.5v7c0 .653-.417 1.208-1 1.414V15c0 2.55-1.193 4.82-3.05 6.285.032.064.05.138.05.215v2c0 .826.668 1.496 1.493 1.5H25.5c3.038 0 5.5 2.462 5.5 5.5v1c0 .276-.224.5-.5.5s-.5-.224-.5-.5v-1c0-2.485-2.015-4.5-4.5-4.5h-2l-.004.221c-.13 3.378-3.225 6.059-6.996 6.059-3.771 0-6.866-2.681-6.996-6.059L9.5 26l-.01-.001L6.5 26C4.015 26 2 28.015 2 30.5v1c0 .276-.224.5-.5.5s-.5-.224-.5-.5v-1C1 27.462 3.462 25 6.5 25h3.007l.137-.007C10.405 24.92 11 24.28 11 23.5v-2c0-.077.018-.15.05-.216C9.192 19.82 8 17.549 8 15v-4.085c-.582-.206-1-.762-1-1.415v-5C7 3.12 8.12 2 9.5 2H12v-.5c0-.828.672-1.5 1.5-1.5h9zM16 23c-1.457 0-2.823-.39-4-1.07v1.57c0 1.04-.636 1.932-1.54 2.309.026.058.04.123.04.191 0 2.9 2.675 5.28 6 5.28 3.248 0 5.875-2.27 5.996-5.078L22.5 26c-1.38 0-2.5-1.12-2.5-2.5l.001-1.57C18.824 22.61 17.458 23 16 23zm6.5-22h-9c-.276 0-.5.224-.5.5v1c0 .276-.224.5-.5.5h-3C8.672 3 8 3.672 8 4.5v5l.005.053.003-.066c.038-.378.205-.733.475-1.004.31-.31.73-.483 1.167-.483h8.85c.276 0 .5.224.5.5s-.224.5-.5.5H9.65c-.172 0-.338.068-.46.19S9 9.478 9 9.65V15c0 3.866 3.134 7 7 7s7-3.134 7-7V8.5c0-.276.224-.5.5-.5s.5.224.5.5v-6c0-.828-.672-1.5-1.5-1.5zM20 14.5c.276 0 .5.224.5.5 0 2.37-2.021 4.28-4.5 4.28s-4.5-1.91-4.5-4.28c0-.276.224-.5.5-.5s.5.224.5.5c0 1.804 1.561 3.28 3.5 3.28s3.5-1.476 3.5-3.28c0-.276.224-.5.5-.5z"/>
</svg>
