<svg xmlns="http://www.w3.org/2000/svg" width="32" height="32" viewBox="0 0 32 32">
    <path fill="#0050D7" fill-rule="evenodd" d="M27.63 5.5v4.586c1.06 1.102 1.833 2.446 2.255 3.914H31.5c.276 0 .5.224.5.5v4c0 .276-.224.5-.5.5h-1.608c-.374 1.414-1.028 2.74-1.926 3.896l-.976 4.706c-.049.232-.253.398-.49.398h-3c-.276 0-.5-.224-.5-.5v-2.228c-.78.32-1.603.562-2.5.728h-3.016c-.838-.027-1.67-.142-2.484-.343V27.5c0 .276-.224.5-.5.5h-3c-.232 0-.433-.16-.486-.384l-1.112-4.681c-2.178-2.552-2.859-6.03-1.86-9.18-.808-.927-2.003-1.371-3.167-1.256.068.726-.148 1.466-.631 2.036-.257.353-.57.643-.918.795-.516.225-1.053.112-1.464-.363-.764-.882-.04-2.126 1.028-2.85.23-.133.467-.244.708-.334-.767-.786-1.903-1.094-2.965-.801-.266.073-.541-.083-.615-.349-.073-.266.083-.541.349-.615 1.437-.397 2.975.034 4.05 1.185.07.106.132.215.186.327 1.375-.19 2.788.237 3.833 1.195l.032-.072c1.582-3.456 5.045-5.661 8.842-5.633h3.2c1.115.001 2.22.194 3.267.57l3.037-2.477c.326-.267.816-.035.816.387zM14 23.5c0-.276.224-.5.5-.5s.5.224.5.5v1.123l.048.014c.805.215 1.631.337 2.452.363l2.905.009c.896-.173 1.767-.45 2.596-.827L23 23.5c0-.276.224-.5.5-.5s.5.224.5.5V27h2.093l.917-4.422c.016-.076.05-.148.098-.209.926-1.166 1.577-2.526 1.904-3.979.052-.228.254-.39.488-.39H31v-3h-1.5c-.23 0-.432-.158-.486-.382-.365-1.506-1.14-2.88-2.237-3.974-.094-.094-.147-.221-.147-.354V6.553l-2.444 1.994c-.14.115-.331.145-.5.078-1.011-.399-2.089-.604-3.176-.605h-3.204c-3.407-.025-6.51 1.951-7.93 5.049-.094.207-.18.416-.257.628-.005.092-.035.182-.089.26-.956 2.885-.328 6.092 1.706 8.413.054.062.092.135.11.214L11.896 27H14v-3.5zM3.894 12.736c-.162.063-.32.14-.473.228-.603.409-1.01 1.11-.803 1.349.12.139.187.153.308.1.158-.069.348-.245.532-.496.29-.342.433-.767.436-1.181zM26.5 13c.276 0 .5.224.5.5s-.224.5-.5.5h-1c-.276 0-.5-.224-.5-.5s.224-.5.5-.5h1zm-6.01-4c.276 0 .5.224.5.5s-.224.5-.5.5H17.5c-.276 0-.5-.224-.5-.5s.224-.5.5-.5h2.99z"/>
</svg>
