<svg xmlns="http://www.w3.org/2000/svg" width="32" height="32" viewBox="0 0 32 32">
    <path fill="#0050D7" fill-rule="evenodd" d="M19.588 4.788C25.935 5.926 30 11.457 30 18c-.003 7.112-5.342 13.09-12.408 13.894-7.066.804-13.611-3.821-15.213-10.75C.778 14.214 4.63 7.186 11.333 4.809c.26-.093.546.044.638.304.093.26-.044.546-.304.638-6.223 2.208-9.8 8.734-8.313 15.168 1.486 6.434 7.564 10.728 14.125 9.981C24.04 30.154 28.997 24.603 29 18c0-6.083-3.746-11.18-9.588-12.228-.272-.049-.453-.308-.404-.58.049-.272.308-.453.58-.404zM15.5 0c.276 0 .5.224.5.5v16c0 .276-.224.5-.5.5s-.5-.224-.5-.5V.5c0-.276.224-.5.5-.5z"/>
</svg>
