<svg xmlns="http://www.w3.org/2000/svg" width="32" height="32" viewBox="0 0 32 32">
    <path fill="#0050D7" fill-rule="evenodd" d="M28.5 0c.276 0 .5.224.5.5v28c0 1.933-1.567 3.5-3.5 3.5h-19C4.567 32 3 30.433 3 28.5v-3c0-.276.224-.5.5-.5H9V.5c0-.276.224-.5.5-.5h19zM22 26H4v2.5C4 29.88 5.12 31 6.5 31h16.55c-.648-.635-1.05-1.52-1.05-2.5V26zm6-25H10v24h12.5c.276 0 .5.224.5.5v3c0 1.325 1.032 2.41 2.336 2.495L25.5 31c1.38 0 2.5-1.12 2.5-2.5V1zm-2.5 17c.276 0 .5.224.5.5s-.224.5-.5.5h-5c-.276 0-.5-.224-.5-.5s.224-.5.5-.5h5zm0-3c.276 0 .5.224.5.5s-.224.5-.5.5h-5c-.276 0-.5-.224-.5-.5s.224-.5.5-.5h5zm0-5c.276 0 .5.224.5.5s-.224.5-.5.5h-13c-.276 0-.5-.224-.5-.5s.224-.5.5-.5h13zm0-3c.276 0 .5.224.5.5s-.224.5-.5.5h-13c-.276 0-.5-.224-.5-.5s.224-.5.5-.5h13zm0-3c.276 0 .5.224.5.5s-.224.5-.5.5h-13c-.276 0-.5-.224-.5-.5s.224-.5.5-.5h13z"/>
</svg>
