<svg xmlns="http://www.w3.org/2000/svg" width="32" height="32" viewBox="0 0 32 32">
    <path fill="#0050D7" fill-rule="evenodd" d="M1.5 22C.672 22 0 21.328 0 20.5v-9c0-.828.672-1.5 1.5-1.5h2.967c.08-.153.162-.304.248-.453.121-.197.092-.45-.069-.613L3.631 7.918c-.524-.574-.524-1.452-.036-1.981.32-.444.667-.869 1.069-1.307.405-.368.83-.713 1.236-1.006.566-.497 1.414-.497 2.004.022L8.91 4.653c.142.147.36.193.491.143.98-.561 2.03-.991 3.134-1.283.23-.054.392-.263.385-.513V1.592c-.003-.778.59-1.43 1.351-1.499 1.096-.13 2.202-.13 3.284-.001.775.07 1.368.722 1.365 1.498v1.333c-.007.237.154.446.398.504 1.091.288 2.14.718 3.135 1.288.197.121.45.092.613-.069l1.017-1.015c.573-.524 1.451-.524 1.98-.036.443.322.868.667 1.307 1.068.368.405.714.83 1.006 1.237.497.566.497 1.414-.022 2.004l-1.02 1.017c-.165.15-.212.39-.13.56.097.17.191.343.28.517L26.35 10l-.029-.05c-.292-.601-.151-1.323.326-1.753l.978-.976c.166-.189.166-.471-.03-.697-.298-.413-.62-.81-.93-1.153-.378-.343-.774-.666-1.232-1.001-.19-.175-.483-.175-.658-.015l-1.002 1.001c-.493.488-1.255.575-1.83.219-.904-.518-1.872-.915-2.867-1.177-.692-.164-1.174-.79-1.155-1.487V1.588c.001-.26-.197-.477-.469-.501-1.017-.12-2.045-.12-3.076.001-.258.023-.456.24-.455.502v1.397c.019.71-.463 1.336-1.142 1.496-1.008.266-1.976.663-2.938 1.21-.568.233-1.222.097-1.644-.34l-.976-.977c-.189-.166-.471-.166-.696.029-.414.3-.81.622-1.154.932-.344.377-.666.773-1.001 1.23-.175.192-.175.484-.015.66l1.001 1.001c.472.476.569 1.204.254 1.771L30.5 10c.828 0 1.5.672 1.5 1.5v9c0 .828-.672 1.5-1.5 1.5h-2.964c-.08.152-.164.303-.25.453-.122.197-.093.45.068.613l1.015 1.017c.524.573.524 1.451.036 1.98-.321.444-.667.869-1.051 1.29-.352.353-.722.688-1.103 1-.596.5-1.475.46-2.025-.09l-.998-.998c-.164-.162-.418-.191-.63-.061-.98.561-2.029.991-3.133 1.283-.23.054-.392.263-.385.513v1.458c.003.778-.59 1.43-1.351 1.499-1.096.13-2.202.13-3.284.001-.775-.07-1.368-.722-1.365-1.498v-1.383c.007-.237-.154-.446-.397-.504-1.092-.287-2.142-.718-3.136-1.288-.197-.121-.45-.092-.613.069l-1.016 1.015c-.574.524-1.452.524-1.982.036-.442-.322-.867-.667-1.306-1.068-.368-.405-.714-.83-1.006-1.237-.497-.566-.497-1.414.022-2.004l1.014-1.013c.159-.147.205-.379.137-.533-.104-.18-.204-.364-.3-.55h1.135l.053.092c.27.59.13 1.285-.331 1.712l-.978.976c-.166.189-.166.471.029.697.3.413.621.81.931 1.153.378.343.774.666 1.231 1.001.192.175.484.175.66.015l1.001-1.001c.493-.488 1.255-.575 1.83-.219.904.518 1.872.915 2.867 1.177.692.164 1.174.79 1.155 1.487v1.372c-.001.26.197.477.469.501 1.017.12 2.045.12 3.076-.001.258-.023.456-.24.455-.502v-1.447c-.019-.71.463-1.336 1.142-1.496 1.008-.266 1.976-.663 2.865-1.172.59-.365 1.352-.278 1.847.211l1 1c.183.184.476.197.68.027.359-.294.704-.607 1.016-.92.344-.377.666-.773 1.001-1.23.175-.192.175-.484.015-.66l-1.001-1.001c-.472-.476-.569-1.204-.253-1.773L1.5 22zm29-11h-29c-.276 0-.5.224-.5.5v9c0 .276.224.5.5.5h29c.276 0 .5-.224.5-.5v-9c0-.276-.224-.5-.5-.5zM27 14c.552 0 1 .448 1 1s-.448 1-1 1-1-.448-1-1 .448-1 1-1z"/>
</svg>
