<svg xmlns="http://www.w3.org/2000/svg" width="32" height="32" viewBox="0 0 32 32">
    <path fill="#0050D7" fill-rule="evenodd" d="M16.366 0c.194 0 .37.112.452.287 1.42 3.014 4.426 5.138 7.94 5.606l.568.067h1.768c.7-.055 1.39-.176 2.062-.362.285-.079.575.105.626.396.115.662.175 1.332.18 2.006-.004 9.599-5.14 18.564-13.697 23.924-.162.101-.368.101-.53 0-8.557-5.36-13.693-14.325-13.696-23.94.022-.673.1-1.343.236-2.004.057-.283.342-.458.62-.382.673.182 1.363.3 2.023.352h1.409l.323.003.613-.068c3.51-.478 6.501-2.596 7.919-5.598.082-.175.258-.287.452-.287h.732zm-.311 1h-.11c-1.615 3.161-4.82 5.369-8.559 5.877l-.68.073h-.904l-.921-.001c-.58-.044-1.154-.13-1.719-.256-.068.438-.11.876-.124 1.307C3.042 17.15 7.89 25.71 16 30.908 24.11 25.71 28.958 17.15 28.962 8.003c-.003-.436-.032-.871-.086-1.304-.566.128-1.142.215-1.724.26l-.038.001H25.63c-.152 0-.152 0-.36-.003l-.635-.071c-3.742-.5-6.962-2.712-8.58-5.886zm.298 3.996C18.902 7.543 22.48 8.994 26.232 9c.275 0 .499.224.499.5v.42c-.004 7.337-3.929 14.188-10.466 18.284-.162.102-.368.101-.53 0C9.204 24.103 5.287 17.252 5.29 9.92V9.5c0-.276.223-.5.5-.5 3.744-.004 7.316-1.456 9.855-4.003.195-.196.512-.196.707 0zm-.352 1.05C13.418 8.458 9.946 9.868 6.29 9.99c.022 6.857 3.647 13.273 9.71 17.196 6.068-3.92 9.7-10.336 9.73-17.196-3.662-.123-7.139-1.532-9.73-3.946z"/>
</svg>
