<svg xmlns="http://www.w3.org/2000/svg" width="32" height="32" viewBox="0 0 32 32">
    <path fill="#0050D7" fill-rule="evenodd" d="M16 0c8.836 0 16 7.164 16 16 0 8.837-7.164 16-16 16S0 24.837 0 16C0 7.164 7.164 0 16 0zm0 1C7.716 1 1 7.716 1 16c0 8.284 6.716 15 15 15 8.285 0 15-6.716 15-15 0-8.284-6.715-15-15-15zm8.852 19.176c.202.23.196.595-.013.816C23.094 22.845 19.719 24 15.994 24c-3.716 0-7.083-1.149-8.832-2.993-.21-.22-.216-.586-.016-.817.202-.229.535-.237.744-.016 1.528 1.61 4.636 2.672 8.104 2.672 3.476 0 6.59-1.067 8.115-2.684.209-.222.542-.215.743.014zM21 9c.552 0 1 .671 1 1.5s-.448 1.5-1 1.5-1-.671-1-1.5.448-1.5 1-1.5zM11 9c.553 0 1 .671 1 1.5s-.447 1.5-1 1.5c-.552 0-1-.671-1-1.5S10.448 9 11 9z"/>
</svg>
