<svg xmlns="http://www.w3.org/2000/svg" width="32" height="32" viewBox="0 0 32 32">
    <path fill="#0050D7" fill-rule="evenodd" d="M19.992.41l1.572 8.641c.307-.034.62-.051.936-.051 4.694 0 8.5 3.806 8.5 8.5S27.194 26 22.5 26l-.19-.003-1.363 2.727c-.069.138-.198.236-.349.266l-15 3-.024.005L5.52 32l.078-.01c-.04.008-.08.011-.12.01-.015-.001-.03-.002-.047-.005l-.037-.006-.05-.014-.037-.014-.03-.014-.01-.004-.043-.026.052.03c-.03-.015-.059-.033-.085-.054l-.03-.026c-.013-.011-.024-.023-.035-.035l-.025-.03c-.01-.013-.018-.025-.025-.037l-.023-.04-.018-.042-.008-.021c-.007-.021-.013-.043-.017-.065l-.002-.008-4-22c-.02-.106-.004-.216.045-.313l3-6 .006-.012c.007-.014.016-.027.024-.04l-.03.052c.015-.03.033-.058.053-.084l.03-.035.031-.03c.011-.01.022-.02.034-.028.01-.008.02-.014.03-.02.016-.01.032-.02.049-.028l.028-.013c.016-.006.032-.012.05-.017l.03-.008.014-.003 15-3c.274-.055.54.125.59.4zm-2.663 23.837l-8.492 1.695-2.433 4.867 13.758-2.751 1.075-2.151c-1.456-.217-2.792-.803-3.908-1.66zM4.276 5.065l-2.254 4.51 3.7 20.36 2.256-4.511-3.702-20.36zM22.5 10c-.402 0-.797.032-1.182.093-.022.009-.045.015-.068.019l-.09.008-.085.015C17.615 10.801 15 13.845 15 17.5c0 2.342 1.074 4.434 2.756 5.81.013.007.024.015.035.025C19.077 24.377 20.715 25 22.5 25c4.142 0 7.5-3.358 7.5-7.5 0-4.142-3.358-7.5-7.5-7.5zm-3.4-8.91L5.08 3.894 8.9 24.91l7.494-1.497C14.912 21.883 14 19.798 14 17.5c0-4.034 2.81-7.412 6.58-8.282L19.1 1.09zM22.5 15c1.38 0 2.5 1.12 2.5 2.5S23.88 20 22.5 20 20 18.88 20 17.5s1.12-2.5 2.5-2.5zm0 1c-.828 0-1.5.672-1.5 1.5s.672 1.5 1.5 1.5 1.5-.672 1.5-1.5-.672-1.5-1.5-1.5z"/>
</svg>
