<svg xmlns="http://www.w3.org/2000/svg" width="32" height="32" viewBox="0 0 32 32">
    <path fill="#0050D7" fill-rule="evenodd" d="M10.084.146l5.09 5.09c.128.13.177.318.126.493l-1.99 6.883 1.684 1.676.222-.22c.83-.838 3.727.707 4.928 1.909l11.211 11.23c.828.835.828 2.18-.001 3.017l-1.132 1.131c-.834.828-2.18.828-3.015-.001L15.989 20.146c-1.202-1.183-2.763-4.102-1.923-4.93l.221-.221-1.689-1.681-6.87 1.986c-.174.05-.363.002-.492-.126l-5.09-5.09c-.195-.196-.195-.512 0-.708.196-.195.512-.195.708 0l4.88 4.882 6.612-1.912 1.912-6.611L9.376.854c-.195-.196-.195-.512 0-.708.196-.195.512-.195.708 0zm5.842 14.625l-1.155 1.155c-.216.213 1.13 2.73 1.922 3.51l11.22 11.209c.444.44 1.16.44 1.603.001l1.129-1.128c.44-.445.44-1.161.001-1.605l-11.21-11.23c-.789-.789-3.298-2.127-3.51-1.912zM8.584 3.206l2.69 2.69c.126.126.175.31.13.482l-.98 3.69c-.047.174-.182.31-.356.355l-3.69.98c-.172.046-.356-.003-.482-.13l-2.69-2.69c-.126-.126-.175-.31-.129-.483l.99-3.68c.046-.172.181-.307.353-.353l3.68-.99c.173-.046.357.003.484.13zm-.503.912l-3.123.84-.84 3.123L6.4 10.363 9.53 9.53l.832-3.131L8.08 4.118z"/>
</svg>
