<svg xmlns="http://www.w3.org/2000/svg" width="32" height="32" viewBox="0 0 32 32">
    <path fill="#0050D7" fill-rule="evenodd" d="M25.5 5.96c1.933 0 3.5 1.567 3.5 3.5v5.97c.11 1.895 1.142 3.614 2.76 4.603.432.264.245.927-.26.927h-3.001c-.794-.002-1.563-.273-2.185-.773-.471-.384-1.147-.384-1.621.003-.619.497-1.388.768-2.183.77h-.52v2.54c0 1.933-1.567 3.5-3.5 3.5H9.489c-.794-.002-1.563-.273-2.185-.773-.471-.384-1.147-.384-1.621.003-.619.497-1.388.768-2.183.77h-3c-.505 0-.692-.663-.26-.927C1.857 25.084 2.89 23.365 3 21.5v-6C3 13.567 4.567 12 6.5 12l3.5-.001V9.46c0-1.933 1.567-3.5 3.5-3.5h12zm-7 7.04h-12C5.12 13 4 14.12 4 15.5v6.03c-.101 1.71-.842 3.3-2.045 4.47h1.544c.567-.001 1.116-.195 1.555-.547.839-.685 2.043-.685 2.879-.003.442.355.991.549 1.557.55h9c1.38 0 2.5-1.12 2.5-2.5v-8c0-1.377-1.114-2.495-2.49-2.5zm7-6.04h-12c-1.38 0-2.5 1.12-2.5 2.5v2.539l7.5.001c1.93.006 3.49 1.572 3.49 3.5v4.46h.519c.567-.001 1.116-.195 1.555-.547.839-.685 2.043-.685 2.879-.003.442.355.991.549 1.557.55h1.545c-1.203-1.171-1.944-2.766-2.045-4.5v-6c0-1.38-1.12-2.5-2.5-2.5z"/>
</svg>
