<svg xmlns="http://www.w3.org/2000/svg" width="32" height="32" viewBox="0 0 32 32">
    <path fill="#0050D7" fill-rule="evenodd" d="M19.5 4c.828 0 1.5.672 1.5 1.5v1.499L24.087 7c.399-.002.782.154 1.067.437l6.411 6.42c.28.284.437.667.435 1.063v7.58c0 .828-.672 1.5-1.5 1.5h-1.536c.024.163.036.33.036.5 0 1.933-1.567 3.5-3.5 3.5S22 26.433 22 24.5c0-.17.012-.337.035-.5h-11.57c.023.163.035.33.035.5 0 1.933-1.567 3.5-3.5 3.5s-3.5-1.567-3.5-3.5c0-.17.012-.337.035-.5H1.5C.672 24 0 23.328 0 22.5v-17C0 4.672.672 4 1.5 4h18zM7 22c-1.38 0-2.5 1.12-2.5 2.5S5.62 27 7 27s2.5-1.12 2.5-2.5S8.38 22 7 22zm18.5 0c-1.38 0-2.5 1.12-2.5 2.5s1.12 2.5 2.5 2.5 2.5-1.12 2.5-2.5-1.12-2.5-2.5-2.5zM24.09 8L21 7.999V23h1.337c.562-1.182 1.767-2 3.163-2s2.6.817 3.163 1.999L30.5 23c.276 0 .5-.224.5-.5v-7.583c0-.133-.051-.26-.144-.354l-6.408-6.418c-.094-.094-.222-.146-.358-.145zM19.5 5h-18c-.276 0-.5.224-.5.5v17c0 .276.224.5.5.5h2.337c.562-1.182 1.767-2 3.163-2s2.601.818 3.163 2H20V5.5c0-.276-.224-.5-.5-.5zm6.19 7c.332 0 .65.132.884.366l1.06 1.06c.234.234.366.552.366.884v1.19c0 .276-.224.5-.5.5h-3c-.276 0-.5-.224-.5-.5v-3c0-.276.224-.5.5-.5h1.19zm0 1H25v2h2v-.69c0-.066-.026-.13-.074-.176l-1.06-1.06c-.047-.048-.11-.074-.176-.074z"/>
</svg>
