<svg xmlns="http://www.w3.org/2000/svg" width="32" height="32" viewBox="0 0 32 32">
    <path fill="#0050D7" fill-rule="evenodd" d="M23.5 5c1.274 0 2.388.68 3 1.697C27.112 5.68 28.226 5 29.5 5h2c.276 0 .5.224.5.5s-.224.5-.5.5h-2C28.12 6 27 7.12 27 8.5v15c0 1.38 1.12 2.5 2.5 2.5h2c.276 0 .5.224.5.5s-.224.5-.5.5h-2c-1.274 0-2.388-.68-3-1.697-.612 1.017-1.726 1.697-3 1.697h-2c-.276 0-.5-.224-.5-.5s.224-.5.5-.5h2c1.38 0 2.5-1.12 2.5-2.5v-15C26 7.12 24.88 6 23.5 6h-2c-.276 0-.5-.224-.5-.5s.224-.5.5-.5h2zm-7.86 8.22c2.28 0 3 1.64 3 3.7V23h-.74l-.1-1.24c-.937.858-2.133 1.38-3.4 1.48-.736.08-1.47-.167-2.009-.674-.538-.508-.828-1.227-.791-1.966 0-2.12 1.94-3.14 6.2-3.62V17c0-1.46-.38-3-2.26-3-1.112.043-2.183.435-3.06 1.12l-.4-.66c1.035-.761 2.276-1.193 3.56-1.24zM5.58 9.87L10.22 23h-1L7.7 18.53H2.48L.94 23H0L4.66 9.87h.92zm12.22 7.84c-3.94.46-5.28 1.38-5.28 2.9-.04.535.162 1.059.549 1.43.386.371.918.551 1.451.49l.02-.05c1.232-.074 2.393-.601 3.26-1.48v-3.29zM5.14 10.73h-.08c-.46 1.62-.92 3-1.46 4.56l-.84 2.46h4.68l-.84-2.46c-.52-1.56-1-2.94-1.46-4.56z"/>
</svg>
