<svg xmlns="http://www.w3.org/2000/svg" width="32" height="32" viewBox="0 0 32 32">
    <path fill="#0050D7" fill-rule="evenodd" d="M25.5 2C27.433 2 29 3.567 29 5.5V9h2.5c.276 0 .5.224.5.5v20c0 .276-.224.5-.5.5h-28C1.567 30 0 28.433 0 26.5v-21C0 3.567 1.567 2 3.5 2h22zM1 8.95V26.5C1 27.88 2.12 29 3.5 29H31v-6h-9.5c-.276 0-.5-.224-.5-.5v-6c0-.276.224-.5.5-.5H31v-6H3.5c-.071 0-.142-.002-.212-.006L3.5 10c-.091 0-.182-.004-.272-.01-.046-.004-.093-.008-.139-.014L3 9.965l-.13-.021-.062-.012-.126-.028-.093-.024-.092-.026c-.026-.008-.051-.015-.076-.024l-.027-.008c-.123-.041-.243-.089-.36-.143l-.04-.019c-.048-.023-.095-.046-.142-.071l-.046-.026c-.042-.023-.083-.046-.123-.071l-.062-.038-.093-.062-.077-.054-.081-.06-.06-.047-.019-.016c-.097-.079-.19-.163-.278-.252L1 8.95zM31 17h-9v5h9v-5zm-6.5 2c.276 0 .5.224.5.5s-.224.5-.5.5-.5-.224-.5-.5.224-.5.5-.5zM4 5.5c0-.276.224-.5.5-.5h21c.276 0 .5.224.5.5V9h2V5.5C28 4.12 26.88 3 25.5 3h-22C2.12 3 1 4.12 1 5.5v1C1 7.88 2.12 9 3.5 9H4V5.5zM25 8H5v1h20V8zm0-2H5v1h20V6z"/>
</svg>
