<svg xmlns="http://www.w3.org/2000/svg" width="32" height="32" viewBox="0 0 32 32">
    <path fill="#0050D7" fill-rule="evenodd" d="M18.471 22.024c1.367 1.367 1.367 3.583 0 4.95-1.366 1.367-3.583 1.367-4.95 0-1.366-1.367-1.366-3.583 0-4.95 1.367-1.367 3.584-1.367 4.95 0zm-4.242.707c-.977.977-.977 2.56 0 3.536.976.976 2.559.976 3.535 0 .977-.976.977-2.56 0-3.536-.976-.976-2.559-.976-3.535 0zm10.616-7.083l.012.012c.33.357.64.732.927 1.125.14.191.126.455-.033.63l-4.16 4.6c-.236.261-.66.204-.818-.11-.239-.477-.547-.914-.906-1.291-2.148-2.145-5.626-2.145-7.765-.01-.367.387-.676.825-.916 1.301-.158.314-.581.37-.817.11l-4.16-4.6c-.163-.18-.173-.45-.024-.642 2.196-2.826 5.503-4.57 9.075-4.786 3.573-.215 7.066 1.119 9.585 3.661zm-9.524-2.662c-3.147.19-6.068 1.668-8.084 4.075l3.413 3.774c.215-.328.46-.639.737-.929 2.537-2.534 6.649-2.534 9.195.009.27.284.514.592.728.92l3.421-3.783c-.19-.243-.392-.479-.602-.706-2.317-2.334-5.526-3.558-8.808-3.36zm.639-9.988c5.703 0 11.171 2.266 15.204 6.298.126.127.226.237.415.455l.043.048c.091.105.147.168.207.233.173.19.175.48.003.672l-4 4.46c-.203.226-.558.22-.754-.012-.274-.324-.554-.63-.831-.908-5.662-5.66-14.838-5.66-20.5-.003l-.193.2c-.371.39-.52.542-.757.758-.205.188-.524.172-.71-.035l-4-4.46c-.171-.192-.17-.482.004-.672.045-.048.088-.096.145-.161l.105-.12c.19-.218.289-.328.415-.455C4.79 5.264 10.257 2.998 15.96 2.998zm0 1c-5.437 0-10.652 2.16-14.496 6.006-.099.098-.182.19-.335.364l3.357 3.742c.092-.094.2-.207.344-.358l.2-.21.006-.006c6.053-6.05 15.865-6.05 21.918 0 .17.171.341.352.511.54l3.326-3.708c-.153-.175-.236-.266-.335-.364-3.844-3.845-9.059-6.006-14.496-6.006z"/>
</svg>
