<svg xmlns="http://www.w3.org/2000/svg" width="32" height="32" viewBox="0 0 32 32">
    <path fill="#0050D7" fill-rule="evenodd" d="M16.5 0c.035 0 .07.004.102.01 5.721.213 10.675 3.428 13.33 8.118.084.073.142.174.161.289C31.31 10.674 32 13.257 32 16c0 .143-.002.286-.006.428.004.023.006.047.006.072 0 .035-.004.07-.01.102-.092 2.47-.744 4.798-1.833 6.86.002.012.003.025.003.038 0 .192-.108.358-.266.442-2.665 4.65-7.599 7.837-13.293 8.047-.032.007-.066.011-.101.011l-.072-.006c-.142.004-.285.006-.428.006-5.947 0-11.136-3.244-13.894-8.06-.158-.082-.266-.248-.266-.44l.003-.038C.754 21.4.103 19.072.01 16.602.004 16.568 0 16.534 0 16.5l.006-.07C.002 16.287 0 16.144 0 16c0-2.744.69-5.326 1.907-7.583L1.9 8.5c0-.148.065-.282.167-.373C4.815 3.275 10.025 0 16 0c.144 0 .287.002.43.006L16.5 0zM16 24l-6.754.001C10.68 28.215 13.2 31 16 31v-7zm6.754.001L17 24v6.88c2.393-.573 4.493-3.174 5.754-6.879zm-14.562 0H3.309c2 3.164 5.149 5.528 8.861 6.506-1.68-1.393-3.066-3.678-3.978-6.506zm20.499 0h-4.883c-.912 2.828-2.297 5.113-3.978 6.505 3.712-.977 6.862-3.341 8.86-6.506zM7.017 17H1.033c.142 2.156.74 4.188 1.697 6h5.165c-.498-1.834-.805-3.862-.878-6zM16 17H8.018c.077 2.16.4 4.19.916 6H16v-6zm7.982 0H17v6h6.066c.516-1.81.84-3.84.916-6zm6.985 0h-5.984c-.073 2.139-.38 4.167-.878 6.001h5.165c.957-1.812 1.555-3.844 1.697-6zM7.895 9H2.73C1.625 11.09 1 13.472 1 16h6c0-2.506.32-4.883.895-7zM16 9H8.934C8.339 11.088 8 13.468 8 16h8V9zm7.066 0H17v7h7c0-2.533-.34-4.913-.934-7zm6.204 0h-5.165c.575 2.117.895 4.494.895 7h6c0-2.528-.625-4.91-1.73-7zm-17.1-7.506l-.11.029C8.396 2.518 5.289 4.867 3.31 8H8.19c.913-2.83 2.298-5.115 3.98-6.507zM16 1c-2.801 0-5.32 2.785-6.754 7H16V1zm1 .12V8h5.754c-1.26-3.706-3.36-6.306-5.753-6.88zm2.83.373l.033.028c1.666 1.395 3.04 3.67 3.946 6.48h4.882c-1.999-3.165-5.149-5.53-8.861-6.508z"/>
</svg>
