<svg xmlns="http://www.w3.org/2000/svg" width="24" height="24" viewBox="0 0 24 24">
    <path fill="#0050D7" fill-rule="evenodd" d="M8.5 18c1.381 0 2.5 1.12 2.5 2.5 0 1.381-1.119 2.5-2.5 2.5C7.12 23 6 21.881 6 20.5 6 19.12 7.12 18 8.5 18zm12 0c1.38 0 2.5 1.12 2.5 2.5 0 1.381-1.119 2.5-2.5 2.5-1.38 0-2.5-1.119-2.5-2.5 0-1.38 1.12-2.5 2.5-2.5zm-12 2c-.276 0-.5.224-.5.5s.224.5.5.5c.277 0 .5-.223.5-.5 0-.276-.224-.5-.5-.5zm12 0c-.276 0-.5.224-.5.5s.224.5.5.5c.277 0 .5-.223.5-.5 0-.276-.224-.5-.5-.5zM5 2c.43 0 .805.263.943.646l.032.107.829 3.605h16.197c.594 0 1.048.494.995 1.047l-.018.112-1.61 7.363c-.344 1.243-1.506 2.105-2.785 2.12l-.175-.003-9.676-.001c-1.335.063-2.541-.741-2.967-1.984l-.053-.172-1.673-7.265-.01-.036-.012-.06-.82-3.559-3.199.001c-.512 0-.934-.37-.991-.848L0 2.96c0-.493.385-.9.882-.955L.998 2H5zm16.772 6.279H7.246l1.405 6.106c.108.39.46.664.908.69l9.898.002c.417.02.796-.221.938-.55l.032-.092 1.345-6.156z"/>
</svg>
