<svg xmlns="http://www.w3.org/2000/svg" width="24" height="24" viewBox="0 0 24 24">
    <path fill="#0050D7" fill-rule="evenodd" d="M16.816 2.5c.386 0 .758.156 1.032.435l2.218 2.25c.278.281.434.664.434 1.064V16c0 .828-.657 1.5-1.467 1.5h-8.066c-.81 0-1.467-.672-1.467-1.5V6.541h-.913V8.5H5.5v11h7v-.97h2V20c0 .828-.657 1.5-1.467 1.5H4.967c-.81 0-1.467-.672-1.467-1.5V8c0-.828.657-1.5 1.467-1.5H9.5V4c0-.828.657-1.5 1.467-1.5h5.849zm-2.317 2H11.5v11h7v-7h-2.286A1.714 1.714 0 0 1 14.5 6.786L14.499 4.5zm2.186 0h-.471v2.086c0 .11.09.2.2.2l2.086-.001v-.35l-.988-1.088-.827-.847z"/>
</svg>
