<svg xmlns="http://www.w3.org/2000/svg" width="24" height="24" viewBox="0 0 24 24">
    <path fill="#0050D7" fill-rule="evenodd" d="M4 24c-1.105 0-2-.895-2-2V12c0-1.105.895-2 2-2h1V7c.004-3.864 3.136-6.996 7-7 3.864.004 6.996 3.136 7 7v3h1c1.105 0 2 .895 2 2v10c0 1.105-.895 2-2 2H4zm0-2h16V12H4v10zm13-12V7c-.004-2.76-2.24-4.996-5-5-2.76.004-4.996 2.24-5 5v3h10zm-6 9v-1c0-.084.01-.168.031-.25C10.395 17.398 10 16.727 10 16c0-1.105.895-2 2-2s2 .895 2 2c0 .727-.395 1.398-1.031 1.75.021.082.032.166.032.25v1c0 .552-.448 1-1 1-.265 0-.52-.105-.708-.293C11.105 19.52 11 19.265 11 19z"/>
</svg>
