<svg xmlns="http://www.w3.org/2000/svg" width="24" height="24" viewBox="0 0 24 24">
    <path fill="#0050D7" fill-rule="evenodd" d="M22.223 2.901l-.877-.878c-1.368-1.364-3.582-1.364-4.95 0L3.016 15.404c-.106.107-.183.24-.223.385l-1.76 6.352c-.072.263-.018.545.148.762.165.218.422.345.695.346.08 0 .158-.011.234-.032l6.352-1.76c.146-.04.279-.117.385-.225L22.224 7.851c1.36-1.37 1.36-3.58-.001-4.95zM6.611 20.154l-3.48.965.962-3.483 2.518 2.518zM19.044 8.563L8.269 19.335l-3.358-3.356L15.688 5.205l3.356 3.358zm-.174-5.814c.464-.001.909.183 1.236.512l.88.88c.681.685.681 1.791 0 2.476l-.711.711-3.355-3.355.712-.712c.328-.33.774-.514 1.238-.512z"/>
</svg>
