<svg xmlns="http://www.w3.org/2000/svg" width="24" height="24" viewBox="0 0 24 24">
  <g transform="translate(-31 -6)">
    <g transform="translate(-609 -417)">
      <rect  width="24" height="24" transform="translate(640 423)" fill="none"/>
      <path d="M2102.407-15004.494a1.145,1.145,0,0,1-.952-1.127v-13.714a1.133,1.133,0,0,1,.082-.424,1.3,1.3,0,0,1,.159-.308,1.077,1.077,0,0,1,1.474-.361l10.027,7.105a.915.915,0,0,1,.155.139,1.283,1.283,0,0,1,.162.2,1.086,1.086,0,0,1-.207,1.519l-10.056,6.783-.033.022-.055.037a.943.943,0,0,1-.525.156A1.084,1.084,0,0,1,2102.407-15004.494Zm1.332-3.278,6.832-4.607-6.832-4.842Z" transform="translate(-1455.453 15447.477)" fill="#0050D7 " stroke="rgba(0,0,0,0)" stroke-width="1"/>
    </g>
  </g>
</svg>
