<svg xmlns="http://www.w3.org/2000/svg" width="24" height="24" viewBox="0 0 24 24">
    <path fill="#0050D7" fill-rule="evenodd" d="M6.367 24.004c-.552 0-1-.448-1-1v-5.247H3.014c-.552 0-1-.448-1-1v-10c0-.552.448-1 1-1h2.5L5.5 2.997c0-.552.448-1 1-1h11c.552 0 1 .448 1 1l.013 2.76h2.5c.552 0 1 .448 1 1v10c0 .552-.448 1-1 1h-2.645V23c0 .552-.448 1-1 1l-11.001.004zm1-2h9v-6.247h-9v6.247zm10-8.244c.552 0 1 .448 1 1v1h1.645v-8h-16v8h1.354v-1c0-.552.448-1 1-1h11.001zm-9.855-8h9L16.499 4h-9l.013 1.76zM5.499 9.999c0-.552.448-1 1-1s1 .448 1 1-.448 1-1 1-1-.448-1-1z"/>
</svg>
