<svg xmlns="http://www.w3.org/2000/svg" width="24" height="24" viewBox="0 0 24 24">
    <path fill="#0050D7" fill-rule="evenodd" d="M20.622 19c.24.384.378.838.378 1.323 0 1.382-1.119 2.5-2.5 2.5s-2.5-1.119-2.5-2.5c0-.633.235-1.21.623-1.651-.227-.117-.437-.264-.626-.434-.529.473-1.23.762-1.997.762H7.622c.24.383.378.837.378 1.323 0 1.382-1.118 2.5-2.5 2.5-1.38 0-2.5-1.118-2.5-2.5 0-.486.139-.94.38-1.323h-.63C1.212 18.873 0 17.57 0 16V6c0-1.656 1.343-3 3-3h11c1.309 0 2.422.838 2.832 2.007l.019-.002L17 5h1.176c.527 0 1.033.21 1.405.583l3.832 3.83c.375.377.586.885.586 1.415V17c0 1.104-.895 2-1.999 2h-.54zm-2.122.823c-.276 0-.5.225-.5.5 0 .276.224.5.5.5s.5-.223.5-.5c0-.276-.224-.5-.5-.5zm-13 0c-.275 0-.5.225-.5.5 0 .276.225.5.5.5.277 0 .5-.223.5-.5 0-.275-.224-.5-.5-.5zM17 16c0 .553.447 1 1 1h4v-6h-3c-.553 0-1-.447-1-1 0-.513.386-.936.883-.993L19 9h1.171l-2-2h-1.17zM14 5H3c-.553 0-1 .448-1 1v10c0 .553.447 1 1 1h11c.553 0 1-.447 1-1V6c0-.552-.447-1-1-1z"/>
</svg>
