<svg xmlns="http://www.w3.org/2000/svg" viewBox="0 0 32 32">
  <defs>
    <style>
      .cls-1 {
        fill: #15406d  ;
      }
    </style>
  </defs>
  <title>Asset 4</title>
  <g id="Layer_2" data-name="Layer 2">
    <g id="Layer_1-2" data-name="Layer 1">
      <path class="cls-1" d="M31.9,14.4a1.1,1.1,0,0,0-1-.9H29.2a1,1,0,0,1-1-.8,13.4,13.4,0,0,0-1.2-3,.9.9,0,0,1,.1-1.2l1.2-1.3a.9.9,0,0,0,.1-1.3L27.3,4.7,26.1,3.6a.9.9,0,0,0-1.3.1L23.5,4.9a.9.9,0,0,1-1.2.1,13.4,13.4,0,0,0-3-1.2,1,1,0,0,1-.8-1V1.1a1.1,1.1,0,0,0-.9-1H14.4a1.1,1.1,0,0,0-.9,1V2.8a1,1,0,0,1-.8,1A13.4,13.4,0,0,0,9.7,5a.9.9,0,0,1-1.2-.1L7.2,3.7a.9.9,0,0,0-1.3-.1L4.7,4.7,3.6,5.9a.9.9,0,0,0,.1,1.3L4.9,8.5A.9.9,0,0,1,5,9.7a13.4,13.4,0,0,0-1.2,3,1,1,0,0,1-1,.8H1.1a1.1,1.1,0,0,0-1,.9A8.6,8.6,0,0,0,0,16a8.6,8.6,0,0,0,.1,1.6,1.1,1.1,0,0,0,1,.9H2.8a1,1,0,0,1,1,.8,13.4,13.4,0,0,0,1.2,3,.9.9,0,0,1-.1,1.2L3.7,24.8a.9.9,0,0,0-.1,1.3l1.1,1.2,1.2,1.1a.9.9,0,0,0,1.3-.1l1.3-1.2A.9.9,0,0,1,9.7,27a13.4,13.4,0,0,0,3,1.2,1,1,0,0,1,.8,1v1.7a1.1,1.1,0,0,0,.9,1h3.2a1.1,1.1,0,0,0,.9-1V29.2a1,1,0,0,1,.8-1,13.4,13.4,0,0,0,3-1.2.9.9,0,0,1,1.2.1l1.3,1.2a.9.9,0,0,0,1.3.1l1.2-1.1,1.1-1.2a.9.9,0,0,0-.1-1.3l-1.2-1.3a.9.9,0,0,1-.1-1.2,13.4,13.4,0,0,0,1.2-3,1,1,0,0,1,1-.8h1.7a1.1,1.1,0,0,0,1-.9A8.6,8.6,0,0,0,32,16,8.6,8.6,0,0,0,31.9,14.4ZM16,20a4,4,0,1,1,4-4A4,4,0,0,1,16,20Z"/>
    </g>
  </g>
</svg>
