<?xml version="1.0" encoding="UTF-8"?>
<svg width="36px" height="24px" viewBox="0 0 36 24" version="1.1" xmlns="http://www.w3.org/2000/svg" xmlns:xlink="http://www.w3.org/1999/xlink">
    <!-- Generator: Sketch 57 (83077) - https://sketch.com -->
    <title>oui-Flag/Azerbaïdjan</title>
    <desc>Created with Sketch.</desc>
    <g id="oui-Flag/Azerbaïdjan" stroke="none" stroke-width="1" fill="none" fill-rule="evenodd">
        <g id="Azerbaïdjan" fill-rule="nonzero">
            <rect id="Rectangle-path" fill="#009DCA" x="0" y="0" width="36" height="7.97014925"></rect>
            <rect id="Rectangle-path" fill="#00AF75" x="0" y="16.0298507" width="36" height="7.97014925"></rect>
            <path d="M16.38,15.385076 C17.295086,15.3858892 18.1715793,15.0183015 18.81,14.3659701 C17.6247019,15.1316987 16.0536463,14.9118834 15.126539,13.8505963 C14.1994317,12.7893092 14.1994317,11.2106908 15.126539,10.1494037 C16.0536463,9.08811655 17.6247019,8.8683013 18.81,9.63402985 C17.7301466,8.53458939 16.0413237,8.29723579 14.6976833,9.05606919 C13.3540428,9.81490259 12.69301,11.3793589 13.0880556,12.8655509 C13.4831012,14.3517429 14.8350182,15.3864466 16.38,15.385076 L16.38,15.385076 Z" id="Shape" fill="#FFFFFF"></path>
            <path d="M0,7.97014925 L0,16.0298507 L36,16.0298507 L36,7.97014925 L0,7.97014925 Z M16.38,15.385076 C14.8350182,15.3864466 13.4831012,14.3517429 13.0880556,12.8655509 C12.69301,11.3793589 13.3540428,9.81490259 14.6976833,9.05606919 C16.0413237,8.29723579 17.7301466,8.53458939 18.81,9.63402985 C17.6247019,8.8683013 16.0536463,9.08811655 15.126539,10.1494037 C14.1994317,11.2106908 14.1994317,12.7893092 15.126539,13.8505963 C16.0536463,14.9118834 17.6247019,15.1316987 18.81,14.3659701 C18.1715793,15.0183015 17.295086,15.3858892 16.38,15.385076 Z M21.1104,13.2823881 L20.1798,12.8632836 L19.8198,13.8125373 L19.6884,13.4650746 L19.4598,12.8614925 L18.54,13.280597 L18.954,12.358209 L18,12 L18.9558,11.641791 L18.54,10.7176119 L19.4688,11.1367164 L19.6956,10.5367164 L19.8288,10.1874627 L20.1888,11.1385075 L21.1194,10.719403 L20.6892,11.641791 L21.645,12 L20.6892,12.358209 L21.1104,13.2823881 Z" id="Shape" fill="#FF2B48"></path>
            <polygon id="Shape" fill="#FFFFFF" points="19.4634 11.1367164 18.5346 10.7176119 18.9558 11.641791 18 11.998209 18.9558 12.3564179 18.5328 13.280597 19.4616 12.8614925 19.6902 13.4650746 19.8198 13.8125373 20.1798 12.8632836 21.1104 13.2823881 20.6892 12.358209 21.645 12.001791 20.6892 11.6435821 21.1122 10.719403 20.1816 11.1385075 19.8234 10.1874627 19.6902 10.5367164"></polygon>
        </g>
    </g>
</svg>