<?xml version="1.0" encoding="UTF-8"?>
<svg width="36px" height="24px" viewBox="0 0 36 24" version="1.1" xmlns="http://www.w3.org/2000/svg" xmlns:xlink="http://www.w3.org/1999/xlink">
    <!-- Generator: Sketch 57 (83077) - https://sketch.com -->
    <title>oui-Flag/Barbade</title>
    <desc>Created with Sketch.</desc>
    <g id="oui-Flag/Barbade" stroke="none" stroke-width="1" fill="none" fill-rule="evenodd">
        <g id="Barbade" fill-rule="nonzero">
            <rect id="Rectangle-path" fill="#16337B" x="0" y="0" width="11.9214" height="24"></rect>
            <rect id="Rectangle-path" fill="#16337B" x="24.0786" y="0" width="11.9214" height="24"></rect>
            <path d="M11.9214,0 L11.9214,24 L24.0786,24 L24.0786,0 L11.9214,0 Z M20.8296,14.9731343 C20.34,14.9731343 19.1232,14.6865672 18.6246,14.6865672 C18.6246,15.4531343 18.6246,17.0991045 18.6246,17.8674627 L17.3754,17.8674627 C17.3754,17.0991045 17.3754,15.4531343 17.3754,14.6865672 C16.8768,14.6865672 15.669,14.9785075 15.1704,14.9785075 C15.1704,12.2274627 14.1048,9.90985075 12.8304,7.94507463 C12.7548,7.84656716 12.8052,7.80358209 12.8898,7.82507463 C13.8921696,7.99141016 14.8169229,8.4662064 15.534,9.18268657 C15.6132,9.27940299 15.111,9.07522388 15.066,9.06985075 C14.6934,8.95880597 15.1776,9.59283582 15.2046,9.75940299 C15.5862,10.9755224 15.9246,12.1540299 16.0434,13.5528358 C16.0434,13.6513433 16.0596,13.721194 16.1046,13.7319403 L17.3826,13.5420896 L17.3826,9.02328358 C17.0317642,9.02749826 16.6832993,9.08116624 16.3476,9.18268657 C17.2098,8.32656716 17.6076,7.21253731 18.0072,6.13791045 C18.4032,7.21253731 18.8046,8.32656716 19.6668,9.18268657 C19.3311007,9.08116624 18.9826358,9.02749826 18.6318,9.02328358 L18.6318,13.5313433 L19.9098,13.721194 C19.9566,13.721194 19.971,13.6459701 19.971,13.5420896 C20.0934,12.1432836 20.4282,10.9647761 20.8098,9.74865672 C20.8368,9.58208955 21.321,8.9480597 20.9484,9.05910448 C20.9034,9.05910448 20.4084,9.26865672 20.4804,9.1719403 C21.1974771,8.45546013 22.1222304,7.9806639 23.1246,7.81432836 C23.2092,7.79283582 23.2596,7.8358209 23.184,7.93432836 C21.8952,9.90447761 20.8206,12.2220896 20.8296,14.9731343 Z" id="Shape" fill="#FFCB0E"></path>
            <path d="M23.1174,7.81970149 C22.1150304,7.98603703 21.1902771,8.46083327 20.4732,9.17731343 C20.394,9.27402985 20.8962,9.06985075 20.9412,9.06447761 C21.3138,8.95343284 20.8296,9.58746269 20.8026,9.75402985 C20.421,10.9701493 20.0826,12.1486567 19.9638,13.5474627 C19.9638,13.6459701 19.9494,13.7158209 19.9026,13.7265672 L18.6246,13.5367164 L18.6246,9.02328358 C18.9754358,9.02749826 19.3239007,9.08116624 19.6596,9.18268657 C18.7974,8.32656716 18.3996,7.21253731 18,6.13791045 C17.604,7.21253731 17.2026,8.32656716 16.3404,9.18268657 C16.6760993,9.08116624 17.0245642,9.02749826 17.3754,9.02328358 L17.3754,13.5313433 L16.0974,13.721194 C16.0524,13.721194 16.0362,13.6459701 16.0362,13.5420896 C15.9138,12.1432836 15.579,10.9647761 15.1974,9.74865672 C15.1704,9.58208955 14.6862,8.9480597 15.0588,9.05910448 C15.1038,9.05910448 15.5988,9.26865672 15.5268,9.1719403 C14.8097229,8.45546013 13.8849696,7.9806639 12.8826,7.81432836 C12.798,7.79283582 12.7476,7.8358209 12.8232,7.93432836 C14.1048,9.90447761 15.1794,12.2167164 15.1632,14.9677612 C15.6618,14.9677612 16.8696,14.6758209 17.3682,14.6758209 C17.3682,15.4423881 17.3682,17.0883582 17.3682,17.8567164 L18.6174,17.8567164 C18.6174,17.0883582 18.6174,15.4423881 18.6174,14.6758209 C19.116,14.6758209 20.3238,14.9677612 20.8224,14.9677612 C20.8224,12.2167164 21.888,9.89910448 23.1624,7.93432836 C23.2524,7.84119403 23.202,7.79820896 23.1174,7.81970149 Z" id="Shape" fill="#0A0A0A"></path>
        </g>
    </g>
</svg>