<?xml version="1.0" encoding="UTF-8"?>
<svg width="36px" height="24px" viewBox="0 0 36 24" version="1.1" xmlns="http://www.w3.org/2000/svg" xmlns:xlink="http://www.w3.org/1999/xlink">
    <!-- Generator: Sketch 57 (83077) - https://sketch.com -->
    <title>oui-Flag/Swiss</title>
    <desc>Created with Sketch.</desc>
    <g id="oui-Flag/Swiss" stroke="none" stroke-width="1" fill="none" fill-rule="evenodd">
        <g id="Swiss" fill-rule="nonzero">
            <path d="M36,0 L0,0 L0,24 L36,24 L36,0 Z M27,15.0591398 L21.0591398,15.0591398 L21.0591398,21 L15.95,21 L15.95,15.0591398 L10,15.0591398 L10,9.95 L15.95,9.95 L15.95,4 L21.0591398,4 L21.0591398,9.95 L27,9.95 L27,15.0591398 Z" id="Shape" fill="#F92728"></path>
            <polygon id="Shape" fill="#FFFFFF" points="21.05 4 15.95 4 15.95 9.95 10 9.95 10 15.05 15.95 15.05 15.95 21 21.05 21 21.05 15.05 27 15.05 27 9.95 21.05 9.95"></polygon>
        </g>
    </g>
</svg>