<?xml version="1.0" encoding="UTF-8"?>
<svg width="36px" height="24px" viewBox="0 0 36 24" version="1.1" xmlns="http://www.w3.org/2000/svg" xmlns:xlink="http://www.w3.org/1999/xlink">
    <!-- Generator: Sketch 57 (83077) - https://sketch.com -->
    <title>oui-Flag/China</title>
    <desc>Created with Sketch.</desc>
    <g id="oui-Flag/China" stroke="none" stroke-width="1" fill="none" fill-rule="evenodd">
        <g id="China" fill-rule="nonzero">
            <path d="M36,0 L0,0 L0,24 L36,24 L36,0 Z M8.0298,8.90149254 L5.8968,7.35761194 L3.762,8.90149254 L4.5774,6.40477612 L2.4426,4.86089552 L5.0814,4.86089552 L5.8968,2.36597015 L6.7122,4.86089552 L9.3492,4.86089552 L7.2144,6.40477612 L8.0298,8.90149254 Z M12.1932,11.9623881 L11.7414,11.2370149 L10.9368,11.4626866 L11.4768,10.801791 L10.98,10.0137313 L11.6352,10.280597 L11.7972,10.3414925 L12.3624,9.67164179 L12.3624,9.67164179 L12.3768,9.65373134 L12.3354,10.5492537 L13.113,10.8662687 L12.258,11.0883582 L12.1932,11.9623881 Z M12.2958,2.66686567 L12.2184,3.53910448 L11.7666,2.78865672 L10.9098,2.9838806 L11.4876,2.32835821 L11.034,1.57432836 L11.844,1.91641791 L12.42,1.25373134 L12.3426,2.1241791 L13.1508,2.4680597 L12.2958,2.66686567 Z M13.8366,3.69313433 L14.4486,4.32 L15.237,3.94029851 L14.8266,4.71402985 L15.4386,5.34268657 L14.58,5.19402985 L14.1678,5.96776119 L14.04,5.09373134 L13.1742,4.94328358 L13.9626,4.55820896 L13.8366,3.69313433 Z M15.12,9.33492537 L14.4,8.84597015 L13.707,9.38328358 L13.9482,8.54149254 L13.2282,8.05253731 L14.1066,8.02029851 L14.3478,7.18029851 L14.6502,8.00238806 L15.5286,7.97014925 L14.8356,8.50746269 L15.12,9.33492537 Z" id="Shape" fill="#FF3127"></path>
            <polygon id="Shape" fill="#FFDE00" points="6.7104 4.86089552 5.8968 2.36597015 5.0814 4.86089552 2.4426 4.86089552 4.5774 6.40477612 3.762 8.90149254 5.8968 7.35761194 8.0298 8.90149254 7.2144 6.40477612 9.3492 4.86089552"></polygon>
            <polygon id="Shape" fill="#FFDE00" points="12.4218 1.25731343 11.844 1.91641791 11.034 1.57432836 11.4876 2.32477612 10.9098 2.9838806 11.7666 2.78865672 12.2202 3.53910448 12.2958 2.66686567 13.1526 2.47164179 12.3444 2.12776119"></polygon>
            <polygon id="Shape" fill="#FFDE00" points="14.0364 5.09373134 14.1606 5.96059701 14.5728 5.18686567 15.4386 5.33731343 14.8266 4.70865672 15.237 3.93492537 14.4486 4.32 13.8348 3.69313433 13.9608 4.55820896 13.1706 4.94507463"></polygon>
            <polygon id="Shape" fill="#FFDE00" points="15.5052 7.97373134 14.6268 8.00597015 14.3244 7.1838806 14.0832 8.0238806 13.2048 8.0561194 13.9338 8.54507463 13.6926 9.38686567 14.3856 8.84597015 15.1146 9.33492537 14.814 8.51283582"></polygon>
            <polygon id="Shape" fill="#FFDE00" points="12.375 9.6680597 12.3606 9.68597015 12.3624 9.67701493 11.7972 10.3414925 11.6352 10.280597 10.98 10.0137313 11.4678 10.7964179 10.9368 11.4573134 11.7414 11.2370149 12.1932 11.9623881 12.258 11.0883582 13.1112 10.880597 12.3336 10.5635821"></polygon>
        </g>
    </g>
</svg>