<?xml version="1.0" encoding="UTF-8"?>
<svg width="36px" height="24px" viewBox="0 0 36 24" version="1.1" xmlns="http://www.w3.org/2000/svg" xmlns:xlink="http://www.w3.org/1999/xlink">
    <!-- Generator: Sketch 57 (83077) - https://sketch.com -->
    <title>oui-Flag/Cuba</title>
    <desc>Created with Sketch.</desc>
    <g id="oui-Flag/Cuba" stroke="none" stroke-width="1" fill="none" fill-rule="evenodd">
        <g id="Cuba" fill-rule="nonzero">
            <polygon id="Shape" fill="#F12533" points="20.8422 12 0 0 0 24"></polygon>
            <polygon id="Shape" fill="#153688" points="0 24 36 24 36 19.4883582 7.8066 19.4883582"></polygon>
            <polygon id="Shape" fill="#153688" points="0 0 7.4124 4.2841791 36 4.2841791 36 0"></polygon>
            <polygon id="Shape" fill="#153688" points="20.8422 12 16.209 14.6614925 36 14.6614925 36 9.11104478 15.8148 9.11104478"></polygon>
            <polygon id="Shape" fill="#FFFFFF" points="15.8148 9.11104478 36 9.11104478 36 4.2841791 7.4124 4.2841791"></polygon>
            <polygon id="Shape" fill="#FFFFFF" points="7.8066 19.4883582 36 19.4883582 36 14.6614925 16.209 14.6614925"></polygon>
            <polygon id="Shape" fill="#FFFFFF" points="10.3068 10.8823881 7.6644 10.8823881 6.849 8.38208955 6.0318 10.8823881 3.3894 10.8823881 4.4982 11.6829851 5.526 12.4262687 4.7106 14.9265672 6.849 13.3826866 8.9856 14.9265672 8.1684 12.4262687 9.0738 11.7725373"></polygon>
        </g>
    </g>
</svg>