<?xml version="1.0" encoding="UTF-8"?>
<svg width="36px" height="24px" viewBox="0 0 36 24" version="1.1" xmlns="http://www.w3.org/2000/svg" xmlns:xlink="http://www.w3.org/1999/xlink">
    <!-- Generator: Sketch 57 (83077) - https://sketch.com -->
    <title>oui-Flag/GreatBritain</title>
    <desc>Created with Sketch.</desc>
    <g id="oui-Flag/GreatBritain" stroke="none" stroke-width="1" fill="none" fill-rule="evenodd">
        <g id="GreatBritain" fill-rule="nonzero">
            <polygon id="Shape" fill="#1A3179" points="20.9068657 24 31.4077612 24 20.9068657 16.7910448"></polygon>
            <polygon id="Shape" fill="#1A3179" points="0 15.9402985 0 21.5498507 8.07761194 16.0692537"></polygon>
            <path d="M0,2.43940299 C0,2.67223881 0,7.81253731 0,7.81253731 L8.01313433,7.94328358 L0,2.43940299 Z" id="Shape" fill="#1A3179"></path>
            <polygon id="Shape" fill="#1A3179" points="35.8244776 7.81253731 35.8244776 2.44119403 27.8113433 7.94328358"></polygon>
            <path d="M35.7707463,21.5140299 C35.8047886,21.3297239 35.8215777,21.1426461 35.8209155,20.9552239 L35.8209155,15.9402985 L27.7468657,16.0710448 L35.7707463,21.5140299 Z" id="Shape" fill="#1A3179"></path>
            <polygon id="Shape" fill="#1A3179" points="14.921194 0 4.07641791 0 14.921194 7.36119403"></polygon>
            <polygon id="Shape" fill="#1A3179" points="4.42029851 24 14.921194 24 14.921194 16.7910448"></polygon>
            <polygon id="Shape" fill="#FFFFFF" points="14.921194 7.36119403 4.07641791 0 0.39761194 0 11.9283582 8.05970149 9.25253731 8.05970149 0 1.53313433 0 2.43940299 8.01671642 7.94328358 0 7.81253731 0 9.43701493 10.4185075 9.59462687 16.119403 9.68059701 16.119403 0 14.921194 0"></polygon>
            <polygon id="Shape" fill="#FFFFFF" points="19.7104478 14.5558209 19.7104478 15.9707463 19.7104478 24 20.9068657 24 20.9068657 16.7910448 31.4077612 24 35.8244776 24 23.8997015 16.1820896 26.5773134 16.1820896 35.8262687 22.2143284 35.8334328 21.5498507 27.7504478 16.0692537 35.8244776 15.9385075 35.8244776 14.3140299 25.3934328 14.4698507"></polygon>
            <polygon id="Shape" fill="#FFFFFF" points="0.00358208955 14.3140299 0.00358208955 15.9385075 8.07761194 16.0692537 0.00358208955 21.5480597 0.00358208955 24 0.0429850746 24 11.9283582 16.1820896 14.6059701 16.1820896 3.08776119 24 4.42029851 24 14.921194 16.7910448 14.921194 24 16.119403 24 16.119403 15.9707463 16.119403 14.5558209 10.4346269 14.4698507"></polygon>
            <polygon id="Shape" fill="#FFFFFF" points="27.8113433 7.94328358 35.8244776 2.44119403 35.8244776 0 35.4322388 0 23.8997015 8.0561194 21.2220896 8.0561194 32.7438806 0 31.7516418 0 20.9068657 7.36119403 20.9068657 0 19.7104478 0 19.7104478 8.17432836 19.7104478 9.68059701 25.4059701 9.59462687 35.8244776 9.43701493 35.8244776 7.81253731"></polygon>
            <polygon id="Shape" fill="#FF2B2D" points="25.4059701 9.59462687 19.7104478 9.68059701 19.7104478 8.17432836 19.7104478 0 16.119403 0 16.119403 8.17432836 16.119403 9.68059701 10.4220896 9.59462687 0.00358208955 9.43701493 0.00358208955 14.3140299 10.4346269 14.4698507 16.119403 14.5558209 16.119403 15.9707463 16.119403 24 19.7104478 24 19.7104478 15.9707463 19.7104478 14.5558209 25.3934328 14.4698507 35.8244776 14.3140299 35.8244776 9.43701493"></polygon>
            <polygon id="Shape" fill="#FF2B2D" points="9.25253731 8.0561194 11.9283582 8.0561194 0.39761194 0 0.00358208955 0 0.00358208955 1.53313433"></polygon>
            <polygon id="Shape" fill="#FF2B2D" points="21.2220896 8.0561194 23.8997015 8.0561194 35.4322388 0 32.7438806 0"></polygon>
            <polygon id="Shape" fill="#FF2B2D" points="23.8997015 16.1820896 35.8191045 23.9892537 35.8262687 22.2143284 26.5773134 16.1820896"></polygon>
            <polygon id="Shape" fill="#FF2B2D" points="11.9283582 16.1820896 0.0429850746 24 3.08776119 24 14.6059701 16.1820896"></polygon>
            <polygon id="Shape" fill="#1A3179" points="31.7516418 0 20.9068657 0 20.9068657 7.36119403"></polygon>
        </g>
    </g>
</svg>