<?xml version="1.0" encoding="UTF-8"?>
<svg width="36px" height="24px" viewBox="0 0 36 24" version="1.1" xmlns="http://www.w3.org/2000/svg" xmlns:xlink="http://www.w3.org/1999/xlink">
    <!-- Generator: Sketch 57 (83077) - https://sketch.com -->
    <title>oui-Flag/Guinee-Bissau</title>
    <desc>Created with Sketch.</desc>
    <g id="oui-Flag/Guinee-Bissau" stroke="none" stroke-width="1" fill="none" fill-rule="evenodd">
        <g id="Guinee-Bissau" fill-rule="nonzero">
            <path d="M16.0038,0 L0,0 L0,24 L16.0038,24 L16.0038,0 Z M10.2906,15.2579104 L7.92,13.5385075 L5.5404,15.2579104 L6.4494,12.4746269 L4.0716,10.7552239 L7.0038,10.7552239 L7.92,7.97373134 L8.82,10.7552239 L11.7612,10.7552239 L9.3816,12.4746269 L10.2906,15.2579104 Z" id="Shape" fill="#EF242E"></path>
            <rect id="Rectangle-path" fill="#FFD600" x="16.0038" y="0" width="19.9962" height="12"></rect>
            <rect id="Rectangle-path" fill="#009E50" x="16.0038" y="12" width="19.9962" height="12"></rect>
            <polygon id="Shape" fill="#0A0A0A" points="11.7612 10.7552239 8.82 10.7552239 7.9128 7.97373134 7.0038 10.7552239 4.0644 10.7552239 6.4422 12.4746269 5.5332 15.2579104 7.9128 13.5385075 10.2906 15.2579104 9.3816 12.4746269"></polygon>
        </g>
    </g>
</svg>