<?xml version="1.0" encoding="UTF-8"?>
<svg width="36px" height="24px" viewBox="0 0 36 24" version="1.1" xmlns="http://www.w3.org/2000/svg" xmlns:xlink="http://www.w3.org/1999/xlink">
    <!-- Generator: Sketch 57 (83077) - https://sketch.com -->
    <title>oui-Flag/Niger</title>
    <desc>Created with Sketch.</desc>
    <g id="oui-Flag/Niger" stroke="none" stroke-width="1" fill="none" fill-rule="evenodd">
        <g id="Niger" fill-rule="nonzero">
            <path d="M0,16 L36,16 L36,8 L0,8 L0,16 Z M18.5,9 C20.4329966,9 22,10.5670034 22,12.5 C22,14.4329966 20.4329966,16 18.5,16 C16.5670034,16 15,14.4329966 15,12.5 C15,10.5670034 16.5670034,9 18.5,9 Z" id="Shape" fill="#F9F9F9"></path>
            <rect id="Rectangle-path" fill="#FF5A25" x="0" y="0" width="36" height="8"></rect>
            <rect id="Rectangle-path" fill="#00B24C" x="0" y="16" width="36" height="8"></rect>
            <path d="M18.5,16 C20.4329966,16 22,14.4329966 22,12.5 C22,10.5670034 20.4329966,9 18.5,9 C16.5670034,9 15,10.5670034 15,12.5 C15,14.4329966 16.5670034,16 18.5,16 Z" id="Shape" fill="#FF5A25"></path>
        </g>
    </g>
</svg>