<?xml version="1.0" encoding="UTF-8"?>
<svg width="36px" height="24px" viewBox="0 0 36 24" version="1.1" xmlns="http://www.w3.org/2000/svg" xmlns:xlink="http://www.w3.org/1999/xlink">
    <!-- Generator: Sketch 57 (83077) - https://sketch.com -->
    <title>oui-Flag/Turkie</title>
    <desc>Created with Sketch.</desc>
    <g id="oui-Flag/Turkie" stroke="none" stroke-width="1" fill="none" fill-rule="evenodd">
        <g id="Turkie" fill-rule="nonzero">
            <path d="M13.4546202,16.8065725 C11.265573,16.8046357 9.35869211,15.3040944 8.82939467,13.1669422 C8.30009723,11.0297899 9.2842017,8.80442283 11.2163844,7.76921406 C13.1485671,6.73400529 15.5330273,7.15459084 17,8.78936324 C15.5800538,6.53414064 12.8498579,5.49425731 10.3015578,6.23804512 C7.75325775,6.98183293 6,9.33032909 6,12 C6,14.6696709 7.75325775,17.0181671 10.3015578,17.7619549 C12.8498579,18.5057427 15.5800538,17.4658594 17,15.2106368 C16.0978698,16.2261322 14.8083213,16.8066163 13.4546202,16.8065725 L13.4546202,16.8065725 Z" id="Shape" fill="#FFFFFF"></path>
            <path d="M36,0 L0,0 L0,24 L36,24 L36,0 Z M11.9651075,18 C9.10216121,18.0003839 6.64288882,15.9540259 6.10627759,13.1248739 C5.56966635,10.2957218 7.1071417,7.48212934 9.76907092,6.4219321 C12.4310001,5.36173487 15.4662179,6.35410816 17,8.78610547 C15.6788516,7.30881307 13.5893344,6.80348618 11.7451052,7.51526665 C9.9008761,8.22704712 8.68347042,10.0086813 8.68347042,11.9958711 C8.68347042,13.9830609 9.9008761,15.7646951 11.7451052,16.4764756 C13.5893344,17.1882561 15.6788516,16.6829292 17,15.2056368 C15.9093158,16.9443338 14.0087695,17.9991362 11.9651075,18 Z M22,13.850625 L20.0895916,13.14375 L18.9087615,15 L18.9087615,12.706875 L18.1166008,12.414375 L17,12 L18.1166008,11.5875 L18.9087615,11.293125 L18.9087615,9 L20.0895916,10.84875 L22,10.141875 L20.8208169,12 L22,13.850625 Z" id="Shape" fill="#FF2931"></path>
            <polygon id="Shape" fill="#FFFFFF" points="22 10.1458986 20.0895916 10.8541014 18.9087615 9 18.9087615 11.2917971 18.1166008 11.5867251 17 12 18.1166008 12.4132749 18.9087615 12.7082029 18.9087615 15 20.0895916 13.1458986 22 13.8541014 20.8208169 12"></polygon>
        </g>
    </g>
</svg>