<?xml version="1.0" encoding="UTF-8"?>
<svg width="36px" height="24px" viewBox="0 0 36 24" version="1.1" xmlns="http://www.w3.org/2000/svg" xmlns:xlink="http://www.w3.org/1999/xlink">
    <!-- Generator: Sketch 57 (83077) - https://sketch.com -->
    <title>oui-Flag/UnitedStates</title>
    <desc>Created with Sketch.</desc>
    <g id="oui-Flag/UnitedStates" stroke="none" stroke-width="1" fill="none" fill-rule="evenodd">
        <g id="UnitedStates" fill-rule="nonzero">
            <rect id="Rectangle-path" fill="#FFFFFF" x="0" y="20" width="36" height="2"></rect>
            <polygon id="Shape" fill="#FFFFFF" points="0 13 0 15 36 15 36 13 18.171 13"></polygon>
            <rect id="Rectangle-path" fill="#FFFFFF" x="18" y="9" width="18" height="2"></rect>
            <rect id="Rectangle-path" fill="#FFFFFF" x="0" y="17" width="36" height="2"></rect>
            <rect id="Rectangle-path" fill="#FFFFFF" x="18" y="5" width="18" height="2"></rect>
            <rect id="Rectangle-path" fill="#FFFFFF" x="18" y="2" width="18" height="2"></rect>
            <rect id="Rectangle-path" fill="#DE1A30" x="18" y="4" width="18" height="2"></rect>
            <rect id="Rectangle-path" fill="#DE1A30" x="18" y="7" width="18" height="2"></rect>
            <rect id="Rectangle-path" fill="#DE1A30" x="18" y="11" width="18" height="2"></rect>
            <rect id="Rectangle-path" fill="#DE1A30" x="0" y="15" width="36" height="2"></rect>
            <rect id="Rectangle-path" fill="#DE1A30" x="0" y="18" width="36" height="2"></rect>
            <rect id="Rectangle-path" fill="#DE1A30" x="0" y="22" width="36" height="2"></rect>
            <rect id="Rectangle-path" fill="#DE1A30" x="18" y="0" width="18" height="2"></rect>
            <path d="M3.66237624,0 L0,0 L0,13 L18,13 L18,0 L3.66237624,0 Z M2.80254777,6 L2.49426752,5.76737968 L2.1910828,6 L2.30955414,5.61764706 L2,5.38235294 L2.38216561,5.38235294 L2.50063694,5 L2.61783439,5.38235294 L3,5.38235294 L2.69171975,5.61764706 L2.80254777,6 Z M1.8089172,7 L1.49936306,6.76101469 L1.1910828,7 L1.30828025,6.61949266 L1,6.38050734 L1.38216561,6.38050734 L1.50063694,6 L1.61783439,6.38050734 L2,6.38050734 L1.69171975,6.61682243 L1.8089172,7 Z M1.38167939,3.17793594 L1.42366412,3 L1.57633588,3 L1.61832061,3.17793594 L2,3.17793594 L1.69083969,3.4911032 L1.80916031,4 L1.5,3.68505338 L1.19083969,4 L1.30916031,3.4911032 L1,3.17793594 L1.38167939,3.17793594 Z M1.38167939,8.37931034 L1.5,8 L1.61832061,8.37931034 L2,8.37931034 L1.69083969,8.61803714 L1.80916031,9 L1.5,8.76259947 L1.19083969,9 L1.30916031,8.62068966 L1,8.38461538 L1.38167939,8.37931034 Z M1.80916031,12 L1.5,11.7643909 L1.19211196,12 L1.30916031,11.6184739 L1,11.3815261 L1.38167939,11.3815261 L1.5,11 L1.61832061,11.3815261 L2,11.3815261 L1.69083969,11.6184739 L1.80916031,12 Z M2.38216561,7.38082557 L2.50063694,7 L2.61783439,7.38082557 L3,7.38082557 L2.69044586,7.61517976 L2.80764331,7.99600533 L2.50063694,7.76431425 L2.1910828,8 L2.30955414,7.61917443 L2,7.38482024 L2.38216561,7.38082557 Z M2.8089172,11 L2.50063694,10.7580214 L2.1910828,11 L2.30828025,10.6243316 L2,10.3823529 L2.38216561,10.3823529 L2.49936306,10 L2.61783439,10.3823529 L3,10.3823529 L2.69171975,10.6243316 L2.8089172,11 Z M16.811465,7 L16.5019108,6.7643909 L16.1910828,7 L16.3095541,6.6184739 L16,6.3815261 L16.3821656,6.3815261 L16.5006369,6 L16.6178344,6.3815261 L17,6.3815261 L16.6904459,6.6184739 L16.811465,7 Z M16.3816794,1.37986577 L16.5,1 L16.6183206,1.38389262 L17,1.38389262 L16.6908397,1.61610738 L16.8091603,2 L16.5,1.76241611 L16.1908397,2 L16.3091603,1.61610738 L16,1.37986577 L16.3816794,1.37986577 Z M14.8066158,5.99600533 L14.5,5.76431425 L14.1908397,6 L14.3091603,5.61917443 L14,5.38482024 L14.3816794,5.38482024 L14.5,5 L14.6183206,5.38082557 L15,5.38082557 L14.692112,5.61517976 L14.8066158,5.99600533 Z M13.8142494,7 L13.5050891,6.76502003 L13.192112,7 L13.3053435,6.61682243 L13,6.38050734 L13.3816794,6.38050734 L13.5,6 L13.6183206,6.38050734 L14,6.38050734 L13.6870229,6.61682243 L13.8142494,7 Z M13.3816794,1.37986577 L13.5,1 L13.6183206,1.38389262 L14,1.38389262 L13.6908397,1.61610738 L13.8091603,2 L13.5,1.76241611 L13.1908397,2 L13.3091603,1.61610738 L13,1.37986577 L13.3816794,1.37986577 Z M11.8101911,5.9959893 L11.5006369,5.76336898 L11.1910828,6 L11.3095541,5.61764706 L11,5.38235294 L11.3821656,5.38235294 L11.4993631,5 L11.6178344,5.37834225 L12,5.37834225 L11.6904459,5.61363636 L11.8101911,5.9959893 Z M10.8091603,7 L10.5,6.76502003 L10.1908397,7 L10.3091603,6.61815754 L10,6.38050734 L10.3816794,6.38050734 L10.5,6 L10.6183206,6.38050734 L11,6.38050734 L10.6908397,6.61682243 L10.8091603,7 Z M10.3821656,1.37986577 L10.5006369,1 L10.6178344,1.38389262 L11,1.38389262 L10.6917197,1.61610738 L10.8101911,2 L10.5006369,1.76241611 L10.1910828,2 L10.3095541,1.61610738 L10,1.37986577 L10.3821656,1.37986577 Z M8.80916031,5.9959893 L8.5,5.76336898 L8.19083969,6 L8.30916031,5.61764706 L8,5.38235294 L8.38167939,5.38235294 L8.5,5 L8.61832061,5.38235294 L9,5.38235294 L8.69083969,5.61764706 L8.80916031,5.9959893 Z M7.80916031,7 L7.5,6.76502003 L7.19083969,7 L7.30916031,6.61949266 L7,6.38050734 L7.38167939,6.38050734 L7.5,6 L7.61832061,6.38050734 L8,6.38050734 L7.69083969,6.61682243 L7.80916031,7 Z M7.38216561,1.37986577 L7.50063694,1 L7.61783439,1.38389262 L8,1.38389262 L7.68789809,1.61610738 L7.81528662,2 L7.50063694,1.76241611 L7.1910828,2 L7.30573248,1.61610738 L7,1.37986577 L7.38216561,1.37986577 Z M5.80916031,5.9959893 L5.5,5.76336898 L5.19083969,6 L5.30916031,5.61764706 L5,5.38235294 L5.38167939,5.38235294 L5.5,5 L5.61832061,5.38235294 L6,5.38235294 L5.69083969,5.61764706 L5.80916031,5.9959893 Z M4.80916031,7 L4.5,6.76502003 L4.19083969,7 L4.30788804,6.61815754 L4,6.38050734 L4.38167939,6.38050734 L4.5,6 L4.61832061,6.38050734 L5,6.38050734 L4.69083969,6.61682243 L4.80916031,7 Z M4.38216561,1.37986577 L4.49936306,1 L4.61783439,1.38389262 L5,1.38389262 L4.69044586,1.61610738 L4.8089172,2 L4.49936306,1.76241611 L4.18980892,2 L4.30828025,1.61610738 L4,1.37986577 L4.38216561,1.37986577 Z M4.38216561,3.38235294 L4.49936306,3 L4.61783439,3.38235294 L5,3.38235294 L4.69044586,3.61764706 L4.8089172,4 L4.49936306,3.76336898 L4.18980892,4 L4.30828025,3.61764706 L4,3.38235294 L4.38216561,3.38235294 Z M4.38167939,8.37931034 L4.5,8 L4.61832061,8.37931034 L5,8.37931034 L4.69083969,8.6127321 L4.80916031,9 L4.5,8.76525199 L4.19083969,9 L4.30916031,8.62068966 L4,8.3872679 L4.38167939,8.37931034 Z M4.8089172,12 L4.49936306,11.7643909 L4.1910828,12 L4.30828025,11.6184739 L4,11.3815261 L4.38216561,11.3815261 L4.49936306,11 L4.61783439,11.3815261 L5,11.3815261 L4.69044586,11.6184739 L4.8089172,12 Z M5.38295165,2.38050734 L5.5,2 L5.61832061,2.38317757 L6,2.38317757 L5.69083969,2.61949266 L5.80916031,3 L5.5,2.76368491 L5.19211196,3 L5.30916031,2.61949266 L5,2.38317757 L5.38295165,2.38050734 Z M5.38167939,7.37981408 L5.5,7 L5.61832061,7.37981408 L6,7.37981408 L5.69083969,7.61354582 L5.80916031,7.99335989 L5.5,7.76494024 L5.19083969,8 L5.30916031,7.62018592 L5,7.38645418 L5.38167939,7.37981408 Z M5.81424936,11 L5.5,10.7580214 L5.19083969,11 L5.30534351,10.6243316 L5,10.3823529 L5.38167939,10.3823529 L5.5,10 L5.61832061,10.3823529 L6,10.3823529 L5.6870229,10.6243316 L5.81424936,11 Z M7.38216561,3.38235294 L7.50063694,3 L7.61783439,3.38235294 L8,3.38235294 L7.68789809,3.61764706 L7.81528662,4 L7.50573248,3.76336898 L7.1910828,4 L7.30573248,3.61764706 L7,3.38235294 L7.38216561,3.38235294 Z M7.38167939,8.37931034 L7.5,8 L7.61832061,8.37931034 L8,8.37931034 L7.69083969,8.6127321 L7.80916031,9 L7.5,8.76525199 L7.19083969,9 L7.30916031,8.62068966 L7,8.3872679 L7.38167939,8.37931034 Z M7.80764331,11.9946452 L7.50063694,11.7643909 L7.1910828,12 L7.30955414,11.6184739 L7,11.3815261 L7.38216561,11.3815261 L7.50063694,11 L7.61783439,11.3815261 L8,11.3815261 L7.68917197,11.6184739 L7.80764331,11.9946452 Z M8.37961783,2.37349398 L8.50063694,2 L8.61783439,2.3815261 L9,2.3815261 L8.69044586,2.61713521 L8.8089172,3 L8.50063694,2.76305221 L8.1910828,3 L8.30955414,2.6184739 L8,2.3815261 L8.37961783,2.37349398 Z M8.38265306,7.37780713 L8.50127551,7 L8.61734694,7.38573316 L9,7.38573316 L8.69005102,7.61822985 L8.80867347,7.99603699 L8.50127551,7.7661823 L8.19132653,8 L8.30994898,7.62219287 L8,7.38969617 L8.38265306,7.37780713 Z M8.80916031,10.9919786 L8.5,10.7580214 L8.19083969,11 L8.30916031,10.6243316 L8,10.3823529 L8.38167939,10.3823529 L8.5,10 L8.61832061,10.3823529 L9,10.3823529 L8.69083969,10.6243316 L8.80916031,10.9919786 Z M10.3821656,3.38235294 L10.5006369,3 L10.6178344,3.38235294 L11,3.38235294 L10.6904459,3.61764706 L10.8089172,4 L10.4993631,3.76336898 L10.1910828,4 L10.3095541,3.61764706 L10,3.38235294 L10.3821656,3.38235294 Z M10.3848101,8.37931034 L10.5025316,8 L10.6202532,8.37931034 L11,8.37931034 L10.6873418,8.61803714 L10.8139241,9 L10.5063291,8.76525199 L10.1949367,9 L10.3075949,8.61803714 L10,8.38461538 L10.3848101,8.37931034 Z M10.802799,12 L10.4936387,11.7631225 L10.1844784,12 L10.302799,11.6164199 L10,11.3835801 L10.3816794,11.3835801 L10.5,11 L10.6183206,11.3835801 L11,11.3835801 L10.6844784,11.6218035 L10.802799,12 Z M11.3782051,2.3815261 L11.4974359,2 L11.6153846,2.3815261 L12,2.3815261 L11.6884615,2.6184739 L11.8076923,3 L11.4961538,2.7643909 L11.1846154,3 L11.3038462,2.6184739 L11,2.38955823 L11.3782051,2.3815261 Z M11.3813776,7.37283622 L11.5,7 L11.6173469,7.38082557 L12,7.38082557 L11.6913265,7.61517976 L11.8086735,7.99600533 L11.5,7.76431425 L11.1913265,8 L11.3086735,7.61917443 L11,7.38482024 L11.3813776,7.37283622 Z M11.8091603,10.9919786 L11.5,10.7580214 L11.1908397,11 L11.3091603,10.6243316 L11,10.3823529 L11.3816794,10.3823529 L11.5,10 L11.6183206,10.3823529 L12,10.3823529 L11.6908397,10.6243316 L11.8091603,10.9919786 Z M13.3816794,3.38235294 L13.5,3 L13.6183206,3.38235294 L14,3.38235294 L13.6908397,3.61764706 L13.8091603,4 L13.5,3.76336898 L13.1908397,4 L13.3091603,3.61764706 L13,3.38235294 L13.3816794,3.38235294 Z M13.3782051,8.37931034 L13.4974359,8 L13.6153846,8.37931034 L14,8.37931034 L13.6961538,8.61803714 L13.8076923,9 L13.4974359,8.76525199 L13.1833333,9 L13.3115385,8.61803714 L13,8.38461538 L13.3782051,8.37931034 Z M13.8091603,12 L13.5,11.7643909 L13.1908397,12 L13.3091603,11.6184739 L13,11.3815261 L13.3816794,11.3815261 L13.5,11 L13.6183206,11.3815261 L14,11.3815261 L13.6908397,11.6238286 L13.8091603,12 Z M14.3816794,2.3815261 L14.5,2 L14.6183206,2.3815261 L15,2.3815261 L14.6908397,2.61713521 L14.8091603,3 L14.5,2.76305221 L14.1908397,3 L14.3091603,2.6184739 L14,2.3815261 L14.3816794,2.3815261 Z M14.3821656,7.38082557 L14.5006369,7 L14.6178344,7.38082557 L15,7.38082557 L14.6878981,7.61517976 L14.8063694,7.99600533 L14.4968153,7.76431425 L14.1872611,8 L14.3044586,7.61917443 L14,7.38082557 L14.3821656,7.38082557 Z M14.8129771,11 L14.5,10.7580214 L14.1908397,11 L14.3091603,10.6243316 L14,10.3823529 L14.3816794,10.3823529 L14.5,10 L14.6183206,10.3823529 L15,10.3823529 L14.6908397,10.6243316 L14.8129771,11 Z M16.3816794,3.38235294 L16.5,3 L16.6183206,3.38235294 L17,3.38235294 L16.6908397,3.61764706 L16.8091603,4 L16.5,3.76336898 L16.1908397,4 L16.3091603,3.61764706 L16,3.38235294 L16.3816794,3.38235294 Z M16.3816794,8.37931034 L16.5,8 L16.6183206,8.37931034 L17,8.37931034 L16.6908397,8.6127321 L16.8091603,9 L16.5,8.76525199 L16.1908397,9 L16.3091603,8.62068966 L16,8.3872679 L16.3816794,8.37931034 Z M16.8101911,12 L16.5006369,11.7643909 L16.1923567,12 L16.3095541,11.6184739 L16,11.3815261 L16.3821656,11.3815261 L16.4993631,11 L16.6178344,11.3815261 L17,11.3815261 L16.6917197,11.6238286 L16.8101911,12 Z" id="Shape" fill="#112C67"></path>
            <polygon id="Shape" fill="#FFFFFF" points="1.16205534 2 1.48221344 1.76241611 1.80237154 2 1.6798419 1.61610738 2 1.37986577 1.60474308 1.37986577 1.48221344 1 1.35968379 1.37986577 1.02371542 1.37986577 1 1.40268456 1.28458498 1.61610738"></polygon>
            <polygon id="Shape" fill="#FFFFFF" points="4.18980892 2 4.49936306 1.76336898 4.8089172 2 4.69044586 1.61764706 5 1.38235294 4.61783439 1.38235294 4.49936306 1 4.38216561 1.38235294 4 1.38235294 4.30828025 1.61764706"></polygon>
            <polygon id="Shape" fill="#FFFFFF" points="7.19083969 2 7.49872774 1.76336898 7.80788804 2 7.69083969 1.61764706 8 1.38235294 7.61704835 1.38235294 7.49872774 1 7.38167939 1.38235294 7 1.38235294 7.30788804 1.61764706"></polygon>
            <polygon id="Shape" fill="#FFFFFF" points="10.1908397 2 10.5 1.76336898 10.8091603 2 10.6908397 1.61764706 11 1.38235294 10.6170483 1.38235294 10.5 1 10.3816794 1.38235294 10 1.38235294 10.3091603 1.61764706"></polygon>
            <polygon id="Shape" fill="#FFFFFF" points="13.1908397 2 13.5 1.76336898 13.8091603 2 13.6908397 1.61764706 14 1.38235294 13.6183206 1.38235294 13.5 1 13.3816794 1.38235294 13 1.38235294 13.3091603 1.61764706"></polygon>
            <polygon id="Shape" fill="#FFFFFF" points="16.1910828 2 16.4993631 1.76336898 16.8089172 2 16.6904459 1.61764706 17 1.38235294 16.6178344 1.38235294 16.4993631 1 16.3808917 1.38235294 16 1.38235294 16.3082803 1.61764706"></polygon>
            <polygon id="Shape" fill="#FFFFFF" points="2.19083969 3 2.5 2.7643909 2.80916031 3 2.69083969 2.6184739 3 2.3815261 2.61832061 2.3815261 2.5 2 2.38167939 2.3815261 2 2.3815261 2.30916031 2.6184739"></polygon>
            <polygon id="Shape" fill="#FFFFFF" points="5.19211196 3 5.5 2.76305221 5.80916031 3 5.69083969 2.6184739 6 2.3815261 5.61832061 2.3815261 5.5 2 5.38295165 2.3815261 5 2.3815261 5.30916031 2.6184739"></polygon>
            <polygon id="Shape" fill="#FFFFFF" points="8.19083969 3 8.5 2.7643909 8.80916031 3 8.69083969 2.61713521 9 2.3815261 8.61704835 2.3815261 8.5 2 8.38167939 2.3815261 8 2.3815261 8.30916031 2.6184739"></polygon>
            <polygon id="Shape" fill="#FFFFFF" points="11.1908397 3 11.5 2.7643909 11.8091603 3 11.6908397 2.6184739 12 2.3815261 11.6183206 2.3815261 11.5 2 11.3816794 2.3815261 11 2.3815261 11.3091603 2.6184739"></polygon>
            <polygon id="Shape" fill="#FFFFFF" points="14.1908397 3 14.5 2.7643909 14.8091603 3 14.6908397 2.61713521 15 2.3815261 14.6183206 2.3815261 14.5 2 14.3816794 2.3815261 14 2.3815261 14.3091603 2.6184739"></polygon>
            <polygon id="Shape" fill="#FFFFFF" points="1.19083969 4 1.5 3.76336898 1.80916031 4 1.69083969 3.61764706 2 3.38235294 1.61832061 3.38235294 1.5 3 1.38167939 3.38235294 1 3.38235294 1.30916031 3.61764706"></polygon>
            <polygon id="Shape" fill="#FFFFFF" points="4.18980892 4 4.49936306 3.76336898 4.8089172 4 4.69044586 3.61764706 5 3.38235294 4.61783439 3.38235294 4.49936306 3 4.38216561 3.38235294 4 3.38235294 4.30828025 3.61764706"></polygon>
            <polygon id="Shape" fill="#FFFFFF" points="7.19083969 4 7.49872774 3.76336898 7.80788804 4 7.69083969 3.61764706 8 3.38235294 7.61704835 3.38235294 7.49872774 3 7.38167939 3.38235294 7 3.38235294 7.30788804 3.61764706"></polygon>
            <polygon id="Shape" fill="#FFFFFF" points="10.1908397 4 10.5 3.76336898 10.8091603 4 10.6908397 3.61764706 11 3.38235294 10.6170483 3.38235294 10.5 3 10.3816794 3.38235294 10 3.38235294 10.3091603 3.61764706"></polygon>
            <polygon id="Shape" fill="#FFFFFF" points="13.1908397 4 13.5 3.76336898 13.8091603 4 13.6908397 3.61764706 14 3.38235294 13.6183206 3.38235294 13.5 3 13.3816794 3.38235294 13 3.38235294 13.3091603 3.61764706"></polygon>
            <polygon id="Shape" fill="#FFFFFF" points="16.1910828 4 16.4993631 3.76336898 16.8089172 4 16.6904459 3.61764706 17 3.38235294 16.6178344 3.38235294 16.4993631 3 16.3808917 3.38235294 16 3.38235294 16.3082803 3.61764706"></polygon>
            <polygon id="Shape" fill="#FFFFFF" points="2.61783439 4.38286479 2.50063694 4 2.38216561 4.38286479 2 4.38286479 2.30955414 4.6184739 2.1910828 5 2.50063694 4.7643909 2.8089172 5 2.69171975 4.6184739 3 4.38286479"></polygon>
            <polygon id="Shape" fill="#FFFFFF" points="5.61704835 4.38286479 5.5 4 5.38167939 4.38286479 5 4.38286479 5.30916031 4.6184739 5.19083969 5 5.5 4.7643909 5.80916031 5 5.69083969 4.6184739 6 4.38286479"></polygon>
            <polygon id="Shape" fill="#FFFFFF" points="8.61832061 4.38286479 8.5 4 8.38167939 4.38286479 8 4.38286479 8.30916031 4.6184739 8.19083969 5 8.5 4.7643909 8.80916031 5 8.69083969 4.6184739 9 4.38286479"></polygon>
            <polygon id="Shape" fill="#FFFFFF" points="11.6183206 4.38286479 11.5 4 11.3829517 4.38286479 11 4.38286479 11.3091603 4.6184739 11.1908397 5 11.5 4.7643909 11.8091603 5 11.6908397 4.6184739 12 4.38286479"></polygon>
            <polygon id="Shape" fill="#FFFFFF" points="14.6183206 4.38286479 14.5 4 14.3829517 4.38286479 14 4.38286479 14.3091603 4.6184739 14.192112 5 14.5 4.7643909 14.8091603 5 14.692112 4.6184739 15 4.38286479"></polygon>
            <polygon id="Shape" fill="#FFFFFF" points="1.61704835 6.3815261 1.5 6 1.38167939 6.3815261 1 6.3815261 1.30788804 6.6184739 1.19083969 7 1.49872774 6.7643909 1.80788804 7 1.69083969 6.6184739 2 6.3815261"></polygon>
            <polygon id="Shape" fill="#FFFFFF" points="4.61832061 6.3815261 4.5 6 4.38167939 6.3815261 4 6.3815261 4.30788804 6.6184739 4.19083969 7 4.5 6.7643909 4.80916031 7 4.69083969 6.6184739 5 6.3815261"></polygon>
            <polygon id="Shape" fill="#FFFFFF" points="7.61832061 6.3815261 7.5 6 7.38167939 6.3815261 7 6.3815261 7.30916031 6.6184739 7.19083969 7 7.5 6.7643909 7.80916031 7 7.69083969 6.6184739 8 6.3815261"></polygon>
            <polygon id="Shape" fill="#FFFFFF" points="10.6183206 6.3815261 10.5 6 10.3816794 6.3815261 10 6.3815261 10.3091603 6.6184739 10.1908397 7 10.5 6.7643909 10.8091603 7 10.6908397 6.6184739 11 6.3815261"></polygon>
            <polygon id="Shape" fill="#FFFFFF" points="13.6183206 6.3815261 13.5 6 13.3816794 6.3815261 13 6.3815261 13.3091603 6.6184739 13.192112 7 13.5 6.7643909 13.8091603 7 13.6908397 6.6184739 14 6.3815261"></polygon>
            <polygon id="Shape" fill="#FFFFFF" points="16.6178344 6.3815261 16.5006369 6 16.3821656 6.3815261 16 6.3815261 16.3095541 6.6184739 16.1910828 7 16.5006369 6.7643909 16.8089172 7 16.6917197 6.6184739 17 6.3815261"></polygon>
            <polygon id="Shape" fill="#FFFFFF" points="2.19083969 8 2.5 7.76336898 2.80788804 8 2.69083969 7.61764706 3 7.38235294 2.61704835 7.38235294 2.5 7 2.38167939 7.38235294 2 7.38235294 2.30916031 7.61764706"></polygon>
            <polygon id="Shape" fill="#FFFFFF" points="5.19083969 8 5.5 7.76336898 5.80916031 8 5.69083969 7.61764706 6 7.38235294 5.61832061 7.38235294 5.5 7 5.38167939 7.38235294 5 7.38235294 5.30916031 7.61764706"></polygon>
            <polygon id="Shape" fill="#FFFFFF" points="8.19083969 8 8.5 7.76336898 8.80916031 8 8.69083969 7.61764706 9 7.38235294 8.61832061 7.38235294 8.5 7 8.38167939 7.38235294 8 7.38235294 8.30916031 7.61764706"></polygon>
            <polygon id="Shape" fill="#FFFFFF" points="11.1910828 8 11.4993631 7.76336898 11.8089172 8 11.6917197 7.61764706 12 7.38235294 11.6178344 7.38235294 11.5006369 7 11.3821656 7.38235294 11 7.38235294 11.3082803 7.61764706"></polygon>
            <polygon id="Shape" fill="#FFFFFF" points="14.1908397 8 14.5 7.76336898 14.8091603 8 14.6908397 7.61764706 15 7.38235294 14.6170483 7.38235294 14.5 7 14.3816794 7.38235294 14 7.38235294 14.307888 7.61764706"></polygon>
            <polygon id="Shape" fill="#FFFFFF" points="1.19083969 9 1.5 8.76336898 1.80916031 9 1.69083969 8.61764706 2 8.38235294 1.61832061 8.38235294 1.5 8 1.38167939 8.38235294 1 8.38235294 1.30916031 8.61898396"></polygon>
            <polygon id="Shape" fill="#FFFFFF" points="4.19083969 9 4.5 8.76336898 4.80916031 9 4.69083969 8.61764706 5 8.38235294 4.61832061 8.38235294 4.5 8 4.38167939 8.38235294 4 8.38235294 4.30916031 8.61764706"></polygon>
            <polygon id="Shape" fill="#FFFFFF" points="7.19211196 9 7.5 8.76336898 7.80916031 9 7.69083969 8.61764706 8 8.38235294 7.61832061 8.38235294 7.5 8 7.38167939 8.38235294 7 8.38235294 7.30916031 8.61898396"></polygon>
            <polygon id="Shape" fill="#FFFFFF" points="10.1908397 9 10.5 8.76336898 10.8091603 9 10.692112 8.61764706 11 8.38235294 10.6183206 8.38235294 10.5 8 10.3816794 8.38235294 10 8.38235294 10.3091603 8.61764706"></polygon>
            <polygon id="Shape" fill="#FFFFFF" points="13.1908397 9 13.4987277 8.76336898 13.807888 9 13.6895674 8.61898396 14 8.38235294 13.6170483 8.38235294 13.4987277 8 13.3816794 8.38235294 13 8.38235294 13.307888 8.61764706"></polygon>
            <polygon id="Shape" fill="#FFFFFF" points="16.1908397 9 16.5 8.76336898 16.8091603 9 16.6908397 8.61764706 17 8.38235294 16.6183206 8.38235294 16.5 8 16.3816794 8.38235294 16 8.38235294 16.3091603 8.61764706"></polygon>
            <polygon id="Shape" fill="#FFFFFF" points="2.61783439 9.38235294 2.49936306 9 2.38216561 9.38235294 2 9.38235294 2.30828025 9.61764706 2.1910828 10 2.50063694 9.76336898 2.8089172 10 2.69171975 9.61764706 3 9.38235294"></polygon>
            <polygon id="Shape" fill="#FFFFFF" points="5.61704835 9.38235294 5.5 9 5.38167939 9.38235294 5 9.38235294 5.30788804 9.61764706 5.19083969 10 5.49872774 9.76336898 5.80788804 10 5.68956743 9.61764706 6 9.38235294"></polygon>
            <polygon id="Shape" fill="#FFFFFF" points="8.61832061 9.38235294 8.5 9 8.38167939 9.38235294 8 9.38235294 8.30916031 9.61764706 8.19083969 10 8.5 9.76336898 8.80916031 10 8.69083969 9.61764706 9 9.38235294"></polygon>
            <polygon id="Shape" fill="#FFFFFF" points="11.6183206 9.38235294 11.5 9 11.3816794 9.38235294 11 9.38235294 11.3091603 9.61764706 11.1908397 10 11.5 9.76336898 11.8091603 10 11.6908397 9.61764706 12 9.38235294"></polygon>
            <polygon id="Shape" fill="#FFFFFF" points="14.6183206 9.38235294 14.5 9 14.3829517 9.38235294 14 9.38235294 14.3091603 9.61764706 14.192112 10 14.5 9.76336898 14.8091603 10 14.6908397 9.61764706 15 9.38235294"></polygon>
            <polygon id="Shape" fill="#FFFFFF" points="1.61832061 11.3815261 1.5 11 1.38167939 11.3815261 1 11.3815261 1.30916031 11.6184739 1.19211196 12 1.5 11.7643909 1.80916031 12 1.69083969 11.6184739 2 11.3815261"></polygon>
            <polygon id="Shape" fill="#FFFFFF" points="4.61783439 11.3815261 4.49936306 11 4.38216561 11.3815261 4 11.3815261 4.30828025 11.6184739 4.1910828 12 4.49936306 11.7643909 4.8089172 12 4.69044586 11.6184739 5 11.3815261"></polygon>
            <polygon id="Shape" fill="#FFFFFF" points="7.61704835 11.3815261 7.5 11 7.38167939 11.3815261 7 11.3815261 7.30916031 11.6184739 7.19083969 12 7.5 11.7643909 7.80916031 12 7.69083969 11.6184739 8 11.3815261"></polygon>
            <polygon id="Shape" fill="#FFFFFF" points="10.6183206 11.3815261 10.5 11 10.3816794 11.3815261 10 11.3815261 10.3091603 11.6184739 10.1908397 12 10.5 11.7643909 10.8091603 12 10.6908397 11.6184739 11 11.3815261"></polygon>
            <polygon id="Shape" fill="#FFFFFF" points="13.6183206 11.3815261 13.5 11 13.3816794 11.3815261 13 11.3815261 13.3091603 11.6184739 13.1908397 12 13.5 11.7643909 13.8091603 12 13.6908397 11.6184739 14 11.3815261"></polygon>
            <polygon id="Shape" fill="#FFFFFF" points="17 11.3815261 16.6183206 11.3815261 16.5 11 16.3829517 11.3815261 16 11.3815261 16.3091603 11.6184739 16.192112 12 16.5 11.7643909 16.8091603 12 16.6908397 11.6184739"></polygon>
        </g>
    </g>
</svg>