<?xml version="1.0" encoding="utf-8"?>
<!-- Generator: Adobe Illustrator 21.0.0, SVG Export Plug-In . SVG Version: 6.00 Build 0)  -->
<svg version="1.1" id="Calque_1" xmlns="http://www.w3.org/2000/svg" xmlns:xlink="http://www.w3.org/1999/xlink" x="0px" y="0px"
	 viewBox="0 0 64 64" style="enable-background:new 0 0 64 64;" xml:space="preserve">
<g>
	<path d="M32,0C14.3,0,0,14.3,0,32s14.3,32,32,32s32-14.3,32-32S49.7,0,32,0z M32,61C16,61,3,48,3,32S16,3,32,3s29,13,29,29
		S48,61,32,61z"/>
	<path d="M43,31.6c0-0.1,0-0.3-0.1-0.4c0-0.1,0-0.2-0.1-0.3c0-0.1-0.1-0.2-0.1-0.3c-0.1-0.1-0.1-0.2-0.2-0.4c0-0.1-0.1-0.2-0.1-0.3
		c0-0.1-0.1-0.1-0.2-0.2c-0.7-1-1.7-1.9-2.5-2.7c-2.1-2.1-4.2-4.2-6.4-6.4c-1.1-1.1-1.4-1.4-1.5-1.5c0,0,0,0,0,0c0,0,0,0,0,0
		c-0.1-0.1-0.5-0.5-1.5-1.5c-1.3-1.3-3.3,0.7-2,2c0.3,0.3,0.5,0.5,0.7,0.7c0,0,0,0,0,0c0,0,0.1,0.1,0.1,0.1c0,0,0.1,0.1,0.1,0.1
		c0.1,0.1,0.1,0.1,0.2,0.2c0,0,0,0-0.1-0.1c0.2,0.2,0.4,0.4,0.8,0.8c2.2,2.2,4.5,4.5,6.7,6.7c0.7,0.7,1.5,1.5,2.2,2.2
		c0.2,0.2,0.4,0.4,0.6,0.6c0.1,0.1,0.1,0.1,0.2,0.2c0,0,0.1,0.1,0.1,0.1c0.1,0.1,0.1,0.3,0.2,0.3c0,0,0,0,0,0c0,0.1,0,0.2,0,0.2
		c0,0.1,0,0.2,0,0.2c0,0,0,0.1,0,0.2c0,0,0,0,0,0c0,0-0.1,0.2-0.2,0.3c0,0-0.1,0.1-0.1,0.1c-0.1,0.1-0.1,0.1-0.2,0.2
		c-0.2,0.2-0.4,0.4-0.6,0.6c-0.7,0.7-1.5,1.5-2.2,2.2c-2.2,2.2-4.5,4.5-6.7,6.7c-0.4,0.4-0.6,0.6-0.8,0.8c0,0,0.1-0.1,0.1-0.1
		c0,0-0.1,0.1-0.2,0.2c0,0-0.1,0.1-0.1,0.1c0,0-0.1,0.1-0.1,0.1c0,0,0,0,0,0c-0.2,0.2-0.4,0.4-0.7,0.7c-1.3,1.3,0.7,3.3,2,2
		c1.1-1.1,1.4-1.4,1.5-1.5c0,0,0,0,0,0c0,0,0,0,0,0c0.1-0.1,0.4-0.4,1.5-1.5c2.1-2.1,4.2-4.2,6.4-6.4c0.8-0.8,1.8-1.7,2.5-2.7
		c0.1-0.1,0.1-0.1,0.2-0.2c0.1-0.1,0.1-0.2,0.1-0.3c0.1-0.1,0.1-0.2,0.2-0.4c0-0.1,0.1-0.2,0.1-0.3c0-0.1,0.1-0.2,0.1-0.3
		c0-0.1,0.1-0.3,0.1-0.4c0,0,0,0,0,0c0-0.1,0-0.2,0-0.3C43,31.9,43,31.8,43,31.6C43,31.6,43,31.6,43,31.6z"/>
</g>
</svg>
