<?xml version="1.0" encoding="utf-8"?>
<!-- Generator: Adobe Illustrator 21.0.0, SVG Export Plug-In . SVG Version: 6.00 Build 0)  -->
<svg version="1.1" id="Calque_1" xmlns="http://www.w3.org/2000/svg" xmlns:xlink="http://www.w3.org/1999/xlink" x="0px" y="0px"
	 viewBox="0 0 64 64" style="enable-background:new 0 0 64 64;" xml:space="preserve">
<g>
	<g>
		<path d="M58.2,6H41V3c0-1.7-1.3-3-3-3H26c-1.6,0-3,1.3-3,3v3H5.8C5,6,4.3,6.7,4.3,7.5S5,9,5.8,9h2.8l1.9,49.5
			c0.1,3,2.6,5.4,5.6,5.4h31.7c3,0,5.5-2.4,5.6-5.4L55.4,9h2.8c0.8,0,1.5-0.7,1.5-1.5C59.7,6.7,59,6,58.2,6z M26,3H38v3H26V3z
			 M50.5,58.5c-0.1,1.4-1.2,2.5-2.6,2.5H16.1c-1.4,0-2.6-1.1-2.6-2.5L11.6,9h40.7L50.5,58.5z"/>
	</g>
</g>
<g>
	<g>
		<path d="M22.8,22.7c0-0.8-0.7-1.5-1.5-1.5c0,0,0,0,0,0c-0.8,0-1.5,0.7-1.5,1.5l0.5,24.6c0,0.8,0.7,1.5,1.5,1.5c0,0,0,0,0,0
			c0.8,0,1.5-0.7,1.5-1.5L22.8,22.7z"/>
	</g>
</g>
<g>
	<g>
		<path d="M32,21.2c-0.8,0-1.5,0.7-1.5,1.5v24.6c0,0.8,0.7,1.5,1.5,1.5c0.8,0,1.5-0.7,1.5-1.5V22.7C33.5,21.9,32.8,21.2,32,21.2z"/>
	</g>
</g>
<g>
	<g>
		<path d="M42.7,21.2c-0.8,0-1.5,0.6-1.5,1.5l-0.5,24.6c0,0.8,0.6,1.5,1.5,1.5c0,0,0,0,0,0c0.8,0,1.5-0.7,1.5-1.5l0.5-24.6
			C44.2,21.9,43.5,21.2,42.7,21.2z"/>
	</g>
</g>
</svg>
