<svg id="Layer_1" data-name="Layer 1" xmlns="http://www.w3.org/2000/svg" xmlns:xlink="http://www.w3.org/1999/xlink" viewBox="0 0 120 151"><defs><clipPath id="clip-path"><path d="M59.42,50.68V48.45h1.15v2.23l-.14,15.69h-.86ZM60,70.19a1.33,1.33,0,0,1,1.3,1.44,1.3,1.3,0,1,1-2.59,0A1.33,1.33,0,0,1,60,70.19Z" fill="none"/></clipPath><clipPath id="clip-path-2"><rect x="-640" y="-213" width="1400" height="900" fill="none"/></clipPath><clipPath id="clip-path-3"><path d="M241.1,50.68V48.45h1.15v2.23l-.14,15.69h-.86Zm.58,19.51a1.33,1.33,0,0,1,1.3,1.44,1.3,1.3,0,1,1-2.59,0,1.33,1.33,0,0,1,1.29-1.44Z" fill="none"/></clipPath></defs><title>v2Artboard 1</title><rect x="9" y="148" width="101" height="3" fill="#8bcfed"/><path d="M60,0a60,60,0,1,0,42.43,17.57A60,60,0,0,0,60,0m0,3A57,57,0,1,1,3,60,57,57,0,0,1,60,3" fill="#8bcfed"/><polygon points="60 28.5 91.5 80.5 28.5 80.5 60 28.5" fill="none" stroke="#162843" stroke-linejoin="round"/><g clip-path="url(#clip-path)"><g clip-path="url(#clip-path-2)"><rect x="53.7" y="43.45" width="12.6" height="34.59" fill="#162843"/></g></g></svg>