<?xml version="1.0" encoding="utf-8"?>
<!-- Generator: Adobe Illustrator 21.0.0, SVG Export Plug-In . SVG Version: 6.00 Build 0)  -->
<svg version="1.1" id="Calque_1" xmlns="http://www.w3.org/2000/svg" xmlns:xlink="http://www.w3.org/1999/xlink" x="0px" y="0px"
	 viewBox="0 0 64 64" style="enable-background:new 0 0 64 64;" xml:space="preserve">
<path d="M62.6,18.7L40.2,39.6L23.5,55c-1.7,1.5-4,1.3-5.6-0.2l-3.4-3.7L1,37c-1.5-1.7-1.3-4,0.2-5.5l3.2-2.9l0.7-0.7
	c1.7-1.5,4-1.3,5.6,0.2l10.5,11l3-2.7l10.6-9.9l16.1-15L53.7,9c1.7-1.5,4-1.3,5.6,0.2l3.7,4l0,0C64.5,14.7,64.3,17.2,62.6,18.7z"/>
</svg>
