<?xml version="1.0" encoding="utf-8"?>
<!-- Generator: Adobe Illustrator 20.0.0, SVG Export Plug-In . SVG Version: 6.00 Build 0)  -->
<svg version="1.1" id="Calque_1" xmlns="http://www.w3.org/2000/svg" xmlns:xlink="http://www.w3.org/1999/xlink" x="0px" y="0px"
	 viewBox="0 0 80 80" style="enable-background:new 0 0 80 80;" xml:space="preserve">
<path d="M40,0C17.9,0,0,17.9,0,40c0,22.1,17.9,40,40,40s40-17.9,40-40C80,17.9,62.1,0,40,0z M57.6,51.6c1.2,1.2,1.2,3.1,0,4.3
	l-1.7,1.7l-1.7,1.7c-1.2,1.2-3.1,1.2-4.3,0l-7.8-7.8h0L40,49.2l-10,10c-1.2,1.2-3.1,1.2-4.3,0l-1.7-1.7l-1.7-1.7
	c-1.2-1.2-1.2-3.1,0-4.3l7.8-7.8l0,0l2.2-2.2l-2.2-2.2l0,0l-7.8-7.8c-1.2-1.2-1.2-3.1,0-4.3l3.3-3.3c1.2-1.2,3.1-1.2,4.3,0l10,10
	l2.2-2.2l0,0L50,24c1.2-1.2,3.1-1.2,4.3,0l3.3,3.3c1.2,1.2,1.2,3.1,0,4.3l-10,10L57.6,51.6z"/>
</svg>
