<?xml version="1.0" encoding="utf-8"?>
<!-- Generator: Adobe Illustrator 19.2.1, SVG Export Plug-In . SVG Version: 6.00 Build 0)  -->
<svg version="1.1" id="Calque_1" xmlns="http://www.w3.org/2000/svg" xmlns:xlink="http://www.w3.org/1999/xlink" x="0px" y="0px"
	 viewBox="0 0 80 80" style="enable-background:new 0 0 80 80;" xml:space="preserve">
<g>
	<g>
		<path d="M18,66c-0.3,0-0.7-0.1-1-0.3c-0.6-0.4-1-1-1-1.7v-5.1H2c-1.1,0-2-0.9-2-2l0-8c0-1.1,0.9-2,2-2h14v-6c0-0.7,0.4-1.4,1-1.7
			c0.6-0.4,1.4-0.4,2,0l20,11.6c0.6,0.4,1,1,1,1.7s-0.4,1.4-1,1.7L19,65.8C18.7,65.9,18.3,66,18,66z M4,54.9h14c1.1,0,2,0.9,2,2v3.7
			l14-8.1l-14-8.1v4.6c0,1.1-0.9,2-2,2H4V54.9z"/>
	</g>
</g>
<g>
	<rect x="36.9" y="59" width="20.2" height="4"/>
</g>
<circle cx="26.8" cy="36" r="3"/>
<g>
	<path d="M72.4,22.5H64v-12H30v12h-8.3c-4.6,0-8.7,4.1-8.7,8.7v6.4c1-0.8,1.2-1.4,2-1.9c0.6-0.4,1-0.6,2-0.7v-3.8
		c0-2.4,2.2-4.7,4.7-4.7h50.8c1.9,0,3.6,1.9,3.6,3.8v16.5c0,2.2-1.9,3.7-4.1,3.7H64v-8H32.7l6.9,4H60v19H34v-3.8L30,64v5.5h34v-15
		h7.9c4.4,0,8.1-3.3,8.1-7.7V30.3C80,26.2,76.6,22.5,72.4,22.5z M60,22.5H34v-8h26V22.5z"/>
</g>
<rect x="44" y="51.5" width="13" height="4"/>
</svg>
