<?xml version="1.0" encoding="utf-8"?>
<!-- Generator: Adobe Illustrator 19.1.1, SVG Export Plug-In . SVG Version: 6.00 Build 0)  -->
<svg version="1.1" id="Calque_1" xmlns="http://www.w3.org/2000/svg" xmlns:xlink="http://www.w3.org/1999/xlink" x="0px" y="0px"
	 viewBox="0 0 80 80" style="enable-background:new 0 0 80 80;" xml:space="preserve">
<path d="M40.1,0C17.2,0,1.5,17.5,1.5,40.1C1.5,60.9,15.2,80,40.1,80c24.7,0,38.6-18.4,38.6-39.9C78.7,17.8,64.1,0,40.1,0z M44,62h-8
	V29h8V62z M40.1,24.8c-3.2,0-4.9-2.4-4.9-5c0-2.8,2-5,4.9-5c3.1,0,4.9,2.2,4.9,5C45.1,22.5,43.3,24.8,40.1,24.8z"/>
</svg>
