<?xml version="1.0" encoding="utf-8"?>
<!-- Generator: Adobe Illustrator 20.0.0, SVG Export Plug-In . SVG Version: 6.00 Build 0)  -->
<svg version="1.1" id="Layer_1" xmlns="http://www.w3.org/2000/svg" xmlns:xlink="http://www.w3.org/1999/xlink" x="0px" y="0px"
	 viewBox="0 0 80 80" style="enable-background:new 0 0 80 80;" xml:space="preserve">
<title>Artboard 7 copy 3</title>
<g>
	<path d="M78.3,37.8c-1.8-1.9-4.1-1.8-6.4-1.8c-0.7,0-1.6,0.1-2.3,0c-1.2-0.2-2.4-1.1-3.6-1.4c0-6-2.8-11.7-8.3-14.5
		c-1.4-0.7-2.9-1.2-4.4-1.4c-0.4-0.1-1.7,0-2-0.2c-0.3-0.2-0.6-1-0.8-1.4c-1.5-2.5-3.7-4.5-6.2-5.9c-3.9-2-8.6-2.4-12.8-1
		c-2.9,1-5.6,2.8-7.5,5.2c-0.6,0.8-1.3,2.7-2.2,3.1c-0.5,0.3-1.6,0.1-2.2,0.2c-0.8,0.1-1.6,0.4-2.4,0.6c-3.1,1.1-5.7,3.3-7.5,6.1
		c-1.9,3-2.2,6.1-2.5,9.5c-3.6,1.1-6.3,3.4-7,7.2c-0.7,4.1,1.2,8,4.9,9.9c4.1,2,9.5,1.3,13.9,1.3c1.7,0,3.4,0,5.1,0
		c0,3.5,2.1,6.5,5.8,6.7c1.3,0.1,2.7,0,4,0c5.9,0,11.8,0,17.7,0c6,0,12,0,18,0c4,0,9.3,0.5,10.2-5c0.4-2.6,0.1-5.6,0.1-8.3
		C79.9,43.8,80.5,40.1,78.3,37.8C77.4,36.9,79.2,38.7,78.3,37.8z M25.9,37.7c-1.6,1.5-1.8,3.4-1.8,5.4c0,2,0,4.1,0,6.1
		c-4.1,0-8.2,0-12.3,0c-3.1,0-6.9-0.8-7.7-4.3c-1.1-5,3.8-6.1,7.4-7.1c-1.1-3.9,0-8.9,2.8-11.9c2.8-3.1,6.5-3.7,10.4-3.4
		c1.2-2.7,2.1-5.1,4.6-6.9c2.4-1.8,5.5-2.6,8.6-2.3c2.8,0.2,5.5,1.5,7.5,3.5c1.6,1.6,2.4,3.6,3.2,5.6c3.5-0.1,6.8,0.2,9.6,2.6
		c3.2,2.8,3.9,6.8,3.7,10.9c-9.7,0-19.5,0-29.2,0C30.2,36,27.8,35.8,25.9,37.7C24.9,38.6,27,36.5,25.9,37.7z M75.8,52.6
		c0,1.7-0.1,3.3-2.2,3.4c-0.1,0-0.3,0-0.4,0c-1,0-2,0-3,0c-4,0-7.9,0-11.9,0c-8.6,0-17.2,0-25.8,0c-0.8,0-1.5,0-2.3,0
		c-1,0-1.8-0.3-2.2-1.3c-0.3-0.9-0.1-2.1-0.1-3c0-1.3,0-2.6,0-3.9c0-1.2,0-2.4,0-3.6c0-1-0.2-2.3,0.3-3.1c0.5-0.8,1.2-0.9,2-1
		c1.5,0,3,0,4.4,0c6.6,0,13.1,0,19.7,0c4.6,0,9.1,0,13.7,0c1.6,0,3.3,0,4.9,0c0.3,0,0.7,0,1.1,0c2.3,0.5,1.7,3.3,1.7,5.1
		C75.8,47.6,75.8,50.1,75.8,52.6z"/>
	<path d="M68,43.4v3.9l4,0.1c0.1-0.4,0-3.8,0-4C71.5,43.4,68.2,43.4,68,43.4z"/>
</g>
</svg>
