<?xml version="1.0" encoding="utf-8"?>
<!-- Generator: Adobe Illustrator 19.1.1, SVG Export Plug-In . SVG Version: 6.00 Build 0)  -->
<svg version="1.1" id="Calque_1" xmlns="http://www.w3.org/2000/svg" xmlns:xlink="http://www.w3.org/1999/xlink" x="0px" y="0px"
	 viewBox="0 0 80 80" style="enable-background:new 0 0 80 80;" xml:space="preserve">
<path d="M43.2,55c-0.5,0.8-1.1,1-2,0.5c-1-0.5-2.2-1.3-3.8-1.3c-1,0-2.4,0.3-2.8,1.4c-0.4,1.1-0.3,2.1,1.4,3c0.9,0.4,3.9,1.2,5.5,2
	c2.6,1.4,3.9,4,3,7.6c-0.7,2.9-3.4,5.6-8.1,5.6c-3.6,0-6.9-1.9-8-3.1l1.6-2.5c0.5-0.6,1.3-0.9,2.2-0.3c1.6,1,2.6,1.6,4.4,1.6
	c1.5,0,2.7-0.5,3-1.9c0.3-1.5-0.2-2.3-1.5-3c-0.7-0.4-4.1-1.2-5.5-1.9c-3.4-1.8-3.9-5.4-2.8-8.4c0.7-1.9,3.2-4.4,7.5-4.4
	c4,0,6.5,1.8,7.1,2.5L43.2,55z"/>
<path d="M25.5,55c-0.5,0.8-1.1,1-2,0.5c-1-0.5-2.2-1.3-3.8-1.3c-1,0-2.4,0.3-2.8,1.4c-0.4,1.1-0.3,2.1,1.4,3c0.9,0.4,3.9,1.2,5.5,2
	c2.6,1.4,3.9,4,3,7.6c-0.7,2.9-3.4,5.6-8.1,5.6c-3.6,0-6.9-1.9-8-3.1l1.6-2.5c0.5-0.6,1.3-0.9,2.2-0.3c1.6,1,2.6,1.6,4.4,1.6
	c1.5,0,2.7-0.5,3-1.9c0.3-1.5-0.2-2.3-1.5-3c-0.7-0.4-4.1-1.2-5.5-1.9c-3.4-1.8-3.9-5.4-2.8-8.4c0.7-1.9,3.2-4.4,7.5-4.4
	c4,0,6.5,1.8,7.1,2.5L25.5,55z"/>
<path d="M69.2,61.9c0,6.7-4.9,11.7-12.1,11.7h-9.1V50.2h9.1C64.5,50.2,69.2,55.3,69.2,61.9z M63.7,61.9c0-4.5-2.4-7.5-6.6-7.5h-3.6
	v15h3.6C61.5,69.4,63.7,66.1,63.7,61.9z"/>
<g>
	<g>
		<path d="M68,43.2H12c-6.6,0-12-5.4-12-12v-13c0-6.6,5.4-12,12-12H68c6.6,0,12,5.4,12,12v13C80,37.8,74.6,43.2,68,43.2z M12,10.2
			c-4.4,0-8,3.6-8,8v13c0,4.4,3.6,8,8,8H68c4.4,0,8-3.6,8-8v-13c0-4.4-3.6-8-8-8H12z"/>
	</g>
</g>
<g>
	<circle cx="65.3" cy="21.4" r="3"/>
</g>
</svg>
