<?xml version="1.0" encoding="utf-8"?>
<!-- Generator: Adobe Illustrator 19.1.1, SVG Export Plug-In . SVG Version: 6.00 Build 0)  -->
<svg version="1.1" id="Calque_1" xmlns="http://www.w3.org/2000/svg" xmlns:xlink="http://www.w3.org/1999/xlink" x="0px" y="0px"
	 viewBox="-0.1 1 80 80" style="enable-background:new -0.1 1 80 80;" xml:space="preserve">
<g>
	<path d="M67.9,65H11.8C6.6,65,0.7,61.4,0,55.6C-0.7,49,3.5,45.2,7.8,43.8c-0.1-4.8,1.5-9.2,4.6-12.4c3-3.1,7-4.8,11.6-4.8
		c2.9-5.9,9-9.6,15.9-9.6s13,3.7,15.8,9.6c4.6,0.1,8.7,1.9,11.8,5.1c3,3.2,4.6,7.6,4.4,12.1c5.6,1.8,8.3,5.9,7.8,11.7
		C79.2,61.1,73.1,65,67.9,65z M15.4,34.2c-3,3-4.1,7.8-3.2,12.7c-4.1,0.5-8.7,2.3-8.1,8.2c0.4,3.5,4.3,5.8,7.8,5.8H68
		c3,0,7.4-2.3,7.8-5.8c0.6-6-3.6-7.5-8.1-8.3c1-5.3-0.3-9.7-3-12.5c-3.2-3.2-6.7-4.3-11.5-3.7C51,23.9,45.3,21,39.9,21
		c-5.9,0-11.1,3.1-13.2,9.7C21.2,30.1,17.7,31.9,15.4,34.2z"/>
</g>
</svg>
