<?xml version="1.0" encoding="utf-8"?>
<!-- Generator: Adobe Illustrator 19.1.1, SVG Export Plug-In . SVG Version: 6.00 Build 0)  -->
<svg version="1.1" id="Calque_1" xmlns="http://www.w3.org/2000/svg" xmlns:xlink="http://www.w3.org/1999/xlink" x="0px" y="0px"
	 viewBox="0 0 80 80" style="enable-background:new 0 0 80 80;" xml:space="preserve">
<g>
	<g>
		<path d="M60,79.8c-4.4,0-7.9-3.5-7.9-7.7l0-4.1l-4.2,0v3.9c0,5.2-4.1,8-7.9,8c-4.4,0-7.9-3.5-7.9-7.7l0-4.1l-4.2,0v3.9
			c0,5.3-4,8-7.9,8c-4.4,0-7.9-3.5-7.9-7.7l0-4.1l-4,0c-5.1,0-7.9-4.1-7.9-7.9c0-3.9,2.9-7.9,7.7-7.9l4.1,0v-4.2l-4,0
			c-5.8,0-7.9-4.8-7.9-7.9c0-3.9,2.9-7.9,7.7-7.9l4.1,0v-4.2l-3.8,0c-5.3,0-8.1-4-8.1-7.9c0-3.8,3-7.9,7.7-7.9l4.1,0l0-4.1
			c0-4.3,3.5-7.8,7.9-7.8c4.4,0,7.9,3.5,7.9,7.9v4h4.1l0-4.1c0-4.3,3.6-7.8,7.9-7.8c4.5,0,7.9,3.4,7.9,7.9v3.9h4.1l0-4.1
			c0-4.3,3.6-7.8,7.9-7.8c4.5,0,7.9,3.4,7.9,7.9v3.9l4.1,0c4.3,0,7.8,3.5,7.8,7.9c0,4.5-3.4,7.9-7.9,7.9l-3.9,0v4.1l4.1,0
			c4.3,0,7.8,3.6,7.8,7.9c0,4.4-3.5,7.9-7.9,7.9l-3.9,0v4.1l4.1,0c4.3,0,7.8,3.5,7.8,7.9c0,4.4-3.5,7.9-7.9,7.9l-3.9,0v4
			C67.9,77,63.8,79.8,60,79.8z M43.9,63.9l12.1,0l0.1,8.1c0,2.3,2,3.7,3.9,3.7c1.9,0,3.9-1.3,3.9-3.9v-8l7.9,0
			c2.2,0,3.9-1.7,3.9-3.9c0-2.2-1.6-3.9-3.8-3.9l-8.1,0V43.9l7.9,0c2.2,0,3.9-1.7,3.9-3.9c0-1.9-1.4-3.9-3.8-3.9l-8.1,0V23.9l7.9,0
			c2.3,0,3.9-1.6,3.9-3.9c0-2.2-1.6-3.9-3.8-3.9l-8.1,0V8.2c0-1.9-1.3-3.9-3.9-3.9c-2.5,0-3.9,1.9-3.9,3.8l0,8.1H43.9V8.2
			c0-1.9-1.2-3.9-3.9-3.9c-2.4,0-3.9,1.9-3.9,3.8l0,8.1H23.9v-8c0-2.3-1.6-3.9-3.9-3.9c-2.5,0-3.9,1.9-3.9,3.8l0,8.1l-8.1,0
			c-2.8,0-3.7,2.6-3.7,3.9c0,0.2,0,3.9,4.1,3.9l7.8,0v12.1L8,36.1c-3.1,0-3.7,2.9-3.7,3.9c0,0,0,3.9,3.9,3.9l8,0V56L8,56.1
			c-2.8,0-3.7,2.6-3.7,3.9c0,1.1,0.7,3.9,3.9,3.9l8,0l0,8.1c0,2.3,2,3.7,3.9,3.7c1.8,0,3.9-1,3.9-4v-7.9l12.1,0l0.1,8.1
			c0,2.3,2,3.7,3.9,3.7c1.9,0,3.9-1.4,3.9-4V63.9z"/>
	</g>
</g>
<g>
	<g>
		<path d="M47,33v11.6c0,1.3-1.1,2.4-2.4,2.4H33V35.4c0-1.3,1.1-2.4,2.4-2.4H47 M51,29H35.4c-3.6,0-6.4,2.9-6.4,6.4V51h15.6
			c3.6,0,6.4-2.9,6.4-6.4V29L51,29z"/>
	</g>
</g>
</svg>
