<?xml version="1.0" encoding="utf-8"?>
<!-- Generator: Adobe Illustrator 19.2.1, SVG Export Plug-In . SVG Version: 6.00 Build 0)  -->
<svg version="1.1" id="Calque_1" xmlns="http://www.w3.org/2000/svg" xmlns:xlink="http://www.w3.org/1999/xlink" x="0px" y="0px"
	 viewBox="0 0 80 80" style="enable-background:new 0 0 80 80;" xml:space="preserve">
<path d="M40.1,26.5c0,0.7,0.4,1.4,1,1.7l20,11.5c0.3,0.2,0.7,0.3,1,0.3s0.7-0.1,1-0.3c0.6-0.4,1-1,1-1.7v-6h14c1.1,0,2-0.9,2-2v-8
	c0-1.1-0.9-2-2-2H64V15c0-0.7-0.4-1.4-1-1.7C62.7,13,62.4,13,62,13s-0.7,0.1-1,0.3l-20,11.5C40.5,25.1,40.1,25.8,40.1,26.5z
	 M60,18.4V22c0,1.1,0.9,2,2,2h14v4H62c-1.1,0-2,0.9-2,2v4.5l-14-8.1L60,18.4z"/>
<g>
	<path d="M49.8,76.1c-5.2,0-10.4-1.8-14.5-5.3l-0.1-0.1L6.2,41.8c-8.4-9.4-8.3-22.9,0.1-31.3l4.7-4.7c2.5-2.5,6.6-2.5,9.2,0l9.7,9.7
		c2.5,2.5,2.5,6.5,0,9l-4.3,4.3c-2.3,2.3-2.3,6.9,0,9.2l13.4,13.4c2.2,2.2,5.9,2.3,8.1,0.1l4.3-5.3c2.5-2.5,6.5-2.5,9,0l9.7,9.7
		c2.5,2.5,2.5,6.6,0,9.2l-4.7,4.7C61.3,74,55.5,76.1,49.8,76.1z M37.9,67.8c7.1,6.1,18.2,5.7,24.8-0.9l4.7-4.7
		c0.5-0.5,0.7-1.1,0.7-1.8c0-0.7-0.3-1.3-0.7-1.8l-9.7-9.7c-0.9-0.9-2.4-0.9-3.3-0.1l-4.3,5.3c-3.8,3.8-10,3.8-13.8,0L22.8,40.8
		c-3.8-3.8-3.8-11,0-14.8l4.3-4.3c0.9-0.9,0.9-2.4,0-3.4l-9.7-9.7c-1-1-2.6-1-3.5,0l-4.7,4.7c-6.9,6.9-6.9,17.9,0,25.8L37.9,67.8z"
		/>
</g>
</svg>
