<?xml version="1.0" encoding="utf-8"?>
<!-- Generator: Adobe Illustrator 20.0.0, SVG Export Plug-In . SVG Version: 6.00 Build 0)  -->
<svg version="1.1" id="Calque_1" xmlns="http://www.w3.org/2000/svg" xmlns:xlink="http://www.w3.org/1999/xlink" x="0px" y="0px"
	 viewBox="0 0 80 80" style="enable-background:new 0 0 80 80;" xml:space="preserve">
<path d="M40,0C17.9,0,0,17.9,0,40c0,22.1,17.9,40,40,40s40-17.9,40-40C80,17.9,62.1,0,40,0z M39.7,65.9c-3,0-4.7-1.5-4.7-4.6
	c0-3.2,1.7-4.7,4.7-4.7s4.6,1.6,4.6,4.7C44.3,64.4,42.7,65.9,39.7,65.9z M42.4,45.6c0,0.6,0.2,1,0.7,1.7c0.4,0.6,0.6,1.3,0.6,2.1
	c0,2.4-2,3.8-3.8,3.8c-1.1,0-2-0.4-2.7-1.1c-1.9-1.8-2.6-4-2.6-6c0-8.9,13.7-9.4,13.7-16.9c0-3.5-2.6-5.4-7.1-5.4
	c-3.9,0-6.6,2-6.6,5.9c0,2.1-1.8,3.9-3.9,3.9s-3.9-1.8-3.9-3.9c0-8,5.4-12.8,14.4-12.8c9.3,0,14.7,4.4,14.7,12.3
	C55.9,40.6,42.4,41.4,42.4,45.6z"/>
</svg>
