<?xml version="1.0" encoding="utf-8"?>
<!-- Generator: Adobe Illustrator 19.1.1, SVG Export Plug-In . SVG Version: 6.00 Build 0)  -->
<svg version="1.1" id="Calque_1" xmlns="http://www.w3.org/2000/svg" xmlns:xlink="http://www.w3.org/1999/xlink" x="0px" y="0px"
	 viewBox="0 0 80 80" style="enable-background:new 0 0 80 80;" xml:space="preserve">
<g>
	<path d="M61,80H19c-3.3,0-6-2.7-6-6V6c0-3.3,2.7-6,6-6h42c3.3,0,6,2.7,6,6v68C67,77.3,64.3,80,61,80z M19,4c-1.1,0-2,0.9-2,2v68
		c0,1.1,0.9,2,2,2h42c1.1,0,2-0.9,2-2V6c0-1.1-0.9-2-2-2H19z"/>
</g>
<g>
	<path d="M59,58.5H21V8.5H59V58.5z M25,54.5H55V12.5H25V54.5z"/>
</g>
<g>
	<path d="M40,73.9c-3.3,0-6-2.7-6-6s2.7-6,6-6s6,2.7,6,6S43.3,73.9,40,73.9z M40,65.9c-1.1,0-2,0.9-2,2s0.9,2,2,2s2-0.9,2-2
		S41.1,65.9,40,65.9z"/>
</g>
</svg>
