<?xml version="1.0" encoding="utf-8"?>
<!-- Generator: Adobe Illustrator 21.0.0, SVG Export Plug-In . SVG Version: 6.00 Build 0)  -->
<svg version="1.1" id="Calque_1" xmlns="http://www.w3.org/2000/svg" xmlns:xlink="http://www.w3.org/1999/xlink" x="0px" y="0px"
	 viewBox="0 0 80 80" style="enable-background:new 0 0 80 80;" xml:space="preserve">
<style type="text/css">
	.st0{fill:#1D1D1B;}
</style>
<g>
	<path class="st0" d="M29.1,24.5c-6.8,0-12.3-5.5-12.3-12.3S22.4,0,29.1,0c6.8,0,12.3,5.5,12.3,12.3S35.9,24.5,29.1,24.5z M29.1,4
		c-4.6,0-8.3,3.7-8.3,8.3s3.7,8.3,8.3,8.3s8.3-3.7,8.3-8.3S33.7,4,29.1,4z"/>
</g>
<path class="st0" d="M52.1,38.6c-1.3,0-2.6,0.1-3.8,0.4c-3.8-6.9-11.2-11.2-19.1-11.2c-12.1,0-21.9,9.8-21.9,21.9v11.5
	c0,1.1,0.9,2,2,2h22.5c0.8,4.1,2.8,7.8,5.6,10.7l0.1,0.1l0.1,0.1c3.7,3.7,8.9,5.9,14.5,5.9c11.4,0,20.7-9.3,20.7-20.7
	S63.5,38.6,52.1,38.6z M11.2,49.7c0-9.9,8-17.9,17.9-17.9c6.2,0,11.9,3.2,15.2,8.4c-7.5,3.1-12.8,10.4-12.9,19H11.2V49.7z
	 M52.1,42.6c3.9,0,7.5,1.3,10.3,3.6L38.9,69.6c-2.2-2.8-3.6-6.4-3.6-10.3C35.4,50.1,42.9,42.6,52.1,42.6z M52.1,76
	c-3.9,0-7.5-1.3-10.3-3.6L65.2,49c2.2,2.8,3.6,6.4,3.6,10.3C68.8,68.5,61.3,76,52.1,76z"/>
</svg>
