<?xml version="1.0" encoding="utf-8"?>
<!-- Generator: Adobe Illustrator 19.1.1, SVG Export Plug-In . SVG Version: 6.00 Build 0)  -->
<svg version="1.1" id="Calque_1" xmlns="http://www.w3.org/2000/svg" xmlns:xlink="http://www.w3.org/1999/xlink" x="0px" y="0px"
	 viewBox="0 0 80 80" style="enable-background:new 0 0 80 80;" xml:space="preserve">
<path d="M25.2,50.3v23.3h-5.4v-9.9h-9.5v9.9H4.8V50.3h5.4v9.7h9.5v-9.7H25.2z"/>
<path d="M50.8,62c0,6.7-4.9,11.7-12.1,11.7h-9.1V50.3h9.1C46.1,50.3,50.8,55.4,50.8,62z M45.3,62c0-4.5-2.4-7.5-6.6-7.5h-3.6v15h3.6
	C43.1,69.5,45.3,66.2,45.3,62z"/>
<path d="M75.2,62c0,6.7-4.9,11.7-12.1,11.7H54V50.3h9.1C70.5,50.3,75.2,55.4,75.2,62z M69.6,62c0-4.5-2.4-7.5-6.6-7.5h-3.6v15h3.6
	C67.4,69.5,69.6,66.2,69.6,62z"/>
<g>
	<g>
		<path d="M68,43.4H12c-6.6,0-12-5.4-12-12v-13c0-6.6,5.4-12,12-12H68c6.6,0,12,5.4,12,12v13C80,38,74.6,43.4,68,43.4z M12,10.4
			c-4.4,0-8,3.6-8,8v13c0,4.4,3.6,8,8,8H68c4.4,0,8-3.6,8-8v-13c0-4.4-3.6-8-8-8H12z"/>
	</g>
</g>
<g>
	<circle cx="65.3" cy="21.5" r="3"/>
</g>
</svg>
