<?xml version="1.0" encoding="utf-8"?>
<!-- Generator: Adobe Illustrator 19.1.1, SVG Export Plug-In . SVG Version: 6.00 Build 0)  -->
<svg version="1.1" id="Calque_1" xmlns="http://www.w3.org/2000/svg" xmlns:xlink="http://www.w3.org/1999/xlink" x="0px" y="0px"
	 viewBox="0 0 80 80" style="enable-background:new 0 0 80 80;" xml:space="preserve">
<g>
	<path d="M65,41v17.3c0,1.8-0.7,3.4-1.5,4.8l-3-3.8c-1.1,0.9-2.4,1.5-3.9,1.7l4,5.1C59,67.3,56.9,68,54.6,68H14.1
		c-2.2,0-4.2-0.6-5.8-1.8l15-19.2l8.8,7.8c0.7,0.6,1.6,1,2.5,1c0.9,0,1.8-0.3,2.5-0.9l8.8-7.7l3.2,4.1v-6.6l-0.1-0.1l0.1-0.1V41
		h-2.2L34.5,51.7l-26.2-23c1.6-1.2,3.6-1.8,5.8-1.8H34h15v-4H14C6.3,23,0,29.3,0,37v21c0,7.7,6.3,14,14,14h41c7.7,0,14-6.3,14-14V41
		H65z M4,58.3V36.8c0-1.9,0.6-3.7,1.5-5.2l14.7,12.9L5.4,63.4C4.5,61.9,4,60.1,4,58.3z"/>
</g>
<path d="M77,31H59V11c0-1.7-1.3-3-3-3s-3,1.3-3,3v20H34c-1.7,0-3,1.3-3,3s1.3,3,3,3h19v17c0,1.7,1.3,3,3,3s3-1.3,3-3V37h18
	c1.7,0,3-1.3,3-3S78.7,31,77,31z"/>
</svg>
