<?xml version="1.0" encoding="utf-8"?>
<!-- Generator: Adobe Illustrator 21.1.0, SVG Export Plug-In . SVG Version: 6.00 Build 0)  -->
<svg version="1.1" id="Layer_1" xmlns="http://www.w3.org/2000/svg" xmlns:xlink="http://www.w3.org/1999/xlink" x="0px" y="0px"
   viewBox="0 0 80 80" style="enable-background:new 0 0 80 80;" xml:space="preserve">
<path d="M42.3,24.5v-9.9C45.1,13.7,47,10.9,47,8c0-3.8-3.3-7-7-7c-3.8,0-7,3.3-7,7c0,3.3,1.9,5.6,4.7,6.6v9.9H9.4v14.1h4.7v-9.4
  h23.5v9.4h4.7v-9.4h23.5v9.4h4.7V24.5H42.3z"/>
<path d="M79.8,43.3H56.4h-4.7H28.2h-4.7H0v23.5h23.5v9.4h32.9v-9.4h23.5V43.3z M4.7,62V48h18.8V62H4.7z M51.7,71.4H28.2v-4.7V48
  h23.5v18.8V71.4z M75.1,62H56.4V48h18.8V62z"/>
</svg>
