<?xml version="1.0" encoding="utf-8"?>
<!-- Generator: Adobe Illustrator 19.2.1, SVG Export Plug-In . SVG Version: 6.00 Build 0)  -->
<svg version="1.1" id="Calque_1" xmlns="http://www.w3.org/2000/svg" xmlns:xlink="http://www.w3.org/1999/xlink" x="0px" y="0px"
	 viewBox="0 0 80 80" style="enable-background:new 0 0 80 80;" xml:space="preserve">
<g>
	<path d="M22.1,80C10,80,0.1,70.1,0.1,57.9S10,35.9,22.1,35.9s22.1,9.9,22.1,22.1S34.3,80,22.1,80z M22.1,39.9
		c-10,0-18.1,8.1-18.1,18.1S12.2,76,22.1,76s18.1-8.1,18.1-18.1S32.1,39.9,22.1,39.9z M22.1,72c-2.1,0-4.1-0.5-6.1-1.4l-2.6-1.2
		l20-20l1.2,2.6c0.9,1.9,1.4,4,1.4,6.1C36.2,65.7,29.9,72,22.1,72z M20.7,67.9c0.5,0.1,0.9,0.1,1.4,0.1c5.5,0,10-4.5,10-10
		c0-0.5,0-1-0.1-1.4L20.7,67.9z M10.7,66.6L9.5,64c-0.9-1.9-1.4-4-1.4-6.1c0-7.7,6.3-14,14-14c2.1,0,4.2,0.5,6.1,1.4l2.5,1.2
		L10.7,66.6z M22.1,47.9c-5.5,0-10,4.5-10,10c0,0.5,0,1,0.1,1.5L23.6,48C23.1,47.9,22.6,47.9,22.1,47.9z"/>
</g>
<path d="M78.2,47.5l-8.8-8.8c-2.3-2.3-6.2-2.3-8.5,0l-4,4.8c-2,1.9-5.2,1.9-7.2-0.1L37.4,31.1c-2-2-2-6.1,0-8.1l3.9-3.9
	c2.3-2.3,2.3-6.2,0-8.5l-8.8-8.8C31.3,0.6,29.8,0,28.2,0S25,0.6,23.9,1.8l-4.3,4.3c-7,7-7.7,17.7-2.1,26.1c1.5-0.3,3-0.4,4.5-0.4
	c0.1,0,0.1,0,0.2,0c-5.9-7-5.9-16.8,0.2-22.9l4.3-4.3c0.8-0.8,2.2-0.8,3,0l8.8,8.8c0.4,0.4,0.6,0.9,0.6,1.4s-0.2,1-0.6,1.4l-3.9,3.9
	c-3.5,3.5-3.5,10.2,0,13.8l12.3,12.3c3.6,3.6,9.3,3.6,12.9,0l4-4.8c0.8-0.7,2-0.7,2.8,0.1l8.8,8.8c0.4,0.4,0.6,0.9,0.6,1.5
	s-0.2,1.1-0.6,1.5L71,57.6c-6,6-16,6.3-22.4,0.8L48,57.8c0,0,0,0.1,0,0.1c0,1.6-0.2,3.2-0.4,4.8c3.5,2.4,7.6,3.6,11.7,3.6
	c5.3,0,10.6-2,14.5-5.9l4.3-4.3c1.2-1.2,1.8-2.7,1.8-4.3S79.3,48.6,78.2,47.5z"/>
</svg>
