<?xml version="1.0" encoding="utf-8"?>
<!-- Generator: Adobe Illustrator 20.0.0, SVG Export Plug-In . SVG Version: 6.00 Build 0)  -->
<svg version="1.1" id="Layer_1" xmlns="http://www.w3.org/2000/svg" xmlns:xlink="http://www.w3.org/1999/xlink" x="0px" y="0px"
	 viewBox="0 0 80 80" style="enable-background:new 0 0 80 80;" xml:space="preserve">
<title>Artboard 7</title>
<g>
	<path d="M78.2,10.3C79.2,11.2,77.2,9.3,78.2,10.3L78.2,10.3z"/>
	<path d="M65,53.3C63.4,55.3,65.9,52.2,65,53.3L65,53.3z"/>
	<path d="M79.4,37c1-2.1,0.6-4.6,0.6-6.8c0-3.7,0-7.4,0-11.1c0-2.9,0.7-6.5-1.8-8.7c-1.9-1.9-3.7-1.8-6-1.8c-2.9,0-5.8,0-8.7,0
		c-9.2,0-18.4,0-27.6,0c-8.3,0-16.6,0-24.8,0c-1.7,0-3.6-0.1-5.3,0C-1.6,9.1,0,18.2,0,23.2c0,2.3,0,4.7,0,7c0,2-0.3,4.1,0.3,6
		c0.9,2.7,3.3,4.2,6,4.3c4,0,7.9,0,11.9,0c0.4,0,0.8,0,1.1,0c0,0.4,0,0.7,0,1.1c-1,0.3-1.9,0.8-2.7,1.5c-0.5,0.4-0.8,1-1.3,1.3H7.4
		v0c-1.7,0-3.3,0.2-4.6,1C0.2,47,0,49.6,0,52.3c0,3.3,0,6.7,0,10c0,2.9-0.4,6.1,0.1,9c0.4,2.3,1.9,4.2,4.1,4.9
		c2.3,0.7,5,0.3,7.3,0.3c5.4,0,10.8,0,16.2,0c12.6,0,25.2,0,37.8,0c2.9,0,5.8,0.1,8.7,0c2.9-0.1,5.4-2.5,5.6-5.4
		c0.2-1.8,0-3.7,0-5.5c0-5.2,0.3-10.5,0-15.7c-0.1-1.9-1.2-3.7-2.8-4.7c-1.3-0.8-2.7-0.8-4.1-0.8c-1.6,0-3.2,0-4.7,0
		c0,0-0.1,0-0.2,0h-2.2c-0.2,0-0.3-0.1-0.5-0.2c-0.4-0.2-0.7-0.8-1-1.2c-0.5-0.5-1.1-0.9-1.7-1.2c-1-0.5-1-0.3-1-1.3
		c2.9,0,5.8,0,8.8,0C73.9,40.5,77.7,40.8,79.4,37z M65,53.3c1.1-1.3,1.6-3.1,1.6-4.8c1.7,0,3.5,0,5.2,0c0.8,0,1.5-0.1,2.3,0
		c2.2,0.2,1.9,1.8,1.9,3.5c0,4.9,0,9.8,0,14.8c0,2.2,0.5,5.5-2.5,5.7c-1.9,0.1-3.9,0-5.8,0c-3.9,0-7.7,0-11.6,0
		c-9.8,0-19.6,0-29.4,0c-6.6,0-13.1,0-19.7,0c-0.8,0-1.5,0-2.1-0.5C3.4,70.6,4,67.6,4,65.8c0-2.5,0-4.9,0-7.4s0-4.9,0-7.4
		c0-1.6,0.3-2.3,2-2.4c0.5,0,1,0,1.4,0v0h2.8c0.7,0,1.4,0,2.1,0c0.6,0,1.2,0,1.8,0c0,4.8,3.9,8.1,8.6,8.1c2.8,0,5.6,0,8.4,0
		c7.9,0,15.9,0,23.8,0C58.8,56.7,62.4,56.5,65,53.3z M62.5,48.3c0.8,4.8-5.4,4.2-8.4,4.2c-4.7,0-9.4,0-14,0c-4.6,0-9.2,0-13.8,0
		c-1.1,0-2.2,0-3.4,0c-2.7-0.1-5.6-2.3-4.3-5.3c0.7-1.6,2.3-1.9,3.8-2.4c0.2-0.1,1-0.1,1.2-0.4c0.2-0.3-0.1-1.2-0.2-1.6
		c-0.1-0.6-0.1-1.2-0.1-1.8c0.1-2.4,1.3-4.7,3.3-6c1.8-1.1,3.7-1.1,5.7-1.1c1.1-3.5,3.5-6.1,7.4-6.4c4-0.3,7.5,2.6,8.3,6.5
		c2.6,0,5.1-0.1,7.1,1.9c2.3,2.4,2.1,5.5,2.1,8.6C59.4,45.2,62.3,45.6,62.5,48.3z M64.2,36.5c-0.9,0-2.6,0.4-3.5,0
		c-0.5-0.2-0.6-0.9-0.9-1.3c-0.5-0.7-1-1.4-1.6-2c-1.2-1.2-2.8-2.1-4.4-2.6c-0.7-0.2-1.7-0.2-2.3-0.5c-0.6-0.3-0.8-0.7-1.2-1.3
		c-0.9-1.4-2.2-2.5-3.6-3.4c-3.1-1.8-7-2.2-10.4-0.9c-1.7,0.6-3.3,1.6-4.5,3c-0.6,0.7-1,1.8-1.7,2.4c-0.5,0.5-1.4,0.4-2.1,0.6
		c-1.9,0.5-3.6,1.4-5,2.8c-0.9,0.9-2.2,2.3-2.5,3.6c-3.4,0-6.9,0-10.3,0c-1.3,0-2.6,0.1-3.8,0c-1.5-0.1-2.1-1.4-2.2-2.8
		c-0.2-2.4,0-4.8,0-7.2c0-2.2,0-4.4,0-6.6c0-1.1,0-2.2,0-3.3c0-1-0.2-2.5,0.1-3.4c0.4-1,1.3-1,2.3-1.1c1.8-0.1,3.6,0,5.5,0
		c16.4,0,32.8,0,49.2,0c3.3,0,6.5,0,9.8,0c1.7,0,5-0.6,5,1.8c0,4.4,0,8.7,0,13.1c0,2,0,4,0,6c0,1.5-0.5,3-2.2,3.2
		c-1.1,0.1-2.3,0-3.5,0C68.3,36.5,66.2,36.5,64.2,36.5z"/>
	<path d="M64,16.6v4h3.9c0.1-0.3,0-3.8,0-4C67.6,16.5,64.2,16.6,64,16.6z"/>
</g>
</svg>
