<?xml version="1.0" encoding="utf-8"?>
<!-- Generator: Adobe Illustrator 19.1.1, SVG Export Plug-In . SVG Version: 6.00 Build 0)  -->
<svg version="1.1" id="Calque_1" xmlns="http://www.w3.org/2000/svg" xmlns:xlink="http://www.w3.org/1999/xlink" x="0px" y="0px"
	 viewBox="0 0 80 80" style="enable-background:new 0 0 80 80;" xml:space="preserve">
<path d="M51.6,34.5c-0.4,0-0.9,0-1.3,0c-0.5,0-1-0.1-1.5-0.1c-0.3,0-0.7,0-1,0.1c-0.4,0.1-0.9,0.1-1.3,0.2c-0.6,0.1-1.2,0.2-1.7,0.4
	c-5.2,1.4-9.1,5.2-14.2,2.9c0.2,0.1,1.5-1.9,1.5-2c1-1.6,1.9-3.3,2.1-5.2c0.1-0.6,0.1-1.2,0.1-1.8c0-0.6-0.2-1.4-0.4-1.9
	c-0.2-0.6-0.5-1.1-0.9-1.6c-0.4-0.6-0.7-1.2-1-1.8c-0.6-1.3-1-2.6-1.2-3.9c-0.1-0.8-0.2-1.5-0.2-2.3c0-9.6,9.4-17.3,21-17.3
	s21,7.8,21,17.3C72.6,26.7,63.2,34.5,51.6,34.5z M44.1,15.7c-1.6,0-2.9,1.3-2.9,2.9s1.3,2.9,2.9,2.9c1.6,0,2.9-1.3,2.9-2.9
	C47.1,17,45.8,15.7,44.1,15.7z M52.5,15.7c-1.6,0-2.9,1.3-2.9,2.9s1.3,2.9,2.9,2.9s2.9-1.3,2.9-2.9C55.5,17,54.2,15.7,52.5,15.7z
	 M61,15.7c-1.6,0-2.9,1.3-2.9,2.9s1.3,2.9,2.9,2.9c1.6,0,2.9-1.3,2.9-2.9S62.6,15.7,61,15.7z M25.6,23.5c0,0.1-9.1,0-9.1,0
	c-1.1,0-2,0.9-2,2v23.2c0,1.1,0.9,2,2,2h21.2c1.1,0,2-0.9,2-2c0,0,0-2.5,0-4.9c0,0,0.8-0.4,2.5-1.1c0.6-0.2,1.1-0.5,2.3-0.9
	c1.1-0.4,2.1-0.4,2.1-0.4c0,9.5,0,34.7,0,34.7c0,2.6-1.2,4-4,4H11.5c-2.8,0-4-1.6-4-4V16.4c0-2.7,1.5-4,4-4c0,0,14,0,13.9,0
	c-0.1,0-1.2,2.1-1,5C24.5,20.4,25.6,23.5,25.6,23.5z M36.7,71c1.7,0,3-1,3-2.3c0-1.3-1.4-2.3-3-2.3c-1.7,0-3,1-3,2.3
	C33.7,70,35,71,36.7,71z M36.7,62c1.7,0,3-1,3-2.3c0-1.3-1.4-2.3-3-2.3c-1.7,0-3,1-3,2.3C33.7,61,35,62,36.7,62z M27.2,71
	c1.7,0,3-1,3-2.3c0-1.3-1.4-2.3-3-2.3c-1.7,0-3,1-3,2.3C24.1,70,25.4,71,27.2,71z M27.2,62c1.7,0,3-1,3-2.3c0-1.3-1.4-2.3-3-2.3
	c-1.7,0-3,1-3,2.3C24.1,61,25.4,62,27.2,62z M17.6,71c1.7,0,3-1,3-2.3c0-1.3-1.4-2.3-3-2.3c-1.7,0-3,1-3,2.3
	C14.5,70,15.9,71,17.6,71z M17.6,62c1.7,0,3-1,3-2.3c0-1.3-1.4-2.3-3-2.3c-1.7,0-3,1-3,2.3C14.5,61,15.9,62,17.6,62z"/>
</svg>
