<?xml version="1.0" encoding="utf-8"?>
<!-- Generator: Adobe Illustrator 19.1.1, SVG Export Plug-In . SVG Version: 6.00 Build 0)  -->
<svg version="1.1" id="Calque_1" xmlns="http://www.w3.org/2000/svg" xmlns:xlink="http://www.w3.org/1999/xlink" x="0px" y="0px"
	 viewBox="0 0 80 80" style="enable-background:new 0 0 80 80;" xml:space="preserve">
<g id="XMLID_206_">
	<path d="M39.8,39c-1.1,0-2-0.9-2-2V2c0-1.1,0.9-2,2-2s2,0.9,2,2v35C41.8,38.1,41,39,39.8,39z"/>
</g>
<g>
	<path d="M40,80C17.3,80,6.9,62.3,6.9,45.8s9.6-29.5,24.5-33.2c1.1-0.3,2.2,0.4,2.4,1.5c0.3,1.1-0.4,2.2-1.5,2.4
		c-13,3.2-21.4,14.8-21.4,29.3C10.9,60.4,20,76,40,76s29.1-15.7,29.1-30.2c0-14.9-8.5-26.5-21.7-29.5c-1.1-0.2-1.8-1.3-1.5-2.4
		c0.2-1.1,1.3-1.8,2.4-1.5C63.4,15.9,73.1,29,73.1,45.8C73.1,66,59.5,80,40,80z"/>
</g>
</svg>
