<?xml version="1.0" encoding="utf-8"?>
<!-- Generator: Adobe Illustrator 19.1.1, SVG Export Plug-In . SVG Version: 6.00 Build 0)  -->
<svg version="1.1" id="Calque_1" xmlns="http://www.w3.org/2000/svg" xmlns:xlink="http://www.w3.org/1999/xlink" x="0px" y="0px"
	 viewBox="0 0 80 80" style="enable-background:new 0 0 80 80;" xml:space="preserve">
<path d="M18.4,68.8l1.2,1.3c-0.9,1.1-3.2,3.5-8.3,3.5c-6.8,0-10.9-5.1-10.9-11.7c0-6.2,4-11.7,11.2-11.7c4.3,0,6.7,2,7.6,2.9l-1,1.4
	c-0.3,0.5-0.7,0.5-1.4,0.1c-0.9-0.6-2.2-1.7-5.2-1.7c-5.1,0-8,3.7-8,9c0,5.7,3.5,9,7.9,9c4.1,0,5.3-1.7,5.9-2.1
	C17.8,68.5,18.1,68.5,18.4,68.8z"/>
<path d="M25.5,49.7v23.6h-2.8V49.7H25.5z"/>
<path d="M37,56.9c5.1,0,7.7,3.7,7.7,8.4c0,5.1-2.9,8.3-7.7,8.3c-4.8,0-7.7-3.3-7.7-8.3C29.2,60,32.4,56.9,37,56.9z M37,71.3
	c3.5,0,4.8-2.6,4.8-6.1c0-3.6-1.3-6.1-4.8-6.1c-3.3,0-4.8,2.4-4.8,6.1C32.2,68.9,33.6,71.3,37,71.3z"/>
<path d="M61.6,57.1v16.2h-1.7c-0.4,0-0.7-0.2-0.8-0.6L58.9,71c-0.7,0.8-2.4,2.6-5.4,2.6c-4.3,0-5.4-3.4-5.4-6.1V57.1H51v10.3
	c0,2.4,1.1,3.9,3.4,3.9c2.3,0,3.8-1.6,4.4-2.3V57.1H61.6z"/>
<path d="M79.5,49.7v23.6h-1.7c-0.4,0-0.7-0.2-0.8-0.6l-0.3-2c-0.7,0.8-2.4,2.8-5.4,2.8c-4.5,0-6.1-3.9-6.1-8.3c0-4,2.1-8.4,7-8.4
	c2.7,0,3.9,1.3,4.4,1.9v-9H79.5z M76.7,61c-0.5-0.7-1.6-1.9-3.8-1.9c-3.2,0-4.7,2.4-4.7,6.2c0,4,1.3,6,4.1,6c2.4,0,3.8-1.7,4.4-2.4
	V61z"/>
<g>
	<g>
		<path d="M68,43.5H12c-6.6,0-12-5.4-12-12v-13c0-6.6,5.4-12,12-12H68c6.6,0,12,5.4,12,12v13C80,38.1,74.6,43.5,68,43.5z M12,10.4
			c-4.4,0-8,3.6-8,8v13c0,4.4,3.6,8,8,8H68c4.4,0,8-3.6,8-8v-13c0-4.4-3.6-8-8-8H12z"/>
	</g>
</g>
<g>
	<circle cx="65.3" cy="21.6" r="3"/>
</g>
</svg>
