<?xml version="1.0" encoding="utf-8"?>
<!-- Generator: Adobe Illustrator 19.1.1, SVG Export Plug-In . SVG Version: 6.00 Build 0)  -->
<svg version="1.1" id="Calque_1" xmlns="http://www.w3.org/2000/svg" xmlns:xlink="http://www.w3.org/1999/xlink" x="0px" y="0px"
	 viewBox="0 0 80 80" style="enable-background:new 0 0 80 80;" xml:space="preserve">
<g>
	<path d="M79.9,29.1l-2.4-1.6l2-2c0.2-0.2,0.3-0.4,0.2-0.7c0-0.2-0.2-0.5-0.5-0.6l-2.6-1.1L78,21c0.1-0.2,0.2-0.5,0.1-0.7
		c-0.1-0.2-0.3-0.4-0.6-0.5l-2.8-0.5l1.1-2.6c0.1-0.2,0.1-0.5-0.1-0.7c-0.1-0.2-0.4-0.4-0.6-0.4h-2.9l0.6-2.8c0.1-0.2,0-0.5-0.2-0.7
		c-0.2-0.2-0.4-0.2-0.7-0.2l-2.8,0.6V9.6c0-0.3-0.1-0.5-0.3-0.6s-0.5-0.2-0.7-0.1L65.5,10l-0.6-2.8c0-0.2-0.2-0.5-0.4-0.6
		c-0.2-0.1-0.5-0.1-0.7,0.1l-2.4,1.6l-1.1-2.6c-0.1-0.2-0.3-0.4-0.6-0.5c-0.2,0-0.5,0-0.7,0.2l-2,2L55.4,5c0-0.1-0.3-0.2-0.5-0.2
		c-0.2,0-0.5,0.1-0.6,0.3l-1.6,2.4l-2-2c-0.2-0.2-0.4-0.3-0.7-0.2c-0.2,0-0.5,0.2-0.6,0.5l-1.1,2.6L46,6.7c-0.2-0.1-0.5-0.2-0.7-0.1
		C45,6.8,44.9,7,44.8,7.2L44.3,10l-2.6-1.1C41.5,8.8,41.2,8.8,41,9c-0.2,0.1-0.3,0.4-0.3,0.6v2.9l-2.8-0.6c-0.2-0.1-0.5,0-0.7,0.2
		C37,12.3,37,12.5,37,12.8l0.6,2.8h-2.8c-0.3,0-0.5,0.1-0.7,0.3c-0.1,0.2-0.2,0.5-0.1,0.7l1.1,2.6l-2.8,0.5c-0.2,0-0.5,0.2-0.6,0.5
		c-0.1,0.2-0.1,0.5,0.1,0.7l1.6,2.4l-2.6,1.1c-0.2,0.1-0.4,0.3-0.4,0.6c0,0.2,0,0.5,0.2,0.7l2.1,2l-2.4,1.6
		c-0.2,0.1-0.4,0.4-0.4,0.6c0,0.3,0.2,0.5,0.4,0.6l2.4,1.6l-2.1,2c-0.2,0.2-0.2,0.4-0.2,0.7c0,0.2,0.2,0.5,0.4,0.6l2.6,1.1l-1.6,2.4
		c-0.1,0.2-0.2,0.5-0.1,0.7c0.1,0.2,0.3,0.4,0.6,0.4l2.8,0.5L34,43.1c-0.1,0.2-0.1,0.5,0.1,0.7c0.1,0.2,0.4,0.3,0.7,0.3h2.8
		l-0.3,1.4c1.1,0.5,2.2,1,3.3,1.5c2.8,0.9,5.9,0.8,8.8,1.3c3.1,0.5,6.4,0.9,9.3,2.4c0.9,0.5,1.7,1.2,2.3,2l0.6-1.4l2.4,1.6
		c0.2,0.1,0.5,0.2,0.7,0.1c0.2-0.1,0.4-0.3,0.4-0.6l0.6-2.8l2.6,1.1c0.2,0.1,0.5,0.1,0.7-0.1c0.2-0.1,0.3-0.4,0.3-0.6v-2.9l2.8,0.6
		c0.2,0.1,0.5,0,0.7-0.2s0.3-0.4,0.2-0.7L72.4,44h2.9c0.3,0,0.5-0.1,0.6-0.3c0.1-0.2,0.2-0.5,0.1-0.7l-1.1-2.6l2.8-0.5
		c0.2,0,0.5-0.2,0.6-0.5c0.1-0.2,0.1-0.5-0.1-0.7l-1.6-2.4l2.6-1.1c0.2-0.1,0.4-0.3,0.5-0.6c0-0.2,0-0.5-0.2-0.7l-2-2l2.4-1.6
		c0.2-0.1,0.4-0.4,0.4-0.6C80.3,29.4,80.1,29.2,79.9,29.1z M65.5,20.3C64.2,19,63.1,18,62,17.5c-1.1-0.6-2.3-0.9-3.7-0.9
		c-2,0-3.8,0.7-5.2,2c-1.3,1.3-2.2,3.1-2.6,5.5H62l-1.1,2.4H50.1c0,0.3,0,0.6-0.1,0.9c0,0.3,0,0.7,0,1.1c0,0.4,0,0.8,0,1.1
		s0,0.6,0.1,0.9h8.9l-1.1,2.4h-7.4c0.4,2.4,1.3,4.2,2.6,5.5s3.1,2,5.2,2c1.3,0,2.5-0.3,3.7-0.9c1.1-0.6,2.3-1.6,3.5-2.8v4
		c-1.2,0.9-2.4,1.6-3.7,2.1c-1.1,0.5-2.3,0.7-3.7,0.7c-3.2,0-5.8-0.9-7.8-2.8s-3.4-4.4-3.9-7.8h-4.2l1.1-2.4H46c0-0.3,0-0.6,0-0.9
		s0-0.7,0-1.1c0-0.5,0-0.8,0-1.1s0-0.6,0-0.9h-3.9l1.1-2.4h3.2c0.5-3.3,1.8-5.9,3.9-7.8s4.7-2.8,7.8-2.8c1.3,0,2.5,0.2,3.8,0.7
		c1.2,0.4,2.3,1.1,3.6,2V20.3z"/>
	<path d="M72.4,58.7c0.2-1.9-1.7-2.8-3.2-2.9c-2.8-0.1-5.4,1.6-6.9,2.9c-2.2,2.1-4.6,2.8-7.8,3.2c-3.9,0.5-7.6,0.7-11.1-0.4
		c-0.5-0.2-1.7-0.7-2.8-1.2c-0.5-0.2-1.1-0.4-1.6-0.6c-0.4-0.1-0.6-0.3-1-0.3c1.2-0.2,3.1-0.4,4.9-0.2c2.2,0.3,8.9,0.3,11.7,0.8
		c1.1,0.2,2.1-0.1,2.9-0.6s1.4-1.2,1.7-2c0.7-1.5,1-2.3,0-3.8c-1-1.3-2.5-1.8-4.1-2.3c-1.7-0.5-3.5-0.8-5.2-1.1
		c-3.4-0.5-6-0.4-8.6-0.9c-0.9-0.2-2.5-1.1-4.7-2.1c-2.2-1-5-2.1-8.8-2.5c-1.1,0.1-2,0.1-3,0.1c-5.2,0.1-10.3,1.5-12.4,2
		C9.4,47.5,1.5,46.9,1,47c-0.6,0.2-1,0.8-1,1.4v14.4c0,1,0.6,1.6,1.5,1.7c0.9,0,8.3,0,11.1,0.1c1.3,0.1,2.3,0.3,3.4,0.7
		c0.7,0.3,1.6,0.7,2.7,1.2c2.1,1,4.7,2.2,7.3,3.5c2.6,1.2,5.2,2.5,7.4,3.4c2.2,1,3.8,1.7,5.2,1.8c2.2,0.2,5.9-0.4,9.7-1
		c3.8-0.6,7.7-1.3,8.8-1.3c3.1-0.1,5.6-2.5,7.3-3.5c2.2-1.4,4.7-2.9,6.7-4.9c0.9-0.9,1.3-1.8,1.3-2.8c-0.1-1-1-0.8-1.3-1.2
		C71.4,60.2,72.3,59.4,72.4,58.7z"/>
</g>
</svg>
