<?xml version="1.0" encoding="utf-8"?>
<!-- Generator: Adobe Illustrator 20.1.0, SVG Export Plug-In . SVG Version: 6.00 Build 0)  -->
<svg version="1.1" id="Calque_1" xmlns="http://www.w3.org/2000/svg" xmlns:xlink="http://www.w3.org/1999/xlink" x="0px" y="0px"
	 viewBox="0 0 80 80" style="enable-background:new 0 0 80 80;" xml:space="preserve">
<g>
	<path d="M43.7,80c-19.2,0-29-2.3-29-6.9c0-5.3,5.6-10,14.8-12.5c-0.9-4.8-1.4-9.7-1.4-14.5c0-4,0.3-8.1,1-12.3l-4.5,1.7
		c-0.7,0.2-1.4,0.1-2-0.3L21,33.7l-0.4,2.2c-0.1,0.7-0.6,1.3-1.3,1.5l-8.9,3.2c-1,0.4-2.2-0.2-2.6-1.2c-1.2-3.4-0.5-7.2,2-10.8
		c2.3-3.3,6.1-6,10.4-7.6c2.2-0.8,4.5-1.3,6.7-1.4l-4-3.4c-0.5-0.5-0.8-1.2-0.7-1.9l0.4-2.2L20.7,13c-0.7,0.2-1.4,0.1-2-0.3
		l-7.3-6.1c-0.4-0.3-0.7-0.8-0.7-1.4s0.1-1.1,0.5-1.5c4.6-5.5,14.5-4.8,22.1,1.5c2.8,2.4,5,5.3,6.3,8.3c2.3-2.6,5.5-4.6,9.1-6
		c4.4-1.6,9-1.9,12.9-0.9c4.2,1.1,7.2,3.6,8.4,7c0.4,1-0.2,2.2-1.2,2.6L60,19.5c-0.7,0.2-1.4,0.1-2-0.3l-1.7-1.4l-0.4,2.2
		c-0.1,0.7-0.6,1.3-1.3,1.5l-2.5,0.9c2,0.9,3.9,2.1,5.7,3.6c3.6,3,6.1,6.8,7.2,10.7c1.1,4.2,0.5,8-1.8,10.8c-0.7,0.8-2,1-2.8,0.2
		l-7.2-6c-0.5-0.5-0.8-1.2-0.7-1.9l0.4-2.1l-2.1,0.8c-0.7,0.2-1.4,0.1-2-0.3l-4.2-3.6c-0.1,1.5-0.2,3-0.2,4.3
		c0,6.8,0.9,13.5,2.8,20.2c14.8,0.8,25.4,6.7,25.4,14.1C72.6,77.7,62.9,80,43.7,80z M18.7,72.8c1.4,1.3,9.8,3.1,25,3.1
		s23.6-1.8,25-3.1c-0.3-4.5-9.5-9.5-23-10c-0.9,0-1.6-0.6-1.8-1.4c-2.2-7.4-3.4-15.1-3.4-22.7c0-2.6,0.2-5.3,0.5-8.6
		c0.1-0.7,0.6-1.4,1.2-1.6c0.7-0.3,1.5-0.1,2,0.3l6.3,5.3l4.2-1.5c0.7-0.2,1.4-0.1,2,0.3c0.5,0.5,0.8,1.2,0.7,1.9l-0.8,4.4l4.5,3.8
		c0.6-1.5,0.6-3.4,0-5.4c-0.9-3.1-3-6.2-5.9-8.7c-3-2.5-6.6-4.1-9.9-4.3c-0.9-0.1-1.7-0.8-1.8-1.7s0.4-1.8,1.3-2.2l7.4-2.7l0.8-4.4
		c0.1-0.7,0.6-1.3,1.3-1.5c0.7-0.2,1.4-0.1,2,0.3l3.4,2.9l5.6-2c-1-1.3-2.6-2.2-4.7-2.7c-3.1-0.8-6.9-0.6-10.5,0.8
		c-4.3,1.6-7.8,4.4-9.4,7.7c-0.4,0.8-1.2,1.2-2.1,1.1c-0.9-0.1-1.5-0.8-1.7-1.7c-0.5-3.5-2.8-7.2-6.2-10.1c-5-4.2-11.3-5.4-14.9-3.3
		l4.6,3.8l4.2-1.5c0.7-0.2,1.4-0.1,2,0.3c0.5,0.5,0.8,1.2,0.7,1.9l-0.8,4.4l8.1,6.9c0.7,0.6,0.9,1.7,0.5,2.5
		c-0.5,0.8-1.4,1.2-2.4,0.9c-3.2-1-7.3-0.8-11.1,0.6c-3.6,1.3-6.7,3.5-8.5,6.2c-1.2,1.7-1.8,3.5-1.8,5.1l5.6-2l0.8-4.4
		c0.1-0.7,0.6-1.3,1.3-1.5c0.7-0.2,1.4-0.1,2,0.3l3.5,2.9l6.7-2.5c0.7-0.2,1.4-0.1,2,0.4c0.5,0.5,0.8,1.2,0.7,1.9
		c-1,5-1.5,10-1.5,14.9c0,5.1,0.6,10.3,1.7,15.5c0.2,1.1-0.5,2.1-1.5,2.4C24.4,65.8,18.9,69.3,18.7,72.8z"/>
</g>
</svg>
