<?xml version="1.0" encoding="utf-8"?>
<!-- Generator: Adobe Illustrator 19.1.1, SVG Export Plug-In . SVG Version: 6.00 Build 0)  -->
<svg version="1.1" id="Calque_1" xmlns="http://www.w3.org/2000/svg" xmlns:xlink="http://www.w3.org/1999/xlink" x="0px" y="0px"
	 viewBox="0 0 80 80" style="enable-background:new 0 0 80 80;" xml:space="preserve">
<path d="M77.8,80C77.8,80,77.8,80,77.8,80l-14.7-0.1c-0.5,0-1-0.2-1.4-0.6l-2.3-2.3l-5.8,1.4c-0.7,0.2-1.4,0-1.9-0.5l-5.2-5.2
	c-0.5-0.5-0.7-1.2-0.5-1.9l1.4-5.8l-2.7-2.7L39,63.9c-0.7,0.2-1.4,0-1.9-0.5l-5.2-5.2c-0.5-0.5-0.7-1.2-0.5-1.9l1.4-5.8l-3.2-3.2
	c-7.5,2.2-15.3,0.2-21.6-5.5C2.8,37,0.1,31.1,0.2,24.7C0.3,18.9,2.7,13.1,7,8.4C16.4-1.9,30.5-2.8,40.4,6.3c7,6.4,9.5,15.1,6.7,23.7
	l32,32c0.4,0.4,0.6,0.9,0.6,1.4L79.8,78c0,0.5-0.2,1-0.6,1.4C78.8,79.8,78.3,80,77.8,80z M63.9,75.9L75.8,76l-0.1-11.8L43.4,31.9
	c-0.6-0.6-0.7-1.4-0.5-2.1c2.8-7.4,0.9-14.9-5.3-20.5C29.5,1.7,17.8,2.5,10,11.1c-3.6,4-5.7,8.8-5.8,13.7C4.1,30,6.4,34.9,10.7,38.8
	c5.6,5.1,12.2,6.6,18.8,4.3c0.7-0.3,1.5-0.1,2.1,0.5l4.9,4.9c0.5,0.5,0.7,1.2,0.5,1.9l-1.4,5.8l3.6,3.6l5.8-1.4
	c0.7-0.2,1.4,0,1.9,0.5l4.3,4.3c0.5,0.5,0.7,1.2,0.5,1.9l-1.4,5.8l3.6,3.6l5.8-1.4c0.7-0.2,1.4,0,1.9,0.5L63.9,75.9z M19.3,26.9
	c-1.6,0-3.3-0.6-4.7-1.9c-1.5-1.4-2.4-3.2-2.3-5.2c0-1.7,0.7-3.5,2-4.8c1.3-1.4,3-2.3,4.8-2.4c1.9-0.1,3.7,0.5,5.2,1.8
	c1.5,1.4,2.3,3.2,2.3,5c0,1.8-0.7,3.5-2,5C23.1,26,21.2,26.9,19.3,26.9z M19.7,16.5c-0.1,0-0.1,0-0.2,0c-0.8,0.1-1.6,0.5-2.2,1.1
	c-0.6,0.7-0.9,1.4-1,2.2c0,0.8,0.3,1.5,1,2.1c1.6,1.5,3.3,0.8,4.3-0.3l0,0c0.6-0.7,1-1.5,1-2.2c0-0.8-0.3-1.5-1-2.1
	C21,16.8,20.4,16.5,19.7,16.5z"/>
</svg>
