<?xml version="1.0" encoding="utf-8"?>
<!-- Generator: Adobe Illustrator 20.0.0, SVG Export Plug-In . SVG Version: 6.00 Build 0)  -->
<svg version="1.1" id="Layer_1" xmlns="http://www.w3.org/2000/svg" xmlns:xlink="http://www.w3.org/1999/xlink" x="0px" y="0px"
	 viewBox="0 0 80 80" style="enable-background:new 0 0 80 80;" xml:space="preserve">
<title>Artboard 7 copy</title>
<g>
	<path d="M78.3,22.3c-1.8-1.9-3.8-1.8-6.1-1.8c-2.8,0-5.7,0-8.5,0c-8.9,0-43.4,0-51.7,0c-2,0-4-0.1-6,0c-3.2,0.1-5.8,2.6-6,5.9
		c-0.2,3.8,0,7.6,0,11.4c0,3-0.3,6.2,0,9.3c0.7,6.9,9,5.5,13.7,5.5c8.6,0,43.2,0,51.9,0c2.5,0,5,0,7.5,0c2.8,0,5.5-1.1,6.5-4.1
		c0.4-1.1,0.3-2.2,0.3-3.4c0-2,0-3.9,0-5.9c0-4.1,0-8.2,0-12.3C80,25.2,79.7,23.6,78.3,22.3C77.4,21.3,79.3,23.2,78.3,22.3z
		 M74,48.5c-9.6,0-53.4,0-65.7,0c-1.1,0-2.8,0.2-3.6-0.6C3.8,47,4.2,45.1,4.2,44c0-1.9,0-3.9,0-5.8c0-3.8-0.4-7.8,0-11.6
		c0.2-2.6,2.9-2,4.8-2c3,0,6.1,0,9.1,0c9.7,0,43.3,0,50.4,0c1.8,0,3.7-0.1,5.5,0c2.7,0.2,2.1,3.1,2.1,5.1c0,3.8,0,7.5,0,11.3
		c0,1.8,0.2,3.7,0,5.5C75.9,47.6,75.3,48.5,74,48.5z"/>
	<path d="M64.1,32c0.4,0.1,3.8,0,4,0v-4h-4V32z"/>
</g>
</svg>
