<?xml version="1.0" encoding="utf-8"?>
<!-- Generator: Adobe Illustrator 19.2.1, SVG Export Plug-In . SVG Version: 6.00 Build 0)  -->
<svg version="1.1" id="Calque_1" xmlns="http://www.w3.org/2000/svg" xmlns:xlink="http://www.w3.org/1999/xlink" x="0px" y="0px"
	 viewBox="0 0 80 80" style="enable-background:new 0 0 80 80;" xml:space="preserve">
<g>
	<path d="M25.7,42.9H13.8c-3.3,0-6-2.7-6-6V26.4c0-3.6,2.9-6.5,6.5-6.5h11.1c3.4,0,6.3,2.8,6.3,6.3v10.7
		C31.7,40.2,29,42.9,25.7,42.9z M14.3,23.9c-1.4,0-2.5,1.1-2.5,2.5v10.5c0,1.1,0.9,2,2,2h11.8c1.1,0,2-0.9,2-2V26.2
		c0-1.2-1-2.3-2.3-2.3H14.3z"/>
</g>
<g>
	<path d="M20.6,72.6h-1.7c-1.1,0-2-0.9-2-2s0.9-2,2-2h1.7c1.1,0,2,0.9,2,2S21.7,72.6,20.6,72.6z"/>
</g>
<g>
	<circle cx="19.8" cy="49.3" r="2.8"/>
</g>
<g>
	<circle cx="28.3" cy="49.3" r="2.8"/>
</g>
<g>
	<circle cx="11.3" cy="49.3" r="2.8"/>
</g>
<g>
	<circle cx="19.8" cy="56.9" r="2.8"/>
</g>
<g>
	<circle cx="28.3" cy="56.9" r="2.8"/>
</g>
<g>
	<circle cx="11.3" cy="56.9" r="2.8"/>
</g>
<g>
	<circle cx="19.8" cy="64.6" r="2.8"/>
</g>
<g>
	<circle cx="28.3" cy="64.6" r="2.8"/>
</g>
<g>
	<circle cx="11.3" cy="64.6" r="2.8"/>
</g>
<path d="M72.9,18c-1.2-11.3-8.2-18-19-18c-9,0-15,3.9-17.6,11.9H11.2C5.7,12,1,16.1,1,21.6V80h27.6c5.4,0,9.4-4.3,9.4-9.7V38h0.6
	c3.4,0,6.4-2.4,6.4-5.8V23c0-3.1-2.7-6-5.8-6.1c0.6-4,1.9-7.1,4.1-9.3c1.1,1.3,3.4,2.8,6.5,1.8c2.4-0.8,3.1-0.8,3.8-0.8l0.4,0l0.4,0
	c0.7,0,1.4,0,3.8,0.8c0.7,0.2,1.4,0.4,2,0.4c1.9,0,3.4-1,4.3-1.9c2.6,2.7,3.8,6.3,4.3,9.4c-3.3,0.2-5.8,2.9-5.8,6.2v8.9
	c0,2.3,1.3,4.4,3.2,5.4c-1.1,4.6-6.4,8.2-12.7,8.2H51v5h8v-2.1c6-1.7,9.8-5.7,10.9-10.6c4.9-0.1,9.1-4.1,9.1-9v-2.2
	C79,23,76.4,19.5,72.9,18z M34,70.3c0,3.1-2.3,5.7-5.4,5.7H5V21.6c0-3.3,2.9-5.6,6.2-5.6H34V70.3z M39,21L39,21c1,0,2,1.1,2,2.1v9.1
	c0,1.1-1,1.7-2,1.8V21.5C39,21.3,39,21.2,39,21C39,21,38.9,21,39,21z M59.4,5.6c-2.9-1-4-1-5.2-1l-0.3,0l-0.3,0c-1.2,0-2.3,0-5.2,1
	c-0.9,0.3-1.5,0-1.9-0.3c2-1,4.5-1.5,7.3-1.5c3,0,5.4,0.6,7.3,1.6C60.8,5.7,60.2,5.9,59.4,5.6z M67,23.5c0-1.2,0.9-2.2,2.1-2.2
	c0,0.1-0.1,0.2-0.1,0.3V34h-0.2c-1.1,0-1.8-0.5-1.8-1.6V23.5z M75,29.3c0,1.6-1,3-2,3.9V22.8c1,1.1,2,2.6,2,4.3V29.3z"/>
</svg>
