<?xml version="1.0" encoding="utf-8"?>
<!-- Generator: Adobe Illustrator 19.1.1, SVG Export Plug-In . SVG Version: 6.00 Build 0)  -->
<svg version="1.1" id="Calque_1" xmlns="http://www.w3.org/2000/svg" xmlns:xlink="http://www.w3.org/1999/xlink" x="0px" y="0px"
	 viewBox="0 0 80 80" style="enable-background:new 0 0 80 80;" xml:space="preserve">
<g>
	<path d="M33.6,79.6c-22,0-33.5-17.5-33.5-34.6c0-19.7,14.2-34.7,33.1-34.7h0c0.5,0,1,0.3,1.4,0.7c0.4,0.4,0.6,1,0.6,1.5v31.1
		l28,13.3c1,0.5,1.4,1.6,1,2.5C59.1,72.3,47.9,79.6,33.6,79.6z M31.2,14.7c-15.6,1-27.1,13.8-27.1,30.5c0,14.7,9.2,30.5,29.5,30.5
		c11.9,0,21.3-5.8,26.1-15.9l-27.4-13c-0.7-0.3-1.1-1-1.1-1.8V14.7z"/>
</g>
<g>
	<path d="M75.3,57.8c-0.3,0-0.6-0.1-0.9-0.2L45.3,43.8c-0.7-0.3-1.1-1-1.1-1.8v-0.1c0-0.5,0.2-1,0.5-1.3l21.9-24.3
		c0.4-0.4,0.9-0.6,1.4-0.7c0.5,0,1.1,0.2,1.5,0.5c6.8,6.4,10.5,15.6,10.5,26.1c0,4.9-1,9.8-2.7,14.4c-0.2,0.5-0.6,0.9-1.1,1.1
		C75.8,57.7,75.5,57.8,75.3,57.8z M49.4,41.3L74.2,53c1.1-3.5,1.7-7.2,1.7-10.9c0-8.6-2.8-16.2-7.8-21.7L49.4,41.3z"/>
</g>
<g>
	<path d="M41.2,36.9c-0.2,0-0.5,0-0.7-0.1c-0.8-0.3-1.3-1-1.3-1.9V2.4c0-1.1,0.9-2,2-2h0.5c8.9,0,16.7,3,22.7,8.6
		c0.8,0.7,0.8,2,0.1,2.8L42.6,36.2C42.3,36.7,41.7,36.9,41.2,36.9z M43.2,4.4v25.3l17-19C55.5,6.8,49.7,4.7,43.2,4.4z"/>
</g>
</svg>
