<?xml version="1.0" encoding="utf-8"?>
<!-- Generator: Adobe Illustrator 19.1.1, SVG Export Plug-In . SVG Version: 6.00 Build 0)  -->
<svg version="1.1" id="Calque_1" xmlns="http://www.w3.org/2000/svg" xmlns:xlink="http://www.w3.org/1999/xlink" x="0px" y="0px"
	 viewBox="0 0 80 80" style="enable-background:new 0 0 80 80;" xml:space="preserve">
<path d="M68.8,28.4C66.9,11.4,56.3,1,40.1,1c-16.9,0-26.8,9.7-28.5,27.4C5.2,28.6,0,33.9,0,40.4v7.9C0,54.3,4.9,59,10.9,59h5.1
	c3.9,0,6.9-2.9,6.9-6.7V34.9c0-3.6-2.9-7-6.5-7h-0.9c0.8-8,3.7-14.6,8.6-18.4c1.2,1.4,3.3,3.1,6.2,3.1c0.9,0,1.8-0.1,2.8-0.4
	c4-1.4,5.2-1.3,6.4-1.3c0.4,0,0.7,0,1.1,0c1.2,0,2.4,0,6.4,1.3c4,1.4,7-0.6,8.7-2.3c4.9,4,8,10,8.9,18h-0.5c-4.1,0-7.3,3.7-7.3,7.8
	v16.5c0,2.7,1.5,4.9,3.8,6.1C59.9,64.6,54.5,70,47.2,72H38v7h11v-3.1C57,73.1,63.5,67,64.7,59h4.4c6,0,10.9-4.6,10.9-10.7v-7.9
	C80,34,75,28.9,68.8,28.4z M4,48.3v-7.9c0-4.2,3.1-7.6,7.2-8c0,0.5-0.2,1-0.2,1.6v21h-0.1C7.1,55,4,52.1,4,48.3z M16.5,32
	c1.4,0,2.5,1.6,2.5,3v17.3c0,1.7-1.3,2.7-2.9,2.7H15V34c0-0.5,0.3-1,0.3-2H16.5z M48.4,8.5c-4.7-1.6-6.3-1.5-7.8-1.5l-0.5,0l-0.5,0
	c-1.4,0-3.1-0.1-7.8,1.5c-2.2,0.7-3.6-0.1-4.3-0.9C31.1,5.9,35.3,5,40.1,5c4.7,0,8.8,1,12.3,2.8C51.6,8.5,50.3,9.1,48.4,8.5z
	 M61,35.7c0-1.8,1.4-3.8,3.3-3.8h0.8c0,1-0.1,1.5-0.1,2v21h-1.1c-1.7,0-2.9-1.1-2.9-2.7V35.7z M76,48.3c0,3.8-3,6.9-7,6.9V34
	c0-0.5,0-1,0-1.5c3.9,0.5,7,3.9,7,7.9V48.3z"/>
</svg>
