<?xml version="1.0" encoding="utf-8"?>
<!-- Generator: Adobe Illustrator 19.1.1, SVG Export Plug-In . SVG Version: 6.00 Build 0)  -->
<svg version="1.1" id="Calque_1" xmlns="http://www.w3.org/2000/svg" xmlns:xlink="http://www.w3.org/1999/xlink" x="0px" y="0px"
	 viewBox="0 0 80 80" style="enable-background:new 0 0 80 80;" xml:space="preserve">
<g id="XMLID_397_">
	<rect x="31" y="22" width="36.9" height="4"/>
</g>
<g id="XMLID_396_">
	<rect x="31" y="32.1" width="36.9" height="4"/>
</g>
<g id="XMLID_395_">
	<rect x="31" y="42.2" width="36.9" height="4"/>
</g>
<path d="M76.7,0.3C76,0,75.1,0.1,74.5,0.7l-6.7,6.4l-7.2-6.5c-0.8-0.7-1.9-0.7-2.7,0l-7.5,6.6l-7.6-6.6c-0.7-0.6-1.8-0.7-2.6,0
	l-8,6.7l-8-6.7c-0.6-0.5-1.4-0.6-2.1-0.3C21.4,0.6,21,1.3,21,2v55H2v6.6C2,78.8,11,80,13.8,80h54.3c4.5,0,9.9-2.8,9.9-16.4V2.1
	C78,1.3,77.5,0.6,76.7,0.3z M6,63.6V61h50v2.6c0,6.1,1.4,10,3.3,12.4H13.8C8.8,76,6,71.6,6,63.6z M74,63.6C74,76,69.5,76,68.1,76
	h-1.4c-4.2-0.7-6.7-5.1-6.7-12.4V57H25V6.3l6,5c0.7,0.6,1.8,0.6,2.5,0l8-6.7l7.6,6.7c0.8,0.7,1.9,0.7,2.6,0l7.5-6.6l7.3,6.6
	c0.8,0.7,2,0.7,2.7,0L74,6.8V63.6z"/>
</svg>
