<?xml version="1.0" encoding="utf-8"?>
<!-- Generator: Adobe Illustrator 19.1.1, SVG Export Plug-In . SVG Version: 6.00 Build 0)  -->
<svg version="1.1" id="Calque_1" xmlns="http://www.w3.org/2000/svg" xmlns:xlink="http://www.w3.org/1999/xlink" x="0px" y="0px"
	 viewBox="0 0 80 80" style="enable-background:new 0 0 80 80;" xml:space="preserve">
<path d="M78.3,10.3l-8.6-8.6C68.6,0.5,67,0,65.4,0c-1.6,0-3.1,0.6-4.3,1.8L8.9,53.9L0,79.9l26.1-8.9l52.1-52.1
	C80.6,16.5,80.6,12.7,78.3,10.3z M9.5,64.7l2-5.9l9.8,9.8l-5.9,2L9.5,64.7z M13.5,55l43.8-43.8l11.5,11.5L25,66.6L13.5,55z M75.5,16
	l-3.8,3.8L60.2,8.3L64,4.5c0.8-0.8,2.1-0.8,2.9,0l8.6,8.6C76.3,13.9,76.3,15.2,75.5,16z"/>
</svg>
