<?xml version="1.0" encoding="utf-8"?>
<!-- Generator: Adobe Illustrator 19.1.1, SVG Export Plug-In . SVG Version: 6.00 Build 0)  -->
<svg version="1.1" id="Calque_1" xmlns="http://www.w3.org/2000/svg" xmlns:xlink="http://www.w3.org/1999/xlink" x="0px" y="0px"
	 viewBox="0 0 80 80" style="enable-background:new 0 0 80 80;" xml:space="preserve">
<g>
	<g>
		<path d="M20.7,4v13.1c0,1.5-1.2,2.7-2.7,2.7H5V6.7C5,5.2,6.2,4,7.6,4H20.7 M24.7,0H7.6C4,0,1,3,1,6.7v17.1H18c3.7,0,6.7-3,6.7-6.7
			V0L24.7,0z"/>
	</g>
	<path d="M20.7,4v13.1c0,1.5-1.2,2.7-2.7,2.7H5V6.7C5,5.2,6.2,4,7.6,4H20.7 M24.7,0H7.6C4,0,1,3,1,6.7v17.1H18c3.7,0,6.7-3,6.7-6.7
		V0L24.7,0z"/>
</g>
<g>
	<path d="M34.6,4L75,4v13.2c0,1.4-1.1,2.5-2.5,2.5l-40.4,0V6.5C32.1,5.1,33.3,4,34.6,4 M34.6,0c-3.6,0-6.5,2.9-6.5,6.5v17.2l44.4,0
		c3.6,0,6.5-2.9,6.5-6.5V0L34.6,0L34.6,0z"/>
</g>
<g>
	<path d="M34.6,4L75,4v13.2c0,1.4-1.1,2.5-2.5,2.5l-40.4,0V6.5C32.1,5.1,33.3,4,34.6,4 M34.6,0c-3.6,0-6.5,2.9-6.5,6.5v17.2l44.4,0
		c3.6,0,6.5-2.9,6.5-6.5V0L34.6,0L34.6,0z"/>
</g>
<g>
	<g>
		<path d="M75,60.3v13.1c0,1.5-1.2,2.7-2.7,2.7H59.3V62.9c0-1.5,1.2-2.7,2.7-2.7H75 M79,56.3H62c-3.7,0-6.7,3-6.7,6.7V80h17.1
			c3.7,0,6.7-3,6.7-6.7V56.3L79,56.3z"/>
	</g>
	<path d="M75,60.3v13.1c0,1.5-1.2,2.7-2.7,2.7H59.3V62.9c0-1.5,1.2-2.7,2.7-2.7H75 M79,56.3H62c-3.7,0-6.7,3-6.7,6.7V80h17.1
		c3.7,0,6.7-3,6.7-6.7V56.3L79,56.3z"/>
</g>
<g>
	<path d="M7.5,60.3l40.4,0v13.2c0,1.4-1.1,2.5-2.5,2.5L5,76V62.7C5,61.4,6.1,60.3,7.5,60.3 M7.5,56.3c-3.6,0-6.5,2.9-6.5,6.5V80
		l44.4,0c3.6,0,6.5-2.9,6.5-6.5V56.3L7.5,56.3L7.5,56.3z"/>
</g>
<g>
	<path d="M7.5,60.3l40.4,0v13.2c0,1.4-1.1,2.5-2.5,2.5L5,76V62.7C5,61.4,6.1,60.3,7.5,60.3 M7.5,56.3c-3.6,0-6.5,2.9-6.5,6.5V80
		l44.4,0c3.6,0,6.5-2.9,6.5-6.5V56.3L7.5,56.3L7.5,56.3z"/>
</g>
<g>
	<path d="M21.1,32.1l40.4,0v13.2c0,1.4-1.1,2.5-2.5,2.5l-40.4,0V34.6C18.6,33.2,19.7,32.1,21.1,32.1 M21.1,28.1
		c-3.6,0-6.5,2.9-6.5,6.5v17.2l44.4,0c3.6,0,6.5-2.9,6.5-6.5V28.2L21.1,28.1L21.1,28.1z"/>
</g>
</svg>
