<?xml version="1.0" encoding="utf-8"?>
<!-- Generator: Adobe Illustrator 19.1.1, SVG Export Plug-In . SVG Version: 6.00 Build 0)  -->
<svg version="1.1" id="Calque_1" xmlns="http://www.w3.org/2000/svg" xmlns:xlink="http://www.w3.org/1999/xlink" x="0px" y="0px"
	 viewBox="0 0 80 80" style="enable-background:new 0 0 80 80;" xml:space="preserve">
<path d="M33.5,60.9l-7.6,19h-4l-7.6-19h3.6c0.4,0,0.7,0.1,0.9,0.3c0.2,0.2,0.4,0.4,0.5,0.7L22.9,72c0.2,0.4,0.3,0.9,0.5,1.5
	c0.2,0.5,0.3,1.1,0.5,1.7c0.1-0.6,0.3-1.1,0.4-1.7s0.3-1,0.5-1.5l3.7-10.2c0.1-0.2,0.3-0.5,0.5-0.7c0.2-0.2,0.6-0.3,0.9-0.3H33.5z"
	/>
<path d="M39.4,79.9H35v-19h4.4V79.9z"/>
<g>
	<path d="M30.7,21.6c-6.8,0-10.4-5.4-10.4-10.7c0-6.1,4.5-10.7,10.4-10.7c6,0,10.4,4.5,10.4,10.7C41.1,17.1,36.7,21.6,30.7,21.6z
		 M30.7,4.1c-3.8,0-6.4,2.8-6.4,6.7c0,3.3,2,6.7,6.4,6.7c4.4,0,6.4-3.4,6.4-6.7C37.1,7.5,35.1,4.1,30.7,4.1z"/>
</g>
<path d="M66.3,36.3l-13-1.9l-5.8-11.7l-3,6.1c-3-4.2-7.9-6.5-13.9-6.5c-11.8,0-17,8.4-17,16.8v12.6h23.5L36,58.4l11.6-6.1l11.6,6.1
	L57,45.4L66.3,36.3z M17.7,47.6V39c0-5.9,3.4-12.8,13-12.8c7.2,0,10.4,4,11.8,6.8l-0.7,1.3l-13,1.9l9.4,9.2l-0.4,2.1H17.7z
	 M47.6,47.7L41.3,51l1.2-7l-5.1-5l7-1l3.1-6.4l3.1,6.4l7,1l-5.1,5l1.2,7L47.6,47.7z"/>
<path d="M49.8,60.9c4.7,0,7.7,2.2,7.7,6.2c0,4-2.6,6.4-7.7,6.4h-2.3v6.4h-4.4v-19H49.8z M49.8,70.2c2.2,0,3.2-1,3.2-3.1
	c0-1.6-1-2.9-3.2-2.9h-2.3v6H49.8z"/>
</svg>
