<?xml version="1.0" encoding="utf-8"?>
<!-- Generator: Adobe Illustrator 19.1.1, SVG Export Plug-In . SVG Version: 6.00 Build 0)  -->
<svg version="1.1" id="Calque_1" xmlns="http://www.w3.org/2000/svg" xmlns:xlink="http://www.w3.org/1999/xlink" x="0px" y="0px"
	 viewBox="0 0 80 80" style="enable-background:new 0 0 80 80;" xml:space="preserve">
<path d="M67.5,13.8c2.4-1,4-3.4,4-6.3V7.3c0-3.9-2.8-6.8-6.7-6.8H16c-3.9,0-7.5,2.9-7.5,6.8v0.2c0,2.8,1.9,5.2,4.3,6.3
	C13,30.6,24,37.9,30.7,39.8c0,0,0,0.2,0,0.3c0,0,0,0.1,0,0.1c-6.3,1.8-17.9,9.3-17.9,26.2c-2.4,1-4.3,3.4-4.3,6.3v0.2
	c0,3.9,3.5,6.7,7.4,6.7h48.8c3.9,0,6.7-2.7,6.7-6.7v-0.2c0-2.8-1.5-5.2-3.9-6.2c0-16.9-11.4-24.5-17.7-26.2c0,0,0-0.1,0-0.2
	c0,0-0.1-0.2-0.1-0.2C56.6,37.9,67.4,30.6,67.5,13.8z M12.5,7.3c0-1.7,1.7-2.8,3.5-2.8h48.8c1.7,0,2.7,1.1,2.7,2.8v0.2
	c0,1.5-0.8,3-2.4,3H15.6c-1.5,0-3.1-1.5-3.1-3V7.3z M67.5,72.8c0,1.7-1,2.7-2.7,2.7H15.9c-1.7,0-3.4-0.9-3.4-2.7v-0.2
	c0-1.5,1.6-3.2,3.1-3.2h49.5c1.5,0,2.4,1.6,2.4,3.2V72.8z M48.7,43.8c5.5,1.4,14.8,7.7,15.1,21.7H17c0.3-14,9.5-20.3,15.1-21.7
	c1-0.3,2.7-1.5,2.7-3.9c0-2.2-1.4-3.5-2.7-3.8c-5.5-1.5-14.7-7.6-15.1-21.6h46.7c-0.3,14-9.6,20.2-15.1,21.6
	c-1.3,0.3-2.7,1.8-2.7,3.9C46,42.4,47.6,43.5,48.7,43.8z"/>
<path d="M54.7,51.7c-3.2-3.2-5.9-4.2-8.3-5c-3.7-1.4-4.3-4.5-4.3-6.3c0-1.7,0.7-5.2,4.2-6.2c3.4-1,7.5-3.6,9.6-6.7H24
	c2.1,3,6.2,5.7,9.6,6.7c3.5,1,4.2,4.6,4.2,6.2c0,1.8-0.6,4.9-4.3,6.3c-2.3,0.9-5,1.8-8.3,5c-3.5,3.4-4.4,7.3-5.3,10.8h40
	C59.1,59,58.2,55.2,54.7,51.7z"/>
</svg>
