<svg id="Layer_1" data-name="Layer 1" xmlns="http://www.w3.org/2000/svg" viewBox="0 0 80 80"><title>Artboard 2</title><path d="M74,3.62h-68A6,6,0,0,0,2.2,5,6,6,0,0,0,1.07,6.3a6,6,0,0,0-1,3.32v40a6,6,0,0,0,1.58,4.05,6,6,0,0,0,1.6,1.24,6,6,0,0,0,2.82.7h18v8h-16v12H68v-12H56v-8H74A6,6,0,0,0,78.09,54a6,6,0,0,0,1.3-1.74A6,6,0,0,0,80,49.64v-40a6,6,0,0,0-.78-3,6,6,0,0,0-2.81-2.54A6,6,0,0,0,74,3.62Zm-10,64v4h-52v-4H28v-12h4v12H48v-12h4v12Zm-28-12h8v8H36Zm40-6a2,2,0,0,1-2,2h-68a2,2,0,0,1-1.33-.51,2,2,0,0,1-.66-1.49v-40a2,2,0,0,1,2-2H74a2,2,0,0,1,.82.18A2,2,0,0,1,76,9.63Z"/><path d="M8,47.62H72v-36H8Zm4-32H68v28H12Z"/></svg>