<?xml version="1.0" encoding="utf-8"?>
<!-- Generator: Adobe Illustrator 19.2.1, SVG Export Plug-In . SVG Version: 6.00 Build 0)  -->
<svg version="1.1" id="Calque_1" xmlns="http://www.w3.org/2000/svg" xmlns:xlink="http://www.w3.org/1999/xlink" x="0px" y="0px"
	 viewBox="0 0 80 80" style="enable-background:new 0 0 80 80;" xml:space="preserve">
<g id="XMLID_699_">
	<path d="M55.4,59.2H24.6c-7.7,0-14-6.3-14-14V14c0-7.7,6.3-14,14-14h30.7c7.7,0,14,6.3,14,14v31.1C69.4,52.9,63.1,59.2,55.4,59.2z
		 M24.6,4c-5.5,0-10,4.5-10,10v31.1c0,5.5,4.5,10,10,10h30.7c5.5,0,10-4.5,10-10V14c0-5.5-4.5-10-10-10H24.6z"/>
</g>
<path d="M52,19.1c-0.5-4-3.7-7.1-7.7-7.1h-8.8c-4.2,0-7.8,3.2-8.4,7.1c-4.6,0.7-8.1,4.9-8.1,10v10c0,5.6,4.1,9.9,9.6,9.9h22.7
	c5.5,0,9.9-4.4,9.9-9.9v-10C61.1,23.9,57.1,19.5,52,19.1z M57.1,39.3c0,3.1-2.1,5.4-5,5.8v-7h-4v7h-3v-7h-4v7h-3v-7h-4v7h-3v-7h-4
	V45c-2.4-0.7-4-2.8-4-5.7v-10c0-3.5,2.4-6.1,5.5-6.1H31v-2.9c0-2.1,2.2-4.1,4.5-4.1h8.8c2.1,0,3.8,1.8,3.8,4.1v2.9h3.2
	c3.2,0,5.9,2.8,5.9,6.1V39.3z"/>
<g>
	<path d="M51.6,68.2c-0.3,0.5-0.7,0.6-1.2,0.3c-0.6-0.3-1.4-0.8-2.3-0.8c-0.6,0-1.5,0.2-1.8,0.9C46,69.4,46,70,47.1,70.5
		c0.6,0.3,2.4,0.7,3.4,1.3c1.6,0.9,2.4,2.5,1.9,4.7C52,78.3,50.3,80,47.4,80c-2.3,0-4.3-1.2-5-1.9l1-1.6c0.3-0.4,0.8-0.5,1.3-0.2
		c1,0.6,1.7,1,2.8,1c0.9,0,1.7-0.3,1.9-1.2c0.2-0.9-0.1-1.4-1-1.9C48,74,45.8,73.5,45,73.1c-2.1-1.1-2.4-3.4-1.7-5.2
		c0.5-1.2,2-2.7,4.7-2.7c2.5,0,4,1.1,4.5,1.6L51.6,68.2z"/>
	<path d="M25.6,68.2c-0.3,0.5-0.7,0.6-1.2,0.3c-0.6-0.3-1.4-0.8-2.3-0.8c-0.6,0-1.5,0.2-1.8,0.9c-0.2,0.7-0.2,1.3,0.9,1.8
		c0.6,0.3,2.4,0.7,3.4,1.3c1.6,0.9,2.4,2.5,1.9,4.7c-0.4,1.8-2.1,3.5-5.1,3.5c-2.3,0-4.3-1.2-5-1.9l1-1.6c0.3-0.4,0.8-0.5,1.3-0.2
		c1,0.6,1.7,1,2.8,1c0.9,0,1.7-0.3,1.9-1.2c0.2-0.9-0.1-1.4-1-1.9c-0.4-0.2-2.6-0.8-3.4-1.2c-2.1-1.1-2.4-3.4-1.7-5.2
		c0.5-1.2,2-2.7,4.7-2.7c2.5,0,4,1.1,4.5,1.6L25.6,68.2z"/>
	<path d="M41.6,72.6c0,4.2-3,7.3-7.6,7.3h-5.7V65.3H34C38.6,65.3,41.6,68.5,41.6,72.6z M38.1,72.6c0-2.8-1.5-4.7-4.1-4.7h-2.3v9.4
		H34C36.7,77.3,38.1,75.2,38.1,72.6z"/>
	<path d="M63.6,77.2v2.7h-8.8V65.2h3.4v11.9H63.6z"/>
</g>
</svg>
