<?xml version="1.0" encoding="utf-8"?>
<!-- Generator: Adobe Illustrator 19.2.1, SVG Export Plug-In . SVG Version: 6.00 Build 0)  -->
<svg version="1.1" id="Calque_1" xmlns="http://www.w3.org/2000/svg" xmlns:xlink="http://www.w3.org/1999/xlink" x="0px" y="0px"
	 viewBox="0 0 80 80" style="enable-background:new 0 0 80 80;" xml:space="preserve">
<g>
	<path d="M58.4,69.9c-5,0-10.1-1.7-14-5.1l-0.1-0.1L16.5,36.9c-8.1-9.1-8-22.1,0.1-30.2l4.6-4.6c1.2-1.2,2.8-1.8,4.5-1.8
		c1.7,0,3.3,0.7,4.5,1.8l9.3,9.3c1.2,1.2,1.8,2.7,1.8,4.4c0,1.7-0.6,3.2-1.8,4.4l-4.1,4.1c-1,1-1.6,2.6-1.6,4.4s0.6,3.3,1.6,4.3
		L48.2,46c2.1,2.1,5.6,2.1,7.7,0.1l4.2-5.1c1.2-1.2,2.7-1.8,4.4-1.8c1.7,0,3.2,0.6,4.4,1.8l9.3,9.3c2.5,2.5,2.5,6.5,0,8.9l-4.6,4.6
		C69.5,67.9,63.9,69.9,58.4,69.9z M47.1,61.8c6.8,5.8,17.4,5.4,23.7-0.9l4.6-4.6c0.9-0.9,0.9-2.4,0-3.3L66,43.8
		c-0.8-0.8-2.2-0.8-3.1-0.1l-4.2,5.1c-3.7,3.7-9.7,3.7-13.4,0L32.5,35.9c-1.8-1.8-2.8-4.4-2.8-7.2s1-5.4,2.8-7.2l4.1-4.1
		c0.4-0.4,0.6-1,0.6-1.6c0-0.6-0.2-1.1-0.6-1.6L27.2,5c-0.9-0.9-2.4-0.9-3.3,0l-4.6,4.6c-6.6,6.6-6.6,17.2,0,24.6L47.1,61.8z"/>
</g>
<g>
	<path d="M47.6,34c-0.5,0-1-0.2-1.4-0.6c-0.5-0.5-0.7-1.2-0.5-1.9L51,11.7c0.2-0.7,0.7-1.2,1.4-1.4c0.7-0.2,1.4,0,1.9,0.5l3,3
		L66,5.3c0.4-0.4,0.9-0.6,1.4-0.6l0,0c0.5,0,1,0.2,1.4,0.6l5,5c0.8,0.8,0.8,2,0,2.8l-8.6,8.6l3.6,3.6c0.5,0.5,0.7,1.2,0.5,1.9
		c-0.2,0.7-0.7,1.2-1.4,1.4l-19.8,5.3C48,34,47.8,34,47.6,34z M54,16.1l-3.5,13.1l13.1-3.5L61,23.1c-0.8-0.8-0.8-2,0-2.8l8.6-8.6
		l-2.2-2.2l-8.6,8.6c-0.8,0.8-2,0.8-2.8,0L54,16.1z"/>
</g>
<g>
	<path d="M2,79.7c-0.5,0-1-0.2-1.4-0.6c-0.5-0.5-0.7-1.2-0.5-1.9l5.3-19.8c0.2-0.7,0.7-1.2,1.4-1.4c0.7-0.2,1.4,0,1.9,0.5l3,3
		l8.6-8.6c0.8-0.8,2-0.8,2.8,0l5,5c0.8,0.8,0.8,2,0,2.8l-8.6,8.6l3.6,3.6c0.5,0.5,0.7,1.2,0.5,1.9c-0.2,0.7-0.7,1.2-1.4,1.4
		L2.5,79.6C2.3,79.6,2.2,79.7,2,79.7z M8.3,61.7L4.8,74.8l13.1-3.5l-2.6-2.6c-0.8-0.8-0.8-2,0-2.8l8.6-8.6l-2.2-2.2l-8.6,8.6
		c-0.8,0.8-2,0.8-2.8,0L8.3,61.7z"/>
</g>
</svg>
