<?xml version="1.0" encoding="utf-8"?>
<!-- Generator: Adobe Illustrator 19.1.1, SVG Export Plug-In . SVG Version: 6.00 Build 0)  -->
<svg version="1.1" id="Calque_1" xmlns="http://www.w3.org/2000/svg" xmlns:xlink="http://www.w3.org/1999/xlink" x="0px" y="0px"
	 viewBox="0 0 80 80" style="enable-background:new 0 0 80 80;" xml:space="preserve">
<g>
	<g>
		<rect x="41.6" y="13.4" width="38.4" height="4"/>
	</g>
	<g>
		<rect x="41.6" y="23.7" width="38.4" height="4"/>
	</g>
</g>
<g>
	<g>
		<rect x="41.6" y="55" width="38.4" height="4"/>
	</g>
	<g>
		<rect x="41.6" y="65.3" width="38.4" height="4"/>
	</g>
</g>
<g>
	<g>
		<path d="M33.6,78.9H0V45.4h33.6V78.9z M4,74.9h25.6V49.4H4V74.9z"/>
	</g>
</g>
<g>
	<g>
		<path d="M33.6,37.4H0V3.8h33.6V37.4z M4,33.4h25.6V7.8H4V33.4z"/>
	</g>
	<g id="XMLID_158_">
		<path d="M12.7,27.8L7,22.1c-1.9-1.9,1-4.7,2.8-2.8l4.3,4.3l10.1-10.2c1.9-1.9,4.7,1,2.8,2.8L15.5,27.8
			C14.7,28.5,13.5,28.6,12.7,27.8z"/>
	</g>
</g>
</svg>
