<?xml version="1.0" encoding="utf-8"?>
<!-- Generator: Adobe Illustrator 20.0.0, SVG Export Plug-In . SVG Version: 6.00 Build 0)  -->
<svg version="1.1" id="Layer_1" xmlns="http://www.w3.org/2000/svg" xmlns:xlink="http://www.w3.org/1999/xlink" x="0px" y="0px"
	 viewBox="0 0 80 80" style="enable-background:new 0 0 80 80;" xml:space="preserve">
<title>Artboard 5</title>
<g>
	<path d="M80,47C80,47,79.9,44.2,80,47L80,47z"/>
	<path d="M72.2,36.7c0-6.9-3.2-13.5-9.8-16.3c-1.4-0.6-3-1-4.5-1.2c-0.7-0.1-1.5,0-2-0.4c-0.5-0.5-0.9-1.5-1.3-2.2
		c-1.9-2.7-4.7-4.8-7.8-6C42.2,8.9,37,9,32.6,11c-3.4,1.5-6.3,4.1-8,7.4c-0.3,0.6-0.1,0.4-0.6,0.6c-0.4,0.2-1.1,0.1-1.5,0.1
		c-1.5,0.2-2.9,0.5-4.3,1.1c-2.9,1.2-5.5,3.3-7.3,6c-0.9,1.4-1.6,3-2.1,4.6c-0.5,1.9-0.4,3.7-0.7,5.6C3,37.9-0.4,43,0,48.3
		c0.5,5.6,5.4,11.3,11.3,11.6c3.8,0.2,7.7,0,11.5,0c14.1,0,28.1,0,42.2,0c1.2,0,2.5,0.1,3.7,0C75.2,59.4,80.3,53.1,80,47
		C79.8,42.2,76.7,38,72.2,36.7z M75.9,48.5c-0.4,3.3-3,6.2-6.2,7.1c-1.3,0.4-2.8,0.2-4.1,0.2c-3.5,0-7.1,0-10.6,0
		c-7.2,0-14.3,0-21.5,0c-4.2,0-8.5,0-12.7,0c-2,0-4.1,0-6.1,0c-1.8,0-3.7,0.1-5.4-0.7c-3.6-1.6-5.8-5.5-5-9.4c0.4-1.8,1.4-3.7,3-4.8
		c1.5-1.1,3.4-1.1,5.1-1.7c-1.4-5.5,0.9-11.9,5.9-14.7c2.4-1.3,4.9-1.6,7.6-1.5c1.1,0,1,0,1.4-1.1c0.5-1.4,1.2-2.6,2.1-3.8
		c3.9-4.8,11.1-6,16.6-3.5c2.5,1.1,4.6,3,6,5.4c0.5,0.8,0.8,2.7,1.6,3c0.6,0.3,1.9-0.1,2.6-0.1c0.8,0,1.6,0.1,2.4,0.3
		c3.3,0.8,6.1,2.9,7.8,5.8c1.9,3.3,1.9,6.7,1.4,10.3c1.6,0.6,3.3,1.1,4.9,1.9C75.1,42.7,76.3,45.7,75.9,48.5z"/>
	<path d="M39.8,36.9C34.6,34,29.4,31,24,28.3c0,1.3,0,2.6,0,3.9c0,0.3-0.1,0.5,0.1,0.7c0.3,0.3,1.3,0.6,1.6,0.8
		c2.2,1,4.4,2.1,6.6,3.1c0.7,0.3,1.4,0.7,2.1,1c0.3,0.1,1.1,0.4,1.3,0.6c0.2,0.3,0.2,0.2,0,0.4c-0.4,0.4-1.3,0.7-1.8,0.9
		c-2.2,1.1-4.4,2.1-6.5,3.2c-0.7,0.4-1.5,0.7-2.2,1.1c-0.2,0.1-0.8,0.3-1,0.5C23.8,45,24,46.4,24,47c0,0.7-0.1,1.6,0,2.3
		c3.1-1.7,6.1-3.3,9.2-5c1.8-1,3.7-2,5.5-3c0.3-0.2,1-0.4,1.2-0.7C40.2,40.2,40.2,37.1,39.8,36.9z"/>
	<path d="M44,47.9v3.9h15.9c0.1-0.3,0.1-3.8,0-3.9C59.5,47.8,44.2,47.8,44,47.9z"/>
</g>
</svg>
