<?xml version="1.0" encoding="utf-8"?>
<!-- Generator: Adobe Illustrator 21.0.0, SVG Export Plug-In . SVG Version: 6.00 Build 0)  -->
<svg version="1.1" id="Calque_1" xmlns="http://www.w3.org/2000/svg" xmlns:xlink="http://www.w3.org/1999/xlink" x="0px" y="0px"
	 viewBox="0 0 80 80" style="enable-background:new 0 0 80 80;" xml:space="preserve">
<style type="text/css">
	.st0{fill:#162843;}
</style>
<path class="st0" d="M55.7,21.6c0,0,0.1-0.1,0.1-0.2c0-0.1,0.1-0.1,0.1-0.2c0-0.1,0-0.1,0.1-0.2c0-0.1,0-0.1,0.1-0.2
	c0.1-0.3,0.1-0.5,0-0.8c0-0.1,0-0.1-0.1-0.2c0-0.1,0-0.1-0.1-0.2c0-0.1-0.1-0.1-0.1-0.2c0-0.1-0.1-0.1-0.1-0.2
	c-0.1-0.1-0.2-0.2-0.3-0.3l-8-8c-0.8-0.8-2-0.8-2.8,0c-0.8,0.8-0.8,2,0,2.8l4.6,4.6H26c-1.1,0-2,0.9-2,2s0.9,2,2,2h23.2l-4.6,4.6
	c-0.8,0.8-0.8,2,0,2.8c0.4,0.4,0.9,0.6,1.4,0.6s1-0.2,1.4-0.6l8-8C55.5,21.8,55.6,21.7,55.7,21.6z"/>
<path class="st0" d="M70,30.5c-4.8,0-8.9,3.4-9.8,8H19.8c-0.9-4.6-5-8-9.8-8c-5.5,0-10,4.5-10,10c0,5.5,4.5,10,10,10
	c4.8,0,8.9-3.4,9.8-8h40.4c0.9,4.6,5,8,9.8,8c5.5,0,10-4.5,10-10C80,35,75.5,30.5,70,30.5z M10,46.5c-3.3,0-6-2.7-6-6s2.7-6,6-6
	s6,2.7,6,6S13.3,46.5,10,46.5z M70,46.5c-3.3,0-6-2.7-6-6s2.7-6,6-6s6,2.7,6,6S73.3,46.5,70,46.5z"/>
<path class="st0" d="M54,58.5H30.8l4.6-4.6c0.8-0.8,0.8-2,0-2.8c-0.8-0.8-2-0.8-2.8,0l-8,8c-0.1,0.1-0.2,0.2-0.3,0.3
	c0,0-0.1,0.1-0.1,0.1c0,0.1-0.1,0.1-0.1,0.2c0,0.1,0,0.1-0.1,0.2c0,0.1,0,0.1-0.1,0.2c-0.1,0.3-0.1,0.5,0,0.8c0,0.1,0,0.1,0.1,0.2
	c0,0.1,0,0.1,0.1,0.2c0,0.1,0.1,0.1,0.1,0.2c0,0,0,0.1,0.1,0.1c0.1,0.1,0.2,0.2,0.3,0.3l8,8c0.4,0.4,0.9,0.6,1.4,0.6s1-0.2,1.4-0.6
	c0.8-0.8,0.8-2,0-2.8l-4.6-4.6H54c1.1,0,2-0.9,2-2S55.1,58.5,54,58.5z"/>
</svg>
