<?xml version="1.0" encoding="utf-8"?>
<!-- Generator: Adobe Illustrator 20.0.0, SVG Export Plug-In . SVG Version: 6.00 Build 0)  -->
<svg version="1.1" id="Calque_1" xmlns="http://www.w3.org/2000/svg" xmlns:xlink="http://www.w3.org/1999/xlink" x="0px" y="0px"
	 viewBox="0 0 80 80" style="enable-background:new 0 0 80 80;" xml:space="preserve">
<path d="M40,0C17.9,0,0,17.9,0,40c0,22.1,17.9,40,40,40s40-17.9,40-40C80,17.9,62.1,0,40,0z M62.5,29.3C57,34.5,51.4,39.7,45.8,44.9
	L33.4,56.4c-1.2,1.1-3.1,1-4.2-0.1c-0.8-0.9-1.7-1.8-2.5-2.7l-10-10.7c-1.1-1.2-1-3.1,0.1-4.2c0.8-0.7,1.6-1.5,2.3-2.2l0.5-0.5
	c1.2-1.1,3.1-1,4.2,0.1c2.6,2.8,5.1,5.5,7.7,8.2c0.7-0.7,1.4-1.3,2.2-2l0,0l7.9-7.4c4-3.7,8-7.5,12-11.2l2-1.9
	c1.2-1.1,3.1-1,4.2,0.1l2.8,3C63.8,26.3,63.7,28.2,62.5,29.3z"/>
</svg>
