<?xml version="1.0" encoding="utf-8"?>
<!-- Generator: Adobe Illustrator 19.1.1, SVG Export Plug-In . SVG Version: 6.00 Build 0)  -->
<svg version="1.1" id="Calque_1" xmlns="http://www.w3.org/2000/svg" xmlns:xlink="http://www.w3.org/1999/xlink" x="0px" y="0px"
	 viewBox="0 0 80 80" style="enable-background:new 0 0 80 80;" xml:space="preserve">
<path d="M60.2,40.5c-0.6,0-1.5,0.1-2.4,0.4C57,39,55.6,38,54,37.5c2.8-3.9,4.4-8.9,4.4-14.4c0-13.6-9.2-23.1-22.3-23.1
	c-12.9,0-22.3,9.7-22.3,23.1c0,11,6.3,19.8,16.3,22.3v4c0,0-0.1,0-0.1,0l-1.6-1.5c-1.3-1.3-2.9-1.9-4.5-1.9c0,0-0.1,0-0.1,0
	c-1.6,0-3.1,0.7-4.4,1.9c-2.2,2.2-2.7,6.1,0.2,9l4.3,4.3c2.6,2.7,4.6,5.7,6.1,8.8c2.1,4.6,3.2,8.5,3.2,8.5c0.2,0.9,1,1.4,1.9,1.4
	h23.2c0.9,0,1.6-0.6,1.9-1.4c0-0.1,3-9,4.2-13.3c1.3-4.5,1.6-10,1.6-10.3c0,0-0.1-0.1-0.1-0.1v-7.8C66.1,42.2,63.1,40.5,60.2,40.5z
	 M17.8,23.2c0-11.1,7.7-19.1,18.3-19.1c10.8,0,18.3,7.9,18.3,19.1c0,5.5-1.9,10.5-5.3,13.9c-0.9-1.3-2.3-2-3.7-2.2
	c3.2-2.7,5.1-6.9,5.1-11.7c0-8.7-6.1-15-14.5-15c-8.4,0-14.5,6.3-14.5,15c0,4.9,2.1,9.3,5.6,12.1c0.9,0.7,1.9,1.2,2.9,1.7v4.4
	C22.1,38.6,17.8,30.5,17.8,23.2z M30.1,26.6v5.7c0-0.1-0.3-0.2-0.4-0.3c-2.5-2-4-5.2-4-8.9c0-6.4,4.4-11,10.5-11
	c7.3,0,10.5,5.5,10.5,11c0,4-1.5,7.3-4.5,9.2v-5.8c0-4.9-3-6.6-5.9-6.6C33.2,20,30.1,21.7,30.1,26.6z M62.1,54.9
	c0,0.5-0.3,5.5-1.4,9.3c-1,3.2-2.8,9.1-3.7,11.8H36.7c-0.5-1.6-1.5-4.5-3-7.7c-1.6-3.5-3.9-6.9-6.9-9.9L22.5,54
	c-1.3-1.3-0.8-2.7-0.2-3.3c0.4-0.4,0.9-0.7,1.6-0.7c0,0,0,0,0,0c0.7,0,1.3,0.4,1.6,0.7l1.6,1.6c1.5,1.5,2.4,2.3,2.7,2.6
	c0.1,0.1,0.2,0.1,0.2,0.1v1.3c0,1.1,0.9,2,2,2s2-0.9,2-2V26.6c0-2.2,0.8-2.6,2.1-2.6c1,0,1.9,0.2,1.9,2.6v19.8c0,1.1,0.9,2,2,2
	s2-0.9,2-2v-5c0-2.2,0.8-2.6,2.1-2.6c1,0,1.9,0.2,1.9,2.6v6.2c0,1.1,0.9,2,2,2s2-0.9,2-2v-5.6c1-0.3,1.4-0.6,2-0.6c1,0,2,0.2,2,2.6
	v6.2c0,1.1,0.9,2,2,2s2-0.9,2-2v-5c1-0.3,1.4-0.6,2-0.6c1,0,2,0.2,2,2.6V54.9z"/>
</svg>
