<?xml version="1.0" encoding="utf-8"?>
<!-- Generator: Adobe Illustrator 19.2.1, SVG Export Plug-In . SVG Version: 6.00 Build 0)  -->
<svg version="1.1" id="Calque_1" xmlns="http://www.w3.org/2000/svg" xmlns:xlink="http://www.w3.org/1999/xlink" x="0px" y="0px"
	 viewBox="0 0 80 80" style="enable-background:new 0 0 80 80;" xml:space="preserve">
<g>
	<path d="M53.3,80c-5.2,0-10.5-1.8-14.6-5.3l-0.1-0.1l-29-29c-8.4-9.4-8.3-22.9,0.1-31.3l4.8-4.8c2.5-2.5,6.7-2.5,9.2,0l9.7,9.7
		c2.5,2.5,2.5,6.6,0,9l-4.3,4.3c-2.3,2.3-2.3,6.9,0,9.2l13.5,13.5c2.2,2.2,5.9,2.3,8.2,0.1l4.3-5.3c2.5-2.5,6.6-2.5,9,0l9.7,9.7
		c2.5,2.5,2.5,6.7,0,9.2l-4.8,4.8C64.8,77.8,59,80,53.3,80z M41.4,71.7c7.1,6.1,18.2,5.7,24.8-0.9L71,66c0.5-0.5,0.7-1.1,0.7-1.8
		c0-0.7-0.3-1.3-0.7-1.8l-9.7-9.7c-0.9-0.9-2.4-0.9-3.3-0.1L53.6,58c-3.8,3.8-10.1,3.8-13.9,0L26.3,44.5c-3.8-3.8-3.8-11,0-14.9
		l4.3-4.3c0.9-0.9,0.9-2.5,0-3.4l-9.7-9.7c-1-1-2.6-1-3.5,0l-4.8,4.8c-6.9,6.9-6.9,18,0,25.8L41.4,71.7z"/>
</g>
<g>
	<path d="M49.1,40.2v-15h-6.4c-0.7,0-1.4-0.4-1.7-1c-0.4-0.6-0.4-1.4,0-2L53.2,1c0.4-0.6,1-1,1.7-1c0.7,0,1.4,0.4,1.7,1l12.3,21.2
		c0.4,0.6,0.4,1.4,0,2c-0.4,0.6-1,1-1.7,1h-5.6v4.5h13.1c1.1,0,2,0.9,2,2v8.5c0,1.1-0.9,2-2,2H51.1C50,42.2,49.1,41.3,49.1,40.2z
		 M72.6,33.7H59.6c-1.1,0-2-0.9-2-2v-8.5c0-1.1,0.9-2,2-2h4.2L54.9,6l-8.8,15.2h4.9c1.1,0,2,0.9,2,2v15h19.6V33.7z"/>
</g>
</svg>
