<?xml version="1.0" encoding="utf-8"?>
<!-- Generator: Adobe Illustrator 19.1.1, SVG Export Plug-In . SVG Version: 6.00 Build 0)  -->
<svg version="1.1" id="Calque_1" xmlns="http://www.w3.org/2000/svg" xmlns:xlink="http://www.w3.org/1999/xlink" x="0px" y="0px"
	 viewBox="0 0 80 80" style="enable-background:new 0 0 80 80;" xml:space="preserve">
<g>
	<rect x="27" y="54.8" width="26.9" height="4"/>
</g>
<g>
	<rect x="27" y="62.9" width="26.9" height="4"/>
</g>
<g>
	<circle cx="15.1" cy="33.4" r="3"/>
</g>
<path d="M70,19h-9V5H19v14h-7.9C5,19,0,24,0,30.1v17C0,52.6,4.4,57,9.9,57H19v18h43V57h7.3C75.2,57,80,52.2,80,46.3V29
	C80,23.5,75.5,19,70,19z M23,9h34v10H23V9z M58,71H23V47h35V71z M76,46.3c0,3.7-3,6.7-6.7,6.7H62V43H19v10H9.9C6.6,53,4,50.4,4,47.1
	v-17c0-3.9,3.2-7.1,7.1-7.1H70c3.3,0,6,2.7,6,6V46.3z"/>
</svg>
