<?xml version="1.0" encoding="utf-8"?>
<!-- Generator: Adobe Illustrator 21.1.0, SVG Export Plug-In . SVG Version: 6.00 Build 0)  -->
<svg version="1.1" id="Calque_1" xmlns="http://www.w3.org/2000/svg" xmlns:xlink="http://www.w3.org/1999/xlink" x="0px" y="0px"
	 viewBox="0 0 80 80" style="enable-background:new 0 0 80 80;" xml:space="preserve">
<title>lock</title>
<g>
	<path d="M69,28h-9v-8C60,9,51,0,40,0C29,0,20,9,20,20v8h-9c-1.7,0-3,1.3-3,3v46c0,1.7,1.3,3,3,3h58c1.7,0,3-1.3,3-3V31
		C72,29.3,70.7,28,69,28z M24,20c0-8.8,7.2-16,16-16s16,7.2,16,16v8H24V20z M68,76H12V32h56V76z"/>
	<path d="M40,63.9c2.2,0,4-1.8,4-4v-12c0-2.2-1.8-4-4-4s-4,1.8-4,4v12C36,62.1,37.8,63.9,40,63.9z"/>
</g>
</svg>
