<?xml version="1.0" encoding="utf-8"?>
<!-- Generator: Adobe Illustrator 19.2.1, SVG Export Plug-In . SVG Version: 6.00 Build 0)  -->
<svg version="1.1" id="Calque_1" xmlns="http://www.w3.org/2000/svg" xmlns:xlink="http://www.w3.org/1999/xlink" x="0px" y="0px"
	 viewBox="0 0 80 80" style="enable-background:new 0 0 80 80;" xml:space="preserve">
<path d="M68.1,27.5c0-6.8-5.6-12.4-12.4-12.4c-6.8,0-12.4,5.4-12.4,12.2c0,3.2,1.2,6.2,3.3,8.2H33.6c2-2,3.3-5,3.3-8.2
	c0-6.8-5.5-12.3-12.4-12.3S12,20.6,12,27.4c0,6.7,5,12.2,12,12.4l32,0C63,39.7,68.1,34.2,68.1,27.5z M16.1,27.5
	c0-4.6,3.8-8.4,8.4-8.4s8.4,3.8,8.4,8.4s-3.8,8.4-8.4,8.4S16.1,32.1,16.1,27.5z M55.7,35.8c-4.6,0-8.4-3.8-8.4-8.4s3.8-8.4,8.4-8.4
	c4.6,0,8.4,3.8,8.4,8.4S60.3,35.8,55.7,35.8z"/>
<g id="XMLID_1_">
	<g>
		<path d="M13,70.5c-0.3,0-0.7-0.1-1-0.3c-0.6-0.4-1-1-1-1.7v-16c0-0.7,0.4-1.4,1-1.7s1.4-0.4,2,0l13.9,8c0.6,0.4,1,1,1,1.7
			s-0.4,1.4-1,1.7l-13.9,8C13.7,70.4,13.3,70.5,13,70.5z M15,56v9.1l7.9-4.5L15,56z"/>
	</g>
</g>
<g>
	<path d="M18,78.5c-9.9,0-18-8.1-18-18s8.1-18,18-18s18,8.1,18,18S27.9,78.5,18,78.5z M18,46.5c-7.7,0-14,6.3-14,14s6.3,14,14,14
		s14-6.3,14-14S25.7,46.5,18,46.5z"/>
</g>
<g>
	<path d="M70,1.5H10C4.5,1.5,0,6,0,11.5v32c0,1.2,0.2,2.4,0.7,3.5c1-1.3,2.1-2.4,3.3-3.5c0,0,0,0,0-0.1v-32c0-3.3,2.7-6,6-6h60
		c3.3,0,6,2.7,6,6v32c0,3.3-2.7,6-6,6H37c0.7,1.3,1.3,2.6,1.8,4H70c5.5,0,10-4.5,10-10v-32C80,6,75.5,1.5,70,1.5z"/>
</g>
</svg>
