<?xml version="1.0" encoding="utf-8"?>
<!-- Generator: Adobe Illustrator 21.0.0, SVG Export Plug-In . SVG Version: 6.00 Build 0)  -->
<svg version="1.1" id="Calque_1" xmlns="http://www.w3.org/2000/svg" xmlns:xlink="http://www.w3.org/1999/xlink" x="0px" y="0px"
	 viewBox="0 0 80 80" style="enable-background:new 0 0 80 80;" xml:space="preserve">
<style type="text/css">
	.st0{fill:#1D1D1B;}
</style>
<g>
	<path class="st0" d="M40,72.8c-2.4,0-4.8-0.9-6.6-2.7c-1.8-1.8-2.8-4.1-2.8-6.6s1-4.9,2.8-6.6C35.1,55,37.5,54,40,54s4.9,1,6.6,2.8
		c3.7,3.7,3.7,9.6,0,13.3C44.8,71.9,42.4,72.8,40,72.8z M40,58c-1.4,0-2.8,0.6-3.8,1.6h0c-1,1-1.6,2.4-1.6,3.8s0.6,2.8,1.6,3.8
		c1,1,2.4,1.6,3.8,1.6s2.8-0.6,3.8-1.6c2.1-2.1,2.1-5.5,0-7.6C42.8,58.6,41.4,58,40,58z M34.8,58.2L34.8,58.2L34.8,58.2z"/>
</g>
<g>
	<path class="st0" d="M26.8,59.2c-1.1,0-2.1-0.4-2.8-1.2l-7.8-7.5c-1.4-1.4-1.6-3.8-0.4-5.3c1.3-1.8,2.9-3.5,4.9-5.1
		c11.2-9.2,27.4-9.2,38.5,0c1.6,1.3,3.2,2.9,5,5.1c0,0,0,0.1,0.1,0.1c1.2,1.6,1,3.9-0.4,5.3L56.1,58c-1,0.9-2.2,1.3-3.4,1.1
		c-1.2-0.2-2.2-0.8-2.9-1.9c-0.6-0.9-1.2-1.7-2.2-2.5c-4.3-3.8-11-3.8-15.2,0c-0.8,0.7-1.5,1.5-2.2,2.6c-0.6,1-1.7,1.7-3,1.8
		C27.1,59.2,27,59.2,26.8,59.2z M40,37.1c-5.9,0-11.9,2-16.7,6c-1.7,1.4-3.2,2.9-4.3,4.4c0,0,0,0.1,0,0.1l7.8,7.5c0,0,0.1,0,0.1,0
		c1-1.4,1.9-2.4,2.8-3.3c5.8-5.2,14.8-5.2,20.6,0c1.2,1.1,2.1,2.1,2.8,3.3c0.1,0,0.1,0,0.2,0l7.8-7.5c0,0,0,0,0-0.1
		c-1.6-1.9-2.9-3.3-4.4-4.5c0,0,0,0,0,0C51.9,39.1,45.9,37.1,40,37.1z"/>
</g>
<g>
	<path class="st0" d="M11.7,44.4c-1,0-1.9-0.3-2.7-1l-7.8-7.6c0,0-0.1-0.1-0.1-0.1c-1.4-1.6-1.4-3.9-0.1-5.4c0.8-1,1.7-2,2.8-3.1
		c19.9-19.9,52.5-19.9,72.5,0c0,0,0.1,0.1,0.1,0.1l2.7,3c0.7,0.8,1,1.8,1,2.8c0,1.1-0.5,2.1-1.2,2.8l-7.7,7.5
		c-0.9,0.8-2,1.2-3.1,1.1C67,44.4,66,43.9,65.3,43c-0.8-0.9-1.6-1.8-2.3-2.5c-12.7-12.6-33.3-12.6-45.9,0c0,0-0.1,0.1-0.1,0.1
		c-0.7,0.6-1.4,1.4-2.1,2.3c0,0-0.1,0.1-0.1,0.1C14,44,12.8,44.4,11.7,44.4z M4.1,33l7.6,7.4c0,0,0,0,0.1-0.1c0.8-1.1,1.7-2,2.5-2.8
		c14.2-14.1,37.2-14.1,51.5,0c0.9,0.9,1.7,1.8,2.5,2.7c0,0,0.1,0.1,0.2,0l7.6-7.4l-2.6-3C55,11.6,25,11.6,6.6,30
		c-0.9,0.9-1.8,1.9-2.6,2.8C4,32.9,4,33,4.1,33z M15.7,39.1L15.7,39.1L15.7,39.1z"/>
</g>
</svg>
