<?xml version="1.0" encoding="utf-8"?>
<!-- Generator: Adobe Illustrator 20.0.0, SVG Export Plug-In . SVG Version: 6.00 Build 0)  -->
<svg version="1.1" id="Layer_1" xmlns="http://www.w3.org/2000/svg" xmlns:xlink="http://www.w3.org/1999/xlink" x="0px" y="0px"
	 viewBox="0 0 80 80" style="enable-background:new 0 0 80 80;" xml:space="preserve">
<title>Artboard 5 copy</title>
<path d="M75.4,38.6c-1-0.7-2.1-1.2-3.3-1.6c0-5-1.5-9.7-5.3-13.1c-1.7-1.6-3.7-2.7-5.9-3.4c-1.1-0.4-2.3-0.6-3.5-0.7
	c-1.2-0.1-1.3,0.1-1.9-0.9C51.4,11.6,42.1,8.6,34.3,11c-2.3,0.7-4.6,2-6.4,3.6c-0.9,0.8-1.7,1.6-2.3,2.6c-0.4,0.5-0.7,1-1,1.6
	c-0.1,0.1-0.3,0.7-0.4,0.8c-0.2,0.1-1.2,0-1.4,0.1c-0.6,0-1.2,0.1-1.8,0.2c-1.2,0.2-2.4,0.6-3.6,1.1c-1.9,0.9-3.7,2.1-5.2,3.7
	c-1.6,1.7-2.7,3.7-3.5,5.9C8.4,31.6,8.1,32.8,8,34c-0.1,0.9,0.2,2.2-0.4,2.7c-0.3,0.2-1,0.3-1.4,0.5c-0.5,0.2-1,0.5-1.5,0.8
	c-0.9,0.6-1.7,1.5-2.4,2.4c-1.3,1.8-2.2,4-2.3,6.3c-0.3,4.4,2.2,8.5,5.9,10.8c3.2,2,6.5,1.9,10,1.9c0,1.9-0.4,3.9,1.6,4.7
	c0.8,0.3,1.6,0.6,2.3,0.9c3.2,1.2,6.4,2.4,9.6,3.6c3.1,1.2,6.2,2.3,9.3,3.5c0.7,0.3,1.5,0.6,2.2,0.8c1.9,0.7,4-0.9,5.6-1.7
	c3.7-1.8,7.6-3.4,11.4-5.1c0.9-0.4,1.8-0.8,2.7-1.2c0.8-0.4,2-0.7,2.6-1.3c1-1,0.6-3,0.6-4.2c3,0,6,0.2,8.8-1.1
	c2.7-1.3,5-3.5,6.3-6.2C81.3,47.5,79.7,41.5,75.4,38.6C74.5,37.9,78.2,40.5,75.4,38.6z M39.9,68.3c-5.6-2.1-11.2-4.2-16.8-6.3
	c-0.8-0.3-2.3-0.6-3-1.1c-0.4-0.3-0.3-0.3-0.3-0.9c0-3.3,0-6.6,0-9.9c0-2.8,0-5.7,0-8.5c5.6,2.1,11.2,4.2,16.8,6.3
	c0.8,0.3,2.3,0.6,3,1.1c0.4,0.3,0.3,0.3,0.3,0.9c0,3.3,0,6.6,0,9.9C39.9,62.6,39.9,65.5,39.9,68.3z M42.1,45.5
	c-0.4,0.2-1.2-0.3-1.5-0.4c-1-0.4-1.9-0.7-2.9-1.1c-2.2-0.8-4.4-1.7-6.6-2.5c-2.7-1-5.5-2-8.2-3.1c0.5-0.5,1.3-0.8,1.9-1.2
	c1.4-0.9,2.8-1.7,4.2-2.6c3-1.9,6.1-3.7,9.1-5.6c0.4-0.2,1.1-0.9,1.6-0.9c0.6,0,1.6,0.9,2.1,1.2c3,1.7,6,3.4,9,5.1
	c2.3,1.3,4.6,2.6,6.9,3.9C52.6,40.9,47.3,43.1,42.1,45.5z M60,60.9l-16,7.2c0-5.4,0-10.7,0-16.1c0-0.7-0.3-2.1,0-2.8
	c0.1-0.4,0.4-0.4,0.8-0.6c2.7-1.2,5.4-2.4,8.1-3.6c2.4-1.1,4.8-2.1,7.1-3.2V60.9z M74.5,52c-1.5,2.1-3.9,3.3-6.5,3.4
	c-1.3,0-2.6,0-3.9,0c0-3.1,0-6.2,0-9.4c0-1.5,0-3,0-4.5c0-1.1,0.5-3-0.2-4c-0.6-0.9-2-1.4-2.9-1.9c-1.1-0.6-2.2-1.2-3.2-1.9
	c-3.9-2.2-7.9-4.5-11.8-6.7c-1.7-0.9-3.3-2-5-2.8c-2.3-1.1-4.8,1.4-6.7,2.5c-3.8,2.3-7.6,4.6-11.4,6.9c-1.8,1.1-3.5,2.3-5.4,3.1
	c-1.6,0.7-1.5,2-1.5,3.4c0,1.7,0,3.4,0,5.2c0,3.4,0,6.8,0,10.1c-2.5,0-5,0.3-7.3-0.9c-2-1.1-3.8-3-4.4-5.2C3.6,46.9,4.4,44,6,42.2
	c1.7-1.8,4-2,6.2-2.7c-0.5-4.3-0.3-8.3,2.6-11.7c2.8-3.3,6.8-4.4,11-4.2c0.8,0,0.8,0.2,1.1-0.3c0.5-0.7,0.7-1.8,1.2-2.6
	c0.9-1.7,2.3-3.2,3.9-4.2c3.7-2.4,8.6-2.9,12.7-1.5c4.4,1.5,6.8,4.6,8.5,8.8c4.1-0.2,7.9,0.3,11.1,3.3c1.7,1.6,2.8,3.6,3.4,5.8
	c0.6,2.4,0.3,4.6,0.1,7c0.9,0.2,1.6,0.4,2.5,0.8c1.4,0.7,2.9,0.9,4,2.2C76.6,45.3,76.6,49.4,74.5,52C73.4,53.5,76.1,50,74.5,52z"/>
</svg>
