<?xml version="1.0" encoding="UTF-8"?>
<svg x="0px" y="0px" viewBox="0 0 80 80" version="1.1" xmlns="http://www.w3.org/2000/svg" xmlns:xlink="http://www.w3.org/1999/xlink">
    <!-- Generator: Sketch 53.2 (72643) - https://sketchapp.com -->
    <title>icone-adp-manager</title>
    <desc>Created with Sketch.</desc>
    <g id="icone-adp-manager" stroke="none" stroke-width="1" fill="none" fill-rule="evenodd" transform="scale(2.5, 2.5)">
        <g id="Group-11" transform="translate(0.000000, 5.000000)" fill="#122844">
            <path d="M8,5 C5.794,5 4,6.794 4,9 C4,9.382 4.07,9.784 4.215,10.229 C4.288,10.453 4.194,10.697 3.991,10.815 C2.146,11.889 1,13.876 1,16 C1,19.309 3.691,22 7,22 L25,22 C28.309,22 31,19.309 31,16 C31,13.192 29.089,10.791 26.354,10.16 C26.112,10.104 25.948,9.88 25.968,9.633 C25.984,9.423 26,9.214 26,9 C26,4.589 22.411,1 18,1 C14.957,1 12.216,2.698 10.849,5.43 C10.785,5.557 10.671,5.65 10.535,5.688 C10.399,5.727 10.253,5.705 10.133,5.628 C9.486,5.217 8.748,5 8,5 M25,23 L7,23 C3.14,23 0,19.859 0,16 C0,13.652 1.199,11.449 3.153,10.159 C3.05,9.756 3,9.374 3,9 C3,6.243 5.243,4 8,4 C8.762,4 9.514,4.179 10.202,4.521 C11.808,1.719 14.75,0 18,0 C22.963,0 27,4.038 27,9 C27,9.099 26.997,9.196 26.992,9.294 C29.962,10.168 32,12.868 32,16 C32,19.859 28.859,23 25,23" id="Fill-1"></path>
            <path d="M20,10.3052 C19.603,10.3052 19.278,10.6292 19.278,11.0272 C19.278,11.4252 19.603,11.7482 20,11.7482 C20.397,11.7482 20.722,11.4252 20.722,11.0272 C20.722,10.6292 20.397,10.3052 20,10.3052 M20,12.7492 C19.051,12.7492 18.278,11.9762 18.278,11.0272 C18.278,10.0772 19.051,9.3052 20,9.3052 C20.949,9.3052 21.722,10.0772 21.722,11.0272 C21.722,11.9762 20.949,12.7492 20,12.7492" id="Fill-3"></path>
            <path d="M18.0352,14.0205 C18.1192,14.0205 18.2032,14.0415 18.2792,14.0835 C18.5132,14.2145 18.7682,14.3205 19.0372,14.3975 C19.2522,14.4575 19.4002,14.6545 19.4002,14.8775 L19.4002,15.7665 C19.4002,15.8935 19.5072,15.9995 19.6342,15.9995 L20.3662,15.9995 C20.4932,15.9995 20.5992,15.8935 20.5992,15.7665 L20.5992,14.8775 C20.5992,14.6545 20.7482,14.4575 20.9632,14.3975 C21.2312,14.3205 21.4872,14.2145 21.7212,14.0835 C21.9142,13.9755 22.1582,14.0065 22.3182,14.1665 L22.9462,14.7945 C23.0362,14.8845 23.1862,14.8845 23.2762,14.7945 L23.7952,14.2765 C23.8852,14.1865 23.8852,14.0365 23.7952,13.9465 L23.1672,13.3185 C23.0092,13.1605 22.9742,12.9165 23.0842,12.7205 C23.2152,12.4865 23.3202,12.2315 23.3972,11.9625 C23.4592,11.7485 23.6542,11.6005 23.8782,11.6005 L24.7662,11.6005 C24.8932,11.6005 25.0002,11.4935 25.0002,11.3665 L25.0002,10.6335 C25.0002,10.5065 24.8932,10.3995 24.7662,10.3995 L23.8782,10.3995 C23.6542,10.3995 23.4592,10.2515 23.3972,10.0375 C23.3202,9.7685 23.2152,9.5135 23.0842,9.2795 C22.9742,9.0835 23.0092,8.8395 23.1672,8.6815 L23.7952,8.0535 C23.8852,7.9645 23.8852,7.8125 23.7952,7.7235 L23.2762,7.2055 C23.1862,7.1155 23.0362,7.1155 22.9462,7.2055 L22.3182,7.8335 C22.1582,7.9915 21.9142,8.0225 21.7212,7.9165 C21.4852,7.7835 21.2302,7.6785 20.9642,7.6035 C20.7482,7.5425 20.5992,7.3465 20.5992,7.1225 L20.5992,6.2335 C20.5992,6.1065 20.4932,5.9995 20.3662,5.9995 L19.6342,5.9995 C19.5072,5.9995 19.4002,6.1065 19.4002,6.2335 L19.4002,7.1225 C19.4002,7.3465 19.2522,7.5425 19.0362,7.6035 C18.7692,7.6785 18.5142,7.7835 18.2792,7.9165 C18.0872,8.0235 17.8422,7.9925 17.6812,7.8335 L17.0542,7.2055 C16.9642,7.1155 16.8132,7.1155 16.7232,7.2055 L16.2052,7.7235 C16.1162,7.8125 16.1162,7.9645 16.2052,8.0535 L16.8332,8.6815 C16.9912,8.8395 17.0252,9.0835 16.9162,9.2795 C16.7842,9.5155 16.6792,9.7695 16.6032,10.0355 C16.5432,10.2505 16.3462,10.3995 16.1222,10.3995 L15.2332,10.3995 C15.1072,10.3995 15.0002,10.5065 15.0002,10.6335 L15.0002,11.3665 C15.0002,11.4935 15.1072,11.6005 15.2332,11.6005 L16.1222,11.6005 C16.3462,11.6005 16.5432,11.7495 16.6032,11.9645 C16.6792,12.2305 16.7842,12.4845 16.9162,12.7205 C17.0252,12.9165 16.9912,13.1605 16.8332,13.3185 L16.2052,13.9465 C16.1162,14.0365 16.1162,14.1865 16.2052,14.2765 L16.7232,14.7945 C16.8132,14.8845 16.9642,14.8845 17.0542,14.7945 L17.6812,14.1665 C17.7782,14.0705 17.9062,14.0205 18.0352,14.0205 M20.3662,16.9995 L19.6342,16.9995 C18.9542,16.9995 18.4002,16.4465 18.4002,15.7665 L18.4002,15.2395 C18.3092,15.2055 18.2212,15.1685 18.1342,15.1285 L17.7612,15.5015 C17.2792,15.9835 16.4962,15.9815 16.0162,15.5015 L15.4982,14.9835 C15.0172,14.5025 15.0172,13.7195 15.4982,13.2395 L15.8702,12.8665 C15.8312,12.7795 15.7952,12.6905 15.7612,12.6005 L15.2332,12.6005 C14.5532,12.6005 14.0002,12.0465 14.0002,11.3665 L14.0002,10.6335 C14.0002,9.9535 14.5532,9.3995 15.2332,9.3995 L15.7612,9.3995 C15.7952,9.3095 15.8312,9.2205 15.8702,9.1335 L15.4982,8.7605 C15.0172,8.2795 15.0172,7.4975 15.4982,7.0165 L16.0162,6.4985 C16.4972,6.0185 17.2802,6.0185 17.7612,6.4985 L18.1342,6.8705 C18.2212,6.8315 18.3092,6.7945 18.4002,6.7605 L18.4002,6.2335 C18.4002,5.5535 18.9542,4.9995 19.6342,4.9995 L20.3662,4.9995 C21.0462,4.9995 21.5992,5.5535 21.5992,6.2335 L21.5992,6.7605 C21.6902,6.7945 21.7792,6.8315 21.8662,6.8705 L22.2392,6.4985 C22.7202,6.0175 23.5032,6.0175 23.9832,6.4985 L24.5022,7.0165 C24.9822,7.4975 24.9822,8.2795 24.5022,8.7605 L24.1292,9.1335 C24.1682,9.2205 24.2052,9.3095 24.2392,9.3995 L24.7662,9.3995 C25.4462,9.3995 26.0002,9.9535 26.0002,10.6335 L26.0002,11.3665 C26.0002,12.0465 25.4462,12.6005 24.7662,12.6005 L24.2392,12.6005 C24.2052,12.6905 24.1682,12.7795 24.1292,12.8665 L24.5022,13.2395 C24.9822,13.7195 24.9822,14.5025 24.5022,14.9835 L23.9832,15.5015 C23.5032,15.9825 22.7202,15.9825 22.2392,15.5015 L21.8662,15.1285 C21.7792,15.1685 21.6902,15.2055 21.5992,15.2395 L21.5992,15.7665 C21.5992,16.4465 21.0462,16.9995 20.3662,16.9995" id="Fill-5"></path>
            <path d="M9.0059,13.8047 C8.9679,13.8047 8.9289,13.8077 8.8899,13.8147 C8.6999,13.8447 8.5329,13.9477 8.4199,14.1037 C8.3069,14.2587 8.2609,14.4497 8.2919,14.6397 C8.3219,14.8307 8.4249,14.9977 8.5809,15.1117 C8.7369,15.2237 8.9309,15.2717 9.1179,15.2397 C9.3089,15.2087 9.4759,15.1067 9.5889,14.9507 C9.7019,14.7937 9.7479,14.6037 9.7169,14.4127 C9.6869,14.2227 9.5839,14.0547 9.4279,13.9427 C9.3039,13.8517 9.1569,13.8047 9.0059,13.8047 M9.0009,16.2487 C8.6409,16.2487 8.2909,16.1367 7.9939,15.9207 C7.6219,15.6507 7.3769,15.2517 7.3039,14.7977 C7.2319,14.3437 7.3399,13.8887 7.6099,13.5167 C7.8799,13.1447 8.2779,12.8997 8.7329,12.8257 C9.1879,12.7527 9.6419,12.8627 10.0149,13.1317 C10.3869,13.4017 10.6319,13.8007 10.7049,14.2547 C10.7769,14.7087 10.6689,15.1637 10.3989,15.5367 C10.1289,15.9087 9.7299,16.1547 9.2759,16.2277 C9.1839,16.2427 9.0919,16.2487 9.0009,16.2487" id="Fill-7"></path>
            <path d="M7.6147,17.7861 C7.6727,17.7861 7.7317,17.7961 7.7877,17.8171 C8.0397,17.9101 8.3077,17.9741 8.5837,18.0071 C8.8057,18.0321 8.9837,18.2031 9.0187,18.4241 L9.1587,19.3021 C9.1797,19.4271 9.3027,19.5141 9.4267,19.4951 L10.1507,19.3791 C10.2757,19.3591 10.3647,19.2371 10.3447,19.1121 L10.2037,18.2341 C10.1687,18.0131 10.2847,17.7961 10.4877,17.7011 C10.7387,17.5861 10.9727,17.4411 11.1867,17.2741 C11.3617,17.1371 11.6077,17.1311 11.7887,17.2621 L12.5077,17.7821 C12.6087,17.8551 12.7597,17.8331 12.8337,17.7301 L13.2637,17.1371 C13.3127,17.0691 13.3107,16.9991 13.3047,16.9631 C13.2987,16.9281 13.2797,16.8601 13.2127,16.8111 L12.4927,16.2891 C12.3117,16.1581 12.2407,15.9221 12.3177,15.7121 C12.4097,15.4611 12.4727,15.1921 12.5057,14.9161 C12.5327,14.6931 12.7027,14.5161 12.9237,14.4801 L13.8017,14.3411 C13.9257,14.3211 14.0147,14.1991 13.9947,14.0741 L13.8797,13.3491 C13.8597,13.2241 13.7397,13.1311 13.6127,13.1561 L12.7347,13.2961 C12.5127,13.3301 12.2967,13.2161 12.2027,13.0131 C12.0847,12.7601 11.9407,12.5241 11.7747,12.3141 C11.6357,12.1391 11.6307,11.8921 11.7617,11.7111 L12.2827,10.9921 C12.3317,10.9251 12.3287,10.8541 12.3237,10.8191 C12.3177,10.7831 12.2977,10.7151 12.2307,10.6661 L11.6367,10.2361 C11.5697,10.1871 11.4997,10.1911 11.4637,10.1951 C11.4277,10.2011 11.3597,10.2211 11.3117,10.2871 L10.7897,11.0071 C10.6587,11.1881 10.4217,11.2601 10.2127,11.1831 C9.9617,11.0901 9.6937,11.0271 9.4157,10.9941 C9.1937,10.9681 9.0157,10.7971 8.9807,10.5761 L8.8407,9.6981 C8.8277,9.6161 8.7767,9.5681 8.7467,9.5471 C8.7167,9.5251 8.6567,9.4921 8.5737,9.5051 L7.8487,9.6201 C7.7247,9.6401 7.6357,9.7631 7.6557,9.8881 L7.7957,10.7661 C7.8307,10.9861 7.7157,11.2041 7.5127,11.2981 C7.2607,11.4151 7.0257,11.5591 6.8147,11.7251 C6.6387,11.8651 6.3927,11.8701 6.2107,11.7381 L5.4917,11.2171 C5.4257,11.1691 5.3547,11.1711 5.3187,11.1771 C5.2827,11.1831 5.2147,11.2021 5.1657,11.2691 L4.7357,11.8631 C4.6867,11.9311 4.6897,12.0011 4.6957,12.0371 C4.7007,12.0731 4.7207,12.1401 4.7877,12.1881 L5.5067,12.7111 C5.6877,12.8421 5.7597,13.0781 5.6827,13.2881 C5.5907,13.5391 5.5267,13.8081 5.4937,14.0841 C5.4677,14.3071 5.2977,14.4841 5.0757,14.5191 L4.1987,14.6591 C4.0747,14.6791 3.9847,14.8011 4.0047,14.9261 L4.1197,15.6511 C4.1397,15.7751 4.2587,15.8641 4.3877,15.8441 L5.2657,15.7041 C5.4867,15.6721 5.7027,15.7841 5.7977,15.9871 C5.9147,16.2391 6.0587,16.4751 6.2257,16.6861 C6.3647,16.8621 6.3697,17.1081 6.2387,17.2891 L5.7177,18.0081 C5.6687,18.0751 5.6707,18.1451 5.6767,18.1821 C5.6827,18.2171 5.7017,18.2841 5.7687,18.3331 L6.3637,18.7651 C6.4307,18.8131 6.5017,18.8081 6.5367,18.8051 C6.5727,18.7991 6.6397,18.7791 6.6887,18.7121 L7.2097,17.9931 C7.3057,17.8601 7.4577,17.7861 7.6147,17.7861 L7.6147,17.7861 Z M9.3897,20.4981 C8.7937,20.4981 8.2687,20.0651 8.1717,19.4601 L8.0887,18.9381 C7.9937,18.9201 7.9007,18.8971 7.8077,18.8721 L7.4987,19.2981 C7.3067,19.5641 7.0207,19.7401 6.6947,19.7921 C6.3687,19.8451 6.0417,19.7661 5.7767,19.5741 L5.1827,19.1421 C4.9167,18.9501 4.7417,18.6651 4.6887,18.3391 C4.6377,18.0131 4.7147,17.6861 4.9077,17.4211 L5.2167,16.9951 C5.1647,16.9151 5.1147,16.8331 5.0667,16.7491 L4.5447,16.8321 C3.8757,16.9291 3.2407,16.4791 3.1327,15.8081 L3.0177,15.0831 C2.9097,14.4141 3.3677,13.7801 4.0397,13.6721 L4.5617,13.5891 C4.5807,13.4941 4.6027,13.4001 4.6277,13.3081 L4.2007,12.9981 C3.9347,12.8071 3.7597,12.5201 3.7077,12.1941 C3.6557,11.8691 3.7337,11.5421 3.9267,11.2761 L4.3567,10.6831 C4.5497,10.4161 4.8347,10.2411 5.1607,10.1891 C5.4887,10.1351 5.8137,10.2151 6.0787,10.4081 L6.5057,10.7171 C6.5857,10.6641 6.6677,10.6141 6.7517,10.5661 L6.6687,10.0451 C6.5617,9.3741 7.0197,8.7411 7.6917,8.6331 L8.4157,8.5171 C8.7397,8.4621 9.0667,8.5431 9.3337,8.7371 C9.6007,8.9311 9.7767,9.2161 9.8277,9.5411 L9.9107,10.0611 C10.0057,10.0801 10.0997,10.1031 10.1927,10.1281 L10.5017,9.7011 C10.6937,9.4351 10.9797,9.2601 11.3057,9.2081 C11.6297,9.1541 11.9577,9.2331 12.2237,9.4261 L12.8177,9.8561 C13.0837,10.0491 13.2587,10.3351 13.3107,10.6611 C13.3627,10.9871 13.2847,11.3131 13.0927,11.5791 L12.7837,12.0051 C12.8357,12.0851 12.8857,12.1671 12.9337,12.2511 L13.4547,12.1681 C14.1237,12.0611 14.7597,12.5201 14.8667,13.1911 L14.9827,13.9171 C15.0907,14.5861 14.6317,15.2201 13.9607,15.3281 L13.4387,15.4111 C13.4197,15.5061 13.3967,15.6001 13.3717,15.6911 L13.7987,16.0021 C14.0647,16.1941 14.2407,16.4791 14.2927,16.8061 C14.3447,17.1321 14.2667,17.4581 14.0737,17.7241 L13.6437,18.3171 C13.2437,18.8671 12.4707,18.9891 11.9217,18.5931 L11.4937,18.2831 C11.4137,18.3361 11.3317,18.3861 11.2487,18.4331 L11.3317,18.9541 C11.3837,19.2791 11.3047,19.6041 11.1117,19.8721 C10.9187,20.1401 10.6327,20.3151 10.3077,20.3671 L9.5847,20.4831 C9.5187,20.4931 9.4537,20.4981 9.3897,20.4981 L9.3897,20.4981 Z" id="Fill-9"></path>
        </g>
    </g>
</svg>