<?xml version="1.0" encoding="utf-8"?>
<!-- Generator: Adobe Illustrator 19.2.1, SVG Export Plug-In . SVG Version: 6.00 Build 0)  -->
<svg version="1.1" id="Calque_1" xmlns="http://www.w3.org/2000/svg" xmlns:xlink="http://www.w3.org/1999/xlink" x="0px" y="0px"
	 viewBox="0 0 80 80" style="enable-background:new 0 0 80 80;" xml:space="preserve">
<path d="M54.9,39.3c-0.7,0-1.6,0.1-2.6,0.4c-0.8-3.5-3.6-4.8-6.2-4.8c-0.9,0-2.3,0.2-3.5,0.8c-1.2-1.7-3.5-2.4-5.4-2.4
	c-0.9,0-1.8,0.1-2.8,0.4v-9c0-5-3.3-6.8-6.4-6.8c-3.2,0-6.6,1.8-6.6,6.8v24c0-0.1-1.7-1.9-1.7-1.9c-2.8-2.6-6.6-2.6-9.4,0
	c-1.2,1.2-1.9,2.8-1.9,4.6c0,1.3,0.4,3.1,2.2,4.8l4.7,4.5c2.9,2.8,5.1,5.9,6.7,9.1c2.3,4.8,3.5,8.8,3.5,8.8c0.3,0.8,1,1.4,1.9,1.4
	h25.4c0.9,0,1.6-0.5,1.9-1.3c0-0.1,3.2-9.3,4.6-13.8c1.5-4.7,1.9-10.4,1.9-10.6c0,0,0.1-8.2,0.1-8.2C61.4,41.1,58,39.3,54.9,39.3z
	 M57.4,54.1c0,0.6-0.5,5.6-1.8,9.6c-1.1,3.4-3.3,9.3-4.3,12.3H28.9c-0.6-2-1.7-4.6-3.3-8c-1.8-3.6-4.3-7.1-7.5-10.3l-4.7-4.5
	c-0.6-0.6-0.9-1.2-0.9-1.9c0-0.6,0.3-1.3,0.7-1.7c1.2-1.2,2.7-1.2,3.9,0l1.8,1.7c1.6,1.5,2.2,2.4,2.6,2.7c0,0,0,0.1,0,0.2v1.3
	c0,1.1,0.9,2,2,2s2-0.9,2-2V24.8c0-2,0.8-2.8,2.6-2.8c1.7,0,2.4,0.8,2.4,2.8v20.5c0,1.1,0.9,2,2,2s2-0.9,2-2v-5.2
	c0-2,0.8-2.8,2.6-2.8c1.7,0,2.4,0.8,2.4,2.8v6.4c0,1.1,0.9,2,2,2s2-0.9,2-2v-6.7c0,0,0-0.1,0.2-0.2c0.6-0.4,1.7-0.7,2.4-0.7
	c1.7,0,2.4,0.8,2.4,2.8v6.4c0,1.1,0.9,2,2,2s2-0.9,2-2V44c1-0.4,1.8-0.7,2.5-0.7c1.7,0,2.5,0.8,2.5,2.8V54.1z"/>
<g>
	<path d="M31.4,14.5h-6c-2.3,0-4.2-1.9-4.2-4.2v-6C21.1,1.9,23,0,25.4,0h6c2.3,0,4.2,1.9,4.2,4.2v6C35.6,12.6,33.7,14.5,31.4,14.5z
		 M25.6,10h5.5V4.5h-5.5V10z"/>
</g>
<g>
	<path d="M49.3,14.5h-6c-2.3,0-4.2-1.9-4.2-4.2v-6C39.1,1.9,41,0,43.3,0h6c2.3,0,4.2,1.9,4.2,4.2v6C53.6,12.6,51.7,14.5,49.3,14.5z
		 M43.6,10h5.5V4.5h-5.5V10z"/>
</g>
<g>
	<path d="M67.3,14.5h-6c-2.3,0-4.2-1.9-4.2-4.2v-6C57.1,1.9,59,0,61.3,0h6c2.3,0,4.2,1.9,4.2,4.2v6C71.6,12.6,69.7,14.5,67.3,14.5z
		 M61.6,10h5.5V4.5h-5.5V10z"/>
</g>
<g>
	<path d="M49.3,32.5h-6c-2.3,0-4.2-1.9-4.2-4.2v-6c0-2.3,1.9-4.2,4.2-4.2h6c2.3,0,4.2,1.9,4.2,4.2v6C53.6,30.6,51.7,32.5,49.3,32.5z
		 M43.6,28h5.5v-5.5h-5.5V28z"/>
</g>
<g>
	<path d="M67.3,32.5h-6c-2.3,0-4.2-1.9-4.2-4.2v-6c0-2.3,1.9-4.2,4.2-4.2h6c2.3,0,4.2,1.9,4.2,4.2v6C71.6,30.6,69.7,32.5,67.3,32.5z
		 M61.6,28h5.5v-5.5h-5.5V28z"/>
</g>
</svg>
