<?xml version="1.0" encoding="utf-8"?>
<!-- Generator: Adobe Illustrator 21.0.0, SVG Export Plug-In . SVG Version: 6.00 Build 0)  -->
<svg version="1.1" id="Calque_1" xmlns="http://www.w3.org/2000/svg" xmlns:xlink="http://www.w3.org/1999/xlink" x="0px" y="0px"
	 viewBox="0 0 80 80" style="enable-background:new 0 0 80 80;" xml:space="preserve">
<style type="text/css">
	.st0{fill:#1D1D1B;}
</style>
<g>
	<path class="st0" d="M44.5,80c-0.4,0-0.9-0.1-1.2-0.4L16.4,58.8h-13c-1.1,0-2-0.9-2-2V23.2c0-1.1,0.9-2,2-2h13L43.3,0.4
		c0.6-0.5,1.4-0.5,2.1-0.2c0.7,0.3,1.1,1,1.1,1.8v76c0,0.8-0.4,1.5-1.1,1.8C45.1,79.9,44.8,80,44.5,80z M5.4,54.8h11.7
		c0.4,0,0.9,0.1,1.2,0.4l24.2,18.7V6.1L18.3,24.8c-0.4,0.3-0.8,0.4-1.2,0.4H5.4V54.8z"/>
</g>
<g>
	<path class="st0" d="M50.7,59.6c-0.8,0-1.6-0.5-1.9-1.3c-0.4-1,0.2-2.2,1.2-2.6C56.7,53.4,61.2,47,61.2,40s-4.5-13.4-11.1-15.7
		c-1-0.4-1.6-1.5-1.2-2.6c0.4-1,1.5-1.6,2.6-1.2c8.2,2.9,13.8,10.8,13.8,19.5s-5.5,16.6-13.8,19.5C51.2,59.6,50.9,59.6,50.7,59.6z"
		/>
</g>
<g>
	<path class="st0" d="M60.2,68.9c-0.7,0-1.4-0.4-1.7-1c-0.6-1-0.2-2.2,0.7-2.7c8.9-5.2,14.4-14.9,14.4-25.1
		c0-10.3-5.5-19.9-14.4-25.1c-1-0.6-1.3-1.8-0.7-2.7c0.6-1,1.8-1.3,2.7-0.7C71.4,17.3,77.6,28.3,77.6,40s-6.3,22.7-16.4,28.6
		C60.9,68.8,60.6,68.9,60.2,68.9z"/>
</g>
</svg>
