<?xml version="1.0" encoding="utf-8"?>
<!-- Generator: Adobe Illustrator 19.1.1, SVG Export Plug-In . SVG Version: 6.00 Build 0)  -->
<svg version="1.1" id="Calque_1" xmlns="http://www.w3.org/2000/svg" xmlns:xlink="http://www.w3.org/1999/xlink" x="0px" y="0px"
	 viewBox="0 0 80 80" style="enable-background:new 0 0 80 80;" xml:space="preserve">
<path d="M65,6V2c0-1.1-0.9-2-2-2s-2,0.9-2,2V6H50V2c0-1.1-0.9-2-2-2s-2,0.9-2,2V6H34V2c0-1.1-0.9-2-2-2s-2,0.9-2,2V6H18V2
	c0-1.1-0.9-2-2-2s-2,0.9-2,2V6h-0.1C6.2,6,0,12.2,0,19.9V80h65.7C73.4,80,80,73.6,80,65.9V6H65z M13.9,10H14v6.7c0,1.1,0.9,2,2,2
	s2-0.9,2-2V10h12v6.7c0,1.1,0.9,2,2,2s2-0.9,2-2V10h12v6.7c0,1.1,0.9,2,2,2s2-0.9,2-2V10h11v6.7c0,1.1,0.9,2,2,2s2-0.9,2-2V10h11v18
	H4v-8.1C4,14.4,8.4,10,13.9,10z M65.7,76H4V32h72v33.9C76,71.4,71.2,76,65.7,76z"/>
<path d="M5.9,49.9H8c0.8-4.4,3.8-8.5,8.9-8.5c3.3,0,5.3,1.6,6.5,3.2c0,0-1.5,1.6-1.7,1.8c-0.2,0.2-0.6,0.2-0.9,0
	c-0.9-0.6-1.5-1.6-3.7-1.6c-2.9,0-4.4,2.3-5,5.1h8v1.2c0,0.5-0.4,1-1.1,1h-7.2c0,0.4,0,1.4,0,1.8h6.8v1.2c0,0.4-0.4,1-1.1,1H12
	c0.5,3.4,2.2,5.5,4.9,5.5c2.1,0,2.9-0.9,3.7-1.7c0.4-0.4,0.7-0.3,1-0.3c0.1,0,2,1.8,2,1.8c-0.7,1.2-2.6,3.6-6.9,3.6
	c-5.5,0-8.1-4.2-8.8-8.8h-2v-2.2h1.9c0-0.3,0-1.4,0-1.8H5.9V49.9z"/>
<path d="M28.8,64.8c-0.2,0.5-0.5,0.9-0.9,1.1c-0.4,0.2-0.8,0.4-1.2,0.4H25l9.3-23.9c0.2-0.4,0.4-0.8,0.8-1c0.4-0.2,0.8-0.4,1.2-0.4
	H38L28.8,64.8z"/>
<path d="M40.7,48.1c0.5-3.7,3-6.7,7.9-6.7c5,0,7,3.2,7,6c0,3.1-1.4,4.4-3.7,5.2c2.7,0.8,4.1,2.6,4.1,5.4c0,3.5-2.4,7.1-7.9,7.1
	c-5.7,0-7.1-3.4-8.1-6.1l1.7-0.7c0.8-0.4,1.8-0.2,2.2,0.5c0.7,1.3,1.6,3,4.1,3c1.9,0,4-1.2,4-3.7c0-2.7-1.3-3.7-5.3-3.7v-2.8
	c3.4,0,5-1.1,5-3.5c0-2-1.1-3.3-3.3-3.3c-2.2,0-3.2,1.5-3.6,2.7c-0.3,0.9-0.9,1.2-2,1.1L40.7,48.1z"/>
<path d="M74.1,61.8v3H61.3v-3H66V48.3c0-0.5,0-1.1,0-1.6l-3.3,2.8c-0.7,0.5-1.5,0.3-1.8-0.1l-1.2-1.7l7.1-6h3.2v20.2H74.1z"/>
</svg>
