<?xml version="1.0" encoding="utf-8"?>
<!-- Generator: Adobe Illustrator 19.1.1, SVG Export Plug-In . SVG Version: 6.00 Build 0)  -->
<svg version="1.1" id="Calque_1" xmlns="http://www.w3.org/2000/svg" xmlns:xlink="http://www.w3.org/1999/xlink" x="0px" y="0px"
	 viewBox="0.1 0 80 80" style="enable-background:new 0.1 0 80 80;" xml:space="preserve">
<g>
	<path d="M11.8,58.8L1,43.7c-2.4-3.3,0.1-7.4,4-7.4h4.5C11.5,21,24.7,9.2,40.4,9.2c4.3,0,8.4,0.9,12.4,2.6c3.3,1.3,5.1,5.1,3.9,8.5
		c-1.2,3.7-5.4,5.8-9.5,4c-2.1-0.9-4.4-1.3-6.8-1.3c-8.3,0-15.1,5.7-16.9,13.5h4c2.3,0,4,1.4,4.6,3c0.6,1.6,0.3,3-0.7,4.4l-10.7,15
		C18.5,61.9,14,61.8,11.8,58.8z M5,40.3c-0.6,0-0.8,0.3-0.9,0.4c-0.1,0.2,0,0.4,0.1,0.6l10.9,15.1c0.8,0.9,1.8,0.8,2.4,0l10.8-15.1
		c0.1-0.2,0.3-0.4,0.1-0.6c-0.1-0.3-0.5-0.4-0.9-0.4h-6.4l0,0c-1.3,0-2.1-1.2-2-2.2c1.1-11,10.3-19.2,21.3-19.2
		c2.9,0,5.8,0.6,8.4,1.7c4,1.7,5.9-3.6,2.4-5.2c-3.4-1.5-7.1-2.3-10.8-2.3c-14.2,0-26.1,11.2-27,25.3c-0.1,1.1-0.9,1.9-2,1.9l0,0
		C11.4,40.3,5,40.3,5,40.3z"/>
</g>
<g>
	<path d="M68.4,21l10.8,15.1c2.4,3.3-0.1,7.4-4,7.4h-4.5c-1.9,15.3-15.1,27.2-30.8,27.2c-4.3,0-8.4-0.9-12.4-2.6
		c-3.3-1.3-5.1-5.1-3.9-8.5c1.2-3.7,5.4-5.8,9.5-4c2.1,0.9,4.4,1.3,6.8,1.3c8.3,0,15.1-5.7,16.9-13.5h-4c-2.3,0-4-1.4-4.6-3
		c-0.6-1.6-0.3-3,0.7-4.4L59.6,21C61.7,17.9,66.2,18,68.4,21z M75.2,39.5c0.6,0,0.8-0.3,0.9-0.4c0.1-0.2,0-0.4-0.1-0.6L65.2,23.4
		c-0.8-0.9-1.8-0.8-2.4,0L52.1,38.5c-0.1,0.2-0.3,0.4-0.1,0.6c0.1,0.3,0.5,0.4,0.9,0.4h6.4l0,0c1.3,0,2.1,1.2,2,2.2
		c-1.1,11-10.2,19.2-21.2,19.2c-2.9,0-5.8-0.6-8.4-1.7c-4-1.7-5.9,3.6-2.4,5.2c3.4,1.5,7.1,2.3,10.8,2.3c14.2,0,26.1-11.2,27-25.3
		c0.1-1.1,0.9-1.9,2-1.9l0,0H75.2z"/>
</g>
</svg>
