<?xml version="1.0" encoding="utf-8"?>
<!-- Generator: Adobe Illustrator 19.2.1, SVG Export Plug-In . SVG Version: 6.00 Build 0)  -->
<svg version="1.1" id="Calque_1" xmlns="http://www.w3.org/2000/svg" xmlns:xlink="http://www.w3.org/1999/xlink" x="0px" y="0px"
	 viewBox="0 0 80 80" style="enable-background:new 0 0 80 80;" xml:space="preserve">
<g>
	<polygon points="72.2,37.6 62.1,27.6 62.1,8 52,8 52,18.6 39.6,5.7 7.9,37.6 5,34.8 39.7,0 48,8.7 48,4 66.1,4 66.1,25.9 75,34.8 	
		"/>
</g>
<circle cx="59.5" cy="51.6" r="2"/>
<circle cx="59.5" cy="69.3" r="2"/>
<path d="M60.1,40.6h-40c-5.5,0-10,4.5-10,10V70c0,5.5,4.5,10,10,10h40c5.5,0,10-4.5,10-10V50.6C70.1,45.1,65.6,40.6,60.1,40.6z
	 M20.1,44.6h40c3.3,0,6,2.7,6,6v7.9h-52v-7.9C14.1,47.3,16.8,44.6,20.1,44.6z M60.1,76h-40c-3.3,0-6-2.7-6-6v-7.4h52V70
	C66.1,73.3,63.4,76,60.1,76z"/>
</svg>
