<?xml version="1.0" encoding="utf-8"?>
<!-- Generator: Adobe Illustrator 19.1.1, SVG Export Plug-In . SVG Version: 6.00 Build 0)  -->
<svg version="1.1" id="Calque_1" xmlns="http://www.w3.org/2000/svg" xmlns:xlink="http://www.w3.org/1999/xlink" x="0px" y="0px"
	 viewBox="0 0 80 80" style="enable-background:new 0 0 80 80;" xml:space="preserve">
<path d="M40.1,4.1c2.3,0,5.8,1.8,5.8,5.7c0,1.6,0.6,2.5,1.8,3.3c0.7,0.5,5.1,2.3,5.4,2.5c1.2,0.6,3.1,0.4,4.3-0.8
	c2.9-2.9,6.4-1.7,8-0.1c1.5,1.5,2.9,5.3,0.1,8.2c-0.7,0.7-1.4,1.6-1.2,3c0.3,1.7,2.2,6.2,2.2,6.2c0.6,1.5,2,2.5,3.6,2.5
	c4.5,0.1,5.7,3.7,5.7,5.6c0,2-1.5,5.8-5.7,5.8c-1.8,0-2.7,0.8-3.5,2.2c-0.4,0.7-2.1,4.8-2.3,5.1c-0.6,1.5-0.3,3.2,0.8,4.3
	c3.1,3.3,1.4,6.7,0.1,8c-1.5,1.5-5.3,2.9-8.2,0.1c-1.1-1.1-2.8-1.4-3.8-1c-0.7,0.2-2,0.8-5.4,2.1c-1.5,0.6-2.5,2-2.5,3.6
	c-0.1,4.5-3.7,5.7-5.6,5.7c-2.3,0-5.8-1.8-5.8-5.7c0-1.5-0.6-2.9-2.4-3.6c-0.6-0.3-4.5-2-4.8-2.1c-1.5-0.6-3.3-0.2-4.3,0.8
	c-2.7,2.7-6.2,1.9-8,0.1c-2-2-2.5-5.6-0.1-8.2c1.2-1.2,1.6-2.2,0.9-4C15,52,14.2,50,13.4,48c-0.6-1.5-2-2.4-3.6-2.5
	c-4.5-0.1-5.7-3.7-5.7-5.6c0-2,1.6-5.8,5.7-5.8c1.7,0,2.6-0.7,3.3-1.9c0.5-0.7,2.3-5.1,2.4-5.4c0.6-1.5,0.3-3.2-0.8-4.3
	c-3.1-3.3-1.4-6.7-0.1-8c1.5-1.5,5.4-2.9,8.2-0.1c0.8,0.8,1.8,1.2,2.8,1.2c0.9,0,0.9,0,6.4-2.3c1.5-0.6,2.5-2,2.5-3.6
	C34.6,5.3,38.2,4.1,40.1,4.1 M40.1,0.1c-4.5,0-9.4,3.2-9.6,9.6c-0.7,0.3-4.8,2-4.9,2l0,0C21.3,7.4,15,8.5,11.8,11.7
	c-3.2,3.2-4.4,8.9,0,13.6c-0.3,0.7-2,4.8-2.1,4.8l0,0c-6,0-9.7,5.1-9.7,9.8c0,4.5,3.2,9.4,9.6,9.6c0.3,0.7,2,4.9,2,4.9h0
	c-4.2,4.2-3.3,10.5,0.1,13.8c3.5,3.5,9.5,4,13.6,0c0.7,0.3,4.8,2,4.8,2.1c0,6,5.1,9.7,9.8,9.7c4.5,0,9.4-3.2,9.6-9.6
	c0.7-0.3,4.8-2,4.9-2l0,0c4.4,4.4,10.6,3.1,13.8-0.1c3.2-3.2,4.4-8.9,0-13.6c0.3-0.7,2-4.8,2.1-4.8l0,0c6,0,9.7-5.1,9.7-9.8
	c0-4.5-3.2-9.4-9.6-9.6c-0.3-0.7-2-4.9-2-4.9h0c4.2-4.2,3.3-10.5-0.1-13.8c-3.7-3.7-9.6-4-13.6,0c-0.7-0.3-4.8-2-4.8-2.1
	C49.9,3.8,44.8,0.1,40.1,0.1L40.1,0.1z"/>
<path d="M40,30.8c5.1,0,9.2,4.1,9.2,9.2s-4.1,9.2-9.2,9.2s-9.2-4.1-9.2-9.2S34.9,30.8,40,30.8 M40,26.8c-7.3,0-13.2,5.9-13.2,13.2
	c0,7.3,5.9,13.2,13.2,13.2c7.3,0,13.2-5.9,13.2-13.2C53.2,32.7,47.3,26.8,40,26.8L40,26.8z"/>
</svg>
