<?xml version="1.0" encoding="utf-8"?>
<!-- Generator: Adobe Illustrator 19.2.1, SVG Export Plug-In . SVG Version: 6.00 Build 0)  -->
<svg version="1.1" id="Calque_1" xmlns="http://www.w3.org/2000/svg" xmlns:xlink="http://www.w3.org/1999/xlink" x="0px" y="0px"
	 viewBox="0 0 80 80" style="enable-background:new 0 0 80 80;" xml:space="preserve">
<g>
	<path d="M40,80C13.4,80,1.3,59.3,1.3,40.1C1.3,16.8,17.6,0,40,0c22.8,0,38.7,16.5,38.7,40.1C78.7,63.6,62.8,80,40,80z M40,4
		C19.9,4,5.3,19.2,5.3,40.1c0,17.3,10.8,36,34.7,36c23.8,0,34.7-18.6,34.7-36C74.7,18.8,60.4,4,40,4z"/>
</g>
<g>
	<path d="M27.2,60.5c-1.2-0.7-1.9-2-1.9-3.4V22.9c0-1.4,0.7-2.7,1.9-3.4c1.2-0.7,2.7-0.7,3.9,0l29.6,17.1c1.2,0.7,1.9,2,1.9,3.4
		c0,1.4-0.7,2.7-1.9,3.4L31.1,60.5C29.7,61.3,28.1,61,27.2,60.5z M29.3,23.1v33.8L58.6,40L29.3,23.1z M58.7,40.1
		C58.7,40.1,58.7,40.1,58.7,40.1L58.7,40.1z"/>
</g>
</svg>
