<?xml version="1.0" encoding="utf-8"?>
<!-- Generator: Adobe Illustrator 20.1.0, SVG Export Plug-In . SVG Version: 6.00 Build 0)  -->
<svg version="1.1" id="Calque_1" xmlns="http://www.w3.org/2000/svg" xmlns:xlink="http://www.w3.org/1999/xlink" x="0px" y="0px"
	 viewBox="0 0 80 80" style="enable-background:new 0 0 80 80;" xml:space="preserve">
<path d="M79.4,0.6c-0.8-0.8-2-0.8-2.8,0L35.1,42.1l-1.9-1.9c-2.3-2.3-5.8-2.7-8.6-0.9l-23.6,15c-0.5,0.3-0.8,0.9-0.9,1.5
	c-0.1,0.6,0.1,1.2,0.6,1.6l22.1,22.1c0.4,0.4,0.9,0.6,1.4,0.6c0.1,0,0.1,0,0.2,0c0.6-0.1,1.1-0.4,1.5-0.9l15-23.7
	c1.8-2.8,1.4-6.3-0.9-8.6l-1.9-1.9L79.4,3.4C80.2,2.6,80.2,1.4,79.4,0.6z M30.3,43l6.7,6.7c1,1,1.1,2.5,0.4,3.6l-1.3,2.1L24.7,43.9
	l2.1-1.3C27.9,41.8,29.4,42,30.3,43z M23.7,74.8l-4.2-4.2l3.5-3.5c0.8-0.8,0.8-2,0-2.8s-2-0.8-2.8,0l-3.5,3.5l-4.5-4.5l3.5-3.5
	c0.8-0.8,0.8-2,0-2.8s-2-0.8-2.8,0l-3.5,3.5l-4.2-4.2l16-10.2l12.7,12.7L23.7,74.8z"/>
</svg>
