<?xml version="1.0" encoding="utf-8"?>
<!-- Generator: Adobe Illustrator 19.1.1, SVG Export Plug-In . SVG Version: 6.00 Build 0)  -->
<svg version="1.1" id="Calque_1" xmlns="http://www.w3.org/2000/svg" xmlns:xlink="http://www.w3.org/1999/xlink" x="0px" y="0px"
	 viewBox="0 0 80 80" style="enable-background:new 0 0 80 80;" xml:space="preserve">
<style type="text/css">
	.st0{fill:#12100B;}
</style>
<g id="XMLID_470_">
	<circle cx="12.5" cy="28.8" r="3"/>
</g>
<g id="XMLID_469_">
	<circle cx="21.5" cy="28.8" r="3"/>
</g>
<g id="XMLID_468_">
	<circle cx="30.4" cy="28.8" r="3"/>
</g>
<g id="XMLID_467_">
	<rect x="8.3" y="59.4" width="29.4" height="4"/>
</g>
<g id="XMLID_466_">
	<rect x="8.3" y="65.4" width="29.4" height="4"/>
</g>
<g id="XMLID_465_">
	<path d="M38,57.4H8v-14h30V57.4z M12,53.4h22v-6H12V53.4z"/>
</g>
<path d="M64,29c0-6.6-5.4-12-12-12H12C5.4,17,0,22.4,0,29v35c0,6.6,5.4,12,12,12h40c6.6,0,12-5.4,12-12V29z M12,21h40.1
	c4.4,0,7.9,4,7.9,8.4V35H4v-5.6C4,25,7.6,21,12,21z M46,73V47h6v26H46z M56,71.8V43H42v30H12c-4.4,0-8-3.7-8-8.1V39h56v25.9
	C60,67.8,58,70.4,56,71.8z"/>
<g id="XMLID_458_">
	<g id="XMLID_463_">
		<path class="st0" d="M70,15.4c-0.5,0-1-0.2-1.4-0.6c-0.8-0.8-0.8-2,0-2.8l3.7-3.7c0.8-0.8,2-0.8,2.8,0c0.8,0.8,0.8,2,0,2.8
			l-3.7,3.7C71,15.2,70.5,15.4,70,15.4z"/>
	</g>
	<g id="XMLID_462_">
		<path class="st0" d="M53.3,15.6c-0.5,0-1-0.2-1.4-0.6l-3.8-3.8c-0.8-0.8-0.8-2,0-2.8s2-0.8,2.8,0l3.8,3.8c0.8,0.8,0.8,2,0,2.8
			C54.3,15.4,53.8,15.6,53.3,15.6z"/>
	</g>
	<g id="XMLID_461_">
		<path class="st0" d="M72.2,34.5c-0.5,0-1-0.2-1.4-0.6L67,30.1c-0.8-0.8-0.8-2,0-2.8s2-0.8,2.8,0l3.8,3.8c0.8,0.8,0.8,2,0,2.8
			C73.2,34.3,72.7,34.5,72.2,34.5z"/>
	</g>
	<g id="XMLID_460_">
		<path class="st0" d="M62,13c-1.1,0-2-0.9-2-2V6c0-1.1,0.9-2,2-2s2,0.9,2,2v5C64,12.1,63.1,13,62,13z"/>
	</g>
	<g id="XMLID_459_">
		<path class="st0" d="M78,24h-6c-1.1,0-2-0.9-2-2s0.9-2,2-2h6c1.1,0,2,0.9,2,2S79.1,24,78,24z"/>
	</g>
</g>
</svg>
