<?xml version="1.0" encoding="utf-8"?>
<!-- Generator: Adobe Illustrator 19.1.1, SVG Export Plug-In . SVG Version: 6.00 Build 0)  -->
<svg version="1.1" id="Calque_1" xmlns="http://www.w3.org/2000/svg" xmlns:xlink="http://www.w3.org/1999/xlink" x="0px" y="0px"
	 viewBox="0 0 80 80" style="enable-background:new 0 0 80 80;" xml:space="preserve">
<g>
	<path d="M32.5,46.1c-2.8,0-5.1-2.3-5.1-5.1s2.3-5.1,5.1-5.1s5.1,2.3,5.1,5.1S35.3,46.1,32.5,46.1z M32.5,39.9
		c-0.6,0-1.1,0.5-1.1,1.1s0.5,1.1,1.1,1.1c0.6,0,1.1-0.5,1.1-1.1S33.1,39.9,32.5,39.9z"/>
</g>
<path d="M76.2,20H59V4.2c0-2.2-1.8-4-4-4s-4,1.8-4,4V20H37.3c-2.2,0-4,1.8-4,4s1.8,4,4,4H51v15.1c0,2.2,1.8,4,4,4s4-1.8,4-4V28h17.2
	c2.2,0,4-1.8,4-4S78.4,20,76.2,20z"/>
<path d="M56,51v25H14.7C11.5,76,9,73.3,9,70V20h21.5c1.4-2,3.9-4,6.8-4H47l0,0H5v54c0,5.5,4.3,10,9.7,10H60V49.2
	C59,50.1,58,50.8,56,51z"/>
<path d="M50.6,64.2c-0.6-1-3.6-4.9-6.4-8.5c2.2-1.8,3.9-4.2,5-7.1c0,0-0.1-0.1-0.1-0.1c-1.1-0.9-2.5-2.4-2.8-4.6
	c-0.5,3.3-2.1,6.4-4.6,8.6c-1.5-1.9-2.7-3.4-2.8-3.6c-1.2-2.1-4.8-1.1-3.7,2c0.1,0.2,0.7,1.8,1.5,4.1c-1.3,0.4-2.7,0.6-4.3,0.6
	c-9.7,0-14.1-7.6-14.1-14.7c0-7.5,4.6-13.2,11.3-14.4c-0.3-0.8-0.4-1.7-0.4-2.6c0-0.5,0.1-1,0.1-1.4c-8.9,1.4-15,8.7-15,18.4
	c0,9.3,6.2,18.7,18.1,18.7c2,0,3.9-0.3,5.7-0.8c1.6,4.3,3.3,9,3.9,10.1C45.4,74.3,53.4,70.3,50.6,64.2z"/>
</svg>
