<?xml version="1.0" encoding="utf-8"?>
<!-- Generator: Adobe Illustrator 19.1.1, SVG Export Plug-In . SVG Version: 6.00 Build 0)  -->
<svg version="1.1" id="Calque_1" xmlns="http://www.w3.org/2000/svg" xmlns:xlink="http://www.w3.org/1999/xlink" x="0px" y="0px"
	 viewBox="0 0 80 80" style="enable-background:new 0 0 80 80;" xml:space="preserve">
<g>
	<path d="M11,3C4.9,3,0,8.5,0,14.7V77h68.7C74.9,77,80,71.7,80,65.6V3H11z M52,19h5v9h8v-9h5v21h-5v-9h-8v9h-5V19z M33.4,19
		c0.6,0,1.2,0.4,1.6,1.2l3.9,11c0.2,0.5,0.9,2.7,1,3.4c0.1-0.6,0.8-2.9,1-3.3l3.9-10.9c0.3-0.7,0.9-1.3,1.5-1.3h3.8L42,40h-4.3
		l-8.2-21H33.4z M19.4,19.1c6.6,0.2,10.4,4.9,10.3,10.7c-0.1,5.6-4,10.3-10.8,10.1c-6.8-0.2-10.4-5.2-10.3-10.6
		C8.8,23.4,13.1,18.9,19.4,19.1z M23,61h-1.5c-0.6,0-1-0.3-1.3-0.6l-7.3-9.2c0,0.3,0,0.5,0.1,0.8s0,0.5,0,0.7V61h-3V46h1.7
		c0.5,0,0.8-0.2,1.2,0.3l7.2,9c0-0.3-0.1-1.4-0.1-1.6V46h3V61z M36,48h-6v4h5v3h-5v3h6v3H26V46h10V48z M54.7,61h-3.2
		c0,0-3.2-10.4-3.2-10.6C48.2,50.6,45,61,45,61h-3.2L37,46h3c0.5,0,1.1,0,1.2,0.5c0,0,2.4,9.4,2.5,9.7c0.1-0.7,3-9.7,3-9.7
		c0.2-0.5,0.7-0.6,1.2-0.6h1.1c0.6,0,1,0.1,1.2,0.5c0,0,2.8,9,2.9,9.6c0.1-0.3,2.5-9.6,2.5-9.6c0.2-0.5,0.6-0.6,1.2-0.6h2.8L54.7,61
		z M70.3,57.4c-0.5,1.9-2.3,3.7-5.4,3.7c-2.4,0-4.5-1.2-5.3-2l1.1-1.7c0.3-0.4,0.8-0.6,1.4-0.2c1,0.6,1.8,1.1,2.9,1.1
		c1,0,1.8-0.4,2-1.2c0.2-1-0.1-1.5-1-2c-0.5-0.2-2.7-0.8-3.6-1.3c-2.2-1.2-2.6-3.6-1.8-5.5c0.5-1.3,2.1-2.9,5-2.9
		c2.6,0,4.3,1.2,4.7,1.6l-0.9,1.7C69,49.2,68.6,49.3,68,49c-0.7-0.3-1.4-0.8-2.5-0.8c-0.7,0-1.6,0.2-1.9,0.9c-0.3,0.8-0.2,1.4,1,2
		c0.6,0.3,2.6,0.8,3.6,1.4C70,53.4,70.9,55.1,70.3,57.4z"/>
	<path d="M19,36c3.8,0.1,6-2.8,6-6.3c0.1-3.6-2.1-6.5-5.7-6.6c-3.5-0.1-5.9,2.7-6,6.3C13.2,32.7,15.2,35.9,19,36z"/>
</g>
</svg>
