<?xml version="1.0" encoding="utf-8"?>
<!-- Generator: Adobe Illustrator 19.1.1, SVG Export Plug-In . SVG Version: 6.00 Build 0)  -->
<svg version="1.1" id="Calque_1" xmlns="http://www.w3.org/2000/svg" xmlns:xlink="http://www.w3.org/1999/xlink" x="0px" y="0px"
	 viewBox="0.1 -0.1 80 80" style="enable-background:new 0.1 -0.1 80 80;" xml:space="preserve">
<path d="M41.8,4.5V3.9h4c1.1,0,2-0.9,2-2s-0.9-2-2-2h-11c-1.1,0-2,0.9-2,2s0.9,2,2,2h3v0.6C22.9,5.6,12.5,17.3,12.5,33
	c0,14.2,9.5,28.5,27.6,28.5c16.3,0,27.6-11.8,27.6-28.5C67.7,16.9,57.2,5.3,41.8,4.5z M41.8,57.6v-2.8c0-1.1-0.9-2-2-2s-2,0.9-2,2
	v2.8c-14-1.1-20.7-12-21.3-22.7h3c1.1,0,2-0.9,1.9-2c0-1.1-0.9-2-2-1.9h-2.9c0.9-12.4,9.5-21.4,21.3-22.4v2.4c0,1.1,0.9,2,2,2
	s2-0.9,2-2V8.5c12.4,0.8,21,9.7,21.9,22.3h-3c-1.1,0-2,0.9-2,2s0.9,2,2,2h3C63,46,56.3,56.8,41.8,57.6z"/>
<path d="M28.3,72.2h5.2v6.1c-1.1,0.9-2.8,1.6-5,1.6c-3.9,0-8-2.3-8-7.5c0-4.8,3.5-7.4,7.7-7.4c2.5,0,4.4,0.9,5.4,2l-1,1.5
	c-0.4,0.5-0.8,0.6-1.4,0.3c-0.6-0.4-1.4-0.9-3.2-0.9c-2.3,0-4.1,1.7-4.1,4.7c0,3.4,2.2,4.8,4.4,4.8c0.9,0,1.8-0.3,2.1-0.4v-2.2H29
	c-0.4,0-0.7-0.2-0.7-0.6V72.2z"/>
<path d="M46.3,67.8h-4.1v11.9h-3.4V67.8h-4.1v-2.7h11.6C46.3,65.1,46.3,67.8,46.3,67.8z"/>
<path d="M59.7,79.7h-3.1c-0.6,0-1-0.2-1.2-0.6L53,74.8c-0.1-0.2-0.2-0.3-0.4-0.4c-0.1-0.1-0.3-0.1-0.6-0.1h-0.9v5.4h-3.4V65.1h4.7
	c3.8,0,5.9,1.5,5.9,4.3c0,2.6-1.9,3.8-2.9,4.2c0.2,0.1,0.4,0.3,0.6,0.4c0.2,0.1,0.4,0.4,0.5,0.6L59.7,79.7z M52.5,72
	c1.8,0,2.6-1,2.6-2.3c0-1.4-0.9-2-2.6-2h-1.4V72H52.5z"/>
<path d="M53,18.3c-0.8-0.7-2.1-0.6-2.8,0.2l-7.4,8.8c-0.8-0.3-1.6-0.5-2.6-0.5c-3.7,0-6.6,3-6.6,6.6c0,3.6,3,6.6,6.6,6.6
	c3.6,0,6.6-3,6.6-6.6c0-1.3-0.4-2.5-1-3.5l7.4-8.8C54,20.2,53.9,19,53,18.3z M42.9,33.3c0,1.5-1.2,2.6-2.6,2.6
	c-1.5,0-2.6-1.2-2.6-2.6c0-1.3,1-2.4,2.2-2.6L38.8,32c-0.7,0.8-0.6,2.1,0.2,2.8c0.4,0.3,0.8,0.5,1.3,0.5c0.6,0,1.1-0.2,1.5-0.7
	L42.9,33.3L42.9,33.3z"/>
</svg>
