<?xml version="1.0" encoding="utf-8"?>
<!-- Generator: Adobe Illustrator 21.1.0, SVG Export Plug-In . SVG Version: 6.00 Build 0)  -->
<svg version="1.1" id="Calque_1" xmlns="http://www.w3.org/2000/svg" xmlns:xlink="http://www.w3.org/1999/xlink" x="0px" y="0px"
	 viewBox="0 0 80 80" style="enable-background:new 0 0 80 80;" xml:space="preserve">
<g>
	<path d="M70,28h-9v-8C61,9,52,0,41,0c-8.2,0-15.5,4.9-18.5,12.6c-0.4,1,0.1,2.2,1.1,2.6c1,0.4,2.2-0.1,2.6-1.1
		C28.6,7.9,34.4,4,41,4c8.8,0,16,7.2,16,16v8H12c-1.7,0-3,1.3-3,3v46c0,1.7,1.3,3,3,3h58c1.7,0,3-1.3,3-3V31C73,29.3,71.6,28,70,28z
		 M69,76H13V32h56V76z"/>
	<path d="M41,63.9c2.2,0,4-1.8,4-4v-12c0-2.2-1.8-4-4-4c-2.2,0-4,1.8-4,4v12C37,62.1,38.8,63.9,41,63.9z"/>
</g>
</svg>
