<svg id="Layer_1" data-name="Layer 1" xmlns="http://www.w3.org/2000/svg" viewBox="0 0 80 80"><title>Artboard 1</title><polygon points="80 65 0 65 0 13 4 13 4 61 80 61 80 65"/><path d="M12,52.5a2,2,0,0,1-1.68-3.09l7.8-12a2,2,0,0,1,3.11-.31l6.05,6.21,6.44-9.65A1.8,1.8,0,0,1,35.39,33h7l7.21-7.65a2.07,2.07,0,0,1,2.87.13L59.63,33H65.5l7.21-11.34a2,2,0,0,1,2.77-.71,1.93,1.93,0,0,1,.59,2.71l-7.8,12.22A2.23,2.23,0,0,1,66.58,37h-7.8a2.33,2.33,0,0,1-1.43-.85L51,29.49l-6.36,6.72a2.23,2.23,0,0,1-1.43.79H36.48L29.27,47.84a1.87,1.87,0,0,1-1.48.78A2.14,2.14,0,0,1,26.16,48l-6.05-6.24-6.43,9.89A2,2,0,0,1,12,52.5Z"/></svg>