<?xml version="1.0" encoding="utf-8"?>
<!-- Generator: Adobe Illustrator 19.1.1, SVG Export Plug-In . SVG Version: 6.00 Build 0)  -->
<svg version="1.1" id="Calque_1" xmlns="http://www.w3.org/2000/svg" xmlns:xlink="http://www.w3.org/1999/xlink" x="0px" y="0px"
	 viewBox="0 0 80 80" style="enable-background:new 0 0 80 80;" xml:space="preserve">
<g>
	<circle cx="66" cy="27.8" r="3"/>
</g>
<g>
	<circle cx="66" cy="51.8" r="3"/>
</g>
<path d="M80,26c0-6.6-5.4-12-12-12H12C5.4,14,0,19.4,0,26v28c0,6.6,5.4,12,12,12h56c6.6,0,12-5.4,12-12V26z M11.7,18h55.9
	c4.4,0,8.4,3.2,8.4,7.7V38H4V25.7C4,21.2,7.3,18,11.7,18z M67.6,62H11.7C7.3,62,4,58.1,4,53.7V42h72v11.7C76,58.1,72,62,67.6,62z"/>
</svg>
