<?xml version="1.0" encoding="utf-8"?>
<!-- Generator: Adobe Illustrator 21.0.0, SVG Export Plug-In . SVG Version: 6.00 Build 0)  -->
<svg version="1.1" id="Calque_1" xmlns="http://www.w3.org/2000/svg" xmlns:xlink="http://www.w3.org/1999/xlink" x="0px" y="0px"
	 viewBox="0 0 80 80" style="enable-background:new 0 0 80 80;" xml:space="preserve">
<style type="text/css">
	.st0{fill:#010202;}
</style>
<g>
	<path class="st0" d="M44.5,80c-0.4,0-0.9-0.1-1.2-0.4L16.4,58.8h-13c-1.1,0-2-0.9-2-2V23.2c0-1.1,0.9-2,2-2h13L43.3,0.4
		c0.6-0.5,1.4-0.5,2.1-0.2c0.7,0.3,1.1,1,1.1,1.8v76c0,0.8-0.4,1.5-1.1,1.8C45.1,79.9,44.8,80,44.5,80z M5.4,54.8h11.7
		c0.4,0,0.9,0.1,1.2,0.4l24.2,18.7V6.1L18.3,24.8c-0.4,0.3-0.8,0.4-1.2,0.4H5.4V54.8z"/>
</g>
<path class="st0" d="M66.6,40L77,29.6c0.8-0.8,0.8-2,0-2.8c-0.8-0.8-2-0.8-2.8,0L63.8,37.2L53.4,26.8c-0.8-0.8-2-0.8-2.8,0
	c-0.8,0.8-0.8,2,0,2.8L61,40L50.5,50.4c-0.8,0.8-0.8,2,0,2.8c0.4,0.4,0.9,0.6,1.4,0.6s1-0.2,1.4-0.6l10.4-10.4l10.4,10.4
	c0.4,0.4,0.9,0.6,1.4,0.6s1-0.2,1.4-0.6c0.8-0.8,0.8-2,0-2.8L66.6,40z"/>
</svg>
