<?xml version="1.0" encoding="utf-8"?>
<!-- Generator: Adobe Illustrator 21.1.0, SVG Export Plug-In . SVG Version: 6.00 Build 0)  -->
<svg version="1.1" id="Calque_1" xmlns="http://www.w3.org/2000/svg" xmlns:xlink="http://www.w3.org/1999/xlink" x="0px" y="0px"
	 viewBox="0 0 80 80" style="enable-background:new 0 0 80 80;" xml:space="preserve">
<title>microphoneOff</title>
<g>
	<path d="M55.4,23.4l12-12c0.8-0.8,0.8-2,0-2.8c-0.8-0.8-2-0.8-2.8,0L56,17.2V16c0-8.8-7.2-16-16-16S24,7.2,24,16v20
		c0,0.7,0,1.5,0.1,2.2c0.2,1,1,1.7,2,1.7c0.1,0,0.2,0,0.3,0c1.1-0.2,1.8-1.2,1.6-2.3C28,37.1,28,36.5,28,36V16c0-6.6,5.4-12,12-12
		c6.6,0,12,5.4,12,12v5.2l-29,29c0,0,0,0,0,0c0,0,0,0,0,0L12.6,60.6c-0.8,0.8-0.8,2,0,2.8C13,63.8,13.5,64,14,64s1-0.2,1.4-0.6
		l9.1-9.1c2.3,1.9,4.8,3.3,7.5,4.3V60c0,6.3-3,12.3-8.1,16H18c-1.1,0-2,0.9-2,2s0.9,2,2,2h44c1.1,0,2-0.9,2-2s-0.9-2-2-2h-5.9
		C51,72.3,48,66.3,48,60v-1.4c9.3-3.3,16-12.2,16-22.6V26c0-1.1-0.9-2-2-2s-2,0.9-2,2v10c0,11-9,20-20,20c-4.6,0-9.1-1.6-12.7-4.5
		l2.9-2.9C33,50.8,36.5,52,40,52c8.8,0,16-7.2,16-16v-2c0-1.1-0.9-2-2-2s-2,0.9-2,2v2c0,6.6-5.4,12-12,12c-2.5,0-4.9-0.8-6.9-2.2
		L55.4,23.4C55.4,23.4,55.4,23.4,55.4,23.4z M44,59.7V60c0,6,2.2,11.7,6.1,16H29.9c3.9-4.3,6.1-10,6.1-16v-0.3
		c1.3,0.2,2.6,0.3,4,0.3C41.4,60,42.7,59.9,44,59.7z"/>
	<path d="M19.6,46.3c0.2,0,0.5,0,0.7-0.1c1-0.4,1.5-1.6,1.1-2.6c-1-2.5-1.5-5.1-1.5-7.6V26c0-1.1-0.9-2-2-2s-2,0.9-2,2v10
		c0,3,0.6,6,1.7,9C18,45.8,18.8,46.3,19.6,46.3z"/>
</g>
</svg>
