<?xml version="1.0" encoding="utf-8"?>
<!-- Generator: Adobe Illustrator 19.1.1, SVG Export Plug-In . SVG Version: 6.00 Build 0)  -->
<svg version="1.1" id="Calque_1" xmlns="http://www.w3.org/2000/svg" xmlns:xlink="http://www.w3.org/1999/xlink" x="0px" y="0px"
	 viewBox="0 0.8 80 80" style="enable-background:new 0 0.8 80 80;" xml:space="preserve">
<g>
	<path d="M40,38.7c-7.2,0-11-5.7-11-11.3c0-6.4,4.7-11.3,11-11.3c6.4,0,11,4.8,11,11.3S46.4,38.7,40,38.7z M40,20
		c-4.2,0-7.1,3.1-7.1,7.4c0,3.7,2.2,7.4,7.1,7.4s7.1-3.7,7.1-7.4S44.9,20,40,20z"/>
</g>
<g>
	<path d="M18.2,31.2c-7.2,0-11-5.7-11-11.3c0-6.4,4.8-11.3,11-11.3c6.4,0,11,4.8,11,11.3S24.6,31.2,18.2,31.2z M18.2,12.5
		c-4.2,0-7.1,3.1-7.1,7.4c0,3.7,2.2,7.4,7.1,7.4s7.1-3.7,7.1-7.4C25.3,16.2,23.1,12.5,18.2,12.5z"/>
</g>
<g>
	<path d="M62,31.2c-7.2,0-11-5.7-11-11.3c0-6.4,4.7-11.3,11-11.3c6.4,0,11,4.8,11,11.3C72.9,26.4,68.3,31.2,62,31.2z M62,12.5
		c-4.2,0-7.1,3.1-7.1,7.4c0,3.7,2.2,7.4,7.1,7.4s7.1-3.7,7.1-7.4S66.9,12.5,62,12.5z"/>
</g>
<path d="M80,51.2c0-8.9-5.5-17.9-18.1-17.9c-6.9,0-12.5,3-15.7,8.4c-1.9-0.6-4-0.9-6.3-0.9s-4.3,0.3-6.1,0.8
	c-3.1-5.3-8.8-8.3-15.7-8.3C5.6,33.3,0,42.3,0,51.2V65h22v8h36v-8h22V51.2z M4,61v-9.8c0-6.4,3.7-13.9,14.2-13.9
	c6.7,0,10.3,3.2,12,5.9c-5.7,3.3-8.2,9.4-8.2,15.5V61C22,61,4,61,4,61z M54,69H26V58.7c0-6.4,3.5-13.9,14-13.9c9.8,0,14,7.2,14,13.9
	V69z M76,61H58v-2.3c0-5.8-2.5-12-8.1-15.3c1.7-2.8,5.2-6.1,12-6.1c10.4,0,14.1,7.5,14.1,13.9V61z"/>
</svg>
