<?xml version="1.0" encoding="utf-8"?>
<!-- Generator: Adobe Illustrator 19.2.1, SVG Export Plug-In . SVG Version: 6.00 Build 0)  -->
<svg version="1.1" id="Calque_1" xmlns="http://www.w3.org/2000/svg" xmlns:xlink="http://www.w3.org/1999/xlink" x="0px" y="0px"
	 viewBox="0 0 80 80" style="enable-background:new 0 0 80 80;" xml:space="preserve">
<g id="XMLID_845_">
	<g id="XMLID_858_">
		<rect x="16.2" y="14.9" width="36.8" height="4"/>
	</g>
	<g id="XMLID_857_">
		<rect x="16.2" y="26.1" width="36.8" height="4"/>
	</g>
	<g id="XMLID_846_">
		<rect x="16.2" y="37.3" width="14.7" height="4"/>
	</g>
</g>
<path d="M75.1,53.8c0-11-9-20-20-20c-11,0-20,9-20,20s9,20,20,20c3.6,0,7-1,10-2.7l6.4,8.9l3.2-2.3l-6.4-8.9
	C72.5,65.1,75.1,59.8,75.1,53.8z M39.1,53.8c0-8.8,7.2-16,16-16c8.8,0,16,7.2,16,16s-7.2,16-16,16C46.3,69.8,39.1,62.6,39.1,53.8z"
	/>
<g id="XMLID_859_">
	<path d="M47,53.8h-4c0-6.7,5.4-12.1,12.1-12.1v4C50.6,45.7,47,49.3,47,53.8z"/>
</g>
<g>
	<path d="M32.7,62.9H8.8v-59h39.1c6.1,0,10.9,5,10.9,11.1v15.1c1,0.2,3,0.6,4,1V15c0-8.3-6.7-15.1-14.9-15.1H4.8v67h29.9
		C33.9,64.9,33.3,63.9,32.7,62.9z"/>
</g>
</svg>
