<?xml version="1.0" encoding="utf-8"?>
<!-- Generator: Adobe Illustrator 19.1.1, SVG Export Plug-In . SVG Version: 6.00 Build 0)  -->
<svg version="1.1" id="Calque_1" xmlns="http://www.w3.org/2000/svg" xmlns:xlink="http://www.w3.org/1999/xlink" x="0px" y="0px"
	 viewBox="0 0 80 80" style="enable-background:new 0 0 80 80;" xml:space="preserve">
<path d="M75.4,67c-5.9,0-9.9-4.1-9.9-10.3V35.1c0-14-8.4-24.3-21-26.5V5.2c0-3-2.1-5.2-5.1-5.2c-2.9,0-5.1,2.3-5.1,5.2
	c0,0.5,0,2.2,0,3.5C22,10.9,13.5,21.4,13.5,35.1V57c0,6.3-4.6,10-9,10v4H29c0.9,5.1,5,9,10.5,9c5.4,0,9.6-3.9,10.5-9h25.5l0,0l0,0
	L75.4,67L75.4,67z M38.3,5.2c0-0.7,0.4-1.2,1.1-1.2c0.9,0,1.1,0.6,1.1,1.2v3c-0.3,0-0.7,0-1,0c-0.4,0-0.8,0-1.2,0
	C38.3,7,38.3,5.6,38.3,5.2z M39.5,76c-3.6,0-5.7-2.5-6.4-5h12.8C45.1,73.9,42.7,76,39.5,76z M13.7,67c2.3-2.4,3.8-5.8,3.8-10V35.1
	c0-13.3,9.2-22.9,22-22.9c13,0,22,9.4,22,22.9v21.6c0,4.2,1.5,7.8,4,10.3H13.7z"/>
</svg>
