<?xml version="1.0" encoding="utf-8"?>
<!-- Generator: Adobe Illustrator 19.1.1, SVG Export Plug-In . SVG Version: 6.00 Build 0)  -->
<svg version="1.1" id="Calque_1" xmlns="http://www.w3.org/2000/svg" xmlns:xlink="http://www.w3.org/1999/xlink" x="0px" y="0px"
	 viewBox="0 0 80 80" style="enable-background:new 0 0 80 80;" xml:space="preserve">
<g>
	<path d="M40,80C13.4,80,1.3,59.3,1.3,40C1.3,16.9,17.6,0,40,0c22.8,0,38.7,16.5,38.7,40.1C78.7,63.6,62.8,80,40,80z M40,4
		C19.9,4,5.3,19.2,5.3,40.1c0,17.3,10.9,36,34.7,36c23.9,0,34.7-18.6,34.7-36C74.7,18.8,60.4,4,40,4z"/>
</g>
<g id="XMLID_249_">
	<path d="M33,56.2c-0.5,0-1-0.2-1.4-0.6L17.9,42.2c-0.8-0.8-0.8-2,0-2.8s2-0.8,2.8,0l12.2,12l25.7-26.1c0.8-0.8,2-0.8,2.8,0
		s0.8,2,0,2.8l-27,27.5C34,56,33.5,56.2,33,56.2z"/>
</g>
</svg>
