<?xml version="1.0" encoding="utf-8"?>
<!-- Generator: Adobe Illustrator 19.1.1, SVG Export Plug-In . SVG Version: 6.00 Build 0)  -->
<svg version="1.1" id="Calque_1" xmlns="http://www.w3.org/2000/svg" xmlns:xlink="http://www.w3.org/1999/xlink" x="0px" y="0px"
	 viewBox="0 0 80 80" style="enable-background:new 0 0 80 80;" xml:space="preserve">
<g>
	<path d="M54.6,3.7c4,0,7.2,3.2,7.2,7.2v64.8H26.6c-4,0-7.2-3.2-7.2-7.2v-7.8h0.9c2.9,0,6-2.2,6-6.1c0-3.3-2.8-6-6.1-6h-0.8v-2.9
		h0.9c2.9,0,6-2.3,6-6.1c0-3.2-2.8-5.9-6.1-5.9h-0.8v-3.1h0.9c2.9,0,6-2.2,6-6c0-3.4-2.8-6-6.1-6h-0.8V11c0-4.1,3.2-7.3,7.2-7.3
		L54.6,3.7 M54.6-0.2h-28c-6.2,0-11.2,5-11.2,11.2v11.7h4.8c1.1,0,2,0.8,2.1,1.9c0.1,1.2-0.9,2.1-2,2.1h-4.9v11.1h4.8
		c1.1,0,2,0.8,2.1,1.9c0.1,1.2-0.9,2.2-2,2.2h-4.9v10.9h4.8c1.1,0,2,0.8,2.1,1.9c0.1,1.2-0.9,2.2-2,2.2h-4.9v11.8
		c0,6.2,5,11.2,11.2,11.2h39.2V10.9C65.8,4.7,60.8-0.2,54.6-0.2L54.6-0.2z"/>
</g>
<g>
	<path d="M56.7,13.2c0-0.8-0.6-1.4-1.4-1.4H34.2c-0.8,0-1.4,0.6-1.4,1.4v8.1c0,0.8,0.6,1.4,1.4,1.4h21.1c0.8,0,1.4-0.6,1.4-1.4
		C56.7,21.3,56.7,13.2,56.7,13.2z M52.7,18.7h-16v-3h16V18.7z"/>
	<path d="M56.7,28.2c0-0.8-0.6-1.4-1.4-1.4H34.2c-0.8,0-1.4,0.6-1.4,1.4v8.1c0,0.8,0.6,1.4,1.4,1.4h21.1c0.8,0,1.4-0.6,1.4-1.4
		C56.7,36.3,56.7,28.2,56.7,28.2z M52.7,33.7h-16v-3h16V33.7z"/>
	<path d="M56.7,43.2c0-0.8-0.6-1.4-1.4-1.4H34.2c-0.8,0-1.4,0.6-1.4,1.4v8.1c0,0.8,0.6,1.4,1.4,1.4h21.1c0.8,0,1.4-0.6,1.4-1.4
		C56.7,51.3,56.7,43.2,56.7,43.2z M52.7,48.7h-16v-3h16V48.7z"/>
	<path d="M56.7,58.2c0-0.8-0.6-1.4-1.4-1.4H34.2c-0.8,0-1.4,0.6-1.4,1.4v8.1c0,0.8,0.6,1.4,1.4,1.4h21.1c0.8,0,1.4-0.6,1.4-1.4
		C56.7,66.3,56.7,58.2,56.7,58.2z M52.7,63.7h-16v-3h16V63.7z"/>
</g>
</svg>
