<?xml version="1.0" encoding="utf-8"?>
<!-- Generator: Adobe Illustrator 19.1.1, SVG Export Plug-In . SVG Version: 6.00 Build 0)  -->
<svg version="1.1" id="Calque_1" xmlns="http://www.w3.org/2000/svg" xmlns:xlink="http://www.w3.org/1999/xlink" x="0px" y="0px"
	 viewBox="0 0 80 80" style="enable-background:new 0 0 80 80;" xml:space="preserve">
<g id="XMLID_399_">
	<path d="M19.7,34.2h-4C15.7,20.7,26.6,9.8,40,9.8v4C28.8,13.8,19.7,22.9,19.7,34.2z"/>
</g>
<path d="M40,0C21.2,0,5.9,15.3,5.9,34.2c0,10.7,4.9,20.2,12.6,26.5l-12.2,17L9.5,80l12.2-17c5.3,3.4,11.5,5.3,18.3,5.3
	c18.8,0,34.1-15.3,34.1-34.1S58.8,0,40,0z M40,64.3c-16.6,0-30.1-13.5-30.1-30.1S23.4,4,40,4c16.6,0,30.1,13.5,30.1,30.1
	S56.6,64.3,40,64.3z"/>
</svg>
