<?xml version="1.0" encoding="utf-8"?>
<!-- Generator: Adobe Illustrator 19.1.1, SVG Export Plug-In . SVG Version: 6.00 Build 0)  -->
<svg version="1.1" id="Calque_1" xmlns="http://www.w3.org/2000/svg" xmlns:xlink="http://www.w3.org/1999/xlink" x="0px" y="0px"
	 viewBox="0 0 80 80" style="enable-background:new 0 0 80 80;" xml:space="preserve">
<path d="M72.5,22.3C72.5,16.7,67.6,12,62,12h-7.5v-1.9C54.5,4.6,50.3,0,44.7,0h-9.3c-5.6,0-10,4.6-10,10.1V12h-7.3
	c-5.6,0-10.7,4.7-10.7,10.3V32h5v37.8c0,5.7,4.6,10.2,10.3,10.2h34.6c5.7,0,10.1-4.5,10.1-10.2V32h5V22.3z M29.5,10.1
	c0-3.3,2.6-6.1,6-6.1h9.3c3.3,0,5.8,2.8,5.8,6.1V12h-21V10.1z M63.5,69.8c0,3.5-2.7,6.2-6.1,6.2H22.8c-3.5,0-6.3-2.7-6.3-6.2V32h47
	V69.8z M68.5,28h-57v-5.7c0-3.4,3.3-6.3,6.7-6.3H62c3.4,0,6.5,2.9,6.5,6.3V28z"/>
<g>
	<rect x="24" y="40" width="4" height="28"/>
</g>
<g>
	<rect x="38" y="40" width="4" height="28"/>
</g>
<g>
	<rect x="52" y="40" width="4" height="28"/>
</g>
</svg>
