<?xml version="1.0" encoding="utf-8"?>
<!-- Generator: Adobe Illustrator 21.0.0, SVG Export Plug-In . SVG Version: 6.00 Build 0)  -->
<svg version="1.1" id="Calque_1" xmlns="http://www.w3.org/2000/svg" xmlns:xlink="http://www.w3.org/1999/xlink" x="0px" y="0px"
	 viewBox="0 0 80 80" style="enable-background:new 0 0 80 80;" xml:space="preserve">
<style type="text/css">
	.st0{fill:#1D1D1B;}
</style>
<g>
	<g id="phone-bluetooth-speaker_11_">
		<g>
			<path class="st0" d="M73.8,80C33.1,80,0,46.9,0,6.2C0,2.6,2.6,0,6.2,0H21c3.7,0,6.2,2.6,6.2,6.2c0,4.4,0.7,9.1,2,14
				c1.1,2,0.6,4.5-1.3,6.4l-8.2,8.2c6.1,10.9,14.9,19.7,25,25.1l8.3-8.3c0.1-0.1,0.2-0.2,0.3-0.3c1.9-1.3,4.2-1.7,6-1.1
				c4.8,1.6,9.7,2.4,14.6,2.4c3.7,0,6.2,2.6,6.2,6.2v14.8C80,77.4,77.4,80,73.8,80z M6.2,4C4.8,4,4,4.8,4,6.2
				C4,44.7,35.3,76,73.8,76c1.4,0,2.2-0.8,2.2-2.2V59c0-1.4-0.8-2.2-2.2-2.2c-5.3,0-10.6-0.9-15.8-2.6c-0.5-0.2-1.4,0-2.3,0.5
				l-9.1,9.1c-0.6,0.6-1.5,0.8-2.3,0.4c-11.8-5.9-22-16.1-28.7-28.7c-0.4-0.8-0.3-1.7,0.3-2.4l9.3-9.3c0.5-0.5,0.9-1.3,0.6-1.7
				c-0.1-0.2-0.2-0.4-0.3-0.6c-1.4-5.3-2.2-10.5-2.2-15.3C23.2,4.8,22.4,4,21,4H6.2z"/>
		</g>
	</g>
</g>
</svg>
