<?xml version="1.0" encoding="utf-8"?>
<!-- Generator: Adobe Illustrator 19.1.1, SVG Export Plug-In . SVG Version: 6.00 Build 0)  -->
<svg version="1.1" id="Calque_1" xmlns="http://www.w3.org/2000/svg" xmlns:xlink="http://www.w3.org/1999/xlink" x="0px" y="0px"
	 viewBox="0 0 80 80" style="enable-background:new 0 0 80 80;" xml:space="preserve">
<path d="M55,47.8L80,40l-25-7.8l5.1-9.8c0.4-0.7,0.2-1.6-0.3-2.1c-0.6-0.6-1.4-0.7-2.1-0.3L47.8,25L40,0l-7.8,25l-9.8-5.1
	c-0.7-0.4-1.6-0.2-2.1,0.3c-0.6,0.6-0.7,1.4-0.3,2.1l5.1,9.8L0,40l25,7.8l-5.1,9.8c-0.4,0.7-0.2,1.6,0.3,2.1
	c0.3,0.3,0.8,0.5,1.3,0.5c0.3,0,0.6-0.1,0.8-0.2l9.8-5.1L40,80l7.8-25l9.8,5.1c0.3,0.1,0.5,0.2,0.8,0.2c0.5,0,0.9-0.2,1.3-0.5
	c0.6-0.6,0.7-1.4,0.3-2.1L55,47.8z M33.6,46.4L13.4,40l20.3-6.4L40,13.4l6.4,20.3L66.6,40l-20.3,6.4L40,66.6L33.6,46.4z"/>
</svg>
