<svg id="Layer_1" data-name="Layer 1" xmlns="http://www.w3.org/2000/svg" xmlns:xlink="http://www.w3.org/1999/xlink" viewBox="0 0 120 151"><defs><clipPath id="clip-path"><path d="M59.42-148v-2.23h1.15V-148l-.14,15.69h-.86ZM60-128.48a1.33,1.33,0,0,1,1,.44,1.33,1.33,0,0,1,.34,1,1.3,1.3,0,0,1-.61,1.22,1.3,1.3,0,0,1-1.37,0,1.3,1.3,0,0,1-.61-1.22,1.33,1.33,0,0,1,.33-1A1.33,1.33,0,0,1,60-128.48Z" fill="none"/></clipPath><clipPath id="clip-path-2"><path d="M241.1-148v-2.23h1.15V-148l-.14,15.69h-.86Zm.58,19.51a1.33,1.33,0,0,1,1,.44,1.33,1.33,0,0,1,.34,1,1.3,1.3,0,0,1-.61,1.22,1.3,1.3,0,0,1-1.37,0,1.3,1.3,0,0,1-.61-1.22,1.33,1.33,0,0,1,.33-1A1.33,1.33,0,0,1,241.68-128.48Z" fill="none"/></clipPath></defs><title>v2Artboard 1 copy 2</title><rect x="9" y="148" width="101" height="3" fill="#e36947"/><path d="M60,0a60,60,0,1,0,42.43,17.57A60,60,0,0,0,60,0m0,3A57,57,0,1,1,3,60,57,57,0,0,1,60,3" fill="#e36947"/><line x1="86.74" y1="33.26" x2="33.26" y2="86.74" fill="none" stroke="#162843" stroke-linecap="round" stroke-linejoin="round"/><line x1="86.74" y1="86.74" x2="33.26" y2="33.26" fill="none" stroke="#162843" stroke-linecap="round" stroke-linejoin="round"/></svg>