<?xml version="1.0" encoding="UTF-8"?>
<svg width="36px" height="24px" viewBox="0 0 36 24" version="1.1" xmlns="http://www.w3.org/2000/svg" xmlns:xlink="http://www.w3.org/1999/xlink">
    <!-- Generator: Sketch 57 (83077) - https://sketch.com -->
    <title>oui-Flag/Andore</title>
    <desc>Created with Sketch.</desc>
    <g id="oui-Flag/Andore" stroke="none" stroke-width="1" fill="none" fill-rule="evenodd">
        <g id="Andore" fill-rule="nonzero">
            <rect id="Rectangle-path" fill="#1E3484" x="0" y="0" width="11.403" height="24"></rect>
            <path d="M11.403,0 L11.403,24 L24.597,24 L24.597,0 L11.403,0 Z M23.04,14.0525373 L23.04,14.1026866 C23.58,14.8871642 23.1714,16.4435821 21.2994,16.4435821 C19.9152,16.4435821 19.4742,16.638806 19.3194,16.7874627 C19.6344,17.0614925 19.5606,17.5970149 19.1088,17.6346269 C18.8622,17.8262687 18.6354,17.8728358 18.3888,17.6095522 C18.2646,17.7743284 18.1728,17.9391045 17.9928,18.0143284 C17.8200374,17.9062157 17.6712131,17.7642257 17.5554,17.5970149 C17.3088,17.7940299 17.118,17.8423881 16.947,17.6525373 C16.407,17.6525373 16.1046,17.1152239 16.587,16.7928358 C16.3026,16.4614925 15.6186,16.4346269 15.0282,16.4346269 C12.8556,16.68 12.2508,14.9068657 13.0482,13.9271642 C12.5082,13.7480597 12.5082,12.9671642 13.2462,13.1229851 C13.5126,13.0495522 13.5468,12.3170149 13.4694,12.121791 C13.0572,12.3958209 12.5586,11.9283582 12.9834,11.4698507 C11.8548,11.0758209 12.294,9.00716418 13.6404,9.26328358 C13.8816,9.30626866 13.9122,9.16835821 13.986,9.06626866 C14.0598,8.85850746 13.9482,8.61313433 13.6026,8.31761194 C13.0626,7.97373134 13.32,7.44716418 13.4658,7.36835821 C13.491,7.25014925 13.6782,7.03164179 13.7772,7.06925373 C13.8762,6.87761194 14.2974,6.77373134 14.3676,6.85791045 C14.5127693,6.73352031 14.7156513,6.70033577 14.8932,6.7719403 C15.102,6.69134328 15.2892,6.7719403 15.2928,6.88298507 C15.6402,6.92597015 15.723,7.17671642 15.615,7.47761194 C15.7698,7.65671642 15.8994,7.65671642 16.245,7.61910448 C16.3912664,7.61743712 16.5209879,7.52523767 16.5700076,7.38810561 C16.6190273,7.25097354 16.5769556,7.0979738 16.4646,7.00477612 C16.119,6.17014925 16.7796,5.77432836 17.2422,6.07164179 C17.883,6.49432836 18.2178,6.44955224 18.5742,6.12179104 C18.9702,5.76358209 19.8468,6.13432836 19.5012,6.96895522 C19.3032,7.21432836 19.2834,7.59940299 19.8072,7.59402985 C19.8666,7.58149254 20.3634,7.56895522 20.3868,7.55283582 C20.2682038,7.43324646 20.2324435,7.25493332 20.2958265,7.09921068 C20.3592095,6.94348804 20.5095933,6.8401882 20.6784,6.83641791 C20.7018,6.76298507 20.8746,6.73791045 21.0168,6.80597015 C21.0834,6.71283582 21.4254,6.77014925 21.5172,6.88656716 C21.645,6.83641791 22.0986,6.95283582 22.1526,7.16238806 C22.3866,7.20537313 22.4874,7.34149254 22.4856,7.45074627 C22.8096,7.62985075 22.6404,8.13313433 22.275,8.33552239 C22.0558889,8.46588905 21.9198124,8.69945309 21.915,8.95343284 C21.917901,9.04319954 21.9585111,9.12763931 22.0269465,9.18620097 C22.0953819,9.24476264 22.1853667,9.27207567 22.275,9.26149254 C23.8626,8.99462687 24.0084,11.04 22.9662,11.4698507 C23.1228,11.76 23.0508,12.1164179 22.5522,12.0573134 C22.338,12.3725373 22.5252,13.0459701 22.8078,13.2358209 C23.4144,12.999403 23.6628,13.9898507 23.04,14.0525373 Z" id="Shape" fill="#F8E700"></path>
            <rect id="Rectangle-path" fill="#FF2B39" x="24.597" y="0" width="11.403" height="24"></rect>
            <polygon id="Shape" fill="#EDC38E" points="18.6048 16.300597 19.0648 16.300597 18.8348 15.800597"></polygon>
            <path d="M15.5266,15.6489349 C15.5545316,15.5873283 15.5545316,15.5196542 15.5266,15.4580477 C15.4896172,15.4040861 15.4258816,15.3656273 15.3516,15.3524506 C15.3016852,15.3490975 15.2515148,15.3490975 15.2016,15.3524506 L15.0516,15.8276377 L15.1016,15.8276377 C15.1965274,15.8573685 15.3016726,15.8573685 15.3966,15.8276377 C15.4690684,15.7856637 15.5162938,15.7207459 15.5266,15.6489349 L15.5266,15.6489349 Z" id="Shape" fill="#EDC38E"></path>
            <path d="M22.0486,15.3352101 C21.9891535,15.2987382 21.9125382,15.2843723 21.8386,15.2958336 C21.7886241,15.300904 21.7398085,15.3115092 21.6936,15.3273348 L21.7786,15.7919773 L21.8336,15.7919773 C21.933058,15.7865413 22.0260962,15.7513152 22.0936,15.6935361 C22.1477981,15.6405 22.1697302,15.5714114 22.1536,15.504529 C22.1493453,15.4391823 22.1114234,15.3780308 22.0486,15.3352101 Z" id="Shape" fill="#EDC38E"></path>
            <path d="M22.8222,13.2537313 C22.5396,13.0638806 22.3524,12.3904478 22.5666,12.0752239 C23.0652,12.1343284 23.1372,11.7779104 22.9806,11.4877612 C24.0228,11.0579104 23.8806,9.01253731 22.2894,9.27940299 C22.1997667,9.28998612 22.1097819,9.26267309 22.0413465,9.20411142 C21.9729111,9.14554975 21.932301,9.06110999 21.9294,8.97134328 C21.9342124,8.71736353 22.0702889,8.4837995 22.2894,8.35343284 C22.6494,8.15104478 22.8294,7.64776119 22.5,7.46865672 C22.5,7.35223881 22.401,7.22328358 22.167,7.18029851 C22.113,6.97074627 21.6594,6.85432836 21.5316,6.90447761 C21.4398,6.7880597 21.0978,6.72537313 21.0312,6.8238806 C20.889,6.7558209 20.7162,6.78089552 20.6928,6.85432836 C20.5239933,6.85809865 20.3736095,6.96139849 20.3102265,7.11712113 C20.2468435,7.27284377 20.2826038,7.45115691 20.4012,7.57074627 C20.3778,7.58686567 19.881,7.59940299 19.8216,7.6119403 C19.2978,7.6119403 19.3176,7.23223881 19.5156,6.98686567 C19.8612,6.15223881 18.9756,5.77253731 18.5886,6.13970149 C18.2286,6.46746269 17.8974,6.51223881 17.2566,6.08955224 C16.794,5.79223881 16.1334,6.1880597 16.479,7.02268657 C16.5913556,7.11588425 16.6334273,7.26888399 16.5844076,7.40601606 C16.5353879,7.54314812 16.4056664,7.63534757 16.2594,7.63701493 C15.9138,7.66746269 15.7842,7.67283582 15.6294,7.49552239 C15.7374,7.19462687 15.6546,6.9438806 15.3072,6.90089552 C15.3072,6.79522388 15.1164,6.70925373 14.9076,6.78985075 C14.7300513,6.71824622 14.5271693,6.75143075 14.382,6.8758209 C14.3118,6.79164179 13.8906,6.89552239 13.7916,7.08716418 C13.6926,7.04955224 13.5054,7.26626866 13.4802,7.38626866 C13.3344,7.46507463 13.0752,7.99164179 13.617,8.33552239 C13.9626,8.63104478 14.0742,8.87283582 14.0004,9.0841791 C13.9266,9.18626866 13.896,9.3241791 13.6548,9.28119403 C12.3084,9.02507463 11.8692,11.0937313 12.9978,11.4877612 C12.573,11.9462687 13.0716,12.4137313 13.4838,12.1397015 C13.5612,12.3349254 13.527,13.0674627 13.2606,13.1408955 C12.5172,12.9850746 12.519,13.7749254 13.0626,13.9450746 C12.2598,14.921194 12.8646,16.6943284 15.0426,16.4525373 C15.633,16.4525373 16.317,16.4704478 16.6014,16.8107463 C16.1136,17.1295522 16.4214,17.6704478 16.9614,17.6704478 C17.1414,17.8602985 17.3214,17.8119403 17.5698,17.6149254 C17.6856131,17.7821362 17.8344374,17.9241261 18.0072,18.0322388 C18.1872,17.9570149 18.279,17.7922388 18.4032,17.6274627 C18.6552,17.8907463 18.882,17.8441791 19.1232,17.6525373 C19.575,17.6149254 19.6488,17.079403 19.3338,16.8053731 C19.4832,16.6567164 19.9242,16.4614925 21.3138,16.4614925 C23.1858,16.4614925 23.5962,14.9050746 23.0544,14.120597 L23.0544,14.0704478 C23.6628,13.9898507 23.4144,12.999403 22.8222,13.2537313 Z M17.8686,14.6059701 C17.8686,14.7438806 17.7228,14.5665672 17.4798,14.5665672 C17.2368,14.5665672 16.056,14.6346269 15.7086,14.6346269 C15.5686514,14.6253373 15.4332054,14.5816441 15.3144,14.5074627 L15.0786,14.5074627 L15.0786,14.3462687 C14.902987,14.2293191 14.7802582,14.0487128 14.7366,13.8429851 L14.7366,11.641791 L17.8614,11.6310448 C17.8614,11.6310448 17.8686,14.4680597 17.8686,14.6059701 Z M17.8578,8.29791045 L17.8578,11.4125373 L14.742,11.4214925 L14.7276,8.31402985 L14.7024,8.31402985 L17.8578,8.29791045 Z M14.3604,15.6644776 L14.301,15.1916418 C14.301,15.1665672 14.301,15.1522388 14.301,15.1450746 C14.2966559,15.1366363 14.2912086,15.1288072 14.2848,15.121791 L14.2542,15.1056716 L14.2542,15.0913433 L14.4342,15.1397015 L14.4342,15.1522388 C14.4199756,15.1490745 14.4052244,15.1490745 14.391,15.1522388 C14.3833116,15.1561387 14.3779599,15.1634607 14.3766,15.1719403 C14.3728393,15.1920663 14.3728393,15.2127098 14.3766,15.2328358 L14.418,15.5552239 L14.598,15.2937313 C14.611142,15.2769867 14.6214754,15.2582371 14.6286,15.238209 C14.6319115,15.2307975 14.6319115,15.2223368 14.6286,15.2149254 C14.6217532,15.2046943 14.6115881,15.1971083 14.5998,15.1934328 L14.5998,15.1934328 L14.5998,15.1808955 L14.7402,15.2149254 L14.7402,15.2292537 C14.7271943,15.2260667 14.7136057,15.2260667 14.7006,15.2292537 C14.6815385,15.2416599 14.6655403,15.2581908 14.6538,15.2776119 L14.3874,15.6626866 L14.3604,15.6644776 Z M14.8212,15.7701493 L14.6268,15.72 L14.6268,15.7074627 L14.643,15.7074627 C14.6570965,15.7147888 14.6739035,15.7147888 14.688,15.7074627 C14.7001542,15.6910858 14.7081791,15.6720447 14.7114,15.6519403 L14.7942,15.3295522 C14.7967364,15.3123308 14.7967364,15.2948334 14.7942,15.2776119 C14.7962661,15.2712057 14.7962661,15.2643167 14.7942,15.2579104 C14.7861133,15.2502153 14.7762084,15.2446716 14.7654,15.241791 L14.7492,15.241791 L14.76,15.2238806 L14.9544,15.2740299 L14.9544,15.2865672 L14.9382,15.2865672 C14.9241035,15.2792411 14.9072965,15.2792411 14.8932,15.2865672 C14.8818054,15.3033628 14.8738535,15.3222307 14.8698,15.3420896 L14.787,15.6644776 C14.7844636,15.6816991 14.7844636,15.6991965 14.787,15.7164179 C14.7852407,15.7228684 14.7852407,15.7296689 14.787,15.7361194 C14.7955411,15.7431816 14.8052992,15.7486432 14.8158,15.7522388 L14.832,15.7522388 L14.8212,15.7701493 Z M15.3,15.8919403 L15.1794,15.8597015 L15.0858,15.5820896 L15.0588,15.5820896 L15.048,15.5820896 L15.048,15.5820896 L15.0102,15.7289552 C15.0044972,15.7488572 15.0044972,15.7699488 15.0102,15.7898507 C15.0163971,15.8035942 15.029372,15.8131071 15.0444,15.8149254 L15.0624,15.8149254 L15.0624,15.8274627 L14.868,15.7791045 L14.868,15.7647761 L14.8842,15.7647761 C14.9006282,15.768972 14.918081,15.7649645 14.931,15.7540299 C14.9421373,15.7387833 14.9489735,15.7208502 14.9508,15.7020896 L15.0354,15.3779104 C15.04015,15.3578871 15.04015,15.3370383 15.0354,15.3170149 C15.0282699,15.3040509 15.0157562,15.2948762 15.0012,15.2919403 L14.9832,15.2919403 L14.9832,15.279403 L15.1488,15.320597 C15.1848945,15.3281979 15.219533,15.3415007 15.2514,15.36 C15.2729269,15.3734445 15.2893811,15.3935951 15.2982,15.4173134 C15.307259,15.4428088 15.307259,15.470624 15.2982,15.4961194 C15.2922122,15.5254931 15.2755494,15.5516384 15.2514,15.5695522 C15.2226473,15.5884592 15.1886336,15.5978604 15.1542,15.5964179 L15.21,15.7629851 C15.2186911,15.7918211 15.232068,15.8190468 15.2496,15.8435821 C15.2644049,15.8597139 15.2829404,15.8720095 15.3036,15.879403 L15.3,15.8919403 Z M15.7518,15.598209 L15.7392,15.598209 C15.741752,15.5827904 15.741752,15.5670603 15.7392,15.5516418 C15.7370569,15.5372397 15.7300783,15.5239833 15.7194,15.5140299 C15.7081212,15.5024896 15.6937535,15.4944091 15.678,15.4907463 L15.6132,15.4746269 L15.516,15.8579104 C15.5064,15.8889552 15.5064,15.9086567 15.516,15.9170149 C15.5221971,15.9307584 15.535172,15.9402713 15.5502,15.9420896 L15.5664,15.9420896 L15.5664,15.9546269 L15.3738,15.9062687 L15.3738,15.8919403 L15.39,15.8919403 C15.4040157,15.8995868 15.4209843,15.8995868 15.435,15.8919403 C15.4458494,15.8763627 15.4532151,15.858651 15.4566,15.84 L15.5538,15.4567164 L15.4998,15.4441791 C15.4843223,15.4414308 15.4684777,15.4414308 15.453,15.4441791 C15.4392132,15.4468071 15.4266135,15.4537025 15.417,15.4638806 C15.4031899,15.4778276 15.3932647,15.4951103 15.3882,15.5140299 L15.3756,15.5140299 L15.4116,15.3976119 L15.7806,15.4925373 L15.7518,15.598209 Z M15.9318,16.0620896 L15.9192,16.0620896 L15.8562,15.5820896 C15.8578946,15.5672118 15.8578946,15.5521912 15.8562,15.5373134 C15.8529896,15.5282505 15.8473953,15.52021 15.84,15.5140299 C15.8312565,15.5058816 15.8208056,15.4997646 15.8094,15.4961194 L15.8094,15.4835821 L15.9894,15.5301493 L15.9894,15.5444776 C15.9746323,15.5407628 15.9591677,15.5407628 15.9444,15.5444776 C15.9371952,15.5489181 15.9320257,15.5559907 15.93,15.5641791 C15.9262964,15.5849121 15.9262964,15.6061326 15.93,15.6268657 L15.9714,15.9492537 L16.1514,15.6859701 C16.16453,15.6689097 16.175418,15.6502514 16.1838,15.6304478 C16.1869001,15.6229931 16.1869001,15.6146189 16.1838,15.6071642 C16.1763649,15.5975052 16.1664008,15.5900693 16.155,15.5856716 L16.155,15.5856716 L16.155,15.5713433 L16.2936,15.6071642 L16.2936,15.6197015 C16.2801138,15.6155604 16.2656862,15.6155604 16.2522,15.6197015 C16.2339928,15.6323926 16.2181545,15.648152 16.2054,15.6662687 L15.9318,16.0620896 Z M16.56,15.8507463 L16.56,15.8507463 C16.5650352,15.8211057 16.5650352,15.7908345 16.56,15.761194 C16.5546857,15.7394949 16.5434771,15.7196677 16.5276,15.7038806 C16.5124046,15.6881425 16.4930692,15.6769714 16.4718,15.6716418 C16.4290994,15.6601457 16.3850269,15.684863 16.3728,15.7271642 C16.3674469,15.7422296 16.3674469,15.7586659 16.3728,15.7737313 C16.3940538,15.8103552 16.4207562,15.8435672 16.452,15.8722388 C16.4775288,15.8970832 16.5015702,15.9233971 16.524,15.9510448 C16.5359012,15.9682259 16.5438873,15.9877862 16.5474,16.0083582 C16.5518419,16.0284161 16.5518419,16.0491958 16.5474,16.0692537 C16.5388139,16.1061139 16.5153848,16.1378449 16.4826,16.1570149 C16.4483359,16.1769509 16.4073843,16.1821253 16.3692,16.1713433 L16.3332,16.158806 C16.3193443,16.1515202 16.3061014,16.1431348 16.2936,16.1337313 L16.2504,16.119403 C16.2457701,16.1176047 16.2406299,16.1176047 16.236,16.119403 C16.2295686,16.1253411 16.2246351,16.1327045 16.2216,16.1408955 L16.209,16.1408955 L16.254,15.961791 L16.2666,15.961791 C16.2618,15.9902488 16.2618,16.0193035 16.2666,16.0477612 C16.2723319,16.0696959 16.2841894,16.089567 16.3008,16.1050746 C16.3179321,16.1214491 16.3390062,16.1331672 16.362,16.1391045 C16.3850788,16.1484619 16.4109212,16.1484619 16.434,16.1391045 C16.4539624,16.1281129 16.4683406,16.1092542 16.4736,16.0871642 C16.4772076,16.0742751 16.4772076,16.0606503 16.4736,16.0477612 C16.4708263,16.0319766 16.4640065,16.017171 16.4538,16.0047761 C16.4366309,15.9820975 16.4179912,15.9605591 16.398,15.9402985 C16.3729806,15.9160212 16.3500969,15.8896562 16.3296,15.8614925 C16.3175262,15.8448636 16.3089546,15.825978 16.3044,15.8059701 C16.2990553,15.78602 16.2990553,15.7650248 16.3044,15.7450746 C16.3124907,15.7103811 16.3346413,15.6805618 16.3656,15.6626866 C16.3966009,15.6430165 16.4344661,15.6371701 16.47,15.6465672 C16.4965913,15.6543423 16.521161,15.6677884 16.542,15.6859701 L16.5654,15.7020896 C16.5706278,15.7040088 16.5763722,15.7040088 16.5816,15.7020896 C16.5880314,15.6961515 16.5929649,15.688788 16.596,15.680597 L16.6086,15.680597 L16.56,15.8507463 Z M17.802,15.7074627 L17.784,15.7074627 C17.7671969,15.7064388 17.7509895,15.7138302 17.7408,15.7271642 C17.7366297,15.745439 17.7366297,15.7644117 17.7408,15.7826866 L17.7408,16.2143284 L17.7282,16.2143284 L17.4096,15.8023881 L17.4096,16.119403 C17.4073776,16.1397292 17.4111292,16.1602605 17.4204,16.1785075 C17.4307767,16.1902141 17.4461942,16.1962171 17.4618,16.1946269 L17.478,16.1946269 L17.478,16.2089552 L17.3106,16.2089552 L17.3106,16.1946269 L17.3268,16.1946269 C17.3442202,16.1962782 17.3612545,16.1888204 17.3718,16.1749254 C17.3759703,16.1566505 17.3759703,16.1376779 17.3718,16.119403 L17.3718,15.761194 C17.3623488,15.7486507 17.3514772,15.7372322 17.3394,15.7271642 C17.3300599,15.7203107 17.319747,15.7148781 17.3088,15.7110448 L17.2782,15.7110448 C17.2634914,15.7129206 17.2496918,15.719162 17.2386,15.7289552 C17.2234264,15.7452628 17.2123266,15.7648975 17.2062,15.7862687 L17.0388,16.2214925 L17.0244,16.2214925 L16.8444,15.7791045 C16.8388456,15.7648994 16.832227,15.7511293 16.8246,15.7379104 C16.8191818,15.7300869 16.8117108,15.723892 16.803,15.72 C16.7916474,15.7185377 16.7801526,15.7185377 16.7688,15.72 L16.7688,15.7056716 L16.965,15.7056716 L16.965,15.72 C16.9496549,15.719719 16.9345872,15.7240918 16.9218,15.7325373 C16.9147598,15.7374068 16.910691,15.745504 16.911,15.7540299 C16.9129485,15.7745109 16.9184286,15.7945048 16.9272,15.8131343 L17.0496,16.1140299 L17.1648,15.8167164 C17.1730808,15.797911 17.1785391,15.7779967 17.181,15.7576119 C17.1807383,15.7492194 17.1767906,15.7413632 17.1702,15.7361194 C17.1607766,15.727601 17.148709,15.7225451 17.136,15.721791 L17.136,15.721791 L17.136,15.7074627 L17.415,15.7074627 L17.7084,16.0925373 L17.7084,15.7826866 C17.7084,15.7504478 17.7084,15.7307463 17.7084,15.7235821 C17.6980233,15.7118754 17.6826058,15.7058725 17.667,15.7074627 L17.64,15.7074627 L17.64,15.6931343 L17.8074,15.6931343 L17.802,15.7074627 Z M18.036,15.7074627 L18.018,15.7074627 C18.0017567,15.7067251 17.9862188,15.7141193 17.9766,15.7271642 C17.9766,15.7271642 17.9766,15.7540299 17.9766,15.7844776 L17.9766,16.119403 C17.9749513,16.1360792 17.9749513,16.1528761 17.9766,16.1695522 C17.9791724,16.1770006 17.9842617,16.1833305 17.991,16.1874627 C18.0016667,16.1898507 18.0127333,16.1898507 18.0234,16.1874627 L18.0414,16.1874627 L18.0414,16.201791 L17.838,16.201791 L17.838,16.1874627 L17.8542,16.1874627 C17.8710031,16.1884866 17.8872105,16.1810951 17.8974,16.1677612 C17.902125,16.148946 17.902125,16.129263 17.8974,16.1104478 L17.8974,15.7844776 C17.9001296,15.7672707 17.9001296,15.7497442 17.8974,15.7325373 C17.8942,15.7259362 17.8892132,15.720354 17.883,15.7164179 C17.8723333,15.7140299 17.8612667,15.7140299 17.8506,15.7164179 L17.838,15.7164179 L17.838,15.7020896 L18.0432,15.7020896 L18.036,15.7074627 Z M18.063,8.2961194 L21.186,8.2961194 L21.186,11.4232836 L18.0684,11.4232836 L18.063,8.2961194 Z M21.1896,13.7713433 C21.1896,14.081194 20.565,14.5665672 20.2176,14.5665672 C19.8702,14.5665672 18.6894,14.4967164 18.4446,14.4967164 C18.1998,14.4967164 18.0846,14.7635821 18.0846,14.6256716 C18.0846,14.4877612 18.0846,11.6346269 18.0846,11.6346269 L21.1734,11.6185075 C21.1968,11.6919403 21.1968,13.4597015 21.1968,13.7713433 L21.1896,13.7713433 Z M18.3852,15.7253731 L18.3186,15.7253731 L18.3186,16.119403 C18.3141289,16.1388533 18.3141289,16.1590571 18.3186,16.1785075 C18.3292959,16.1897515 18.3444753,16.1956617 18.36,16.1946269 L18.3762,16.1946269 L18.3762,16.2089552 L18.18,16.2089552 L18.18,16.1946269 L18.1962,16.1946269 C18.213195,16.1967775 18.229943,16.1891395 18.2394,16.1749254 C18.2438301,16.1566804 18.2438301,16.137648 18.2394,16.119403 L18.2394,15.7253731 L18.1818,15.7253731 C18.1657113,15.7227011 18.1492887,15.7227011 18.1332,15.7253731 C18.1196321,15.7312851 18.1082912,15.7413157 18.1008,15.7540299 C18.0923831,15.7707816 18.0874835,15.7890636 18.0864,15.8077612 L18.072,15.8077612 L18.072,15.6877612 L18.4662,15.6877612 L18.4662,15.8077612 L18.4518,15.8077612 C18.451232,15.7922692 18.4475602,15.7770461 18.441,15.7629851 C18.4349564,15.7495501 18.4249005,15.7382935 18.4122,15.7307463 C18.4035018,15.7276895 18.3944106,15.7258803 18.3852,15.7253731 L18.3852,15.7253731 Z M18.9648,16.2071642 L18.774,16.2071642 L18.774,16.1928358 C18.7879083,16.1926962 18.8015462,16.1889953 18.8136,16.1820896 C18.8162257,16.1751636 18.8162257,16.167523 18.8136,16.160597 C18.8124247,16.1424851 18.8075235,16.1248065 18.7992,16.1086567 L18.7704,16.0352239 L18.5904,16.0352239 L18.558,16.1158209 C18.5507214,16.129714 18.5464303,16.1449631 18.5454,16.160597 C18.5456808,16.1684901 18.5496826,16.1757903 18.5562,16.1802985 C18.5694392,16.1892175 18.5852312,16.1936172 18.6012,16.1928358 L18.6012,16.2071642 L18.45,16.2071642 L18.45,16.1928358 C18.4698,16.1928358 18.4824,16.1928358 18.4878,16.1767164 C18.5061076,16.1550398 18.520152,16.1301287 18.5292,16.1032836 L18.6984,15.6823881 L18.72,15.6823881 L18.8874,16.1086567 C18.8948757,16.1328986 18.907112,16.1554232 18.9234,16.1749254 C18.9364211,16.1861474 18.9529773,16.1924835 18.9702,16.1928358 L18.9648,16.2071642 Z M19.44,15.7128358 C19.4325291,15.6949948 19.4228547,15.6781488 19.4112,15.6626866 C19.4019656,15.6538567 19.3909094,15.6471337 19.3788,15.6429851 C19.3609888,15.6393165 19.3426112,15.6393165 19.3248,15.6429851 L19.2222,15.6573134 L19.2528,15.8579104 L19.3356,15.8453731 C19.3511535,15.8433506 19.3656549,15.8364497 19.377,15.8256716 C19.3820299,15.806288 19.3820299,15.7859508 19.377,15.7665672 L19.3896,15.7665672 L19.4148,15.9456716 L19.4022,15.9456716 C19.400758,15.9304379 19.3958324,15.9157344 19.3878,15.9026866 C19.3830925,15.8949262 19.3762112,15.8887016 19.368,15.8847761 C19.3561668,15.8819607 19.3438332,15.8819607 19.332,15.8847761 L19.2474,15.8973134 L19.2708,16.0567164 C19.2727262,16.0739185 19.276964,16.0907855 19.2834,16.1068657 C19.2874885,16.112934 19.293064,16.1178654 19.2996,16.121194 C19.3102353,16.1238478 19.3213647,16.1238478 19.332,16.121194 L19.3482,16.121194 L19.3482,16.1355224 L19.152,16.1641791 L19.152,16.1498507 L19.1682,16.1498507 C19.184086,16.1479374 19.198115,16.1386313 19.206,16.1247761 C19.211857,16.1055056 19.211857,16.0849422 19.206,16.0656716 L19.1592,15.7379104 C19.1561231,15.7209343 19.1519138,15.7041809 19.1466,15.6877612 C19.1425115,15.6816928 19.136936,15.6767615 19.1304,15.6734328 C19.1197647,15.670779 19.1086353,15.670779 19.098,15.6734328 L19.0818,15.6734328 L19.0818,15.6608955 L19.44,15.6 L19.4616,15.7110448 L19.44,15.7128358 Z M19.9368,15.9779104 C19.9046079,16.0316078 19.8496451,16.0678477 19.7874,16.0764179 C19.7256651,16.0870489 19.6624718,16.0685161 19.6164,16.0262687 C19.5645249,15.9799697 19.5318047,15.9161317 19.5246,15.8471642 C19.5106907,15.7747042 19.5269298,15.6997297 19.5696,15.639403 C19.6030861,15.5901719 19.6561623,15.5575718 19.7154,15.5498507 C19.7756488,15.5414125 19.8365051,15.5605 19.881,15.601791 C19.9323612,15.6487096 19.9654956,15.7121127 19.9746,15.7808955 C19.9875602,15.8483132 19.9760802,15.9181195 19.9422,15.9779104 L19.9368,15.9779104 Z M20.385,15.9779104 L20.1996,15.761194 L20.1708,15.761194 L20.16,15.761194 L20.1816,15.9080597 C20.1826987,15.9283596 20.1888868,15.9480629 20.1996,15.9653731 C20.2105231,15.975981 20.2262611,15.9800661 20.241,15.9761194 L20.259,15.9761194 L20.259,15.9904478 L20.0628,16.0191045 L20.0628,16.0047761 L20.079,16.0047761 C20.0964401,16.004596 20.1120606,15.9939986 20.1186,15.9779104 C20.1231003,15.9596738 20.1231003,15.9406247 20.1186,15.9223881 L20.0718,15.5946269 C20.0718,15.5623881 20.061,15.5444776 20.052,15.5373134 C20.0414998,15.5259833 20.0253246,15.5217847 20.0106,15.5265672 L19.98,15.5265672 L19.98,15.5140299 L20.1474,15.4889552 C20.1831436,15.482909 20.2196564,15.482909 20.2554,15.4889552 C20.2805523,15.4933222 20.3037779,15.5051895 20.322,15.5229851 C20.3608944,15.566315 20.3687785,15.629074 20.3418,15.680597 C20.3228057,15.7089698 20.294984,15.7303614 20.2626,15.7414925 L20.3778,15.8722388 C20.396345,15.8956739 20.4188885,15.9156803 20.4444,15.9313433 C20.4682658,15.9412917 20.4944539,15.9443938 20.52,15.9402985 L20.52,15.9528358 L20.385,15.9779104 Z M20.7954,15.5229851 C20.7925189,15.5078379 20.7870389,15.4932972 20.7792,15.48 C20.7717088,15.4672859 20.7603679,15.4572552 20.7468,15.4513433 C20.7308338,15.4474704 20.7141662,15.4474704 20.6982,15.4513433 L20.6334,15.4513433 L20.691,15.838209 C20.691,15.8704478 20.7018,15.8901493 20.709,15.8955224 C20.7205113,15.9050443 20.7356809,15.9089819 20.7504,15.9062687 L20.7666,15.9062687 L20.7666,15.918806 L20.5722,15.9474627 L20.5722,15.9402985 L20.5884,15.9402985 C20.6047562,15.9397395 20.6193906,15.9300318 20.6262,15.9152239 C20.6300859,15.8969184 20.6300859,15.878007 20.6262,15.8597015 L20.5686,15.4710448 L20.5146,15.48 C20.4989379,15.4813083 20.4836676,15.4855627 20.4696,15.4925373 C20.4575393,15.4995282 20.4480695,15.5102073 20.4426,15.5229851 C20.4385121,15.541873 20.4385121,15.5614105 20.4426,15.5802985 L20.43,15.5802985 L20.4192,15.4602985 L20.7936,15.4065672 L20.8152,15.5247761 L20.7954,15.5229851 Z M20.8998,15.9044776 L20.8998,15.8901493 L20.916,15.8901493 C20.9321791,15.8877644 20.9465765,15.8786481 20.9556,15.8650746 C20.960134,15.8456314 20.960134,15.8254134 20.9556,15.8059701 L20.9088,15.478209 C20.9057231,15.4612328 20.9015138,15.4444794 20.8962,15.4280597 C20.8925305,15.422043 20.886764,15.4175803 20.88,15.4155224 C20.8694734,15.4121029 20.8581266,15.4121029 20.8476,15.4155224 L20.8314,15.4155224 L20.8314,15.4029851 L21.0276,15.3743284 L21.0276,15.3868657 L21.0114,15.3868657 C20.9955578,15.3874597 20.9811984,15.3963046 20.9736,15.4101493 C20.967743,15.4294198 20.967743,15.4499832 20.9736,15.4692537 L21.0204,15.7970149 C21.0223262,15.814217 21.026564,15.831084 21.033,15.8471642 C21.0370885,15.8532325 21.042664,15.8581639 21.0492,15.8614925 C21.0598353,15.8641463 21.0709647,15.8641463 21.0816,15.8614925 L21.0978,15.8614925 L21.0978,15.8758209 L20.8998,15.9044776 Z M21.5118,15.7486567 C21.4800052,15.8022358 21.4259252,15.8389848 21.3642,15.8489552 C21.2993225,15.8609129 21.2325822,15.8416545 21.1842,15.7970149 C21.1323249,15.750716 21.0996047,15.686878 21.0924,15.6179104 C21.0784907,15.5454505 21.0947298,15.470476 21.1374,15.4101493 C21.1710483,15.3610868 21.2240411,15.3285379 21.2832,15.320597 C21.3434268,15.3124195 21.4041729,15.3314724 21.4488,15.3725373 C21.5002667,15.4191476 21.5329022,15.4828204 21.5406,15.5516418 C21.5579814,15.6179044 21.5496261,15.6882511 21.5172,15.7486567 L21.5118,15.7486567 Z M21.9618,15.7486567 L21.78,15.5355224 L21.7512,15.5355224 L21.7314,15.5355224 L21.753,15.6823881 C21.753,15.7146269 21.7638,15.7343284 21.771,15.7397015 C21.7817261,15.7506513 21.7976651,15.7547886 21.8124,15.7504478 L21.8304,15.7504478 L21.8304,15.7647761 L21.6342,15.7934328 L21.6342,15.7791045 L21.6504,15.7791045 C21.6678251,15.7773499 21.6829536,15.7664021 21.69,15.7504478 C21.6935478,15.7321086 21.6935478,15.7132645 21.69,15.6949254 L21.6432,15.3671642 C21.6414098,15.346736 21.6346111,15.3270566 21.6234,15.3098507 C21.6121496,15.2998342 21.5967342,15.2958328 21.582,15.2991045 L21.5658,15.2991045 L21.5658,15.2865672 L21.7332,15.2614925 C21.7695479,15.2554471 21.8066521,15.2554471 21.843,15.2614925 C21.8681523,15.2658595 21.8913779,15.2777268 21.9096,15.2955224 C21.9283844,15.3151644 21.9403674,15.3402664 21.9438,15.3671642 C21.9496458,15.3968278 21.9438485,15.4275928 21.9276,15.4531343 C21.9093697,15.481474 21.8821178,15.5029147 21.8502,15.5140299 L21.9654,15.6465672 C21.9844112,15.6690589 22.0068911,15.6884043 22.032,15.7038806 C22.0516339,15.7131824 22.0732809,15.7174903 22.095,15.7164179 L22.095,15.7307463 L21.9618,15.7486567 Z" id="Shape" fill="#EDC38E"></path>
            <path d="M21.3655974,15.3457582 C21.300884,15.3501139 21.2443456,15.3755525 21.2162359,15.4129611 C21.1447472,15.5449117 21.1798002,15.6908398 21.3099529,15.8031115 C21.3526208,15.833562 21.4164532,15.8482936 21.479815,15.8423132 C21.5491431,15.8352616 21.6090059,15.807511 21.6408912,15.7676433 C21.6812864,15.7089002 21.6905398,15.643365 21.6672491,15.5809685 C21.6597425,15.5089932 21.6166846,15.4403798 21.5442455,15.3849599 C21.4997896,15.352649 21.4318362,15.3377376 21.3655974,15.3457582 L21.3655974,15.3457582 Z" id="Shape" fill="#EDC38E"></path>
            <path d="M20.4718,15.565959 C20.4123041,15.5293475 20.3363804,15.5136426 20.2618,15.52252 C20.2124795,15.5316908 20.1640287,15.5435666 20.1168,15.558061 L20.2018,16.0200935 L20.2368,16.0200935 C20.3365284,16.0154573 20.4299338,15.9799902 20.4968,15.9213686 C20.5509981,15.8681797 20.5729302,15.798892 20.5568,15.7318168 C20.5564793,15.6699622 20.5260443,15.6105753 20.4718,15.565959 Z" id="Shape" fill="#EDC38E"></path>
            <path d="M19.7889969,15.5821752 C19.7259009,15.5872027 19.6711293,15.6128654 19.6437899,15.6502105 C19.6000154,15.7129603 19.5888025,15.7832748 19.6118444,15.8505367 C19.6214896,15.9202252 19.6641044,15.9862529 19.7338182,16.0395237 C19.7761289,16.0703514 19.8394269,16.0852654 19.9022583,16.079211 C19.9713876,16.0726762 20.0311333,16.0444002 20.0619859,16.0036162 C20.1014324,15.9440441 20.1105903,15.8778274 20.0881232,15.8146292 C20.0773836,15.7454609 20.03602,15.6798087 19.9690535,15.6256422 C19.9249689,15.5915451 19.8565878,15.5750374 19.7889969,15.5821752 L19.7889969,15.5821752 Z" id="Shape" fill="#EDC38E"></path>
            <path d="M14.7366,11.4214925 L17.8524,11.4125373 L17.8524,8.29791045 L14.6916,8.31402985 L14.7168,8.31402985 L14.7366,11.4214925 Z M15.4566,9.4638806 C15.4962,9.43164179 16.2414,8.52716418 16.2918,8.49492537 C16.3314,8.52 17.1126,9.40656716 17.1432,9.44776119 C17.1912434,9.5070438 17.2010301,9.58842561 17.1684,9.65731343 C17.136,9.71104478 16.7346,10.6191045 16.7004,10.6441791 L15.8652,10.6441791 C15.8652,10.6441791 15.4476,9.72179104 15.4152,9.67343284 C15.3965533,9.59958406 15.4153746,9.52132915 15.4656,9.4638806 L15.4566,9.4638806 Z" id="Shape" fill="#FF1E2D"></path>
            <path d="M14.7366,13.839403 C14.7802582,14.0451307 14.902987,14.225737 15.0786,14.3426866 L15.0786,11.7259701 L15.4152,11.7259701 L15.4152,14.5074627 L15.3144,14.5074627 C15.4328659,14.5829067 15.5683345,14.6278383 15.7086,14.638209 C16.056,14.638209 17.2368,14.5701493 17.4798,14.5701493 C17.7228,14.5701493 17.8686,14.7492537 17.8686,14.6095522 C17.8686,14.4698507 17.8686,11.6310448 17.8686,11.6310448 L14.7366,11.641791 L14.7366,13.839403 Z M17.1702,11.720597 L17.5086,11.720597 L17.5086,14.5271642 L17.1702,14.5271642 L17.1702,11.720597 Z M16.4934,11.720597 L16.83,11.720597 L16.83,14.559403 L16.4934,14.559403 L16.4934,11.720597 Z M15.7824,11.720597 L16.1208,11.720597 L16.1208,14.5540299 L15.7824,14.5540299 L15.7824,11.720597 Z" id="Shape" fill="#F9E400"></path>
            <path d="M18.0954,11.641791 C18.0954,11.641791 18.0954,14.4949254 18.0954,14.6328358 C18.0954,14.7707463 18.216,14.5038806 18.4554,14.5038806 C18.6948,14.5038806 19.881,14.5737313 20.2284,14.5737313 C20.5758,14.5737313 21.2004,14.0883582 21.2004,13.7785075 C21.2004,13.4686567 21.2004,11.6991045 21.1878,11.6292537 L18.0954,11.641791 Z M18.6354,12.3008955 C18.6678,12.2776119 18.702,12.200597 18.6894,12.1844776 C18.6757764,12.1684524 18.6757764,12.1449804 18.6894,12.1289552 C18.7092749,12.1030297 18.721156,12.0719193 18.7236,12.039403 L18.7236,12.039403 C18.7236,12.039403 18.7236,12.039403 18.7128,12.039403 C18.6839078,12.0144272 18.6691188,11.9769697 18.6732,11.9391045 C18.7236,11.9283582 18.6966,11.9516418 18.7344,11.9892537 L18.7344,12 C18.7404107,11.9893448 18.7510493,11.9820672 18.7632,11.9802985 C18.7848,11.9802985 18.9018,11.9641791 18.9306,11.9802985 L18.9432,11.9802985 L18.9432,11.9802985 C18.9828,11.9408955 18.954,11.919403 19.0044,11.9301493 C19.0054481,11.9568745 18.9978795,11.9832329 18.9828,12.0053731 C19.017,12.0197015 19.0584,12.0358209 19.098,12.0483582 L19.1268,12.0483582 L19.1628,12.0591045 L19.1628,12.0591045 C19.1813562,12.0609016 19.2000438,12.0609016 19.2186,12.0591045 C19.3097293,12.0540517 19.4010707,12.0540517 19.4922,12.0591045 C19.6198682,12.0672713 19.7479318,12.0672713 19.8756,12.0591045 C19.9391675,12.0399127 20.0053855,12.0308455 20.0718,12.0322388 C20.1384,12.0429851 20.1708,12.0537313 20.1996,12.0931343 C20.2320646,12.1315335 20.2718237,12.1631825 20.3166,12.1862687 C20.371733,12.2201012 20.4006083,12.2839262 20.3895098,12.3474254 C20.3784112,12.4109247 20.3295753,12.4613019 20.2662,12.4746269 C20.2824,12.5462687 20.3004,12.5301493 20.3328,12.5462687 C20.3652,12.5623881 20.3562,12.6071642 20.367,12.6519403 C20.3725814,12.7385756 20.3840071,12.8247399 20.4012,12.9098507 C20.4012,12.9349254 20.367,12.9474627 20.358,12.9098507 C20.349,12.8722388 20.3436,12.8901493 20.3382,12.9241791 C20.3273163,12.9588576 20.293557,12.9812518 20.2572,12.9779104 C20.2356,12.9779104 20.2788,12.9349254 20.2248,12.961791 L20.2248,12.961791 C20.2014,12.9492537 20.25,12.9277612 20.277,12.8883582 C20.3075005,12.8441171 20.3135887,12.7875769 20.2932,12.7379104 C20.2717836,12.7132493 20.2585775,12.6825882 20.2554,12.6501493 C20.2554,12.6232836 20.2212,12.6179104 20.1888,12.5892537 C20.1564,12.560597 20.133,12.5552239 20.1222,12.5892537 C20.1114,12.6232836 20.133,12.6555224 20.1222,12.7002985 C20.1114,12.7450746 20.0718,12.7325373 20.043,12.7719403 C19.9909339,12.827715 19.9349963,12.8797833 19.8756,12.9277612 C19.8756,12.9277612 19.8432,12.9098507 19.8378,12.9385075 C19.8324,12.9671642 19.773,12.9922388 19.7478,12.9850746 L19.7478,12.96 L19.7046,12.96 C19.7046,12.9402985 19.7208,12.9277612 19.7424,12.8991045 C19.764,12.8704478 19.7928,12.8829851 19.827,12.8614925 C19.8660462,12.8282058 19.8994711,12.7889002 19.926,12.7450746 C19.9602,12.6949254 19.9602,12.6501493 19.944,12.6340299 C19.9304121,12.6178558 19.9205783,12.5988977 19.9152,12.5785075 C19.9152,12.5785075 19.8756,12.5785075 19.8702,12.5498507 C19.8648,12.521194 19.6758,12.6125373 19.647,12.6286567 C19.6153285,12.6409145 19.5819246,12.6481664 19.548,12.6501493 C19.548,12.6501493 19.5642,12.8167164 19.5696,12.8489552 C19.575,12.881194 19.5876,12.9134328 19.548,12.9080597 C19.548,12.8776119 19.5138,12.8865672 19.5192,12.9170149 C19.5182415,12.944195 19.5066087,12.969917 19.4868,12.9886567 L19.4148,12.9886567 L19.4148,12.9474627 L19.3824,12.961791 C19.3824,12.961791 19.3824,12.9331343 19.4076,12.9080597 C19.4457384,12.8613723 19.4672593,12.803429 19.4688,12.7432836 C19.4669716,12.714124 19.4596441,12.6855672 19.4472,12.6591045 C19.4472,12.6591045 19.3032,12.6591045 19.287,12.6322388 C19.2730509,12.6190471 19.2579963,12.6070633 19.242,12.5964179 C19.2502801,12.6010682 19.2571264,12.6078805 19.2618,12.6161194 C19.1916,12.6322388 19.1826,12.6895522 19.215,12.6967164 C19.2474,12.7038806 19.3626,12.7074627 19.3158,12.7486567 C19.269,12.7898507 19.3896,12.7486567 19.3716,12.8077612 C19.3716,12.8453731 19.35,12.8597015 19.332,12.84 L19.332,12.8686567 C19.3094296,12.869548 19.287641,12.8603504 19.2726,12.8435821 C19.2276,12.8167164 19.188,12.7522388 19.161,12.7450746 C19.134,12.7379104 19.1124,12.7110448 19.0836,12.6591045 C19.0857819,12.6074527 19.1069147,12.5583881 19.143,12.521194 C19.1661574,12.5456393 19.193608,12.5656695 19.224,12.5802985 C19.1827976,12.5513327 19.1431436,12.5202456 19.1052,12.4871642 L19.0368,12.4155224 L19.0224,12.4316418 C19.0278825,12.4609334 19.0375824,12.489285 19.0512,12.5158209 C19.0512,12.5265672 19.035,12.5337313 19.0098,12.5355224 L19.0098,12.5355224 C19.0098,12.5516418 19.0098,12.5641791 18.9936,12.5641791 C18.9774,12.5641791 18.9792,12.5516418 18.9792,12.5355224 L18.9792,12.5355224 C18.954,12.5355224 18.9306,12.5355224 18.9306,12.5158209 C18.9306,12.4961194 18.9756,12.4208955 18.9648,12.399403 C18.9574162,12.3780909 18.9537632,12.355676 18.954,12.3331343 C18.9598105,12.3420662 18.9671162,12.3499414 18.9756,12.3564179 C18.9616704,12.3420123 18.949023,12.3264315 18.9378,12.3098507 C18.9198,12.2829851 18.882,12.3223881 18.8532,12.3098507 C18.8244,12.2973134 18.8082,12.358209 18.7758,12.3707463 C18.7432973,12.3828299 18.7075027,12.3828299 18.675,12.3707463 C18.6534,12.36 18.6588,12.3385075 18.63,12.3170149 C18.6012,12.2955224 18.6012,12.3152239 18.6354,12.2937313 L18.6354,12.3008955 Z M20.3634,14.1313433 C20.3526,14.1098507 20.3508,14.1116418 20.3436,14.1456716 C20.3321552,14.1799281 20.2987813,14.2020667 20.2626,14.199403 C20.241,14.199403 20.2842,14.1546269 20.2302,14.1832836 L20.2302,14.1832836 C20.2068,14.1707463 20.2554,14.1492537 20.2824,14.1098507 C20.3123013,14.065476 20.3189957,14.0095225 20.3004,13.959403 C20.277789,13.9353252 20.2638593,13.9044542 20.2608,13.8716418 C20.2608,13.8429851 20.2284,13.8376119 20.1942,13.8107463 C20.16,13.7838806 20.1384,13.7767164 20.1276,13.8107463 C20.1168,13.8447761 20.1384,13.8770149 20.1276,13.921791 C20.1168,13.9665672 20.0772,13.9540299 20.0484,13.9934328 C19.996862,14.0490957 19.941531,14.1011593 19.8828,14.1492537 C19.8828,14.1492537 19.8486,14.1313433 19.8432,14.16 C19.8378,14.1886567 19.7784,14.2137313 19.755,14.2065672 L19.755,14.1814925 L19.7118,14.1814925 C19.7118,14.161791 19.728,14.1492537 19.7496,14.120597 C19.7712,14.0919403 19.8,14.1044776 19.8342,14.0829851 C19.8732462,14.0496984 19.9066711,14.0103927 19.9332,13.9665672 C19.9674,13.9164179 19.9674,13.8716418 19.9512,13.8555224 C19.9379311,13.8391395 19.9281341,13.8202524 19.9224,13.8 C19.9022079,13.8034713 19.8826894,13.7910417 19.8774,13.7713433 C19.8774,13.7391045 19.683,13.8322388 19.656,13.8501493 C19.6236766,13.8623136 19.5896946,13.8695592 19.5552,13.8716418 C19.5552,13.8716418 19.5714,14.038209 19.5768,14.0704478 C19.5822,14.1026866 19.5948,14.1349254 19.5552,14.1295522 C19.5552,14.0991045 19.521,14.1080597 19.5282,14.1295522 C19.5269697,14.1570432 19.5146379,14.1828758 19.494,14.201194 L19.422,14.201194 L19.422,14.161791 L19.3914,14.1743284 C19.3914,14.1743284 19.3914,14.1474627 19.4166,14.1223881 C19.4540505,14.0753133 19.4754836,14.0176065 19.4778,13.9576119 C19.4757728,13.9282712 19.4678139,13.8996397 19.4544,13.8734328 C19.4544,13.8734328 19.3104,13.8734328 19.2924,13.8465672 C19.2805206,13.8325921 19.2665584,13.8205115 19.251,13.8107463 C19.2583486,13.8159551 19.2644871,13.8226738 19.269,13.8304478 C19.1988,13.8465672 19.1898,13.9020896 19.2222,13.9110448 C19.2546,13.92 19.3698,13.921791 19.323,13.9629851 C19.2762,14.0041791 19.3986,13.9629851 19.3788,14.0202985 C19.359,14.0776119 19.3572,14.0740299 19.3392,14.0543284 L19.3392,14.0829851 C19.3166296,14.0838764 19.294841,14.0746787 19.2798,14.0579104 C19.2348,14.0310448 19.1952,13.9665672 19.1682,13.959403 C19.1412,13.9522388 19.1196,13.9253731 19.0926,13.8734328 C19.0940921,13.8216275 19.1153272,13.7723253 19.152,13.7355224 C19.1742175,13.759777 19.2011646,13.7792774 19.2312,13.7928358 C19.1897097,13.7649031 19.150031,13.7343948 19.1124,13.7014925 L19.044,13.6298507 L19.0296,13.6459701 C19.0348237,13.6753285 19.0445364,13.7037175 19.0584,13.7301493 C19.0584,13.7408955 19.0422,13.7480597 19.0188,13.7498507 L19.0188,13.7498507 C19.0188,13.7659701 19.0188,13.7785075 19.0044,13.7785075 C18.99,13.7785075 18.9882,13.7659701 18.9882,13.7498507 L18.9882,13.7498507 C18.963,13.7498507 18.9414,13.7408955 18.9414,13.7301493 C18.9414,13.719403 18.9846,13.6352239 18.9738,13.6137313 C18.9665174,13.5923941 18.9628672,13.5699965 18.963,13.5474627 C18.9688105,13.5563946 18.9761162,13.5642697 18.9846,13.5707463 C18.9706704,13.5563407 18.958023,13.5407599 18.9468,13.5241791 C18.9306,13.4973134 18.891,13.5367164 18.8622,13.5241791 C18.8334,13.5116418 18.8172,13.5743284 18.7848,13.5850746 C18.7524248,13.597841 18.7163752,13.597841 18.684,13.5850746 C18.6624,13.5743284 18.6678,13.5528358 18.6408,13.5295522 C18.6138,13.5062687 18.6174,13.4973134 18.6516,13.4740299 C18.6858,13.4507463 18.7182,13.3755224 18.7074,13.3576119 C18.7001436,13.3505375 18.6960545,13.3408546 18.6960545,13.3307463 C18.6960545,13.3206379 18.7001436,13.310955 18.7074,13.3038806 C18.7261194,13.2774838 18.7373147,13.2465404 18.7398,13.2143284 L18.7398,13.2143284 C18.7398,13.2143284 18.7398,13.2143284 18.729,13.2143284 C18.7008448,13.1888409 18.6862087,13.1517707 18.6894,13.1140299 C18.7398,13.1032836 18.7128,13.1247761 18.7524,13.1641791 L18.7524,13.1838806 C18.757333,13.1730791 18.7675638,13.1656139 18.7794,13.1641791 C18.801,13.1641791 18.918,13.1480597 18.9468,13.1641791 L18.9594,13.1641791 L18.9594,13.1641791 C18.999,13.1247761 18.9702,13.1032836 19.0206,13.1140299 C19.0211901,13.1404524 19.014331,13.1665112 19.0008,13.1892537 C19.0332,13.2035821 19.0728,13.2179104 19.1142,13.2322388 L19.1448,13.2322388 L19.1808,13.2429851 L19.1808,13.2429851 C19.1993426,13.2450404 19.2180574,13.2450404 19.2366,13.2429851 C19.3271293,13.2379469 19.4178707,13.2379469 19.5084,13.2429851 C19.6366684,13.2511647 19.7653316,13.2511647 19.8936,13.2429851 C19.9566016,13.2238419 20.0221265,13.2141828 20.088,13.2143284 C20.1546,13.2268657 20.1888,13.2376119 20.2158,13.2752239 C20.2480921,13.3142684 20.2878629,13.3465356 20.3328,13.3701493 C20.387933,13.4039818 20.4168083,13.4678068 20.4057098,13.531306 C20.3946112,13.5948053 20.3457753,13.6451825 20.2824,13.6585075 C20.2986,13.7301493 20.3166,13.7140299 20.349,13.7301493 C20.3814,13.7462687 20.3724,13.7910448 20.3832,13.8358209 C20.3895338,13.9217884 20.4009536,14.0073098 20.4174,14.0919403 C20.4231877,14.1015385 20.4233896,14.1134799 20.4179296,14.1232664 C20.4124696,14.1330528 20.4021773,14.1391975 20.3909296,14.1393858 C20.3796819,14.139574 20.3691877,14.1337773 20.3634,14.1241791 L20.3634,14.1313433 Z" id="Shape" fill="#F9E400"></path>
            <path d="M21.1932,8.29253731 L18.0702,8.29253731 L18.0702,11.4161194 L21.1878,11.4161194 L21.1932,8.29253731 Z M19.0134,11.3373134 L18.4734,11.3373134 L18.4734,8.38208955 L19.0134,8.38208955 L19.0134,11.3373134 Z M19.9134,11.3373134 L19.3734,11.3373134 L19.3734,8.38208955 L19.9134,8.38208955 L19.9134,11.3373134 Z M20.8134,11.3373134 L20.2734,11.3373134 L20.2734,8.3838806 L20.8134,8.3838806 L20.8134,11.3373134 Z" id="Shape" fill="#F9E400"></path>
            <path d="M15.8742,10.6531343 L16.7094,10.6531343 C16.7436,10.6280597 17.145,9.72 17.1774,9.66626866 C17.2100301,9.59738083 17.2002434,9.51599902 17.1522,9.45671642 C17.1216,9.41552239 16.3404,8.52895522 16.3008,8.5038806 C16.2504,8.5361194 15.5052,9.44059701 15.4656,9.47283582 C15.4154807,9.53398594 15.3998977,9.61623266 15.4242,9.69134328 C15.4566,9.73074627 15.8742,10.6531343 15.8742,10.6531343 Z M16.38,8.90686567 L16.92,9.61074627 C16.92,9.61074627 16.7238,10.1910448 16.6662,10.2823881 C16.6086,10.5098507 16.3728,10.4919403 16.38,10.4167164 L16.38,8.90686567 Z M16.2306,8.90686567 L16.2306,10.4131343 C16.2306,10.4883582 16.002,10.5062687 15.9444,10.278806 C15.8868,10.1874627 15.6906,9.61074627 15.6906,9.61074627 L16.2306,8.90686567 Z" id="Shape" fill="#FFFFFF"></path>
            <path d="M16.6644,10.2823881 C16.722,10.1910448 16.92,9.61074627 16.92,9.61074627 L16.38,8.90686567 L16.38,10.4167164 C16.38,10.4919403 16.6068,10.5098507 16.6644,10.2823881 Z" id="Shape" fill="#FF1E2D"></path>
            <path d="M16.2288,10.4095522 L16.2288,8.90328358 L15.6888,9.60716418 C15.6888,9.60716418 15.885,10.1838806 15.9426,10.2752239 C16.0002,10.5026866 16.2378,10.4847761 16.2288,10.4095522 Z" id="Shape" fill="#FF1E2D"></path>
            <path d="M20.34,13.7552239 C20.3076,13.7391045 20.2896,13.7552239 20.2734,13.6835821 C20.3367753,13.6702571 20.3856112,13.6198799 20.3967098,13.5563807 C20.4078083,13.4928814 20.378933,13.4290564 20.3238,13.3952239 C20.2788629,13.3716102 20.2390921,13.339343 20.2068,13.3002985 C20.1798,13.2626866 20.1456,13.2519403 20.079,13.2394014 C20.0131265,13.2392574 19.9476016,13.2489165 19.8846,13.2680597 C19.7563316,13.2762393 19.6276684,13.2762393 19.4994,13.2680597 C19.4088707,13.2630215 19.3181293,13.2630215 19.2276,13.2680597 C19.2090574,13.2701151 19.1903426,13.2701151 19.1718,13.2680597 C19.2000537,13.4084665 19.1472935,13.5528351 19.035,13.6423881 L19.1034,13.7140299 C19.141031,13.7469321 19.1807097,13.7774404 19.2222,13.8053731 L19.2456,13.8232836 C19.2611584,13.8330488 19.2751206,13.8451294 19.287,13.8591045 C19.305,13.880597 19.449,13.8859701 19.449,13.8859701 C19.4624139,13.912177 19.4703728,13.9408086 19.4724,13.9701493 C19.4700836,14.0301438 19.4486505,14.0878506 19.4112,14.1349254 C19.386,14.16 19.3788,14.1797015 19.386,14.1868657 L19.4166,14.1743284 L19.4166,14.2137313 L19.4886,14.2137313 C19.5092379,14.1954131 19.5215697,14.1695805 19.5228,14.1420896 C19.5228,14.1116418 19.5444,14.1026866 19.5498,14.1420896 C19.5894,14.1420896 19.5768,14.1170149 19.5714,14.0829851 C19.566,14.0489552 19.5498,13.8841791 19.5498,13.8841791 C19.5842946,13.8820965 19.6182766,13.8748509 19.6506,13.8626866 C19.6776,13.8447761 19.8666,13.7516418 19.872,13.7838806 C19.8772894,13.803579 19.8968079,13.8160087 19.917,13.8125373 C19.9227341,13.8327897 19.9325311,13.8516768 19.9458,13.8680597 C19.962,13.8841791 19.962,13.9289552 19.9278,13.9791045 C19.9012711,14.02293 19.8678462,14.0622357 19.8288,14.0955224 C19.7946,14.1170149 19.7676,14.1062687 19.7442,14.1331343 C19.7208,14.16 19.7028,14.1743284 19.7064,14.1940299 L19.7496,14.1940299 L19.7496,14.2191045 C19.773,14.2191045 19.8324,14.199403 19.8378,14.1725373 C19.8432,14.1456716 19.8774,14.161791 19.8774,14.161791 C19.936131,14.1136966 19.991462,14.061633 20.043,14.0059701 C20.0718,13.9665672 20.1168,13.9791045 20.1222,13.9343284 C20.1276,13.8895522 20.1042,13.8626866 20.1222,13.8232836 C20.1402,13.7838806 20.1546,13.7892537 20.1888,13.8232836 C20.223,13.8573134 20.2554,13.8555224 20.2554,13.8841791 C20.2584593,13.9169915 20.272389,13.9478625 20.295,13.9719403 C20.3135957,14.0220598 20.3069013,14.0780133 20.277,14.1223881 C20.25,14.161791 20.2014,14.1832836 20.2248,14.1958209 L20.2248,14.1958209 C20.2788,14.1671642 20.2356,14.2137313 20.2572,14.2119403 C20.2933813,14.214604 20.3267552,14.1924654 20.3382,14.158209 C20.3382,14.1241791 20.3382,14.1223881 20.358,14.1438806 C20.358,14.1557506 20.3676706,14.1653731 20.3796,14.1653731 C20.3915294,14.1653731 20.4012,14.1557506 20.4012,14.1438806 C20.3847536,14.0592501 20.3733338,13.9737287 20.367,13.8877612 C20.3616,13.8161194 20.3724,13.7713433 20.34,13.7552239 Z M20.2518,13.6226866 C20.2518,13.6226866 20.0718,13.3235821 20.2122,13.3898507 C20.3526,13.4561194 20.3508,13.5779104 20.25,13.6226866 L20.2518,13.6226866 Z" id="Shape" fill="#FF1E2D"></path>
            <path d="M19.134,13.2537313 C19.1635045,13.2736732 19.1983907,13.284139 19.234,13.2837313 L19.134,13.2537313 Z" id="Shape" fill="#FF1E2D"></path>
            <path d="M19.0069197,13.6322412 C19.085246,13.5303446 19.1215607,13.3964995 19.1070095,13.2633411 L19.1070095,13.2471257 L19.1070095,13.2471257 C19.0651538,13.2309103 19.0251179,13.2146949 18.9923612,13.1984796 C18.9873504,13.2087252 18.9812395,13.2182541 18.9741631,13.2268565 C18.9486857,13.2491526 18.9505055,13.1923988 18.9505055,13.1761834 L18.9377668,13.1761834 C18.9086498,13.1518603 18.790362,13.1761834 18.7685242,13.1761834 C18.7565577,13.1778072 18.7462143,13.1862555 18.741227,13.1984796 C18.741227,13.2146949 18.741227,13.2309103 18.7284883,13.2349642 L18.7284883,13.2349642 C18.7259757,13.2714185 18.7146572,13.3064371 18.6957317,13.3363104 C18.6883954,13.3443164 18.6842613,13.3552746 18.6842613,13.3667142 C18.6842613,13.3781539 18.6883954,13.389112 18.6957317,13.3971181 C18.7066506,13.4173873 18.6720741,13.504545 18.6393175,13.5288681 C18.6065608,13.5531912 18.5992816,13.5673797 18.6283986,13.5917027 C18.6575156,13.6160258 18.6502364,13.6423758 18.6720741,13.6545374 C18.7048057,13.6689851 18.7412521,13.6689851 18.7739837,13.6545374 C18.8067403,13.6423758 18.8249384,13.5795412 18.8522356,13.585622 C18.8795328,13.5917027 18.9213885,13.5491373 18.9377668,13.585622 C18.9491134,13.6043864 18.9619,13.6220192 18.9759829,13.638322 C18.9759829,13.638322 18.9960009,13.638322 19.0069197,13.6322412 Z" id="Shape" fill="#FF1E2D"></path>
            <path d="M18.8543673,13.3121782 L18.8543673,13.2571782 C18.7443673,13.1471782 18.8193673,13.0871782 18.6793673,13.1171782 C18.6705026,13.2225382 18.7111584,13.3260257 18.7893673,13.3971782 C18.7893673,13.3971782 18.8143673,13.3971782 18.8193673,13.3971782 C18.8243673,13.3971782 18.8493673,13.3521782 18.8543673,13.3121782 Z" id="Shape" fill="#2B5AAC"></path>
            <path d="M20.306793,13.3998887 C19.906793,13.2631664 20.431793,13.8913496 20.416793,13.880264 C20.696793,13.7878841 20.711793,13.5366109 20.306793,13.3998887 Z" id="Shape" fill="#FFE000"></path>
            <path d="M19.4113111,13.2537313 L19.4113111,13.2537313 C19.3854721,13.2538774 19.3601579,13.2501284 19.3387488,13.2429851 L19.2770708,13.2429851 L19.2770708,13.2429851 L19.2770708,13.2573134 C19.3060813,13.3749758 19.2336815,13.4932449 19.0775246,13.5832836 C19.0557559,13.5832836 19.0376153,13.5832836 19.0194747,13.5832836 C19.0023747,13.576807 18.9876492,13.5689319 18.9759374,13.56 C18.9756698,13.5825338 18.9830272,13.6049314 18.9977061,13.6262687 C19.0194747,13.6477612 18.9324,13.7140299 18.9324,13.7426866 C18.9324,13.7713433 18.9759374,13.760597 19.026731,13.7623881 C19.0775246,13.7641791 19.026731,13.7373134 19.059384,13.7373134 C19.092037,13.7373134 19.0847808,13.7480597 19.0884089,13.7623881 C19.092037,13.7767164 19.1754836,13.7534328 19.1682274,13.7426866 C19.1402836,13.7162548 19.1207066,13.6878659 19.1101776,13.6585075 L19.1392025,13.6423881 C19.3749228,13.5498528 19.4809787,13.3983715 19.4113111,13.2537313 L19.4113111,13.2537313 Z" id="Shape" fill="#2B5AAC"></path>
            <path d="M19.0224,13.7283582 C19.0224,13.7283582 18.9824,13.7583582 18.9774,13.7983582 L18.9774,13.7983582 C18.9774,13.8433582 18.9774,13.8783582 19.0224,13.8783582 C19.0674,13.8783582 19.0624,13.8433582 19.0624,13.7983582 L19.0624,13.7983582 C19.0574,13.7583582 19.0424,13.7283582 19.0224,13.7283582 Z" id="Shape" fill="#FF1E2D"></path>
            <polygon id="Rectangle-path" fill="#FF1E2D" points="18.4644 8.38208955 19.0134 8.38208955 19.0134 11.3283582 18.4644 11.3283582"></polygon>
            <polygon id="Rectangle-path" fill="#FF1E2D" points="17.1702 11.720597 17.6702 11.720597 17.6702 14.5271642 17.1702 14.5271642"></polygon>
            <polygon id="Rectangle-path" fill="#FF1E2D" points="19.3644 8.38208955 19.9134 8.38208955 19.9134 11.3283582 19.3644 11.3283582"></polygon>
            <polygon id="Rectangle-path" fill="#FF1E2D" points="20.2644 8.3838806 20.8134 8.3838806 20.8134 11.3301493 20.2644 11.3301493"></polygon>
            <polygon id="Rectangle-path" fill="#FF1E2D" points="16.4934 11.720597 16.9934 11.720597 16.9934 14.559403 16.4934 14.559403"></polygon>
            <polygon id="Rectangle-path" fill="#FF1E2D" points="15.7824 11.7259701 16.2824 11.7259701 16.2824 14.5540299 15.7824 14.5540299"></polygon>
            <polygon id="Shape" fill="#FF1E2D" points="15.5786 11.7259701 15.0786 11.7259701 15.0786 14.3426866 15.0786 14.5038806 15.4288674 14.5038806 15.5786 14.5038806"></polygon>
            <path d="M19.3233813,13.8161915 C19.2710293,13.7966842 19.2240602,13.7686278 19.1853348,13.7337313 C19.1214138,13.7866818 19.0844007,13.8576157 19.0818,13.9321511 C19.1288613,14.0068806 19.1382736,14.0403801 19.2135716,14.0558413 C19.2888697,14.0713026 19.3296562,14.1589165 19.4080916,14.1975697 C19.4343083,14.2216952 19.472286,14.2349284 19.5116265,14.2336461 L19.5116265,14.192416 C19.5430007,14.2207617 19.5649626,14.192416 19.5806497,14.1434553 C19.5963368,14.0944945 19.4457407,14.0867639 19.4833897,14.0609951 C19.5210388,14.0352263 19.3641678,13.9965731 19.3076942,13.9862656 C19.2512207,13.9759581 19.2669078,13.8934979 19.3892671,13.870306 C19.381401,13.8591212 19.3707016,13.8494546 19.3578929,13.8419603 L19.3233813,13.8161915 Z" id="Shape" fill="#FF1E2D"></path>
            <path d="M19.01365,13.4061335 C19.0330926,13.3849132 19.0498825,13.3614073 19.06365,13.3361335 C19.1012362,13.2726439 19.1202892,13.1998963 19.11865,13.1261335 C18.97865,13.0961335 19.05865,13.1561335 18.94865,13.2661335 L18.94865,13.2661335 C18.94865,13.3211335 18.94365,13.4611335 19.01365,13.4061335 Z" id="Shape" fill="#2B5AAC"></path>
            <path d="M18.6684529,12.4657247 C18.7012903,12.4795843 18.7374536,12.4795843 18.770291,12.4657247 C18.8030248,12.4513446 18.8212101,12.3876617 18.8484882,12.3958789 C18.8757663,12.404096 18.9157742,12.3568474 18.9339596,12.3958789 C18.9452982,12.4148966 18.9580759,12.4327674 18.9721489,12.4492904 C18.9810381,12.4556215 18.9923563,12.4556215 19.0012455,12.4492904 C19.0795169,12.3460181 19.1158062,12.210366 19.1012651,12.07541 L19.1012651,12.0589757 L19.1012651,12.0589757 C19.0612573,12.0445957 19.0194309,12.0261071 18.9848786,12.0096728 C18.981176,12.0203968 18.9756111,12.0301754 18.9685118,12.0384328 C18.9412337,12.06103 18.9430523,12.0035099 18.9448708,11.9870756 L18.932141,11.9870756 C18.9030444,11.9624242 18.7848394,11.9870756 18.7630169,11.9870756 C18.750741,11.9891042 18.7399929,11.9974515 18.7339203,12.0096728 C18.7339203,12.0261071 18.7339203,12.0425414 18.723009,12.04665 L18.723009,12.04665 C18.7205399,12.0839454 18.7085364,12.1196284 18.6884568,12.1493643 C18.6746928,12.1677449 18.6746928,12.1946667 18.6884568,12.2130473 C18.7011866,12.2315359 18.6666343,12.3198702 18.6339006,12.346576 C18.6011669,12.3732817 18.5938928,12.3835531 18.6211709,12.4102589 C18.6484489,12.4369646 18.6466304,12.4533989 18.6684529,12.4657247 Z" id="Shape" fill="#FF1E2D"></path>
            <path d="M19.0278,12.4477612 L19.0962,12.519403 C19.1341436,12.5524844 19.1737976,12.5835715 19.215,12.6125373 C19.2235856,12.6157726 19.2310746,12.6213614 19.2366,12.6286567 C19.2525963,12.6393021 19.2676509,12.6512859 19.2816,12.6644776 C19.2978,12.6859701 19.4418,12.6913433 19.4418,12.6913433 C19.4542441,12.717806 19.4615716,12.7463628 19.4634,12.7755224 C19.4618593,12.8356678 19.4403384,12.8936111 19.4022,12.9402985 C19.3788,12.9653731 19.3716,12.9850746 19.377,12.9940299 L19.4094,12.9797015 L19.4094,13.0208955 L19.4814,13.0208955 C19.5012087,13.0021558 19.5128415,12.9764338 19.5138,12.9492537 C19.5138,12.918806 19.5372,12.9098507 19.5426,12.9402985 C19.5822,12.9402985 19.5696,12.9152239 19.5642,12.881194 C19.5588,12.8471642 19.5426,12.6823881 19.5426,12.6823881 C19.5765246,12.6804052 19.6099285,12.6731533 19.6416,12.6608955 C19.6704,12.6447761 19.8594,12.5498507 19.8648,12.5820896 C19.8702,12.6143284 19.9098,12.6107463 19.9098,12.6107463 C19.9151783,12.6311365 19.9250121,12.6500946 19.9386,12.6662687 C19.9548,12.6823881 19.9548,12.7271642 19.9206,12.7773134 C19.8940711,12.821139 19.8606462,12.8604446 19.8216,12.8937313 C19.7874,12.9152239 19.7604,12.9044776 19.737,12.9313433 C19.7136,12.958209 19.6956,12.9725373 19.6992,12.9922388 L19.7424,12.9922388 L19.7424,13.0173134 C19.7676,13.0173134 19.827,12.9976119 19.8324,12.9707463 C19.8378,12.9438806 19.8702,12.96 19.8702,12.96 C19.9295963,12.9120221 19.9855339,12.8599538 20.0376,12.8041791 C20.0664,12.7647761 20.1114,12.7773134 20.1168,12.7325373 C20.1222,12.6877612 20.0988,12.6608955 20.1168,12.6214925 C20.1348,12.5820896 20.1492,12.5892537 20.1834,12.6214925 C20.2176,12.6537313 20.25,12.6555224 20.25,12.6823881 C20.2531775,12.714827 20.2663836,12.7454881 20.2878,12.7701493 C20.3081887,12.8198157 20.3021005,12.8763559 20.2716,12.920597 C20.2446,12.96 20.196,12.9814925 20.2194,12.9940299 L20.2194,12.9940299 C20.2734,12.9671642 20.2302,13.0119403 20.2518,13.0101493 C20.288157,13.0134906 20.3219163,12.9910964 20.3328,12.9564179 C20.3328,12.9223881 20.3418,12.920597 20.3526,12.9420896 C20.3634,12.9635821 20.403,12.961791 20.3958,12.9420896 C20.3786071,12.8569787 20.3671814,12.7708144 20.3616,12.6841791 C20.3508,12.639403 20.3616,12.5964179 20.3274,12.5785075 C20.2932,12.560597 20.277,12.5785075 20.2608,12.5068657 C20.3241753,12.4935407 20.3730112,12.4431635 20.3841098,12.3796642 C20.3952083,12.316165 20.366333,12.25234 20.3112,12.2185075 C20.2664237,12.1954213 20.2266646,12.1637723 20.1942,12.1253731 C20.1654,12.0859701 20.133,12.0752239 20.0664,12.0644776 C19.9999855,12.0630843 19.9337675,12.0721515 19.8702,12.0913433 C19.7425318,12.0995101 19.6144682,12.0995101 19.4868,12.0913433 C19.3956707,12.0862905 19.3043293,12.0862905 19.2132,12.0913433 C19.1946438,12.0931404 19.1759562,12.0931404 19.1574,12.0913433 C19.1811445,12.2246428 19.1317666,12.3604388 19.0278,12.4477612 L19.0278,12.4477612 Z M20.205,12.2041791 C20.349,12.2704478 20.3436,12.3832836 20.2446,12.4370149 C20.25,12.4423881 20.061,12.1379104 20.205,12.2041791 Z" id="Shape" fill="#FF1E2D"></path>
            <path d="M19.1268,12.0626866 C19.1565618,12.0820799 19.1912777,12.0924947 19.2268,12.0926866 L19.1268,12.0626866 Z" id="Shape" fill="#FF1E2D"></path>
            <path d="M18.8443879,12.1298588 L18.8443879,12.0748588 C18.7393879,11.9698588 18.8143879,11.9048588 18.6743879,11.9348588 C18.6630511,12.0405658 18.7041317,12.1451347 18.7843879,12.2148588 C18.7843879,12.2148588 18.8093879,12.2148588 18.8143879,12.2148588 C18.8193879,12.2148588 18.8443879,12.1598588 18.8443879,12.1298588 Z" id="Shape" fill="#2B5AAC"></path>
            <path d="M20.301393,12.214217 C19.901393,12.0774948 20.426393,12.7056779 20.411393,12.6945923 C20.676393,12.6022125 20.701393,12.3509392 20.301393,12.214217 Z" id="Shape" fill="#FFE000"></path>
            <path d="M19.2724469,12.0662687 C19.3015196,12.183931 19.2289644,12.3022001 19.0724721,12.3922388 C19.0546994,12.3977586 19.0320703,12.3977586 19.0142976,12.3922388 C18.9971609,12.3857623 18.9824037,12.3778871 18.9706668,12.3689552 C18.9701885,12.3914969 18.9775674,12.4139118 18.9924822,12.4352239 C19.0142976,12.4567164 18.9234,12.5229851 18.9234,12.5516418 C18.9234,12.5802985 18.9706668,12.5695522 19.0215694,12.5713433 C19.0724721,12.5731343 19.0215694,12.5462687 19.0506567,12.5462687 C19.0797439,12.5462687 19.0797439,12.5570149 19.0797439,12.5713433 C19.0797439,12.5856716 19.1706415,12.5713433 19.1633697,12.5516418 C19.1358628,12.5251059 19.1162696,12.4967543 19.1051952,12.4674627 L19.1342825,12.4513433 C19.3611738,12.3618702 19.4666097,12.2171372 19.4069753,12.0770149 L19.4069753,12.0770149 C19.3811442,12.0769462 19.3558995,12.0732155 19.3342572,12.0662687 L19.2760828,12.0662687 L19.2760828,12.0662687 L19.2724469,12.0662687 Z" id="Shape" fill="#2B5AAC"></path>
            <path d="M19.012,12.5373134 C19.012,12.5373134 18.972,12.5673134 18.972,12.6073134 L18.972,12.6073134 C18.972,12.6523134 18.972,12.6873134 19.012,12.6873134 C19.052,12.6873134 19.057,12.6523134 19.057,12.6073134 L19.057,12.6073134 C19.052,12.5823134 19.037,12.5373134 19.012,12.5373134 Z" id="Shape" fill="#FF1E2D"></path>
            <path d="M19.3164398,12.6384699 C19.2640895,12.6174223 19.2168057,12.5886036 19.1769169,12.5534328 C19.1147597,12.6069461 19.0783583,12.6775382 19.0746,12.7518526 C19.1242082,12.8265821 19.1304092,12.8600816 19.207922,12.8755428 C19.2854347,12.8910041 19.3226409,12.978618 19.4001536,13.0172712 C19.4260619,13.0413967 19.4635928,13.0546299 19.5024705,13.0533476 L19.5024705,13.0121175 C19.5334756,13.0404632 19.5551792,13.0121175 19.5706817,12.9657336 C19.6016868,12.8678122 19.4373598,12.9064654 19.4745659,12.8806966 C19.511772,12.8549278 19.3567465,12.8162746 19.3009373,12.8059671 C19.2451281,12.7956596 19.2606307,12.7131994 19.3815506,12.6900075 C19.3735003,12.6781537 19.3617074,12.6683525 19.347445,12.6616618 C19.33963,12.6518807 19.3289638,12.6439024 19.3164398,12.6384699 Z" id="Shape" fill="#FF1E2D"></path>
            <path d="M19.0098,12.2204618 C19.0293193,12.2003639 19.0446196,12.1765633 19.0548,12.1504618 C19.0966874,12.0886535 19.1177114,12.0150697 19.1148,11.9404618 C18.9748,11.9104618 19.0548,11.9704618 18.9448,12.0804618 L18.9448,12.0804618 C18.9398,12.1204618 18.9348,12.2754618 19.0098,12.2204618 Z" id="Shape" fill="#2B5AAC"></path>
            <path d="M17.28,15.6931343 L17.136,15.6931343 L17.136,15.7074627 L17.136,15.7074627 C17.148709,15.7082168 17.1607766,15.7132726 17.1702,15.721791 C17.1767906,15.7270349 17.1807383,15.734891 17.181,15.7432836 C17.1785391,15.7636684 17.1730808,15.7835826 17.1648,15.8023881 L17.0496,16.0997015 L16.9272,15.798806 C16.9184286,15.7801765 16.9129485,15.7601825 16.911,15.7397015 C16.910691,15.7311757 16.9147598,15.7230785 16.9218,15.718209 C16.9345872,15.7097635 16.9496549,15.7053906 16.965,15.7056716 L16.965,15.6913433 L16.776,15.6913433 L16.776,15.7056716 C16.7873526,15.7042094 16.7988474,15.7042094 16.8102,15.7056716 C16.8189108,15.7095637 16.8263818,15.7157585 16.8318,15.7235821 C16.839427,15.7368009 16.8460456,15.750571 16.8516,15.7647761 L17.0316,16.2071642 L17.046,16.2071642 L17.2134,15.7719403 C17.2195266,15.7505691 17.2306264,15.7309344 17.2458,15.7146269 C17.2568918,15.7048336 17.2706914,15.6985923 17.2854,15.6967164 L17.2854,15.6967164 L17.28,15.6931343 Z" id="Shape" fill="#572109"></path>
            <path d="M17.64,15.7074627 L17.6562,15.7074627 C17.6718058,15.7058725 17.6872233,15.7118754 17.6976,15.7235821 C17.6976,15.7235821 17.6976,15.7504478 17.6976,15.7826866 L17.6976,16.078209 L17.4042,15.6931343 L17.28,15.6931343 L17.28,15.7074627 L17.28,15.7074627 L17.3106,15.7074627 C17.321547,15.711296 17.3318599,15.7167287 17.3412,15.7235821 C17.3532772,15.7336501 17.3641488,15.7450686 17.3736,15.7576119 L17.3736,16.1158209 C17.3777703,16.1340958 17.3777703,16.1530684 17.3736,16.1713433 C17.3630545,16.1852383 17.3460202,16.1926961 17.3286,16.1910448 L17.3124,16.1910448 L17.3124,16.2053731 L17.4798,16.2053731 L17.4798,16.1910448 L17.46,16.1910448 C17.4443942,16.192635 17.4289767,16.186632 17.4186,16.1749254 C17.4093292,16.1566784 17.4055776,16.1361471 17.4078,16.1158209 L17.4078,15.8023881 L17.7264,16.2143284 L17.739,16.2143284 L17.739,15.7826866 C17.7348297,15.7644117 17.7348297,15.745439 17.739,15.7271642 C17.7491895,15.7138302 17.7653969,15.7064388 17.7822,15.7074627 L17.8002,15.7074627 L17.8002,15.6931343 L17.64,15.6931343 L17.64,15.7074627 Z" id="Shape" fill="#572109"></path>
            <path d="M17.838,15.7074627 L17.8774737,15.7074627 C17.9034646,15.7050746 17.9304301,15.7050746 17.9564211,15.7074627 C17.9715604,15.7113987 17.9837115,15.716981 17.9915088,15.7235821 C17.9981598,15.740789 17.9981598,15.7583155 17.9915088,15.7755224 L17.9915088,16.119403 C18.003022,16.1382182 18.003022,16.1579012 17.9915088,16.1767164 C17.9666805,16.1900504 17.9271888,16.1974418 17.8862456,16.1964179 L17.838,16.1964179 L17.838,16.2107463 L18.338,16.2107463 L18.338,16.1964179 L18.2941404,16.1964179 C18.2681494,16.198806 18.2411839,16.198806 18.215193,16.1964179 C18.198774,16.1922857 18.1863733,16.1859558 18.1801053,16.1785075 C18.1760879,16.1618313 18.1760879,16.1450344 18.1801053,16.1283582 L18.1801053,15.7844776 C18.1801053,15.7540299 18.1801053,15.7343284 18.1801053,15.7271642 C18.2035429,15.7141193 18.2414032,15.7067251 18.2809825,15.7074627 L18.3248421,15.7074627 L18.3248421,15.6931343 L17.838,15.6931343 L17.838,15.7074627 Z" id="Shape" fill="#572109"></path>
            <path d="M18.5753352,15.8131343 L18.5936,15.8131343 L18.5936,15.6931343 L18.0936,15.6931343 L18.0936,15.8131343 L18.1118648,15.8131343 C18.1132392,15.7944368 18.1194538,15.7761547 18.1301297,15.759403 C18.1396315,15.7466889 18.1540162,15.7366582 18.1712256,15.7307463 C18.1916324,15.7280742 18.2124626,15.7280742 18.2328694,15.7307463 L18.3059288,15.7307463 L18.3059288,16.119403 C18.3115479,16.137648 18.3115479,16.1566804 18.3059288,16.1749254 C18.2939336,16.1891395 18.2726906,16.1967775 18.2511342,16.1946269 L18.203189,16.1946269 L18.203189,16.2089552 L18.4611799,16.2089552 L18.4611799,16.1946269 L18.440632,16.1946269 C18.4209405,16.1956617 18.4016871,16.1897515 18.3881205,16.1785075 C18.3824494,16.1590571 18.3824494,16.1388533 18.3881205,16.119403 L18.3881205,15.7253731 L18.4725954,15.7253731 C18.4939842,15.7246963 18.515229,15.7283999 18.5342393,15.7361194 C18.5503485,15.7436666 18.5631033,15.7549232 18.5707689,15.7683582 C18.5759819,15.7829095 18.5775328,15.7981179 18.5753352,15.8131343 L18.5753352,15.8131343 Z" id="Shape" fill="#572109"></path>
            <path d="M18.882,16.1086567 L18.72,15.6823881 L18.7074,15.6823881 L18.54,16.1032836 C18.530952,16.1301287 18.5169076,16.1550398 18.4986,16.1767164 C18.4986,16.1767164 18.4806,16.1874627 18.4608,16.1928358 L18.4608,16.2071642 L18.612,16.2071642 L18.612,16.1928358 C18.5960312,16.1936172 18.5802392,16.1892175 18.567,16.1802985 C18.5604826,16.1757903 18.5564808,16.1684901 18.5562,16.160597 C18.5572303,16.1449631 18.5615214,16.129714 18.5688,16.1158209 L18.6012,16.0352239 L18.7812,16.0352239 L18.81,16.1086567 C18.8183235,16.1248065 18.8232247,16.1424851 18.8244,16.160597 C18.8270257,16.167523 18.8270257,16.1751636 18.8244,16.1820896 C18.8123462,16.1889953 18.7987083,16.1926962 18.7848,16.1928358 L18.7848,16.2071642 L18.9756,16.2071642 L18.9756,16.1928358 C18.9583773,16.1924835 18.9418211,16.1861474 18.9288,16.1749254 C18.9086334,16.1564057 18.8926771,16.1338116 18.882,16.1086567 Z M18.6048,16.0065672 L18.6876,15.798806 L18.7704,16.0065672 L18.6048,16.0065672 Z" id="Shape" fill="#572109"></path>
            <path d="M19.0944,15.6501493 L19.0944,15.6626866 L19.1163512,15.6626866 C19.1307622,15.6600328 19.1458426,15.6600328 19.1602537,15.6626866 C19.16911,15.6660152 19.1766649,15.6709466 19.1822049,15.6770149 C19.1894052,15.6934346 19.1951088,15.7101881 19.199278,15.7271642 L19.2626927,16.0549254 C19.2706289,16.0741959 19.2706289,16.0947593 19.2626927,16.1140299 C19.2520083,16.127885 19.232999,16.1371911 19.2114732,16.1391045 L19.189522,16.1391045 L19.189522,16.1534328 L19.4553756,16.1247761 L19.4553756,16.119403 L19.4334244,16.119403 C19.4190134,16.1220568 19.403933,16.1220568 19.389522,16.119403 C19.3806656,16.1160743 19.3731107,16.111143 19.3675707,16.1050746 C19.3588499,16.0889944 19.3531075,16.0721274 19.3504976,16.0549254 L19.3187902,15.8955224 L19.4334244,15.8829851 C19.4494585,15.8801697 19.4661707,15.8801697 19.4822049,15.8829851 C19.4933312,15.8869105 19.5026555,15.8931351 19.5090341,15.9008955 C19.5199181,15.9139434 19.5265925,15.9286469 19.5285463,15.9438806 L19.5456195,15.9438806 L19.5114732,15.7647761 L19.4944,15.7647761 C19.5012155,15.7841598 19.5012155,15.804497 19.4944,15.8238806 C19.4790272,15.8346587 19.4593777,15.8415596 19.4383024,15.8435821 L19.3261073,15.8561194 L19.2846439,15.6555224 L19.4236683,15.641194 C19.4478027,15.6375255 19.4727046,15.6375255 19.496839,15.641194 C19.5132475,15.6453427 19.5282288,15.6520656 19.5407415,15.6608955 C19.5565337,15.6763577 19.5696426,15.6932037 19.5797659,15.7110448 L19.5944,15.7110448 L19.5626927,15.6 L19.0944,15.6501493 Z" id="Shape" fill="#572109"></path>
            <path d="M19.738154,15.5462687 C19.6736622,15.5539897 19.6158784,15.5865898 19.5794223,15.6358209 C19.5329674,15.6961476 19.515288,15.7711221 19.530431,15.8435821 C19.5382748,15.9125496 19.573897,15.9763876 19.6303732,16.0226866 C19.6805313,16.064934 19.7493296,16.0834668 19.81654,16.0728358 C19.884306,16.0642656 19.9441437,16.0280257 19.9791911,15.9743284 C20.0190357,15.9142241 20.0336586,15.8429455 20.0203437,15.7737313 C20.0104318,15.7049485 19.9743585,15.6415455 19.9184419,15.5946269 C19.8693147,15.5546238 19.8031429,15.5368747 19.738154,15.5462687 Z M19.9184419,15.9797015 C19.8976232,16.0183528 19.8573081,16.0451502 19.8106611,16.0513433 C19.7682638,16.0570811 19.7255517,16.0429469 19.6970013,16.0137313 C19.6499599,15.9632461 19.6212044,15.9006712 19.614696,15.8346269 C19.5991478,15.7708822 19.606714,15.7042446 19.6362522,15.6447761 C19.6547002,15.6093839 19.6916589,15.5850632 19.7342347,15.5802985 C19.778787,15.5722285 19.8247386,15.5857762 19.8557331,15.6161194 C19.9009206,15.6674534 19.9288319,15.7296725 19.9360788,15.7952239 C19.9525509,15.8568162 19.9463522,15.9216535 19.9184419,15.9797015 Z" id="Shape" fill="#572109"></path>
            <path d="M20.4462,15.9402985 C20.4206885,15.9246355 20.398145,15.9046291 20.3796,15.881194 L20.2644,15.7504478 C20.296784,15.7393166 20.3246057,15.717925 20.3436,15.6895522 C20.3705785,15.6380292 20.3626944,15.5752702 20.3238,15.5319403 C20.3055779,15.5141447 20.2823523,15.5022775 20.2572,15.4979104 C20.2214564,15.4918642 20.1849436,15.4918642 20.1492,15.4979104 L19.9818,15.5229851 L19.9818,15.5355224 L19.998,15.5355224 C20.0127246,15.5307399 20.0288998,15.5349385 20.0394,15.5462687 C20.0394,15.5462687 20.0538,15.5713433 20.0592,15.6035821 L20.106,15.9313433 C20.1105003,15.9495799 20.1105003,15.9686291 20.106,15.9868657 C20.0994606,16.0029539 20.0838401,16.0135512 20.0664,16.0137313 L20.0502,16.0137313 L20.0502,16.0280597 L20.2464,15.999403 L20.2464,15.9850746 L20.2284,15.9850746 C20.2136611,15.9890213 20.1979231,15.9849362 20.187,15.9743284 C20.1762868,15.9570181 20.1700987,15.9373148 20.169,15.9170149 L20.1474,15.7701493 L20.1672,15.7701493 L20.196,15.7701493 L20.3868,15.9832836 L20.5092,15.9653731 L20.5092,15.9402985 C20.4884784,15.9451105 20.4669216,15.9451105 20.4462,15.9402985 L20.4462,15.9402985 Z M20.16,15.7450746 L20.1402,15.7450746 L20.1096,15.5355224 C20.1266023,15.5289486 20.1440446,15.5235624 20.1618,15.519403 C20.188649,15.5153767 20.2159815,15.5224996 20.2374,15.5391045 C20.2591613,15.5577255 20.2727298,15.5840847 20.2752,15.6125373 C20.2810069,15.6429589 20.2731113,15.6743839 20.2536,15.6985075 C20.2298357,15.7257598 20.1961695,15.7425092 20.16,15.7450746 L20.16,15.7450746 Z" id="Shape" fill="#572109"></path>
            <path d="M20.4174,15.4567164 L20.4312889,15.5767164 L20.4474926,15.5767164 C20.4422355,15.5578284 20.4422355,15.538291 20.4474926,15.519403 C20.4545264,15.5066252 20.4667046,15.4959462 20.4822148,15.4889552 C20.5003059,15.4819806 20.5199436,15.4777262 20.5400852,15.4764179 L20.6095296,15.4674627 L20.6836037,15.8561194 C20.6886011,15.8744249 20.6886011,15.8933363 20.6836037,15.9116418 C20.6748467,15.9264497 20.6560268,15.9361574 20.6349926,15.9367164 L20.6141593,15.9367164 L20.6141593,15.9510448 L20.8641593,15.9223881 L20.8641593,15.9098507 L20.8433259,15.9098507 C20.8243971,15.912564 20.8048888,15.9086264 20.7900852,15.8991045 C20.7900852,15.8991045 20.7738815,15.8740299 20.766937,15.841791 L20.692863,15.4549254 L20.7761963,15.4549254 C20.796729,15.4510525 20.8181636,15.4510525 20.8386963,15.4549254 C20.8561447,15.4608373 20.8707292,15.470868 20.880363,15.4835821 C20.8904438,15.4968793 20.8974912,15.51142 20.9011963,15.5265672 L20.9174,15.5265672 L20.8896222,15.4083582 L20.4174,15.4567164 Z" id="Shape" fill="#572109"></path>
            <path d="M21.3059891,15.8632836 C21.2858921,15.8659374 21.2648616,15.8659374 21.2447646,15.8632836 C21.2324139,15.8599549 21.2218782,15.8550236 21.2141524,15.8489552 C21.2019906,15.832875 21.1939826,15.816008 21.1903429,15.798806 L21.1019075,15.4710448 C21.0908399,15.4517743 21.0908399,15.4312108 21.1019075,15.4119403 C21.1162658,15.3980956 21.1433998,15.3892507 21.1733361,15.3886567 L21.2039483,15.3886567 L21.2039483,15.3761194 L20.8332,15.4047761 L20.8332,15.4029851 L20.8638122,15.4029851 C20.8837038,15.3995656 20.9051452,15.3995656 20.9250367,15.4029851 C20.9378184,15.405043 20.9487149,15.4095056 20.955649,15.4155224 C20.9656902,15.4319421 20.9736443,15.4486955 20.9794585,15.4656716 L21.0678939,15.7934328 C21.0764615,15.8128761 21.0764615,15.8330941 21.0678939,15.8525373 C21.0508426,15.8661107 21.0236368,15.8752271 20.9930639,15.8776119 L20.9624517,15.8776119 L20.9624517,15.8919403 L21.3332,15.8632836 L21.3332,15.8489552 L21.3059891,15.8632836 Z" id="Shape" fill="#572109"></path>
            <path d="M21.3112228,15.3170149 C21.247945,15.3249558 21.1912626,15.3575047 21.1552715,15.4065672 C21.1096303,15.4668939 21.0922606,15.5418684 21.1071383,15.6143284 C21.1148447,15.6832959 21.149843,15.7471339 21.2053299,15.7934328 C21.2570808,15.8380724 21.3284679,15.8573308 21.3978625,15.8453731 C21.4638853,15.8354027 21.5217307,15.7986537 21.5557392,15.7450746 C21.5966691,15.6856161 21.6111662,15.6136907 21.596171,15.5444776 C21.5879372,15.4756562 21.5530295,15.4119835 21.4979794,15.3653731 C21.4473137,15.3229185 21.3781817,15.3050177 21.3112228,15.3170149 Z M21.4883528,15.7504478 C21.4673911,15.7886987 21.4280367,15.8153239 21.3824599,15.8220896 C21.3408053,15.8278274 21.2988412,15.8136932 21.270791,15.7844776 C21.1852374,15.6767589 21.1621833,15.5367488 21.2091806,15.4101493 C21.2276602,15.3742577 21.264829,15.3498507 21.3073722,15.3456716 C21.3505698,15.3375409 21.3951804,15.3511472 21.424817,15.3814925 C21.4724392,15.4346649 21.5007458,15.5004959 21.5056807,15.5695522 C21.5214262,15.6299841 21.5153364,15.6935579 21.4883528,15.7504478 L21.4883528,15.7504478 Z" id="Shape" fill="#572109"></path>
            <path d="M22.023,15.7056716 C21.9978911,15.6901953 21.9754112,15.67085 21.9564,15.6483582 L21.8412,15.5158209 C21.8731178,15.5047058 21.9003697,15.483265 21.9186,15.4549254 C21.9348485,15.4293838 21.9406458,15.3986189 21.9348,15.3689552 C21.9313674,15.3420574 21.9193844,15.3169554 21.9006,15.2973134 C21.8823779,15.2795179 21.8591523,15.2676506 21.834,15.2632836 C21.7976521,15.2572382 21.7605479,15.2572382 21.7242,15.2632836 L21.5568,15.2883582 L21.5568,15.3008955 L21.573,15.3008955 C21.5877342,15.2976238 21.6031496,15.3016252 21.6144,15.3116418 C21.6256111,15.3288476 21.6324098,15.3485271 21.6342,15.3689552 L21.681,15.6967164 C21.6845478,15.7150555 21.6845478,15.7338997 21.681,15.7522388 C21.6739536,15.7681931 21.6588251,15.7791409 21.6414,15.7808955 L21.6252,15.7808955 L21.6252,15.7952239 L21.8214,15.7665672 L21.8214,15.761194 L21.8034,15.761194 C21.7886651,15.7655349 21.7727261,15.7613976 21.762,15.7504478 C21.762,15.7504478 21.7494,15.7253731 21.744,15.6931343 L21.7224,15.5462687 L21.7422,15.5462687 L21.771,15.5462687 L21.9618,15.761194 L22.0824,15.7432836 L22.0824,15.7289552 C22.0609774,15.726171 22.0405752,15.7181737 22.023,15.7056716 L22.023,15.7056716 Z M21.744,15.5158209 L21.7242,15.5158209 L21.6936,15.3044776 C21.710235,15.2972793 21.7278087,15.2924555 21.7458,15.2901493 C21.7724178,15.2849361 21.7999993,15.2914704 21.8214,15.3080597 C21.8431613,15.3266807 21.8567298,15.3530399 21.8592,15.3814925 C21.8650069,15.4119141 21.8571113,15.4433392 21.8376,15.4674627 C21.8139013,15.4950727 21.7803302,15.5124171 21.744,15.5158209 Z" id="Shape" fill="#572109"></path>
            <path d="M14.6990593,15.2346269 C14.7124396,15.2314398 14.7264197,15.2314398 14.7398,15.2346269 L14.7398,15.2202985 L14.5953556,15.1862687 L14.5953556,15.198806 L14.5953556,15.198806 C14.6074832,15.2024814 14.6179412,15.2100674 14.6249852,15.2202985 C14.6283921,15.22771 14.6283921,15.2361706 14.6249852,15.2435821 C14.6176554,15.2636102 14.6070242,15.2823598 14.5935037,15.2991045 L14.4083185,15.560597 L14.3657259,15.238209 C14.3618569,15.2180829 14.3618569,15.1974395 14.3657259,15.1773134 C14.367125,15.1688338 14.3726308,15.1615119 14.3805407,15.1576119 C14.3951749,15.1544476 14.410351,15.1544476 14.4249852,15.1576119 L14.4249852,15.1450746 L14.2398,15.0967164 L14.2398,15.1110448 L14.2712815,15.1271642 C14.2778747,15.1341803 14.2834789,15.1420095 14.2879481,15.1504478 C14.2879481,15.1504478 14.2879481,15.1719403 14.2879481,15.1970149 L14.3490593,15.6698507 L14.3620222,15.6698507 L14.6360963,15.2847761 C14.6520983,15.2629408 14.6738331,15.2456292 14.6990593,15.2346269 L14.6990593,15.2346269 Z" id="Shape" fill="#572109"></path>
            <path d="M14.8672512,15.7361194 C14.86441,15.7296689 14.86441,15.7228684 14.8672512,15.7164179 C14.8631549,15.6991965 14.8631549,15.6816991 14.8672512,15.6644776 L15.0009721,15.3420896 C15.0075185,15.3222307 15.0203606,15.3033628 15.0387628,15.2865672 C15.0615285,15.2792411 15.0886715,15.2792411 15.1114372,15.2865672 L15.1376,15.2865672 L15.1376,15.2740299 L14.8352744,15.2238806 L14.8352744,15.238209 L14.8614372,15.238209 C14.8788927,15.2410895 14.8948889,15.2466332 14.9079488,15.2543284 C14.9112855,15.2607346 14.9112855,15.2676236 14.9079488,15.2740299 C14.9120451,15.2912513 14.9120451,15.3087487 14.9079488,15.3259701 L14.7742279,15.6483582 C14.7690262,15.6684626 14.7560661,15.6875037 14.7364372,15.7038806 C14.7136715,15.7112067 14.6865285,15.7112067 14.6637628,15.7038806 L14.6376,15.7038806 L14.6376,15.7164179 L14.9515535,15.7665672 L14.9515535,15.7522388 L14.9253907,15.7522388 C14.9043428,15.749527 14.8845043,15.7440267 14.8672512,15.7361194 L14.8672512,15.7361194 Z" id="Shape" fill="#572109"></path>
            <path d="M15.2511309,15.761194 L15.1888255,15.5946269 C15.2272735,15.5960694 15.2652526,15.5866682 15.2973575,15.5677612 C15.3243223,15.5498473 15.3429278,15.523702 15.3496136,15.4943284 C15.3597288,15.468833 15.3597288,15.4410178 15.3496136,15.4155224 C15.3397666,15.3918041 15.321394,15.3716534 15.2973575,15.358209 C15.2617752,15.3397096 15.2230985,15.3264069 15.1827959,15.318806 L14.9978896,15.2776119 L14.9978896,15.2901493 L15.0179881,15.2901493 C15.0342413,15.2930851 15.048214,15.3022599 15.0561753,15.3152239 C15.0614791,15.3352473 15.0614791,15.356096 15.0561753,15.3761194 L14.9496532,15.7056716 C14.9476138,15.7244323 14.9399805,15.7423654 14.9275448,15.7576119 C14.9131196,15.7685466 14.8936321,15.7725541 14.8752887,15.7683582 L14.8572,15.7683582 L14.8572,15.7826866 L15.074264,15.8310448 L15.074264,15.8185075 L15.0541654,15.8185075 C15.0373854,15.8166892 15.0228978,15.8071763 15.0159783,15.7934328 C15.0096106,15.7735309 15.0096106,15.7524392 15.0159783,15.7325373 L15.0581851,15.5856716 L15.0581851,15.5856716 L15.0702443,15.5856716 L15.100392,15.5856716 L15.2049043,15.8579104 L15.3395644,15.8901493 L15.3395644,15.8758209 C15.3164962,15.8684274 15.2957997,15.8561318 15.2792688,15.84 C15.2654985,15.8151408 15.2560126,15.7885735 15.2511309,15.761194 Z M15.0863231,15.5570149 L15.0662246,15.5570149 L15.1265201,15.3474627 C15.1465844,15.345984 15.1667514,15.345984 15.1868156,15.3474627 C15.2166747,15.3532735 15.2422945,15.3702334 15.2571604,15.3940299 C15.2683881,15.4211976 15.2683881,15.4510412 15.2571604,15.478209 C15.2485178,15.5078132 15.2267575,15.5330219 15.1968649,15.5480597 C15.162288,15.562345 15.1232239,15.5655097 15.0863231,15.5570149 L15.0863231,15.5570149 Z" id="Shape" fill="#572109"></path>
            <path d="M15.3724321,15.5014925 L15.3880571,15.5014925 C15.3943378,15.482573 15.4066458,15.4652903 15.4237714,15.4513433 C15.4356929,15.4411652 15.4513176,15.4342698 15.4684143,15.4316418 C15.4876079,15.4288935 15.5072564,15.4288935 15.52645,15.4316418 L15.5934143,15.4441791 L15.4728786,15.8274627 C15.468681,15.8461137 15.459547,15.8638254 15.4460929,15.879403 C15.4287122,15.8870495 15.4076699,15.8870495 15.3902893,15.879403 L15.3702,15.879403 L15.3702,15.8937313 L15.6090393,15.9420896 L15.6090393,15.9295522 L15.58895,15.9295522 C15.5703141,15.927734 15.5542242,15.918221 15.5465393,15.9044776 C15.5465393,15.9044776 15.5465393,15.8758209 15.5465393,15.8453731 L15.667075,15.4620896 L15.7474321,15.478209 C15.7669677,15.4818718 15.7847849,15.4899523 15.7987714,15.5014925 C15.8120134,15.511446 15.8206674,15.5247024 15.823325,15.5391045 C15.8264896,15.554523 15.8264896,15.5702531 15.823325,15.5856716 L15.83895,15.5856716 L15.8702,15.4674627 L15.417075,15.3850746 L15.3724321,15.5014925 Z" id="Shape" fill="#572109"></path>
            <path d="M16.3004,15.6214925 L16.3004,15.6089552 L16.158609,15.5820896 L16.158609,15.5964179 L16.158609,15.5964179 C16.1704257,15.6008156 16.1807533,15.6082515 16.1884597,15.6179104 C16.1916729,15.6253651 16.1916729,15.6337393 16.1884597,15.641194 C16.1797719,15.6609977 16.1684867,15.6796559 16.1548776,15.6967164 L15.9683104,15.96 L15.9254,15.6376119 C15.9215613,15.6168789 15.9215613,15.5956584 15.9254,15.5749254 C15.9274996,15.566737 15.9328577,15.5596643 15.9403254,15.5552239 C15.9556319,15.551509 15.9716607,15.551509 15.9869672,15.5552239 L15.9869672,15.5408955 L15.8004,15.4943284 L15.8004,15.5068657 C15.8122217,15.5105108 15.823054,15.5166279 15.8321164,15.5247761 C15.8397815,15.5309563 15.8455799,15.5389967 15.8489075,15.5480597 C15.8506639,15.5629375 15.8506639,15.5779581 15.8489075,15.5928358 L15.9104746,16.0656716 L15.9235343,16.0656716 L16.2145791,15.6770149 C16.227799,15.6588983 16.2442151,15.6431388 16.2630866,15.6304478 C16.2744625,15.6243038 16.2873506,15.6212106 16.3004,15.6214925 L16.3004,15.6214925 Z" id="Shape" fill="#572109"></path>
            <path d="M16.6872544,15.6967164 C16.6805624,15.6986357 16.673209,15.6986357 16.6665171,15.6967164 L16.6365631,15.680597 C16.6098875,15.6624152 16.5784363,15.6489691 16.5443972,15.641194 C16.498911,15.6317969 16.4504403,15.6376434 16.4107567,15.6573134 C16.371127,15.6751886 16.3427724,15.7050079 16.3324157,15.7397015 C16.325574,15.7596517 16.325574,15.7806468 16.3324157,15.800597 C16.3382459,15.8206049 16.3492183,15.8394904 16.3646737,15.8561194 C16.3909115,15.8842831 16.4202044,15.9106481 16.4522313,15.9349254 C16.4786133,15.9551289 16.5032448,15.9766686 16.5259641,15.999403 C16.5390292,16.0117979 16.5477591,16.0266034 16.5513097,16.0423881 C16.5559277,16.0552771 16.5559277,16.068902 16.5513097,16.081791 C16.5445772,16.1038811 16.526172,16.1227398 16.5006184,16.1337313 C16.4710757,16.1430888 16.4379952,16.1430888 16.4084525,16.1337313 C16.3790186,16.1277941 16.3520419,16.1160759 16.3301115,16.0997015 C16.3088485,16.0841939 16.29367,16.0643228 16.2863327,16.0423881 C16.2801883,16.0139303 16.2801883,15.9848756 16.2863327,15.9564179 L16.2702037,15.9564179 L16.2126,16.1355224 L16.228729,16.1355224 C16.2320864,16.129561 16.236766,16.1241048 16.2425539,16.119403 C16.2484805,16.1176047 16.2550605,16.1176047 16.2609871,16.119403 L16.3093742,16.1408955 C16.325377,16.150299 16.342329,16.1586843 16.3600654,16.1659701 L16.4061484,16.1785075 C16.4550274,16.1892894 16.5074488,16.1841151 16.5513097,16.1641791 C16.5932768,16.1450091 16.6232681,16.1132781 16.634259,16.0764179 C16.639945,16.05636 16.639945,16.0355803 16.634259,16.0155224 C16.6297624,15.9949504 16.6195395,15.9753901 16.6043051,15.958209 C16.5755931,15.9305613 16.5448182,15.9042474 16.5121392,15.879403 C16.4721446,15.8507313 16.4379633,15.8175194 16.4107567,15.7808955 C16.4039043,15.7658301 16.4039043,15.7493938 16.4107567,15.7343284 C16.4264081,15.6920272 16.4828246,15.6673099 16.5374848,15.678806 C16.5647112,15.6841356 16.589462,15.6953067 16.6089134,15.7110448 C16.6303954,15.7241931 16.647077,15.7414822 16.6573005,15.761194 C16.6632373,15.789665 16.6632373,15.8186933 16.6573005,15.8471642 L16.6573005,15.8471642 L16.7126,15.6680597 L16.696471,15.6680597 C16.696784,15.6780836 16.6935991,15.6879863 16.6872544,15.6967164 L16.6872544,15.6967164 Z" id="Shape" fill="#572109"></path>
        </g>
    </g>
</svg>