<?xml version="1.0" encoding="UTF-8"?>
<svg width="36px" height="24px" viewBox="0 0 36 24" version="1.1" xmlns="http://www.w3.org/2000/svg" xmlns:xlink="http://www.w3.org/1999/xlink">
    <!-- Generator: Sketch 57 (83077) - https://sketch.com -->
    <title>oui-Flag/Australia</title>
    <desc>Created with Sketch.</desc>
    <g id="oui-Flag/Australia" stroke="none" stroke-width="1" fill="none" fill-rule="evenodd">
        <g id="Australia" fill-rule="nonzero">
            <path d="M36,0 L18,0 L18,0.895522388 L13.9914,2.89074627 L18,2.89074627 L18,5.89253731 L13.9914,5.89253731 L18,7.88059701 L18,8.88716418 L15.9768,8.88716418 L10.4598,6.14865672 L10.4598,8.89253731 L7.4448,8.89253731 L7.4448,6.14865672 L1.9278,8.89253731 L0,8.89253731 L0,24 L36,24 L36,0 Z M10.1304,15.8274627 L8.9532,14.5952239 L7.7742,15.8274627 L8.01,14.1492537 L6.3,13.9952239 L7.7688,13.1265672 L6.84,11.7098507 L8.4384,12.3134328 L8.9622,10.7014925 L9.4842,12.3134328 L11.0844,11.7098507 L10.1376,13.1265672 L11.6082,13.9952239 L9.9,14.1492537 L10.1304,15.8274627 Z M26.037,2.09014925 L26.7984,2.37671642 L27.0486,1.6119403 L27.297,2.3838806 L28.0584,2.09731343 L27.6084,2.77074627 L28.3086,3.18447761 L27.4968,3.25432836 L27.6084,4.05671642 L27.0486,3.46925373 L26.487,4.05671642 L26.5986,3.25432836 L25.7886,3.18447761 L26.487,2.77074627 L26.037,2.09014925 Z M23.085,8.92656716 L22.5234,8.33910448 L21.96,8.92656716 L22.0716,8.1241791 L21.2634,8.05970149 L21.96,7.64059701 L21.51,6.96537313 L22.2714,7.2519403 L22.5198,6.48179104 L22.77,7.2519403 L23.5314,6.96537313 L23.0814,7.64059701 L23.7834,8.05970149 L22.9734,8.12955224 L23.085,8.92656716 Z M27.6084,16.0531343 L27.0486,15.4656716 L26.487,16.0531343 L26.5986,15.2507463 L25.7886,15.1808955 L26.487,14.7671642 L26.037,14.0919403 L26.7984,14.3802985 L27.0486,13.6119403 L27.297,14.3838806 L28.0584,14.0955224 L27.6084,14.7707463 L28.3086,15.1844776 L27.4968,15.2543284 L27.6084,16.0531343 Z M29.3004,10.2501493 L28.8576,9.9761194 L28.4148,10.2501493 L28.539,9.74686567 L28.1412,9.4119403 L28.6614,9.37253731 L28.8576,8.89253731 L29.0538,9.37253731 L29.574,9.4119403 L29.1762,9.74686567 L29.3004,10.2501493 Z M31.6296,7.72656716 L31.0698,7.13910448 L30.5082,7.72656716 L30.6198,6.9241791 L29.8098,6.85253731 L30.51,6.44776119 L30.06,5.76537313 L30.8214,6.0519403 L31.0716,5.28179104 L31.32,6.0519403 L32.0814,5.76537313 L31.6296,6.44776119 L32.3298,6.85970149 L31.518,6.93134328 L31.6296,7.72656716 Z" id="Shape" fill="#24297F"></path>
            <polygon id="Shape" fill="#FFFFFF" points="10.1286 13.1265672 11.0736 11.7098507 9.477 12.3134328 8.9532 10.6943284 8.4294 12.3134328 6.831 11.7098507 7.776 13.1265672 6.3054 13.9952239 8.01 14.1420896 7.7742 15.8274627 8.9532 14.5952239 10.1304 15.8274627 9.8964 14.1420896 11.5992 13.9952239"></polygon>
            <polygon id="Shape" fill="#FFFFFF" points="27.6084 14.7671642 28.0584 14.0937313 27.297 14.3802985 27.0486 13.6083582 26.7984 14.3802985 26.037 14.0937313 26.487 14.7671642 25.7886 15.1808955 26.5986 15.2507463 26.487 16.0531343 27.0486 15.4656716 27.6084 16.0531343 27.4968 15.2507463 28.3086 15.1808955"></polygon>
            <polygon id="Shape" fill="#FFFFFF" points="23.085 7.64059701 23.535 6.96537313 22.7736 7.2519403 22.5252 6.48179104 22.275 7.2519403 21.5136 6.96537313 21.9636 7.64059701 21.2652 8.05432836 22.0752 8.1241791 21.9636 8.92656716 22.5252 8.33910448 23.085 8.92656716 22.9734 8.1241791 23.7834 8.05432836"></polygon>
            <polygon id="Shape" fill="#FFFFFF" points="26.5986 3.24716418 26.487 4.04955224 27.0486 3.46208955 27.6084 4.04955224 27.4968 3.24716418 28.3086 3.17731343 27.6084 2.76358209 28.0584 2.08835821 27.297 2.37671642 27.0486 1.60477612 26.7984 2.37671642 26.037 2.08835821 26.487 2.76358209 25.7886 3.17731343"></polygon>
            <polygon id="Shape" fill="#FFFFFF" points="31.6296 6.44059701 32.0796 5.76537313 31.3182 6.0519403 31.0698 5.28179104 30.8196 6.0519403 30.0582 5.76537313 30.51 6.44059701 29.808 6.85432836 30.6198 6.9241791 30.5082 7.72656716 31.0698 7.13910448 31.6296 7.72656716 31.518 6.9241791 32.3298 6.85432836"></polygon>
            <polygon id="Shape" fill="#FFFFFF" points="29.0538 9.37432836 28.8576 8.89253731 28.6614 9.37432836 28.1412 9.4119403 28.539 9.74686567 28.413 10.2501493 28.8576 9.9761194 29.3004 10.2501493 29.1762 9.74686567 29.574 9.4119403"></polygon>
            <polygon id="Shape" fill="#1A3179" points="10.5066 8.89253731 15.7788 8.89253731 10.5066 6.22208955"></polygon>
            <polygon id="Shape" fill="#1A3179" points="0.0108 5.91044776 0.0108 7.98447761 4.0644 5.95522388"></polygon>
            <path d="M0.0108,0.904477612 C0.0108,0.990447761 0.0108,2.89432836 0.0108,2.89432836 L4.0338,2.94268657 L0.0108,0.904477612 Z" id="Shape" fill="#1A3179"></path>
            <polygon id="Shape" fill="#1A3179" points="17.9964 2.89432836 17.9964 0.904477612 13.9734 2.94268657"></polygon>
            <path d="M17.9694,7.9719403 C17.9865379,7.90397613 17.9955999,7.8342454 17.9964,7.7641791 L17.9964,5.91044776 L13.941,5.96059701 L17.9694,7.9719403 Z" id="Shape" fill="#1A3179"></path>
            <polygon id="Shape" fill="#1A3179" points="7.5006 0 2.0556 0 7.5006 2.72776119"></polygon>
            <polygon id="Shape" fill="#1A3179" points="2.2284 8.89253731 7.5006 8.89253731 7.5006 6.22208955"></polygon>
            <polygon id="Shape" fill="#FFFFFF" points="7.5006 2.72776119 2.0556 0 0.2088 0 5.9976 2.98567164 4.653 2.98567164 0.0108 0.567761194 0.0108 0.904477612 4.0338 2.94268657 0.0108 2.89432836 0.0108 3.4961194 5.2416 3.55522388 8.1 3.58208955 8.1 0 7.5006 0"></polygon>
            <polygon id="Shape" fill="#FFFFFF" points="9.9054 5.39283582 9.9054 5.91761194 9.9054 8.89253731 10.5066 8.89253731 10.5066 6.22208955 15.7788 8.89253731 17.9964 8.89253731 12.0078 5.99641791 13.3524 5.99641791 17.9964 8.23164179 18 7.98447761 13.941 5.95522388 17.9964 5.90507463 17.9964 5.30328358 12.7584 5.36238806"></polygon>
            <polygon id="Shape" fill="#FFFFFF" points="0.0108 5.30328358 0.0108 5.90507463 4.0644 5.95522388 0.0108 7.98447761 0.0108 8.89253731 0.0306 8.89253731 5.9976 5.99641791 7.3422 5.99641791 1.5588 8.89253731 2.2284 8.89253731 7.5006 6.22208955 7.5006 8.89253731 8.1018 8.89253731 8.1018 5.91761194 8.1018 5.39283582 5.247 5.36238806"></polygon>
            <polygon id="Shape" fill="#FFFFFF" points="13.9734 2.94268657 17.9964 0.904477612 17.9964 0 17.7984 0 12.0078 2.9838806 10.6632 2.9838806 16.4502 0 15.9516 0 10.5066 2.72776119 10.5066 0 9.9054 0 9.9054 3.02865672 9.9054 3.58746269 12.7638 3.55522388 17.9964 3.4961194 17.9964 2.89432836"></polygon>
            <polygon id="Shape" fill="#FF2B2D" points="12.7638 3.55522388 9.9054 3.58746269 9.9054 3.02865672 9.9054 0 8.1018 0 8.1018 3.02865672 8.1018 3.58746269 5.2416 3.55522388 0.0108 3.4961194 0.0108 5.30328358 5.247 5.36238806 8.1018 5.39283582 8.1018 5.91761194 8.1018 8.89253731 9.9054 8.89253731 9.9054 5.91761194 9.9054 5.39283582 12.7584 5.36238806 17.9964 5.30328358 17.9964 3.4961194"></polygon>
            <polygon id="Shape" fill="#FF2B2D" points="4.653 2.9838806 5.9976 2.9838806 0.2088 0 0.0108 0 0.0108 0.567761194"></polygon>
            <polygon id="Shape" fill="#FF2B2D" points="10.6632 2.9838806 12.0078 2.9838806 17.7984 0 16.4502 0"></polygon>
            <polygon id="Shape" fill="#FF2B2D" points="12.0078 5.99641791 17.9928 8.88895522 17.9964 8.23164179 13.3524 5.99641791"></polygon>
            <polygon id="Shape" fill="#FF2B2D" points="5.9976 5.99641791 0.0306 8.89253731 1.5588 8.89253731 7.3422 5.99641791"></polygon>
            <polygon id="Shape" fill="#1A3179" points="15.9516 0 10.5066 0 10.5066 2.72776119"></polygon>
        </g>
    </g>
</svg>