<?xml version="1.0" encoding="UTF-8"?>
<svg width="36px" height="24px" viewBox="0 0 36 24" version="1.1" xmlns="http://www.w3.org/2000/svg" xmlns:xlink="http://www.w3.org/1999/xlink">
    <!-- Generator: Sketch 57 (83077) - https://sketch.com -->
    <title>oui-Flag/Canada</title>
    <desc>Created with Sketch.</desc>
    <g id="oui-Flag/Canada" stroke="none" stroke-width="1" fill="none" fill-rule="evenodd">
        <g id="Canada" fill-rule="nonzero">
            <rect id="Rectangle-path" fill="#FF1C1F" x="27.1008" y="0" width="8.8992" height="24"></rect>
            <rect id="Rectangle-path" fill="#FF1C1F" x="0" y="0" width="8.8992" height="24"></rect>
            <path d="M8.8992,0 L8.8992,24 L27.1008,24 L27.1008,0 L8.8992,0 Z M18.414,15.8722388 C18.315,15.8722388 18.1638,15.9671642 18.1638,16.0871642 L18.2502,19.6692537 L17.7102,19.6692537 L17.8596,16.0871642 C17.8596,15.9671642 17.694,15.8776119 17.595,15.879403 L14.3154,16.2644776 L14.6016,15.2847761 C14.6466643,15.1143984 14.5883952,14.9334753 14.4522,14.8208955 L11.1744,12.0501493 L11.853,11.7170149 C12.1518,11.6059701 12.069,11.4322388 11.961,11.0113433 L11.4606,9.11820896 L13.365,9.53552239 C13.5156609,9.56525247 13.6636689,9.47359939 13.7034,9.32597015 L13.9482,8.43044776 L15.4548,10.1856716 C15.669,10.4650746 16.1028,10.4650746 15.9678,9.81671642 L15.3234,6.26865672 L16.1874,6.73432836 C16.4304,6.87402985 16.6716,6.89731343 16.8066,6.64656716 L18,4.33074627 L19.1916,6.64477612 C19.1916,6.64477612 19.5696,6.87223881 19.8126,6.73253731 L20.6748,6.26686567 L20.0322,9.82029851 C19.8972,10.4686567 20.331,10.4686567 20.5452,10.1892537 L22.0518,8.43402985 L22.2966,9.32955224 C22.3355321,9.4769243 22.4829796,9.56871856 22.6332,9.53910448 L24.5394,9.12179104 L24.039,11.0149254 C23.931,11.4358209 23.8482,11.6095522 24.147,11.720597 L24.8256,12.0537313 L21.546,14.8208955 C21.4113158,14.9344849 21.353355,15.1144506 21.3966,15.2847761 L21.6846,16.2644776 L18.414,15.8722388 Z" id="Shape" fill="#F9F9F9"></path>
            <path d="M21.546,14.8208955 L24.8256,12.0501493 L24.147,11.7170149 C23.8482,11.6059701 23.931,11.4322388 24.039,11.0113433 L24.5394,9.11820896 L22.6332,9.53552239 C22.4829796,9.56513647 22.3355321,9.47334222 22.2966,9.32597015 L22.0518,8.43044776 L20.5452,10.1856716 C20.331,10.4650746 19.8972,10.4650746 20.0322,9.81671642 L20.6748,6.26865672 L19.8126,6.73432836 C19.5696,6.87402985 19.1916,6.64656716 19.1916,6.64656716 L18,4.33074627 L16.8066,6.64477612 C16.6716,6.89552239 16.4304,6.87223881 16.1874,6.73253731 L15.3234,6.26865672 L15.9678,9.82208955 C16.1028,10.4704478 15.669,10.4704478 15.4548,10.1910448 L13.9482,8.4358209 L13.7034,9.33134328 C13.6636689,9.47897253 13.5156609,9.57062561 13.365,9.54089552 L11.4606,9.11820896 L11.961,11.0113433 C12.069,11.4322388 12.1518,11.6059701 11.853,11.7170149 L11.1744,12.0501493 L14.4522,14.8208955 C14.5883952,14.9334753 14.6466643,15.1143984 14.6016,15.2847761 L14.3154,16.2644776 L17.586,15.8722388 C17.685,15.8722388 17.8524,15.96 17.8506,16.08 L17.7012,19.6620896 L18.2412,19.6620896 L18.1548,16.08 C18.1548,15.96 18.306,15.8632836 18.405,15.8650746 L21.6756,16.2573134 L21.3876,15.2776119 C21.3494052,15.1078202 21.4106926,14.9311098 21.546,14.8208955 Z" id="Shape" fill="#FF1C1F"></path>
        </g>
    </g>
</svg>