<?xml version="1.0" encoding="UTF-8"?>
<svg width="36px" height="24px" viewBox="0 0 36 24" version="1.1" xmlns="http://www.w3.org/2000/svg" xmlns:xlink="http://www.w3.org/1999/xlink">
    <!-- Generator: Sketch 57 (83077) - https://sketch.com -->
    <title>oui-Flag/Chili</title>
    <desc>Created with Sketch.</desc>
    <g id="oui-Flag/Chili" stroke="none" stroke-width="1" fill="none" fill-rule="evenodd">
        <g id="Chili" fill-rule="nonzero">
            <rect id="Rectangle-path" fill="#F9F9F9" x="11.9358" y="0" width="24.0642" height="12"></rect>
            <path d="M11.9358,0 L0,0 L0,12 L11.9358,12 L11.9358,0 Z M4.0878,8.40716418 L4.77,6.32238806 L2.9862,5.03283582 L5.1894,5.03283582 L5.8716,2.9480597 L6.552,5.03283582 L8.7552,5.03283582 L6.9732,6.32238806 L7.6536,8.40716418 L5.8716,7.11761194 L4.0878,8.40716418 Z" id="Shape" fill="#00429F"></path>
            <polygon id="Shape" fill="#F43325" points="0 12 0 24 36 24 36 12 11.9358 12"></polygon>
            <polygon id="Shape" fill="#FFFFFF" points="8.7552 5.03283582 6.552 5.03283582 5.8716 2.9480597 5.1894 5.03283582 2.9862 5.03283582 4.77 6.32238806 4.0878 8.40716418 5.8716 7.11761194 7.6536 8.40716418 6.9732 6.32238806"></polygon>
        </g>
    </g>
</svg>