<?xml version="1.0" encoding="UTF-8"?>
<svg width="36px" height="24px" viewBox="0 0 36 24" version="1.1" xmlns="http://www.w3.org/2000/svg" xmlns:xlink="http://www.w3.org/1999/xlink">
    <!-- Generator: Sketch 57 (83077) - https://sketch.com -->
    <title>oui-Flag/Europe</title>
    <desc>Created with Sketch.</desc>
    <g id="oui-Flag/Europe" stroke="none" stroke-width="1" fill="none" fill-rule="evenodd">
        <g id="Europe" fill-rule="nonzero">
            <polygon id="Shape" fill="#002194" points="36 0 0 0 0 24 36 24"></polygon>
            <polygon id="Shape" fill="#FFD703" points="17.5878 3.40835821 16.254 3.40835821 17.334 4.18925373 16.9218 5.45014925 18 4.67104478 19.0782 5.45014925 18.666 4.18925373 19.746 3.40835821 18.4122 3.40835821 18 2.14567164"></polygon>
            <polygon id="Shape" fill="#FFD703" points="17.5878 19.8125373 16.254 19.8125373 17.334 20.5916418 16.9218 21.8543284 18 21.0734328 19.0782 21.8543284 18.666 20.5916418 19.746 19.8125373 18.4122 19.8125373 18 18.5498507"></polygon>
            <polygon id="Shape" fill="#FFD703" points="13.4604 4.51343284 12.1266 4.53134328 13.2156 5.29791045 12.8196 6.5641791 13.8888 5.77074627 14.9778 6.53552239 14.5494 5.28 15.6168 4.48656716 14.2848 4.50447761 13.8564 3.24716418"></polygon>
            <polygon id="Shape" fill="#FFD703" points="21.699 18.7253731 20.3652 18.7540299 21.4614 19.5098507 21.0762 20.7797015 22.1382 19.9773134 23.2344 20.7331343 22.7934 19.481194 23.8554 18.678806 22.5234 18.7074627 22.0824 17.4537313"></polygon>
            <polygon id="Shape" fill="#FFD703" points="10.9854 8.38029851 12.0546 9.1719403 11.6586 7.90567164 12.7458 7.13910448 11.4138 7.12298507 11.016 5.85671642 10.5894 7.11402985 9.2556 7.09791045 10.3248 7.88955224 9.8982 9.14686567"></polygon>
            <polygon id="Shape" fill="#FFD703" points="25.263 16.5814925 26.334 17.3713433 25.9344 16.1050746 27.0216 15.3367164 25.6878 15.3241791 25.29 14.0579104 24.8652 15.3152239 23.5314 15.3008955 24.6024 16.0925373 24.1758 17.3498507"></polygon>
            <polygon id="Shape" fill="#FFD703" points="9.8856 12.478209 10.9656 13.2573134 10.5534 11.9946269 11.6316 11.2155224 10.2978 11.2155224 9.8856 9.95462687 9.4734 11.2155224 8.1414 11.2155224 9.2196 11.9964179 8.8074 13.2573134"></polygon>
            <polygon id="Shape" fill="#FFD703" points="25.8354 11.6077612 24.5016 11.5970149 25.5744 12.3850746 25.1496 13.6441791 26.235 12.8740299 27.3078 13.6620896 26.9064 12.3976119 27.9918 11.6274627 26.6598 11.6149254 26.2584 10.3486567"></polygon>
            <polygon id="Shape" fill="#FFD703" points="10.989 16.5797015 12.0654 17.3623881 11.6568 16.0997015 12.7386 15.3223881 11.4048 15.318806 10.9962 14.0561194 10.5804 15.3170149 9.2484 15.3116418 10.3248 16.0943284 9.909 17.3552239"></polygon>
            <polygon id="Shape" fill="#FFD703" points="24.6798 8.13850746 24.2676 9.39940299 25.3458 8.62029851 26.4258 9.40119403 26.0136 8.13850746 27.0918 7.35940299 25.7598 7.35940299 25.3476 6.09671642 24.9354 7.35940299 23.6016 7.35761194"></polygon>
            <polygon id="Shape" fill="#FFD703" points="14.0112 19.5797015 15.1002 20.3480597 14.6736 19.0907463 15.741 18.2973134 14.409 18.3134328 13.9806 17.0579104 13.5846 18.3241791 12.2508 18.3402985 13.3398 19.1068657 12.9438 20.3731343"></polygon>
            <polygon id="Shape" fill="#FFD703" points="21.6612 5.13313433 21.2346 6.39044776 22.3236 5.62208955 23.3928 6.41373134 22.995 5.14746269 24.0822 4.37910448 22.7484 4.36477612 22.3506 3.09850746 21.9258 4.3558209 20.592 4.34149254"></polygon>
        </g>
    </g>
</svg>