<?xml version="1.0" encoding="UTF-8"?>
<svg width="36px" height="24px" viewBox="0 0 36 24" version="1.1" xmlns="http://www.w3.org/2000/svg" xmlns:xlink="http://www.w3.org/1999/xlink">
    <!-- Generator: Sketch 57 (83077) - https://sketch.com -->
    <title>oui-Flag/Georgie</title>
    <desc>Created with Sketch.</desc>
    <g id="oui-Flag/Georgie" stroke="none" stroke-width="1" fill="none" fill-rule="evenodd">
        <g id="Georgie" fill-rule="nonzero">
            <path d="M36,0 L20.4174,0 L20.4174,9.59462687 L36,9.59462687 L36,0 Z M30.6144,5.61313433 C30.0465095,5.49118343 29.4688225,5.41985627 28.8882,5.4 C28.9170533,5.97635159 28.984402,6.5501554 29.0898,7.11761194 C28.5429125,7.06029823 27.9914875,7.06029823 27.4446,7.11761194 C27.5550792,6.55153158 27.6224705,5.97796287 27.6462,5.40179104 C27.3384,5.35522388 26.2368,5.53432836 25.9218,5.60776119 C25.9820094,5.05954234 25.9820094,4.50642781 25.9218,3.95820896 C26.0892,3.98507463 27.459,4.21970149 27.639,4.15164179 C27.618704,3.57757502 27.5512794,3.00611977 27.4374,2.44298507 C27.9833167,2.51642429 28.5366833,2.51642429 29.0826,2.44298507 C28.9794622,3.01258402 28.9121315,3.58802965 28.881,4.16597015 C29.4632318,4.140227 30.042679,4.07077584 30.6144,3.95820896 C30.5601311,4.50852929 30.5601311,5.062814 30.6144,5.61313433 L30.6144,5.61313433 Z" id="Shape" fill="#F9F9F9"></path>
            <path d="M20.4174,24 L36,24 L36,14.4053731 L20.4174,14.4053731 L20.4174,24 Z M27.459,16.9038806 C28.0049167,16.9773198 28.5582833,16.9773198 29.1042,16.9038806 C29.0001663,17.4733471 28.9328289,18.0488492 28.9026,18.6268657 C29.484247,18.6012509 30.0631056,18.5317982 30.6342,18.4191045 C30.5811844,18.96769 30.5811844,19.5200712 30.6342,20.0686567 C30.0669331,19.9466139 29.4898353,19.8752851 28.9098,19.8555224 C28.9385468,20.4312898 29.0058966,21.0045049 29.1114,21.5713433 C28.5644655,21.5149267 28.0131345,21.5149267 27.4662,21.5713433 C27.5758106,21.005129 27.6431943,20.4316252 27.6678,19.8555224 C27.3582,19.8089552 26.2584,19.9880597 25.9416,20.0614925 C26.0018094,19.5132737 26.0018094,18.9601592 25.9416,18.4119403 C26.109,18.438806 27.4788,18.6734328 27.6606,18.6053731 C27.6381471,18.0338417 27.570741,17.4649378 27.459,16.9038806 Z" id="Shape" fill="#F9F9F9"></path>
            <path d="M0,14.4053731 L0,24 L15.5826,24 L15.5826,14.4053731 L0,14.4053731 Z M8.5608,21.5462687 C8.01391249,21.4889549 7.46248751,21.4889549 6.9156,21.5462687 C7.02607918,20.9801883 7.09347051,20.4066196 7.1172,19.8304478 C6.8094,19.7838806 5.7078,19.9629851 5.3928,20.0364179 C5.45395271,19.4882506 5.45395271,18.935033 5.3928,18.3868657 C5.562,18.4137313 6.9318,18.6483582 7.1118,18.5802985 C7.09059995,18.0063006 7.02318397,17.4349178 6.9102,16.8716418 C7.45611669,16.945081 8.00948331,16.945081 8.5554,16.8716418 C8.45226223,17.4412407 8.3849315,18.0166864 8.3538,18.5946269 C8.93544703,18.5690121 9.51430564,18.4995594 10.0854,18.3868657 C10.0323623,18.9354501 10.0323623,19.4878335 10.0854,20.0364179 C9.51750954,19.914467 8.93982248,19.8431398 8.3592,19.8232836 C8.38781441,20.4014341 8.45516398,20.9770407 8.5608,21.5462687 L8.5608,21.5462687 Z" id="Shape" fill="#F9F9F9"></path>
            <path d="M15.5826,0 L0,0 L0,9.59462687 L15.5826,9.59462687 L15.5826,0 Z M8.5626,7.13014925 C8.01571249,7.07283555 7.46428751,7.07283555 6.9174,7.13014925 C7.02790816,6.56347021 7.09529935,5.98930402 7.119,5.41253731 C6.8094,5.37313433 5.7078,5.55223881 5.4,5.62746269 C5.46115271,5.07929537 5.46115271,4.52607777 5.4,3.97791045 C5.5692,4.00477612 6.939,4.23761194 7.119,4.17134328 C7.0977036,3.59676038 7.03028897,3.02479012 6.9174,2.46089552 C7.46331669,2.53433474 8.01668331,2.53433474 8.5626,2.46089552 C8.45966002,3.03052361 8.39233073,3.60595695 8.361,4.1838806 C8.94259663,4.15880188 9.52145068,4.08994842 10.0926,3.97791045 C10.0395512,4.52649438 10.0395512,5.07887876 10.0926,5.62746269 C9.52501227,5.50374405 8.94716314,5.43239688 8.3664,5.41432836 C8.3928689,5.98992688 8.45781244,6.56313414 8.5608,7.13014925 L8.5626,7.13014925 Z" id="Shape" fill="#F9F9F9"></path>
            <polygon id="Shape" fill="#FF2A3D" points="20.4174 9.59462687 20.4174 0 15.5826 0 15.5826 9.59462687 0 9.59462687 0 14.4053731 15.5826 14.4053731 15.5826 24 20.4174 24 20.4174 14.4053731 36 14.4053731 36 9.59462687"></polygon>
            <path d="M28.8882,4.17134328 C28.9193315,3.59340278 28.9866622,3.01795715 29.0898,2.44835821 C28.5438833,2.52179743 27.9905167,2.52179743 27.4446,2.44835821 C27.5584794,3.0114929 27.625904,3.58294816 27.6462,4.15701493 C27.4662,4.22507463 26.0964,3.99044776 25.929,3.96358209 C25.9892094,4.51180094 25.9892094,5.06491547 25.929,5.61313433 C26.244,5.53970149 27.3456,5.36059701 27.6534,5.40716418 C27.6296705,5.98333601 27.5622792,6.55690471 27.4518,7.12298507 C27.9986875,7.06567137 28.5501125,7.06567137 29.097,7.12298507 C28.991602,6.55552853 28.9242533,5.98172472 28.8954,5.40537313 C29.4760225,5.4252294 30.0537095,5.49655656 30.6216,5.61850746 C30.5676837,5.0699653 30.5676837,4.51749738 30.6216,3.96895522 C30.0497406,4.07971779 29.4702946,4.14737266 28.8882,4.17134328 L28.8882,4.17134328 Z" id="Shape" fill="#FF2A3D"></path>
            <path d="M10.0908,3.97791045 C9.51965068,4.08994842 8.94079663,4.15880188 8.3592,4.1838806 C8.39053073,3.60595695 8.45786002,3.03052361 8.5608,2.46089552 C8.01488331,2.53433474 7.46151669,2.53433474 6.9156,2.46089552 C7.02848897,3.02479012 7.0959036,3.59676038 7.1172,4.17134328 C6.9372,4.23761194 5.5674,4.00477612 5.3982,3.97791045 C5.45935271,4.52607777 5.45935271,5.07929537 5.3982,5.62746269 C5.7132,5.55402985 6.8148,5.37313433 7.1226,5.41970149 C7.09889935,5.9964682 7.03150816,6.57063439 6.921,7.13731343 C7.46788751,7.07999972 8.01931249,7.07999972 8.5662,7.13731343 C8.46079702,6.57045998 8.39344802,5.99725152 8.3646,5.42149254 C8.94152299,5.43786193 9.51572433,5.50680697 10.08,5.62746269 C10.0305418,5.07853493 10.0341584,4.52615044 10.0908,3.97791045 L10.0908,3.97791045 Z" id="Shape" fill="#FF2A3D"></path>
            <path d="M10.0908,18.3922388 C9.51970564,18.5049325 8.94084703,18.5743853 8.3592,18.6 C8.3903315,18.0220595 8.45766223,17.4466139 8.5608,16.8770149 C8.01488331,16.9504541 7.46151669,16.9504541 6.9156,16.8770149 C7.02858397,17.440291 7.09599995,18.0116737 7.1172,18.5856716 C6.9372,18.6537313 5.5674,18.4191045 5.3982,18.3922388 C5.45935271,18.9404061 5.45935271,19.4936237 5.3982,20.041791 C5.7132,19.9683582 6.8148,19.7892537 7.1226,19.8358209 C7.09887051,20.4119927 7.03147918,20.9855614 6.921,21.5516418 C7.46788751,21.4943281 8.01931249,21.4943281 8.5662,21.5516418 C8.46080199,20.9841852 8.39345334,20.4103814 8.3646,19.8340299 C8.94144327,19.8527529 9.51548627,19.9222783 10.08,20.041791 C10.0305529,19.4928628 10.0341695,18.9404794 10.0908,18.3922388 L10.0908,18.3922388 Z" id="Shape" fill="#FF2A3D"></path>
            <path d="M25.9416,18.4191045 C26.0018094,18.9673233 26.0018094,19.5204379 25.9416,20.0686567 C26.2584,19.9952239 27.3582,19.8161194 27.6678,19.8626866 C27.6431943,20.4387893 27.5758106,21.0122932 27.4662,21.5785075 C28.0131345,21.5220909 28.5644655,21.5220909 29.1114,21.5785075 C29.0058966,21.0116691 28.9385468,20.4384539 28.9098,19.8626866 C29.4898353,19.8824493 30.0669331,19.953778 30.6342,20.0758209 C30.5811844,19.5272354 30.5811844,18.9748542 30.6342,18.4262687 C30.0631056,18.5389624 29.484247,18.6084151 28.9026,18.6340299 C28.9328289,18.0560134 29.0001663,17.4805113 29.1042,16.9110448 C28.5582833,16.984484 28.0049167,16.984484 27.459,16.9110448 C27.5711149,17.4744573 27.6385227,18.0457711 27.6606,18.6197015 C27.4788,18.680597 26.109,18.4477612 25.9416,18.4191045 Z" id="Shape" fill="#FF2A3D"></path>
        </g>
    </g>
</svg>