<?xml version="1.0" encoding="UTF-8"?>
<svg width="36px" height="24px" viewBox="0 0 36 24" version="1.1" xmlns="http://www.w3.org/2000/svg" xmlns:xlink="http://www.w3.org/1999/xlink">
    <!-- Generator: Sketch 57 (83077) - https://sketch.com -->
    <title>oui-Flag/Tadjikistan</title>
    <desc>Created with Sketch.</desc>
    <g id="oui-Flag/Tadjikistan" stroke="none" stroke-width="1" fill="none" fill-rule="evenodd">
        <g id="Tadjikistan" fill-rule="nonzero">
            <rect id="Rectangle-path" fill="#00BB38" x="0" y="17" width="36" height="7"></rect>
            <path d="M0,17 L36,17 L36,7 L0,7 L0,17 Z M19.7400347,15 C19.4471404,14.7807425 18.8734835,14.5730858 17.9948007,14.5730858 C17.1161179,14.5730858 16.5441941,14.7795824 16.2512998,15 L16,14.8213457 C16.2253033,14.6357309 16.5199307,14.5730858 16.6048527,14.3410673 C16.6466459,14.2443616 16.6156209,14.1400925 16.5216638,14.0614849 C16.5175518,14.0587404 16.5140499,14.055615 16.5112652,14.0522042 L16.5216638,14.0614849 C16.7470475,14.2179015 17.0643569,14.2994625 17.3882149,14.2842227 C17.7677643,14.2842227 18,14 18,14 C18,14 18.2339688,14.2842227 18.6135182,14.2842227 C18.9373762,14.2994625 19.2546856,14.2179015 19.4800693,14.0614849 L19.4904679,14.0522042 C19.4876832,14.055615 19.4841813,14.0587404 19.4800693,14.0614849 C19.385284,14.1398335 19.354174,14.2443885 19.3968804,14.3410673 C19.4731369,14.5730858 19.7764298,14.6357309 20,14.8213457 L19.7400347,15 Z M23,12.3837357 L22.6894866,12.6188056 L22.8117359,13 L22.5012225,12.7649301 L22.1894866,12.9974587 L22.3117359,12.6162643 L22,12.3811944 L22.3850856,12.3811944 L22.507335,12 L22.6295844,12.3811944 L23,12.3837357 Z M21.369645,10.3821656 L21.4920441,10 L21.6144431,10.3821656 L22,10.3821656 L21.6891065,10.6178344 L21.8115055,11 L21.499388,10.7643312 L21.1884945,11 L21.3108935,10.6178344 L21,10.3821656 L21.369645,10.3821656 Z M19.370869,9.38265306 L19.4932681,9 L19.6156671,9.38265306 L20,9.38265306 L19.6891065,9.61734694 L19.8115055,10 L19.500612,9.76403061 L19.1897185,10 L19.3121175,9.61734694 L19,9.38265306 L19.370869,9.38265306 Z M17.377724,8.38216561 L17.4987893,8 L17.6198547,8.38216561 L18,8.38216561 L17.6924939,8.61783439 L17.8135593,9 L17.4987893,8.76433121 L17.1912833,9 L17.3123487,8.61783439 L17,8.38216561 L17.377724,8.38216561 Z M17.9948365,10.0053517 C18.6127367,10.0053517 19.2289157,10.6029527 19.2289157,10.813451 L18.2685026,11.7910192 L18.2685026,13.7372363 C18.4148021,13.8977859 19.0740103,14.1992622 19.4733219,13.8621082 C19.8777969,14.4222477 20.2719449,14.6702075 21,14.7772405 C20.3321859,15.2838635 19.5834768,14.8075665 19.4905336,14.5185774 C18.8915663,14.830757 18.1910499,14.5792294 18,14.340189 L18,14.340189 C17.8089501,14.5792294 17.1101549,14.830757 16.5094664,14.5185774 C16.4165232,14.8075665 15.6695353,15.2838635 15,14.7772405 C15.7297762,14.6702075 16.1239243,14.4204638 16.5266781,13.8621082 C16.929432,14.1992622 17.5903614,13.8977859 17.7314974,13.7372363 L17.7314974,11.7910192 L16.7641997,10.8080993 C16.7641997,10.597601 17.3820998,10 18,10 L17.9948365,10.0053517 Z M15.377724,9.38265306 L15.4987893,9 L15.6198547,9.38265306 L16,9.38265306 L15.68523,9.61734694 L15.8062954,10 L15.4987893,9.76403061 L15.1876513,9.99872449 L15.3087167,9.61607143 L15,9.38137755 L15.377724,9.38265306 Z M13.3704156,10.3821656 L13.492665,10 L13.6149144,10.3821656 L14,10.3821656 L13.6882641,10.6178344 L13.8105134,11 L13.4987775,10.7643312 L13.1882641,11 L13.3105134,10.6178344 L13,10.3821656 L13.3704156,10.3821656 Z M13.4932681,12 L13.6156671,12.3821656 L14,12.3821656 L13.6891065,12.6178344 L13.8115055,13 L13.500612,12.7643312 L13.1897185,13 L13.3121175,12.6178344 L13,12.3821656 L13.3855569,12.3821656 L13.4932681,12 Z" id="Shape" fill="#F9F9F9"></path>
            <path d="M17.9964581,12 C18.2369946,11.7279829 18.589518,11.5227803 19,11.4158418 C18.7840231,11.1570803 18.4062825,11 18,11 C17.5937175,11 17.2159769,11.1570803 17,11.4158418 C17.4083786,11.5230949 17.7585175,11.7283584 17.9964581,12 L17.9964581,12 Z" id="Shape" fill="#F9F9F9"></path>
            <rect id="Rectangle-path" fill="#FF2A4C" x="0" y="0" width="36" height="7"></rect>
            <path d="M17.7314974,13.7358833 C17.5851979,13.8966049 16.9242685,14.1984042 16.5266781,13.860889 C16.1239243,14.4216286 15.7297762,14.6698541 15,14.7770018 C15.6695353,15.2841676 16.4165232,14.8073603 16.5094664,14.5180615 C17.1101549,14.8305757 17.8089501,14.5787786 18,14.339482 L18,14.339482 C18.1910499,14.5787786 18.8915663,14.8305757 19.4905336,14.5180615 C19.5834768,14.8073603 20.3321859,15.2841676 21,14.7770018 C20.2719449,14.6698541 19.8777969,14.4198428 19.4733219,13.860889 C19.070568,14.1984042 18.4113597,13.8966049 18.2685026,13.7358833 L18.2685026,11.7875809 L19.232358,10.8089652 C19.232358,10.5982414 18.616179,10 17.9982788,10 C17.3803787,10 16.7624785,10.5982414 16.7624785,10.8089652 L17.7228916,11.7875809 L17.7314974,13.7358833 Z M17.5005903,10 C17.7020819,10.0097063 17.8880639,10.1648745 18,10.4166667 C17.794759,10.5234542 17.6184973,10.7283671 17.498229,11 C17.3792588,10.728742 17.2041893,10.5237684 17,10.4166667 C17.1125841,10.1650421 17.2988373,10.0100142 17.5005903,10 Z" id="Shape" fill="#E4B600"></path>
            <path d="M19.3968804,15.6813441 C19.354174,15.4882105 19.385284,15.2793429 19.4800693,15.1228273 C19.2546856,15.435298 18.9373762,15.5982311 18.6135182,15.5677868 C18.2339688,15.5677868 18,15 18,15 C18,15 17.7677643,15.5677868 17.3882149,15.5677868 C17.0643569,15.5982311 16.7470475,15.435298 16.5216638,15.1228273 C16.6156209,15.2798604 16.6466459,15.4881568 16.6048527,15.6813441 C16.5285962,16.1448436 16.2253033,16.2699884 16,16.6407879 L16.2616984,17 C16.5545927,16.561993 17.1195841,16.1471611 18.0051993,16.1471611 C18.8908146,16.1471611 19.457539,16.5596756 19.7504333,17 L20,16.6431054 C19.7694974,16.2699884 19.4731369,16.1448436 19.3968804,15.6813441 Z" id="Shape" fill="#E4B600"></path>
            <path d="M19,15.08 C19.0237261,15.0563427 19.0439323,15.0294011 19.06,15 L19,15.08 Z" id="Shape" fill="#E4B600"></path>
            <path d="M16.06,15.08 L16,15 C16.0160677,15.0294011 16.0362739,15.0563427 16.06,15.08 L16.06,15.08 Z" id="Shape" fill="#E4B600"></path>
            <polygon id="Shape" fill="#E4B600" points="22.3827461 12.3818646 22 12.3818646 22.309842 12.6181354 22.1919806 13 22.5006075 12.7637292 22.8092345 13 22.691373 12.6181354 23 12.3818646 22.618469 12.3818646 22.5006075 12"></polygon>
            <polygon id="Shape" fill="#E4B600" points="21.1907655 11 21.4993925 10.7637292 21.8092345 11 21.691373 10.6181354 22 10.3818646 21.6172539 10.3818646 21.4993925 10 21.381531 10.3818646 21 10.3818646 21.308627 10.6181354"></polygon>
            <polygon id="Shape" fill="#E4B600" points="19.1919806 9 19.5006075 8.76342711 19.8092345 9 19.691373 8.61764706 20 8.38235294 19.618469 8.38235294 19.5006075 8 19.3827461 8.38235294 19 8.38235294 19.309842 8.61764706"></polygon>
            <polygon id="Shape" fill="#E4B600" points="17.1909976 9 17.5 8.76372925 17.8090024 9 17.6909976 8.61813538 18 8.38186462 17.6180049 8.38186462 17.5 8 17.3819951 8.38186462 17 8.38186462 17.3090024 8.61813538"></polygon>
            <polygon id="Shape" fill="#E4B600" points="15.1909976 9 15.5 8.76342711 15.8090024 9 15.6909976 8.61764706 16 8.38235294 15.6180049 8.38235294 15.5 8 15.3819951 8.38235294 15 8.38235294 15.3090024 8.61764706"></polygon>
            <polygon id="Shape" fill="#E4B600" points="13.1907655 11 13.4993925 10.7637292 13.8092345 11 13.690158 10.6181354 14 10.3818646 13.6172539 10.3818646 13.4993925 10 13.381531 10.3818646 13 10.3818646 13.308627 10.6181354"></polygon>
            <polygon id="Shape" fill="#E4B600" points="13.309842 12.6181354 13.1919806 13 13.5006075 12.7637292 13.8092345 13 13.691373 12.6181354 14 12.3818646 13.618469 12.3818646 13.5006075 12 13.3827461 12.3818646 13 12.3818646"></polygon>
        </g>
    </g>
</svg>