<svg id="Layer_1" data-name="Layer 1" xmlns="http://www.w3.org/2000/svg" viewBox="0 0 31.95 32.05"><title>typeArtboard 1</title><path d="M16,11a5,5,0,1,0,5,5A5,5,0,0,0,16,11Zm0,9a4,4,0,1,1,4-4A4,4,0,0,1,16,20Z" fill="#122844"/><path d="M31.88,14.37a1.49,1.49,0,0,0-1.5-1.4H29a.5.5,0,0,1-.52-.44,15.82,15.82,0,0,0-1.23-3.08.56.56,0,0,1,.11-.62l1-1.05a1.55,1.55,0,0,0,0-1.9,11,11,0,0,0-1-1.25,11.14,11.14,0,0,0-1.25-1A1.58,1.58,0,0,0,24,3.72l-1,1a.44.44,0,0,1-.6,0,11.67,11.67,0,0,0-3.14-1.25.48.48,0,0,1-.4-.51V1.57A1.48,1.48,0,0,0,17.52.08h0a17.53,17.53,0,0,0-3.25,0,1.49,1.49,0,0,0-1.4,1.5V3a.5.5,0,0,1-.44.52A15.77,15.77,0,0,0,9.35,4.73a.41.41,0,0,1-.52-.11l-1.05-1a1.55,1.55,0,0,0-1.9,0,11,11,0,0,0-1.25,1,10.93,10.93,0,0,0-1,1.25,1.71,1.71,0,0,0,0,2.05l1,1a.44.44,0,0,1,0,.6,11.66,11.66,0,0,0-1.25,3.14.48.48,0,0,1-.51.4H1.57a1.48,1.48,0,0,0-1.5,1.35,17.41,17.41,0,0,0,0,3.25,1.49,1.49,0,0,0,1.5,1.4H3a.5.5,0,0,1,.52.44A15.83,15.83,0,0,0,4.73,22.6a.41.41,0,0,1-.11.52l-1,1.05a1.55,1.55,0,0,0,0,1.9,11.21,11.21,0,0,0,1,1.25,11,11,0,0,0,1.25,1,1.72,1.72,0,0,0,2.05,0l1-1a.44.44,0,0,1,.6,0,11.65,11.65,0,0,0,3.14,1.25.48.48,0,0,1,.4.51v1.4A1.51,1.51,0,0,0,14.43,32c.56.05,1.11.08,1.65.08s1.06,0,1.6-.07a1.49,1.49,0,0,0,1.4-1.5V29a.5.5,0,0,1,.44-.52,15.74,15.74,0,0,0,3.08-1.23.57.57,0,0,1,.62,0l1,1a1.43,1.43,0,0,0,2,.15,10.37,10.37,0,0,0,1.15-1,10.87,10.87,0,0,0,1-1.25,1.71,1.71,0,0,0,0-2.05l-1-1a.44.44,0,0,1,0-.6,11.66,11.66,0,0,0,1.25-3.14.47.47,0,0,1,.47-.4l1.3.1a1.48,1.48,0,0,0,1.54-1.35A17.48,17.48,0,0,0,31.88,14.37Zm-1,3.2c0,.19-.24.39-.48.4l-1.32-.1a1.48,1.48,0,0,0-1.49,1.2,10.69,10.69,0,0,1-1.11,2.8,1.41,1.41,0,0,0,.15,1.85l1,.95a.71.71,0,0,1,0,.8,10.07,10.07,0,0,1-1,1.15,10.29,10.29,0,0,1-1.1,1,.47.47,0,0,1-.59-.1l-1-1a1.54,1.54,0,0,0-1.8-.19,14.8,14.8,0,0,1-2.85,1.15A1.48,1.48,0,0,0,18.07,29v1.5a.5.5,0,0,1-.44.5,16.78,16.78,0,0,1-3.16,0,.5.5,0,0,1-.4-.5v-1.4a1.48,1.48,0,0,0-1.2-1.49,10.69,10.69,0,0,1-2.8-1.11,1.39,1.39,0,0,0-.84-.28,1.43,1.43,0,0,0-1,.43l-.95,1a.71.71,0,0,1-.8,0,10,10,0,0,1-1.15-1,10.19,10.19,0,0,1-1-1.15.55.55,0,0,1,0-.65l1-1a1.42,1.42,0,0,0,.28-1.7,14.85,14.85,0,0,1-1.15-2.86A1.48,1.48,0,0,0,3,18.07H1.57a.5.5,0,0,1-.5-.44,16.78,16.78,0,0,1,0-3.16.5.5,0,0,1,.5-.4h1.3a1.48,1.48,0,0,0,1.49-1.2,10.74,10.74,0,0,1,1.11-2.8,1.41,1.41,0,0,0-.15-1.85l-1-.95a.71.71,0,0,1,0-.8,10.12,10.12,0,0,1,1-1.15,10.18,10.18,0,0,1,1.15-1,.55.55,0,0,1,.65,0l1,1a1.43,1.43,0,0,0,1.7.28,14.87,14.87,0,0,1,2.86-1.15A1.48,1.48,0,0,0,13.87,3V1.57a.5.5,0,0,1,.45-.5,16.81,16.81,0,0,1,3.15,0,.5.5,0,0,1,.4.5V3a1.48,1.48,0,0,0,1.2,1.49,10.73,10.73,0,0,1,2.8,1.11,1.41,1.41,0,0,0,1.85-.15l1-1a.57.57,0,0,1,.75-.05,10.13,10.13,0,0,1,1.15,1,10,10,0,0,1,1,1.15.55.55,0,0,1,0,.65l-1,1a1.57,1.57,0,0,0-.28,1.8,14.85,14.85,0,0,1,1.15,2.85A1.48,1.48,0,0,0,29,14h1.4a.5.5,0,0,1,.5.44A16.86,16.86,0,0,1,30.88,17.57Z" fill="#122844"/></svg>
