<svg xmlns="http://www.w3.org/2000/svg" width="32" height="32" viewBox="0 0 32 32">
    <path fill="#0050D7" fill-rule="evenodd" d="M30.943 4c.815 0 1.47.675 1.47 1.5v5.808a.498.498 0 0 1 0 .384V26.5c0 .825-.655 1.5-1.47 1.5H1.503c-.815 0-1.47-.675-1.47-1.5L.032 11.711a.498.498 0 0 1 0-.422L.033 5.5c0-.825.655-1.5 1.47-1.5h29.44zm.469 8H1.032l.001 14.5c0 .28.214.5.47.5h29.44c.256 0 .47-.22.47-.5L31.412 12zm-17.363 3.15a.5.5 0 0 1-.007.707L10.333 19.5l3.71 3.643a.5.5 0 1 1-.701.714l-4.073-4a.5.5 0 0 1 0-.714l4.073-4a.5.5 0 0 1 .707.007zm5.055-.007l4.073 4a.5.5 0 0 1 0 .714l-4.073 4a.5.5 0 1 1-.7-.714l3.71-3.643-3.71-3.643a.5.5 0 1 1 .7-.714zM30.943 5H1.503c-.256 0-.47.22-.47.5V11h30.379V5.5c0-.28-.213-.5-.469-.5zM12.165 6.955c.56 0 1.013.468 1.013 1.045s-.454 1.045-1.013 1.045c-.56 0-1.013-.468-1.013-1.045s.453-1.045 1.013-1.045zm-4.063 0c.56 0 1.013.468 1.013 1.045s-.454 1.045-1.013 1.045c-.56 0-1.014-.468-1.014-1.045s.454-1.045 1.014-1.045zM4.082 7c.536 0 .97.448.97 1s-.434 1-.97 1c-.535 0-.97-.448-.97-1s.435-1 .97-1z"/>
</svg>
