<svg xmlns="http://www.w3.org/2000/svg" width="32" height="32" viewBox="0 0 32 32">
    <path fill="#0050D7" fill-rule="evenodd" d="M30.5 4A1.5 1.5 0 0 1 32 5.5v21a1.5 1.5 0 0 1-1.5 1.5h-29A1.5 1.5 0 0 1 0 26.5v-21A1.5 1.5 0 0 1 1.5 4h29zm.5 8H1v14.5a.5.5 0 0 0 .5.5l7.572.001A7.95 7.95 0 0 1 8.252 25H6.65a.5.5 0 0 1-.493-.414 9.22 9.22 0 0 1 0-3.172A.5.5 0 0 1 6.65 21h1.604a7.96 7.96 0 0 1 .86-2.059l-1.148-1.147a.5.5 0 0 1-.055-.641 9.16 9.16 0 0 1 2.242-2.242.5.5 0 0 1 .64.055l1.15 1.15A7.95 7.95 0 0 1 14 15.261V13.66a.5.5 0 0 1 .414-.493 9.22 9.22 0 0 1 3.172 0 .5.5 0 0 1 .414.493v1.602a7.95 7.95 0 0 1 2.058.853l1.148-1.149a.5.5 0 0 1 .641-.055 9.21 9.21 0 0 1 2.242 2.242.5.5 0 0 1-.055.64l-1.15 1.15A7.98 7.98 0 0 1 23.738 21h1.603a.5.5 0 0 1 .493.414 9.22 9.22 0 0 1 0 3.172.5.5 0 0 1-.493.414h-1.602a7.97 7.97 0 0 1-.82 2.001L30.5 27a.5.5 0 0 0 .5-.5V12zm-16 2.091v1.569a.5.5 0 0 1-.4.49 6.95 6.95 0 0 0-2.454 1.017.5.5 0 0 1-.63-.063l-1.125-1.126a8.16 8.16 0 0 0-1.413 1.413l1.126 1.125a.5.5 0 0 1 .062.632A6.96 6.96 0 0 0 9.14 21.6a.5.5 0 0 1-.49.399H7.081a8.22 8.22 0 0 0 0 2H8.65a.5.5 0 0 1 .49.4 6.95 6.95 0 0 0 1.017 2.454.5.5 0 0 1 .066.146h11.544a.5.5 0 0 1 .066-.146A6.97 6.97 0 0 0 22.85 24.4a.5.5 0 0 1 .49-.4h1.569a8.22 8.22 0 0 0 0-2H23.34a.5.5 0 0 1-.49-.4 6.98 6.98 0 0 0-1.017-2.454.5.5 0 0 1 .063-.63l1.126-1.125a8.21 8.21 0 0 0-1.413-1.413l-1.125 1.126a.5.5 0 0 1-.63.063A6.95 6.95 0 0 0 17.4 16.15a.5.5 0 0 1-.4-.49v-1.569a8.22 8.22 0 0 0-2 0zM16 20a3 3 0 1 1 0 6 3 3 0 0 1 0-6zm0 1a2 2 0 1 0 0 4 2 2 0 0 0 0-4zM30.5 5h-29a.5.5 0 0 0-.5.5V11h30V5.5a.5.5 0 0 0-.5-.5zM4 7a1 1 0 1 1 0 2 1 1 0 0 1 0-2zm4 0a1 1 0 1 1 0 2 1 1 0 0 1 0-2zm4 0a1 1 0 1 1 0 2 1 1 0 0 1 0-2z"/>
</svg>
