<svg xmlns="http://www.w3.org/2000/svg" width="32" height="32" viewBox="0 0 32 32">
    <path fill="#0050D7" fill-rule="evenodd" d="M4.854 18.146a.5.5 0 0 1 0 .708L1.707 22H31.46a.5.5 0 1 1 0 1H1.707l3.147 3.146a.5.5 0 0 1-.708.708l-4-4-.011-.013a.503.503 0 0 1-.033-.039l.044.052A.502.502 0 0 1 0 22.5v-.01c0-.022.002-.043.005-.064L0 22.5a.502.502 0 0 1 .146-.354l4-4a.5.5 0 0 1 .708 0zm23-13l4 4a.5.5 0 0 1 0 .708l-4 4a.5.5 0 0 1-.708-.708l3.156-3.156H.5a.5.5 0 0 1 0-1h29.782l-3.136-3.136a.5.5 0 0 1 .708-.708z"/>
</svg>
