<svg id="Layer_1" data-name="Layer 1" xmlns="http://www.w3.org/2000/svg" viewBox="0 0 20 20"><defs><style>.cls-1{fill:#61afa0;}</style></defs><title>icon</title><path class="cls-1" d="M13.91,7.68v2.83l3.91,3.91-3.49,3.49L10.42,14H7.59l5.33,5.33a2,2,0,0,0,2.83,0l3.49-3.49a2,2,0,0,0,0-2.83Z"/><path class="cls-1" d="M5.48,2.09h0L9.4,6h2.83L6.9.67a2,2,0,0,0-2.83,0L.58,4.16A2,2,0,0,0,.58,7l5.33,5.33V9.49L2,5.58Z"/><rect class="cls-1" x="-0.47" y="17.15" width="5.66" height="1" transform="translate(-11.79 6.83) rotate(-45)"/><rect class="cls-1" x="14.82" y="1.85" width="5.66" height="1" transform="translate(3.5 13.17) rotate(-45)"/><rect class="cls-1" x="12.91" width="1" height="4"/><rect class="cls-1" x="16" y="6" width="4" height="1"/><rect class="cls-1" y="13" width="4" height="1"/><rect class="cls-1" x="5.91" y="16" width="1" height="4"/></svg>