<svg xmlns="http://www.w3.org/2000/svg" width="32" height="32" viewBox="0 0 32 32">
    <path fill="#0050D7" fill-rule="evenodd" d="M22.5 10a.5.5 0 0 1 .5.5V12h7.5a1.5 1.5 0 0 1 0 3H23v2h3.5a1.5 1.5 0 0 1 1.414 2h.586a1.5 1.5 0 0 1 0 3H23v.5a.5.5 0 0 1-.5.5H.5a.5.5 0 1 1 0-1H22V11h-5.5a.5.5 0 1 1 0-1h6zm6 10H23v1h5.5a.5.5 0 1 0 0-1zm-14-1a.5.5 0 1 1 0 1h-5a.5.5 0 1 1 0-1h5zm-8 0a.5.5 0 1 1 0 1h-3a.5.5 0 1 1 0-1h3zm20-1H23v1h3.5a.5.5 0 1 0 0-1zm-12-2a.5.5 0 1 1 0 1h-8a.5.5 0 1 1 0-1h8zm16-3H23v1h7.5a.5.5 0 1 0 0-1zm-16 0a.5.5 0 1 1 0 1h-5a.5.5 0 1 1 0-1h5zm0-3a.5.5 0 1 1 0 1h-2a.5.5 0 1 1 0-1h2z"/>
</svg>
