<?xml version="1.0" encoding="utf-8"?>
<!-- Generator: Adobe Illustrator 21.0.0, SVG Export Plug-In . SVG Version: 6.00 Build 0)  -->
<svg version="1.1" id="Calque_1" xmlns="http://www.w3.org/2000/svg" xmlns:xlink="http://www.w3.org/1999/xlink" x="0px" y="0px"
	 viewBox="0 0 64 64" style="enable-background:new 0 0 64 64;" xml:space="preserve">
<g>
	<g>
		<path d="M46.5,6.3H3.6C1.6,6.3,0,8,0,9.9v25.8c0,2,1.6,3.6,3.6,3.6h2.8v9.6c0,0.6,0.4,1.2,0.9,1.4c0.2,0.1,0.4,0.1,0.6,0.1
			c0.4,0,0.8-0.2,1.1-0.4l10.7-10.7h2.1c0.8,0,1.5-0.7,1.5-1.5s-0.7-1.5-1.5-1.5c0,0-2.8,0-2.9,0c-0.4,0-0.7,0.2-1,0.4l-8.5,8.5
			c0,0,0-7.5,0-7.6c-0.1-0.8-0.7-1.4-1.5-1.4H3.6C3.3,36.3,3,36,3,35.7V9.9c0-0.3,0.3-0.6,0.6-0.6h42.9c0.3,0,0.6,0.3,0.6,0.6v9.9
			c0,0.8,0.7,1.5,1.5,1.5s1.5-0.7,1.5-1.5V9.9C50.1,8,48.5,6.3,46.5,6.3z"/>
	</g>
</g>
<g>
	<g>
		<path d="M60.4,24.8H30.3c-2,0-3.6,1.6-3.6,3.6V46c0,2,1.6,3.6,3.6,3.6h18.8l7.6,7.6c0.3,0.3,0.7,0.4,1.1,0.4c0.2,0,0.4,0,0.6-0.1
			c0.6-0.2,0.9-0.8,0.9-1.4v-6.6h1c2,0,3.6-1.6,3.6-3.6V28.4C64,26.4,62.4,24.8,60.4,24.8z M61,46c0,0.3-0.3,0.6-0.6,0.6h-2.5
			c-0.8,0-1.4,0.6-1.5,1.4v4.5L50.9,47l0,0c0,0,0,0-0.1-0.1c-0.3-0.2-0.6-0.4-1-0.4H30.3c-0.3,0-0.6-0.3-0.6-0.6V28.4
			c0-0.3,0.3-0.6,0.6-0.6h30.1c0.3,0,0.6,0.3,0.6,0.6V46z"/>
	</g>
</g>
</svg>
