<svg id="Layer_1" data-name="Layer 1" xmlns="http://www.w3.org/2000/svg" viewBox="0 0 32 32"><title>typeArtboard 1</title><g id="Review_Identify_Pay_Approval" data-name="Review/Identify/Pay/Approval"><g id="C---Order-Approval"><g id="Bloc-1"><g id="Bloc"><g id="Group-2"><g id="Options"><g id="check_64px-bkg-light" data-name="check 64px-bkg-light"><path d="M16,32A16,16,0,1,1,32,16,16,16,0,0,1,16,32ZM16,1A15,15,0,1,0,31,16,15,15,0,0,0,16,1Z" fill="#122844"/><path d="M12.5,23a.5.5,0,0,1-.35-.15l-5-5a.5.5,0,0,1,.71-.71l4.65,4.65L24.15,10.15a.5.5,0,0,1,.71.71l-12,12A.5.5,0,0,1,12.5,23Z" fill="#122844"/></g></g></g></g></g></g></g></svg>