<?xml version="1.0" encoding="utf-8"?>
<!-- Generator: Adobe Illustrator 21.0.0, SVG Export Plug-In . SVG Version: 6.00 Build 0)  -->
<svg version="1.1" id="Calque_1" xmlns="http://www.w3.org/2000/svg" xmlns:xlink="http://www.w3.org/1999/xlink" x="0px" y="0px"
	 viewBox="0 0 18 18" style="enable-background:new 0 0 18 18;" xml:space="preserve">
<path d="M17.1,1.8l-1.2-1c-0.4-0.2-0.7-0.1-1.1,0.3l-4.8,6L7.9,9.8L5.4,6.7L5.3,6.6C5,6.3,4.5,6.3,4.2,6.6L3,7.6
	C2.7,7.9,2.7,8.4,3,8.7c1.3,1.5,2.7,3.1,4,4.7c0.1,0.2,0.3,0.3,0.5,0.4C8,14.1,8.7,13.9,9,13.4l8.3-10.3l0.1-0.2
	C17.6,2.4,17.6,2.2,17.1,1.8z"/>
</svg>
