<?xml version="1.0" encoding="utf-8"?>
<!-- Generator: Adobe Illustrator 21.0.0, SVG Export Plug-In . SVG Version: 6.00 Build 0)  -->
<svg version="1.1" id="Calque_1" xmlns="http://www.w3.org/2000/svg" xmlns:xlink="http://www.w3.org/1999/xlink" x="0px" y="0px"
	 viewBox="0 0 64 64" style="enable-background:new 0 0 64 64;" xml:space="preserve">
<g>
	<path d="M32,64c17.7,0,32-14.3,32-32S49.7,0,32,0S0,14.3,0,32S14.3,64,32,64z M32,3c16,0,29,13,29,29S48,61,32,61S3,48,3,32
		S16,3,32,3z"/>
	<path d="M21,32.4c0,0.1,0,0.3,0.1,0.4c0,0.1,0,0.2,0.1,0.3c0,0.1,0.1,0.2,0.1,0.3c0.1,0.1,0.1,0.2,0.2,0.4c0,0.1,0.1,0.2,0.1,0.3
		c0,0.1,0.1,0.1,0.2,0.2c0.7,1,1.7,1.9,2.5,2.7c2.1,2.1,4.2,4.2,6.4,6.4c1.1,1.1,1.4,1.4,1.5,1.5c0,0,0,0,0,0c0,0,0,0,0,0
		c0.1,0.1,0.5,0.5,1.5,1.5c1.3,1.3,3.3-0.7,2-2c-0.3-0.3-0.5-0.5-0.7-0.7c0,0,0,0,0,0c0,0-0.1-0.1-0.1-0.1c0,0-0.1-0.1-0.1-0.1
		c-0.1-0.1-0.1-0.1-0.2-0.2c0,0,0,0,0.1,0.1c-0.2-0.2-0.4-0.4-0.8-0.8c-2.2-2.2-4.5-4.5-6.7-6.7c-0.7-0.7-1.5-1.5-2.2-2.2
		c-0.2-0.2-0.4-0.4-0.6-0.6c-0.1-0.1-0.1-0.1-0.2-0.2c0,0-0.1-0.1-0.1-0.1c-0.1-0.1-0.1-0.3-0.2-0.3c0,0,0,0,0,0c0-0.1,0-0.2,0-0.2
		c0-0.1,0-0.2,0-0.2c0,0,0-0.1,0-0.2c0,0,0,0,0,0c0,0,0.1-0.2,0.2-0.3c0,0,0.1-0.1,0.1-0.1c0.1-0.1,0.1-0.1,0.2-0.2
		c0.2-0.2,0.4-0.4,0.6-0.6c0.7-0.7,1.5-1.5,2.2-2.2c2.2-2.2,4.5-4.5,6.7-6.7c0.4-0.4,0.6-0.6,0.8-0.8c0,0-0.1,0.1-0.1,0.1
		c0,0,0.1-0.1,0.2-0.2c0,0,0.1-0.1,0.1-0.1c0,0,0.1-0.1,0.1-0.1c0,0,0,0,0,0c0.2-0.2,0.4-0.4,0.7-0.7c1.3-1.3-0.7-3.3-2-2
		c-1.1,1.1-1.4,1.4-1.5,1.5c0,0,0,0,0,0c0,0,0,0,0,0c-0.1,0.1-0.4,0.4-1.5,1.5c-2.1,2.1-4.2,4.2-6.4,6.4c-0.8,0.8-1.8,1.7-2.5,2.7
		c-0.1,0.1-0.1,0.1-0.2,0.2c-0.1,0.1-0.1,0.2-0.1,0.3c-0.1,0.1-0.1,0.2-0.2,0.4c0,0.1-0.1,0.2-0.1,0.3c0,0.1-0.1,0.2-0.1,0.3
		c0,0.1-0.1,0.3-0.1,0.4c0,0,0,0,0,0c0,0.1,0,0.2,0,0.3C21,32.1,21,32.2,21,32.4C21,32.4,21,32.4,21,32.4z"/>
</g>
</svg>
