<svg xmlns="http://www.w3.org/2000/svg" width="32" height="32" viewBox="0 0 32 32">
    <path fill="#0050D7" fill-rule="evenodd" d="M20.036.316A9.001 9.001 0 0 1 26.97 9v.285A7 7 0 0 1 25 23l-6.942-.001c.027.061.042.13.042.201v3.5h.567c1.283 0 2.352.918 2.586 2.133h10.214a.5.5 0 0 1 0 1H21.253a2.634 2.634 0 0 1-2.586 2.134h-5.334a2.634 2.634 0 0 1-2.586-2.134H.533a.5.5 0 1 1 0-1h10.214a2.634 2.634 0 0 1 2.586-2.133h.566l.001-3.5c0-.072.015-.14.042-.201L6.998 23a7 7 0 0 1-3.846-12.832 4.96 4.96 0 0 1 7.055-5.647 9 9 0 0 1 9.83-4.205zM18.666 27.7h-5.333a1.633 1.633 0 1 0 0 3.267h5.334a1.633 1.633 0 0 0 0-3.267zm-1.524-4.701h-2.284c.027.061.042.13.042.201v3.5h2.2v-3.5c0-.072.015-.14.042-.201zM10.845 5.437a.5.5 0 0 1-.719.191 3.96 3.96 0 0 0-5.913 4.6.5.5 0 0 1-.22.594A6 6 0 0 0 7 22h18a6 6 0 0 0 1.356-11.843.5.5 0 0 1-.386-.487v-.666a8 8 0 0 0-15.125-3.567z"/>
</svg>
