<svg xmlns="http://www.w3.org/2000/svg" width="32" height="32" viewBox="0 0 32 32">
    <path fill="#0050D7" fill-rule="evenodd" d="M2.75 24.25v2.452l.083.003A2.634 2.634 0 0 1 5.28 29H7.5v1H5.215a2.634 2.634 0 1 1-3.466-3.136l.001-2.614h1zm28 0v2.864A2.633 2.633 0 1 1 26.785 30h-2.284v-1h2.22a2.634 2.634 0 0 1 3.03-2.267V24.25h1zm-1.417 3.45a1.633 1.633 0 1 0 0 3.267 1.633 1.633 0 0 0 0-3.267zm-26.666 0a1.633 1.633 0 1 0 0 3.267 1.633 1.633 0 0 0 0-3.267zM15.5 29v1h-3v-1h3zm-4 0v1h-3v-1h3zm12 0v1h-3v-1h3zm-4 0v1h-3v-1h3zm.767-23.633c.57 0 1.033.462 1.033 1.033v1.1H23A1.5 1.5 0 0 1 24.5 9v1.7h1.1a1.033 1.033 0 0 1 0 2.067h-1.1v2.2h1.1a1.033 1.033 0 0 1 0 2.066h-1.1v2.2h1.1a1.033 1.033 0 0 1 0 2.067h-1.1V23a1.5 1.5 0 0 1-1.5 1.5h-1.7v1.11a1.033 1.033 0 0 1-2.067-.01v-1.1h-2.2v1.11a1.033 1.033 0 0 1-2.066-.01v-1.1h-2.2v1.11a1.033 1.033 0 0 1-2.067-.01v-1.1H9A1.5 1.5 0 0 1 7.5 23v-1.7H6.4a1.033 1.033 0 1 1 0-2.067h1.1v-2.2H6.4a1.033 1.033 0 1 1 0-2.066h1.1v-2.2H6.4a1.033 1.033 0 0 1 0-2.067h1.1V9A1.5 1.5 0 0 1 9 7.5h1.7V6.4a1.033 1.033 0 1 1 2.067 0v1.1h2.2V6.4a1.033 1.033 0 1 1 2.066 0v1.1h2.2V6.4c0-.57.463-1.033 1.034-1.033zm.032 19.132h-.066v1.091a.033.033 0 0 0 .057.023c.006-.006.01-.014.01-.013v-1.1zm-8.533 0H11.7v1.091a.033.033 0 0 0 .058.023c.006-.006.01-.014.01-.013v-1.1zm4.267 0h-.067v1.091a.033.033 0 0 0 .057.023c.007-.006.01-.014.01-.013v-1.1zM23 8.5H9a.5.5 0 0 0-.5.5v14a.5.5 0 0 0 .5.5h14a.5.5 0 0 0 .5-.5V9a.5.5 0 0 0-.5-.5zM2.75 20.25v3h-1v-3h1zm28 0v3h-1v-3h1zm-5.15-.017h-1.1v.066l1.1.001a.033.033 0 1 0 0-.067zm-18.1 0H6.4a.033.033 0 0 0 0 .067h1.1v-.067zm11.233-8.466a1.5 1.5 0 0 1 1.5 1.5v5.466a1.5 1.5 0 0 1-1.5 1.5h-5.466a1.5 1.5 0 0 1-1.5-1.5v-5.466a1.5 1.5 0 0 1 1.5-1.5h5.466zM2.75 16.25v3h-1v-3h1zm28 0v3h-1v-3h1zm-12.017-3.483h-5.466a.5.5 0 0 0-.5.5v5.466a.5.5 0 0 0 .5.5h5.466a.5.5 0 0 0 .5-.5v-5.466a.5.5 0 0 0-.5-.5zm6.867 3.2h-1.1v.066h1.1a.033.033 0 1 0 0-.066zm-18.1 0H6.4a.033.033 0 1 0 0 .066h1.1v-.067zm23.25-3.717v3h-1v-3h1zm-28 0v3h-1v-3h1zm22.85-.55h-1.1v.066h1.1a.033.033 0 0 0 0-.066zm-18.1 0H6.4a.033.033 0 1 0 0 .067h1.1v-.068zm23.25-3.45v3h-1v-3h1zm-28 0v3h-1v-3h1zm17.517-1.883a.033.033 0 0 0-.034.033v1.1h.066l.001-1.1a.033.033 0 0 0-.033-.033zm-4.267 0a.033.033 0 0 0-.033.033v1.1h.066V6.4A.033.033 0 0 0 16 6.367zm-4.267 0a.033.033 0 0 0-.033.033v1.1h.066V6.4a.033.033 0 0 0-.033-.033zm17.6-6.334a2.633 2.633 0 0 1 1.418 4.853L30.75 7.25h-1V5.267A2.634 2.634 0 0 1 26.72 3H24.5V2h2.285A2.634 2.634 0 0 1 29.333.033zm-26.666 0C3.89.033 4.92.868 5.215 2H7.5v1H5.28a2.634 2.634 0 0 1-2.53 2.299V7.25h-1V5.136A2.634 2.634 0 0 1 2.666.033zm26.666 1a1.633 1.633 0 1 0 0 3.267 1.633 1.633 0 0 0 0-3.267zm-26.666 0a1.633 1.633 0 0 0-.404 3.217h.487v.045l.058-.001a1.633 1.633 0 0 0-.141-3.26zM11.5 2v1h-3V2h3zm4 0v1h-3V2h3zm4 0v1h-3V2h3zm4 0v1h-3V2h3z"/>
</svg>
