<svg xmlns="http://www.w3.org/2000/svg" width="32" height="32" viewBox="0 0 32 32">
    <path fill="#0050D7" fill-rule="evenodd" d="M30.5 2A1.5 1.5 0 0 1 32 3.5v19a1.5 1.5 0 0 1-1.5 1.5h-9.665l1.366 5H23.5a.5.5 0 1 1 0 1h-15a.5.5 0 1 1 0-1h1.298l1.366-5H1.5A1.5 1.5 0 0 1 0 22.5v-19A1.5 1.5 0 0 1 1.5 2h29zM19.798 24h-7.597l-1.367 5h10.331l-1.367-5zM31 19H1v3.5a.5.5 0 0 0 .5.5h29a.5.5 0 0 0 .5-.5V19zm-.5-16h-29a.5.5 0 0 0-.5.5V18h30V3.5a.5.5 0 0 0-.5-.5zm-17 3a.5.5 0 0 1 .354.146l.853.854H21.5a.5.5 0 0 1 .5.5v7a.5.5 0 0 1-.5.5h-11a.5.5 0 0 1-.5-.5v-8a.5.5 0 0 1 .5-.5h3zm-.207 1H11v7h10V8h-6.5a.5.5 0 0 1-.354-.146L13.293 7z"/>
</svg>
