<svg xmlns="http://www.w3.org/2000/svg" width="32" height="32" viewBox="0 0 32 32">
    <path fill="#0050D7" fill-rule="evenodd" d="M30.5 2A1.5 1.5 0 0 1 32 3.5v19a1.5 1.5 0 0 1-1.5 1.5h-9.665l1.366 5H23.5a.5.5 0 1 1 0 1h-15a.5.5 0 1 1 0-1h1.298l1.366-5H1.5A1.5 1.5 0 0 1 0 22.5v-19A1.5 1.5 0 0 1 1.5 2h29zM19.798 24h-7.597l-1.367 5h10.331l-1.367-5zM31 19H1v3.5a.5.5 0 0 0 .5.5h29a.5.5 0 0 0 .5-.5V19zm-.5-16h-29a.5.5 0 0 0-.5.5V18h30V3.5a.5.5 0 0 0-.5-.5zm-5.01 2a1.5 1.5 0 1 1-.446 2.93l-3.22 3.864a1.5 1.5 0 1 1-2.824.732l-4.417-1.989a1.496 1.496 0 0 1-1.729.317L8.857 14.86a1.5 1.5 0 1 1-.706-.711l3.996-4.001A1.5 1.5 0 1 1 15 9.5l-.006.125 4.326 1.949a1.497 1.497 0 0 1 1.764-.456l3.162-3.795A1.5 1.5 0 0 1 25.49 5z"/>
</svg>
