<?xml version="1.0" encoding="UTF-8"?>
<svg width="12px" height="14px" viewBox="0 0 12 14" version="1.1" xmlns="http://www.w3.org/2000/svg" xmlns:xlink="http://www.w3.org/1999/xlink">
    <!-- Generator: Sketch 46.1 (44463) - http://www.bohemiancoding.com/sketch -->
    <title>Copy</title>
    <desc>Created with Sketch.</desc>
    <defs></defs>
    <g id="Page-v2" stroke="none" stroke-width="1" fill="none" fill-rule="evenodd">
        <g id="Artboard-3" transform="translate(-453.000000, -502.000000)">
            <g id="Group-5" transform="translate(75.000000, 469.000000)">
                <g id="Copy" transform="translate(378.000000, 33.000000)">
                    <rect id="Combined-Shape" fill="#00A0BF" x="0" y="2" width="10" height="12"></rect>
                    <path d="M2,0 L12,0 L12,12 L11,12 L11,1 L2,1" id="Combined-Shape-Copy" fill="#00A0BF"></path>
                    <path d="M8.40011175,5.1560284 C8.21343453,4.95809581 7.89633899,4.9467131 7.69559705,5.13199824 L7.35612582,5.44502263 C6.68165848,6.06664481 6.00846976,6.68763461 5.33528104,7.30862441 L4.00552553,8.53542707 C3.88405748,8.64672463 3.76258943,8.75928693 3.64112138,8.87121687 C3.20767223,8.41211443 2.77678031,7.95554148 2.34397046,7.49707141 C2.15729325,7.29850645 1.84083701,7.28775611 1.64009507,7.47304126 L1.5512316,7.55524968 C1.42017397,7.6766652 1.28847703,7.79744835 1.1580587,7.91759913 C0.957316767,8.10288427 0.946448573,8.41590866 1.13312579,8.61447363 L2.81002419,10.3927051 C2.95195002,10.5432098 3.09387585,10.6937144 3.23580168,10.8442191 C3.42247889,11.0421517 3.73957443,11.052902 3.93967706,10.8682492 L6.02317379,8.94710157 C6.96295292,8.08075124 7.90209274,7.2144009 8.84251118,6.3474182 C9.04261381,6.16276543 9.053482,5.84910866 8.86680479,5.65117607 L8.40011175,5.1560284 Z" id="Fill-1" fill="#FFFFFF"></path>
                </g>
            </g>
        </g>
    </g>
</svg>