<?xml version="1.0" encoding="UTF-8"?>
<svg width="12px" height="14px" viewBox="0 0 12 14" version="1.1" xmlns="http://www.w3.org/2000/svg" xmlns:xlink="http://www.w3.org/1999/xlink">
    <!-- Generator: Sketch 46.1 (44463) - http://www.bohemiancoding.com/sketch -->
    <title>Group</title>
    <desc>Created with Sketch.</desc>
    <defs></defs>
    <g id="Page-v2" stroke="none" stroke-width="1" fill="none" fill-rule="evenodd">
        <g id="Artboard-3" transform="translate(-453.000000, -364.000000)" fill="#00A0BF">
            <g id="Group" transform="translate(453.000000, 364.000000)">
                <polygon id="Combined-Shape" fill-opacity="0.110000014" points="2 2 1 2 1 13.5145425 8.97160631 13.5145425 8.97160631 11.5145425 10.9716063 11.5145425 10.9716063 1 2 1"></polygon>
                <g id="Copy">
                    <path d="M-0.000244140625,2 L10,2 L10,14 L-0.000244140625,14 L-0.000244140625,2 Z M1,3 L1,13 L9,13 L9,3 L1,3 Z" id="Combined-Shape"></path>
                    <path d="M2,0 L12,0 L12,12 L2,12 L2,0 Z M2,1 L2,12 L11,12 L11,1 L2,1 Z" id="Combined-Shape-Copy"></path>
                </g>
            </g>
        </g>
    </g>
</svg>