<?xml version="1.0" encoding="UTF-8"?>
<svg width="12px" height="14px" viewBox="0 0 12 14" version="1.1" xmlns="http://www.w3.org/2000/svg" xmlns:xlink="http://www.w3.org/1999/xlink">
    <!-- Generator: Sketch 46.1 (44463) - http://www.bohemiancoding.com/sketch -->
    <title>Copy</title>
    <desc>Created with Sketch.</desc>
    <defs></defs>
    <g id="Page-v2" stroke="none" stroke-width="1" fill="none" fill-rule="evenodd">
        <g id="Artboard-3" transform="translate(-453.000000, -582.000000)">
            <g id="Group-5-Copy-2" transform="translate(75.000000, 549.000000)">
                <g id="Copy" transform="translate(378.000000, 33.000000)">
                    <rect id="Combined-Shape" fill="#E36947" x="0" y="2" width="10.0002441" height="12"></rect>
                    <path d="M2,0 L12,0 L12,12 L2,12 L2,0 Z M2,1 L2,12 L11,12 L11,1 L2,1 Z" id="Combined-Shape-Copy" fill="#E36947"></path>
                    <path d="M2.14438423,6.38451598 L3.41003331,7.64975681 L3.41003331,7.65015456 L3.76005569,8.00017403 L3.41003331,8.35019351 L2.14438423,9.61583209 C1.95187192,9.8083428 1.95187192,10.1233603 2.14438423,10.315871 L2.41445831,10.5859429 L2.68373689,10.855617 C2.87664694,11.0481277 3.19166708,11.0481277 3.38417939,10.855617 L5.0002486,9.23995891 L5.35027097,9.59037613 L6.6155223,10.855617 C6.80843236,11.0481277 7.12345249,11.0481277 7.3159648,10.855617 L7.58564113,10.5859429 L7.85531746,10.315871 C8.04822751,10.1233603 8.04822751,9.8083428 7.85531746,9.61583209 L6.24004375,8.00017403 L7.85531746,6.38451598 C8.04822751,6.19200527 8.04822751,5.87698774 7.85531746,5.68407929 L7.3159648,5.14433335 C7.12345249,4.95182264 6.80843236,4.95182264 6.6155223,5.1447311 L5.35027097,6.40997194 L5.35027097,6.40997194 L5.0002486,6.75999141 L3.38417939,5.14433335 C3.19166708,4.95182264 2.87664694,4.95182264 2.68373689,5.1447311 L2.14438423,5.68407929 C1.95187192,5.87698774 1.95187192,6.19200527 2.14438423,6.38451598" id="Fill-4" fill="#FFFFFF"></path>
                </g>
            </g>
        </g>
    </g>
</svg>