<svg xmlns="http://www.w3.org/2000/svg" width="32" height="32" viewBox="0 0 32 32">
    <path fill="#0050D7" fill-rule="evenodd" d="M21.334.033a10.633 10.633 0 0 1 10.363 12.99l-.063-.153a3.7 3.7 0 0 1 .333 1.53v13.867a3.7 3.7 0 0 1-3.7 3.7H3.733a3.7 3.7 0 0 1-3.7-3.7V14.4a3.7 3.7 0 0 1 3.7-3.7h6.96a10.627 10.627 0 0 1 3.092-7.53l-2.584.007a.5.5 0 0 1-.002-1l4.266-.01a.5.5 0 0 1 .502.5l-.011 4.268a.5.5 0 0 1-1-.003l.009-3.51a.503.503 0 0 1-.06.065A9.633 9.633 0 0 0 21.2 20.3h.316a9.633 9.633 0 0 0 9.284-11.376c-.84-4.57-4.822-7.888-9.45-7.891l-.62.021a.5.5 0 0 1-.034-.999l.637-.022zm9.633 15.123a10.62 10.62 0 0 1-5.848 5.445c-1.29.492-2.625.718-3.939.7l-20.147-.002v6.968a2.7 2.7 0 0 0 2.7 2.7h24.534a2.7 2.7 0 0 0 2.7-2.7V15.156zM4.8 25.633a.5.5 0 0 1 .5.5v2.134a.5.5 0 0 1-1 0v-2.134a.5.5 0 0 1 .5-.5zm4.267 0a.5.5 0 0 1 .5.5v2.134a.5.5 0 0 1-1 0v-2.134a.5.5 0 0 1 .5-.5zm4.266 0a.5.5 0 0 1 .5.5v2.134a.5.5 0 0 1-1 0v-2.134a.5.5 0 0 1 .5-.5zm-1.223-9.667H1.033V20.3l15.792.001a10.605 10.605 0 0 1-4.578-4.1l-.137-.234zM10.743 11.7h-7.01a2.7 2.7 0 0 0-2.7 2.7v.566l10.569.001a10.59 10.59 0 0 1-.859-3.267zM20.8 4.3a.5.5 0 0 1 .5.5v5.9h3.767a.5.5 0 0 1 0 1H20.8a.5.5 0 0 1-.5-.5V4.8a.5.5 0 0 1 .5-.5z"/>
</svg>
