<svg xmlns="http://www.w3.org/2000/svg" width="32" height="32" viewBox="0 0 32 32">
    <path fill="#0050D7" fill-rule="evenodd" d="M16 0c8.865 0 15.752 1.507 15.962 3.888l.005.112v24c0 2.392-7.092 4-15.967 4C7.093 32 .033 30.405.033 28V4c0-2.405 7.06-4 15.967-4zm14.968 21.474C28.716 23.029 22.896 24 16 24c-6.916 0-12.719-.962-14.967-2.518V28c0 1.469 6.78 3 14.967 3 8.158 0 14.967-1.544 14.967-3v-6.526zm0-8C28.716 15.029 22.896 16 16 16c-6.916 0-12.719-.962-14.967-2.518V20c0 1.469 6.78 3 14.967 3 8.158 0 14.967-1.544 14.967-3v-6.526zM16 8C9.084 8 3.281 7.038 1.033 5.482V12c0 1.469 6.78 3 14.967 3 8.158 0 14.967-1.544 14.967-3V5.474C28.717 7.029 22.898 8 16 8zm0-7C7.813 1 1.033 2.531 1.033 4S7.813 7 16 7c8.158 0 14.967-1.544 14.967-3 0-1.507-6.69-3-14.967-3z"/>
</svg>
