<svg xmlns="http://www.w3.org/2000/svg" width="32" height="32" viewBox="0 0 32 32">
    <path fill="#0050D7" fill-rule="evenodd" d="M23.618 9.772c2.058.5 3.281 1.166 3.376 2.106l.006.119v17.995c0 1.833-4.89 2.999-11 2.999-6.14 0-11-1.152-11-3V11.998C5 11 6.251 10.29 8.382 9.772a.5.5 0 0 1 .236.971C6.944 11.15 6 11.687 6 11.997c0 .33.968.873 2.702 1.284 1.915.454 4.521.715 7.298.715 2.769 0 5.376-.264 7.298-.722 1.73-.412 2.702-.956 2.702-1.277 0-.316-.934-.844-2.618-1.254a.5.5 0 1 1 .236-.971zm2.384 15.558C24.27 26.382 20.466 27.002 16 27.002c-4.474 0-8.271-.616-10-1.667v4.657c0 .33.968.873 2.702 1.284 1.915.454 4.521.715 7.298.715 2.769 0 5.376-.264 7.298-.722 1.73-.413 2.702-.956 2.702-1.277l.002-4.662zm0-5.998C24.27 20.383 20.466 21.004 16 21.004c-4.474 0-8.271-.616-10-1.667v4.656c0 .332.967.877 2.698 1.29 1.917.457 4.523.72 7.302.72 2.775 0 5.382-.265 7.301-.724 1.73-.413 2.699-.959 2.699-1.286l.002-4.661zM16 14.996c-4.476 0-8.272-.612-10-1.66v4.66c0 .33.967.876 2.698 1.289 1.917.456 4.523.72 7.302.72 2.775 0 5.382-.265 7.301-.724 1.73-.414 2.699-.96 2.699-1.286l.002-4.668c-1.733 1.048-5.543 1.669-10.002 1.669zM16 1c2 0 3.37 1.53 3.37 3.999 0 2.27-1.11 3.779-2.78 4.069a2 2 0 0 0 1.93 1 3 3 0 0 0 .81-.07l.19.8c-.365.119-.746.18-1.13.18a3 3 0 0 1-2.9-1.86c-1.71-.24-2.87-1.76-2.87-4.12C12.62 2.52 14 1 16 1zM9 1a3.21 3.21 0 0 1 2.35 1l-.53.65A2.53 2.53 0 0 0 9 1.88c-.85 0-1.44.44-1.44 1.12 0 .68.7 1 1.31 1.309l1.13.5a2.19 2.19 0 0 1 1.62 2.1c0 1.249-1 2.239-2.69 2.239a3.79 3.79 0 0 1-2.75-1.15l.6-.7a3.06 3.06 0 0 0 2.22.98c1 0 1.64-.52 1.64-1.28s-.64-1.06-1.36-1.39l-1.13-.5a2.23 2.23 0 0 1-1.6-1.999A2.25 2.25 0 0 1 9 1zm13.01.14v7.018h3.43v.85H21V1.14h1.01zM16 1.88c-1.39 0-2.34 1.21-2.34 3.119 0 1.91.92 3.279 2.34 3.279 1.4 0 2.33-1.27 2.33-3.24 0-1.969-.94-3.158-2.33-3.158z"/>
</svg>
