<svg xmlns="http://www.w3.org/2000/svg" width="32" height="32" viewBox="0 0 32 32">
    <path fill="#0050D7" fill-rule="evenodd" d="M25.86 12.611c1.288.704 2.052 1.554 2.133 2.51l.007.169v11.99C28 29.975 22.546 32 16 32S4 29.975 4 27.28V15.29c0-1.027.78-1.937 2.143-2.67a.5.5 0 1 1 .474.88C5.544 14.078 5 14.712 5 15.29 5 17.16 9.972 19 16 19s11-1.84 11-3.71c0-.577-.543-1.213-1.62-1.801a.5.5 0 0 1 .48-.878zM5 23.2v4.08C5 29.153 9.976 31 16 31s11-1.847 11-3.72l.001-4.076C25.137 24.884 20.873 26 16 26c-4.867 0-9.135-1.12-11-2.8zM27 17.204C25.137 18.884 20.873 20 16 20c-4.873 0-9.136-1.115-11-2.795v4.085C5 23.154 9.98 25 16 25c6.028 0 11-1.84 11-3.71l.001-4.086zM18.8.1a.5.5 0 0 1 .1.7L16 4.666v2.47l2.133-1.232 1.908-4.441a.5.5 0 1 1 .918.394L19.581 5.07l2.169-1.252a.5.5 0 1 1 .5.866l-2.162 1.248 3.47.412a.5.5 0 1 1-.117.994l-4.799-.571L16.505 8l2.137 1.234 4.799-.57a.5.5 0 1 1 .118.992l-3.471.413 2.162 1.248a.5.5 0 1 1-.5.866l-2.159-1.246 1.369 3.207a.5.5 0 1 1-.92.392l-1.894-4.433L16 8.864v2.457l2.9 3.88a.5.5 0 1 1-.8.598L16 12.991V15.5a.5.5 0 1 1-1 0v-2.487L12.91 15.8a.5.5 0 0 1-.8-.6L15 11.345V8.869l-2.125 1.227-1.906 4.441a.5.5 0 0 1-.918-.394l1.377-3.212-2.168 1.252a.5.5 0 1 1-.5-.866l2.162-1.249-3.47-.411a.5.5 0 1 1 .117-.994l4.8.57L14.504 8l-2.138-1.235-4.797.571a.5.5 0 1 1-.118-.992l3.468-.414L8.76 4.683a.5.5 0 0 1 .5-.866l2.159 1.247-1.369-3.208a.5.5 0 0 1 .92-.392l1.893 4.433L15 7.131V4.666L12.11.799a.5.5 0 0 1 .8-.598L15 2.996V.5a.5.5 0 1 1 1 0v2.499L18.1.2a.5.5 0 0 1 .7-.1z"/>
</svg>
