<?xml version="1.0" encoding="utf-8"?>
<!-- Generator: Adobe Illustrator 23.0.1, SVG Export Plug-In . SVG Version: 6.00 Build 0)  -->
<svg version="1.1" id="Calque_1" xmlns="http://www.w3.org/2000/svg" xmlns:xlink="http://www.w3.org/1999/xlink" x="0px" y="0px"
	 viewBox="0 0 80 80" style="enable-background:new 0 0 80 80;" xml:space="preserve">
<style type="text/css">
	.st0{fill:#162843;}
</style>
<title>dnsAnycast</title>
<g id="b73cc087-caa6-4e33-a014-11db533b550d">
	<circle class="st0" cx="28" cy="44" r="1.3"/>
	<path class="st0" d="M26.6,53.6h4.5c2.3-0.1,4.5,0.7,6.1,2.3c1.6,1.9,2.4,4.3,2.2,6.7c0,1.3-0.2,2.7-0.6,4c-0.3,1-0.9,1.9-1.6,2.7
		c-0.7,0.8-1.6,1.4-2.7,1.7c-1.1,0.4-2.2,0.6-3.4,0.6h-4.6V53.6z M31,69.1c1.5,0.1,3-0.5,4-1.6c1-1.4,1.5-3.2,1.4-4.9
		c0.1-1.7-0.4-3.5-1.4-4.8c-1-1.1-2.5-1.6-4-1.5h-1.3v12.9H31z"/>
	<path class="st0" d="M43.4,53.6h3.1l5.3,10.1l1.7,3.8l0,0c0-0.9-0.2-1.9-0.2-3c-0.1-1.1-0.2-2.1-0.2-3.1v-7.8H56v18h-3l-5.3-10.1
		L46,57.7l0,0c0,1,0.2,2,0.2,3c0.1,1,0.2,2,0.2,3.1v8h-3V53.6z"/>
	<path class="st0" d="M61.5,67.2c0.6,0.6,1.3,1.1,2.1,1.5c0.7,0.4,1.5,0.6,2.3,0.6c0.8,0.1,1.6-0.2,2.2-0.6c0.5-0.4,0.8-1,0.7-1.7
		c0-0.3-0.1-0.6-0.2-0.9c-0.1-0.3-0.3-0.5-0.5-0.7c-0.3-0.2-0.6-0.4-0.9-0.6l-1-0.5L64,63.2c-0.4-0.2-0.8-0.4-1.2-0.7
		c-0.4-0.3-0.8-0.6-1.1-1c-0.3-0.4-0.6-0.9-0.8-1.4c-0.2-0.6-0.3-1.2-0.3-1.8c0-0.7,0.1-1.4,0.4-2c0.3-0.6,0.7-1.2,1.2-1.6
		c0.5-0.5,1.1-0.8,1.8-1.1c0.7-0.3,1.5-0.4,2.3-0.4c1,0,2,0.2,2.9,0.6c0.9,0.4,1.7,1,2.4,1.7l-1.5,2c-0.5-0.5-1.1-0.8-1.7-1.1
		c-0.6-0.3-1.3-0.4-2-0.4c-0.7,0-1.4,0.2-1.9,0.6c-0.5,0.4-0.7,0.9-0.7,1.5c0,0.3,0.1,0.6,0.2,0.9c0.2,0.3,0.4,0.5,0.6,0.7
		c0.3,0.2,0.6,0.4,0.9,0.5l1,0.5l2.3,1c0.5,0.2,0.9,0.5,1.4,0.8c0.4,0.3,0.8,0.6,1.1,1c0.3,0.4,0.5,0.9,0.7,1.3
		c0.2,0.6,0.2,1.2,0.2,1.8c0,0.7-0.1,1.4-0.4,2.1c-0.3,0.6-0.7,1.2-1.2,1.7c-0.6,0.5-1.2,0.9-1.9,1.1c-0.9,0.3-1.8,0.5-2.7,0.4
		c-1.1,0-2.3-0.2-3.3-0.7c-1-0.5-1.9-1.1-2.7-1.9L61.5,67.2z"/>
	<circle class="st0" cx="33.3" cy="44" r="1.3"/>
	<circle class="st0" cx="38.6" cy="44" r="1.3"/>
	<path class="st0" d="M76,34.6h-4C71.2,14.8,54.5-0.7,34.6,0S-0.7,17.5,0,37.4c0.5,12.6,7.5,24,18.6,30.1V76c0,2.2,1.8,4,4,4H76
		c2.2,0,4-1.8,4-4V38.6C80,36.4,78.2,34.6,76,34.6z M22.6,34.6h-4.9c0.1-4.5,0.7-9,1.8-13.3h15.1v13.3H22.6z M2.6,37.3h12.5
		c0.1,4.5,0.7,9,1.8,13.3H6C4,46.5,2.8,41.9,2.6,37.3z M6,21.3h10.8c-1.1,4.4-1.7,8.8-1.8,13.3H2.6C2.8,30,4,25.4,6,21.3z
		 M18.6,38.6v7.8c-0.5-3-0.8-6.1-0.9-9.1h1.1C18.7,37.7,18.6,38.2,18.6,38.6z M51.6,18.6H37.3V2.7C43.3,3.5,48.6,9.7,51.6,18.6z
		 M34.6,2.7v15.9H20.4C23.4,9.7,28.6,3.5,34.6,2.7z M37.3,21.4h15.1c1.1,4.4,1.8,8.8,1.8,13.3H37.3V21.4z M56.9,34.8
		c-0.1-4.5-0.7-9-1.8-13.3h10.8c2.1,4.1,3.2,8.6,3.4,13.2L56.9,34.8z M64.4,18.8H54.3c-1.6-5.5-4.5-10.6-8.6-14.6
		c7.8,2.4,14.5,7.5,18.8,14.4V18.8z M26.3,4c-4.1,4-7.1,9-8.6,14.6H7.5C11.8,11.6,18.5,6.4,26.3,4z M7.5,53.3h10.2
		c0.3,1,0.6,2,1,2.9v8.2C14.1,61.7,10.2,57.9,7.5,53.3z M77.3,76c0,0.7-0.6,1.3-1.3,1.3H22.6c-0.7,0-1.3-0.6-1.3-1.3V56l0,0V38.6
		c0-0.7,0.6-1.3,1.3-1.3H76c0.7,0,1.3,0.6,1.3,1.3V76z"/>
</g>
</svg>
