<svg xmlns="http://www.w3.org/2000/svg" width="32" height="32" viewBox="0 0 32 32">
    <path fill="#0050D7" fill-rule="evenodd" d="M9.56 20.3a2.89 2.89 0 0 1 2 .83l-.6.74a2.11 2.11 0 0 0-1.42-.56c-.62 0-1 .29-1 .77 0 .48.5.7 1 .92l.88.37a1.82 1.82 0 0 1 1.32 1.77 2.08 2.08 0 0 1-2.35 1.94 3.36 3.36 0 0 1-2.35-1l.69-.71a2.61 2.61 0 0 0 1.71.74c.73 0 1.14-.33 1.14-.84s-.42-.71-1-1l-.89-.39a1.87 1.87 0 0 1-1.32-1.74 2 2 0 0 1 2.19-1.84zm-4.184 1.009A2.89 2.89 0 0 1 6.18 23.7C6.18 25.87 5 27 3 27H1.25v-6.54H3a2.89 2.89 0 0 1 2.376.849zm8.894-.849v5.56h2.71V27h-3.87v-6.54h1.16zm6.98 0L23.38 27h-1.23l-.51-1.77h-2.19L18.94 27h-1.19l2.14-6.54h1.36zm4.44 0l1.18 3.22.43 1.24.43-1.24 1.15-3.22h1.28V27H29.1v-3c0-.508.063-1.197.118-1.76l.032-.32-.53 1.49-1.13 3H27l-1.13-3-.52-1.49c.05.6.14 1.47.14 2.08v3h-1.07v-6.54h1.27zm-22.77.94h-.5v4.66h.49c1.32 0 2.09-.75 2.09-2.36 0-1.61-.76-2.3-2.08-2.3zm17.64-.04c-.18.73-.37 1.47-.58 2.16l-.23.8h1.63l-.23-.8c-.133-.46-.267-.947-.397-1.433l-.193-.727zM30.5 5A1.5 1.5 0 0 1 32 6.5v7a1.5 1.5 0 0 1-1.5 1.5h-29A1.5 1.5 0 0 1 0 13.5v-7A1.5 1.5 0 0 1 1.5 5h29zm0 1h-29a.5.5 0 0 0-.5.5v7a.5.5 0 0 0 .5.5h29a.5.5 0 0 0 .5-.5v-7a.5.5 0 0 0-.5-.5zM4 9a1 1 0 1 1 0 2 1 1 0 0 1 0-2zm4 0a1 1 0 1 1 0 2 1 1 0 0 1 0-2zm4 0a1 1 0 1 1 0 2 1 1 0 0 1 0-2zm8 0a1 1 0 1 1 0 2 1 1 0 0 1 0-2zm4 0a1 1 0 1 1 0 2 1 1 0 0 1 0-2zm4 0a1 1 0 1 1 0 2 1 1 0 0 1 0-2zM16 9a1 1 0 1 1 0 2 1 1 0 0 1 0-2z"/>
</svg>
