<?xml version="1.0" encoding="utf-8"?>
<!-- Generator: Adobe Illustrator 21.0.0, SVG Export Plug-In . SVG Version: 6.00 Build 0)  -->
<svg version="1.1" id="Calque_1" xmlns="http://www.w3.org/2000/svg" xmlns:xlink="http://www.w3.org/1999/xlink" x="0px" y="0px"
	 viewBox="0 0 64 64" style="enable-background:new 0 0 64 64;" xml:space="preserve">
<path d="M9.1,19.1l13,13l-13,13c-1.4,1.6-1.4,4,0,5.7l2.1,2.1l2.1,2.1c1.7,1.4,4.1,1.4,5.7,0l13-13l13,13c1.7,1.4,4.1,1.4,5.7,0
	l2.1-2.1l2.1-2.1c1.4-1.6,1.4-4,0-5.7l-13-13l13-13c1.4-1.6,1.4-4,0-5.7l-4.4-4.3c-1.7-1.4-4.1-1.4-5.7,0l-13,13l-13-12.9
	c-1.7-1.4-4.1-1.4-5.7,0l-4.4,4.3C7.7,15.1,7.7,17.7,9.1,19.1z"/>
</svg>
