<?xml version="1.0" encoding="utf-8"?>
<!-- Generator: Adobe Illustrator 21.0.0, SVG Export Plug-In . SVG Version: 6.00 Build 0)  -->
<svg version="1.1" id="Calque_1" xmlns="http://www.w3.org/2000/svg" xmlns:xlink="http://www.w3.org/1999/xlink" x="0px" y="0px"
	 viewBox="0 0 64 64" style="enable-background:new 0 0 64 64;" xml:space="preserve">
<path d="M32,0c17.7,0,32,14.3,32,32S49.7,64,32,64S0,49.7,0,32S14.3,0,32,0z M17.9,24l8,8l-8,8c-0.9,1-0.9,2.5,0,3.5l1.3,1.3
	l1.3,1.3c1,0.9,2.5,0.9,3.5,0l8-8l8,8c1,0.9,2.5,0.9,3.5,0l1.3-1.3l1.3-1.3c0.9-1,0.9-2.5,0-3.5l-8-8l8-8c0.9-1,0.9-2.5,0-3.5
	l-2.7-2.7c-1-0.9-2.5-0.9-3.5,0l-8,8l-8-8c-1-0.9-2.5-0.9-3.5,0l-2.7,2.7C17,21.5,17,23.1,17.9,24z"/>
</svg>
