<svg xmlns="http://www.w3.org/2000/svg" width="32" height="32" viewBox="0 0 32 32">
    <path fill="#0050D7" fill-rule="evenodd" d="M30.467.033a1.5 1.5 0 0 1 1.5 1.5v28.934a1.5 1.5 0 0 1-1.5 1.5H1.533a1.5 1.5 0 0 1-1.5-1.5V1.533a1.5 1.5 0 0 1 1.5-1.5h28.934zm0 1H1.533a.5.5 0 0 0-.5.5v28.934a.5.5 0 0 0 .5.5h28.934a.5.5 0 0 0 .5-.5V1.533a.5.5 0 0 0-.5-.5zm-8.6 5.4a.5.5 0 0 1 .5.5v5.9H27.2a.5.5 0 0 1 .5.5v6.157a5.833 5.833 0 1 1-9.32 6.077H4.8a.5.5 0 0 1-.5-.5V13.333a.5.5 0 0 1 .5-.5h4.833v-5.9a.5.5 0 0 1 .5-.5h11.734zM24 19.167a4.833 4.833 0 1 0 0 9.666 4.833 4.833 0 0 0 0-9.666zm0 2.2a.5.5 0 0 1 .5.5v1.632l1.633.001a.5.5 0 1 1 0 1H24.5l.001 1.633a.5.5 0 1 1-1 0V24.5l-1.633.001a.5.5 0 1 1 0-1h1.632l.001-1.633a.5.5 0 0 1 .5-.5zM21.367 7.433H10.633v5.9a.5.5 0 0 1-.5.5H5.3v10.734h2.2V20.8a.5.5 0 1 1 1 0v3.766h2.2V20.8a.5.5 0 1 1 1 0v3.766h2.2V20.8a.5.5 0 1 1 1 0v3.766h2.2V20.8a.5.5 0 1 1 1 0v3.766h.094a5.833 5.833 0 0 1 8.506-5.74v-4.993h-4.833a.5.5 0 0 1-.5-.5v-5.9z"/>
</svg>
