<svg width="14" height="14" viewBox="0 0 14 14">
  <path fill="#7991A3" d="M16,4.70710678 L9.85355339,10.8535534 C9.65829124,11.0488155 9.34170876,11.0488155 9.14644661,10.8535534 C8.95118446,10.6582912 8.95118446,10.3417088 9.14644661,10.1464466 L15.2928664,4.00002683 L12.0001111,4.0001 C11.7239687,4.00010614 11.5001061,3.77625349 11.5001,3.50011111 C11.5000939,3.22396874 11.7239465,3.00010614 12.0000889,3.0001 L16.4999889,3 C16.7761356,2.99999386 17,3.22385329 17,3.5 L17,8.0001 C17,8.27624237 16.7761424,8.5001 16.5,8.5001 C16.2238576,8.5001 16,8.27624237 16,8.0001 L16,4.70710678 Z M4,16 L15,16 L15,12.0001 C15,11.7239576 15.2238576,11.5001 15.5,11.5001 C15.7761424,11.5001 16,11.7239576 16,12.0001 L16,16.5 C16,16.7761424 15.7761424,17 15.5,17 L3.5,17 C3.22385763,17 3,16.7761424 3,16.5 L3,4.5 C3,4.22385762 3.22385763,4 3.5,4 L8.0001,4 C8.27624237,4 8.5001,4.22385762 8.5001,4.5 C8.5001,4.77614237 8.27624237,5 8.0001,5 L4,5 L4,16 Z" transform="translate(-3 -3)"/>
</svg>
