<?xml version="1.0" encoding="utf-8"?>
<!-- Generator: Adobe Illustrator 21.0.0, SVG Export Plug-In . SVG Version: 6.00 Build 0)  -->
<svg version="1.1" id="Calque_1" xmlns="http://www.w3.org/2000/svg" xmlns:xlink="http://www.w3.org/1999/xlink" x="0px" y="0px"
	 viewBox="0 0 64 64" style="enable-background:new 0 0 64 64;" xml:space="preserve">
<path d="M59.1,2.9c-1.2-1.2-3.1-1.2-4.2,0L42.2,15.5C39,14.5,35.6,14,32,14C18,14,5.9,22.1,0,34c2.6,5.1,6.3,9.6,10.8,12.9l-9.9,9.9
	c-1.2,1.2-1.2,3.1,0,4.2C1.5,61.7,2.2,62,3,62s1.5-0.3,2.1-0.9l54-54C60.3,6,60.3,4.1,59.1,2.9L59.1,2.9z M26,22
	c2.6,0,4.9,1.7,5.7,4.1l-7.6,7.6c-2.4-0.8-4.1-3-4.1-5.7C20,24.7,22.7,22,26,22z M6.9,34c2.4-3.8,5.6-7,9.3-9.4
	c0.2-0.2,0.5-0.3,0.7-0.5c-0.6,1.7-1,3.6-1,5.5c0,3.4,1.1,6.6,2.9,9.2l-3.8,3.8C11.8,40.3,9,37.4,6.9,34z"/>
<path d="M48,29.6c0-1.7-0.3-3.3-0.8-4.9L27.1,44.9c1.5,0.5,3.2,0.8,4.9,0.8C40.8,45.6,48,38.5,48,29.6z"/>
<path d="M51.9,20.1l-4.3,4.3c0.1,0,0.2,0.1,0.2,0.1c3.8,2.4,6.9,5.6,9.3,9.4c-2.4,3.8-5.6,7-9.3,9.4C43.1,46.4,37.6,48,32,48
	c-2.4,0-4.8-0.3-7.1-0.9l-4.8,4.8C23.8,53.3,27.8,54,32,54c14,0,26.1-8.1,32-20C61.2,28.4,57,23.6,51.9,20.1z"/>
</svg>
