<?xml version="1.0" encoding="utf-8"?>
<!-- Generator: Adobe Illustrator 21.0.0, SVG Export Plug-In . SVG Version: 6.00 Build 0)  -->
<svg version="1.1" id="Calque_1" xmlns="http://www.w3.org/2000/svg" xmlns:xlink="http://www.w3.org/1999/xlink" x="0px" y="0px"
	 viewBox="0 0 64 64" style="enable-background:new 0 0 64 64;" xml:space="preserve">
<path d="M32,11C18,11,5.9,19.1,0,31c5.9,11.9,18,20,32,20s26.1-8.1,32-20C58.1,19.1,46,11,32,11z M47.8,21.6
	c3.8,2.4,6.9,5.6,9.3,9.4c-2.4,3.8-5.6,7-9.3,9.4C43.1,43.4,37.6,45,32,45S21,43.4,16.2,40.4C12.5,38,9.3,34.8,6.9,31
	c2.4-3.8,5.6-7,9.3-9.4c0.2-0.2,0.5-0.3,0.7-0.5c-0.6,1.7-1,3.6-1,5.5c0,8.8,7.2,16,16,16s16-7.2,16-16c0-1.9-0.3-3.8-1-5.5
	C47.3,21.3,47.5,21.5,47.8,21.6L47.8,21.6L47.8,21.6z M32,25c0,3.3-2.7,6-6,6s-6-2.7-6-6s2.7-6,6-6S32,21.7,32,25z"/>
</svg>
