<svg id="Layer_1" data-name="Layer 1" xmlns="http://www.w3.org/2000/svg" viewBox="0 0 32 32"><defs><style>.cls-1{fill:#231f20;}</style></defs><title>icon-display-filters</title><path class="cls-1" d="M13.13,30.4a1.66,1.66,0,0,1-.61-.12,1.58,1.58,0,0,1-1-1.46V17.67L.36,4.19A1.58,1.58,0,0,1,.15,2.51,1.6,1.6,0,0,1,1.6,1.6H30.4a1.61,1.61,0,0,1,1.45.9,1.58,1.58,0,0,1-.21,1.68L20.49,17.67v5.45A1.58,1.58,0,0,1,20,24.24l-5.75,5.7A1.64,1.64,0,0,1,13.13,30.4ZM5,4.76l9.39,11.35a1.52,1.52,0,0,1,.36,1V25l2.56-2.53V17.11a1.57,1.57,0,0,1,.36-1L27,4.76Z"/></svg>