<svg id="Layer_1" data-name="Layer 1" xmlns="http://www.w3.org/2000/svg" viewBox="0 0 32 32"><defs><style>.cls-1{fill:#7991a3;}.cls-2{fill:#113f6d;}</style></defs><title>icon-display-filters-blue</title><path class="cls-1" d="M14.73,17.11V25l2.56-2.53V17.11a1.57,1.57,0,0,1,.36-1L27,4.76H5l9.39,11.35A1.57,1.57,0,0,1,14.73,17.11Z"/><path class="cls-2" d="M31.85,2.5a1.61,1.61,0,0,0-1.45-.9H1.6a1.6,1.6,0,0,0-1.45.91A1.58,1.58,0,0,0,.36,4.19L11.53,17.67V28.82a1.58,1.58,0,0,0,1,1.46,1.66,1.66,0,0,0,.61.12,1.64,1.64,0,0,0,1.14-.46L20,24.24a1.54,1.54,0,0,0,.47-1.12V17.67L31.64,4.18A1.58,1.58,0,0,0,31.85,2.5ZM17.29,17.11v5.36L14.73,25V17.11a1.52,1.52,0,0,0-.36-1L5,4.76H27L17.65,16.11A1.57,1.57,0,0,0,17.29,17.11Z"/></svg>