<svg xmlns="http://www.w3.org/2000/svg" width="32" height="32" viewBox="0 0 32 32">
    <path fill="#0050D7" fill-rule="evenodd" d="M23.5 0a8.5 8.5 0 0 1 .5 16.986V30.5a1.5 1.5 0 0 1-1.5 1.5h-21A1.5 1.5 0 0 1 0 30.5v-21A1.5 1.5 0 0 1 1.5 8h13.514A8.5 8.5 0 0 1 23.5 0zM5.989 9H1.5a.5.5 0 0 0-.5.5v21a.5.5 0 0 0 .5.5h21a.5.5 0 0 0 .5-.5V16.986a8.483 8.483 0 0 1-6.045-3.062c-.148.05-.305.076-.465.076h-9a1.5 1.5 0 0 1-1.5-1.5L5.989 9zM19.5 17a.5.5 0 0 1 .5.5v10a.5.5 0 0 1-.5.5h-15a.5.5 0 0 1-.5-.5v-10a.5.5 0 0 1 .5-.5h15zm-.5 1H5v9h14v-9zm-2.51 6a.5.5 0 1 1 0 1h-9a.5.5 0 1 1 0-1h9zm0-4a.5.5 0 1 1 0 1h-9a.5.5 0 1 1 0-1h9zM24 1.016V2.5a.5.5 0 1 1-1 0V1.016A7.501 7.501 0 0 0 16.016 8H17.5a.5.5 0 1 1 0 1h-1.484a7.461 7.461 0 0 0 1.444 3.947c.013.01.024.023.035.036l.042.066A7.49 7.49 0 0 0 23 15.984V14.5a.5.5 0 1 1 1 0v1.484A7.501 7.501 0 0 0 30.985 9L29.5 9a.5.5 0 1 1 0-1h1.484A7.501 7.501 0 0 0 24 1.016zM15.015 9H6.99l.001 3.5a.5.5 0 0 0 .5.5l8.798.001a8.451 8.451 0 0 1-1.274-4zm7.191-2.967c.367.36.559.863.525 1.377 0 1.2-1.09 2.39-2.6 4 .35 0 .74-.06 1.07-.06H23V12h-4.07v-.45c1.92-1.91 3-3.06 3-4.09a1.13 1.13 0 0 0-1.21-1.25 1.88 1.88 0 0 0-1.36.79l-.47-.47a2.51 2.51 0 0 1 1.93-1 1.77 1.77 0 0 1 1.385.503zm5.115-.373v4h.87v.62h-.87V12h-.78v-1.72h-2.87v-.54l2.73-4.08h.92zm-.78.88c-.16.31-.34.59-.52.9l-1.48 2.18h2V6.54z"/>
</svg>
