<svg xmlns="http://www.w3.org/2000/svg" width="32" height="32" viewBox="0 0 32 32">
    <path fill="#0050D7" fill-rule="evenodd" d="M25.417 1c.406-.002.796.16 1.082.452l4.081 4.201c.272.282.422.659.42 1.047v20.8a3.5 3.5 0 0 1-3.5 3.5h-23A3.5 3.5 0 0 1 1 27.5v-23A3.5 3.5 0 0 1 4.5 1h20.917zm.003 1H24v4.5A1.5 1.5 0 0 1 22.5 8h-13A1.5 1.5 0 0 1 8 6.5V2H4.5A2.5 2.5 0 0 0 2 4.5v23A2.5 2.5 0 0 0 4.5 30h23a2.5 2.5 0 0 0 2.5-2.5V6.697c0-.13-.05-.256-.139-.349L25.783 2.15A.502.502 0 0 0 25.42 2zm.08 10a.5.5 0 0 1 .5.5v13a.5.5 0 0 1-.5.5h-19a.5.5 0 0 1-.5-.5v-13a.5.5 0 0 1 .5-.5h19zm-.5 1H7v12h18V13zm-3.55 8a.5.5 0 1 1 0 1h-11a.5.5 0 1 1 0-1h11zm0-5a.5.5 0 1 1 0 1h-11a.5.5 0 1 1 0-1h11zM23 2H9v4.5a.5.5 0 0 0 .5.5h13a.5.5 0 0 0 .5-.5V2z"/>
</svg>
