<svg xmlns="http://www.w3.org/2000/svg" width="32" height="32" viewBox="0 0 32 32">
    <path fill="#0050D7" fill-rule="evenodd" d="M9.067.033A.5.5 0 0 1 9.42.18l3.054 3.053H30.4a.5.5 0 0 1 .5.5v18.134a.5.5 0 0 1-.5.5H18.1v4.332l.567.001c1.283 0 2.352.918 2.586 2.133h10.214a.5.5 0 0 1 0 1H21.253a2.634 2.634 0 0 1-2.586 2.134h-5.334a2.634 2.634 0 0 1-2.586-2.135l-10.214.001a.5.5 0 1 1 0-1h10.214a2.634 2.634 0 0 1 2.586-2.133h.566v-4.334H1.6a.5.5 0 0 1-.5-.5V.534a.5.5 0 0 1 .5-.5h7.467zm9.6 27.667h-5.334a1.633 1.633 0 1 0 0 3.267h5.334a1.633 1.633 0 0 0 0-3.267zm-1.568-5.334h-2.2V26.7h2.2v-4.333zM8.86 1.033H2.1v20.334h27.8V4.233H12.267a.5.5 0 0 1-.354-.146L8.86 1.033z"/>
</svg>
