<svg xmlns="http://www.w3.org/2000/svg" width="32" height="32" viewBox="0 0 32 32">
    <g fill="#0050D7" fill-rule="evenodd">
        <path d="M27.285 22.453a.5.5 0 0 0 .069.613l1.015 1.017c.524.573.524 1.451.036 1.98-.321.444-.667.869-1.051 1.29-.352.353-.722.688-1.103 1a1.5 1.5 0 0 1-2.025-.09l-.998-.998a.506.506 0 0 0-.63-.061c-.98.561-2.029.991-3.133 1.283a.504.504 0 0 0-.385.513v1.458c.003.778-.59 1.43-1.351 1.499a13.99 13.99 0 0 1-3.284.001 1.5 1.5 0 0 1-1.365-1.498v-1.383a.504.504 0 0 0-.397-.504 12.9 12.9 0 0 1-3.136-1.288.5.5 0 0 0-.613.069l-1.016 1.015c-.574.524-1.452.524-1.982.036a14.638 14.638 0 0 1-1.306-1.068A14 14 0 0 1 3.624 26.1c-.497-.566-.497-1.414.022-2.004l1.014-1.013c.159-.147.205-.379.137-.533-.104-.18-.204-.364-.3-.55h1.135l.053.092c.27.59.13 1.285-.331 1.712l-.978.976c-.166.189-.166.471.029.697.3.413.621.81.931 1.153.378.343.774.666 1.231 1.001a.496.496 0 0 0 .66.015l1.001-1.001a1.495 1.495 0 0 1 1.83-.219c.904.518 1.872.915 2.867 1.177.692.164 1.174.79 1.155 1.487v1.372a.504.504 0 0 0 .469.501c1.017.12 2.045.12 3.076-.001a.5.5 0 0 0 .455-.502v-1.447a1.496 1.496 0 0 1 1.142-1.496 11.871 11.871 0 0 0 2.865-1.172 1.5 1.5 0 0 1 1.847.211l1 1a.501.501 0 0 0 .68.027c.359-.294.704-.607 1.016-.92a14.78 14.78 0 0 0 1.001-1.23.496.496 0 0 0 .015-.66l-1.001-1.001a1.497 1.497 0 0 1-.253-1.773h1.144c-.08.153-.164.304-.25.454zM0 15.78v.567c-.004-.19-.004-.379 0-.567zm32.002.517l.001-.063zM17.555.092A1.5 1.5 0 0 1 18.92 1.59v1.333a.504.504 0 0 0 .398.504 12.91 12.91 0 0 1 3.135 1.288.5.5 0 0 0 .613-.069l1.017-1.015c.573-.524 1.451-.524 1.98-.036.443.322.868.667 1.307 1.068.368.405.714.83 1.006 1.237.497.566.497 1.414-.022 2.004l-1.02 1.017a.495.495 0 0 0-.13.56c.097.17.191.343.28.517L26.35 10l-.029-.05a1.491 1.491 0 0 1 .326-1.753l.978-.976c.166-.189.166-.471-.03-.697-.298-.413-.62-.81-.93-1.153a15.004 15.004 0 0 0-1.232-1.001.496.496 0 0 0-.658-.015l-1.002 1.001a1.495 1.495 0 0 1-1.83.219 11.873 11.873 0 0 0-2.867-1.177A1.496 1.496 0 0 1 17.92 2.91V1.588a.504.504 0 0 0-.469-.501 13.07 13.07 0 0 0-3.076.001.5.5 0 0 0-.455.502v1.397a1.496 1.496 0 0 1-1.142 1.496 12.198 12.198 0 0 0-2.938 1.21 1.497 1.497 0 0 1-1.644-.34l-.976-.977c-.189-.166-.471-.166-.696.029-.414.3-.81.622-1.154.932-.344.377-.666.773-1.001 1.23a.496.496 0 0 0-.015.66l1.001 1.001c.472.476.569 1.205.253 1.772h-1.14c.079-.153.161-.304.247-.453a.5.5 0 0 0-.069-.613L3.631 7.918c-.524-.574-.524-1.452-.036-1.981.32-.444.667-.869 1.069-1.307.405-.368.83-.713 1.236-1.006.566-.497 1.414-.497 2.004.022L8.91 4.653c.142.147.36.193.491.143.98-.561 2.03-.991 3.134-1.283A.504.504 0 0 0 12.92 3V1.592A1.496 1.496 0 0 1 14.271.093a13.99 13.99 0 0 1 3.284-.001z"/>
        <path d="M30.5 10a1.5 1.5 0 0 1 1.5 1.5v9a1.5 1.5 0 0 1-1.5 1.5h-29A1.5 1.5 0 0 1 0 20.5v-9A1.5 1.5 0 0 1 1.5 10h29zm0 1h-29a.5.5 0 0 0-.5.5v9a.5.5 0 0 0 .5.5h29a.5.5 0 0 0 .5-.5v-9a.5.5 0 0 0-.5-.5zM27 14a1 1 0 1 1 0 2 1 1 0 0 1 0-2z"/>
    </g>
</svg>
