<svg xmlns="http://www.w3.org/2000/svg" width="32" height="32" viewBox="0 0 32 32">
    <path fill="#0050D7" fill-rule="evenodd" d="M4.48 31h.02l-.025-.001h.005zM27.512 1l.03.002h.011l.01.002.01.001h-.004l.036.006.046.012.04.015a.494.494 0 0 1 .15.097l3.013 3.011a.5.5 0 0 1-.708.708L28 2.707V16c0 4.92-2.961 9.15-7.199 11.001L29.292 27l-2.146-2.146a.5.5 0 0 1 .708-.708l3.011 3.013.015.016.004.005.007.008a.499.499 0 0 1 .108.288v.012L31 27.5l-.004.053-.001.019-.006.033a.513.513 0 0 1-.012.046l-.015.04a.494.494 0 0 1-.097.15l-3.011 3.013a.5.5 0 0 1-.708-.708L29.292 28H16c-4.92 0-9.147-2.96-11-7.196v8.488l2.146-2.146a.5.5 0 0 1 .708.708L4.84 30.865l-.019.017-.011.009.043-.037-.048.04-.04.029a.52.52 0 0 1-.245.077.5.5 0 0 1-.021 0l-.068-.006.022.004.021.001-.028-.002-.016-.003h-.002l-.034-.005a.513.513 0 0 1-.046-.012l-.04-.015a.494.494 0 0 1-.15-.097l-3.013-3.011a.5.5 0 0 1 .708-.708L4 29.292V16c0-4.92 2.96-9.147 7.196-11H2.707l2.147 2.146a.5.5 0 1 1-.708.708L1.135 4.84l-.017-.019-.009-.01.009.01-.013-.015-.003-.005.003.004-.028-.04a.52.52 0 0 1-.066-.161l-.006-.03A.51.51 0 0 1 1 4.511V4.5l.005-.074.006-.031a.513.513 0 0 1 .012-.046l.015-.04a.494.494 0 0 1 .097-.15l3.011-3.013a.5.5 0 1 1 .708.708L2.707 4H16c4.92 0 9.15 2.961 11.001 7.199L27 2.707l-2.146 2.147a.5.5 0 0 1-.708-.708l3.013-3.011.019-.017.01-.009-.042.037.047-.041.04-.028a.52.52 0 0 1 .162-.066l.03-.006A.51.51 0 0 1 27.49 1h.023zM4.81 30.891l-.009.007.004-.004.005-.003zm26.186-3.345v.007l-.001.005v-.005l.001-.007zm-.118-.371l.011.013-.006-.008-.005-.005zM16 5C9.925 5 5 9.925 5 16s4.925 11 11 11 11-4.925 11-11S22.075 5 16 5zm1.592 2.189A.5.5 0 0 1 18 7.68v1.616c.46.136.903.32 1.324.547l1.169-1.193a.5.5 0 0 1 .642-.06 9.07 9.07 0 0 1 2.276 2.275.5.5 0 0 1-.056.637l-1.16 1.169c.228.423.412.868.55 1.329h1.615a.5.5 0 0 1 .491.406 8.5 8.5 0 0 1 0 3.188.5.5 0 0 1-.493.406l-1.624-.008a6.95 6.95 0 0 1-.55 1.327l1.17 1.179a.5.5 0 0 1 .057.637 9.07 9.07 0 0 1-2.276 2.276.5.5 0 0 1-.64-.059l-1.168-1.176a6.94 6.94 0 0 1-1.327.548v1.616a.5.5 0 0 1-.406.491 8.5 8.5 0 0 1-3.188 0A.5.5 0 0 1 14 24.34v-1.616a6.94 6.94 0 0 1-1.327-.548l-1.168 1.176a.5.5 0 0 1-.64.059 9.07 9.07 0 0 1-2.276-2.276.5.5 0 0 1 .06-.641l1.175-1.159a6.95 6.95 0 0 1-.548-1.325H7.66a.5.5 0 0 1-.491-.408 8.61 8.61 0 0 1 0-3.184.5.5 0 0 1 .491-.408h1.616c.137-.46.32-.905.55-1.328l-1.18-1.178a.5.5 0 0 1-.057-.64 9.07 9.07 0 0 1 2.276-2.275.5.5 0 0 1 .642.061l1.169 1.193A6.95 6.95 0 0 1 14 9.296V7.68a.5.5 0 0 1 .408-.491 8.61 8.61 0 0 1 3.184 0zM15 8.106V9.68a.5.5 0 0 1-.385.487 5.95 5.95 0 0 0-1.762.728.5.5 0 0 1-.62-.075l-1.137-1.16a8.07 8.07 0 0 0-1.44 1.44l1.148 1.146a.5.5 0 0 1 .072.617 5.96 5.96 0 0 0-.73 1.762.5.5 0 0 1-.486.385H8.086a7.61 7.61 0 0 0 0 2H9.66a.5.5 0 0 1 .487.385 5.95 5.95 0 0 0 .728 1.762.5.5 0 0 1-.074.619L9.66 20.903a8.07 8.07 0 0 0 1.44 1.44l1.136-1.145a.5.5 0 0 1 .618-.073 5.94 5.94 0 0 0 1.761.728.5.5 0 0 1 .386.487v1.575a7.5 7.5 0 0 0 2 0V22.34a.5.5 0 0 1 .386-.487 5.94 5.94 0 0 0 1.761-.728.5.5 0 0 1 .618.073l1.137 1.144a8.07 8.07 0 0 0 1.442-1.443l-1.139-1.147a.5.5 0 0 1-.07-.615 5.95 5.95 0 0 0 .728-1.762.5.5 0 0 1 .49-.385l1.582.008a7.5 7.5 0 0 0 0-1.998H22.36a.5.5 0 0 1-.487-.385 5.96 5.96 0 0 0-.729-1.762.5.5 0 0 1 .071-.615l1.13-1.137a8.07 8.07 0 0 0-1.441-1.441l-1.137 1.16a.5.5 0 0 1-.62.075 5.95 5.95 0 0 0-1.762-.728A.5.5 0 0 1 17 9.68V8.106a7.61 7.61 0 0 0-2 0zM16 13a3 3 0 1 1 0 6 3 3 0 0 1 0-6zm0 1a2 2 0 1 0 0 4 2 2 0 0 0 0-4zM27.198 1.102l-.005.003-.005.004.01-.007zM27.5 1l.069.005-.006-.001-.015-.002L27.5 1z"/>
</svg>
