<svg xmlns="http://www.w3.org/2000/svg" width="32" height="32" viewBox="0 0 32 32">
    <path fill="#0050D7" fill-rule="evenodd" d="M16.533 4.3a3.7 3.7 0 0 1 3.7 3.7v.566H30.4c.865 0 1.567.702 1.567 1.567v3.2c0 .866-.702 1.567-1.567 1.567h-.567v15.5c0 .865-.701 1.567-1.566 1.567H3.733A1.567 1.567 0 0 1 2.167 30.4V14.9H1.6a1.567 1.567 0 0 1-1.567-1.567v-3.2c0-.865.702-1.566 1.567-1.566h10.166V8a3.7 3.7 0 0 1 3.7-3.7h1.067zm-4.767 10.6h-8.6v15.5c0 .313.254.567.567.567h24.534a.567.567 0 0 0 .566-.567V14.9h-8.6v10.167a.5.5 0 0 1-.825.38L16 22.524l-3.408 2.921a.5.5 0 0 1-.825-.38V14.9zm7.467-5.333h-6.466V23.98l2.908-2.493a.5.5 0 0 1 .65 0l2.908 2.493V9.567zm11.167 0H20.233v4.332L30.4 13.9a.567.567 0 0 0 .567-.567v-3.2a.567.567 0 0 0-.567-.566zm-18.634 0H1.6a.567.567 0 0 0-.567.566v3.2c0 .313.254.567.567.567h10.166V9.565zM16.533 5.3h-1.066a2.7 2.7 0 0 0-2.7 2.7v.566h6.466V8a2.7 2.7 0 0 0-2.7-2.7zM29.595.674a4.767 4.767 0 0 1-2.396 8.893.5.5 0 0 1 .002-1 3.767 3.767 0 1 0-2.653-6.435L19.78 6.975a.5.5 0 1 1-.712-.702l4.77-4.845a4.767 4.767 0 0 1 5.757-.754zm-21.42.757l4.758 4.843a.5.5 0 0 1-.714.7L7.465 2.135A3.767 3.767 0 1 0 4.8 8.567a.5.5 0 0 1 .5.5c0 .276-.674 0-.95 0C2.193 9.065.756 8.115.2 6.032a4.767 4.767 0 0 1 7.976-4.601z"/>
</svg>
