<svg xmlns="http://www.w3.org/2000/svg" width="32" height="33" viewBox="0 0 32 33">
    <path fill="#0050D7" fill-rule="evenodd" d="M18.15.917a13.572 13.572 0 0 1 13.38 13.46 13.572 13.572 0 0 1-3.935 9.437l1.09-.523a2.28 2.28 0 0 1 1.663-.201 2.214 2.214 0 0 1 1.364 1.024c.303.507.38 1.118.217 1.678a2.193 2.193 0 0 1-1.035 1.332l-7.562 4.624c-.317.196-.87.44-1.633.655-1.167.331-2.581.525-4.254.525-1.49 0-3.336-.484-5.39-1.301a34.085 34.085 0 0 1-2.158-.95c-.46-.221-.83-.41-1.078-.546a7.733 7.733 0 0 0-2.782-.518v2.834a.5.5 0 0 1-.5.5H.475a.5.5 0 1 1 0-1h4.562V18.518H.475a.5.5 0 1 1 0-1h3.99a13.116 13.116 0 0 1-.378-3.018v-.02-.112A13.572 13.572 0 0 1 17.777.917h.373zM6.036 21.354v7.26c1.074 0 2.145.2 3.198.61a33.095 33.095 0 0 0 3.19 1.475c1.947.773 3.686 1.229 5.02 1.229 2.732 0 4.511-.504 5.364-1.032l7.581-4.636c.283-.157.49-.422.578-.74.088-.301.046-.625-.116-.897a1.218 1.218 0 0 0-.752-.565 1.293 1.293 0 0 0-.957.123l-6.463 3.09a5.268 5.268 0 0 1-.163.077c-1.015.457-1.708.518-4.525.518a42.604 42.604 0 0 1-1.327-.063c-.07 0-.142-.001-.214-.006l-.082-.014a40.282 40.282 0 0 1-3.956-.47h-.107a.5.5 0 0 1 0-1l.19.007c1.39.232 2.79.393 4.189.483a1.54 1.54 0 0 0 1.254-2.335c-.299-.49-.846-.774-1.468-.733l-3.434-.106-.126-.025a.501.501 0 0 1-.362-.088 7.043 7.043 0 0 1-3.022-1.68l-3.49-.482zM2.98 27.026c.5.217.82.715.808 1.26a1.334 1.334 0 0 1-1.343 1.316 1.344 1.344 0 1 1 .535-2.576zm-.775.986a.344.344 0 0 0 .245.59.334.334 0 0 0 .338-.33.344.344 0 1 0-.584-.26zM18.285 22v1.349a2.534 2.534 0 0 1 .507 3.236l-.067.103c1.568-.5 2.972-2.225 3.933-4.687L18.285 22zm9.578 0h-4.135c-.688 1.89-1.63 3.434-2.741 4.459A12.574 12.574 0 0 0 27.863 22zm-10.579 0h-4.358c.082.215.167.428.256.64l3.268.096c.286-.02.567.01.835.082V22zm-5.423 0l-.43.002c.172.096.347.183.525.26L11.861 22zm-1.269-7h-5.49c.043.85.176 1.695.396 2.519h.039a.5.5 0 0 1 .5.5v2.326l3.786.523a.5.5 0 0 1 .283.14l.019.016a.5.5 0 0 1 .154-.024h1.248a21.426 21.426 0 0 1-.935-6zm13.375 0h-5.682v6L23.01 21c.556-1.752.903-3.8.957-6zm-6.683 0h-5.692c.027 2.041.36 4.063.983 6h4.71v-6zm13.225 0h-5.541c-.052 2.17-.374 4.21-.91 6h4.511a12.561 12.561 0 0 0 1.94-6zM11.44 8h-4.55a12.566 12.566 0 0 0-1.793 6h5.501l.003-.192c.046-2.092.342-4.065.839-5.808zm1.044 0c-.53 1.76-.852 3.805-.887 6h5.688V8h-4.8zm10.6 0h-4.799v6h5.687l-.002-.155c-.046-2.133-.365-4.125-.885-5.845zm5.642-.005L28.674 8h-4.546c.512 1.798.813 3.838.844 6h5.548v-.048a12.571 12.571 0 0 0-1.795-5.957zM14.587 2.296A12.577 12.577 0 0 0 7.56 7h4.194c.695-2.003 1.67-3.637 2.833-4.704zm2.697-.328C15.487 2.27 13.866 4.175 12.818 7h4.466V1.968zm1 0V7h4.464C21.7 4.179 20.08 2.27 18.285 1.969zm2.673.311l.073.067c1.14 1.067 2.096 2.681 2.782 4.653h4.246a12.57 12.57 0 0 0-7.101-4.72z"/>
</svg>
