<svg xmlns="http://www.w3.org/2000/svg" width="32" height="32" viewBox="0 0 32 32">
    <path fill="#0050D7" fill-rule="evenodd" d="M17.47 2.07c.2.016.405.038.658.07l.677.089c.306.04.55.068.793.092.36.028.707.13 1.022.301a.5.5 0 0 1 .389.13l3.129 2.88c1.06.97 2.79 2.59 4.904 4.583a2.12 2.12 0 0 1 .55 2.25l-1.001 2.867 1.924 1.367c.752.4 1.276 1.127 1.424 2.017.05.75-.186 1.49-.656 2.063-.75.955-2.07 1.251-3.192.689l-.036-.023.009.057c.038.244.038.492-.01.786-.274 1.032-1.088 1.832-2.217 2.101a4.65 4.65 0 0 1-1.258-.104 8.171 8.171 0 0 1-.163.867 2.994 2.994 0 0 1-1.975 1.945 3.41 3.41 0 0 1-1.797-.076 5.25 5.25 0 0 1-.127.54 2.81 2.81 0 0 1-2.08 2.105 2.35 2.35 0 0 1-1.911-.355l-.895-.529-.23.337a2.5 2.5 0 0 1-3.6.43 2.5 2.5 0 0 1-1.206-1.91 2.5 2.5 0 0 1-2.534-.38 2.5 2.5 0 0 1-1.205-2.104 2.5 2.5 0 0 1-2.258-.496 2.5 2.5 0 0 1-1.205-2.248 2.5 2.5 0 0 1-2.181-.48 2.5 2.5 0 0 1-.814-3.494l1.49-2.165-.168-.227-.44-.603-.018-.024c-.39-.531-.64-.87-.83-1.116-.38-.501-.376-.882-.013-1.427l4.168-6.007 2.414-3.526c.245-.347.346-.464.544-.556a.743.743 0 0 1 .534-.031c.06.016.281.09.334.106 1.027.307 2.067.581 3.118.823.656-.343 1.325-.67 2.01-.985 1.608-.574 2.694-.73 3.928-.63zm-2.497 20.91a1.49 1.49 0 0 0-1.013.556l-2.147 3.07a1.5 1.5 0 0 0 .525 2.1l.079.055a1.5 1.5 0 0 0 2.171-.224l2.109-3.063a1.5 1.5 0 0 0 .185-1.162c-.1-.396-.356-.735-.784-.99a1.5 1.5 0 0 0-1.125-.342zm2.919 2.107l-.038.182a2.572 2.572 0 0 1-.322.754l-1.333 1.934.873.517c.326.235.74.315 1.13.22a1.822 1.822 0 0 0 1.347-1.38c.174-.616.171-.95-.008-1.1-.146-.12-.455-.338-.871-.617l-.09-.06c-.22-.146-.453-.298-.688-.45zm-6.314-4.848a1.49 1.49 0 0 0-.995.483.706.706 0 0 1-.04.069L8.15 24.314a2.501 2.501 0 0 1-.145.164 1.48 1.48 0 0 0-.11.977 1.5 1.5 0 0 0 .708.963l.072.051a1.5 1.5 0 0 0 1.123.35 1.49 1.49 0 0 0 1.012-.544l2.456-3.538a1.5 1.5 0 0 0 .18-1.152c-.097-.393-.348-.73-.771-.986a1.5 1.5 0 0 0-1.096-.36zM7.934 3.755l-.025.037-.086.12L5.41 7.435l-4.165 6.002c-.13.196-.13.113-.02.257.195.253.448.595.842 1.133l.018.024.402.55.306-.449a2.5 2.5 0 0 1 1.692-.9c.662-.063 1.321.14 1.764.515a2.5 2.5 0 0 1 1.247 2.273c.753-.21 1.583-.069 2.205.438a2.5 2.5 0 0 1 1.238 2.075 2.42 2.42 0 0 1 .56-.11c.665-.052 1.322.163 1.752.545a2.5 2.5 0 0 1 1.235 2.27 2.36 2.36 0 0 1 .378-.072c.677-.073 1.355.133 1.803.52a2.5 2.5 0 0 1 1.134 1.39.47.47 0 0 1 .195.071 58.603 58.603 0 0 1 1.229.8c.445.297.772.527.953.678.166.138.286.287.368.451l-.06-.03c.525.3 1.143.39 1.691.268a1.97 1.97 0 0 0 1.276-1.25 7.75 7.75 0 0 0 .134-.714l.042-.36-.257-.161a57.68 57.68 0 0 1-4.753-3.387.5.5 0 0 1 .62-.784 56.68 56.68 0 0 0 5.421 3.799c.365.096.74.135 1.03.128.68-.168 1.216-.695 1.385-1.323a1.38 1.38 0 0 0-.001-.434 1.997 1.997 0 0 0-.672-1.246 37.09 37.09 0 0 0-.768-.54l-1.17-.805-.03-.02c-1.095-.755-1.69-1.174-1.96-1.388a3.176 3.176 0 0 0-.346-.237l-.136-.082-.141-.088a.5.5 0 1 1 .536-.844c.061.039.061.039.127.078l.137.084c.192.118.323.206.45.309.238.19.835.61 1.9 1.344l.03.02.03.021 1.142.786c.396.274.648.451.818.578l.148.132a.5.5 0 0 1 .12.063 5.385 5.385 0 0 0 .374.246c-.044-.026.578.331.91.534.662.33 1.465.15 1.93-.44.314-.384.47-.874.443-1.32-.09-.534-.424-.997-.956-1.285l-2.191-1.55c-4.847-3.458-8.211-5.84-9.207-6.501a.503.503 0 0 1-.073-.06 23.314 23.314 0 0 0-2.573-2.002c-.532.236-1.429.684-1.688.863-.8.484-1.632.912-2.452 1.262-.843.453-1.88.318-2.53-.294A2.67 2.67 0 0 1 8.17 7.1c0-.858.413-1.664 1.147-2.19.298-.176.598-.35.9-.519a45.82 45.82 0 0 1-2.09-.572c-.09-.027-.15-.045-.184-.06l-.008-.004zm-.942 14.529l-2.169 3.141-.07.103-.003.002-.127.187a1.5 1.5 0 0 0 .517 2.1l.079.056c.307.268.71.4 1.116.364.323-.028.626-.16.853-.356.03-.056.064-.112.101-.166l2.444-3.52.05-.085a1.5 1.5 0 0 0 .117-1.027c-.097-.396-.35-.736-.764-.984-.661-.534-1.63-.437-2.144.185zm16.639 5.525h-.001l.101.063-.1-.063zM4.58 15.047a1.488 1.488 0 0 0-.989.506l-.669.974-.01.014-1.68 2.446a1.5 1.5 0 0 0 .517 2.1l.071.05a1.5 1.5 0 0 0 1.12.342 1.49 1.49 0 0 0 1-.533l.129-.19 2.197-3.223a1.5 1.5 0 0 0 .189-1.16c-.098-.397-.353-.736-.775-.988a1.5 1.5 0 0 0-1.1-.338zM13.92 3.624a46.01 46.01 0 0 0-4.057 2.122A1.67 1.67 0 0 0 9.17 7.1c0 .537.258 1.04.742 1.395.386.36.958.434 1.462.166.816-.351 1.608-.758 2.342-1.202.352-.244 1.593-.853 2.101-1.054l.02-.007.021-.008.012-.003h.005l.004-.002h.003l.04-.009.04-.005a.468.468 0 0 1 .05-.001l.035.002a.496.496 0 0 1 .053.008l.027.006a.523.523 0 0 1 .148.066 24.4 24.4 0 0 1 2.907 2.234l.13.088c1.122.758 4.142 2.895 8.431 5.954l.906-2.594a1.12 1.12 0 0 0-.291-1.19c-2.112-1.99-3.84-3.61-4.896-4.576l-2.933-2.699a.498.498 0 0 1-.249-.085 1.572 1.572 0 0 0-.768-.266c-.265-.027-.52-.057-.835-.098l-.673-.088c-.239-.03-.431-.051-.614-.066-1.09-.088-2.034.047-3.47.558zm1.955 2.762l-.017.004-.04.015.057-.019zm.005-.002l-.001.001h-.002.003zm.004 0h-.004.004zm-7.91-2.691c-.06.024-.08.037-.057.054l.018.008c.03-.04.042-.06.039-.062z"/>
</svg>
