<svg xmlns="http://www.w3.org/2000/svg" width="32" height="32" viewBox="0 0 32 32">
    <path fill="#0050D7" fill-rule="evenodd" d="M29.777.033a2.218 2.218 0 0 1 2.19 2.239v27.45a2.218 2.218 0 0 1-2.196 2.245H5.423a2.218 2.218 0 0 1-2.19-2.239V18.667a.5.5 0 0 1 1 0v11.067a1.217 1.217 0 0 0 1.196 1.233h24.335a1.217 1.217 0 0 0 1.203-1.239V2.266a1.217 1.217 0 0 0-1.196-1.233H5.436a1.217 1.217 0 0 0-1.203 1.239V8a.5.5 0 1 1-1 0V2.278A2.218 2.218 0 0 1 5.43.033h24.348zm-18.223 8.68l4.266 4.267a.5.5 0 0 1 0 .707l-4.266 4.267a.5.5 0 0 1-.708-.708l3.413-3.413H.533a.5.5 0 1 1 0-1H14.26L10.846 9.42a.5.5 0 0 1 .708-.707z"/>
</svg>
