<svg xmlns="http://www.w3.org/2000/svg" width="31" height="32" viewBox="0 0 31 32">
    <path fill="#0050D7" fill-rule="evenodd" d="M19.24 9.072c2.475 1.429 4 4.07 4 6.952a14.1 14.1 0 0 1-3.107 8.168.492.492 0 0 1 .107.308V27a5 5 0 0 1-10 0v-2.5c0-.117.04-.224.107-.309A14.12 14.12 0 0 1 7.24 16a8 8 0 0 1 12-6.928zm0 15.928h-8v2a4 4 0 0 0 7.874 1H13.74a.5.5 0 1 1 0-1h5.5v-2zm-7.5-15.062a6.992 6.992 0 0 0-3.5 6.038A13.1 13.1 0 0 0 11.493 24l7.49-.001.108-.121A13.085 13.085 0 0 0 22.24 16a7 7 0 0 0-10.5-6.062zm-11.086.796l4.75 1.54a.5.5 0 0 1-.308.952l-4.75-1.54a.5.5 0 0 1 .308-.952zm29.802.322a.5.5 0 0 1-.322.63l-4.75 1.54a.5.5 0 1 1-.308-.952l4.75-1.54a.5.5 0 0 1 .63.322zM6.535 3.166l2.94 4.05a.5.5 0 0 1-.81.588l-2.94-4.05a.5.5 0 0 1 .81-.588zm18.11-.11a.5.5 0 0 1 .11.698l-2.94 4.04a.5.5 0 0 1-.81-.588l2.94-4.04a.5.5 0 0 1 .7-.11zM14.74 0a.5.5 0 0 1 .5.5v5a.5.5 0 1 1-1 0v-5a.5.5 0 0 1 .5-.5z"/>
</svg>
