<svg xmlns="http://www.w3.org/2000/svg" width="32" height="32" viewBox="0 0 32 32">
    <path fill="#0050D7" fill-rule="evenodd" d="M24.5 1a.5.5 0 0 1 .5.5v13.792l5.146-5.146A.5.5 0 0 1 31 10.5v20a.5.5 0 0 1-.5.5h-21a.5.5 0 0 1-.5-.5v-29a.5.5 0 0 1 .5-.5h15zm-19.646.146l3 3a.5.5 0 1 1-.708.708L5 2.707v26.585l2.146-2.146a.5.5 0 0 1 .708.708l-3 3a.5.5 0 0 1-.708 0l-3-3a.5.5 0 0 1 .708-.708L4 29.292V2.707L1.854 4.854a.5.5 0 1 1-.708-.708l3-3a.5.5 0 0 1 .708 0zM14 24h-4v6h.292L14 26.292V24zm16-12.293L11.707 30H30V11.707zm-2.95 8.797l-.05 6a.5.5 0 0 1-.5.496h-6a.5.5 0 0 1-.352-.855l6.05-6a.5.5 0 0 1 .852.36zm-1.01 1.206L21.714 26h4.29l.036-4.29zM19 16h-4v9.292l4-4V16zm-5 0h-4v7h4v-7zm10 0h-4v4.292l4-4V16zM14 9h-4v6h4V9zm5 0h-4v6h4V9zm5 0h-4v6h4V9zM14 2h-4v6h4V2zm5 0h-4v6h4V2zm5 0h-4v6h4V2z"/>
</svg>
