<svg xmlns="http://www.w3.org/2000/svg" width="32" height="32" viewBox="0 0 32 32">
    <path fill="#0050D7" fill-rule="evenodd" d="M12.267.033a.5.5 0 0 1 0 1H1.033v29.934h29.934V19.733a.5.5 0 0 1 1 0v11.734a.5.5 0 0 1-.5.5H.533a.5.5 0 0 1-.5-.5V.533a.5.5 0 0 1 .5-.5h11.734zm19.2 0h.011c.02 0 .042.003.062.006l-.073-.006a.502.502 0 0 1 .353.147l.012.012a.503.503 0 0 1 .035.041L31.82.18a.502.502 0 0 1 .147.353V11.2a.5.5 0 0 1-1 0V1.74L15.82 16.886a.5.5 0 1 1-.707-.707L30.258 1.033H20.8a.5.5 0 1 1 0-1h10.667z"/>
</svg>
