<svg xmlns="http://www.w3.org/2000/svg" width="32" height="32" viewBox="0 0 32 32">
    <path fill="#0050D7" fill-rule="evenodd" d="M22.5 0l.079.007-.031-.005.007.001.025.004h.004l.024.005c.02.004.04.01.058.016l.032.013a.552.552 0 0 1 .041.02l.036.022a.531.531 0 0 1 .066.052l6.024 6.024c.011.011.022.023.031.036l-.009-.011.03.04a.479.479 0 0 1 .076.19A.509.509 0 0 1 29 6.5v24a1.5 1.5 0 0 1-1.5 1.5h-23A1.5 1.5 0 0 1 3 30.5v-29A1.5 1.5 0 0 1 4.5 0h18zM22 1H4.5a.5.5 0 0 0-.5.5v29a.5.5 0 0 0 .5.5h23a.5.5 0 0 0 .5-.5V7h-4.5A1.5 1.5 0 0 1 22 5.5V1zm2.5 24a.5.5 0 1 1 0 1h-17a.5.5 0 1 1 0-1h17zm0-4a.5.5 0 1 1 0 1h-17a.5.5 0 1 1 0-1h17zm-9-14a5.5 5.5 0 1 1 0 11 5.5 5.5 0 0 1 0-11zm0 1a4.5 4.5 0 1 0 0 9 4.5 4.5 0 0 0 0-9zm-.04 6a.625.625 0 1 1 0 1.25.625.625 0 0 1 0-1.25zm1.106-3.953A1.3 1.3 0 0 1 17 11.05c0 1-1.25 1.38-1.14 2.41h-.81c-.17-1.17 1-1.62 1-2.34h.05a.6.6 0 0 0-.65-.64 1.09 1.09 0 0 0-.82.42l-.51-.47a1.81 1.81 0 0 1 1.4-.7 1.3 1.3 0 0 1 1.046.317zM23 1.708V5.5a.5.5 0 0 0 .5.5h3.793L23 1.708zM22.5 0l.043.002h.005L22.5 0z"/>
</svg>
