<svg xmlns="http://www.w3.org/2000/svg" width="32" height="32" viewBox="0 0 32 32">
    <path fill="#0050D7" fill-rule="evenodd" d="M22.5 0l.079.007-.031-.005.007.001.025.004h.004l.024.005c.02.004.04.01.058.016l.032.013a.552.552 0 0 1 .041.02l.036.022a.531.531 0 0 1 .066.052l6.013 6.011A.5.5 0 0 1 29 6.5v24a1.5 1.5 0 0 1-1.5 1.5h-23A1.5 1.5 0 0 1 3 30.5v-29A1.5 1.5 0 0 1 4.5 0h18zM22 1H4.5a.5.5 0 0 0-.5.5v29a.5.5 0 0 0 .5.5h23a.5.5 0 0 0 .5-.5V7h-4.5A1.5 1.5 0 0 1 22 5.5V1zm-8.136 11.147a.5.5 0 0 1-.001.707L10.199 16.5l3.664 3.646a.5.5 0 1 1-.706.708l-4.02-4a.5.5 0 0 1 0-.708l4.02-4a.5.5 0 0 1 .707.001zm4.979-.001l4.02 4a.5.5 0 0 1 0 .708l-4.02 4a.5.5 0 1 1-.706-.708l3.664-3.646-3.664-3.646a.5.5 0 1 1 .706-.708zM23 1.708V5.5a.5.5 0 0 0 .5.5h3.793L23 1.708zM22.5 0l.043.002h.005L22.5 0z"/>
</svg>
