<?xml version="1.0" encoding="utf-8"?>
<!-- Generator: Adobe Illustrator 21.1.0, SVG Export Plug-In . SVG Version: 6.00 Build 0)  -->
<svg version="1.1" id="Layer_1" xmlns="http://www.w3.org/2000/svg" xmlns:xlink="http://www.w3.org/1999/xlink" x="0px" y="0px"
	 viewBox="0 0 18 20" style="enable-background:new 0 0 18 20;" xml:space="preserve">
<style type="text/css">
	.st0{fill:#122944;}
	.st1{fill:#132844;}
</style>
<g>
	<g>
		<g id="Calque_2">
			<g id="Calque_1-2">
				<g id="script_20px-bkg-light">
					<g>
						<g>
							<g>
								<path class="st0" d="M16.5,20h-15C0.7,20,0,19.3,0,18.5v-17C0,0.7,0.7,0,1.5,0h12c0.1,0,0.3,0.1,0.4,0.1l4,4
									C17.9,4.2,18,4.4,18,4.5v14C18,19.3,17.3,20,16.5,20z M1.5,1C1.2,1,1,1.2,1,1.5v17C1,18.8,1.2,19,1.5,19h15
									c0.3,0,0.5-0.2,0.5-0.5V4.7L13.3,1H1.5z"/>
							</g>
							<g>
								<path class="st0" d="M17.5,5h-3C13.7,5,13,4.3,13,3.5v-3C13,0.2,13.2,0,13.5,0S14,0.2,14,0.5v3C14,3.8,14.2,4,14.5,4h3
									C17.8,4,18,4.2,18,4.5S17.8,5,17.5,5z"/>
							</g>
						</g>
					</g>
				</g>
			</g>
		</g>
	</g>
</g>
<path class="st1" d="M4,16.4c-0.2,0-0.4-0.1-0.6-0.2c-0.6-0.4-0.7-0.9-0.7-1.3c0-0.8,0.7-1.6,1.2-1.9c0.7-0.4,2.1-1,2.6-1.2
	c0.1-0.1,0.1-0.2,0.2-0.3l0.2-0.4c0.5-1,0.9-1.9,1.3-2.8C7.7,7.9,7.4,7.3,7.3,6.8C6.9,5.5,7,4.6,7.4,4C7.7,3.7,8,3.5,8.4,3.5
	c0.2,0,0.6,0,1,0.4c0.4,0.4,0.5,1,0.4,1.9C9.7,6.6,9.4,7.4,9.1,8.3c0.6,0.9,1.4,1.8,2.1,2.6c0.7,0,1.5,0,2.4,0.1
	c0.1,0,1.2,0.1,1.7,0.9c0.2,0.3,0.3,0.7,0.2,1.1c-0.1,0.4-0.4,0.7-0.8,0.8c-0.8,0.3-1.9-0.2-2.3-0.5c-0.1-0.1-0.7-0.7-1.5-1.5
	c-1.9,0.1-3.3,0.6-3.8,0.8c-1,2-1.8,3.4-2.8,3.7C4.2,16.4,4.1,16.4,4,16.4z M5.9,13.1c-0.6,0.2-1.2,0.5-1.5,0.7
	c-0.3,0.2-0.8,0.7-0.8,1.1c0,0.1,0,0.3,0.3,0.5c0.1,0,0.1,0,0.2,0C4.6,15.3,5.3,14.2,5.9,13.1z M12,11.8c0.4,0.4,0.7,0.7,0.8,0.8
	c0.3,0.3,1.2,0.6,1.6,0.4c0.1,0,0.1-0.1,0.1-0.2c0-0.2,0-0.3,0-0.4c-0.2-0.3-0.8-0.5-1.1-0.5C12.9,11.8,12.4,11.8,12,11.8z M8.7,9.4
	c-0.3,0.6-0.6,1.3-1,2.1c0.6-0.2,1.4-0.3,2.3-0.5C9.6,10.5,9.1,10,8.7,9.4z M8.4,4.6c0,0-0.1,0-0.2,0.1c-0.1,0.1-0.5,0.6,0,2.1
	C8.3,7,8.4,7.2,8.6,7.4C8.8,6.9,8.9,6.4,9,5.9C9.1,5,8.9,4.7,8.8,4.6C8.7,4.6,8.7,4.6,8.4,4.6z"/>
</svg>
