<svg xmlns="http://www.w3.org/2000/svg" width="32" height="32" viewBox="0 0 32 32">
    <path fill="#0050D7" fill-rule="evenodd" d="M16 32c-3.749 0-6.83-2.65-6.993-6H6.5A4.5 4.5 0 0 0 2 30.5v1a.5.5 0 1 1-1 0v-1A5.5 5.5 0 0 1 6.5 25h3a1.5 1.5 0 0 0 1.5-1.5v-2c0-.077.018-.15.05-.216A7.982 7.982 0 0 1 8 15v-4.085A1.5 1.5 0 0 1 7 9.5v-5A2.5 2.5 0 0 1 9.5 2H12v-.5A1.5 1.5 0 0 1 13.5 0h9A2.5 2.5 0 0 1 25 2.5v7a1.5 1.5 0 0 1-1 1.414V15c0 2.55-1.193 4.82-3.05 6.285a.47.47 0 0 1 .05.215v2a1.5 1.5 0 0 0 1.356 1.493L22.5 25h3a5.5 5.5 0 0 1 5.5 5.5v1a.5.5 0 1 1-1 0v-1a4.5 4.5 0 0 0-4.5-4.5h-2.507c-.164 3.35-3.244 6-6.993 6zm4.001-10.07A7.963 7.963 0 0 1 16 23a7.963 7.963 0 0 1-4-1.07v1.57a2.5 2.5 0 0 1-1.994 2.449C10.142 28.745 12.763 31 16 31c3.237 0 5.858-2.255 5.994-5.051A2.5 2.5 0 0 1 20 23.5l.001-1.57zM22.5 1h-9a.5.5 0 0 0-.5.5v1a.5.5 0 0 1-.5.5h-3A1.5 1.5 0 0 0 8 4.5v5l.005.053.003-.066A1.65 1.65 0 0 1 9.65 8h8.85a.5.5 0 1 1 0 1H9.65a.65.65 0 0 0-.65.65V15a7 7 0 0 0 14 0V8.5a.5.5 0 1 1 1 0v-6A1.5 1.5 0 0 0 22.5 1z"/>
</svg>
