<svg xmlns="http://www.w3.org/2000/svg" width="32" height="32" viewBox="0 0 32 32">
    <path fill="#0050D7" fill-rule="evenodd" d="M27.63 5.5v4.586A9.4 9.4 0 0 1 29.885 14H31.5a.5.5 0 0 1 .5.5v4a.5.5 0 0 1-.5.5h-1.608a10.9 10.9 0 0 1-1.926 3.896l-.976 4.706a.5.5 0 0 1-.49.398h-3a.5.5 0 0 1-.5-.5v-2.228c-.78.32-1.603.562-2.5.728h-3.016A11.95 11.95 0 0 1 15 25.657V27.5a.5.5 0 0 1-.5.5h-3a.5.5 0 0 1-.486-.384l-1.112-4.681a9.65 9.65 0 0 1-1.86-9.18 3.727 3.727 0 0 0-3.167-1.256 2.749 2.749 0 0 1-.631 2.036c-.257.353-.57.643-.918.795-.516.225-1.053.112-1.464-.363-.764-.882-.04-2.126 1.028-2.85a4.74 4.74 0 0 1 .708-.334 3.02 3.02 0 0 0-2.965-.801.5.5 0 0 1-.266-.964c1.437-.397 2.975.034 4.05 1.185.07.106.132.215.186.327a4.726 4.726 0 0 1 3.833 1.195l.032-.072A9.649 9.649 0 0 1 17.31 7.02h3.2a9.69 9.69 0 0 1 3.267.57l3.037-2.477a.5.5 0 0 1 .816.387zm-1 1.053l-2.444 1.994a.5.5 0 0 1-.5.078 8.69 8.69 0 0 0-3.176-.605h-3.204a8.65 8.65 0 0 0-8.187 5.677.494.494 0 0 1-.089.26 8.645 8.645 0 0 0 1.706 8.413.5.5 0 0 1 .11.214L11.896 27H14v-3.5a.5.5 0 1 1 1 0v1.123l.048.014c.805.215 1.631.337 2.452.363l2.905.009a11.58 11.58 0 0 0 2.596-.827L23 23.5a.5.5 0 1 1 1 0V27h2.093l.917-4.422a.5.5 0 0 1 .098-.209 9.9 9.9 0 0 0 1.904-3.979.5.5 0 0 1 .488-.39H31v-3h-1.5a.5.5 0 0 1-.486-.382 8.4 8.4 0 0 0-2.237-3.974.5.5 0 0 1-.147-.354V6.553zM3.894 12.736c-.162.063-.32.14-.473.228-.603.409-1.01 1.11-.803 1.349.12.139.187.153.308.1.158-.069.348-.245.532-.496.29-.342.433-.767.436-1.181zM26.5 13a.5.5 0 1 1 0 1h-1a.5.5 0 1 1 0-1h1zm-6.01-4a.5.5 0 1 1 0 1H17.5a.5.5 0 1 1 0-1h2.99z"/>
</svg>
