<svg id="Layer_1" data-name="Layer 1" xmlns="http://www.w3.org/2000/svg" viewBox="0 0 20 18"><title>typeArtboard 1</title><circle cx="3.5" cy="7.5" r="0.5" fill="#122844"/><path d="M19.5,4H16V.5a.5.5,0,0,0-.5-.5H4.5A.5.5,0,0,0,4,.5V4H.5a.5.5,0,0,0-.5.5v8a.5.5,0,0,0,.5.5H4v4.5a.5.5,0,0,0,.5.5h11a.5.5,0,0,0,.5-.5V13h3.5a.5.5,0,0,0,.5-.5v-8A.5.5,0,0,0,19.5,4ZM5,1H15V4H5ZM15,17H5V11H15Zm4-5H16V10.5a.5.5,0,0,0-.5-.5H4.5a.5.5,0,0,0-.5.5V12H1V5H19Z" fill="#122844"/><path d="M13.5,13h-7a.5.5,0,0,0,0,1h7a.5.5,0,0,0,0-1Z" fill="#122844"/><path d="M13.5,15h-7a.5.5,0,0,0,0,1h7a.5.5,0,0,0,0-1Z" fill="#122844"/></svg>