<?xml version="1.0" encoding="UTF-8"?>
<svg width="24px" height="24px" viewBox="0 0 24 24" version="1.1" xmlns="http://www.w3.org/2000/svg" xmlns:xlink="http://www.w3.org/1999/xlink">
    <!-- Generator: Sketch 54.1 (76490) - https://sketchapp.com -->
    <title>Icons/System/refresh</title>
    <desc>Created with Sketch.</desc>
    <g id="Icons/System/refresh" stroke="none" stroke-width="1" fill="none" fill-rule="evenodd">
        <path d="M18,12.5857864 L18,12 C18,8.13400675 14.8659932,5 11,5 C7.13400675,5 4,8.13400675 4,12 C4,15.8659932 7.13400675,19 11,19 C11.5522847,19 12,19.4477153 12,20 C12,20.5522847 11.5522847,21 11,21 C6.02943725,21 2,16.9705627 2,12 C2,7.02943725 6.02943725,3 11,3 C15.9705627,3 20,7.02943725 20,12 L20,12.5857864 L21.2928932,11.2928932 C21.6834175,10.9023689 22.3165825,10.9023689 22.7071068,11.2928932 C23.0976311,11.6834175 23.0976311,12.3165825 22.7071068,12.7071068 L19,16.4142136 L15.2928932,12.7071068 C14.9023689,12.3165825 14.9023689,11.6834175 15.2928932,11.2928932 C15.6834175,10.9023689 16.3165825,10.9023689 16.7071068,11.2928932 L18,12.5857864 Z" id="Color" fill="#2859C0"></path>
    </g>
</svg>