<svg xmlns="http://www.w3.org/2000/svg" width="32" height="32" viewBox="0 0 32 32">
    <path fill="#0050D7" fill-rule="evenodd" d="M31.467.033a.5.5 0 0 1 .5.5v30.934a.5.5 0 0 1-.5.5H.533a.5.5 0 0 1-.5-.5V.533a.5.5 0 0 1 .5-.5h30.934zm-.5 1H1.033v29.934h29.934V1.033zM26.192 5.37l.05.008a.515.515 0 0 1 .123.045l.035.02a.48.48 0 0 1 .087.07l.014.015.014.016-.016-.017.033.038.022.03a.514.514 0 0 1 .08.272v7.466a.5.5 0 1 1-1 0v-6.26L14.898 17.806v4.625h11.093L22.58 19.02a.5.5 0 0 1 .707-.707l4.267 4.267.013.013a.503.503 0 0 1 .031.038l-.044-.051a.502.502 0 0 1 .146.353v.023a.503.503 0 0 1-.004.043l.004-.066a.502.502 0 0 1-.146.354l-4.267 4.267a.5.5 0 0 1-.707-.708l3.412-3.414H14.9l.001 2.701a.5.5 0 0 1-.5.5H5.867a.5.5 0 0 1-.5-.5V17.6a.5.5 0 0 1 .5-.5h2.7V6.005L5.153 9.42a.5.5 0 0 1-.708-.707l4.267-4.267.053-.047.026-.017a.51.51 0 0 1 .275-.082l.056.003.051.009a.514.514 0 0 1 .234.123l.012.011 4.267 4.267a.5.5 0 1 1-.707.707L9.566 6.006V17.1h4.627L24.925 6.366h-6.258a.5.5 0 1 1 0-1h7.466l.06.004zM13.9 18.1H6.367v7.533H13.9V18.1zM26.19 5.37l.01.001h-.008l-.003-.002zm-.034-.003l.022.002h.01l-.055-.002h.023zM8.75 4.412l-.024.02.02-.017.004-.003zm.37-.11l.011.002h-.009l-.003-.002zM9.066 4.3l.044.002h.01L9.066 4.3z"/>
</svg>
