<svg xmlns="http://www.w3.org/2000/svg" width="32" height="32" viewBox="0 0 32 32">
    <path fill="#0050D7" fill-rule="evenodd" d="M16.366 0a.5.5 0 0 1 .452.287c1.42 3.014 4.426 5.138 7.94 5.606l.568.067h1.768c.7-.055 1.39-.176 2.062-.362a.5.5 0 0 1 .626.396c.115.662.175 1.332.18 2.006-.004 9.599-5.14 18.564-13.697 23.924a.5.5 0 0 1-.53 0C7.178 26.564 2.042 17.599 2.039 7.984c.022-.673.1-1.343.236-2.004a.5.5 0 0 1 .62-.382c.673.182 1.363.3 2.023.352h1.409l.323.003.613-.068c3.51-.478 6.501-2.596 7.919-5.598A.5.5 0 0 1 15.634 0h.732zm-.311 1h-.11c-1.615 3.161-4.82 5.369-8.559 5.877l-.68.073h-.904l-.921-.001c-.58-.044-1.154-.13-1.719-.256-.068.438-.11.876-.124 1.307C3.042 17.15 7.89 25.71 16 30.908 24.11 25.71 28.958 17.15 28.962 8.003a11.072 11.072 0 0 0-.086-1.304c-.566.128-1.142.215-1.724.26l-.038.001H25.63c-.152 0-.152 0-.36-.003l-.635-.071c-3.742-.5-6.962-2.712-8.58-5.886zm.298 3.996C18.902 7.543 22.48 8.994 26.232 9a.5.5 0 0 1 .499.5v.42c-.004 7.337-3.929 14.188-10.466 18.284a.5.5 0 0 1-.53 0C9.204 24.103 5.287 17.252 5.29 9.92V9.5a.5.5 0 0 1 .5-.5c3.744-.004 7.316-1.456 9.855-4.003a.5.5 0 0 1 .707 0zm-.352 1.05C13.418 8.458 9.946 9.868 6.29 9.99c.022 6.857 3.647 13.273 9.71 17.196 6.068-3.92 9.7-10.336 9.73-17.196-3.662-.123-7.139-1.532-9.73-3.946zm0-5.278l-.047.03L16 .89a10.2 10.2 0 0 0 .046-.094L16 .767z"/>
</svg>
