<?xml version="1.0" encoding="utf-8"?>
<!-- Generator: Adobe Illustrator 21.0.0, SVG Export Plug-In . SVG Version: 6.00 Build 0)  -->
<svg version="1.1" id="Calque_1" xmlns="http://www.w3.org/2000/svg" xmlns:xlink="http://www.w3.org/1999/xlink" x="0px" y="0px"
	 viewBox="0 0 64 64" style="enable-background:new 0 0 64 64;" xml:space="preserve">
<path d="M32,0C14.3,0,0,14.3,0,32s14.3,32,32,32s32-14.3,32-32S49.7,0,32,0z M50,23.4L36.7,35.9l-9.9,9.2c-1,0.9-2.4,0.8-3.3-0.1
	l-2-2.2l-8-8.5c-0.9-1-0.8-2.4,0.1-3.3l1.9-1.7l0.4-0.4c1-0.9,2.4-0.8,3.3,0.1l6.2,6.6l1.8-1.6l6.3-5.9l9.6-9l1.6-1.5
	c1-0.9,2.4-0.8,3.3,0.1l2.2,2.4c0,0,0,0,0,0C51.1,21,51,22.5,50,23.4z"/>
</svg>
