<svg xmlns="http://www.w3.org/2000/svg" width="32" height="32" viewBox="0 0 32 32">
    <path fill="#0050D7" fill-rule="evenodd" d="M16 4a6 6 0 0 1 6 6v3h2.5a1.5 1.5 0 0 1 1.5 1.5V20h4.293l-1.147-1.146a.5.5 0 0 1 .708-.708l2 2a.5.5 0 0 1 0 .708l-2 2a.5.5 0 0 1-.708-.708L30.292 21H26v5.5a1.5 1.5 0 0 1-1.5 1.5h-17A1.5 1.5 0 0 1 6 26.5V21H1.707l1.147 1.146a.5.5 0 0 1-.708.708l-2-2a.5.5 0 0 1 0-.708l2-2a.5.5 0 0 1 .708.708L1.707 20H6v-5.5A1.5 1.5 0 0 1 7.5 13H10v-3a6 6 0 0 1 6-6zm8.5 10h-17a.5.5 0 0 0-.5.5v12a.5.5 0 0 0 .5.5h17a.5.5 0 0 0 .5-.5v-12a.5.5 0 0 0-.5-.5zM16 18a2 2 0 0 1 1.001 3.732L17 23a1 1 0 0 1-2 0v-1.268A2 2 0 0 1 16 18zm0-13a5 5 0 0 0-5 5v3h10v-3a5 5 0 0 0-5-5z"/>
</svg>
