<svg xmlns="http://www.w3.org/2000/svg" width="32" height="32" viewBox="0 0 32 32">
    <g fill="#0050D7" fill-rule="evenodd">
        <path d="M16.787 18c4.55.153 8.155 3.86 8.214 8.374L25 31.5a.5.5 0 0 1-.5.5h-17a.5.5 0 0 1-.5-.5v-4.862C6.922 22 10.577 18.156 15.23 18h1.557zm-1.54 1A7.502 7.502 0 0 0 8 26.63V31h16v-4.378c.069-4.093-3.156-7.485-7.23-7.622h-.02l2.212 5.308a.5.5 0 0 1-.078.512l-2.5 3a.5.5 0 0 1-.768 0l-2.5-3a.5.5 0 0 1-.078-.512l2.212-5.309h-.003zm.753.8l-1.922 4.613L16 26.719l1.922-2.306L16 19.8zM16 3c3.376 0 6 3.335 6 7.29 0 3.849-2.547 6.71-6 6.71s-6-2.861-6-6.71C10 6.335 12.624 3 16 3zm0 1c-2.764 0-5 2.842-5 6.29 0 3.32 2.126 5.71 5 5.71s5-2.39 5-5.71C21 6.842 18.764 4 16 4z"/>
        <path d="M24 11.5a.5.5 0 0 1-1 0V8.002A7.03 7.03 0 0 0 16.002 1 7.03 7.03 0 0 0 9 8v3.5a.5.5 0 0 1-1 0V7.998A8.03 8.03 0 0 1 16.002 0 8.03 8.03 0 0 1 24 8v3.5z"/>
        <path d="M23.363 11.02a.5.5 0 0 1 .274.96l-7 2a.5.5 0 0 1-.274-.96l7-2z"/>
    </g>
</svg>
