<svg xmlns="http://www.w3.org/2000/svg" width="32" height="32" viewBox="0 0 32 32">
    <path fill="#0050D7" fill-rule="evenodd" d="M16.5 0c.035 0 .07.004.102.01 5.72.212 10.675 3.428 13.33 8.116a.497.497 0 0 1 .161.29 15.937 15.937 0 0 1 1.901 8.014.502.502 0 0 1-.004.17 15.915 15.915 0 0 1-1.833 6.863.5.5 0 0 1-.263.479c-2.665 4.65-7.599 7.837-13.293 8.047A.448.448 0 0 1 16.5 32l-.072-.006c-.142.004-.285.006-.428.006-5.947 0-11.135-3.244-13.893-8.059a.496.496 0 0 1-.267-.441l.003-.038a15.914 15.914 0 0 1-1.832-6.86A.448.448 0 0 1 0 16.5l.006-.07a15.93 15.93 0 0 1 1.902-8.013L1.9 8.5c0-.148.065-.282.167-.373C4.815 3.275 10.025 0 16 0c.144 0 .287.002.43.006L16.5 0zM16 24l-6.754.001C10.68 28.215 13.2 31 16 31v-7zm6.754 0H17v6.88c2.394-.574 4.494-3.174 5.754-6.88zm-14.562.001H3.31a15.027 15.027 0 0 0 8.86 6.506C10.49 29.114 9.104 26.829 8.192 24zm20.498 0h-4.882c-.912 2.828-2.297 5.113-3.978 6.505a15.026 15.026 0 0 0 8.86-6.505zm-21.673-7H1.033a14.91 14.91 0 0 0 1.697 6h5.165c-.498-1.834-.805-3.862-.878-6zM16 17H8.018c.077 2.16.4 4.191.916 6H16v-6zm1 0v6h6.066c.516-1.809.84-3.84.916-5.999L17 17zm13.967 0h-5.984c-.073 2.14-.38 4.167-.878 6.001h5.165a14.91 14.91 0 0 0 1.697-6zM7.895 9H2.73A14.935 14.935 0 0 0 1 16h6c0-2.506.32-4.883.895-7zM16 9H8.934C8.339 11.088 8 13.468 8 16h8V9zm7.066 0H17v7h7c0-2.533-.34-4.914-.934-7zm6.204 0h-5.165c.575 2.118.895 4.494.895 7h6c0-2.528-.625-4.91-1.73-7zm-17.1-7.506l-.11.029A15.03 15.03 0 0 0 3.31 8h4.882c.912-2.828 2.297-5.114 3.978-6.506zM16 1c-2.801 0-5.32 2.785-6.754 7H16V1zm1 .12V8h5.754c-1.26-3.705-3.36-6.306-5.753-6.88zm2.83.373l.033.028c1.666 1.395 3.04 3.67 3.945 6.48h4.883a15.027 15.027 0 0 0-8.861-6.508z"/>
</svg>
