<?xml version="1.0" encoding="utf-8"?>
<!-- Generator: Adobe Illustrator 21.0.0, SVG Export Plug-In . SVG Version: 6.00 Build 0)  -->
<svg version="1.1" id="Calque_1" xmlns="http://www.w3.org/2000/svg" xmlns:xlink="http://www.w3.org/1999/xlink" x="0px" y="0px"
	 viewBox="0 0 64 64" style="enable-background:new 0 0 64 64;" xml:space="preserve">
<path d="M8.7,19.9L27.9,1.6C28.9,0.5,30.4,0,32,0c1.6,0,3,0.5,4.1,1.6l19.2,18.2c2.3,2.2,2.3,5.7,0,7.9s-6,2.2-8.2,0L37.8,19v39.5
	c0,3.1-2.6,5.6-5.8,5.6c-3.2,0-5.8-2.5-5.8-5.6V19L17,27.7c-2.3,2.2-6,2.2-8.2,0C6.4,25.6,6.4,22.1,8.7,19.9z"/>
</svg>
