<svg xmlns="http://www.w3.org/2000/svg" viewBox="0 0 32 32"><title>clock-wait</title><g id="clock-wait"><path d="M32,16A16,16,0,1,1,16,0a1.5,1.5,0,0,1,0,3A13,13,0,1,0,29,16a1.5,1.5,0,0,1,3,0ZM27.43,9.81a1.51,1.51,0,0,0,1.32.78,1.57,1.57,0,0,0,.72-.18,1.51,1.51,0,0,0,.6-2c-.15-.27-.3-.54-.46-.79a1.5,1.5,0,0,0-2.07-.49,1.52,1.52,0,0,0-.49,2.07A6.91,6.91,0,0,1,27.43,9.81ZM22.19,4.57c.23.12.44.25.66.38a1.5,1.5,0,0,0,1.57-2.56l-.79-.46a1.5,1.5,0,1,0-1.44,2.64ZM17,6.5a1.5,1.5,0,0,0-3,0v10A1.5,1.5,0,0,0,15.5,18h10a1.5,1.5,0,0,0,0-3H17Z"/></g></svg>