<?xml version="1.0" encoding="UTF-8"?>
<svg width="24px" height="24px" viewBox="0 0 24 24" version="1.1" xmlns="http://www.w3.org/2000/svg" xmlns:xlink="http://www.w3.org/1999/xlink">
    <!-- Generator: Sketch 54.1 (76490) - https://sketchapp.com -->
    <title>Icons/System/file</title>
    <desc>Created with Sketch.</desc>
    <g id="Icons/System/file" stroke="none" stroke-width="1" fill="none" fill-rule="evenodd">
        <path d="M13.9800007,3.5 L14.4062918,3.5 C14.8682963,3.5 15.3107427,3.68647934 15.633366,4.01717902 L18.0127885,6.45616624 C18.3251563,6.77635364 18.5,7.20595467 18.5,7.65327293 L18.5,7.74932765 L18.5,18.8 C18.5,19.7388841 17.7239602,20.5 16.7666667,20.5 L7.23333333,20.5 C6.27603977,20.5 5.5,19.7388841 5.5,18.8 L5.5,5.2 C5.5,4.26111593 6.27603977,3.5 7.23333333,3.5 L13.9800007,3.5 Z M12.5,5.2 L7.23333333,5.2 L7.23333333,18.8 L16.7666667,18.8 L16.7666667,9.5 L14.2142857,9.5 C13.2675119,9.5 12.5,8.73248814 12.5,7.78571429 L12.5,5.2 Z M14.4080631,5.23633788 C14.377807,5.22195899 14.3444503,5.21428571 14.3102888,5.21428571 C14.2572677,5.21428571 14.2142857,5.25726774 14.2142857,5.31028877 L14.2142857,7.58571429 C14.2142857,7.69617124 14.3038288,7.78571429 14.4142857,7.78571429 L16.7194936,7.78571429 C16.7379576,7.78571429 16.7546566,7.77815757 16.7666667,7.76596814 L16.7666667,7.64310203 C16.7594768,7.62958012 16.7503534,7.61702686 16.7394716,7.60587261 L15.1739259,6.00113616 L14.4080631,5.23633788 Z" id="Color" fill="#2859C0"></path>
    </g>
</svg>