<svg xmlns="http://www.w3.org/2000/svg" width="32" height="32" viewBox="0 0 32 32">
    <path fill="#0050D7" fill-rule="evenodd" d="M16.078 0c.21 0 .402.112.492.287a10.281 10.281 0 0 0 1.99 2.68 11.886 11.886 0 0 0 4.073 2.57c1.657.632 3.433.958 5.227.963a.55.55 0 0 1 .483.273c.258.464.487.942.687 1.431 1.275 3.122 2.959 8.399 2.958 10.15.121 2.179-.673 4.317-2.229 5.984-.563.566-2.73 1.85-6.168 3.724l-.579.314a368.364 368.364 0 0 1-6.745 3.56.585.585 0 0 1-.53 0l-.582-.3a427.182 427.182 0 0 1-6.753-3.574c-3.443-1.872-5.622-3.156-6.214-3.738C.658 22.672-.122 20.54.015 18.4c0-1.819 1.728-7.273 2.961-10.242.201-.474.431-.938.688-1.39a.551.551 0 0 1 .48-.268 14.825 14.825 0 0 0 5.228-.962 11.876 11.876 0 0 0 4.062-2.562c.819-.793 1.494-1.7 2-2.69A.549.549 0 0 1 15.926 0h.152zm-.076 1.452c-.492.8-1.09 1.544-1.78 2.212a12.969 12.969 0 0 1-4.435 2.798A15.98 15.98 0 0 1 4.48 7.496c-.18.335-.344.677-.491 1.022C2.808 11.363 1.102 16.75 1.1 18.43c-.12 1.91.565 3.79 1.897 5.229.44.432 2.426 1.611 5.416 3.248-2.633-3.449-2.99-8.123-.537-11.97 1.222-2.004 3.269-3.47 5.68-4.07 2.41-.6 4.98-.281 7.141.888 3.594 2.027 4.775 6.32 2.668 9.671-.81 1.322-2.163 2.29-3.755 2.683a6.612 6.612 0 0 1-4.718-.591c-2.403-1.35-3.19-4.22-1.772-6.46 1.152-1.807 3.677-2.415 5.653-1.354 1.629.915 2.166 2.859 1.212 4.373-.375.61-1 1.056-1.736 1.238a3.055 3.055 0 0 1-2.181-.276c-1.14-.634-1.514-1.994-.844-3.044a1.995 1.995 0 0 1 1.228-.877 2.17 2.17 0 0 1 1.55.197c.816.461 1.082 1.438.604 2.19-.195.32-.522.555-.907.65a1.587 1.587 0 0 1-1.134-.141 1.274 1.274 0 0 1-.448-.395l-.075-.122.046.114c.106.23.289.431.537.57.405.22.888.28 1.342.168a1.74 1.74 0 0 0 1.074-.769c.661-1.048.29-2.39-.825-3.017-1.45-.779-3.31-.33-4.158 1-1.12 1.768-.497 4.035 1.393 5.097a5.438 5.438 0 0 0 3.877.484c1.31-.325 2.424-1.12 3.093-2.213 1.816-2.888.799-6.58-2.283-8.319a8.83 8.83 0 0 0-6.3-.78c-2.128.53-3.935 1.825-5.02 3.602-2.986 4.684-1.404 10.703 3.58 13.612a568.88 568.88 0 0 0 3.603 1.882 325.327 325.327 0 0 0 1.836-.955 367.283 367.283 0 0 0 5.199-2.77c3.278-1.788 5.469-3.085 5.91-3.528 1.362-1.46 2.062-3.346 1.955-5.294 0-1.608-1.665-6.828-2.889-9.824-.147-.36-.312-.714-.493-1.06a15.978 15.978 0 0 1-5.302-1.034 12.98 12.98 0 0 1-4.448-2.808 11.382 11.382 0 0 1-1.768-2.202z"/>
</svg>
