<svg xmlns="http://www.w3.org/2000/svg" width="32" height="32" viewBox="0 0 32 32">
    <path fill="#0050D7" fill-rule="evenodd" d="M30.5 3.98a1.5 1.5 0 0 1 1.5 1.5v21a1.5 1.5 0 0 1-1.5 1.5L1.5 28A1.5 1.5 0 0 1 0 26.5v-21A1.5 1.5 0 0 1 1.5 4l29-.02zM31 12H1v14.5a.5.5 0 0 0 .5.5l29-.02a.5.5 0 0 0 .5-.5V12zm-15 2a6 6 0 1 1 0 12 6 6 0 0 1 0-12zm1.82 8h-3.64c.332 1.777 1.078 3 1.82 3s1.488-1.223 1.82-3zm-6.404 0a5.018 5.018 0 0 0 2.618 2.599c-.4-.685-.702-1.58-.873-2.599h-1.745zm9.168 0H18.84c-.171 1.019-.472 1.914-.874 2.599a5.018 5.018 0 0 0 2.62-2.6zm-7.545-3.001H11.1a5.023 5.023 0 0 0 0 2.001h1.94a12.693 12.693 0 0 1 0-2.001zm4.917 0h-3.912a11.405 11.405 0 0 0 0 2.002h3.912a11.405 11.405 0 0 0 0-2.002zm2.944 0h-1.94a12.693 12.693 0 0 1 0 2.002h1.94a5.023 5.023 0 0 0 0-2.001zm-6.865-3.598l-.075.033a5.019 5.019 0 0 0-2.544 2.565h1.746c.17-1.018.471-1.914.873-2.598zM16 15c-.742 0-1.487 1.222-1.82 2.999h3.64c-.319-1.702-1.016-2.895-1.727-2.993L16 15zm1.966.401l.011.02c.395.682.692 1.57.861 2.577l1.746.002a5.018 5.018 0 0 0-2.618-2.599zM30.5 4.98L1.5 5a.5.5 0 0 0-.5.5V11h30V5.48a.5.5 0 0 0-.5-.5zM4 7a1 1 0 1 1 0 2 1 1 0 0 1 0-2zm4 0a1 1 0 1 1 0 2 1 1 0 0 1 0-2zm4 0a1 1 0 1 1 0 2 1 1 0 0 1 0-2z"/>
</svg>
