<svg xmlns="http://www.w3.org/2000/svg" width="32" height="32" viewBox="0 0 32 32">
    <path fill="#0050D7" fill-rule="evenodd" d="M10.096 1.099l6.6 4.85a.5.5 0 0 1 .196.312l.246 1.345 2.85 1.9a.5.5 0 0 1 .216.339 199.869 199.869 0 0 1 .388 2.61l.056.397c.118.848.21 1.556.268 2.077.017.16.032.302.042.425l4.544-.913a.5.5 0 0 1 .397.09 23.03 23.03 0 0 0 2.408 1.576l.017.011 3.331 1.088a.5.5 0 0 1-.02.957L27.1 19.438c-.957.953-2.33 1.398-4.332 1.638-1.153 2.43-3.164 3.895-5.765 4.553-1.884.478-3.877.493-5.737.235-.22-.03-.42-.063-.6-.095l-2.555 3.973a.5.5 0 0 1-.351.225l-3.75.53a.5.5 0 0 1-.419-.137L.225 27.08l-.071-.069-.062-.071.06.069a.5.5 0 0 1-.057-.653l.06-.067a.506.506 0 0 1 .074-.058l9.298-6.008-.875-1.592a.5.5 0 0 1-.045-.371l1.356-4.97.368-3.615a.498.498 0 0 1 .015-.161l.12-1.156-1.159-6.773a.5.5 0 0 1 .79-.487zm15.385 14.366l-7.113 1.427a.499.499 0 0 1-.194 0l-2.963.879-4.681 3.014-5.605 8.572 2.468-.349 2.617-4.067a.5.5 0 0 1 .533-.216c.155.036.451.092.86.149 1.744.241 3.614.227 5.355-.214 2.174-.55 3.855-1.706 4.896-3.6-.597-.095-1.256-.376-2.089-.834-.17-.094-.336-.188-.583-.33-1.44-.83-1.946-1.064-2.442-1.064a.5.5 0 0 1 0-1c.756 0 1.3.253 2.94 1.197.243.14.404.231.568.321 1.046.576 1.737.811 2.275.727a.498.498 0 0 1 .223.016l-.17.021c1.783-.191 2.975-.508 3.803-1.202a.495.495 0 0 1 .346-.352l.018-.004c.396-.452.693-1.03.928-1.778a24.03 24.03 0 0 1-1.99-1.313zM8.466 22.114l-7.164 4.614 2.55 2.446 4.614-7.06zm2.036-19.476l.381 2.233 3.84 2.512a.5.5 0 0 1-.547.837l-3.063-2.005.35 2.042.004.135-.092.893 3.96 1.208a.5.5 0 0 1-.29.957l-3.775-1.152-.327 3.174-.156.573h.053a226.432 226.432 0 0 1 1.982-.037c2.046-.026 2.692-.017 2.926.132a.5.5 0 1 1-.536.843c.081.052-.006.04-.044.038-.14-.009-.336-.015-.584-.018a68.936 68.936 0 0 0-1.749.005 176.929 176.929 0 0 0-2.275.044h-.047l-.888 3.276.752 1.366 4.352-2.803.129-.059L17.667 16l-1.723-9.363-5.442-4zM28.388 17.19c-.113.348-.24.665-.383.955l1.775-.5-1.392-.455zm-3.548-.87a.5.5 0 1 1 0 1 .5.5 0 0 1 0-1zm-7.425-7.329l1.245 6.787 1.308-.267c-.01-.129-.026-.287-.046-.473a74.794 74.794 0 0 0-.265-2.048l-.055-.395a231.601 231.601 0 0 0-.353-2.38l-1.834-1.224z"/>
</svg>
