<svg xmlns="http://www.w3.org/2000/svg" width="32" height="32" viewBox="0 0 32 32">
    <path fill="#0050D7" fill-rule="evenodd" d="M24.702.411l5 27.8a.5.5 0 0 1-.404.581l-17.42 3.13a4.501 4.501 0 0 1-5.02-2.889.482.482 0 0 1-.05-.14l-.002-.013a4.54 4.54 0 0 1-.148-.591l-3.59-19.92a4.5 4.5 0 0 1 3.634-5.231l17.42-3.13a.5.5 0 0 1 .58.403zm2.646 20.36l-15.066 3.075a.505.505 0 0 1-.056.015l-.052.005-1.732.354a3.5 3.5 0 0 0-2.73 4.066l.064.342a3.5 3.5 0 0 0 3.926 2.31l16.927-3.042-.894-4.972-1.243.246.717 3.304a.5.5 0 0 1-.397.598L11.645 29.9a2.21 2.21 0 0 1-2.585-1.73 2.5 2.5 0 0 1 1.953-2.951l16.545-3.281-.21-1.167zm-1.837 2.594L11.21 26.2a1.5 1.5 0 0 0-1.17 1.77 1.21 1.21 0 0 0 1.418.948l14.664-2.735-.611-2.818zM7.835 3.95l-.957.172a3.5 3.5 0 0 0-2.826 4.07l3.126 17.344a4.494 4.494 0 0 1 3.062-2.296l1.303-.266L7.835 3.95zm15.971-2.87L8.82 3.774l3.704 19.002 14.648-2.987L23.806 1.08z"/>
</svg>
