<svg xmlns="http://www.w3.org/2000/svg" width="32" height="32" viewBox="0 0 32 32">
    <path fill="#0050D7" fill-rule="evenodd" d="M24.5 0A1.5 1.5 0 0 1 26 1.5V2h2.5A1.5 1.5 0 0 1 30 3.5v16a1.5 1.5 0 0 1-1.5 1.5H26v9.5a1.5 1.5 0 0 1-1.5 1.5h-18A1.5 1.5 0 0 1 5 30.5V27H2.5a.5.5 0 1 1 0-1H5v-6H2.5a.5.5 0 1 1 0-1H5v-6H2.5a.5.5 0 1 1 0-1H5V6H2.5a.5.5 0 0 1 0-1H5V1.5A1.5 1.5 0 0 1 6.5 0h18zm0 1h-18a.5.5 0 0 0-.5.5V5h2.5a.5.5 0 0 1 0 1H6v6h2.5a.5.5 0 1 1 0 1H6v6h2.5a.5.5 0 1 1 0 1H6v6h2.5a.5.5 0 1 1 0 1H6v3.5a.5.5 0 0 0 .5.5h18a.5.5 0 0 0 .5-.5v-29a.5.5 0 0 0-.5-.5zM16 15a5 5 0 0 1 5 5v2.5a.5.5 0 0 1-.5.5h-9a.5.5 0 0 1-.5-.5V20a5 5 0 0 1 5-5zm0 1a4 4 0 0 0-4 4v2h8v-2a4 4 0 0 0-4-4zm13-1h-3v5h2.5a.5.5 0 0 0 .5-.5V15zm0-6h-3v5h3V9zM16 8a3 3 0 1 1 0 6 3 3 0 0 1 0-6zm0 1a2 2 0 1 0 0 4 2 2 0 0 0 0-4zm12.5-6H26v5h3V3.5a.5.5 0 0 0-.5-.5z"/>
</svg>
