<svg xmlns="http://www.w3.org/2000/svg" width="32" height="32" viewBox="0 0 32 32">
    <path fill="#0050D7" fill-rule="evenodd" d="M27 4.5v1.86l2.427-.355A.5.5 0 0 1 30 6.5V8h.5A1.5 1.5 0 0 1 32 9.5v17c0 .921-.778 1.5-2 1.5H1a.5.5 0 0 1-.313-.11A1.848 1.848 0 0 1 0 26.5v-17A1.5 1.5 0 0 1 1.5 8H2V6.5a.5.5 0 0 1 .574-.495L5 6.368V4.5a.5.5 0 0 1 .686-.464l9.822 3.929L26.329 4.03A.5.5 0 0 1 27 4.5zM2 9h-.5a.5.5 0 0 0-.5.5v16.983a.84.84 0 0 0 .2.517h7.762l-6.538-1.006A.5.5 0 0 1 2 25.5V9zm28.5 0H30v16.5a.5.5 0 0 1-.43.495L22.537 27H30c.723 0 1-.206 1-.5v-17a.5.5 0 0 0-.5-.5zM26 5.214L16 8.85v17.936l10-3.636V5.214zM6 5.239l.001 1.617a.5.5 0 0 1 .004.168L6 7.04v16.12l9 3.6V8.84l-9-3.6zM3 7.08v17.991l8.255 1.269-5.94-2.376A.5.5 0 0 1 5 23.5V7.379L3 7.08zm26-.001l-2 .293V23.5a.5.5 0 0 1-.33.47l-6.472 2.354L29 25.066V7.08zM8.178 19.033l5.5 2.1a.5.5 0 1 1-.356.934l-5.5-2.1a.5.5 0 0 1 .356-.934zm16.29.289a.5.5 0 0 1-.29.645l-5.5 2.1a.5.5 0 1 1-.356-.934l5.5-2.1a.5.5 0 0 1 .645.289zm-16.29-3.29l5.5 2.1a.5.5 0 1 1-.356.935l-5.5-2.1a.5.5 0 0 1 .356-.934zm16.29.29a.5.5 0 0 1-.29.645l-5.5 2.1a.5.5 0 1 1-.356-.934l5.5-2.1a.5.5 0 0 1 .645.289zm-16.29-3.29l5.5 2.1a.5.5 0 1 1-.356.935l-5.5-2.1a.5.5 0 0 1 .356-.934zm16.29.29a.5.5 0 0 1-.29.645l-5.5 2.1a.5.5 0 1 1-.356-.934l5.5-2.1a.5.5 0 0 1 .645.289zm-16.29-3.29l5.5 2.1a.5.5 0 1 1-.356.935l-5.5-2.1a.5.5 0 0 1 .356-.934zm16.29.29a.5.5 0 0 1-.29.645l-5.5 2.1a.5.5 0 1 1-.356-.934l5.5-2.1a.5.5 0 0 1 .645.289z"/>
</svg>
