<svg xmlns="http://www.w3.org/2000/svg" width="32" height="32" viewBox="0 0 32 32">
    <path fill="#0050D7" fill-rule="evenodd" d="M31.854.146a.5.5 0 0 1 0 .708L14.712 17.995l1.012 1.012a2.5 2.5 0 0 1 .338 3.111l-6.14 9.65a.5.5 0 0 1-.776.086l-9-9a.5.5 0 0 1 .086-.776l9.649-6.14a2.5 2.5 0 0 1 3.113.338l1.011 1.012L31.146.146a.5.5 0 0 1 .708 0zM8.374 18.081l-7.08 4.506L3.5 24.793l1.646-1.647a.5.5 0 0 1 .708.708L4.207 25.5 6.5 27.793l1.646-1.647a.5.5 0 0 1 .708.708L7.207 28.5l2.206 2.206 4.504-7.082-5.543-5.543zm2.044-1.3l-1.179.751 5.228 5.228.752-1.18a1.5 1.5 0 0 0-.203-1.866l-1.307-1.307a.503.503 0 0 1-.063-.053l-.053-.064-1.306-1.306a1.5 1.5 0 0 0-1.869-.202z"/>
</svg>
