<svg xmlns="http://www.w3.org/2000/svg" width="32" height="32" viewBox="0 0 32 32">
    <path fill="#0050D7" fill-rule="evenodd" d="M31.224.777c.99.975 1.059 2.55.148 3.617L16.916 20.49a.501.501 0 0 1-.073.093l-.048.039-.006.008-6.057 4.523a9.99 9.99 0 0 1-2.268 4.2C6.52 31.296 3.763 32 1.2 32H1a1 1 0 0 1-1-1l-.001-.058c-.008-.476.016-1.036.103-1.716.133-1.038.386-2.062.789-3.025.428-1.022 1.006-1.926 1.774-2.692a9.97 9.97 0 0 1 4.181-2.251l3.001-4.01a.499.499 0 0 1 .095-.127l1.379-1.84a.5.5 0 0 1 .096-.135l.013-.011.006-.007L27.614.62a2.64 2.64 0 0 1 3.61.156zM7.256 22.187a8.954 8.954 0 0 0-3.902 2.047c-.652.651-1.16 1.445-1.54 2.353a10.693 10.693 0 0 0-.72 2.766A10.932 10.932 0 0 0 1 31h.2c2.322 0 4.848-.645 6.539-2.335a8.97 8.97 0 0 0 1.996-3.653l-2.754-2.754.275-.072zm4.568-5.925l-.882 1.182 1.493 1.594a.5.5 0 0 1-.73.684l-1.371-1.464-2.54 3.4 2.544 2.543 5.397-4.02-3.911-3.919zm16.45-14.89L12.49 15.513l3.98 3.989L30.62 3.736a1.65 1.65 0 0 0-.1-2.25l-.008-.007a1.638 1.638 0 0 0-2.238-.107z"/>
</svg>
