<svg xmlns="http://www.w3.org/2000/svg" width="32" height="32" viewBox="0 0 32 32">
    <path fill="#0050D7" fill-rule="evenodd" d="M22.77 3a.5.5 0 0 1 .471.332L24.903 8H31.5a.5.5 0 0 1 .5.5v20a.5.5 0 0 1-.5.5H.5a.5.5 0 0 1-.5-.5v-22A.5.5 0 0 1 .5 6h3a.5.5 0 0 1 .5.5V8h2.888l1.671-4.669A.5.5 0 0 1 9.03 3h13.74zm-.353 1H9.382L7.711 8.669A.5.5 0 0 1 7.24 9H3.5a.5.5 0 0 1-.5-.5V7H1v21h30V9h-6.45a.5.5 0 0 1-.471-.332L22.417 4zM16 10a8 8 0 1 1 0 16 8 8 0 0 1 0-16zm0 1a7 7 0 1 0 0 14 7 7 0 0 0 0-14zm0 2a5 5 0 1 1 0 10 5 5 0 0 1 0-10zm0 1a4 4 0 1 0 0 8 4 4 0 0 0 0-8zm11-3a2 2 0 1 1 0 4 2 2 0 0 1 0-4zm0 1a1 1 0 1 0 0 2 1 1 0 0 0 0-2z"/>
</svg>
