<svg xmlns="http://www.w3.org/2000/svg" width="32" height="32" viewBox="0 0 32 32">
    <path fill="#0050D7" fill-rule="evenodd" d="M9.778 23.5a4.056 4.056 0 1 1 0 8.111 4.056 4.056 0 0 1 0-8.111zm17.778 0a4.056 4.056 0 1 1 0 8.111 4.056 4.056 0 0 1 0-8.111zm-17.778 1a3.056 3.056 0 1 0 0 6.111 3.056 3.056 0 0 0 0-6.111zm17.778 0a3.056 3.056 0 1 0 0 6.111 3.056 3.056 0 0 0 0-6.111zM4.444.389a.5.5 0 0 1 .5.5v1.277H31.11a.5.5 0 0 1 .5.5v7.112a5.833 5.833 0 0 1-5.833 5.833H4.944v3.056c0 .705.573 1.277 1.278 1.277h24.89a.5.5 0 0 1 0 1H6.221a2.278 2.278 0 0 1-2.278-2.277V1.389H.89a.5.5 0 0 1 0-1h3.555zm.5 14.222h20.834a4.833 4.833 0 0 0 4.833-4.833V3.167L4.944 3.166V14.61z"/>
</svg>
