<svg xmlns="http://www.w3.org/2000/svg" width="32" height="32" viewBox="0 0 32 32">
    <path fill="#0050D7" fill-rule="evenodd" d="M16.62 4c5.523 0 10 4.477 10 10 0 6.136-5.998 18-10 18-3.316 0-10-12.428-10-18 0-5.523 4.477-10 10-10zm0 1a9 9 0 0 0-9 9c0 5.093 6.404 17 9 17 3.265 0 9-11.345 9-17a9 9 0 0 0-9-9zm.01 3a6 6 0 1 1 0 12 6 6 0 0 1 0-12zm0 1a5 5 0 1 0 0 10 5 5 0 0 0 0-10zm1.99 3a8.66 8.66 0 0 1-1.29 2.71 1 1 0 0 1-1.41-1.41 8 8 0 0 1 2.7-1.3zM9.247 2.977a.5.5 0 0 1-.094.7A13.07 13.07 0 0 0 5.927 7.26a.5.5 0 0 1-.854-.52 14.07 14.07 0 0 1 3.474-3.857.5.5 0 0 1 .7.094zm15.011-.125a14.05 14.05 0 0 1 3.889 3.473.5.5 0 0 1-.794.61 13.05 13.05 0 0 0-3.611-3.227.5.5 0 0 1 .516-.856zM19.13 0a.5.5 0 1 1 0 1h-5a.5.5 0 1 1 0-1h5z"/>
</svg>
