<svg xmlns="http://www.w3.org/2000/svg" width="32" height="32" viewBox="0 0 32 32">
    <path fill="#0050D7" fill-rule="evenodd" d="M19.318 4.788C25.665 5.926 29.73 11.457 29.73 18A13.99 13.99 0 1 1 11.063 4.81a.5.5 0 0 1 .334.942A12.99 12.99 0 1 0 28.73 18c0-6.083-3.746-11.18-9.588-12.228a.5.5 0 0 1 .176-.984zM15.23 0a.5.5 0 0 1 .5.5v16a.5.5 0 1 1-1 0V.5a.5.5 0 0 1 .5-.5zm9.021 3.278a17.08 17.08 0 0 1 6.243 6.294.5.5 0 1 1-.868.496 16.08 16.08 0 0 0-5.877-5.926.5.5 0 1 1 .502-.864zM7.903 3.46a.5.5 0 0 1-.183.683A16.09 16.09 0 0 0 1.9 9.895a.5.5 0 0 1-.86-.51 17.09 17.09 0 0 1 6.18-6.108.5.5 0 0 1 .683.183z"/>
</svg>
