<svg xmlns="http://www.w3.org/2000/svg" width="32" height="32" viewBox="0 0 32 32">
    <path fill="#0050D7" fill-rule="evenodd" d="M16 .3A15.7 15.7 0 1 1 5.37 4.468H.8a.5.5 0 0 1 0-1h6.4a.5.5 0 0 1 .5.501l-.016 6.4a.5.5 0 0 1-1-.002l.015-5.899h-.354a.5.5 0 0 1-.124.577 14.7 14.7 0 1 0 24.255 8.271C29.18 6.344 23.093 1.29 16.018 1.3l-.896.032a.5.5 0 1 1-.036-1L16 .3zm6.364 11.357a.5.5 0 0 1-.02.707l-8.471 8a.5.5 0 0 1-.687 0l-3.53-3.334a.5.5 0 1 1 .687-.727l3.186 3.01 8.128-7.677a.5.5 0 0 1 .707.02z"/>
</svg>
