<svg xmlns="http://www.w3.org/2000/svg" width="32" height="32" viewBox="0 0 32 32">
    <path fill="#0050D7" fill-rule="evenodd" d="M20.044 5.284A8.99 8.99 0 0 1 26.97 14v.285A7 7 0 0 1 25 28H6.998a7 7 0 0 1-3.846-12.832 4.96 4.96 0 0 1 7.053-5.648 8.99 8.99 0 0 1 9.839-4.236zm-9.198 5.151a.5.5 0 0 1-.72.193 3.96 3.96 0 0 0-5.913 4.6.5.5 0 0 1-.22.594A6 6 0 0 0 7 27h18a6 6 0 0 0 1.356-11.843.5.5 0 0 1-.386-.487v-.668a7.99 7.99 0 0 0-15.124-3.567zM22.5 13a1.5 1.5 0 0 1 1.5 1.5v4c0 .385-.145.736-.383 1.001.239.264.383.615.383.999v4a1.5 1.5 0 0 1-1.5 1.5h-15A1.5 1.5 0 0 1 6 24.5v-4c0-.384.144-.735.382-1a1.493 1.493 0 0 1-.382-1v-4A1.5 1.5 0 0 1 7.5 13h15zm0 7h-15a.5.5 0 0 0-.5.5v4a.5.5 0 0 0 .5.5h15a.5.5 0 0 0 .5-.5v-4a.5.5 0 0 0-.5-.5zm-1 1a.5.5 0 1 1 0 1 .5.5 0 0 1 0-1zm1-7h-15a.5.5 0 0 0-.5.5v4a.5.5 0 0 0 .41.492L7.5 19h15a.5.5 0 0 0 .5-.5v-4a.5.5 0 0 0-.5-.5zm-1 1a.5.5 0 1 1 0 1 .5.5 0 0 1 0-1z"/>
</svg>
