<svg xmlns="http://www.w3.org/2000/svg" width="32" height="32" viewBox="0 0 32 32">
    <path fill="#0050D7" fill-rule="evenodd" d="M16.53 4a2.5 2.5 0 0 1 2.014 1.016A9 9 0 0 1 26.97 14v.285A7 7 0 0 1 25 28h-8.42a.5.5 0 0 1-.131-.017L2.47 27.98a2.5 2.5 0 0 1-2.5-2.5v-6.5h.029L0 12.5V6.625A2.5 2.5 0 0 1 2.5 4h14.03zm2.465 2.063l.022.143c.015.131.02.264.013.397l-.031 5.997.001 6.9h-.03l.03 5.977c0 .574-.192 1.102-.516 1.523H25a6 6 0 0 0 1.357-11.843.5.5 0 0 1-.386-.487V14a8.001 8.001 0 0 0-6.975-7.937zM17.972 19.98H.97v5.5a1.5 1.5 0 0 0 1.5 1.5H16.5a1.5 1.5 0 0 0 1.5-1.499l-.028-5.501zM15.5 24a.5.5 0 1 1 0 1 .5.5 0 0 1 0-1zm0-2a.5.5 0 1 1 0 1 .5.5 0 0 1 0-1zm2.499-9h-17v5.98h17V13zM15.5 16a.5.5 0 1 1 0 1 .5.5 0 0 1 0-1zm0-2a.5.5 0 1 1 0 1 .5.5 0 0 1 0-1zm1.03-9H2.5A1.5 1.5 0 0 0 1 6.438V12h17.003l.028-5.425a1.5 1.5 0 0 0-.114-.651.496.496 0 0 1-.235-.383.58.58 0 0 0-.063-.075A1.5 1.5 0 0 0 16.53 5zM15.5 9a.5.5 0 1 1 0 1 .5.5 0 0 1 0-1zm0-2a.5.5 0 1 1 0 1 .5.5 0 0 1 0-1z"/>
</svg>
