<svg xmlns="http://www.w3.org/2000/svg" width="32" height="32" viewBox="0 0 32 32">
    <path fill="#0050D7" fill-rule="evenodd" d="M15.033 15.753l.348 2.117a.47.47 0 0 1-.37.537L13 18.823a.47.47 0 1 1-.19-.922l1.081-.224a4.123 4.123 0 0 0-4.745-.403c-1.632.956-2.43 2.906-1.946 4.756.485 1.848 2.129 3.137 4.008 3.146 1.938 0 3.107-1.357 4.357-4.413l.002-.004.128-.307c1.338-3.169 2.717-4.687 5.087-4.687 2.819 0 5.101 2.319 5.101 5.176s-2.282 5.177-5.103 5.177a5.29 5.29 0 0 1-3.634-1.473.47.47 0 0 1 .65-.68 4.348 4.348 0 0 0 2.986 1.211c2.296 0 4.16-1.894 4.16-4.235 0-2.34-1.864-4.235-4.16-4.235-1.932 0-3.098 1.357-4.345 4.413l-.005.009-.125.303c-1.342 3.168-2.724 4.687-5.101 4.687-2.31-.012-4.324-1.59-4.916-3.85-.591-2.257.383-4.636 2.38-5.806a5.062 5.062 0 0 1 5.577.298l-.141-.855a.47.47 0 1 1 .928-.152zm4.109-11.279a8.942 8.942 0 0 1 6.933 7.96 6.824 6.824 0 0 1 2.09 12.34.47.47 0 0 1-.515-.788 5.882 5.882 0 0 0-2.11-10.705.47.47 0 0 1-.382-.441A8.001 8.001 0 0 0 10.11 9.426a.47.47 0 0 1-.577.22 3.765 3.765 0 0 0-5.061 3.527c0 .171.013.342.037.512a.47.47 0 0 1-.207.459 5.882 5.882 0 0 0 .099 9.894.47.47 0 1 1-.502.796 6.824 6.824 0 0 1-.354-11.312A4.706 4.706 0 0 1 9.472 8.64a8.941 8.941 0 0 1 9.67-4.166z"/>
</svg>
