<svg xmlns="http://www.w3.org/2000/svg" width="32" height="32" viewBox="0 0 32 32">
    <path fill="#0050D7" fill-rule="evenodd" d="M16.533.033a3.7 3.7 0 1 1-.805 7.312l-2.334 6.27a9.57 9.57 0 0 1 5.735 9.64l5.579.796a3.702 3.702 0 0 1 7.259 1.016 3.7 3.7 0 0 1-7.4 0v-.026l-5.578-.796c-.86 4.4-4.736 7.722-9.389 7.722A9.567 9.567 0 0 1 .033 22.4a9.569 9.569 0 0 1 5.715-8.76l-1.183-3.1a3.7 3.7 0 1 1 .935-.354l1.183 3.1a9.56 9.56 0 0 1 2.917-.453c.995 0 1.954.152 2.856.434l2.335-6.269A3.7 3.7 0 0 1 16.533.033zm-6.09 24.627H8.757a4.524 4.524 0 0 0-4.522 4.418A8.525 8.525 0 0 0 9.6 30.967a8.53 8.53 0 0 0 5.365-1.888l.002.105a4.524 4.524 0 0 0-4.524-4.524zM9.6 13.833a8.567 8.567 0 0 0-6.283 14.39 5.529 5.529 0 0 1 4.02-4.379 4.233 4.233 0 1 1 4.525.001 5.528 5.528 0 0 1 4.021 4.379A8.567 8.567 0 0 0 9.6 13.834zm18.667 8.534a2.7 2.7 0 1 0 0 5.4 2.7 2.7 0 0 0 0-5.4zM9.6 17.033a3.233 3.233 0 1 0 0 6.467 3.233 3.233 0 0 0 0-6.467zm-5.867-12.8a2.7 2.7 0 1 0 0 5.4 2.7 2.7 0 0 0 0-5.4zm12.8-3.2a2.7 2.7 0 1 0 0 5.4 2.7 2.7 0 0 0 0-5.4z"/>
</svg>
