<svg xmlns="http://www.w3.org/2000/svg" width="32" height="32" viewBox="0 0 32 32">
    <path fill="#0050D7" fill-rule="evenodd" d="M23 0a2 2 0 0 1 2 2v2h1.5A1.5 1.5 0 0 1 28 5.5V7h2a2 2 0 1 1 0 4h-2v3h2a2 2 0 1 1 0 4h-2v3h2a2 2 0 1 1 0 4h-2v1.5a1.5 1.5 0 0 1-1.5 1.5H25v2a2 2 0 1 1-4 0v-2h-3v2a2 2 0 1 1-4 0v-2h-3v2a2 2 0 1 1-4 0v-2H5.5A1.5 1.5 0 0 1 4 26.5V25H2a2 2 0 1 1 0-4h2v-3H2a2 2 0 1 1 0-4h2v-3H2a2 2 0 1 1 0-4h2V5.5A1.5 1.5 0 0 1 5.5 4H7V2a2 2 0 1 1 4 0v2h3V2a2 2 0 1 1 4 0v2h3V2a2 2 0 0 1 2-2zm-6 28h-2v2a1 1 0 0 0 2 0v-2zm7 0h-2v2a1 1 0 0 0 2 0v-2zm-14 0H8v2a1 1 0 0 0 2 0v-2zM26.5 5h-21a.5.5 0 0 0-.5.5v21a.5.5 0 0 0 .5.5h21a.5.5 0 0 0 .5-.5v-21a.5.5 0 0 0-.5-.5zM28 24h2a1 1 0 0 0 0-2h-2v2zM4 22H2a1 1 0 0 0 0 2h2v-2zm16.5-12a1.5 1.5 0 0 1 1.5 1.5v9a1.5 1.5 0 0 1-1.5 1.5h-9a1.5 1.5 0 0 1-1.5-1.5v-9a1.5 1.5 0 0 1 1.5-1.5h9zm0 1h-9a.5.5 0 0 0-.5.5v9a.5.5 0 0 0 .5.5h9a.5.5 0 0 0 .5-.5v-9a.5.5 0 0 0-.5-.5zm9.5 4h-2v2h2a1 1 0 0 0 0-2zM4 15H2a1 1 0 0 0 0 2h2v-2zm26-7h-2v2h2a1 1 0 0 0 0-2zM4 8H2a1 1 0 1 0 0 2h2V8zm5-7a1 1 0 0 0-1 1v2h2V2a1 1 0 0 0-1-1zm14 0a1 1 0 0 0-1 1v2h2V2a1 1 0 0 0-1-1zm-7 0a1 1 0 0 0-1 1v2h2V2a1 1 0 0 0-1-1z"/>
</svg>
