<svg xmlns="http://www.w3.org/2000/svg" width="32" height="32" viewBox="0 0 32 32">
    <path fill="#0050D7" fill-rule="evenodd" d="M30.5 2A1.5 1.5 0 0 1 32 3.5v19a1.5 1.5 0 0 1-1.5 1.5h-9.665l1.366 5H23.5a.5.5 0 1 1 0 1h-15a.5.5 0 1 1 0-1h1.576l.833-5H1.5A1.5 1.5 0 0 1 0 22.5v-19A1.5 1.5 0 0 1 1.5 2h29zM19.798 24h-7.875l-.833 5h10.075l-1.367-5zM30.5 3h-29a.5.5 0 0 0-.5.5v19a.5.5 0 0 0 .5.5h29a.5.5 0 0 0 .5-.5v-19a.5.5 0 0 0-.5-.5zM19.607 7c.406-.002.796.16 1.096.468l.877.985c.272.282.422.659.42 1.047v8a1.5 1.5 0 0 1-1.5 1.5h-9a1.5 1.5 0 0 1-1.5-1.5v-9A1.5 1.5 0 0 1 11.5 7h8.107zM13 7.999L11.5 8a.5.5 0 0 0-.5.5v9a.5.5 0 0 0 .5.5h9a.5.5 0 0 0 .5-.5V9.497c0-.13-.05-.256-.153-.365l-.874-.982A.502.502 0 0 0 19.61 8L19 7.999V10.5a.5.5 0 0 1-.5.5h-5a.5.5 0 0 1-.5-.5V7.999zM19.5 12a.5.5 0 0 1 .5.5v4a.5.5 0 0 1-.5.5h-7a.5.5 0 0 1-.5-.5v-4a.5.5 0 0 1 .5-.5h7zm-.5 1h-6v3h6v-3zm-1-5.001h-4V10h4V7.999z"/>
</svg>
