<svg xmlns="http://www.w3.org/2000/svg" width="32" height="32" viewBox="0 0 32 32">
    <path fill="#0050D7" fill-rule="evenodd" d="M28.467.033a3.5 3.5 0 0 1 3.5 3.5v24.934a3.5 3.5 0 0 1-3.5 3.5H3.533a3.5 3.5 0 0 1-3.5-3.5V3.533a3.5 3.5 0 0 1 3.5-3.5h24.934zm-12.434 17h-15v11.434a2.5 2.5 0 0 0 2.5 2.5h12.5V17.032zm14.933 0H17.033v13.933h11.434a2.5 2.5 0 0 0 2.5-2.5V17.034zm-6.433 9.634a1.067 1.067 0 1 1 0 2.133 1.067 1.067 0 0 1 0-2.133zM4.087 19.38l3.912 3.912 3.914-3.912a.5.5 0 0 1 .707.707l-3.914 3.912 3.914 3.914a.5.5 0 0 1-.707.707L8 24.706 4.087 28.62a.5.5 0 0 1-.707-.707L7.292 24 3.38 20.087a.5.5 0 0 1 .707-.707zm25.246 4.12a.5.5 0 1 1 0 1h-9.6a.5.5 0 0 1 0-1h9.6zm-4.8-4.3a1.067 1.067 0 1 1 0 2.133 1.067 1.067 0 0 1 0-2.133zm-8.5-18.168l-12.5.001a2.5 2.5 0 0 0-2.5 2.5v12.5h15v-15zm12.434.001H17.033v15h13.933v-12.5a2.5 2.5 0 0 0-2.5-2.5zM8 2.167a.5.5 0 0 1 .5.5v4.832l4.833.001a.5.5 0 1 1 0 1H8.5l.001 4.833a.5.5 0 1 1-1 0V8.5L2.666 8.5a.5.5 0 1 1 0-1h4.832L7.5 2.666a.5.5 0 0 1 .5-.5zM28.267 7.5a.5.5 0 0 1 0 1h-8.534a.5.5 0 0 1 0-1h8.534z"/>
</svg>
