<svg xmlns="http://www.w3.org/2000/svg" width="32" height="32" viewBox="0 0 32 32">
    <path fill="#0050D7" fill-rule="evenodd" d="M28.5 6A1.5 1.5 0 0 1 30 7.5V23h1.5a.5.5 0 0 1 .5.5v2a1.5 1.5 0 0 1-1.5 1.5h-29A1.5 1.5 0 0 1 0 25.5v-2a.5.5 0 0 1 .5-.5H2V7.5A1.5 1.5 0 0 1 3.5 6h25zM31 24H1v1.5a.5.5 0 0 0 .5.5h29a.5.5 0 0 0 .5-.5V24zM28.5 7h-25a.5.5 0 0 0-.5.5V23h26V7.5a.5.5 0 0 0-.5-.5zm-9.796 4.682a3.963 3.963 0 0 1 2.749 3.501 3.278 3.278 0 0 1 2.02 3.455 3.26 3.26 0 0 1-3.19 2.862h-7.571a3.26 3.26 0 0 1-3.186-2.862 3.278 3.278 0 0 1 2.018-3.453 2.572 2.572 0 0 1 2.555-2.315c.14.001.279.015.416.04a3.92 3.92 0 0 1 4.19-1.228zm-3.582 2.078a.5.5 0 0 1-.567.188 1.538 1.538 0 0 0-.462-.078c-.862 0-1.563.706-1.563 1.58v.098a.5.5 0 0 1-.368.482 2.274 2.274 0 0 0-1.644 2.483 2.258 2.258 0 0 0 2.2 1.987h7.558a2.26 2.26 0 0 0 2.206-1.987 2.275 2.275 0 0 0-1.612-2.474.5.5 0 0 1-.407-.491v-.095a2.965 2.965 0 0 0-2.06-2.817 2.922 2.922 0 0 0-3.28 1.124zM16.5 8a.5.5 0 1 1 0 1h-1a.5.5 0 1 1 0-1h1z"/>
</svg>
