<svg xmlns="http://www.w3.org/2000/svg" width="32" height="32" viewBox="0 0 32 32">
    <path fill="#0050D7" fill-rule="evenodd" d="M31.477 17.1a.51.51 0 0 1 .51.51v13.867a.51.51 0 0 1-.51.51H.544a.51.51 0 0 1-.51-.51V17.611a.51.51 0 0 1 .51-.51h30.933zm-.51 1.02H1.054v12.847h29.913V18.121zm-3.756 2.19a.5.5 0 0 1 .5.5v7.467a.5.5 0 0 1-1 0v-7.466a.5.5 0 0 1 .5-.5zm-3.2 0a.5.5 0 0 1 .5.5v7.467a.5.5 0 0 1-1 0v-7.466a.5.5 0 0 1 .5-.5zm-3.2 0a.5.5 0 0 1 .5.5v7.467a.5.5 0 0 1-1 0v-7.466a.5.5 0 0 1 .5-.5zm-3.2 0a.5.5 0 0 1 .5.5v7.467a.5.5 0 0 1-1 0v-7.466a.5.5 0 0 1 .5-.5zm-3.2 0a.5.5 0 0 1 .5.5v7.467a.5.5 0 0 1-1 0v-7.466a.5.5 0 0 1 .5-.5zm-3.2 0a.5.5 0 0 1 .5.5v7.467a.5.5 0 0 1-1 0v-7.466a.5.5 0 0 1 .5-.5zm-3.2 0a.5.5 0 0 1 .5.5v7.467a.5.5 0 1 1-1 0v-7.466a.5.5 0 0 1 .5-.5zm-3.2 0a.5.5 0 0 1 .5.5v7.467a.5.5 0 1 1-1 0v-7.466a.5.5 0 0 1 .5-.5zM31.477.035a.51.51 0 0 1 .51.51v13.867a.51.51 0 0 1-.51.51H.544a.51.51 0 0 1-.51-.51V.544a.51.51 0 0 1 .51-.51h30.933zm-.51 1.02H1.054v12.847h29.913V1.054zm-3.756 2.19a.5.5 0 0 1 .5.5v7.467a.5.5 0 0 1-1 0V3.744a.5.5 0 0 1 .5-.5zm-3.2 0a.5.5 0 0 1 .5.5v7.467a.5.5 0 0 1-1 0V3.744a.5.5 0 0 1 .5-.5zm-3.2 0a.5.5 0 0 1 .5.5v7.467a.5.5 0 0 1-1 0V3.744a.5.5 0 0 1 .5-.5zm-3.2 0a.5.5 0 0 1 .5.5v7.467a.5.5 0 0 1-1 0V3.744a.5.5 0 0 1 .5-.5zm-3.2 0a.5.5 0 0 1 .5.5v7.467a.5.5 0 0 1-1 0V3.744a.5.5 0 0 1 .5-.5zm-3.2 0a.5.5 0 0 1 .5.5v7.467a.5.5 0 0 1-1 0V3.744a.5.5 0 0 1 .5-.5zm-3.2 0a.5.5 0 0 1 .5.5v7.467a.5.5 0 0 1-1 0V3.744a.5.5 0 0 1 .5-.5zm-3.2 0a.5.5 0 0 1 .5.5v7.467a.5.5 0 0 1-1 0V3.744a.5.5 0 0 1 .5-.5z"/>
</svg>
