<svg xmlns="http://www.w3.org/2000/svg" width="32" height="32" viewBox="0 0 32 32">
    <path fill="#0050D7" fill-rule="evenodd" d="M25.026 8.809a16 16 0 0 1 6.571 16.803.5.5 0 0 1-.487.388H.9a.5.5 0 0 1-.487-.388A16 16 0 0 1 25.026 8.81zm-17.478.826A15 15 0 0 0 1.303 25h29.404A15 15 0 0 0 7.547 9.635zM19.5 18.45c.39.39-2.44 3.86-2.83 4.24a1 1 0 0 1-1.41-1.41c.39-.39 3.85-3.22 4.24-2.83zm8 2.55a.5.5 0 1 1 0 1h-2.48a.5.5 0 1 1 0-1h2.48zM7 21a.5.5 0 1 1 0 1H4.5a.5.5 0 1 1 0-1H7zm-.006-6.664l2.02 1.47a.5.5 0 0 1-.588.808l-2.02-1.47a.5.5 0 0 1 .588-.808zm18.71.11a.5.5 0 0 1-.11.698l-2.02 1.47a.5.5 0 0 1-.588-.808l2.02-1.47a.5.5 0 0 1 .698.11zm-6-4.362a.5.5 0 0 1 .322.63l-.77 2.38a.5.5 0 0 1-.952-.308l.77-2.38a.5.5 0 0 1 .63-.322zm-6.778.322l.77 2.37a.5.5 0 0 1-.952.308l-.77-2.37a.5.5 0 0 1 .952-.308z"/>
</svg>
