<svg xmlns="http://www.w3.org/2000/svg" width="32" height="32" viewBox="0 0 32 32">
    <path fill="#0050D7" fill-rule="evenodd" d="M28.5 5A3.5 3.5 0 0 1 32 8.5v15a3.5 3.5 0 0 1-3.5 3.5h-25A3.5 3.5 0 0 1 0 23.5v-15A3.5 3.5 0 0 1 3.5 5h25zM31 15H1v8.5A2.5 2.5 0 0 0 3.5 26h25a2.5 2.5 0 0 0 2.5-2.5V15zM4.5 21a.5.5 0 0 1 .5.5v2a.5.5 0 1 1-1 0v-2a.5.5 0 0 1 .5-.5zm4 0a.5.5 0 0 1 .5.5v2a.5.5 0 1 1-1 0v-2a.5.5 0 0 1 .5-.5zm4 0a.5.5 0 0 1 .5.5v2a.5.5 0 1 1-1 0v-2a.5.5 0 0 1 .5-.5zM31 10H1v4h30v-4zm-2.5-4h-25A2.5 2.5 0 0 0 1 8.5V9h30v-.5A2.5 2.5 0 0 0 28.5 6z"/>
</svg>
