<svg xmlns="http://www.w3.org/2000/svg" width="31" height="31" viewBox="0 0 31 31">
    <path fill="#0050D7" fill-rule="evenodd" d="M.736 28.77a.717.717 0 0 1 .533.23.845.845 0 0 1 .223.61.814.814 0 0 1-.223.59.717.717 0 0 1-.533.23.735.735 0 0 1-.543-.23.804.804 0 0 1-.223-.59.835.835 0 0 1 .223-.61.726.726 0 0 1 .543-.23zm11.985-5.09a2.54 2.54 0 0 1 1.057.21c.306.135.575.344.786.61.222.297.383.637.475 1 .115.402.17.82.165 1.24.015.2.015.4 0 .6h-4.228c.024.593.247 1.158.63 1.6.38.406.908.627 1.455.61.28.003.56-.044.824-.14.255-.092.499-.212.727-.36l.369.71a5.277 5.277 0 0 1-.912.46 3.085 3.085 0 0 1-1.144.2c-.402.004-.8-.074-1.173-.23a2.749 2.749 0 0 1-.97-.66 3.107 3.107 0 0 1-.63-1.05 4.113 4.113 0 0 1-.233-1.41h.01a4 4 0 0 1 .232-1.42 3.37 3.37 0 0 1 .63-1.07 2.75 2.75 0 0 1 .893-.67c.326-.152.68-.23 1.037-.23zm5.1-1.68v1.8H19.5v.88h-1.677v3.62c-.018.322.056.642.213.92.18.23.461.351.747.32.121 0 .242-.017.359-.05l.349-.12.203.82a5.368 5.368 0 0 1-.562.16c-.194.047-.392.07-.592.07a1.992 1.992 0 0 1-.843-.16 1.432 1.432 0 0 1-.553-.44 1.715 1.715 0 0 1-.3-.67 4.007 4.007 0 0 1-.088-.87v-3.55h-.97v-.82l.97-.07.184-1.84h.883zm-9.92 2.32c.341.561.5 1.22.457 1.88v4.07H7.32v-3.93A2.35 2.35 0 0 0 7.039 25a1.014 1.014 0 0 0-.902-.4c-.302-.006-.6.081-.853.25a5.576 5.576 0 0 0-.844.74v4.65H3.383v-6.4h.873l.087.93c.292-.296.617-.555.97-.77a2.103 2.103 0 0 1 1.144-.31 1.654 1.654 0 0 1 1.445.63zm4.84.23c-.218 0-.433.048-.63.14a1.757 1.757 0 0 0-.544.4c-.173.186-.31.403-.407.64-.114.277-.186.57-.213.87l3.335-.02a2.435 2.435 0 0 0-.407-1.51 1.35 1.35 0 0 0-1.134-.52zm1.28-7.62a.717.717 0 0 1 .533.23.845.845 0 0 1 .223.61.814.814 0 0 1-.223.59.717.717 0 0 1-.533.23.735.735 0 0 1-.543-.23.814.814 0 0 1-.223-.59.845.845 0 0 1 .223-.61.735.735 0 0 1 .543-.23zM17.715 9v3.73c.294-.257.62-.473.97-.64.318-.169.67-.258 1.028-.26.368-.008.732.07 1.066.23.306.153.572.38.776.66.218.3.379.639.475 1 .113.437.168.888.165 1.34a4.64 4.64 0 0 1-.213 1.47c-.13.402-.33.775-.592 1.1-.236.29-.53.521-.863.68a2.354 2.354 0 0 1-1.028.23 2.24 2.24 0 0 1-.901-.2 3.066 3.066 0 0 1-.723-.447l-.16-.143-.087.64h-.844L16.668 9h1.047zm7.118 3v6.43h-1.048V12h1.048zm6.06 0v.58l-3.277 4.96H31v.89h-4.722v-.58l3.287-4.96h-2.929V12h4.257zm-11.52.72a2.563 2.563 0 0 0-1.668.87l.01 3.41c.238.223.515.4.815.52.226.092.465.142.708.15.246 0 .49-.061.707-.18.222-.122.414-.292.563-.5.169-.241.294-.512.368-.8.095-.348.14-.708.136-1.07a4.77 4.77 0 0 0-.087-1 2.169 2.169 0 0 0-.291-.75 1.393 1.393 0 0 0-.514-.48 1.54 1.54 0 0 0-.747-.17zm5.47-3.25a.65.65 0 0 1 .213.51.66.66 0 0 1-.214.5.734.734 0 0 1-.523.2.724.724 0 0 1-.514-.2.66.66 0 0 1-.213-.5.65.65 0 0 1 .213-.51.796.796 0 0 1 1.037 0zM12.372.23c.345.15.656.376.91.66.284.322.501.7.64 1.11.167.457.25.942.243 1.43a4.01 4.01 0 0 1-.242 1.42c-.14.393-.355.753-.63 1.06a2.678 2.678 0 0 1-.912.66 2.828 2.828 0 0 1-2.192 0 2.688 2.688 0 0 1-.911-.66 3.189 3.189 0 0 1-.63-1.06 4.01 4.01 0 0 1-.233-1.42l-.02-.04A4.04 4.04 0 0 1 8.63 2c.14-.41.357-.788.64-1.11.255-.284.566-.51.912-.66a2.828 2.828 0 0 1 2.191 0zM.735 5.08a.717.717 0 0 1 .533.23.845.845 0 0 1 .223.61.814.814 0 0 1-.223.59.717.717 0 0 1-.533.23.726.726 0 0 1-.543-.23.804.804 0 0 1-.223-.59.845.845 0 0 1 .223-.61.735.735 0 0 1 .543-.23zM6.874.23c.278.142.536.324.766.54l-.524.7a2.907 2.907 0 0 0-.581-.41 1.428 1.428 0 0 0-.68-.16 1.726 1.726 0 0 0-1.396.69c-.18.236-.318.504-.407.79-.1.323-.149.66-.145 1-.006.339.04.676.135 1 .084.279.215.54.388.77.164.213.373.384.611.5a1.82 1.82 0 0 0 1.6 0c.236-.123.454-.278.65-.46l.436.72a3.396 3.396 0 0 1-.97.61 2.693 2.693 0 0 1-.97.22 2.965 2.965 0 0 1-1.153-.23 2.584 2.584 0 0 1-.97-.66 3.101 3.101 0 0 1-.61-1.06 4.196 4.196 0 0 1-.224-1.42l-.01.02c-.002-.475.08-.946.243-1.39a3.25 3.25 0 0 1 .65-1.11 2.72 2.72 0 0 1 .97-.66A2.984 2.984 0 0 1 5.787 0c.375-.015.747.064 1.086.23zM23.94.64c.348.558.511 1.218.465 1.88v4.07H23.36V2.66c.037-.46-.061-.92-.281-1.32a.958.958 0 0 0-.873-.4 2.31 2.31 0 0 0-1.561 1v4.65h-1.057V2.66c.037-.46-.061-.92-.282-1.32a.957.957 0 0 0-.911-.4 2.31 2.31 0 0 0-1.561 1v4.65h-1.028V.16h.873l.087.93a4.36 4.36 0 0 1 .892-.77A1.896 1.896 0 0 1 18.743 0c.4-.026.795.086 1.125.32.28.236.486.553.591.91.287-.337.612-.636.97-.89.321-.222.7-.34 1.086-.34.548-.04 1.08.199 1.426.64zm-13.402.44a1.674 1.674 0 0 0-.572.51 2.514 2.514 0 0 0-.368.79c-.087.326-.13.662-.126 1l.039.05c-.005.338.038.675.126 1 .077.277.201.538.368.77.151.21.347.38.572.5.46.239 1.004.239 1.464 0 .225-.12.421-.29.573-.5.166-.232.291-.493.368-.77.088-.325.13-.662.126-1a3.747 3.747 0 0 0-.126-1 2.511 2.511 0 0 0-.407-.84 1.674 1.674 0 0 0-.572-.51 1.585 1.585 0 0 0-1.465 0z"/>
</svg>
