<svg xmlns="http://www.w3.org/2000/svg" width="32" height="32" viewBox="0 0 32 32">
    <path fill="#0050D7" fill-rule="evenodd" d="M11.2 7.5a.5.5 0 0 1 0 1H2.266a1.217 1.217 0 0 0-1.233 1.196v20.068a1.217 1.217 0 0 0 1.239 1.203h27.462a1.217 1.217 0 0 0 1.233-1.196V9.702A1.217 1.217 0 0 0 29.728 8.5h-7.861a.5.5 0 1 1 0-1h7.855a2.218 2.218 0 0 1 2.245 2.196v20.08a2.218 2.218 0 0 1-2.239 2.19H2.278a2.218 2.218 0 0 1-2.245-2.195V9.69A2.218 2.218 0 0 1 2.272 7.5H11.2zM16.533.033a.5.5 0 0 1 .5.5v14.781l3.413-3.412a.5.5 0 0 1 .708.708l-4.267 4.266a.5.5 0 0 1-.707 0l-4.267-4.266a.5.5 0 1 1 .707-.708l3.413 3.414V.533a.5.5 0 0 1 .5-.5z"/>
</svg>
