<svg xmlns="http://www.w3.org/2000/svg" width="32" height="32" viewBox="0 0 32 32">
    <path fill="#0050D7" fill-rule="evenodd" d="M30.467.033a1.5 1.5 0 0 1 1.5 1.5v28.934a1.5 1.5 0 0 1-1.5 1.5H1.533a1.5 1.5 0 0 1-1.5-1.5V1.533a1.5 1.5 0 0 1 1.5-1.5h28.934zm0 1H1.533a.5.5 0 0 0-.5.5v28.934a.5.5 0 0 0 .5.5h28.934a.5.5 0 0 0 .5-.5V1.533a.5.5 0 0 0-.5-.5zM4.8 25.567a.5.5 0 0 1-.5-.5V13.333a.5.5 0 0 1 .5-.5h4.833v-5.9a.5.5 0 0 1 .5-.5h11.734a.5.5 0 0 1 .5.5v5.9H27.2a.5.5 0 0 1 .5.5v11.734a.5.5 0 0 1-.5.5H4.8zM21.367 7.433H10.633v5.9a.5.5 0 0 1-.5.5H5.3v10.734h2.2V20.8a.5.5 0 1 1 1 0v3.766h2.2V20.8a.5.5 0 1 1 1 0v3.766h2.2V20.8a.5.5 0 1 1 1 0v3.766h2.2V20.8a.5.5 0 1 1 1 0v3.766h2.2V20.8a.5.5 0 1 1 1 0v3.766h2.2V20.8a.5.5 0 1 1 1 0v3.766h2.2V13.834h-4.833a.5.5 0 0 1-.5-.5v-5.9z"/>
</svg>
