<svg xmlns="http://www.w3.org/2000/svg" width="32" height="32" viewBox="0 0 32 32">
    <path fill="#0050D7" fill-rule="evenodd" d="M21.916 1A2.11 2.11 0 0 1 24 3.13V8.5a.5.5 0 0 1-1 0V3.124A1.11 1.11 0 0 0 21.91 2H3.096A1.11 1.11 0 0 0 2 3.13v25.746A1.11 1.11 0 0 0 3.09 30h18.814A1.11 1.11 0 0 0 23 28.87V18.5a.5.5 0 1 1 1 0v10.364A2.111 2.111 0 0 1 21.91 31H3.084A2.11 2.11 0 0 1 1 28.87V3.136A2.111 2.111 0 0 1 3.09 1h18.826zm4.938 8.146l4 4a.5.5 0 0 1 0 .708l-4 4a.5.5 0 0 1-.708-.708L29.293 14H15.5a.5.5 0 1 1 0-1h13.793l-3.147-3.146a.5.5 0 0 1 .708-.708z"/>
</svg>
