<svg xmlns="http://www.w3.org/2000/svg" width="32" height="32" viewBox="0 0 32 32">
    <path fill="#0050D7" fill-rule="evenodd" d="M16.005 6l.032.001h.033l.332.007a19.067 19.067 0 0 1 14.91 7.966 3.428 3.428 0 0 1 .005 4.057A19.074 19.074 0 0 1 15.98 26c-.113 0-.225-.002-.337-.006l.352.006A19.067 19.067 0 0 1 .667 18.026a3.428 3.428 0 0 1-.004-4.057A19.07 19.07 0 0 1 15.98 6h.025zm.044 1h-.057l-.326.006C11.123 7.181 7.48 11.136 7.48 16c0 4.868 3.647 8.824 8.194 8.994l.314.006.04-.001.257-.005c4.548-.17 8.195-4.126 8.195-8.994 0-4.866-3.644-8.82-8.189-8.994L16.05 7zm5.593.968l.03.025C23.986 9.818 25.48 12.727 25.48 16c0 3.29-1.51 6.213-3.845 8.036a18.08 18.08 0 0 0 8.872-6.592c.63-.856.63-2.022-.004-2.883a18.069 18.069 0 0 0-8.861-6.593zm-11.334.009l-.246.086a18.079 18.079 0 0 0-8.59 6.493c-.628.856-.628 2.022.005 2.883a18.074 18.074 0 0 0 8.826 6.582C7.982 22.196 6.48 19.28 6.48 16c0-3.283 1.504-6.2 3.828-8.023zM16.26 13A2 2 0 0 0 18 16a2 2 0 0 0 1-.26V16a3 3 0 1 1-3-3zm-.202-6l.102.003.131.003-.149-.004L16.058 7zm.02-.999l.168.003.075.002-.243-.005zM16.005 6l.073.001h-.008L16.005 6z"/>
</svg>
