<svg xmlns="http://www.w3.org/2000/svg" width="32" height="32" viewBox="0 0 32 32">
    <path fill="#0050D7" fill-rule="evenodd" d="M17.892 2.168c.101.12.136.272.11.415L18 5.5a.5.5 0 1 1-1 0V3.683a8 8 0 0 0-.832 9.49.473.473 0 0 1 .076.118A7.993 7.993 0 0 0 23 16.99h.5a.5.5 0 0 1 .5.492V30.49a1.5 1.5 0 0 1-1.5 1.5h-21a1.5 1.5 0 0 1-1.5-1.5V9.5A1.5 1.5 0 0 1 1.5 8c7.268-.022 11.45-.024 12.545-.008A8.987 8.987 0 0 1 16.27 3H14.5a.5.5 0 1 1 0-1h2.914a.5.5 0 0 1 .478.168zM6.01 8.999L1.5 9a.5.5 0 0 0-.5.5v20.99a.5.5 0 0 0 .5.5h21a.5.5 0 0 0 .5-.5v-12.5a8.987 8.987 0 0 1-3.002-.51l.002.02v10a.5.5 0 0 1-.5.5h-15a.5.5 0 0 1-.5-.5v-10a.5.5 0 0 1 .5-.5l14.386.001a9.007 9.007 0 0 1-3.376-3l-8-.001a1.5 1.5 0 0 1-1.5-1.5L6.009 9zM19 18H5v9h14v-9zm-2.51 6a.5.5 0 1 1 0 1h-9a.5.5 0 1 1 0-1h9zm0-4a.5.5 0 1 1 0 1h-9a.5.5 0 1 1 0-1h9zM23 0a9 9 0 0 1 6.72 15.001L31.5 15a.5.5 0 1 1 0 1h-3a.502.502 0 0 1-.5-.597V12.5a.5.5 0 1 1 1 0l.001 1.805a8 8 0 0 0-6-13.305.5.5 0 1 1-.002-1zM7.008 9l.001 3.5a.5.5 0 0 0 .5.5l7.42.001a9.028 9.028 0 0 1-.943-4l-6.978-.002z"/>
</svg>
