<svg xmlns="http://www.w3.org/2000/svg" width="32" height="32" viewBox="0 0 32 32">
    <path fill="#0050D7" fill-rule="evenodd" d="M3.5 1a.5.5 0 0 1 .402.203l2.951 2.943a.5.5 0 0 1-.706.708L4 2.713V27h26.287l-2.141-2.147a.5.5 0 0 1 .708-.706l2.943 2.95a.5.5 0 0 1 0 .805l-2.943 2.951a.5.5 0 0 1-.708-.706L30.285 28H3.5a.5.5 0 0 1-.5-.5V2.713L.853 4.854a.5.5 0 0 1-.706-.708l2.95-2.943A.5.5 0 0 1 3.5 1zm6 15a2.5 2.5 0 0 1 2.5 2.5v3a2.5 2.5 0 1 1-5 0v-3A2.5 2.5 0 0 1 9.5 16zm7-6a2.5 2.5 0 0 1 2.5 2.5v9a2.5 2.5 0 1 1-5 0v-9a2.5 2.5 0 0 1 2.5-2.5zm7-6A2.5 2.5 0 0 1 26 6.5v15a2.5 2.5 0 1 1-5 0v-15A2.5 2.5 0 0 1 23.5 4zm-14 13A1.5 1.5 0 0 0 8 18.5v3a1.5 1.5 0 0 0 3 0v-3A1.5 1.5 0 0 0 9.5 17zm7-6a1.5 1.5 0 0 0-1.5 1.5v9a1.5 1.5 0 0 0 3 0v-9a1.5 1.5 0 0 0-1.5-1.5zm7-6A1.5 1.5 0 0 0 22 6.5v15a1.5 1.5 0 0 0 3 0v-15A1.5 1.5 0 0 0 23.5 5z"/>
</svg>
