<svg xmlns="http://www.w3.org/2000/svg" width="32" height="33" viewBox="0 0 32 33">
    <path fill="#0050D7" fill-rule="evenodd" d="M16.854.637a.504.504 0 0 1 .351.145c.392.389.995 1.041 1.71 1.904C20.083 4.1 21.15 5.607 22.01 7.16c1.26 2.272 1.97 4.448 1.975 6.461a7.12 7.12 0 0 1-6.409 7.098v1.875a.498.498 0 0 1-.093.29c.535.19 1.001.561 1.308 1.065a2.536 2.536 0 0 1-.197 2.917c2.156-.01 2.742-.083 3.511-.429.044-.02.088-.04.136-.064l6.444-3.08a2.28 2.28 0 0 1 1.663-.201 2.214 2.214 0 0 1 1.363 1.023c.303.507.38 1.118.217 1.678a2.193 2.193 0 0 1-1.035 1.332l-7.562 4.624c-.317.196-.87.44-1.633.655-1.167.331-2.581.525-4.254.525-1.49 0-3.336-.484-5.39-1.301a34.085 34.085 0 0 1-2.158-.95c-.46-.221-.83-.41-1.078-.546a7.733 7.733 0 0 0-2.782-.518v2.834a.5.5 0 0 1-.5.5H.475a.5.5 0 1 1 0-1h4.562V18.518H.475a.5.5 0 1 1 0-1h5.062a.5.5 0 0 1 .5.5v2.327l3.786.523a.5.5 0 0 1 .283.14 6.065 6.065 0 0 0 3.038 1.63l3.306.098.147-.004a.5.5 0 0 1-.02-.14v-1.845h-.02A7.12 7.12 0 0 1 9.72 13.62c.004-2.013.716-4.19 1.975-6.46.86-1.553 1.928-3.062 3.097-4.474a29.282 29.282 0 0 1 1.594-1.79l.115-.114.023-.02.042-.035a.497.497 0 0 1 .287-.09zM6.036 21.354v7.26c1.074 0 2.145.2 3.198.61a33.095 33.095 0 0 0 3.19 1.475c1.947.773 3.686 1.229 5.02 1.229 2.732 0 4.511-.504 5.364-1.032l7.581-4.636c.283-.157.49-.422.578-.74.088-.301.046-.625-.116-.897a1.218 1.218 0 0 0-.752-.565 1.293 1.293 0 0 0-.957.123l-6.463 3.09a5.268 5.268 0 0 1-.163.077c-1.015.457-1.708.518-4.525.518a42.604 42.604 0 0 1-1.327-.063c-.07 0-.142-.001-.214-.006l-.082-.014a40.282 40.282 0 0 1-3.956-.47h-.107a.5.5 0 0 1 0-1l.19.007c1.39.232 2.79.393 4.189.483a1.54 1.54 0 0 0 1.254-2.335c-.299-.49-.846-.774-1.468-.733l-3.434-.106a7.065 7.065 0 0 1-3.51-1.792l-3.49-.483zM2.98 27.026c.5.217.82.715.808 1.26a1.334 1.334 0 0 1-1.343 1.316 1.344 1.344 0 1 1 .535-2.576zm-.775.986a.344.344 0 0 0 .245.59.334.334 0 0 0 .338-.33.344.344 0 1 0-.584-.26zm14.65-26.157l-.13.138c-.325.35-.72.799-1.161 1.331-1.132 1.368-2.165 2.828-2.992 4.32-1.185 2.136-1.846 4.16-1.85 5.978a6.12 6.12 0 0 0 5.856 6.126v-2.722l-3.113-3.112a.5.5 0 1 1 .708-.707l2.404 2.405v-3.306a.502.502 0 0 1-.076-.063l-2.828-2.829a.5.5 0 1 1 .707-.707l2.197 2.197v-4.65a.5.5 0 1 1 1 0v4.204l1.752-1.75a.5.5 0 0 1 .708.706l-2.46 2.458v4.294l2.96-2.959a.5.5 0 1 1 .707.707l-3.536 3.536a.5.5 0 0 1-.13.094v2.168a6.12 6.12 0 0 0 5.409-6.09c-.004-1.818-.665-3.842-1.85-5.978-.827-1.492-1.86-2.952-2.992-4.32a30.802 30.802 0 0 0-1.29-1.469z"/>
</svg>
