<svg xmlns="http://www.w3.org/2000/svg" width="32" height="32" viewBox="0 0 32 32">
    <path fill="#0050D7" fill-rule="evenodd" d="M31.5 0a.5.5 0 0 1 .5.5v2a.5.5 0 0 1-.5.5l-.519.001A14.991 14.991 0 0 1 22.505 16a14.991 14.991 0 0 1 8.477 13h.518a.5.5 0 0 1 .5.5v2a.5.5 0 0 1-.5.5H.5a.5.5 0 0 1-.5-.5v-2a.5.5 0 0 1 .5-.5h.498a14.991 14.991 0 0 1 8.477-13A14.991 14.991 0 0 1 1 3.001L.5 3a.5.5 0 0 1-.5-.5v-2A.5.5 0 0 1 .5 0h31zM31 30H1v1h30v-1zM10.911 15.534a.5.5 0 0 1 0 .932A13.99 13.99 0 0 0 2 29h4.292l9.355-8.863a.5.5 0 0 1 .688 0L25.688 29h4.293a13.99 13.99 0 0 0-8.912-12.534.5.5 0 0 1 0-.932A13.99 13.99 0 0 0 29.98 3.001H1.999a13.99 13.99 0 0 0 8.912 12.533zm5.079 5.655L7.743 29h16.493l-8.246-7.811zM21.49 10a.5.5 0 0 1 .336.87l-5.5 5a.5.5 0 0 1-.672 0l-5.5-5a.5.5 0 0 1 .336-.87h11zm-1.293 1h-8.414l4.207 3.824L20.197 11zM31 1H1v1h30V1z"/>
</svg>
