<svg xmlns="http://www.w3.org/2000/svg" width="32" height="32" viewBox="0 0 32 32">
    <path fill="#0050D7" fill-rule="evenodd" d="M11.772 7.308l2.17 5.23a.5.5 0 0 1-.271.654l-5.23 2.16a.5.5 0 1 1-.382-.924l4.428-1.829A7 7 0 1 0 8 25c3.244 0 5.154-2.121 7.54-7.198C17.634 12.73 20.147 10 24 10a8 8 0 1 1-.005 16 8.81 8.81 0 0 1-5.746-2.205.5.5 0 1 1 .662-.75A7.807 7.807 0 0 0 24 25a7 7 0 0 0 0-14c-3.328 0-5.581 2.448-7.538 7.19l-.005.013a.51.51 0 0 1-.004.01C13.909 23.629 11.777 26 7.998 26a8 8 0 1 1 4.326-14.753l-1.476-3.555a.5.5 0 1 1 .924-.384z"/>
</svg>
