<svg xmlns="http://www.w3.org/2000/svg" width="32" height="32" viewBox="0 0 32 32">
    <path fill="#0050D7" fill-rule="evenodd" d="M14.91 25.836a2.846 2.846 0 0 1 2.08.936 2.87 2.87 0 0 1 .73 2.167 2.826 2.826 0 0 1-1.327 2.642 2.801 2.801 0 0 1-2.947 0 2.826 2.826 0 0 1-1.328-2.642 2.87 2.87 0 0 1 .725-2.16 2.846 2.846 0 0 1 2.067-.943zm-4.742-1.819v7.876h-1.39v-7.876h1.39zm14.045 0v1.186h-2.26v6.69h-1.391v-6.69H18.29v-1.186h5.922zM14.91 26.84c-.86 0-1.381.784-1.381 2.01 0 1.225.52 2.008 1.38 2.008.86 0 1.391-.783 1.391-2.009 0-1.225-.53-2.009-1.39-2.009zM26.608.147c5.856 5.884 5.856 15.419 0 21.302a.499.499 0 0 1-.707 0 .504.504 0 0 1 0-.71c5.465-5.49 5.465-14.39 0-19.882a.504.504 0 0 1 0-.71.499.499 0 0 1 .707 0zm-20.509 0a.504.504 0 0 1 0 .71C.635 6.35.635 15.248 6.1 20.74a.504.504 0 0 1 0 .71.499.499 0 0 1-.707 0C-.464 15.566-.464 6.031 5.392.147a.499.499 0 0 1 .707 0zM23.777 2.99A11.072 11.072 0 0 1 27 10.803c0 2.931-1.16 5.742-3.223 7.814a.499.499 0 0 1-.708 0 .504.504 0 0 1 0-.71A10.066 10.066 0 0 0 26 10.803c0-2.664-1.053-5.22-2.93-7.103a.504.504 0 0 1 0-.71.499.499 0 0 1 .708 0zm-14.846 0a.504.504 0 0 1 0 .71A10.066 10.066 0 0 0 6 10.803c0 2.665 1.053 5.22 2.93 7.104a.504.504 0 0 1 0 .71.499.499 0 0 1-.708 0A11.072 11.072 0 0 1 5 10.803c0-2.93 1.16-5.741 3.223-7.813a.499.499 0 0 1 .708 0zm12.025 2.843a7.052 7.052 0 0 1 0 9.941.499.499 0 0 1-.708 0 .504.504 0 0 1 0-.71 6.044 6.044 0 0 0 0-8.521.504.504 0 0 1 0-.71.499.499 0 0 1 .708 0zm-9.204 0a.504.504 0 0 1 0 .71 6.044 6.044 0 0 0 0 8.52.504.504 0 0 1 0 .711.499.499 0 0 1-.708 0 7.052 7.052 0 0 1 0-9.941.499.499 0 0 1 .708 0zM16 8.788c1.105 0 2 .9 2 2.01 0 1.109-.895 2.008-2 2.008s-2-.9-2-2.009c0-1.11.895-2.009 2-2.009zm0 1.005c-.553 0-1 .45-1 1.004 0 .555.447 1.005 1 1.005.553 0 1-.45 1-1.005 0-.554-.447-1.004-1-1.004z"/>
</svg>
