<svg xmlns="http://www.w3.org/2000/svg" width="32" height="32" viewBox="0 0 32 32">
    <path fill="#0050D7" fill-rule="evenodd" d="M8 0c4.418 0 8 3.582 8 8.005a7.84 7.84 0 0 1-.102 1.186l15.956 15.955A.5.5 0 0 1 32 25.5v6a.5.5 0 0 1-.5.5h-6a.5.5 0 0 1-.354-.146L23.5 30.207l-1.646 1.647a.5.5 0 0 1-.708 0l-4-4a.5.5 0 0 1 0-.708l1.647-1.646-2.293-2.293-1.646 1.647a.5.5 0 0 1-.708 0l-4-4a.5.5 0 0 1 0-.708l1.647-1.646-2.596-2.596c-.394.058-.793.09-1.197.096A8 8 0 1 1 8 0zm0 1a7 7 0 0 0-7 7c0 3.866 3.134 7 6.993 7a8.05 8.05 0 0 0 1.29-.122.5.5 0 0 1 .44.138l3.13 3.13a.5.5 0 0 1 0 .708L11.208 20.5l3.293 3.293 1.646-1.647a.5.5 0 0 1 .708 0l3 3a.5.5 0 0 1 0 .708L18.207 27.5l3.293 3.293 1.646-1.647a.5.5 0 0 1 .708 0L25.707 31H31v-5.293L15.006 9.714a.5.5 0 0 1-.136-.451A6.83 6.83 0 0 0 15 8a7 7 0 0 0-7-7zM5.5 3a2.5 2.5 0 1 1 0 5 2.5 2.5 0 0 1 0-5zm0 1a1.5 1.5 0 1 0 0 3 1.5 1.5 0 0 0 0-3z"/>
</svg>
