<svg xmlns="http://www.w3.org/2000/svg" width="32" height="32" viewBox="0 0 32 32">
    <path fill="#0050D7" fill-rule="evenodd" d="M19.5 24a1.5 1.5 0 0 1 1.5 1.5v2a1.5 1.5 0 0 1-1.356 1.493L19.5 29h-7a1.5 1.5 0 0 1-1.5-1.5v-2a1.5 1.5 0 0 1 1.5-1.5h7zm0 1h-7a.5.5 0 0 0-.5.5v2a.5.5 0 0 0 .5.5h7a.5.5 0 0 0 .5-.5v-2a.5.5 0 0 0-.5-.5zm-11-8a1.5 1.5 0 0 1 1.5 1.5v3a1.5 1.5 0 0 1-1.356 1.493L8.5 23h-7A1.5 1.5 0 0 1 0 21.5v-3A1.5 1.5 0 0 1 1.5 17h7zm11 0a1.5 1.5 0 0 1 1.5 1.5v3a1.5 1.5 0 0 1-1.356 1.493L19.5 23h-7a1.5 1.5 0 0 1-1.5-1.5v-3a1.5 1.5 0 0 1 1.5-1.5h7zm11 0a1.5 1.5 0 0 1 1.5 1.5v3a1.5 1.5 0 0 1-1.356 1.493L30.5 23h-7a1.5 1.5 0 0 1-1.5-1.5v-3a1.5 1.5 0 0 1 1.5-1.5h7zm-22 1h-7a.5.5 0 0 0-.5.5v3a.5.5 0 0 0 .5.5h7a.5.5 0 0 0 .5-.5v-3a.5.5 0 0 0-.5-.5zm11 0h-7a.5.5 0 0 0-.5.5v3a.5.5 0 0 0 .5.5h7a.5.5 0 0 0 .5-.5v-3a.5.5 0 0 0-.5-.5zm11 0h-7a.5.5 0 0 0-.5.5v3a.5.5 0 0 0 .5.5h7a.5.5 0 0 0 .5-.5v-3a.5.5 0 0 0-.5-.5zm-22-8a1.5 1.5 0 0 1 1.5 1.5v3a1.5 1.5 0 0 1-1.356 1.493L8.5 16h-7A1.5 1.5 0 0 1 0 14.5v-3A1.5 1.5 0 0 1 1.5 10h7zm11 0a1.5 1.5 0 0 1 1.5 1.5v3a1.5 1.5 0 0 1-1.356 1.493L19.5 16h-7a1.5 1.5 0 0 1-1.5-1.5v-3a1.5 1.5 0 0 1 1.5-1.5h7zm11 0a1.5 1.5 0 0 1 1.5 1.5v3a1.5 1.5 0 0 1-1.356 1.493L30.5 16h-7a1.5 1.5 0 0 1-1.5-1.5v-3a1.5 1.5 0 0 1 1.5-1.5h7zm-22 1h-7a.5.5 0 0 0-.5.5v3a.5.5 0 0 0 .5.5h7a.5.5 0 0 0 .5-.5v-3a.5.5 0 0 0-.5-.5zm11 0h-7a.5.5 0 0 0-.5.5v3a.5.5 0 0 0 .5.5h7a.5.5 0 0 0 .5-.5v-3a.5.5 0 0 0-.5-.5zm11 0h-7a.5.5 0 0 0-.5.5v3a.5.5 0 0 0 .5.5h7a.5.5 0 0 0 .5-.5v-3a.5.5 0 0 0-.5-.5zm-22-8A1.5 1.5 0 0 1 10 4.5v3a1.5 1.5 0 0 1-1.356 1.493L8.5 9h-7A1.5 1.5 0 0 1 0 7.5v-3A1.5 1.5 0 0 1 1.5 3h7zm11 0A1.5 1.5 0 0 1 21 4.5v3a1.5 1.5 0 0 1-1.356 1.493L19.5 9h-7A1.5 1.5 0 0 1 11 7.5v-3A1.5 1.5 0 0 1 12.5 3h7zm11 0A1.5 1.5 0 0 1 32 4.5v3a1.5 1.5 0 0 1-1.356 1.493L30.5 9h-7A1.5 1.5 0 0 1 22 7.5v-3A1.5 1.5 0 0 1 23.5 3h7zm-22 1h-7a.5.5 0 0 0-.5.5v3a.5.5 0 0 0 .5.5h7a.5.5 0 0 0 .5-.5v-3a.5.5 0 0 0-.5-.5zm11 0h-7a.5.5 0 0 0-.5.5v3a.5.5 0 0 0 .5.5h7a.5.5 0 0 0 .5-.5v-3a.5.5 0 0 0-.5-.5zm11 0h-7a.5.5 0 0 0-.5.5v3a.5.5 0 0 0 .5.5h7a.5.5 0 0 0 .5-.5v-3a.5.5 0 0 0-.5-.5z"/>
</svg>
