<svg xmlns="http://www.w3.org/2000/svg" width="32" height="32" viewBox="0 0 32 32">
    <path fill="#0050D7" fill-rule="evenodd" d="M31.57.005a.485.485 0 0 1 .286.142.485.485 0 0 1 .139.279L32 .478v.054c.002.98-.061 2.567-.249 4.557-.31 3.284-.872 6.562-1.75 9.627-1.28 4.465-3.128 8.108-5.647 10.637a12.5 12.5 0 0 1-17.347.348L.854 31.854a.5.5 0 0 1-.708-.708L6.3 24.994A12.505 12.505 0 0 1 2.971 16.5a12.5 12.5 0 0 1 3.676-8.854c2.53-2.52 6.172-4.367 10.637-5.647 3.065-.878 6.343-1.44 9.627-1.75 1.99-.188 3.577-.25 4.558-.25a.5.5 0 0 1 .102.006zm-.594 1.726L19.707 12.999 24.5 13a.5.5 0 1 1 0 1l-5.793-.001-7 7L19.5 21a.5.5 0 1 1 0 1l-8.793-.001-2.993 2.994a11.5 11.5 0 0 0 15.932-.346c2.382-2.391 4.157-5.89 5.394-10.207.86-3 1.411-6.218 1.716-9.445.12-1.278.188-2.385.22-3.264zm-.707-.708c-.879.033-1.986.1-3.264.221-3.227.305-6.446.857-9.445 1.716-4.317 1.237-7.816 3.012-10.207 5.394a11.5 11.5 0 0 0-.366 15.91l.02.022L10 21.292V12.5a.5.5 0 1 1 1 0v7.792l7-7V7.5a.5.5 0 1 1 1 0v4.792l6.146-6.146 5.123-5.123z"/>
</svg>
