<svg xmlns="http://www.w3.org/2000/svg" width="32" height="32" viewBox="0 0 32 32">
    <path fill="#0050D7" fill-rule="evenodd" d="M16 0c8.837 0 16 7.163 16 16s-7.163 16-16 16S0 24.837 0 16 7.163 0 16 0zm0 25a8.97 8.97 0 0 1-3.56-.732l-4.424 4.433A14.93 14.93 0 0 0 16 31a14.93 14.93 0 0 0 7.99-2.303l-4.43-4.429A8.97 8.97 0 0 1 16 25zm-7.792-4.493l-4.333 4.325a15.087 15.087 0 0 0 3.298 3.297l4.326-4.334a9.044 9.044 0 0 1-3.29-3.288zm12.294 3.288l4.33 4.33a15.087 15.087 0 0 0 3.293-3.293l-4.33-4.33a9.044 9.044 0 0 1-3.293 3.293zM16 8a8 8 0 1 0 0 16 8 8 0 0 0 0-16zm-12.697.01A14.93 14.93 0 0 0 1 16c0 2.937.844 5.677 2.303 7.99l4.432-4.422A8.97 8.97 0 0 1 7 16c0-1.265.26-2.469.732-3.56L3.303 8.01zm25.398.006l-4.43 4.43A8.97 8.97 0 0 1 25 16a8.97 8.97 0 0 1-.732 3.56l4.429 4.43A14.93 14.93 0 0 0 31 16a14.93 14.93 0 0 0-2.3-7.984zm-3.863-4.137l-4.33 4.33a9.044 9.044 0 0 1 3.29 3.296l4.332-4.331a15.087 15.087 0 0 0-3.292-3.295zm-17.67-.004a15.087 15.087 0 0 0-3.293 3.293l4.33 4.33a9.044 9.044 0 0 1 3.293-3.293l-4.33-4.33zM16 1a14.93 14.93 0 0 0-7.99 2.303l4.43 4.429A8.97 8.97 0 0 1 16 7a8.97 8.97 0 0 1 3.568.735l4.428-4.428A14.93 14.93 0 0 0 16 1z"/>
</svg>
