<svg xmlns="http://www.w3.org/2000/svg" width="32" height="32" viewBox="0 0 32 32">
    <path fill="#0050D7" fill-rule="evenodd" d="M13.854 20.146a.5.5 0 0 1 0 .708L11.707 23H21.5a.5.5 0 1 1 0 1h-9.793l2.147 2.146a.5.5 0 0 1-.708.708l-3-3-.011-.013a.503.503 0 0 1-.033-.039l.044.052A.502.502 0 0 1 10 23.5v-.01c0-.022.002-.043.005-.064L10 23.5a.502.502 0 0 1 .146-.354l3-3a.5.5 0 0 1 .708 0zM28.5 13a3.5 3.5 0 1 1-3.464 4H6.964a3.5 3.5 0 1 1 0-1h18.071a3.5 3.5 0 0 1 3.465-3zm-25 1a2.5 2.5 0 1 0 0 5 2.5 2.5 0 0 0 0-5zm25 0a2.5 2.5 0 1 0 0 5 2.5 2.5 0 0 0 0-5zm-9.646-7.854l3.011 3.013.017.019.009.01-.027-.03.03.035.029.04A.52.52 0 0 1 22 9.48v.02l-.003.046a.392.392 0 0 1-.02.105l-.015.04a.494.494 0 0 1-.097.15l-3.011 3.013a.5.5 0 0 1-.708-.708L20.292 10H10.5a.5.5 0 1 1 0-1h9.792l-2.146-2.146a.5.5 0 0 1 .708-.708zm3.037 3.042l.007.01-.004-.005-.003-.005z"/>
</svg>
