<svg xmlns="http://www.w3.org/2000/svg" width="32" height="32" viewBox="0 0 32 32">
    <path fill="#0050D7" fill-rule="evenodd" d="M23.531 3.802a10.5 10.5 0 0 1 .895 12.21 8 8 0 1 1-7.831 4.956A10.487 10.487 0 0 1 8.408 18.3L.853 25.854a.5.5 0 0 1-.708-.708L7.7 17.593A10.5 10.5 0 0 1 23.531 3.802zM24 17c-.135 0-.27.004-.403.011a.463.463 0 0 1-.19.015 6.996 6.996 0 0 0-5.462 3.459.498.498 0 0 1-.094.169A7 7 0 1 0 24 17zm3.854 4.146a.5.5 0 0 1 0 .708l-5 5a.5.5 0 0 1-.708 0l-2-2a.5.5 0 0 1 .708-.708l1.646 1.647 4.646-4.647a.5.5 0 0 1 .708 0zM11.22 2.033a9.5 9.5 0 0 0-2.606 15.075c.062.022.12.059.169.108.05.05.086.107.11.169a9.48 9.48 0 0 0 6.576 2.645 9.59 9.59 0 0 0 1.67-.146 7.998 7.998 0 0 1 6.068-3.845l-.138.191A9.5 9.5 0 0 0 11.221 2.033zM15.5 3a.5.5 0 1 1 0 1A6.5 6.5 0 0 0 9 10.5a.5.5 0 1 1-1 0A7.5 7.5 0 0 1 15.5 3z"/>
</svg>
