<svg xmlns="http://www.w3.org/2000/svg" width="32" height="32" viewBox="0 0 32 32">
    <path fill="#0050D7" fill-rule="evenodd" d="M18.5 0C25.956 0 32 6.044 32 13.5S25.956 27 18.5 27a13.452 13.452 0 0 1-9.186-3.607l-8.46 8.46a.5.5 0 0 1-.708-.707l8.46-8.46A13.452 13.452 0 0 1 5 13.5C5 6.044 11.044 0 18.5 0zm0 1C11.596 1 6 6.596 6 13.5a12.46 12.46 0 0 0 3.644 8.821l.02.015.015.02A12.46 12.46 0 0 0 18.5 26C25.404 26 31 20.404 31 13.5S25.404 1 18.5 1zm0 3a.5.5 0 1 1 0 1 8.5 8.5 0 0 0-8.5 8.5.5.5 0 1 1-1 0A9.5 9.5 0 0 1 18.5 4z"/>
</svg>
