<svg xmlns="http://www.w3.org/2000/svg" width="32" height="32" viewBox="0 0 32 32">
    <path fill="#0050D7" fill-rule="evenodd" d="M24.5 9a.5.5 0 0 1 .5.5V15a9.003 9.003 0 0 1-7 8.777V25a6.99 6.99 0 0 0 3.406 6H24.5a.5.5 0 1 1 0 1h-3.216a.5.5 0 0 1-.021 0H10.734a.5.5 0 0 1-.016 0H7.5a.5.5 0 1 1 0-1l3.092-.001.12-.07A6.99 6.99 0 0 0 14 25v-1.223A9.003 9.003 0 0 1 7 15V9.5a.5.5 0 0 1 1 0V15a8 8 0 0 0 16 0V9.5a.5.5 0 0 1 .5-.5zM15 23.945V25a7.99 7.99 0 0 1-2.715 6h7.43A7.99 7.99 0 0 1 17 25v-1.055a9.099 9.099 0 0 1-2 0zM16 0a6 6 0 0 1 6 6v9a6 6 0 0 1-12 0V6a6 6 0 0 1 6-6zm0 1a5 5 0 0 0-5 5v9a5 5 0 0 0 10 0V6a5 5 0 0 0-5-5z"/>
</svg>
