<svg xmlns="http://www.w3.org/2000/svg" width="32" height="32" viewBox="0 0 32 32">
    <path fill="#0050D7" fill-rule="evenodd" d="M20.5 7a.5.5 0 0 1 .5.5V18h9.545c.804 0 1.455.672 1.455 1.5v11c0 .828-.651 1.5-1.455 1.5H1.455C.65 32 0 31.328 0 30.5v-11c0-.828.651-1.5 1.455-1.5H20V7.5a.5.5 0 0 1 .5-.5zm10.045 12H1.455a.493.493 0 0 0-.485.5v11c0 .276.217.5.485.5h29.09a.493.493 0 0 0 .485-.5v-11c0-.276-.217-.5-.485-.5zM6 25a1 1 0 1 1 0 2 1 1 0 0 1 0-2zm4 0a1 1 0 1 1 0 2 1 1 0 0 1 0-2zM13.859.152a.5.5 0 0 1-.011.707A9.365 9.365 0 0 0 11 7.496a9.37 9.37 0 0 0 2.848 6.645.5.5 0 0 1-.696.718A10.375 10.375 0 0 1 10 7.496 10.37 10.37 0 0 1 13.152.14a.5.5 0 0 1 .707.011zM27.848.141A10.375 10.375 0 0 1 31 7.504a10.37 10.37 0 0 1-3.152 7.355.5.5 0 0 1-.696-.718A9.365 9.365 0 0 0 30 7.504 9.37 9.37 0 0 0 27.152.86a.5.5 0 0 1 .696-.718zm-3.026 2.977c1.293 1.09 2.08 2.665 2.177 4.41a6.16 6.16 0 0 1-2.177 4.354.5.5 0 1 1-.644-.764c1.082-.914 1.741-2.232 1.823-3.59a5.16 5.16 0 0 0-1.823-3.646.5.5 0 0 1 .644-.764zm-7.94.06a.5.5 0 0 1-.06.704c-1.082.914-1.741 2.232-1.823 3.59a5.16 5.16 0 0 0 1.823 3.646.5.5 0 1 1-.644.764c-1.293-1.09-2.08-2.665-2.177-4.41a6.16 6.16 0 0 1 2.177-4.354.5.5 0 0 1 .704.06z"/>
</svg>
