<svg xmlns="http://www.w3.org/2000/svg" width="32" height="32" viewBox="0 0 32 32">
    <path fill="#0050D7" fill-rule="evenodd" d="M28.5 2A1.5 1.5 0 0 1 30 3.5V17h1.5a.5.5 0 0 1 .5.5v2a1.5 1.5 0 0 1-1.5 1.5H10v7.5A1.5 1.5 0 0 1 8.5 30h-7A1.5 1.5 0 0 1 0 28.5v-14A1.5 1.5 0 0 1 1.5 13H6V3.5A1.5 1.5 0 0 1 7.5 2h21zM9 26H1v2.5a.5.5 0 0 0 .5.5h7a.5.5 0 0 0 .5-.5V26zm-3.5 1a.5.5 0 1 1 0 1h-1a.5.5 0 1 1 0-1h1zm3-13h-7a.5.5 0 0 0-.5.5V25h8V14.5a.5.5 0 0 0-.5-.5zM31 18H10v2h20.5a.5.5 0 0 0 .5-.5V18zM28.5 3h-21a.5.5 0 0 0-.5.5V13h1.5a1.5 1.5 0 0 1 1.5 1.5V17h19V3.5a.5.5 0 0 0-.5-.5zm-10 1a.5.5 0 1 1 0 1h-1a.5.5 0 1 1 0-1h1z"/>
</svg>
