<svg xmlns="http://www.w3.org/2000/svg" width="32" height="32" viewBox="0 0 32 32">
    <path fill="#0050D7" fill-rule="evenodd" d="M28.467.033a3.5 3.5 0 0 1 3.5 3.5v24.934a3.5 3.5 0 0 1-3.5 3.5H3.533a3.5 3.5 0 0 1-3.5-3.5V3.533a3.5 3.5 0 0 1 3.5-3.5h24.934zm0 1H3.533a2.5 2.5 0 0 0-2.5 2.5v24.934a2.5 2.5 0 0 0 2.5 2.5h24.934a2.5 2.5 0 0 0 2.5-2.5V3.533a2.5 2.5 0 0 0-2.5-2.5zM6.699 11.861l3.04 5.27.928 1.738c0-.842-.139-1.792-.139-2.677v-4.33h1.013v8.405h-1.066l-3.008-5.334-.907-1.728c0 .843.128 1.739.128 2.624v4.438H5.632V11.86h1.067zm9.664 0c1.696 0 2.933.619 2.933 2.358a2.304 2.304 0 0 1-1.877 2.378l2.133 3.659-1.227.01-2.026-3.54h-1.504v3.54h-1.067v-8.405h2.635zm8.064.011l2.837 8.395h-1.12l-.81-2.571h-3.062l-.8 2.57h-1.067l2.838-8.394h1.184zm-.587.864c-.267.97-.533 1.888-.832 2.827l-.405 1.28h2.464l-.395-1.28a127.34 127.34 0 0 1-.562-1.871l-.27-.956zm-7.637 0h-1.408v3.115h1.408c1.301 0 2.026-.534 2.026-1.622s-.714-1.493-2.026-1.493z"/>
</svg>
