<svg xmlns="http://www.w3.org/2000/svg" width="32" height="32" viewBox="0 0 32 32">
    <path fill="#0050D7" fill-rule="evenodd" d="M19 .5v31a.5.5 0 0 1-.812.39L8.325 24H1.5a.5.5 0 0 1-.5-.5v-15a.5.5 0 0 1 .5-.5h6.825L18.188.11A.5.5 0 0 1 19 .5zm-1 1.04L8.812 8.89A.5.5 0 0 1 8.5 9H2v14h6.5a.5.5 0 0 1 .312.11L18 30.46V1.54zm8.375 4.762a12.5 12.5 0 0 1 0 19.396.5.5 0 0 1-.63-.776 11.5 11.5 0 0 0 0-17.844.5.5 0 0 1 .63-.776zM22.786 9.85a7.5 7.5 0 0 1 0 12.3.5.5 0 0 1-.572-.82 6.5 6.5 0 0 0 0-10.66.5.5 0 0 1 .572-.82z"/>
</svg>
