<svg xmlns="http://www.w3.org/2000/svg" width="32" height="32" viewBox="0 0 32 32">
    <path fill="#0050D7" fill-rule="evenodd" d="M6.933 29.952a.5.5 0 1 1 0 1h-3.2a.5.5 0 1 1 0-1h3.2zm21.334 0a.5.5 0 0 1 0 1h-3.2a.5.5 0 1 1 0-1h3.2zm.2-16.517a3.5 3.5 0 0 1 3.5 3.5v8.452a3.5 3.5 0 0 1-3.5 3.5H3.533a3.5 3.5 0 0 1-3.5-3.5v-8.452a3.5 3.5 0 0 1 3.5-3.5h24.934zm0 1H3.533a2.5 2.5 0 0 0-2.5 2.5v8.452a2.5 2.5 0 0 0 2.5 2.5h24.934a2.5 2.5 0 0 0 2.5-2.5v-8.452a2.5 2.5 0 0 0-2.5-2.5zM16 18a3 3 0 1 1 0 6 3 3 0 0 1 0-6zm0 .974c-1.137 0-2.053.91-2.053 2.026 0 1.115.916 2.026 2.053 2.026s2.053-.91 2.053-2.026c0-1.115-.916-2.026-2.053-2.026zM15.995 6.21c4.232 0 8.292 1.628 11.286 4.527a.5.5 0 1 1-.695.718c-2.807-2.718-6.618-4.245-10.591-4.245-3.974 0-7.784 1.527-10.591 4.245a.5.5 0 0 1-.696-.718c2.995-2.9 7.054-4.527 11.287-4.527zm0-3.094c5.08 0 9.953 1.953 13.547 5.432a.5.5 0 0 1-.695.719c-3.407-3.298-8.03-5.151-12.852-5.151-4.822 0-9.446 1.853-12.853 5.15a.5.5 0 0 1-.695-.718C6.04 5.07 10.914 3.117 15.995 3.117zm-.006-3.11c5.931 0 11.62 2.282 15.815 6.343a.5.5 0 0 1-.696.719c-4.007-3.88-9.446-6.062-15.119-6.062C10.317 1.007 4.878 3.188.87 7.07a.5.5 0 0 1-.695-.719C4.37 2.29 10.058.007 15.989.007z"/>
</svg>
