<svg xmlns="http://www.w3.org/2000/svg" width="32" height="32" viewBox="0 0 32 32">
    <path fill="#0050D7" fill-rule="evenodd" d="M21.092 0a1.5 1.5 0 0 1 1.051.436l5.422 5.412c.28.283.437.666.435 1.062V27.5a1.5 1.5 0 0 1-1.5 1.5H23v2.5a.5.5 0 0 1-.868.339l-2.632-2.86-2.632 2.86A.5.5 0 0 1 16 31.5V29H5.5A1.5 1.5 0 0 1 4 27.5v-26A1.5 1.5 0 0 1 5.5 0h15.592zm.909 25.242A4.48 4.48 0 0 1 19.5 26a4.48 4.48 0 0 1-2.5-.757v4.975l2.132-2.317a.5.5 0 0 1 .736 0L22 30.218V28.51a.51.51 0 0 1 0-.01v-3.258zM21 1H5.5a.5.5 0 0 0-.5.5v26a.5.5 0 0 0 .5.5H16v-3.671a4.5 4.5 0 1 1 7-.001V28h3.5a.5.5 0 0 0 .5-.5L26.999 7H22.5A1.5 1.5 0 0 1 21 5.5V1zm-1.5 17a3.5 3.5 0 0 0-2.65 5.787A3.485 3.485 0 0 0 19.5 25c1.03 0 1.956-.445 2.596-1.153a.38.38 0 0 1 .051-.062A3.47 3.47 0 0 0 23 21.5a3.5 3.5 0 0 0-3.5-3.5zm4.5-5a.5.5 0 1 1 0 1H8a.5.5 0 1 1 0-1h16zm0-3a.5.5 0 1 1 0 1H8a.5.5 0 1 1 0-1h16zm-2-8.294V5.5a.5.5 0 0 0 .5.5h3.802L22 1.706z"/>
</svg>
