<svg xmlns="http://www.w3.org/2000/svg" width="32" height="32" viewBox="0 0 32 32">
    <path fill="#0050D7" fill-rule="evenodd" d="M30.641.02l.028.01a.503.503 0 0 1 .079.036l.006.003a.488.488 0 0 1 .235.534l-.001.007-7 31a.5.5 0 0 1-.842.244l-7.693-7.694L11.8 26.9a.5.5 0 0 1-.8-.4v-6.793l-8.854-8.853a.5.5 0 0 1 .186-.825L30.302.04a.485.485 0 0 1 .34-.02zm-1.01 2.055L12.208 19.5l11.005 11.005 6.42-28.43zM12 20.707V25.5l2.739-2.054-2.74-2.74zM28.573 1.719l-25.16 8.986 8.087 8.088L28.573 1.719z"/>
</svg>
