<svg xmlns="http://www.w3.org/2000/svg" width="32" height="32" viewBox="0 0 32 32">
    <path fill="#0050D7" fill-rule="evenodd" d="M22.5 0A2.5 2.5 0 0 1 25 2.5v7a1.5 1.5 0 0 1-1 1.414V15c0 2.55-1.193 4.82-3.05 6.285a.47.47 0 0 1 .05.215v2a1.5 1.5 0 0 0 1.493 1.5H25.5a5.5 5.5 0 0 1 5.5 5.5v1a.5.5 0 1 1-1 0v-1a4.5 4.5 0 0 0-4.5-4.5h-2l-.004.221c-.13 3.378-3.225 6.059-6.996 6.059-3.771 0-6.866-2.681-6.996-6.059L9.5 26l-.01-.001L6.5 26A4.5 4.5 0 0 0 2 30.5v1a.5.5 0 1 1-1 0v-1A5.5 5.5 0 0 1 6.5 25h3.007l.137-.007A1.5 1.5 0 0 0 11 23.5v-2c0-.077.018-.15.05-.216A7.982 7.982 0 0 1 8 15v-4.085A1.5 1.5 0 0 1 7 9.5v-5A2.5 2.5 0 0 1 9.5 2H12v-.5A1.5 1.5 0 0 1 13.5 0h9zM16 23a7.963 7.963 0 0 1-4-1.07v1.57a2.5 2.5 0 0 1-1.54 2.309c.026.058.04.123.04.191 0 2.9 2.675 5.28 6 5.28 3.248 0 5.875-2.27 5.996-5.078L22.5 26a2.5 2.5 0 0 1-2.5-2.5l.001-1.57A7.963 7.963 0 0 1 16 23zm6.5-22h-9a.5.5 0 0 0-.5.5v1a.5.5 0 0 1-.5.5h-3A1.5 1.5 0 0 0 8 4.5v5l.005.053.003-.066A1.65 1.65 0 0 1 9.65 8h8.85a.5.5 0 1 1 0 1H9.65a.65.65 0 0 0-.65.65V15a7 7 0 0 0 14 0V8.5a.5.5 0 1 1 1 0v-6A1.5 1.5 0 0 0 22.5 1zM20 14.5a.5.5 0 0 1 .5.5c0 2.37-2.021 4.28-4.5 4.28s-4.5-1.91-4.5-4.28a.5.5 0 1 1 1 0c0 1.804 1.561 3.28 3.5 3.28s3.5-1.476 3.5-3.28a.5.5 0 0 1 .5-.5z"/>
</svg>
