<svg xmlns="http://www.w3.org/2000/svg" width="32" height="32" viewBox="0 0 32 32">
    <path fill="#0050D7" fill-rule="evenodd" d="M11.38.62c.406.407.62.968.587 1.507.023 1.832.286 3.654.762 5.363.303.735.133 1.58-.429 2.144l-3.26 3.26a24.407 24.407 0 0 0 9.854 9.956l3.32-3.363a2.49 2.49 0 0 1 2.053-.387c1.805.612 3.696.927 5.57.934a2.015 2.015 0 0 1 2.13 2.1l-.001 5.57a2.015 2.015 0 0 1-2.098 2.13 27.593 27.593 0 0 1-15.023-4.403 7.432 7.432 0 0 1-12.578 4.414.515.515 0 0 1-.06-.051l-.052-.06a7.435 7.435 0 0 1 4.415-12.58A27.542 27.542 0 0 1 2.167 2.162 2.015 2.015 0 0 1 4.267.033l5.57.001a2.015 2.015 0 0 1 1.542.587zm.976 19.732l-9.07 9.071a6.433 6.433 0 0 0 9.07-9.07zm10.507-.108l-3.52 3.574a.5.5 0 0 1-.59.091 25.404 25.404 0 0 1-5.18-3.614 7.378 7.378 0 0 1 1.322 3.968l-.21-.141a26.625 26.625 0 0 0 15.21 4.712 1.015 1.015 0 0 0 1.072-1.1v-5.63a1.015 1.015 0 0 0-1.102-1.07 18.49 18.49 0 0 1-5.872-.974c-.414-.096-.85-.009-1.13.184zM7.467 18.1a6.433 6.433 0 0 0-4.89 10.615l9.072-9.07A6.408 6.408 0 0 0 7.467 18.1zM4.237 1.032a1.015 1.015 0 0 0-1.07 1.103 26.593 26.593 0 0 0 4.568 14.971l-.268-.006a7.4 7.4 0 0 1 4.24 1.328 25.333 25.333 0 0 1-3.725-5.4.5.5 0 0 1 .091-.582l3.52-3.52c.277-.277.36-.693.192-1.11a22.039 22.039 0 0 1-.817-5.712 1.015 1.015 0 0 0-1.101-1.07l-5.63-.002z"/>
</svg>
