<svg xmlns="http://www.w3.org/2000/svg" width="30" height="30" viewBox="0 0 30 30">
    <path fill="#0050D7" fill-rule="evenodd" d="M10.69.56c.388.387.591.922.56 1.435.017 1.731.263 3.453.712 5.065a1.88 1.88 0 0 1-.408 2.044l-3.035 3.034a24.6 24.6 0 0 0 1.869 2.863L15.5 15a.5.5 0 0 1 .38.825l-2.313 2.697.17.152a20.86 20.86 0 0 0 3.966 2.713l3.105-3.143a2.367 2.367 0 0 1 1.953-.368c1.688.573 3.458.868 5.21.875A1.92 1.92 0 0 1 30 20.75v5.221A1.92 1.92 0 0 1 28 28a25.91 25.91 0 0 1-17.081-6.387L10 22.685V26.5a.5.5 0 0 1-.146.354l-3 3A.5.5 0 0 1 6 29.5v-6.815l-5.88-6.86A.5.5 0 0 1 .5 15l4.986.001A25.839 25.839 0 0 1 2 2.03 1.92 1.92 0 0 1 4 0h5.221a1.92 1.92 0 0 1 1.469.56zM14.413 16H1.587l5.293 6.175A.5.5 0 0 1 7 22.5v5.793l2-2V22.5a.5.5 0 0 1 .12-.325l1.368-1.598a.51.51 0 0 1 .012-.013l.007-.01L14.413 16zm7.043 3l-3.3 3.35a.5.5 0 0 1-.581.096 21.86 21.86 0 0 1-4.66-3.163l-1.346 1.57a24.936 24.936 0 0 0 16.46 6.148A.92.92 0 0 0 29 26v-5.279a.92.92 0 0 0-1.002-.971 17.357 17.357 0 0 1-5.511-.913c-.38-.088-.779-.009-1.03.164zM3.971 1A.92.92 0 0 0 3 2a24.88 24.88 0 0 0 3.65 13.001h2.497a25.6 25.6 0 0 1-1.687-2.714.5.5 0 0 1 .086-.59l3.3-3.3c.251-.251.327-.629.173-1.012a20.685 20.685 0 0 1-.768-5.414A.92.92 0 0 0 9.25 1H3.971z"/>
</svg>
