<svg xmlns="http://www.w3.org/2000/svg" width="32" height="32" viewBox="0 0 32 32">
    <path fill="#0050D7" fill-rule="evenodd" d="M.484 31.964l.05.003H.521l-.031-.002-.007-.001zm7.87-8.318a.5.5 0 0 1 0 .708L1.74 30.966h5.193a.5.5 0 1 1 0 1h-6.4l-.07-.005-.035-.005a.513.513 0 0 1-.046-.013l-.04-.014a.494.494 0 0 1-.15-.097l-.024-.024-.017-.02-.009-.01.026.03-.03-.035-.028-.04a.52.52 0 0 1-.066-.161L.04 31.54a.51.51 0 0 1-.006-.064v-6.41a.5.5 0 1 1 1 0v5.193l6.613-6.614a.5.5 0 0 1 .708 0zM.469 31.962l.015.002H.48l-.01-.002zm-.006-.001H.47.46h.004zm-.328-.192l.003.004.004.005-.007-.01zM12.136.6c.396.394.606.938.577 1.465.017 1.78.27 3.552.731 5.213.29.714.126 1.532-.418 2.078l-3.13 3.13c2.17 4.01 5.46 7.3 9.469 9.47l3.071-3.06c.293-.427.677-.65 1.12-.681.282-.02.52.03.875.144l.114.037a16.94 16.94 0 0 0 5.373.901 1.95 1.95 0 0 1 2.049 2.036l-.001 5.367a1.95 1.95 0 0 1-2.035 2.067A26.665 26.665 0 0 1 3.234 2.096 1.961 1.961 0 0 1 5.269.033l5.368.001a1.961 1.961 0 0 1 1.5.566zm-6.893.433a.961.961 0 0 0-1.01 1.037 25.665 25.665 0 0 0 25.728 25.698.95.95 0 0 0 1.006-1.037v-5.428a.95.95 0 0 0-1.006-1.007l-.032.001a17.929 17.929 0 0 1-5.7-.952l-.106-.035c-.24-.077-.379-.106-.498-.098-.136.01-.243.072-.423.32l-3.392 3.392a.5.5 0 0 1-.585.09A24.479 24.479 0 0 1 8.837 12.626a.5.5 0 0 1 .09-.585l3.39-3.391c.261-.262.34-.653.183-1.048a21.254 21.254 0 0 1-.786-5.56.961.961 0 0 0-1.047-1.009H5.243zm24.444 1.28a.5.5 0 0 1 0 .707l-6.614 6.613h5.194a.5.5 0 0 1 0 1h-6.423a.503.503 0 0 1-.043-.004l.066.004a.502.502 0 0 1-.354-.146l-.016-.017a.503.503 0 0 1-.027-.033l.043.05a.502.502 0 0 1-.146-.354v-6.4a.5.5 0 1 1 1 0v5.193l6.613-6.613a.5.5 0 0 1 .707 0z"/>
</svg>
