<svg xmlns="http://www.w3.org/2000/svg" width="32" height="32" viewBox="0 0 32 32">
    <path fill="#0050D7" fill-rule="evenodd" d="M31.409 22.147c.432.447.647 1.06.591 1.633v5.972A2.13 2.13 0 0 1 29.78 32 29.75 29.75 0 0 1 0 2.249 2.13 2.13 0 0 1 .635.606 2.105 2.105 0 0 1 2.25 0h5.97A2.13 2.13 0 0 1 9.88.648c.432.447.647 1.06.591 1.627.022 1.968.3 3.925.827 5.82.395.783.194 1.738-.455 2.261l-3.526 3.499a26.32 26.32 0 0 0 10.662 10.671l3.588-3.58a2.637 2.637 0 0 1 2.172-.42 18.99 18.99 0 0 0 6.028.975 2.13 2.13 0 0 1 1.643.647zm-1.6.352l-.028.001a19.852 19.852 0 0 1-6.313-1.013c-.456-.105-.936-.007-1.254.217l-3.79 3.79a.5.5 0 0 1-.585.09A27.32 27.32 0 0 1 6.257 13.99a.5.5 0 0 1 .09-.586l3.828-3.793a.87.87 0 0 0 .216-1.093l-.042-.104a23.633 23.633 0 0 1-.877-6.182A1.13 1.13 0 0 0 8.25 1L2.212.999A1.13 1.13 0 0 0 1 2.22 28.75 28.75 0 0 0 29.808 31 1.13 1.13 0 0 0 31 29.78l.002-6.047A1.13 1.13 0 0 0 29.81 22.5z"/>
</svg>
