<svg xmlns="http://www.w3.org/2000/svg" width="32" height="32" viewBox="0 0 32 32">
    <path fill="#0050D7" fill-rule="evenodd" d="M24.5 2a.5.5 0 0 1 .5.5V8h6.5a.5.5 0 0 1 .5.5v13a.5.5 0 0 1-.5.5H25v7.5a.5.5 0 0 1-.5.5h-17a.5.5 0 0 1-.5-.5V22H.5a.5.5 0 0 1-.5-.5v-13A.5.5 0 0 1 .5 8H7V2.5a.5.5 0 0 1 .5-.5h17zM24 18H8v11h16V18zm-2 8a.5.5 0 1 1 0 1H10a.5.5 0 1 1 0-1h12zm0-3a.5.5 0 1 1 0 1H10a.5.5 0 1 1 0-1h12zm9-14H1v12h6v-3.5a.5.5 0 0 1 .5-.5h17a.5.5 0 0 1 .5.5V21h6V9zM5 12a1 1 0 1 1 0 2 1 1 0 0 1 0-2zm19-9H8v5h16V3z"/>
</svg>
