<svg xmlns="http://www.w3.org/2000/svg" width="32" height="32" viewBox="0 0 32 32">
    <path fill="#0050D7" fill-rule="evenodd" d="M22.5 0A1.5 1.5 0 0 1 24 1.5v5a.5.5 0 0 1-.5.5H21v2h2a1 1 0 0 1 0 2h-2v2h2a1 1 0 0 1 0 2h-2v2h2a1 1 0 0 1 0 2h-2v2h2a1 1 0 0 1 0 2h-2v2h2.5a.5.5 0 0 1 .5.5v5a1.5 1.5 0 0 1-1.5 1.5h-13A1.5 1.5 0 0 1 8 30.5v-29A1.5 1.5 0 0 1 9.5 0h13zm0 1h-13a.5.5 0 0 0-.5.5v29a.5.5 0 0 0 .5.5h13a.5.5 0 0 0 .5-.5V26h-2.5a.5.5 0 0 1-.5-.5v-19a.5.5 0 0 1 .5-.5H23V1.5a.5.5 0 0 0-.5-.5zm-6 21a.5.5 0 0 1 .5.5v5a.5.5 0 0 1-.5.5h-4a.5.5 0 0 1-.5-.5v-5a.5.5 0 0 1 .5-.5h4zm-.5 1h-3v4h3v-4zm.5-10a.5.5 0 0 1 .5.5v5a.5.5 0 0 1-.5.5h-4a.5.5 0 0 1-.5-.5v-5a.5.5 0 0 1 .5-.5h4zm-.5 1h-3v4h3v-4zm.5-10a.5.5 0 0 1 .5.5v5a.5.5 0 0 1-.5.5h-4a.5.5 0 0 1-.5-.5v-5a.5.5 0 0 1 .5-.5h4zM16 5h-3v4h3V5z"/>
</svg>
