<svg xmlns="http://www.w3.org/2000/svg" width="32" height="32" viewBox="0 0 32 32">
    <path fill="#0050D7" fill-rule="evenodd" d="M28.5 0a.5.5 0 0 1 .5.5v28a3.5 3.5 0 0 1-3.5 3.5h-19A3.5 3.5 0 0 1 3 28.5v-3a.5.5 0 0 1 .5-.5H9V.5a.5.5 0 0 1 .5-.5h19zM22 26H4v2.5A2.5 2.5 0 0 0 6.5 31h16.55A3.49 3.49 0 0 1 22 28.5V26zm6-25H10v24h12.5a.5.5 0 0 1 .5.5v3a2.5 2.5 0 0 0 2.336 2.495L25.5 31a2.5 2.5 0 0 0 2.5-2.5V1zm-2.5 17a.5.5 0 1 1 0 1h-5a.5.5 0 1 1 0-1h5zm0-3a.5.5 0 1 1 0 1h-5a.5.5 0 1 1 0-1h5zm0-5a.5.5 0 1 1 0 1h-13a.5.5 0 1 1 0-1h13zm0-3a.5.5 0 1 1 0 1h-13a.5.5 0 1 1 0-1h13zm0-3a.5.5 0 1 1 0 1h-13a.5.5 0 1 1 0-1h13z"/>
</svg>
