<svg xmlns="http://www.w3.org/2000/svg" width="32" height="32" viewBox="0 0 32 32">
    <path fill="#0050D7" fill-rule="evenodd" d="M19.733.033C20.6.033 21.3.735 21.3 1.6v3.766h3.767c.865 0 1.566.702 1.566 1.567V10.7l3.834.001a1.5 1.5 0 0 1 1.5 1.5v18.267a1.5 1.5 0 0 1-1.5 1.5H12.2a1.5 1.5 0 0 1-1.5-1.5v-3.835l-3.767.001a1.567 1.567 0 0 1-1.566-1.566v-3.768L1.6 21.3a1.567 1.567 0 0 1-1.567-1.567V1.6C.033.735.735.033 1.6.033h18.133zM30.467 11.7H12.2a.5.5 0 0 0-.5.5v18.267a.5.5 0 0 0 .5.5h18.267a.5.5 0 0 0 .5-.5V12.2a.5.5 0 0 0-.5-.5zm-5.4-5.333H6.933a.567.567 0 0 0-.566.566v18.134c0 .313.253.566.566.566H10.7L10.7 12.2a1.5 1.5 0 0 1 1.5-1.5h13.433V6.932a.567.567 0 0 0-.566-.566zm-5.334-5.334H1.6a.567.567 0 0 0-.567.567v18.133c0 .313.254.567.567.567h3.766V6.932c0-.865.702-1.566 1.567-1.566H20.3L20.3 1.6a.567.567 0 0 0-.567-.567z"/>
</svg>
