<svg xmlns="http://www.w3.org/2000/svg" width="32" height="32" viewBox="0 0 32 32">
    <path fill="#0050D7" fill-rule="evenodd" d="M23.5 1A1.5 1.5 0 0 1 25 2.5V7h1.5A1.5 1.5 0 0 1 28 8.5V12h1.5a1.5 1.5 0 0 1 1.5 1.5v16a1.5 1.5 0 0 1-1.5 1.5h-21A1.5 1.5 0 0 1 7 29.5V26H5.5A1.5 1.5 0 0 1 4 24.5V20H2.5A1.5 1.5 0 0 1 1 18.5v-16A1.5 1.5 0 0 1 2.5 1h21zM30 18H8v11.5a.5.5 0 0 0 .5.5h21a.5.5 0 0 0 .5-.5V18zM26.5 8h-21a.5.5 0 0 0-.5.5v16a.5.5 0 0 0 .5.5H7V13.5A1.5 1.5 0 0 1 8.5 12H27V8.5a.5.5 0 0 0-.5-.5zm-3-6h-21a.5.5 0 0 0-.5.5v16a.5.5 0 0 0 .5.5H4V8.5A1.5 1.5 0 0 1 5.5 7H24V2.5a.5.5 0 0 0-.5-.5zm6 11h-21a.5.5 0 0 0-.5.5V17h22v-3.5a.5.5 0 0 0-.5-.5zM11 14a1 1 0 1 1 0 2 1 1 0 0 1 0-2zm4 0a1 1 0 1 1 0 2 1 1 0 0 1 0-2zm4 0a1 1 0 1 1 0 2 1 1 0 0 1 0-2z"/>
</svg>
