<svg xmlns="http://www.w3.org/2000/svg" width="32" height="32" viewBox="0 0 32 32">
    <path fill="#0050D7" fill-rule="evenodd" d="M3.5 25a3.5 3.5 0 1 1 0 7 3.5 3.5 0 0 1 0-7zM.5 0C17.897 0 32 14.103 32 31.5a.5.5 0 0 1-.5.5h-7a.5.5 0 0 1-.5-.5C24 18.521 13.479 8 .5 8a.5.5 0 0 1-.5-.5v-7A.5.5 0 0 1 .5 0zm0 12C11.27 12 20 20.73 20 31.5a.5.5 0 0 1-.5.5h-7a.5.5 0 0 1-.5-.5C12 25.149 6.851 20 .5 20a.5.5 0 0 1-.5-.5v-7a.5.5 0 0 1 .5-.5zm3 14a2.5 2.5 0 1 0 0 5 2.5 2.5 0 0 0 0-5zM1 1.004v6.001C14.134 7.268 24.732 17.866 24.995 31h6.001C30.732 14.552 17.448 1.268 1 1.004zm0 12.003v6.003c6.506.256 11.734 5.484 11.99 11.99h6.003C18.733 21.18 10.82 13.267 1 13.007z"/>
</svg>
