<svg xmlns="http://www.w3.org/2000/svg" width="32" height="32" viewBox="0 0 32 32">
    <path fill="#0050D7" fill-rule="evenodd" d="M24.5 0A3.5 3.5 0 0 1 28 3.5v25a3.5 3.5 0 0 1-3.5 3.5h-17A3.5 3.5 0 0 1 4 28.5v-25A3.5 3.5 0 0 1 7.5 0h17zm0 1h-17A2.5 2.5 0 0 0 5 3.5v25A2.5 2.5 0 0 0 7.5 31h17a2.5 2.5 0 0 0 2.5-2.5v-25A2.5 2.5 0 0 0 24.5 1zm.385 9.315a9.021 9.021 0 0 1-5.338 9.957c1.868 1.325 3.99 3.02 4.566 3.614a3 3 0 0 1 .012 4.236 3 3 0 0 1-4.249.002c-.642-.643-2.472-2.944-3.805-4.843-.65-.925-1.182-1.73-1.583-2.422a9.02 9.02 0 1 1 10.396-10.544zM14.578 18.6c-.114.11.117.642.554 1.399.12.081.2.213.215.36 1.321 2.19 3.954 5.776 5.237 7.059a2 2 0 0 0 2.831 0 2.002 2.002 0 0 0-.014-2.829c-1.702-1.755-8.372-6.426-8.823-5.99zM15.4 3.974a8.02 8.02 0 0 0-1.5 15.733c-.365-.867-.388-1.467-.018-1.826.679-.658 2.19.02 4.668 1.698l-.224.072A8.02 8.02 0 0 0 15.4 3.974zM16 9a3 3 0 1 1 0 6 3 3 0 0 1 0-6zm0 1a2 2 0 1 0 0 4 2 2 0 0 0 0-4z"/>
</svg>
