<svg xmlns="http://www.w3.org/2000/svg" width="32" height="32" viewBox="0 0 32 32">
    <path fill="#0050D7" fill-rule="evenodd" d="M26 0a5 5 0 1 1-4.117 7.838l-11.283 6.2c.258.603.4 1.266.4 1.962s-.142 1.36-.4 1.962l11.283 6.2A5 5 0 1 1 21 27c0-.696.142-1.36.4-1.962l-11.283-6.2a5 5 0 1 1 0-5.676l11.283-6.2A5 5 0 0 1 26 0zm0 23c-1.504 0-2.814.83-3.498 2.058 0 .005-.002.009-.004.013l-.008.01A4 4 0 1 0 26 23zM6 12a4 4 0 1 0 3.502 5.93l.008-.01c.312-.57.49-1.224.49-1.92s-.178-1.35-.49-1.92c-.004-.001-.006-.005-.008-.01l-.004-.012A3.999 3.999 0 0 0 6 12zM26 1a4 4 0 0 0-3.502 5.93l.004.012A4 4 0 1 0 26 1z"/>
</svg>
