<svg xmlns="http://www.w3.org/2000/svg" width="32" height="32" viewBox="0 0 32 32">
    <path fill="#0050D7" fill-rule="evenodd" d="M26.5 5a5.5 5.5 0 0 1 5.5 5.5v11a5.5 5.5 0 0 1-5.5 5.5H9.499a3.504 3.504 0 0 1-2.186-.774 1.282 1.282 0 0 0-1.63.004A3.5 3.5 0 0 1 3.5 27h-3c-.505 0-.692-.663-.26-.927A5.78 5.78 0 0 0 3 21.5v-11A5.5 5.5 0 0 1 8.5 5h18zm0 1h-18A4.5 4.5 0 0 0 4 10.5v11.03A6.79 6.79 0 0 1 1.954 26h1.544a2.496 2.496 0 0 0 1.554-.546 2.278 2.278 0 0 1 2.89-.004A2.5 2.5 0 0 0 9.5 26h17a4.5 4.5 0 0 0 4.5-4.5v-11A4.5 4.5 0 0 0 26.5 6zm-1 13a.5.5 0 1 1 0 1h-16a.5.5 0 1 1 0-1h16zm0-4a.5.5 0 1 1 0 1h-16a.5.5 0 1 1 0-1h16zm0-4a.5.5 0 1 1 0 1h-16a.5.5 0 1 1 0-1h16z"/>
</svg>
