<svg xmlns="http://www.w3.org/2000/svg" width="32" height="32" viewBox="0 0 32 32">
    <path fill="#0050D7" fill-rule="evenodd" d="M10.084.146l5.09 5.09a.5.5 0 0 1 .126.493l-1.99 6.883 1.684 1.676.222-.22c.83-.838 3.727.707 4.928 1.909l11.211 11.23a2.14 2.14 0 0 1-.001 3.017l-1.132 1.131a2.14 2.14 0 0 1-3.015-.001L15.989 20.146c-1.202-1.183-2.763-4.102-1.923-4.93l.221-.221-1.689-1.681-6.87 1.986a.5.5 0 0 1-.492-.126l-5.09-5.09a.5.5 0 0 1 .708-.708l4.88 4.882 6.612-1.912 1.912-6.611L9.376.854a.5.5 0 1 1 .708-.708zm5.842 14.625l-1.155 1.155c-.216.213 1.13 2.73 1.922 3.51l11.22 11.209a1.14 1.14 0 0 0 1.603.001l1.129-1.128a1.14 1.14 0 0 0 .001-1.605l-11.21-11.23c-.789-.789-3.298-2.127-3.51-1.912zM8.584 3.206l2.69 2.69a.5.5 0 0 1 .13.482l-.98 3.69a.5.5 0 0 1-.356.355l-3.69.98a.5.5 0 0 1-.482-.13l-2.69-2.69a.5.5 0 0 1-.129-.483l.99-3.68a.5.5 0 0 1 .353-.353l3.68-.99a.5.5 0 0 1 .484.13zm-.503.912l-3.123.84-.84 3.123L6.4 10.363 9.53 9.53l.832-3.131L8.08 4.118z"/>
</svg>
