<svg xmlns="http://www.w3.org/2000/svg" width="32" height="32" viewBox="0 0 32 32">
    <path fill="#0050D7" fill-rule="evenodd" d="M24.5 0A3.5 3.5 0 0 1 28 3.5v25a3.5 3.5 0 0 1-3.5 3.5h-17A3.5 3.5 0 0 1 4 28.5v-25A3.5 3.5 0 0 1 7.5 0h17zM7.016 7.54c-.683.052-1.356.158-2.015.314L5 28.5A2.5 2.5 0 0 0 7.5 31h8.308a13.058 13.058 0 0 0 5.01-12.85C19.598 11.6 13.646 7.026 7.016 7.54zM24.5 1h-17A2.5 2.5 0 0 0 5 3.5v3.329c.635-.14 1.283-.236 1.939-.287 7.14-.553 13.548 4.373 14.862 11.425a14.06 14.06 0 0 1-4.42 13.034L24.5 31a2.5 2.5 0 0 0 2.5-2.5v-25A2.5 2.5 0 0 0 24.5 1zM8 27a1 1 0 1 1 0 2 1 1 0 0 1 0-2zm16 0a1 1 0 1 1 0 2 1 1 0 0 1 0-2zM8 3a1 1 0 1 1 0 2 1 1 0 0 1 0-2zm16 0a1 1 0 1 1 0 2 1 1 0 0 1 0-2z"/>
</svg>
