<svg xmlns="http://www.w3.org/2000/svg" width="32" height="32" viewBox="0 0 32 32">
    <path fill="#0050D7" fill-rule="evenodd" d="M15.752 25.086a.5.5 0 0 1 .496 0l8.618 4.911-2.016-9.715a.5.5 0 0 1 .154-.472l7.34-6.675-9.859-1.088a.5.5 0 0 1-.4-.291L16 2.715l-4.084 9.04a.5.5 0 0 1-.401.292l-9.859 1.088 7.34 6.675a.5.5 0 0 1 .154.472l-2.016 9.715 8.618-4.911zm.248 1.01l-9.332 5.318a.5.5 0 0 1-.738-.536l2.182-10.52L.164 13.13a.5.5 0 0 1 .281-.867l10.677-1.179 4.422-9.79a.5.5 0 0 1 .912 0l4.422 9.79 10.677 1.179a.5.5 0 0 1 .281.867l-7.948 7.228 2.182 10.52a.5.5 0 0 1-.738.536L16 26.096z"/>
</svg>
