<svg xmlns="http://www.w3.org/2000/svg" width="32" height="32" viewBox="0 0 32 32">
    <path fill="#0050D7" fill-rule="evenodd" d="M16 0c8.837 0 16 7.163 16 16s-7.163 16-16 16S0 24.837 0 16 7.163 0 16 0zm0 1C7.716 1 1 7.716 1 16c0 8.284 6.716 15 15 15 8.284 0 15-6.716 15-15 0-8.284-6.716-15-15-15zm1.5 19a.5.5 0 0 1 .5.5V24h1.5a.5.5 0 0 1 .354.854l-4 4a.5.5 0 0 1-.708 0l-4-4A.5.5 0 0 1 11.5 24H13v-3.5a.5.5 0 0 1 .5-.5h4zm-.5 1h-3v3.5a.5.5 0 0 1-.5.5h-.793l2.793 2.793L18.293 25H17.5a.5.5 0 0 1-.5-.5V21zm-9-9.5V13h3.5a.5.5 0 0 1 .5.5v4a.5.5 0 0 1-.5.5H8v1.5a.5.5 0 0 1-.854.354l-4-4a.5.5 0 0 1 0-.708l4-4A.5.5 0 0 1 8 11.5zm16.854-.354l4 4a.5.5 0 0 1 0 .708l-4 4A.5.5 0 0 1 24 19.5V18h-3.5a.5.5 0 0 1-.5-.5v-4a.5.5 0 0 1 .5-.5H24v-1.5a.5.5 0 0 1 .854-.354zM7 12.707L4.207 15.5 7 18.293V17.5a.5.5 0 0 1 .5-.5H11v-3H7.5a.5.5 0 0 1-.5-.5v-.793zm18 0v.793a.5.5 0 0 1-.5.5H21v3h3.5a.5.5 0 0 1 .5.5v.793l2.793-2.793L25 12.707zm-9.146-9.56l4 4A.5.5 0 0 1 19.5 8H18v3.5a.5.5 0 0 1-.5.5h-4a.5.5 0 0 1-.5-.5V8h-1.5a.5.5 0 0 1-.354-.854l4-4a.5.5 0 0 1 .708 0zm-.354 1.06L12.707 7h.793a.5.5 0 0 1 .5.5V11h3V7.5a.5.5 0 0 1 .5-.5h.793L15.5 4.207z"/>
</svg>
