<svg xmlns="http://www.w3.org/2000/svg" width="32" height="32" viewBox="0 0 32 32">
    <path fill="#0050D7" fill-rule="evenodd" d="M26.854 17.146l5 5 .011.013a.503.503 0 0 1 .033.039l-.044-.052A.502.502 0 0 1 32 22.5v.02a.503.503 0 0 1-.005.052L32 22.5a.502.502 0 0 1-.146.354l-5 5a.5.5 0 0 1-.708-.708L30.292 23H28.5a.5.5 0 1 1 0-1h1.792l-4.146-4.146a.5.5 0 0 1 .708-.708zM25.5 22a.5.5 0 1 1 0 1h-3a.5.5 0 1 1 0-1h3zm-6 0a.5.5 0 1 1 0 1h-3a.5.5 0 1 1 0-1h3zm-6 0a.5.5 0 1 1 0 1h-3a.5.5 0 1 1 0-1h3zm-6 0a.5.5 0 1 1 0 1h-3a.5.5 0 1 1 0-1h3zm-6 0a.5.5 0 1 1 0 1h-1a.5.5 0 1 1 0-1h1zM26.854 4.146l5.011 5.013.017.019.009.01-.027-.03.03.035.029.04A.52.52 0 0 1 32 9.48v.02l-.004.053.001-.007a.392.392 0 0 1-.02.105l-.015.04a.494.494 0 0 1-.097.15l-5.011 5.013a.5.5 0 0 1-.708-.708L30.292 10H.5a.5.5 0 0 1 0-1h29.792l-4.146-4.146a.5.5 0 0 1 .708-.708zm5.037 5.042l.007.01-.004-.005-.003-.005z"/>
</svg>
