<svg xmlns="http://www.w3.org/2000/svg" width="32" height="32" viewBox="0 0 32 32">
    <path fill="#0050D7" fill-rule="evenodd" d="M15.208 1A3.78 3.78 0 0 1 19 4.76V9h9a3 3 0 0 1 1.657 5.501 3.001 3.001 0 0 1-.607 5.31 3 3 0 0 1-1.924 5.186c.496.524.82 1.22.874 2.005A3.01 3.01 0 0 1 25.1 30H7v.5a.5.5 0 0 1-.5.5h-5a.5.5 0 1 1 0-1H6V9.498a.51.51 0 0 1 0-.011V8H1.5a.5.5 0 0 1 0-1h5a.5.5 0 0 1 .5.5v1.493l2.309.015A.499.499 0 0 1 9.5 8.97a3.5 3.5 0 0 0 3.5-3.5V3.11A2.199 2.199 0 0 1 15.208 1zm7.242 24a.5.5 0 1 1 0-1H27a2 2 0 1 0 0-4h-4.53a.5.5 0 1 1 0-1H28a2 2 0 1 0 0-4h-5.53a.5.5 0 1 1 0-1H28a2 2 0 1 0 0-4h-9.5a.5.5 0 0 1-.5-.5V4.763A2.781 2.781 0 0 0 15.207 2 1.196 1.196 0 0 0 14 3.13v2.4l-.002.018-.003.134a4.5 4.5 0 0 1-4.293 4.284.469.469 0 0 1-.205.044L7 9.993V29h17.998c1.104-.004 1.998-.898 2.003-1.965A2.19 2.19 0 0 0 24.832 25H22.45z"/>
</svg>
