<svg xmlns="http://www.w3.org/2000/svg" width="32" height="32" viewBox="0 0 32 32">
    <path fill="#0050D7" fill-rule="evenodd" d="M3.5 25a3.5 3.5 0 1 1 0 7 3.5 3.5 0 0 1 0-7zm28 5a.5.5 0 1 1 0 1h-20a.5.5 0 1 1 0-1h20zm-28-4a2.5 2.5 0 1 0 0 5 2.5 2.5 0 0 0 0-5zm28 1a.5.5 0 1 1 0 1h-20a.5.5 0 1 1 0-1h20zm-28-15a3.5 3.5 0 1 1 0 7 3.5 3.5 0 0 1 0-7zm0 1a2.5 2.5 0 1 0 0 5 2.5 2.5 0 0 0 0-5zm28 4a.5.5 0 1 1 0 1h-20a.5.5 0 1 1 0-1h20zm0-3a.5.5 0 1 1 0 1h-20a.5.5 0 1 1 0-1h20zM7.82.116a.5.5 0 0 1 .064.704l-5 6a.5.5 0 0 1-.738.034l-2-2a.5.5 0 1 1 .708-.708L2.466 5.76 7.116.18A.5.5 0 0 1 7.82.117zM31.5 5a.5.5 0 1 1 0 1h-20a.5.5 0 1 1 0-1h20zm0-3a.5.5 0 1 1 0 1h-20a.5.5 0 1 1 0-1h20z"/>
</svg>
