<svg xmlns="http://www.w3.org/2000/svg" width="32" height="32" viewBox="0 0 32 32">
    <path fill="#0050D7" fill-rule="evenodd" d="M20.8.033c.865 0 1.567.702 1.567 1.567v8.032l8.033.001c.865 0 1.567.702 1.567 1.567v19.2c0 .865-.702 1.567-1.567 1.567H11.2A1.567 1.567 0 0 1 9.633 30.4v-8.034H1.6A1.567 1.567 0 0 1 .033 20.8V1.6C.033.735.735.033 1.6.033h19.2zm0 1H1.6a.567.567 0 0 0-.567.567v19.2c0 .313.254.567.567.567h8.032l.001-4.834a.5.5 0 0 1 1 0V30.4c0 .313.254.567.567.567h19.2a.567.567 0 0 0 .567-.567V11.2a.567.567 0 0 0-.567-.567H16.533a.5.5 0 0 1 0-1h4.833V1.6a.567.567 0 0 0-.566-.567zM10.487 9.78l13.012 13.012.001-4.125a.5.5 0 1 1 1 0v5.356l-.002.021-.002.01-.008.054a.516.516 0 0 1-.134.246l-.016.015-.01.007.008-.008-.024.021.01-.007-.008.008a.499.499 0 0 1-.291.11h-5.356a.5.5 0 1 1 0-1h4.125L9.78 10.486a.5.5 0 0 1 .707-.707z"/>
</svg>
