<svg xmlns="http://www.w3.org/2000/svg" width="32" height="32" viewBox="0 0 32 32">
    <path fill="#0050D7" fill-rule="evenodd" d="M19.5 4A1.5 1.5 0 0 1 21 5.5v1.499L24.087 7c.399-.002.782.154 1.067.437l6.411 6.42c.28.284.437.667.435 1.063v7.58a1.5 1.5 0 0 1-1.5 1.5h-1.536a3.5 3.5 0 1 1-6.929.001l-11.57-.001a3.5 3.5 0 1 1-6.93 0H1.5A1.5 1.5 0 0 1 0 22.5v-17A1.5 1.5 0 0 1 1.5 4h18zM7 22a2.5 2.5 0 1 0 0 5 2.5 2.5 0 0 0 0-5zm18.5 0a2.5 2.5 0 1 0 0 5 2.5 2.5 0 0 0 0-5zM24.09 8L21 7.999V23h1.337a3.5 3.5 0 0 1 6.326-.001L30.5 23a.5.5 0 0 0 .5-.5v-7.583a.499.499 0 0 0-.144-.354l-6.408-6.418A.502.502 0 0 0 24.09 8zM19.5 5h-18a.5.5 0 0 0-.5.5v17a.5.5 0 0 0 .5.5h2.337a3.5 3.5 0 0 1 6.326 0H20V5.5a.5.5 0 0 0-.5-.5zm6.19 7c.332 0 .65.132.884.366l1.06 1.06c.234.234.366.552.366.884v1.19a.5.5 0 0 1-.5.5h-3a.5.5 0 0 1-.5-.5v-3a.5.5 0 0 1 .5-.5h1.19zm0 1H25v2h2v-.69a.25.25 0 0 0-.074-.176l-1.06-1.06A.25.25 0 0 0 25.69 13z"/>
</svg>
