<svg xmlns="http://www.w3.org/2000/svg" width="32" height="32" viewBox="0 0 32 32">
    <path fill="#0050D7" fill-rule="evenodd" d="M23.5 5c1.274 0 2.388.68 3 1.697A3.495 3.495 0 0 1 29.5 5h2a.5.5 0 1 1 0 1h-2A2.5 2.5 0 0 0 27 8.5v15a2.5 2.5 0 0 0 2.5 2.5h2a.5.5 0 1 1 0 1h-2a3.498 3.498 0 0 1-3-1.697 3.495 3.495 0 0 1-3 1.697h-2a.5.5 0 1 1 0-1h2a2.5 2.5 0 0 0 2.5-2.5v-15A2.5 2.5 0 0 0 23.5 6h-2a.5.5 0 1 1 0-1h2zm-7.86 8.22c2.28 0 3 1.64 3 3.7V23h-.74l-.1-1.24a5.7 5.7 0 0 1-3.4 1.48 2.53 2.53 0 0 1-2.8-2.64c0-2.12 1.94-3.14 6.2-3.62V17c0-1.46-.38-3-2.26-3a5.3 5.3 0 0 0-3.06 1.12l-.4-.66a6.4 6.4 0 0 1 3.56-1.24zM5.58 9.87L10.22 23h-1L7.7 18.53H2.48L.94 23H0L4.66 9.87h.92zm12.22 7.84c-3.94.46-5.28 1.38-5.28 2.9a1.8 1.8 0 0 0 2 1.92l.02-.05A5 5 0 0 0 17.8 21v-3.29zM5.14 10.73h-.08c-.46 1.62-.92 3-1.46 4.56l-.84 2.46h4.68l-.84-2.46c-.52-1.56-1-2.94-1.46-4.56z"/>
</svg>
