<svg xmlns="http://www.w3.org/2000/svg" width="32" height="32" viewBox="0 0 32 32">
    <path fill="#0050D7" fill-rule="evenodd" d="M11.5 8a.5.5 0 0 1 0 1H3.124A1.11 1.11 0 0 0 2 10.09v18.814A1.11 1.11 0 0 0 3.13 30h25.746A1.11 1.11 0 0 0 30 28.91V10.096A1.11 1.11 0 0 0 28.87 9H21.5a.5.5 0 1 1 0-1h7.364A2.111 2.111 0 0 1 31 10.09v18.826A2.11 2.11 0 0 1 28.87 31H3.136A2.111 2.111 0 0 1 1 28.91V10.084A2.11 2.11 0 0 1 3.13 8h8.37zm5.354-6.854l4 4a.5.5 0 0 1-.708.708L17 2.707V16.49a.5.5 0 1 1-1 0V2.707l-3.146 3.147a.5.5 0 0 1-.708-.708l4-4a.5.5 0 0 1 .708 0z"/>
</svg>
