<svg xmlns="http://www.w3.org/2000/svg" width="32" height="32" viewBox="0 0 32 32">
    <path fill="#0050D7" fill-rule="evenodd" d="M11.995 12a7.76 7.76 0 0 1 6.914 4.075A8 8 0 1 1 12 24H4.5a.5.5 0 0 1-.5-.5v-3c0-4.79 3.399-8.5 7.995-8.5zm13.296 7.416l-9.875 9.875a7 7 0 0 0 9.874-9.874zM20 17c-.314 0-.623.02-.927.06l-.286.045a.511.511 0 0 1-.122.024 7 7 0 0 0-3.956 11.455l9.875-9.875A6.973 6.973 0 0 0 20 17zm-8-4c-4.028 0-7 3.244-7 7.5V23h7.062a8.008 8.008 0 0 1 5.815-6.715A6.76 6.76 0 0 0 12 13zm6.846 4.081l-.074.026.013-.002a.505.505 0 0 0 .06-.024l-.058.024.059-.024zM12 0a5 5 0 1 1 0 10 5 5 0 0 1 0-10zm0 1a4 4 0 1 0 0 8 4 4 0 0 0 0-8z"/>
</svg>
