<svg xmlns="http://www.w3.org/2000/svg" width="32" height="32" viewBox="0 0 32 32">
    <path fill="#0050D7" fill-rule="evenodd" d="M25.5 2A3.5 3.5 0 0 1 29 5.5V9h2.5a.5.5 0 0 1 .5.5v20a.5.5 0 0 1-.5.5h-28A3.5 3.5 0 0 1 0 26.5v-21A3.5 3.5 0 0 1 3.5 2h22zm-22 8l-.188-.006H3.3l-.072-.004a3.513 3.513 0 0 1-.139-.014L3 9.965a3.49 3.49 0 0 1-1.69-.734l-.019-.016A3.52 3.52 0 0 1 1 8.949V26.5A2.5 2.5 0 0 0 3.5 29H31v-6h-9.5a.5.5 0 0 1-.5-.5v-6a.5.5 0 0 1 .5-.5H31v-6H3.5zM31 17h-9v5h9v-5zm-6.5 2a.5.5 0 1 1 0 1 .5.5 0 0 1 0-1zM3.288 9.994h.018H3.288zM25.5 3h-22A2.5 2.5 0 0 0 1 5.5v1A2.5 2.5 0 0 0 3.5 9H4V5.5a.5.5 0 0 1 .5-.5h21a.5.5 0 0 1 .5.5V9h2V5.5A2.5 2.5 0 0 0 25.5 3zM25 8H5v1h20V8zM.603 8.464l.003.005-.003-.005zM25 6H5v1h20V6zM.024 6.91l.003.023a3.505 3.505 0 0 1-.003-.024zm-.019-.218l.002.026.005.079-.007-.105zm3.358 3.305l-.034-.002.05.002h-.016zm-.057-.003h.006l.017.001-.023-.001zM3.5 10l-.106-.002-.015-.001L3.5 10z"/>
</svg>
