<svg xmlns="http://www.w3.org/2000/svg" width="32" height="32" viewBox="0 0 32 32">
    <path fill="#0050D7" fill-rule="evenodd" d="M18.471 22.024a3.5 3.5 0 1 1-4.95 4.95 3.5 3.5 0 0 1 4.95-4.95zm-4.242.707a2.5 2.5 0 1 0 3.535 3.536 2.5 2.5 0 0 0-3.535-3.536zm10.616-7.083l.012.012c.33.357.64.732.927 1.125a.5.5 0 0 1-.033.63l-4.16 4.6a.5.5 0 0 1-.818-.11 5.365 5.365 0 0 0-.906-1.291c-2.148-2.145-5.626-2.145-7.765-.01a5.44 5.44 0 0 0-.916 1.301.5.5 0 0 1-.817.11l-4.16-4.6a.5.5 0 0 1-.024-.642 12.44 12.44 0 0 1 18.66-1.125zm-9.524-2.662a11.44 11.44 0 0 0-8.084 4.075l3.413 3.774c.215-.328.46-.639.737-.929a6.502 6.502 0 0 1 9.195.009c.27.284.514.592.728.92l3.421-3.783a11.55 11.55 0 0 0-.602-.706 11.44 11.44 0 0 0-8.808-3.36zm.639-9.988a21.5 21.5 0 0 1 15.204 6.298c.126.127.226.237.415.455l.043.048c.091.105.147.168.207.233a.5.5 0 0 1 .003.672l-4 4.46a.5.5 0 0 1-.754-.012 14.67 14.67 0 0 0-.831-.908c-5.662-5.66-14.838-5.66-20.5-.003l-.193.2c-.371.39-.52.542-.757.758a.5.5 0 0 1-.71-.035l-4-4.46a.5.5 0 0 1 .004-.672c.045-.048.088-.096.145-.161l.105-.12c.19-.218.289-.328.415-.455A21.5 21.5 0 0 1 15.96 2.998zm0 1a20.5 20.5 0 0 0-14.496 6.006c-.099.098-.182.19-.335.364l3.357 3.742c.092-.094.2-.207.344-.358l.2-.21.006-.006c6.053-6.05 15.865-6.05 21.918 0 .17.171.341.352.511.54l3.326-3.708a6.92 6.92 0 0 0-.335-.364A20.5 20.5 0 0 0 15.96 3.998z"/>
</svg>
