<svg xmlns="http://www.w3.org/2000/svg" width="32" height="32" viewBox="0 0 32 32">
    <path fill="#0050D7" fill-rule="evenodd" d="M21.326 1.808a14.367 14.367 0 0 1 7.13 15.586A7.967 7.967 0 1 1 17.39 28.449l.17-.036a14.373 14.373 0 0 1-3.161.354l-.09-.002A14.37 14.37 0 0 1 4.24 4.244a14.367 14.367 0 0 1 17.086-2.436zM24 17.033a6.967 6.967 0 0 0-6.425 9.666l.135.3.036.058a.497.497 0 0 1 .03.073A6.967 6.967 0 1 0 24 17.033zM13.9 27.736V21.3l-5.776.001c1.218 3.64 3.36 6.135 5.777 6.436zm2.603-6.437h-1.604l.002 6.432a4.492 4.492 0 0 0 1.764-.62A7.92 7.92 0 0 1 16.033 24c0-.948.166-1.857.47-2.7zM24 20.3a.5.5 0 0 1 .5.5v2.7h2.7a.5.5 0 1 1 0 1h-2.7v2.7a.5.5 0 1 1-1 0v-2.7h-2.7a.5.5 0 1 1 0-1h2.7v-2.7a.5.5 0 0 1 .5-.5zm-13.408 6.909c-1.497-1.314-2.722-3.383-3.52-5.908H2.96a13.36 13.36 0 0 0 7.633 5.908zm7.111-.221l.01.018-.003-.008-.007-.01zM21.738 14.9L14.9 14.9v5.4h2.044a7.989 7.989 0 0 1 4.716-3.916l-.002.014.008-.057c.05-.404.068-.786.073-1.439zM2.412 20.3h4.374a23.448 23.448 0 0 1-.721-5.4H1.047c.069 1.84.518 3.68 1.365 5.4zm5.409 0h6.078v-5.4H7.065c.04 1.937.308 3.764.756 5.4zm19.942-5.4h-5.025c-.003.531-.016.898-.046 1.241A7.921 7.921 0 0 1 24 16.033c1.272 0 2.475.299 3.542.83.123-.656.196-1.311.22-1.963zM26.4 8.5h-4.386c.43 1.658.683 3.483.721 5.4h5.028A13.369 13.369 0 0 0 26.4 8.5zm-5.421 0h-6.08v5.4h6.836a22.304 22.304 0 0 0-.756-5.4zM1.047 13.9h5.018c.038-1.917.29-3.742.72-5.401H2.41a13.386 13.386 0 0 0-1.362 5.4zm6.018 0H13.9V8.5H7.821a22.304 22.304 0 0 0-.756 5.4zM18.193 1.578l.162.146c1.43 1.318 2.601 3.332 3.372 5.775h4.127a13.374 13.374 0 0 0-7.662-5.922zM14.9 1.065l-.002 6.434h5.776c-1.217-3.635-3.357-6.13-5.774-6.434zm-4.3.518l-.112.034A13.338 13.338 0 0 0 4.95 4.95 13.365 13.365 0 0 0 2.953 7.5h4.119C7.87 4.967 9.1 2.895 10.602 1.582zM8.126 7.499h5.774l.001-6.434c-2.418.304-4.558 2.799-5.775 6.434z"/>
</svg>
