<?xml version="1.0" encoding="utf-8"?>
<svg version="1.1" id="Calque_1" xmlns="http://www.w3.org/2000/svg" xmlns:xlink="http://www.w3.org/1999/xlink" x="0px" y="0px"
	 viewBox="0 0 165 65" style="enable-background:new 0 0 165 65;" xml:space="preserve">
<g>
	<path class="st0" d="M164.4,29.4c-3.9-8.6-7.8-17.3-11.5-25.9c-1.1-2.6-2.7-3.5-5.6-3.5c-26,0-51.9,0-77.9,0C47.4,0,25.4,0,3.3,0
		C2.7,0,2,0,1.4,0C0.4,0,0,0.7,0.2,1.5C0.3,2,0.5,2.6,0.7,3.1c3.9,8.7,7.7,17.5,11.6,26.1c0.9,2.1,1.1,4.3,0,6.4
		c-1.9,4-3.7,8-5.4,12.2C4.7,52.5,2.6,57.2,0.4,62c-0.9,2.1-0.3,2.8,2,3c1.7,0,3.1,0,4.8,0c14.5,0,29.1,0,43.5,0l0,0
		c12.6,0,25.2,0,37.8,0c3.4,0,7,0,10.4,0c7.7,0,15.2,0,22.9,0c8.5,0,16.9,0,25.4,0c2.6,0,4.1-0.9,5.2-3.3
		c3.8-8.9,7.7-17.5,11.6-26.4C165.2,33.3,165.2,31.4,164.4,29.4z"/>
</g>
</svg>
