<svg xmlns="http://www.w3.org/2000/svg" width="32" height="32" viewBox="0 0 32 32">
    <path fill="#0050D7" fill-rule="evenodd" d="M16.078 0c.21 0 .402.112.492.287.504.984 1.176 1.889 1.99 2.68 1.144 1.111 2.532 1.987 4.073 2.57 1.657.632 3.433.958 5.227.963.204 0 .39.106.483.273.258.464.487.942.687 1.431 1.275 3.122 2.959 8.399 2.958 10.15.121 2.179-.673 4.317-2.229 5.984-.563.566-2.73 1.85-6.168 3.724l-.579.314c-1.476.8-3.056 1.638-4.637 2.465-.553.29-1.067.557-1.528.796l-.58.3c-.165.084-.365.084-.53 0l-.582-.3-1.534-.798c-.6-.314-1.2-.63-1.795-.943l-.006-.004c-.978-.516-1.935-1.027-2.852-1.523l-.566-.307c-3.443-1.872-5.622-3.156-6.214-3.738C.658 22.672-.122 20.54.015 18.4c0-1.819 1.728-7.273 2.961-10.242.201-.474.431-.938.688-1.39.093-.164.278-.267.48-.268 1.794-.005 3.57-.331 5.228-.962 1.535-.582 2.92-1.455 4.062-2.562.819-.793 1.494-1.7 2-2.69.09-.174.282-.286.492-.286h.152zm-.076 1.452c-.492.8-1.09 1.544-1.78 2.212-1.248 1.21-2.76 2.163-4.435 2.798-1.686.641-3.485.991-5.306 1.034-.18.335-.344.677-.491 1.022C2.808 11.363 1.102 16.75 1.1 18.43c-.12 1.91.565 3.79 1.897 5.229.44.432 2.426 1.611 5.416 3.248-2.633-3.449-2.99-8.123-.537-11.97 1.222-2.004 3.269-3.47 5.68-4.07 2.41-.6 4.98-.281 7.141.888 3.594 2.027 4.775 6.32 2.668 9.671-.81 1.322-2.163 2.29-3.755 2.683-1.592.394-3.29.183-4.718-.591-2.403-1.35-3.19-4.22-1.772-6.46 1.152-1.807 3.677-2.415 5.653-1.354 1.629.915 2.166 2.859 1.212 4.373-.375.61-1 1.056-1.736 1.238-.736.181-1.52.083-2.181-.276-1.14-.634-1.514-1.994-.844-3.044.265-.432.707-.748 1.228-.877s1.077-.06 1.55.197c.816.461 1.082 1.438.604 2.19-.195.32-.522.555-.907.65-.385.095-.796.043-1.134-.141-.183-.098-.336-.234-.448-.395l-.075-.122.046.114c.106.23.289.431.537.57.405.22.888.28 1.342.168.454-.112.84-.387 1.074-.769.661-1.048.29-2.39-.825-3.017-1.45-.779-3.31-.33-4.158 1-1.12 1.768-.497 4.035 1.393 5.097 1.17.634 2.566.808 3.877.484 1.31-.325 2.424-1.12 3.093-2.213 1.816-2.888.799-6.58-2.283-8.319-1.9-1.028-4.171-1.31-6.3-.78-2.128.53-3.935 1.825-5.02 3.602-2.986 4.684-1.404 10.703 3.58 13.612.582.308 1.17.617 1.76.924.553.29 1.067.557 1.528.795l.315.163.312-.162c.46-.238.972-.504 1.524-.793 1.576-.825 3.152-1.661 4.623-2.458l.576-.313c3.278-1.787 5.469-3.084 5.91-3.527 1.362-1.46 2.062-3.346 1.955-5.294 0-1.608-1.665-6.828-2.889-9.824-.147-.36-.312-.714-.493-1.06-1.82-.043-3.618-.393-5.302-1.034-1.681-.637-3.197-1.594-4.448-2.808-.685-.666-1.279-1.406-1.768-2.202z"/>
</svg>
