<svg xmlns="http://www.w3.org/2000/svg" width="32" height="32" viewBox="0 0 32 32">
    <path fill="#0050D7" fill-rule="evenodd" d="M23.5 1c.828 0 1.5.672 1.5 1.5V7h1.5c.828 0 1.5.672 1.5 1.5V12h1.5c.828 0 1.5.672 1.5 1.5v16c0 .828-.672 1.5-1.5 1.5h-21c-.828 0-1.5-.672-1.5-1.5V26H5.5c-.828 0-1.5-.672-1.5-1.5V20H2.5c-.828 0-1.5-.672-1.5-1.5v-16C1 1.672 1.672 1 2.5 1h21zM30 18H8v11.5c0 .276.224.5.5.5h21c.276 0 .5-.224.5-.5V18zM26.5 8h-21c-.276 0-.5.224-.5.5v16c0 .276.224.5.5.5H7V13.5c0-.828.672-1.5 1.5-1.5H27V8.5c0-.276-.224-.5-.5-.5zm-3-6h-21c-.276 0-.5.224-.5.5v16c0 .276.224.5.5.5H4V8.5C4 7.672 4.672 7 5.5 7H24V2.5c0-.276-.224-.5-.5-.5zm6 11h-21c-.276 0-.5.224-.5.5V17h22v-3.5c0-.276-.224-.5-.5-.5zM11 14c.552 0 1 .448 1 1s-.448 1-1 1-1-.448-1-1 .448-1 1-1zm4 0c.552 0 1 .448 1 1s-.448 1-1 1-1-.448-1-1 .448-1 1-1zm4 0c.552 0 1 .448 1 1s-.448 1-1 1-1-.448-1-1 .448-1 1-1z"/>
</svg>
