<svg xmlns="http://www.w3.org/2000/svg" width="32" height="32" viewBox="0 0 32 32">
    <path fill="#0050D7" fill-rule="evenodd" d="M29.45 1a1.5 1.5 0 0 1 1.5 1.5l.002 5.787a.498.498 0 0 1 0 .426L30.95 21.5a1.5 1.5 0 0 1-1.5 1.5H17v4.5a.5.5 0 0 1-.806.395l-2.284-1.77L12 30.693a.5.5 0 0 1-.652.269l-3.14-1.3a.5.5 0 0 1-.27-.655l1.902-4.553-2.625-.287a.5.5 0 0 1-.298-.852L7.234 23H2.45a1.5 1.5 0 0 1-1.5-1.5v-19A1.5 1.5 0 0 1 2.45 1h27zM16 15.702l-7.635 7.585 2.25.246a.5.5 0 0 1 .406.69L9.055 28.93l2.216.917 1.968-4.71a.5.5 0 0 1 .767-.202L16 26.48l-.001-3.765a.498.498 0 0 1 0-.43L16 15.702zM29.95 9h-28v12.5a.5.5 0 0 0 .5.5h5.791l7.907-7.855A.5.5 0 0 1 17 14.5V22h12.45a.5.5 0 0 0 .5-.5V9zm-.5-7h-27a.5.5 0 0 0-.5.5V8h28V2.5a.5.5 0 0 0-.5-.5zM5 4a1 1 0 1 1 0 2 1 1 0 0 1 0-2zm4 0a1 1 0 1 1 0 2 1 1 0 0 1 0-2zm4 0a1 1 0 1 1 0 2 1 1 0 0 1 0-2z"/>
</svg>
