<svg xmlns="http://www.w3.org/2000/svg" width="32" height="32" viewBox="0 0 32 32">
    <path fill="#0050D7" fill-rule="evenodd" d="M26.854 4.146l5 5c.195.196.195.512 0 .708l-5 5c-.196.195-.512.195-.708 0-.195-.196-.195-.512 0-.708l4.234-4.233c-5.213-.249-9.741 1.91-13.777 6.08.133.139.267.274.402.408.197.194.198.51.004.707-.194.196-.51.198-.707.004l-.384-.387c-1.21 1.337-2.375 2.858-3.501 4.551C9.675 25.408 6.394 27.16.57 27.995c-.273.04-.527-.15-.566-.424-.04-.273.15-.527.424-.566 5.562-.798 8.587-2.412 11.155-6.282 1.169-1.757 2.383-3.338 3.647-4.729-.333-.363-.662-.74-.987-1.13-.177-.213-.149-.528.063-.705.213-.177.528-.148.705.064.299.359.6.706.906 1.042 4.157-4.288 8.854-6.554 14.28-6.36l-4.052-4.051c-.195-.196-.195-.512 0-.708.196-.195.512-.195.708 0zm0 13l5 5c.195.196.195.512 0 .708l-5 5c-.196.195-.512.195-.708 0-.195-.196-.195-.512 0-.708l4.054-4.052-.116.003c-.276.008-.506-.21-.513-.486-.008-.276.21-.506.486-.513l.319-.014-4.23-4.23c-.195-.196-.195-.512 0-.708.196-.195.512-.195.708 0zm-2.501 4.062c.918.324 1.857.562 2.819.71.273.043.46.298.417.571-.042.273-.297.46-.57.418-1.024-.159-2.023-.412-2.999-.756-.26-.092-.397-.377-.305-.638.092-.26.377-.397.638-.305zm-5.11-2.84c.792.613 1.604 1.155 2.435 1.622.24.135.326.44.191.68-.135.241-.44.327-.68.192-.875-.492-1.728-1.06-2.559-1.703-.218-.17-.258-.483-.09-.702.17-.218.484-.258.702-.09zm-7.81-8.991c.33.41.652.848.966 1.32.276.415.54.798.808 1.176.16.225.107.537-.118.697-.226.16-.538.107-.698-.118-.274-.386-.543-.778-.825-1.202-.297-.445-.6-.86-.911-1.244-.174-.215-.14-.53.074-.703.215-.174.53-.14.703.074zM6.508 5.559c.977.435 1.862.961 2.68 1.597.218.17.258.484.088.702-.17.218-.483.257-.701.088-.754-.586-1.57-1.07-2.474-1.474-.252-.112-.366-.408-.253-.66.112-.252.408-.366.66-.253zM.57 4.005c1.11.16 2.095.344 2.997.567.268.066.432.337.366.605-.067.268-.338.432-.606.366-.867-.214-1.82-.393-2.899-.548-.273-.04-.463-.293-.424-.566.04-.273.293-.463.566-.424z"/>
</svg>
