<svg xmlns="http://www.w3.org/2000/svg" width="32" height="32" viewBox="0 0 32 32">
    <path fill="#0050D7" fill-rule="evenodd" d="M26.854 4.146l5 5a.5.5 0 0 1 0 .708l-5 5a.5.5 0 0 1-.708-.708l4.234-4.233c-5.214-.249-9.741 1.91-13.778 6.08.134.139.268.274.403.408a.5.5 0 0 1-.703.711l-.383-.387c-1.21 1.337-2.376 2.858-3.502 4.551C9.675 25.408 6.394 27.16.57 27.995a.5.5 0 1 1-.142-.99c5.562-.798 8.587-2.412 11.155-6.282 1.169-1.757 2.382-3.338 3.647-4.729-.333-.363-.662-.74-.987-1.13a.5.5 0 1 1 .768-.64c.299.358.6.705.906 1.04 4.156-4.286 8.854-6.553 14.28-6.36l-4.052-4.05a.5.5 0 0 1 .708-.708zm0 13l5 5a.5.5 0 0 1 0 .708l-5 5a.5.5 0 0 1-.708-.708l4.054-4.052-.116.003a.5.5 0 0 1-.027-1l.319-.013-4.23-4.23a.5.5 0 0 1 .708-.708zm-2.501 4.062c.918.324 1.857.562 2.819.71a.5.5 0 1 1-.153.989 16.655 16.655 0 0 1-2.999-.756.5.5 0 1 1 .333-.943zm-5.11-2.84a19.991 19.991 0 0 0 2.435 1.622.5.5 0 1 1-.49.872 20.99 20.99 0 0 1-2.558-1.703.5.5 0 0 1 .612-.791zm-7.81-8.991c.33.41.652.848.966 1.32.276.415.54.798.808 1.176a.5.5 0 1 1-.816.58 46.778 46.778 0 0 1-.825-1.203c-.297-.445-.6-.86-.911-1.244a.5.5 0 0 1 .777-.63zM6.508 5.559c.977.435 1.862.961 2.68 1.597a.5.5 0 1 1-.613.79 11.847 11.847 0 0 0-2.474-1.474.5.5 0 0 1 .407-.913zM.57 4.005c1.11.16 2.095.344 2.997.567a.5.5 0 1 1-.24.97A29.664 29.664 0 0 0 .43 4.996a.5.5 0 1 1 .142-.99z"/>
</svg>
