<svg xmlns="http://www.w3.org/2000/svg" width="32" height="32" viewBox="0 0 32 32">
    <path fill="#0050D7" fill-rule="evenodd" d="M30.935 10.642c2.555 6.172.395 13.29-5.16 16.999-5.555 3.71-12.957 2.978-17.679-1.748-.195-.195-.195-.512 0-.707.196-.195.513-.195.708 0 4.384 4.388 11.257 5.068 16.415 1.623 5.159-3.444 7.165-10.053 4.792-15.784-2.373-5.73-8.464-8.987-14.547-7.777C9.38 4.458 4.999 9.798 5 16l-.001 1.294 3.147-3.148c.196-.195.512-.195.708 0 .195.196.195.512 0 .708l-4 4-.013.011c-.013.013-.026.024-.04.035l.053-.046c-.026.025-.054.048-.083.066l-.039.023-.045.021-.036.013-.038.01c-.016.004-.033.007-.05.009l-.04.003L4.5 19h-.023l-.04-.004L4.5 19c-.039 0-.077-.004-.113-.013l-.038-.01-.036-.013-.045-.02-.04-.024-.028-.02c-.015-.01-.028-.022-.041-.035l-.013-.011-4-4c-.195-.196-.195-.512 0-.708.196-.195.512-.195.708 0l3.145 3.146L4 16C4 9.32 8.717 3.57 15.269 2.267c6.551-1.303 13.11 2.204 15.666 8.375z"/>
</svg>
