<svg xmlns="http://www.w3.org/2000/svg" width="32" height="32" viewBox="0 0 32 32">
    <path fill="#0050D7" fill-rule="evenodd" d="M6.5 30a.5.5 0 1 1 0-1h5a3.5 3.5 0 0 0 3.5-3.5V6H5.238l3.726 9.314A.5.5 0 0 1 8.5 16a.5.5 0 0 1 .5.5 4.5 4.5 0 1 1-9 0 .5.5 0 0 1 .5-.5.5.5 0 0 1-.464-.686l4-10a.49.49 0 0 1 .396-.31L4.515 5h8.02a3.5 3.5 0 0 1 6.93 0H27.5c.19 0 .38.105.464.314l4 10A.5.5 0 0 1 31.5 16a.5.5 0 0 1 .5.5 4.5 4.5 0 1 1-9 0 .5.5 0 0 1 .5-.5.5.5 0 0 1-.464-.686L26.762 6H17v19.5a3.5 3.5 0 0 0 3.5 3.5h5a.5.5 0 1 1 0 1h-19zm7.828-1h3.344A4.491 4.491 0 0 1 16 25.5a4.491 4.491 0 0 1-1.672 3.5zm16.637-12h-6.93a3.5 3.5 0 0 0 6.93 0zm-23 0h-6.93a3.5 3.5 0 0 0 6.93 0zM27.5 6.846L24.239 15h6.522L27.5 6.846zm-23 0L1.239 15H7.76L4.5 6.846zM16 3a2.5 2.5 0 0 0-2.45 2h4.9A2.5 2.5 0 0 0 16 3z"/>
</svg>
