<svg xmlns="http://www.w3.org/2000/svg" width="32" height="32" viewBox="0 0 32 32">
    <path fill="#0050D7" fill-rule="evenodd" d="M27.5 20c-1.763 0-3.222-1.304-3.464-3h6.929c-.242 1.696-1.701 3-3.464 3zm0-13.154L30.763 15h-6.523L27.5 6.846zM13.55 5c.232-1.14 1.24-2 2.45-2 1.21 0 2.219.86 2.45 2h-4.9zm4.123 24.001h-3.345c1.02-.825 1.673-2.087 1.673-3.5 0 1.413.652 2.675 1.672 3.5zm-9.911-14H1.239L4.5 6.845 7.76 15zM4.5 20c-1.764 0-3.222-1.305-3.465-3h6.929c-.242 1.695-1.701 3-3.464 3zm27-4c.354 0 .596-.358.464-.687l-4-10C27.88 5.104 27.69 5 27.5 5h-8.036C19.223 3.304 17.764 2 16 2c-1.764 0-3.222 1.304-3.465 3h-8.02c-.196-.005-.393.1-.48.314l-4 10c-.131.33.11.686.465.686-.276 0-.5.224-.5.5C0 18.985 2.015 21 4.5 21 6.986 21 9 18.985 9 16.5c0-.276-.224-.5-.5-.5.354 0 .595-.357.464-.686L5.238 6H15v19.5c0 1.933-1.566 3.5-3.5 3.5h-5c-.275 0-.5.224-.5.5s.225.5.5.5h19c.276 0 .5-.224.5-.5s-.224-.5-.5-.5h-5c-1.933 0-3.5-1.567-3.5-3.5V6h9.762l-3.726 9.314c-.131.33.11.686.465.686-.276 0-.5.224-.5.5 0 2.485 2.015 4.5 4.5 4.5s4.5-2.015 4.5-4.5c0-.276-.225-.5-.5-.5z"/>
</svg>
