<svg xmlns="http://www.w3.org/2000/svg" width="32" height="32" viewBox="0 0 32 32">
    <path fill="#0050D7" fill-rule="evenodd" d="M.542 27.999L.5 28A4.5 4.5 0 0 0 5 23.5V15c0-5.215 3.63-9.583 8.5-10.715V2.5a2.5 2.5 0 1 1 5 0v1.785C23.37 5.418 27 9.785 27 15v8.5a4.5 4.5 0 0 0 4.288 4.495L31.5 28h-3.163a5.47 5.47 0 0 0 2.87.992L31.5 29H19.464a3.5 3.5 0 0 1-6.928 0H.5c1.08 0 2.086-.31 2.935-.848L3.663 28l-3.121-.001zM18.45 29h-4.9a2.5 2.5 0 0 0 4.9 0zm13.05-1c.63 0 .665.892.105.991L31.5 29v-1zM16 5C10.477 5 6 9.477 6 15v8.5c0 1.86-.923 3.505-2.337 4.5h24.674A5.493 5.493 0 0 1 26 23.5V15c0-5.523-4.477-10-10-10zm0-4a1.5 1.5 0 0 0-1.5 1.5v1.601a11.099 11.099 0 0 1 3 0V2.5A1.5 1.5 0 0 0 16 1zM.542 27.999L.5 28v1c-.667 0-.667-1 0-1l.042-.001z"/>
</svg>
