<svg xmlns="http://www.w3.org/2000/svg" width="32" height="32" viewBox="0 0 32 32">
    <path fill="#0050D7" fill-rule="evenodd" d="M10.096 1.099l6.6 4.85c.103.075.173.187.196.312l.246 1.345 2.85 1.9c.116.077.195.2.216.339.024.156.067.433.121.795.091.603.182 1.22.267 1.815l.056.397c.118.848.21 1.556.268 2.077.017.16.032.302.042.425l4.544-.913c.139-.028.284.005.397.09.77.575 1.574 1.101 2.408 1.576l.017.011 3.331 1.088c.47.154.456.823-.02.957L27.1 19.438c-.957.953-2.33 1.398-4.332 1.638-1.153 2.43-3.164 3.895-5.765 4.553-1.884.478-3.877.493-5.737.235-.22-.03-.42-.063-.6-.095l-2.555 3.973c-.08.122-.207.204-.351.225l-3.75.53c-.153.021-.308-.03-.419-.137L.225 27.08l-.071-.069-.062-.071.06.069c-.185-.18-.197-.459-.057-.653l.06-.067c.022-.021.047-.04.074-.058l9.298-6.008-.875-1.592c-.063-.113-.078-.246-.045-.371l1.356-4.97.368-3.615c-.004-.053.001-.107.015-.161l.12-1.156-1.159-6.773c-.076-.443.427-.754.79-.487zm15.385 14.366l-7.113 1.427c-.066.013-.131.013-.194 0l-2.963.879-4.681 3.014-5.605 8.572 2.468-.349 2.617-4.067c.114-.178.328-.264.533-.216.155.036.451.092.86.149 1.744.241 3.614.227 5.355-.214 2.174-.55 3.855-1.706 4.896-3.6-.597-.095-1.256-.376-2.089-.834-.17-.094-.336-.188-.583-.33-1.44-.83-1.946-1.064-2.442-1.064-.276 0-.5-.224-.5-.5 0-.277.224-.5.5-.5.756 0 1.3.253 2.94 1.197.243.14.404.231.568.321 1.046.576 1.737.811 2.275.727.077-.012.153-.005.223.016l-.17.021c1.783-.191 2.975-.508 3.803-1.202.043-.165.17-.302.346-.352l.018-.004c.396-.452.693-1.03.928-1.778-.685-.404-1.349-.842-1.99-1.313zM8.467 22.114l-7.165 4.614 2.55 2.446 4.615-7.06zm2.035-19.476l.381 2.233 3.84 2.512c.232.151.297.461.145.692-.15.231-.46.296-.692.145l-3.063-2.005.35 2.042.004.135-.092.893 3.96 1.208c.265.08.414.36.333.624-.08.265-.36.413-.624.333l-3.774-1.152-.327 3.174-.156.573h.053l.648-.014c.461-.01.91-.018 1.334-.023 2.046-.026 2.692-.017 2.926.132.233.148.302.457.154.69-.148.233-.457.302-.69.153.081.052-.006.04-.044.038-.14-.009-.336-.015-.584-.018-.445-.006-1.041-.004-1.749.005-.42.005-.868.013-1.327.022-.333.007-.652.014-.948.022h-.047l-.888 3.276.752 1.366 4.352-2.803.129-.059L17.667 16l-1.723-9.363-5.442-4zm17.503 15.508l1.775-.5-1.392-.455c-.113.348-.24.665-.383.955zm-3.165-1.824c.276 0 .5.223.5.5 0 .276-.224.5-.5.5s-.5-.224-.5-.5c0-.277.224-.5.5-.5zm-7.425-7.33l1.245 6.787 1.308-.267c-.01-.129-.026-.287-.046-.473-.056-.51-.147-1.209-.265-2.048l-.055-.395c-.085-.592-.175-1.206-.266-1.807l-.087-.574-1.834-1.223z"/>
</svg>
