<svg xmlns="http://www.w3.org/2000/svg" width="32" height="32" viewBox="0 0 32 32">
    <path fill="#0050D7" fill-rule="evenodd" d="M30 19.5c0 .828-.672 1.5-1.5 1.5H26v9.5c0 .828-.672 1.5-1.5 1.5h-18c-.828 0-1.5-.672-1.5-1.5V27H2.5c-.276 0-.5-.224-.5-.5s.224-.5.5-.5H5v-6H2.5c-.276 0-.5-.224-.5-.5s.224-.5.5-.5H5v-6H2.5c-.276 0-.5-.224-.5-.5s.224-.5.5-.5H5V6H2.5c-.276 0-.5-.224-.5-.5s.224-.5.5-.5H5V1.5C5 .672 5.672 0 6.5 0h18c.828 0 1.5.672 1.5 1.5V2h2.5c.828 0 1.5.672 1.5 1.5v16zM24.5 1h-18c-.276 0-.5.224-.5.5V5h2.5c.276 0 .5.224.5.5s-.224.5-.5.5H6v6h2.5c.276 0 .5.224.5.5s-.224.5-.5.5H6v6h2.5c.276 0 .5.224.5.5s-.224.5-.5.5H6v6h2.5c.276 0 .5.224.5.5s-.224.5-.5.5H6v3.5c0 .276.224.5.5.5h18c.276 0 .5-.224.5-.5v-29c0-.276-.224-.5-.5-.5zM16 15c2.761 0 5 2.239 5 5v2.5c0 .276-.224.5-.5.5h-9c-.276 0-.5-.224-.5-.5V20c0-2.761 2.239-5 5-5zm0 1c-2.21 0-4 1.79-4 4v2h8v-2c0-2.21-1.79-4-4-4zm13-1h-3v5h2.5c.276 0 .5-.224.5-.5V15zm0-6h-3v5h3V9zM16 8c1.657 0 3 1.343 3 3s-1.343 3-3 3-3-1.343-3-3 1.343-3 3-3zm0 1c-1.105 0-2 .895-2 2s.895 2 2 2 2-.895 2-2-.895-2-2-2zm12.5-6H26v5h3V3.5c0-.276-.224-.5-.5-.5z"/>
</svg>
