<svg xmlns="http://www.w3.org/2000/svg" width="32" height="32" viewBox="0 0 32 32">
    <path fill="#0050D7" fill-rule="evenodd" d="M27 4.5v1.86l2.427-.355c.302-.044.573.19.573.495V8h.5c.828 0 1.5.672 1.5 1.5v17c0 .921-.778 1.5-2 1.5H1c-.114 0-.224-.039-.313-.11-.418-.336-.669-.837-.687-1.39v-17C0 8.672.672 8 1.5 8H2V6.5c0-.306.272-.54.574-.495L5 6.368V4.5c0-.354.357-.596.686-.464l9.822 3.929L26.329 4.03c.326-.118.671.123.671.47zM2 9h-.5c-.276 0-.5.224-.5.5v16.983c.006.192.078.374.2.517h7.762l-6.538-1.006C2.18 25.957 2 25.747 2 25.5V9zm28.5 0H30v16.5c0 .249-.183.46-.43.495L22.537 27H30c.723 0 1-.206 1-.5v-17c0-.276-.224-.5-.5-.5zM26 5.214L16 8.85v17.936l10-3.636V5.214zM6 5.239l.001 1.617c.01.054.012.11.004.168L6 7.04v16.12l9 3.6V8.84l-9-3.6zM3 7.08v17.991l8.255 1.269-5.94-2.376c-.19-.076-.315-.26-.315-.464V7.379L3 7.08zm26-.001l-2 .293V23.5c0 .21-.132.398-.33.47l-6.472 2.354L29 25.066V7.08zM8.178 19.033l5.5 2.1c.258.098.388.387.29.645-.1.258-.388.388-.646.29l-5.5-2.1c-.258-.1-.388-.388-.29-.646.1-.258.388-.388.646-.29zm16.29.289c.098.258-.032.547-.29.645l-5.5 2.1c-.258.099-.547-.03-.645-.289-.099-.258.03-.547.289-.645l5.5-2.1c.258-.099.547.03.645.289zm-16.29-3.29l5.5 2.1c.258.1.388.388.29.646-.1.258-.388.388-.646.29l-5.5-2.1c-.258-.1-.388-.388-.29-.646.1-.258.388-.388.646-.29zm16.29.29c.098.258-.032.547-.29.645l-5.5 2.1c-.258.099-.547-.03-.645-.289-.099-.258.03-.547.289-.645l5.5-2.1c.258-.099.547.03.645.289zm-16.29-3.29l5.5 2.1c.258.1.388.388.29.646-.1.258-.388.388-.646.29l-5.5-2.1c-.258-.1-.388-.388-.29-.646.1-.258.388-.388.646-.29zm16.29.29c.098.258-.032.547-.29.645l-5.5 2.1c-.258.099-.547-.03-.645-.289-.099-.258.03-.547.289-.645l5.5-2.1c.258-.099.547.03.645.289zm-16.29-3.29l5.5 2.1c.258.1.388.388.29.646-.1.258-.388.388-.646.29l-5.5-2.1c-.258-.1-.388-.388-.29-.646.1-.258.388-.388.646-.29zm16.29.29c.098.258-.032.547-.29.645l-5.5 2.1c-.258.099-.547-.03-.645-.289-.099-.258.03-.547.289-.645l5.5-2.1c.258-.099.547.03.645.289z"/>
</svg>
