<svg xmlns="http://www.w3.org/2000/svg" width="32" height="32" viewBox="0 0 32 32">
    <path fill="#0050D7" fill-rule="evenodd" d="M31.854.146c.195.196.195.512 0 .708L14.712 17.995l1.012 1.012c.828.83.969 2.124.338 3.111l-6.14 9.65c-.172.27-.55.312-.776.086l-9-9c-.226-.227-.184-.604.086-.776l9.649-6.14c.988-.63 2.282-.49 3.113.338l1.011 1.012L31.146.146c.196-.195.512-.195.708 0zM8.374 18.081l-7.08 4.506L3.5 24.793l1.646-1.647c.196-.195.512-.195.708 0 .195.196.195.512 0 .708L4.207 25.5 6.5 27.793l1.646-1.647c.196-.195.512-.195.708 0 .195.196.195.512 0 .708L7.207 28.5l2.206 2.206 4.504-7.082-5.543-5.543zm2.044-1.3l-1.179.751 5.228 5.228.752-1.18c.379-.592.294-1.369-.203-1.866l-1.307-1.307c-.022-.016-.043-.034-.063-.053l-.053-.064-1.306-1.306c-.498-.497-1.275-.582-1.869-.202z"/>
</svg>
