<svg xmlns="http://www.w3.org/2000/svg" width="32" height="32" viewBox="0 0 32 32">
    <path fill="#0050D7" fill-rule="evenodd" d="M31.224.777c.99.975 1.059 2.55.148 3.617L16.916 20.49c-.02.033-.044.064-.073.093l-.048.039-.006.008-6.057 4.523c-.402 1.554-1.175 2.989-2.268 4.2C6.52 31.296 3.763 32 1.2 32H1c-.552 0-1-.448-1-1l-.001-.058c-.008-.476.016-1.036.103-1.716.133-1.038.386-2.062.789-3.025.428-1.022 1.006-1.926 1.774-2.692 1.193-1.077 2.628-1.849 4.181-2.251l3.001-4.01c.024-.046.056-.09.095-.127l1.379-1.84c.024-.05.056-.095.096-.135l.013-.011.006-.007L27.614.62c1.056-.91 2.637-.84 3.61.156zM6.981 22.258l.275-.072c-1.459.35-2.807 1.06-3.902 2.048-.652.651-1.16 1.445-1.54 2.353-.366.873-.597 1.812-.72 2.766-.08.627-.102 1.142-.095 1.574L1 31h.2c2.322 0 4.848-.645 6.539-2.335.943-1.045 1.627-2.297 1.996-3.653l-2.754-2.754zm4.843-5.996l-.882 1.182 1.493 1.594c.189.202.178.518-.023.707-.202.189-.518.178-.707-.023l-1.371-1.464-2.54 3.4 2.544 2.543 5.397-4.02-3.911-3.919zm16.45-14.89L12.49 15.513l3.98 3.989L30.62 3.736c.562-.66.519-1.642-.1-2.25l-.008-.007c-.605-.622-1.589-.666-2.238-.107z"/>
</svg>
