<svg xmlns="http://www.w3.org/2000/svg" width="32" height="32" viewBox="0 0 32 32">
    <path fill="#0050D7" fill-rule="evenodd" d="M22.5 10c.276 0 .5.224.5.5V12h7.5c.828 0 1.5.672 1.5 1.5s-.672 1.5-1.5 1.5H23v2h3.5c.828 0 1.5.672 1.5 1.5 0 .176-.03.344-.086.5h.586c.828 0 1.5.672 1.5 1.5s-.672 1.5-1.5 1.5H23v.5c0 .276-.224.5-.5.5H.5c-.276 0-.5-.224-.5-.5s.224-.5.5-.5H22V11h-5.5c-.276 0-.5-.224-.5-.5s.224-.5.5-.5h6zm6 10H23v1h5.5c.276 0 .5-.224.5-.5s-.224-.5-.5-.5zm-14-1c.276 0 .5.224.5.5s-.224.5-.5.5h-5c-.276 0-.5-.224-.5-.5s.224-.5.5-.5h5zm-8 0c.276 0 .5.224.5.5s-.224.5-.5.5h-3c-.276 0-.5-.224-.5-.5s.224-.5.5-.5h3zm20-1H23v1h3.5c.276 0 .5-.224.5-.5s-.224-.5-.5-.5zm-12-2c.276 0 .5.224.5.5s-.224.5-.5.5h-8c-.276 0-.5-.224-.5-.5s.224-.5.5-.5h8zm16-3H23v1h7.5c.276 0 .5-.224.5-.5s-.224-.5-.5-.5zm-16 0c.276 0 .5.224.5.5s-.224.5-.5.5h-5c-.276 0-.5-.224-.5-.5s.224-.5.5-.5h5zm0-3c.276 0 .5.224.5.5s-.224.5-.5.5h-2c-.276 0-.5-.224-.5-.5s.224-.5.5-.5h2z"/>
</svg>
