<svg xmlns="http://www.w3.org/2000/svg" width="32" height="32" viewBox="0 0 32 32">
    <path fill="#0050D7" fill-rule="evenodd" d="M26.5 0c.276 0 .5.224.5.5V3h1.5C30.433 3 32 4.567 32 6.5v22c0 1.933-1.567 3.5-3.5 3.5h-25C1.567 32 0 30.433 0 28.5v-22C0 4.567 1.567 3 3.5 3H5V.5c0-.276.224-.5.5-.5s.5.224.5.5V3h6V.5c0-.276.224-.5.5-.5s.5.224.5.5V3h6V.5c0-.276.224-.5.5-.5s.5.224.5.5V3h6V.5c0-.276.224-.5.5-.5zM31 11H1v17.5C1 29.88 2.12 31 3.5 31h25c1.38 0 2.5-1.12 2.5-2.5V11zM10.5 22c.276 0 .5.224.5.5v5c0 .276-.224.5-.5.5h-5c-.276 0-.5-.224-.5-.5v-5c0-.276.224-.5.5-.5h5zm8 0c.276 0 .5.224.5.5v5c0 .276-.224.5-.5.5h-5c-.276 0-.5-.224-.5-.5v-5c0-.276.224-.5.5-.5h5zm6.776-8.766v1.703l.231.03c.451.072.842.211 1.171.417.384.241.731.528 1.04.86l-.756.843-.192-.177c-.254-.226-.503-.408-.746-.545-.303-.172-.69-.258-1.16-.258-.528 0-.947.149-1.256.447-.31.298-.465.7-.465 1.204 0 .413.118.751.353 1.015.235.264.53.496.886.696.355.201.742.396 1.16.585.42.19.806.419 1.162.688.355.27.65.602.886.998.235.395.352.903.352 1.522 0 .826-.238 1.502-.714 2.03-.475.527-1.126.848-1.952.963v1.737h-1.032v-1.703l-.274-.036c-.453-.074-.895-.214-1.325-.42-.516-.246-.958-.536-1.325-.868l.654-.98.224.186c.306.241.635.452.988.63.442.224.926.336 1.454.336.642 0 1.12-.16 1.436-.482.315-.32.473-.75.473-1.29 0-.458-.118-.84-.353-1.144-.235-.303-.53-.567-.885-.79-.356-.224-.743-.434-1.161-.629-.419-.195-.806-.418-1.161-.67-.356-.253-.651-.56-.886-.92-.235-.362-.353-.823-.353-1.385 0-.768.227-1.408.68-1.918.453-.51 1.057-.823 1.814-.937v-1.738h1.032zM10 23H6v4h4v-4zm8 0h-4v4h4v-4zm-7.5-9c.276 0 .5.224.5.5v5c0 .276-.224.5-.5.5h-5c-.276 0-.5-.224-.5-.5v-5c0-.276.224-.5.5-.5h5zm8 0c.276 0 .5.224.5.5v5c0 .276-.224.5-.5.5h-5c-.276 0-.5-.224-.5-.5v-5c0-.276.224-.5.5-.5h5zM10 15H6v4h4v-4zm8 0h-4v4h4v-4zM5 4H3.5C2.12 4 1 5.12 1 6.5V10h30V6.5C31 5.12 29.88 4 28.5 4H27v2.5c0 .276-.224.5-.5.5s-.5-.224-.5-.5V4h-6v2.5c0 .276-.224.5-.5.5s-.5-.224-.5-.5V4h-6v2.5c0 .276-.224.5-.5.5s-.5-.224-.5-.5V4H6v2.5c0 .276-.224.5-.5.5S5 6.776 5 6.5V4z"/>
</svg>
