<svg xmlns="http://www.w3.org/2000/svg" width="32" height="32" viewBox="0 0 32 32">
    <path fill="#0050D7" fill-rule="evenodd" d="M22.77 3c.211 0 .4.133.471.332L24.903 8H31.5c.276 0 .5.224.5.5v20c0 .276-.224.5-.5.5H.5c-.276 0-.5-.224-.5-.5v-22c0-.276.224-.5.5-.5h3c.276 0 .5.224.5.5V8h2.888l1.671-4.669C8.63 3.133 8.82 3 9.03 3h13.74zm-.353 1H9.382L7.711 8.669C7.64 8.867 7.45 9 7.24 9H3.5c-.276 0-.5-.224-.5-.5V7H1v21h30V9h-6.45c-.211 0-.4-.133-.471-.332L22.417 4zM16 10c4.418 0 8 3.582 8 8s-3.582 8-8 8-8-3.582-8-8 3.582-8 8-8zm0 1c-3.866 0-7 3.134-7 7s3.134 7 7 7 7-3.134 7-7-3.134-7-7-7zm0 2c2.761 0 5 2.239 5 5s-2.239 5-5 5-5-2.239-5-5 2.239-5 5-5zm0 1c-2.21 0-4 1.79-4 4s1.79 4 4 4 4-1.79 4-4-1.79-4-4-4zm11-3c1.105 0 2 .895 2 2s-.895 2-2 2-2-.895-2-2 .895-2 2-2zm0 1c-.552 0-1 .448-1 1s.448 1 1 1 1-.448 1-1-.448-1-1-1z"/>
</svg>
