<svg xmlns="http://www.w3.org/2000/svg" width="32" height="32" viewBox="0 0 32 32">
    <path fill="#0050D7" fill-rule="evenodd" d="M9.778 23.5c2.24 0 4.055 1.816 4.055 4.056s-1.815 4.055-4.055 4.055c-2.24 0-4.056-1.816-4.056-4.055 0-2.24 1.816-4.056 4.056-4.056zm17.778 0c2.24 0 4.055 1.816 4.055 4.056s-1.816 4.055-4.055 4.055c-2.24 0-4.056-1.816-4.056-4.055 0-2.24 1.816-4.056 4.056-4.056zm-17.778 1c-1.688 0-3.056 1.368-3.056 3.056 0 1.687 1.368 3.055 3.056 3.055 1.687 0 3.055-1.368 3.055-3.055 0-1.688-1.368-3.056-3.055-3.056zm17.778 0c-1.688 0-3.056 1.368-3.056 3.056 0 1.687 1.368 3.055 3.056 3.055 1.687 0 3.055-1.368 3.055-3.055 0-1.688-1.368-3.056-3.055-3.056zM4.444.389c.277 0 .5.224.5.5v1.277H31.11c.276 0 .5.225.5.5v7.112c0 3.221-2.612 5.833-5.833 5.833H4.944v3.056c0 .705.573 1.277 1.278 1.277h24.89c.275 0 .5.224.5.5 0 .277-.225.5-.5.5H6.221c-1.258 0-2.278-1.02-2.278-2.277V1.389H.89c-.276 0-.5-.224-.5-.5s.224-.5.5-.5h3.555zm.5 14.222h20.834c2.67 0 4.833-2.164 4.833-4.833V3.167L4.944 3.166V14.61z"/>
</svg>
