<svg xmlns="http://www.w3.org/2000/svg" width="32" height="32" viewBox="0 0 32 32">
    <path fill="#0050D7" fill-rule="evenodd" d="M26.5 5C29.54 5 32 7.462 32 10.5v11c0 3.037-2.461 5.5-5.5 5.5h-17c-.794-.002-1.563-.273-2.186-.773-.473-.389-1.153-.389-1.63.002-.62.498-1.388.77-2.183.771h-3c-.505 0-.691-.663-.261-.927C1.859 25.084 2.89 23.364 3 21.5v-11C3 7.462 5.464 5 8.5 5zm0 1h-18C6.017 6 4 8.015 4 10.5v11.03c-.1 1.71-.841 3.3-2.044 4.47H3.5c.566 0 1.116-.195 1.554-.546.84-.69 2.053-.69 2.89-.004.442.355.992.55 1.557.55h17c2.485 0 4.5-2.015 4.5-4.5v-11C31 8.015 28.986 6 26.5 6zm-3.999 4c.828 0 1.5.671 1.5 1.5L24 16h1.501c.276 0 .5.224.5.5v4c0 .276-.224.5-.5.5h-17c-.276 0-.5-.224-.5-.5v-4c0-.276.224-.5.5-.5H10l.001-4.5c0-.829.672-1.5 1.5-1.5zm2.5 7H24v3h1.001v-3zm-2.5-6h-11c-.276 0-.5.224-.5.5V20h12v-8.5c0-.276-.224-.5-.5-.5zM10 17h-.999v3H10v-3zm10.5 0c.277 0 .5.224.5.5s-.223.5-.5.5h-7c-.275 0-.5-.224-.5-.5s.225-.5.5-.5zm-6-4c.277 0 .5.224.5.5v2c0 .276-.223.5-.5.5-.275 0-.5-.224-.5-.5v-2c0-.276.225-.5.5-.5zm5 0c.277 0 .5.224.5.5v2c0 .276-.223.5-.5.5-.275 0-.5-.224-.5-.5v-2c0-.276.225-.5.5-.5z"/>
</svg>
