<svg xmlns="http://www.w3.org/2000/svg" width="32" height="32" viewBox="0 0 32 32">
    <path fill="#0050D7" fill-rule="evenodd" d="M19.318 4.788C25.665 5.926 29.73 11.457 29.73 18c-.003 7.112-5.342 13.09-12.408 13.894-7.066.804-13.611-3.821-15.213-10.75C.508 14.214 4.36 7.186 11.063 4.809c.26-.093.546.044.638.304.093.26-.044.546-.304.638-6.223 2.208-9.8 8.734-8.313 15.168 1.486 6.434 7.564 10.728 14.125 9.981 6.561-.746 11.518-6.297 11.521-12.9 0-6.083-3.746-11.18-9.588-12.228-.272-.049-.453-.308-.404-.58.049-.272.308-.453.58-.404zM15.23 0c.276 0 .5.224.5.5v16c0 .276-.224.5-.5.5s-.5-.224-.5-.5V.5c0-.276.224-.5.5-.5zm9.021 3.278c2.6 1.512 4.753 3.683 6.243 6.294.137.24.054.545-.186.682s-.545.054-.682-.186c-1.404-2.458-3.431-4.502-5.877-5.926-.24-.139-.32-.445-.181-.683.139-.24.445-.32.683-.181zM7.903 3.46c.138.24.056.545-.183.683C5.317 5.527 3.312 7.508 1.9 9.895c-.14.237-.447.316-.685.175-.237-.14-.316-.447-.175-.685 1.5-2.534 3.628-4.639 6.18-6.108.24-.138.545-.056.683.183z"/>
</svg>
