<svg xmlns="http://www.w3.org/2000/svg" width="32" height="32" viewBox="0 0 32 32">
    <path fill="#0050D7" fill-rule="evenodd" d="M6.221 5.045C.936 9.773-.219 17.6 3.474 23.655c3.693 6.055 11.183 8.609 17.806 6.073 6.623-2.536 10.49-9.44 9.196-16.412C29.18 6.344 23.093 1.29 16.018 1.3l-.896.032c-.276.01-.508-.206-.518-.482-.01-.276.206-.508.482-.518L16 .3c7.575-.011 14.077 5.387 15.46 12.834 1.383 7.447-2.748 14.82-9.822 17.528-7.073 2.708-15.072-.02-19.017-6.486C-1.28 17.782-.117 9.534 5.37 4.468H.8c-.276 0-.5-.224-.5-.5s.224-.5.5-.5h6.4c.277 0 .5.225.5.501l-.016 6.4c0 .276-.225.5-.501.499-.276 0-.5-.225-.499-.501l.015-5.899h-.354c.086.193.043.428-.124.577zM15.2 6.668c.276 0 .5.224.5.5v9.1h5.9c.276 0 .5.224.5.5s-.224.5-.5.5h-6.4c-.276 0-.5-.224-.5-.5v-9.6c0-.276.224-.5.5-.5z"/>
</svg>
