<svg xmlns="http://www.w3.org/2000/svg" width="32" height="32" viewBox="0 0 32 32">
    <path fill="#0050D7" fill-rule="evenodd" d="M20.044 5.284c4.045.954 6.91 4.557 6.926 8.716v.285c3.246.953 5.367 4.113 4.978 7.512-.405 3.532-3.393 6.2-6.948 6.203H6.998c-3.156-.011-5.914-2.133-6.734-5.18-.786-2.92.393-5.998 2.888-7.652-.484-1.899.195-3.923 1.761-5.14 1.53-1.19 3.594-1.371 5.292-.508 1.976-3.407 5.965-5.15 9.839-4.236zm-9.198 5.151c-.134.267-.47.357-.72.193-1.415-.926-3.263-.85-4.599.189-1.335 1.038-1.863 2.81-1.314 4.41.077.226-.015.474-.22.595-2.335 1.366-3.467 4.126-2.764 6.738C1.932 25.172 4.297 26.99 7 27h18c3.047-.003 5.607-2.29 5.954-5.317.347-3.027-1.63-5.834-4.598-6.526-.226-.053-.386-.255-.386-.487v-.668c-.015-3.694-2.56-6.897-6.156-7.745-3.595-.848-7.304.88-8.968 4.178zM22.5 13c.828 0 1.5.672 1.5 1.5v4c0 .385-.145.736-.383 1.001.239.264.383.615.383.999v4c0 .828-.672 1.5-1.5 1.5h-15c-.828 0-1.5-.672-1.5-1.5v-4c0-.384.144-.735.382-1-.237-.264-.382-.615-.382-1v-4c0-.828.672-1.5 1.5-1.5h15zm0 7h-15c-.276 0-.5.224-.5.5v4c0 .276.224.5.5.5h15c.276 0 .5-.224.5-.5v-4c0-.276-.224-.5-.5-.5zm-1 1c.276 0 .5.224.5.5s-.224.5-.5.5-.5-.224-.5-.5.224-.5.5-.5zm1-7h-15c-.276 0-.5.224-.5.5v4c0 .245.177.45.41.492L7.5 19h15c.276 0 .5-.224.5-.5v-4c0-.276-.224-.5-.5-.5zm-1 1c.276 0 .5.224.5.5s-.224.5-.5.5-.5-.224-.5-.5.224-.5.5-.5z"/>
</svg>
