<svg xmlns="http://www.w3.org/2000/svg" width="32" height="32" viewBox="0 0 32 32">
    <path fill="#0050D7" fill-rule="evenodd" d="M15.033 15.753l.348 2.117c.04.25-.122.486-.37.537L13 18.823c-.255.052-.504-.112-.556-.366-.053-.255.11-.504.365-.556l1.082-.224c-1.332-1.12-3.225-1.294-4.745-.403-1.632.956-2.43 2.906-1.946 4.756.485 1.848 2.129 3.137 4.008 3.146 1.938 0 3.107-1.357 4.357-4.413l.002-.004.128-.307c1.338-3.169 2.717-4.687 5.087-4.687 2.819 0 5.101 2.319 5.101 5.176s-2.282 5.177-5.103 5.177c-1.352-.006-2.65-.533-3.634-1.473-.188-.18-.195-.477-.015-.665.18-.188.477-.195.665-.015.81.774 1.877 1.207 2.986 1.211 2.296 0 4.16-1.894 4.16-4.235 0-2.34-1.864-4.235-4.16-4.235-1.932 0-3.098 1.357-4.345 4.413l-.005.009-.125.303c-1.342 3.168-2.724 4.687-5.101 4.687-2.31-.012-4.324-1.59-4.916-3.85-.591-2.257.383-4.636 2.38-5.806 1.773-1.04 3.961-.897 5.577.298l-.141-.855c-.042-.256.131-.498.388-.54.256-.042.498.132.54.388zm4.109-11.279c3.81.863 6.603 4.093 6.933 7.96 3.255.804 5.466 3.874 5.156 7.25-.193 2.097-1.332 3.957-3.066 5.09-.218.142-.51.081-.651-.137-.143-.217-.081-.509.136-.65 1.496-.978 2.478-2.581 2.644-4.39.277-3.015-1.78-5.748-4.754-6.316-.214-.04-.372-.223-.382-.441-.162-3.604-2.71-6.652-6.224-7.448-3.515-.796-7.128.856-8.825 4.034-.11.207-.357.301-.577.22-1.154-.423-2.442-.256-3.45.447-1.009.703-1.61 1.855-1.611 3.08 0 .171.013.342.037.512.026.18-.055.359-.207.459-2.171 1.427-3.149 4.11-2.404 6.6.411 1.375 1.303 2.538 2.503 3.294.22.138.286.429.147.649-.138.22-.429.286-.649.147-1.39-.876-2.426-2.225-2.903-3.82-.835-2.795.2-5.8 2.549-7.492-.009-.114-.014-.23-.015-.346.002-1.537.754-2.976 2.014-3.855 1.15-.802 2.59-1.046 3.929-.68 1.968-3.328 5.87-5.027 9.67-4.167z"/>
</svg>
