<svg xmlns="http://www.w3.org/2000/svg" width="32" height="32" viewBox="0 0 32 32">
    <path fill="#0050D7" fill-rule="evenodd" d="M16.5 24.889c1.933 0 3.5 1.592 3.5 3.555C20 30.408 18.433 32 16.5 32S13 30.408 13 28.444c0-1.963 1.567-3.555 3.5-3.555zm0 1.016c-1.38 0-2.5 1.137-2.5 2.54 0 1.402 1.12 2.54 2.5 2.54s2.5-1.138 2.5-2.54c0-1.403-1.12-2.54-2.5-2.54zm-13-6.095c1.933 0 3.5 1.591 3.5 3.555 0 1.964-1.567 3.556-3.5 3.556S0 25.329 0 23.365s1.567-3.555 3.5-3.555zM19.147.193c3.177.762 5.431 3.63 5.46 6.951v.14c2.522.795 4.161 3.311 3.857 6.015-.32 2.839-2.683 4.984-5.496 4.987l-.969-.001.001 4.572h3.035c.243-1.723 1.702-3.047 3.465-3.047 1.933 0 3.5 1.591 3.5 3.555 0 1.964-1.567 3.556-3.5 3.556-1.763 0-3.221-1.324-3.464-3.047L21 23.873l-.001-5.588H17v6.604h-1v-6.604h-4.5v5.588H7v-1.016h3.5v-4.572H9.018c-2.497-.008-4.678-1.714-5.327-4.164-.615-2.321.29-4.766 2.219-6.107-.35-1.516.195-3.118 1.423-4.089 1.192-.942 2.792-1.104 4.128-.457C13.042.816 16.141-.528 19.147.193zM3.5 20.825c-1.38 0-2.5 1.137-2.5 2.54s1.12 2.54 2.5 2.54S6 24.768 6 23.365s-1.12-2.54-2.5-2.54zm25 0c-1.38 0-2.5 1.137-2.5 2.54s1.12 2.54 2.5 2.54 2.5-1.137 2.5-2.54-1.12-2.54-2.5-2.54zM12.1 4.39c-.135.27-.47.36-.72.194-1.056-.702-2.436-.645-3.432.143-.997.788-1.392 2.133-.982 3.347.078.23-.015.481-.22.604-1.765 1.05-2.621 3.171-2.09 5.179.532 2.008 2.32 3.406 4.364 3.413h13.948c2.303-.003 4.24-1.76 4.502-4.087.262-2.327-1.233-4.484-3.477-5.016-.226-.054-.386-.259-.386-.495V7.15c-.025-2.85-1.96-5.313-4.69-5.967-2.728-.654-5.543.67-6.817 3.208z"/>
</svg>
