<svg xmlns="http://www.w3.org/2000/svg" width="32" height="32" viewBox="0 0 32 32">
    <path fill="#0050D7" fill-rule="evenodd" d="M20.044 5.284A8.99 8.99 0 0 1 26.97 14v.285A7 7 0 0 1 25 28H6.998a7 7 0 0 1-3.846-12.832 4.96 4.96 0 0 1 7.053-5.648 8.99 8.99 0 0 1 9.839-4.236zm-9.198 5.151a.5.5 0 0 1-.72.193 3.96 3.96 0 0 0-5.913 4.6.5.5 0 0 1-.22.594A6 6 0 0 0 7 27h18a6 6 0 0 0 1.356-11.843.5.5 0 0 1-.386-.487v-.668a7.99 7.99 0 0 0-15.124-3.567zM16 9a4 4 0 0 1 4 4v2h.5a1.5 1.5 0 0 1 1.5 1.5v7a1.5 1.5 0 0 1-1.5 1.5h-9a1.5 1.5 0 0 1-1.5-1.5v-7a1.5 1.5 0 0 1 1.5-1.5h.5v-2a4 4 0 0 1 4-4zm4.5 7h-9a.5.5 0 0 0-.5.5v7a.5.5 0 0 0 .5.5h9a.5.5 0 0 0 .5-.5v-7a.5.5 0 0 0-.5-.5zM16 18a1 1 0 0 1 1 1v2a1 1 0 0 1-2 0v-2a1 1 0 0 1 1-1zm0-8a3 3 0 0 0-3 3v2h6v-2a3 3 0 0 0-3-3z"/>
</svg>
