<svg xmlns="http://www.w3.org/2000/svg" width="32" height="32" viewBox="0 0 32 32">
    <path fill="#0050D7" fill-rule="evenodd" d="M20.044 5.284A8.99 8.99 0 0 1 26.97 14v.285A7 7 0 0 1 25 28H6.998a7 7 0 0 1-3.846-12.832 4.96 4.96 0 0 1 7.053-5.648 8.99 8.99 0 0 1 9.839-4.236zm-9.198 5.151a.5.5 0 0 1-.72.193 3.96 3.96 0 0 0-5.913 4.6.5.5 0 0 1-.22.594A6 6 0 0 0 7 27h18a6 6 0 0 0 1.356-11.843.5.5 0 0 1-.386-.487v-.668a7.99 7.99 0 0 0-15.124-3.567zM15.997 13a11.884 11.884 0 0 1 9.737 5.16 1.5 1.5 0 0 1 0 1.681 11.77 11.77 0 0 1-9.326 5.145 6.204 6.204 0 0 1-.816 0 11.77 11.77 0 0 1-9.326-5.146 1.501 1.501 0 0 1 .002-1.683 11.88 11.88 0 0 1 9.506-5.154l.072-.001.151-.002zM16 14a5 5 0 0 0-.321 9.99c.106.002.214.004.321.004l.322-.004a5 5 0 0 0-.105-9.985L16 14zm4.455.982l.073.082A5.977 5.977 0 0 1 22 19a5.978 5.978 0 0 1-1.562 4.037 10.772 10.772 0 0 0 4.468-3.757.499.499 0 0 0 .002-.557 10.877 10.877 0 0 0-4.453-3.741zm-8.911 0l-.289.137a10.868 10.868 0 0 0-4.16 3.601.5.5 0 0 0-.002.559 10.767 10.767 0 0 0 4.469 3.758A5.973 5.973 0 0 1 10 19c0-1.545.584-2.954 1.544-4.018zm4.546 2.028a1.48 1.48 0 0 0-.09.49 1.5 1.5 0 0 0 1.5 1.5l.01.01a1.48 1.48 0 0 0 .49-.09v.09a2 2 0 1 1-2-2zM16 13c.077 0 .154.001.23.004L15.997 13H16z"/>
</svg>
