<svg xmlns="http://www.w3.org/2000/svg" width="32" height="32" viewBox="0 0 32 32">
    <path fill="#0050D7" fill-rule="evenodd" d="M23 0c1.105 0 2 .895 2 2v2h1.5c.828 0 1.5.672 1.5 1.5V7h2c1.105 0 2 .895 2 2s-.895 2-2 2h-2v3h2c1.105 0 2 .895 2 2s-.895 2-2 2h-2v3h2c1.105 0 2 .895 2 2s-.895 2-2 2h-2v1.5c0 .828-.672 1.5-1.5 1.5H25v2c0 1.105-.895 2-2 2s-2-.895-2-2v-2h-3v2c0 1.105-.895 2-2 2s-2-.895-2-2v-2h-3v2c0 1.105-.895 2-2 2s-2-.895-2-2v-2H5.5c-.828 0-1.5-.672-1.5-1.5V25H2c-1.105 0-2-.895-2-2s.895-2 2-2h2v-3H2c-1.105 0-2-.895-2-2s.895-2 2-2h2v-3H2c-1.105 0-2-.895-2-2s.895-2 2-2h2V5.5C4 4.672 4.672 4 5.5 4H7V2c0-1.105.895-2 2-2s2 .895 2 2v2h3V2c0-1.105.895-2 2-2s2 .895 2 2v2h3V2c0-1.105.895-2 2-2zm-6 28h-2v2c0 .552.448 1 1 1s1-.448 1-1v-2zm7 0h-2v2c0 .552.448 1 1 1s1-.448 1-1v-2zm-14 0H8v2c0 .552.448 1 1 1s1-.448 1-1v-2zM26.5 5h-21c-.276 0-.5.224-.5.5v21c0 .276.224.5.5.5h21c.276 0 .5-.224.5-.5v-21c0-.276-.224-.5-.5-.5zM28 24h2c.552 0 1-.448 1-1s-.448-1-1-1h-2v2zM4 22H2c-.552 0-1 .448-1 1s.448 1 1 1h2v-2zm16.5-12c.828 0 1.5.672 1.5 1.5v9c0 .828-.672 1.5-1.5 1.5h-9c-.828 0-1.5-.672-1.5-1.5v-9c0-.828.672-1.5 1.5-1.5h9zm0 1h-9c-.276 0-.5.224-.5.5v9c0 .276.224.5.5.5h9c.276 0 .5-.224.5-.5v-9c0-.276-.224-.5-.5-.5zm9.5 4h-2v2h2c.552 0 1-.448 1-1s-.448-1-1-1zM4 15H2c-.552 0-1 .448-1 1s.448 1 1 1h2v-2zm26-7h-2v2h2c.552 0 1-.448 1-1s-.448-1-1-1zM4 8H2c-.552 0-1 .448-1 1s.448 1 1 1h2V8zm5-7c-.552 0-1 .448-1 1v2h2V2c0-.552-.448-1-1-1zm14 0c-.552 0-1 .448-1 1v2h2V2c0-.552-.448-1-1-1zm-7 0c-.552 0-1 .448-1 1v2h2V2c0-.552-.448-1-1-1z"/>
</svg>
