<svg xmlns="http://www.w3.org/2000/svg" width="32" height="32" viewBox="0 0 32 32">
    <path fill="#0050D7" fill-rule="evenodd" d="M2.75 24.25v2.452l.083.003c1.266.08 2.29 1.052 2.446 2.295H7.5v1H5.215c-.295 1.131-1.324 1.967-2.548 1.967-1.455 0-2.634-1.18-2.634-2.634 0-1.131.714-2.096 1.716-2.469l.001-2.614h1zm28 0v2.864c.732.467 1.217 1.287 1.217 2.22 0 1.454-1.18 2.633-2.634 2.633-1.224 0-2.253-.836-2.548-1.967H24.5v-1h2.22c.165-1.297 1.272-2.3 2.613-2.3.142 0 .281.011.417.033V24.25h1zm-1.417 3.45c-.902 0-1.633.731-1.633 1.633s.731 1.634 1.633 1.634 1.634-.732 1.634-1.634c0-.902-.732-1.633-1.634-1.633zm-26.666 0c-.902 0-1.634.731-1.634 1.633s.732 1.634 1.634 1.634c.902 0 1.633-.732 1.633-1.634 0-.902-.731-1.633-1.633-1.633zM15.5 29v1h-3v-1h3zm-4 0v1h-3v-1h3zm12 0v1h-3v-1h3zm-4 0v1h-3v-1h3zm.767-23.633c.57 0 1.033.462 1.033 1.033v1.1H23c.828 0 1.5.672 1.5 1.5v1.7h1.1c.57 0 1.033.463 1.033 1.033 0 .571-.462 1.034-1.033 1.034h-1.1v2.2h1.1c.57 0 1.033.462 1.033 1.033 0 .57-.462 1.033-1.033 1.033h-1.1v2.2h1.1c.57 0 1.033.463 1.033 1.034 0 .57-.462 1.033-1.033 1.033h-1.1V23c0 .828-.672 1.5-1.5 1.5h-1.7v1.11c-.006.274-.12.535-.317.725-.198.19-.463.293-.737.288-.555-.011-1.002-.458-1.013-1.023v-1.1h-2.2v1.11c-.005.274-.12.535-.317.725-.198.19-.463.293-.737.288-.554-.011-1.001-.458-1.012-1.023v-1.1h-2.2v1.11c-.006.274-.12.535-.318.725-.197.19-.462.293-.736.288-.555-.011-1.002-.458-1.013-1.023v-1.1H9c-.828 0-1.5-.672-1.5-1.5v-1.7H6.4c-.57 0-1.033-.463-1.033-1.033 0-.571.462-1.034 1.033-1.034h1.1v-2.2H6.4c-.57 0-1.033-.462-1.033-1.033 0-.57.462-1.033 1.033-1.033h1.1v-2.2H6.4c-.57 0-1.033-.463-1.033-1.034 0-.57.462-1.033 1.033-1.033h1.1V9c0-.828.672-1.5 1.5-1.5h1.7V6.4c0-.57.463-1.033 1.033-1.033.571 0 1.034.462 1.034 1.033v1.1h2.2V6.4c0-.57.462-1.033 1.033-1.033.57 0 1.033.462 1.033 1.033v1.1h2.2V6.4c0-.57.463-1.033 1.034-1.033zM23 8.5H9c-.276 0-.5.224-.5.5v14c0 .276.224.5.5.5h14c.276 0 .5-.224.5-.5V9c0-.276-.224-.5-.5-.5zM2.75 20.25v3h-1v-3h1zm28 0v3h-1v-3h1zm-12.017-8.483c.829 0 1.5.671 1.5 1.5v5.466c0 .829-.671 1.5-1.5 1.5h-5.466c-.829 0-1.5-.671-1.5-1.5v-5.466c0-.829.671-1.5 1.5-1.5h5.466zM2.75 16.25v3h-1v-3h1zm28 0v3h-1v-3h1zm-12.017-3.483h-5.466c-.276 0-.5.224-.5.5v5.466c0 .276.224.5.5.5h5.466c.276 0 .5-.224.5-.5v-5.466c0-.276-.224-.5-.5-.5zm12.017-.517v3h-1v-3h1zm-28 0v3h-1v-3h1zm28-4v3h-1v-3h1zm-28 0v3h-1v-3h1zM29.333.033c1.455 0 2.634 1.18 2.634 2.634 0 .932-.485 1.752-1.216 2.22L30.75 7.25h-1V5.267c-.136.022-.275.033-.417.033-1.341 0-2.448-1.003-2.612-2.3H24.5V2h2.285C27.08.868 28.11.033 29.333.033zm-26.666 0C3.89.033 4.92.868 5.215 2H7.5v1H5.28c-.161 1.27-1.226 2.258-2.53 2.299V7.25h-1V5.136C.746 4.763.032 3.798.032 2.666c0-1.454 1.18-2.633 2.634-2.633zm26.666 1c-.902 0-1.633.732-1.633 1.634 0 .902.731 1.633 1.633 1.633s1.634-.731 1.634-1.633-.732-1.634-1.634-1.634zm-26.666 0c-.902 0-1.634.732-1.634 1.634 0 .763.523 1.403 1.23 1.583h.487v.045l.058-.001C3.644 4.223 4.3 3.521 4.3 2.667c0-.902-.731-1.634-1.633-1.634zM11.5 2v1h-3V2h3zm4 0v1h-3V2h3zm4 0v1h-3V2h3zm4 0v1h-3V2h3z"/>
</svg>
