<svg xmlns="http://www.w3.org/2000/svg" width="32" height="32" viewBox="0 0 32 32">
    <path fill="#0050D7" fill-rule="evenodd" d="M28.5 6c.828 0 1.5.672 1.5 1.5V23h1.5c.276 0 .5.224.5.5v2c0 .828-.672 1.5-1.5 1.5h-29C.672 27 0 26.328 0 25.5v-2c0-.276.224-.5.5-.5H2V7.5C2 6.672 2.672 6 3.5 6h25zM31 24H1v1.5c0 .276.224.5.5.5h29c.276 0 .5-.224.5-.5V24zM28.5 7h-25c-.276 0-.5.224-.5.5V23h26V7.5c0-.276-.224-.5-.5-.5zm-9.796 4.682c1.55.49 2.633 1.885 2.749 3.501 1.362.546 2.21 1.96 2.02 3.455-.203 1.62-1.562 2.842-3.19 2.862h-7.571c-1.623-.02-2.982-1.242-3.186-2.862-.188-1.493.657-2.906 2.018-3.453.132-1.3 1.222-2.315 2.555-2.315.14.001.279.015.416.04 1.015-1.214 2.664-1.71 4.19-1.228zm-3.582 2.078c-.126.181-.357.258-.567.188-.151-.05-.31-.076-.462-.078-.862 0-1.563.706-1.563 1.58v.098c0 .225-.15.422-.368.482-1.083.297-1.786 1.356-1.644 2.483.142 1.127 1.084 1.973 2.2 1.987h7.558c1.122-.014 2.064-.86 2.206-1.987.14-1.116-.546-2.165-1.612-2.474-.232-.043-.407-.247-.407-.491v-.095c-.007-1.292-.84-2.431-2.06-2.817-1.22-.386-2.545.068-3.28 1.124zM16.5 8c.276 0 .5.224.5.5s-.224.5-.5.5h-1c-.276 0-.5-.224-.5-.5s.224-.5.5-.5h1z"/>
</svg>
