<svg xmlns="http://www.w3.org/2000/svg" width="32" height="32" viewBox="0 0 32 32">
    <path fill="#0050D7" fill-rule="evenodd" d="M30.5 2A1.5 1.5 0 0 1 32 3.5v19a1.5 1.5 0 0 1-1.5 1.5h-9.665l1.366 5H23.5a.5.5 0 1 1 0 1h-15a.5.5 0 1 1 0-1h1.298l1.366-5H1.5A1.5 1.5 0 0 1 0 22.5v-19A1.5 1.5 0 0 1 1.5 2h29zM19.798 24h-7.597l-1.367 5h10.331l-1.367-5zM31 19H1v3.5a.5.5 0 0 0 .5.5h29a.5.5 0 0 0 .5-.5V19zm-.5-16h-29a.5.5 0 0 0-.5.5V18h30V3.5a.5.5 0 0 0-.5-.5zm-4 2a1.5 1.5 0 1 1-.646 2.854l-4 4a1.5 1.5 0 1 1-2.843.46l-5.47-2.734a1.495 1.495 0 0 1-1.687.274l-4 4a1.5 1.5 0 1 1-.709-.709l4-4a1.5 1.5 0 1 1 2.843-.46l5.471 2.735a1.495 1.495 0 0 1 1.687-.274l4-4A1.5 1.5 0 0 1 26.5 5z"/>
</svg>
