<svg xmlns="http://www.w3.org/2000/svg" width="32" height="32" viewBox="0 0 32 32">
    <path fill="#0050D7" fill-rule="evenodd" d="M28.5 6c.828 0 1.5.672 1.5 1.5V23h1.5c.276 0 .5.224.5.5v2c0 .828-.672 1.5-1.5 1.5h-29C.672 27 0 26.328 0 25.5v-2c0-.276.224-.5.5-.5H2V7.5C2 6.672 2.672 6 3.5 6h25zM31 24H1v1.5c0 .276.224.5.5.5h29c.276 0 .5-.224.5-.5V24zM28.5 7h-25c-.276 0-.5.224-.5.5V23h26V7.5c0-.276-.224-.5-.5-.5zm-12 1c.276 0 .5.224.5.5s-.224.5-.5.5h-1c-.276 0-.5-.224-.5-.5s.224-.5.5-.5h1z"/>
</svg>
