<svg xmlns="http://www.w3.org/2000/svg" width="32" height="32" viewBox="0 0 32 32">
    <path fill="#0050D7" fill-rule="evenodd" d="M30.5 2c.828 0 1.5.672 1.5 1.5v19c0 .828-.672 1.5-1.5 1.5h-9.665l1.366 5H23.5c.276 0 .5.224.5.5s-.224.5-.5.5h-15c-.276 0-.5-.224-.5-.5s.224-.5.5-.5h1.298l1.366-5H1.5C.672 24 0 23.328 0 22.5v-19C0 2.672.672 2 1.5 2h29zM19.798 24h-7.597l-1.367 5h10.331l-1.367-5zM31 19H1v3.5c0 .276.224.5.5.5h29c.276 0 .5-.224.5-.5V19zm-.5-16h-29c-.276 0-.5.224-.5.5V18h30V3.5c0-.276-.224-.5-.5-.5zm-4 2c.828 0 1.5.672 1.5 1.5S27.328 8 26.5 8c-.231 0-.45-.052-.646-.146l-4 4c.094.196.146.415.146.646 0 .828-.672 1.5-1.5 1.5s-1.5-.672-1.5-1.5c0-.063.004-.124.011-.185l-5.47-2.735c-.27.26-.637.42-1.041.42-.231 0-.45-.052-.646-.146l-4 4c.094.196.146.415.146.646 0 .828-.672 1.5-1.5 1.5S5 15.328 5 14.5 5.672 13 6.5 13c.231 0 .45.052.646.146l4-4C11.052 8.95 11 8.73 11 8.5c0-.828.672-1.5 1.5-1.5s1.5.672 1.5 1.5c0 .063-.004.124-.011.185l5.47 2.735c.27-.26.637-.42 1.041-.42.231 0 .45.052.646.146l4-4C25.052 6.95 25 6.73 25 6.5c0-.828.672-1.5 1.5-1.5z"/>
</svg>
