<svg xmlns="http://www.w3.org/2000/svg" width="32" height="32" viewBox="0 0 32 32">
    <path fill="#0050D7" fill-rule="evenodd" d="M28.467.033c1.933 0 3.5 1.567 3.5 3.5v24.934c0 1.933-1.567 3.5-3.5 3.5H3.533c-1.933 0-3.5-1.567-3.5-3.5V3.533c0-1.933 1.567-3.5 3.5-3.5h24.934zm-12.434 17h-15v11.434c0 1.38 1.12 2.5 2.5 2.5h12.5V17.032zm14.933 0H17.033v13.933h11.434c1.38 0 2.5-1.119 2.5-2.5V17.034zm-6.433 9.634c.59 0 1.067.477 1.067 1.066 0 .59-.478 1.067-1.067 1.067s-1.066-.478-1.066-1.067.477-1.066 1.066-1.066zM4.087 19.38l3.912 3.912 3.914-3.912c.195-.195.512-.195.707 0 .195.195.195.512 0 .707l-3.914 3.912 3.914 3.914c.195.195.195.512 0 .707-.195.195-.512.195-.707 0L8 24.706 4.087 28.62c-.195.195-.512.195-.707 0-.195-.195-.195-.512 0-.707L7.292 24 3.38 20.087c-.195-.195-.195-.512 0-.707.195-.195.512-.195.707 0zm25.246 4.12c.276 0 .5.224.5.5s-.224.5-.5.5h-9.6c-.276 0-.5-.224-.5-.5s.224-.5.5-.5h9.6zm-4.8-4.3c.59 0 1.067.478 1.067 1.067s-.478 1.066-1.067 1.066-1.066-.477-1.066-1.066c0-.59.477-1.067 1.066-1.067zm-8.5-18.168l-12.5.001c-1.38 0-2.5 1.12-2.5 2.5v12.5h15v-15zm12.434.001H17.033v15h13.933v-12.5c0-1.38-1.119-2.5-2.5-2.5zM8 2.167c.276 0 .5.224.5.5v4.832l4.833.001c.276 0 .5.224.5.5s-.224.5-.5.5H8.5l.001 4.833c0 .276-.224.5-.5.5s-.5-.224-.5-.5V8.5L2.666 8.5c-.276 0-.5-.224-.5-.5s.224-.5.5-.5h4.832L7.5 2.666c0-.276.224-.5.5-.5zM28.267 7.5c.276 0 .5.224.5.5s-.224.5-.5.5h-8.534c-.276 0-.5-.224-.5-.5s.224-.5.5-.5h8.534z"/>
</svg>
