<svg xmlns="http://www.w3.org/2000/svg" width="32" height="32" viewBox="0 0 32 32">
    <path fill="#0050D7" fill-rule="evenodd" d="M28.5 5C30.433 5 32 6.567 32 8.5v15c0 1.933-1.567 3.5-3.5 3.5h-25C1.567 27 0 25.433 0 23.5v-15C0 6.567 1.567 5 3.5 5h25zM31 15H1v8.5C1 24.88 2.12 26 3.5 26h25c1.38 0 2.5-1.12 2.5-2.5V15zM4.5 21c.276 0 .5.224.5.5v2c0 .276-.224.5-.5.5s-.5-.224-.5-.5v-2c0-.276.224-.5.5-.5zm4 0c.276 0 .5.224.5.5v2c0 .276-.224.5-.5.5s-.5-.224-.5-.5v-2c0-.276.224-.5.5-.5zm4 0c.276 0 .5.224.5.5v2c0 .276-.224.5-.5.5s-.5-.224-.5-.5v-2c0-.276.224-.5.5-.5zM31 10H1v4h30v-4zm-2.5-4h-25C2.12 6 1 7.12 1 8.5V9h30v-.5C31 7.12 29.88 6 28.5 6z"/>
</svg>
