<svg xmlns="http://www.w3.org/2000/svg" width="32" height="32" viewBox="0 0 32 32">
    <path fill="#0050D7" fill-rule="evenodd" d="M21.334.033c5.127.003 9.523 3.666 10.45 8.709.27 1.457.226 2.909-.087 4.281l-.063-.153c.218.48.332 1.002.333 1.53v13.867c0 2.043-1.657 3.7-3.7 3.7H3.733c-2.043 0-3.7-1.657-3.7-3.7V14.4c0-2.043 1.657-3.7 3.7-3.7h6.96c-.007-2.756 1.056-5.483 3.092-7.53l-2.584.007c-.276.001-.5-.222-.501-.498 0-.277.223-.501.499-.502l4.266-.01c.278-.001.502.224.502.5l-.011 4.268c0 .276-.225.499-.501.498-.276 0-.5-.225-.499-.5l.009-3.51c-.018.022-.038.044-.06.064-3.463 3.098-4.221 8.225-1.804 12.192 1.768 2.901 4.865 4.578 8.1 4.621h.316c1.086-.022 2.183-.228 3.246-.633 4.34-1.657 6.88-6.175 6.038-10.744-.84-4.569-4.822-7.887-9.45-7.89l-.62.021c-.275.01-.507-.206-.516-.482-.01-.276.206-.508.482-.517l.637-.022zm3.785 20.568c-1.29.492-2.625.718-3.939.7l-20.147-.002v6.968c0 1.49 1.21 2.7 2.7 2.7h24.534c1.49 0 2.7-1.21 2.7-2.7V15.156c-1.135 2.435-3.184 4.428-5.848 5.445zM4.8 25.633c.276 0 .5.224.5.5v2.134c0 .276-.224.5-.5.5s-.5-.224-.5-.5v-2.134c0-.276.224-.5.5-.5zm4.267 0c.276 0 .5.224.5.5v2.134c0 .276-.224.5-.5.5s-.5-.224-.5-.5v-2.134c0-.276.224-.5.5-.5zm4.266 0c.276 0 .5.224.5.5v2.134c0 .276-.224.5-.5.5s-.5-.224-.5-.5v-2.134c0-.276.224-.5.5-.5zm-1.225-9.667H1.033V20.3l15.792.001c-1.845-.861-3.455-2.257-4.578-4.1l-.139-.234zM10.743 11.7h-7.01c-1.49 0-2.7 1.209-2.7 2.7v.566l10.569.001c-.467-1.053-.75-2.156-.859-3.267zM20.8 4.3c.276 0 .5.224.5.5v5.9h3.767c.276 0 .5.224.5.5s-.224.5-.5.5H20.8c-.276 0-.5-.224-.5-.5V4.8c0-.276.224-.5.5-.5z"/>
</svg>
