<svg xmlns="http://www.w3.org/2000/svg" width="32" height="32" viewBox="0 0 32 32">
    <path fill="#0050D7" fill-rule="evenodd" d="M11 8a5.5 5.5 0 0 1 5.496 5.279l.004.221a5.475 5.475 0 0 1-.745 2.765l3.89 2.764A1.993 1.993 0 0 1 21 18.5c.346 0 .671.088.955.242l6.38-7.132a2 2 0 1 1 .745.667l-6.393 7.148a2 2 0 1 1-3.585.444l-3.927-2.789A5.488 5.488 0 0 1 11 19a5.478 5.478 0 0 1-3.52-1.273l-3.757 3.757a2 2 0 1 1-.707-.707l3.757-3.757A5.5 5.5 0 0 1 11 8zm1.289 7.03c-.348.293-.798.47-1.289.47a1.99 1.99 0 0 1-1.016-.277L8.19 17.016c.77.616 1.747.984 2.809.984 1.334 0 2.532-.58 3.356-1.502l-2.067-1.469zM11 9a4.5 4.5 0 0 0-3.516 7.309l1.793-1.793a2 2 0 1 1 3.592-.301l2.067 1.468a4.475 4.475 0 0 0 .56-1.971l.004-.212A4.5 4.5 0 0 0 11 9z"/>
</svg>
