<svg xmlns="http://www.w3.org/2000/svg" width="32" height="32" viewBox="0 0 32 32">
    <path fill="#0050D7" fill-rule="evenodd" d="M23.618 8.78c2.058.501 3.281 1.167 3.376 2.107l.006.12V29C27 30.835 22.11 32 16 32c-6.14 0-11-1.152-11-3V11.007C5 10.01 6.251 9.3 8.382 8.781c.268-.065.539.1.604.367.065.269-.1.539-.368.604C6.944 10.16 6 10.696 6 11.006c0 .33.968.874 2.702 1.284 1.915.454 4.521.715 7.298.715 2.769 0 5.376-.264 7.298-.722 1.73-.412 2.702-.956 2.702-1.277 0-.316-.934-.844-2.618-1.254-.268-.065-.433-.335-.368-.604.065-.268.336-.432.604-.367zM16 26.013c-4.474 0-8.271-.617-10-1.667V29c0 .33.968.873 2.702 1.284C10.617 30.74 13.223 31 16 31c2.769 0 5.376-.264 7.298-.722C25.028 29.866 26 29.322 26 29l.002-4.662C24.27 25.391 20.466 26.012 16 26.012zm0-5.999c-4.474 0-8.271-.616-10-1.667v4.657c0 .331.967.876 2.698 1.29 1.917.456 4.523.719 7.302.719 2.775 0 5.382-.265 7.301-.724 1.73-.413 2.699-.959 2.699-1.285l.002-4.662C24.27 19.393 20.466 20.013 16 20.013zm0-6.008c-4.476 0-8.272-.612-10-1.66v4.66c0 .33.967.876 2.698 1.289 1.917.457 4.523.72 7.302.72 2.775 0 5.382-.265 7.301-.724 1.73-.413 2.699-.959 2.699-1.286l.002-4.668c-1.733 1.048-5.543 1.67-10.002 1.67zM16 .01c2 0 3.37 1.53 3.37 4 0 2.268-1.11 3.778-2.78 4.068.39.684 1.146 1.075 1.93 1 .272.013.544-.01.81-.07l.19.8c-.365.12-.746.18-1.13.18-1.262.052-2.421-.692-2.9-1.86-1.71-.24-2.87-1.76-2.87-4.119C12.62 1.528 14 .01 16 .01zm-7 0c.888-.006 1.739.356 2.35 1l-.53.65c-.477-.493-1.134-.77-1.82-.77-.85 0-1.44.44-1.44 1.12 0 .68.7 1 1.31 1.31l1.13.5c.95.255 1.613 1.114 1.62 2.099 0 1.25-1 2.239-2.69 2.239-1.035.008-2.029-.407-2.75-1.15l.6-.7c.573.619 1.377.973 2.22.98 1 0 1.64-.52 1.64-1.28s-.64-1.06-1.36-1.39l-1.13-.499c-.901-.263-1.54-1.063-1.6-2 .035-.608.316-1.175.778-1.573C7.79.147 8.393-.045 9 .009zm13.01.14v7.018h3.43v.85H21V.149h1.01zM16 .89c-1.39 0-2.34 1.21-2.34 3.12 0 1.909.92 3.278 2.34 3.278 1.4 0 2.33-1.27 2.33-3.239 0-1.97-.94-3.159-2.33-3.159z"/>
</svg>
