<svg xmlns="http://www.w3.org/2000/svg" width="32" height="32" viewBox="0 0 32 32">
    <path fill="#0050D7" fill-rule="evenodd" d="M25.182 12.81c.132-.242.436-.332.678-.199 1.288.704 2.052 1.553 2.133 2.51l.007.17v11.988c0 2.697-5.454 4.722-12 4.722-6.545 0-12-2.025-12-4.721V15.29c0-1.026.78-1.938 2.144-2.67.243-.131.546-.04.677.204.13.242.039.546-.204.677C5.544 14.078 5 14.71 5 15.29 5 17.16 9.972 19 16 19s11-1.84 11-3.71c0-.579-.542-1.213-1.62-1.803-.241-.131-.331-.435-.198-.678zM5 23.2v4.08C5 29.151 9.977 31 16 31c6.024 0 11-1.848 11-3.72l.002-4.077C25.138 24.884 20.874 26 16 26c-4.867 0-9.135-1.12-11-2.8zm22.002-5.997C25.138 18.884 20.874 20 16 20c-4.872 0-9.135-1.116-11-2.796v4.085C5 23.154 9.98 25 16 25c6.028 0 11-1.84 11-3.71zM15.996 0c.275 0 .5.225.5.5v2.498L18.596.2c.166-.222.479-.266.7-.1.22.166.265.48.1.7l-2.9 3.865v2.471l2.133-1.232 1.906-4.442c.11-.254.404-.37.657-.262.255.11.372.403.262.657L20.076 5.07l2.17-1.252c.239-.138.545-.057.683.182.138.24.056.546-.183.685L20.584 5.93l3.47.412c.274.032.47.282.438.556-.033.274-.282.47-.555.438l-4.8-.57L17 7.998l2.137 1.234 4.8-.57c.273-.033.522.163.554.438.034.274-.163.522-.436.555l-3.471.412 2.162 1.248c.239.14.32.444.183.683-.138.24-.444.322-.683.184l-2.16-1.246 1.37 3.207c.108.254-.01.547-.264.655-.253.11-.547-.008-.657-.262l-1.893-4.435-2.146-1.239v2.457l2.9 3.88c.165.223.12.535-.102.7-.22.165-.534.12-.698-.1l-2.1-2.809v2.51c0 .274-.224.5-.5.5-.277 0-.5-.226-.5-.5v-2.487l-2.09 2.787c-.167.22-.48.264-.7.098-.221-.164-.266-.477-.1-.7l2.89-3.854V8.87l-2.126 1.228-1.905 4.44c-.108.253-.402.371-.656.262-.254-.108-.371-.402-.263-.656l1.378-3.212-2.168 1.253c-.24.138-.546.056-.684-.184-.137-.24-.055-.544.184-.684l2.162-1.248-3.471-.412c-.274-.033-.47-.28-.439-.556.034-.274.282-.47.557-.436l4.8.569 2.134-1.234-2.138-1.233-4.796.57c-.274.034-.523-.163-.556-.438-.033-.273.163-.522.438-.554l3.468-.413-2.16-1.247c-.239-.14-.32-.445-.183-.685.139-.239.445-.32.684-.183l2.159 1.248-1.37-3.208c-.107-.254.01-.548.264-.656.255-.109.548.01.657.264l1.893 4.433 2.136 1.233V4.665L12.605.8c-.165-.222-.12-.534.101-.7.222-.166.535-.12.7.1l2.09 2.797V.498c0-.274.223-.5.5-.5z"/>
</svg>
