<svg xmlns="http://www.w3.org/2000/svg" width="32" height="32" viewBox="0 0 32 32">
    <path fill="#0050D7" fill-rule="evenodd" d="M28.5 0a.5.5 0 0 1 .5.5v31a.5.5 0 0 1-.5.5h-25a.5.5 0 0 1-.5-.5V.5a.5.5 0 0 1 .5-.5h25zM28 1H4v30h24V1zm-3.5 2A1.5 1.5 0 0 1 26 4.5v6c0 .385-.145.736-.383 1.001.239.264.383.615.383.999v6c0 .385-.145.736-.383 1.001.239.264.383.615.383.999v6a1.5 1.5 0 0 1-1.5 1.5h-17A1.5 1.5 0 0 1 6 26.5v-6c0-.384.144-.735.382-1a1.493 1.493 0 0 1-.382-1v-6c0-.384.144-.735.382-1a1.493 1.493 0 0 1-.382-1v-6A1.5 1.5 0 0 1 7.5 3h17zm0 17h-17a.5.5 0 0 0-.5.5v6a.5.5 0 0 0 .5.5h17a.5.5 0 0 0 .5-.5v-6a.5.5 0 0 0-.5-.5zM22 22a1 1 0 1 1 0 2 1 1 0 0 1 0-2zm2.5-10h-17a.5.5 0 0 0-.5.5v6a.5.5 0 0 0 .5.5h17a.5.5 0 0 0 .5-.5v-6a.5.5 0 0 0-.5-.5zM22 14a1 1 0 1 1 0 2 1 1 0 0 1 0-2zm2.5-10h-17a.5.5 0 0 0-.5.5v6a.5.5 0 0 0 .5.5h17a.5.5 0 0 0 .5-.5v-6a.5.5 0 0 0-.5-.5zM22 6a1 1 0 1 1 0 2 1 1 0 0 1 0-2z"/>
</svg>
