<svg xmlns="http://www.w3.org/2000/svg" width="32" height="32" viewBox="0 0 32 32">
    <path fill="#0050D7" fill-rule="evenodd" d="M25.249 3.5l6.705 8.87L16 29.24.046 12.37 6.75 3.5H25.25zm-13.873 9.333H1.86l13.215 13.974-3.309-13.25-.391-.724zm18.763 0h-9.453l-.39.724-3.288 13.161 13.13-13.885zm-10.59 0h-7.036l.164.304.045.117 3.309 13.251 3.31-13.251.044-.117.164-.304zM7.028 4.791l-5.323 7.042h9.13L7.028 4.791zm17.98.048l-3.781 6.994h9.068l-5.287-6.994zm-8.97.304l-3.101 6.69h6.51l-3.409-6.69zm-.805-.643H8.007l3.89 7.196L15.234 4.5zm8.82 0h-7.22l3.504 6.876L24.054 4.5z"/>
</svg>
