<svg xmlns="http://www.w3.org/2000/svg" width="32" height="32" viewBox="0 0 32 32">
    <path fill="#0050D7" fill-rule="evenodd" d="M16.651 1.14A13.5 13.5 0 0 1 27.992 14H29.5a1.5 1.5 0 0 1 1.5 1.5v14a1.5 1.5 0 0 1-1.5 1.5h-20A1.5 1.5 0 0 1 8 29.5v-3.202l-.017-.008A13.5 13.5 0 0 1 16.65 1.14zM29.5 15h-20a.5.5 0 0 0-.5.5v14a.5.5 0 0 0 .5.5h20a.5.5 0 0 0 .5-.5v-14a.5.5 0 0 0-.5-.5zm-3.64 6.01c.369 0 .734.078 1.07.23.336.148.639.362.89.63l-.57.76a2.82 2.82 0 0 0-.64-.42 1.72 1.72 0 0 0-.74-.15 1.16 1.16 0 0 0-.73.21.7.7 0 0 0-.27.58.64.64 0 0 0 .08.34.89.89 0 0 0 .22.25c.103.078.213.145.33.2l.38.17.87.38a3 3 0 0 1 .52.29c.15.107.286.235.4.38.117.15.209.32.27.5A2 2 0 0 1 28 26c0 .265-.055.527-.16.77a1.86 1.86 0 0 1-.45.63 2.16 2.16 0 0 1-.72.43c-.32.116-.66.17-1 .16a3.11 3.11 0 0 1-1.24-.26 3.22 3.22 0 0 1-1.01-.73l.66-.81c.227.226.491.412.78.55a2 2 0 0 0 .88.21c.296.021.59-.064.83-.24a.79.79 0 0 0 0-1.23 1.72 1.72 0 0 0-.31-.2l-.39-.19-.87-.39a2.84 2.84 0 0 1-.46-.26 2 2 0 0 1-.41-.37 1.75 1.75 0 0 1-.3-.51 1.83 1.83 0 0 1-.11-.66 1.75 1.75 0 0 1 .16-.75 1.91 1.91 0 0 1 .44-.6 2 2 0 0 1 .68-.4 2.47 2.47 0 0 1 .86-.14zm-7.42.11l2 3.8.65 1.43c0-.353-.03-.73-.09-1.13a3.76 3.76 0 0 1 0-1.16v-2.94h1v6.75h-1.11l-2-3.8-.65-1.43c0 .36.06.73.09 1.13.03.4.05.78.05 1.16v3h-1.1v-6.81h1.16zM15 22a3.45 3.45 0 0 1 .82 2.51c.009.501-.062 1-.21 1.48A2.86 2.86 0 0 1 15 27a2.49 2.49 0 0 1-1 .65 3.48 3.48 0 0 1-1.27.22H11v-6.75h1.7A3 3 0 0 1 15 22zm-2.38.09h-.5v4.81h.51a1.88 1.88 0 0 0 1.49-.59 2.74 2.74 0 0 0 .52-1.84 2.61 2.61 0 0 0-.53-1.81 1.93 1.93 0 0 0-1.49-.57zM7.621 21H3.842A12.454 12.454 0 0 0 8 25.144v-3.058l-.147-.4c-.081-.227-.158-.456-.23-.686zm-.97-6H2.01c.075 1.747.516 3.45 1.28 5h4.043a20.906 20.906 0 0 1-.682-5zm1.435 0h-.434v.068A19.92 19.92 0 0 0 8 18.413L8 15.5c0-.176.03-.344.086-.5zm3.414 2a.5.5 0 1 1 0 1 .5.5 0 0 1 0-1zm2 0a.5.5 0 1 1 0 1 .5.5 0 0 1 0-1zm2 0a.5.5 0 1 1 0 1 .5.5 0 0 1 0-1zM7.321 8.999H3.26a12.566 12.566 0 0 0-1.252 5h4.648c.037-1.773.27-3.462.666-5zm6.678 0H8.357a20.895 20.895 0 0 0-.701 5h6.343V9zm6.645 0h-5.645v5h6.346a20.879 20.879 0 0 0-.701-5zm5.098 0h-4.063c.395 1.54.629 3.228.666 5h4.646a12.454 12.454 0 0 0-1.25-5zM10.867 2.506l-.044.013A12.516 12.516 0 0 0 3.802 8h3.806c.741-2.339 1.874-4.26 3.26-5.493zM14 2.034C11.77 2.337 9.794 4.642 8.66 8H14V2.033zm1 0v5.965h5.34C19.207 4.643 17.23 2.337 15 2.035zm3.135.472l.025.023c1.373 1.234 2.496 3.145 3.233 5.47h3.805a12.5 12.5 0 0 0-7.063-5.493z"/>
</svg>
