<svg xmlns="http://www.w3.org/2000/svg" width="32" height="32" viewBox="0 0 32 32">
    <path fill="#0050D7" fill-rule="evenodd" d="M11.2 7.5c.276 0 .5.224.5.5s-.224.5-.5.5H2.266c-.323-.004-.634.12-.865.346-.232.225-.364.533-.368.85v20.068c.004.323.136.631.368.857.23.225.542.35.871.346h27.462c.323.004.634-.12.865-.346.232-.226.364-.534.368-.85V9.702c-.004-.323-.136-.63-.368-.856-.23-.226-.542-.35-.871-.346h-7.861c-.276 0-.5-.224-.5-.5s.224-.5.5-.5h7.855c.588-.007 1.155.22 1.576.63.42.41.661.972.669 1.566v20.08c-.008.589-.248 1.15-.67 1.56-.42.411-.987.638-1.569.63H2.278c-.588.008-1.155-.219-1.576-.63-.42-.41-.661-.971-.669-1.565V9.69c.008-.588.248-1.15.67-1.56.42-.41.987-.637 1.569-.63H11.2zM16.533.033c.276 0 .5.224.5.5v14.781l3.413-3.412c.196-.195.512-.195.708 0 .195.196.195.512 0 .708l-4.267 4.266c-.195.195-.512.195-.707 0l-4.267-4.266c-.195-.196-.195-.512 0-.708.195-.195.512-.195.707 0l3.413 3.414V.533c0-.276.224-.5.5-.5z"/>
</svg>
