<svg xmlns="http://www.w3.org/2000/svg" width="32" height="32" viewBox="0 0 32 32">
    <path fill="#0050D7" fill-rule="evenodd" d="M9.56 20.3c.749.007 1.466.305 2 .83l-.6.74c-.387-.357-.893-.557-1.42-.56-.62 0-1 .29-1 .77 0 .48.5.7 1 .92l.88.37c.789.225 1.329.95 1.32 1.77-.034.577-.306 1.114-.752 1.482-.446.368-1.025.534-1.598.458-.884-.011-1.729-.37-2.35-1l.69-.71c.46.449 1.068.712 1.71.74.73 0 1.14-.33 1.14-.84s-.42-.71-1-1l-.89-.39c-.768-.236-1.3-.937-1.32-1.74.04-.537.296-1.035.708-1.38.412-.347.946-.513 1.482-.46zm-4.184 1.009c.62.631.916 1.513.804 2.391C6.18 25.87 5 27 3 27H1.25v-6.54H3c.88-.096 1.756.217 2.376.849zm8.894-.849v5.56h2.71V27h-3.87v-6.54h1.16zm6.98 0L23.38 27h-1.23l-.51-1.77h-2.19L18.94 27h-1.19l2.14-6.54h1.36zm4.44 0l1.18 3.22.43 1.24.43-1.24 1.15-3.22h1.28V27H29.1v-3c0-.508.063-1.197.118-1.76l.032-.32-.53 1.49-1.13 3H27l-1.13-3-.52-1.49c.05.6.14 1.47.14 2.08v3h-1.07v-6.54h1.27zm-22.77.94h-.5v4.66h.49c1.32 0 2.09-.75 2.09-2.36 0-1.61-.76-2.3-2.08-2.3zm17.64-.04c-.18.73-.37 1.47-.58 2.16l-.23.8h1.63l-.23-.8c-.133-.46-.267-.947-.397-1.433l-.193-.727zM30.5 5c.828 0 1.5.672 1.5 1.5v7c0 .828-.672 1.5-1.5 1.5h-29C.672 15 0 14.328 0 13.5v-7C0 5.672.672 5 1.5 5h29zm0 1h-29c-.276 0-.5.224-.5.5v7c0 .276.224.5.5.5h29c.276 0 .5-.224.5-.5v-7c0-.276-.224-.5-.5-.5zM4 9c.552 0 1 .448 1 1s-.448 1-1 1-1-.448-1-1 .448-1 1-1zm4 0c.552 0 1 .448 1 1s-.448 1-1 1-1-.448-1-1 .448-1 1-1zm4 0c.552 0 1 .448 1 1s-.448 1-1 1-1-.448-1-1 .448-1 1-1zm8 0c.552 0 1 .448 1 1s-.448 1-1 1-1-.448-1-1 .448-1 1-1zm4 0c.552 0 1 .448 1 1s-.448 1-1 1-1-.448-1-1 .448-1 1-1zm4 0c.552 0 1 .448 1 1s-.448 1-1 1-1-.448-1-1 .448-1 1-1zM16 9c.552 0 1 .448 1 1s-.448 1-1 1-1-.448-1-1 .448-1 1-1z"/>
</svg>
