<svg xmlns="http://www.w3.org/2000/svg" width="32" height="32" viewBox="0 0 32 32">
    <path fill="#0050D7" fill-rule="evenodd" d="M30.467.033c.828 0 1.5.672 1.5 1.5v28.934c0 .828-.672 1.5-1.5 1.5H1.533c-.828 0-1.5-.672-1.5-1.5V1.533c0-.828.672-1.5 1.5-1.5h28.934zm0 1H1.533c-.276 0-.5.224-.5.5v28.934c0 .276.224.5.5.5h28.934c.276 0 .5-.224.5-.5V1.533c0-.276-.224-.5-.5-.5zm-8.6 5.4c.276 0 .5.224.5.5v5.9H27.2c.276 0 .5.224.5.5v6.157c1.303 1.07 2.133 2.693 2.133 4.51 0 3.222-2.611 5.833-5.833 5.833-2.679 0-4.936-1.805-5.62-4.266H4.8c-.276 0-.5-.224-.5-.5V13.333c0-.276.224-.5.5-.5h4.833v-5.9c0-.276.224-.5.5-.5h11.734zM24 19.167c-2.67 0-4.833 2.164-4.833 4.833 0 2.67 2.164 4.833 4.833 4.833 2.67 0 4.833-2.164 4.833-4.833 0-2.67-2.164-4.833-4.833-4.833zm0 2.2c.276 0 .5.224.5.5v1.632l1.633.001c.276 0 .5.224.5.5s-.224.5-.5.5H24.5l.001 1.633c0 .276-.224.5-.5.5s-.5-.224-.5-.5V24.5l-1.633.001c-.276 0-.5-.224-.5-.5s.224-.5.5-.5h1.632l.001-1.633c0-.276.224-.5.5-.5zM21.367 7.433H10.633v5.9c0 .276-.224.5-.5.5H5.3v10.734h2.2V20.8c0-.276.224-.5.5-.5s.5.224.5.5v3.766h2.2V20.8c0-.276.224-.5.5-.5s.5.224.5.5v3.766h2.2V20.8c0-.276.224-.5.5-.5s.5.224.5.5v3.766h2.2V20.8c0-.276.224-.5.5-.5s.5.224.5.5v3.766h.094c-.018-.186-.027-.375-.027-.566 0-3.222 2.611-5.833 5.833-5.833.974 0 1.892.238 2.7.66v-4.994h-4.833c-.276 0-.5-.224-.5-.5v-5.9z"/>
</svg>
