<svg xmlns="http://www.w3.org/2000/svg" width="32" height="32" viewBox="0 0 32 32">
    <path fill="#0050D7" fill-rule="evenodd" d="M.478 31.996L.533 32H.52l-.026-.002-.015-.002zm7.9-8.373a.533.533 0 0 1 0 .754L1.82 30.933h5.113a.533.533 0 0 1 0 1.067h-6.4l-.061-.005-.027-.003a.408.408 0 0 1-.06-.013.517.517 0 0 1-.158-.076l-.048-.038-.029-.029-.047-.055-.018-.025a.54.54 0 0 1-.072-.171l-.005-.026-.004-.026A.548.548 0 0 1 0 31.48v-6.414a.533.533 0 1 1 1.067 0l-.001 5.112 6.557-6.556a.533.533 0 0 1 .754 0zm16 0l6.555 6.556v-5.112a.533.533 0 0 1 1.067 0V31.48a.536.536 0 0 1-.004.051l.004-.065a.535.535 0 0 1-.227.436l.07-.06a.535.535 0 0 1-.376.157h-6.4a.533.533 0 1 1 0-1.067h5.112l-6.556-6.556a.533.533 0 0 1 .754-.754zM.471 31.995l.006.001h-.01l.004-.001zm-.347-.186l.022.024-.012-.012-.01-.012zm-.028-.036l.006.008.008.011-.014-.019zM16 8.533a7.467 7.467 0 1 1 0 14.934 7.467 7.467 0 0 1 0-14.934zM16 9.6a6.4 6.4 0 1 0 0 12.8 6.4 6.4 0 0 0 0-12.8zM6.933 0a.533.533 0 1 1 0 1.067L1.82 1.066l6.557 6.557a.533.533 0 0 1-.754.754L1.066 1.82v5.113a.533.533 0 1 1-1.066 0V.52L.001.494.002.487l.002-.02.01-.052A.579.579 0 0 1 .085.243a.443.443 0 0 1 .01-.016L.136.179.163.15.214.106l.03-.02A.54.54 0 0 1 .415.012L.441.008.467.004A.547.547 0 0 1 .52 0h6.413zM.19.125L.167.146l.012-.01L.19.124zM.207.111L.19.125.198.118.207.111zM31.521.003l.011.001h-.005l-.006-.001zM31.481 0l.025.001.015.002L31.467 0h.013zm.398.198l.01.012.001.001-.011-.013zm-.027-.031L31.85.164l-.006-.008.008.011zm.039.045l.001.001.001.001.003.004.018.025a.54.54 0 0 1 .033.059l.013.028a.528.528 0 0 1 .027.085l.005.026.004.026A.547.547 0 0 1 32 .52v6.413a.533.533 0 0 1-1.067 0V1.82l-6.556 6.557a.533.533 0 1 1-.754-.754l6.556-6.557h-5.112a.533.533 0 1 1 0-1.066h6.399l.061.004.028.003a.474.474 0 0 1 .143.046.538.538 0 0 1 .075.044l.07.059.007.008.002.003.002.002.001.001.007.008.02.02.007.012.001.001.001.001z"/>
</svg>
