<svg xmlns="http://www.w3.org/2000/svg" width="32" height="32" viewBox="0 0 32 32">
    <path fill="#0050D7" fill-rule="evenodd" d="M21.916 1c.56.007 1.094.236 1.485.637.39.4.606.94.6 1.493V8.5c0 .276-.225.5-.501.5s-.5-.224-.5-.5V3.124c.004-.295-.11-.578-.315-.79-.206-.21-.487-.33-.775-.334H3.096c-.294.004-.575.124-.78.335-.206.21-.32.494-.316.795v25.746c-.004.295.11.578.315.79.206.21.487.33.775.334h18.814c.294-.004.575-.124.78-.335.206-.21.32-.494.316-.795V18.5c0-.276.224-.5.5-.5s.5.224.5.5v10.364c.007.56-.209 1.099-.6 1.5-.39.4-.924.63-1.49.636H3.084c-.56-.007-1.094-.236-1.485-.637-.39-.4-.606-.94-.6-1.493V3.136c-.006-.56.21-1.099.6-1.5.391-.4.925-.63 1.491-.636h18.826zm4.938 8.146l4 4c.195.196.195.512 0 .708l-4 4c-.196.195-.512.195-.708 0-.195-.196-.195-.512 0-.708L29.293 14H15.5c-.276 0-.5-.224-.5-.5s.224-.5.5-.5h13.793l-3.147-3.146c-.195-.196-.195-.512 0-.708.196-.195.512-.195.708 0z"/>
</svg>
