<svg xmlns="http://www.w3.org/2000/svg" width="32" height="32" viewBox="0 0 32 32">
    <path fill="#0050D7" fill-rule="evenodd" d="M16.005 6l.032.001.21.003.074.002L16.005 6c6.085.065 11.773 3.029 15.308 7.974.888 1.208.888 2.854.004 4.057-3.477 4.856-9.023 7.798-14.99 7.963-.115.004-.23.006-.347.006-.113 0-.225-.002-.337-.006l.352.006C9.903 25.942 4.206 22.977.667 18.026-.22 16.818-.22 15.172.663 13.97c3.477-4.856 9.023-7.798 14.98-7.963.112-.004.224-.006.337-.006h.025zm-.013 1l-.326.006C11.123 7.181 7.48 11.136 7.48 16c0 4.868 3.647 8.824 8.194 8.994l.314.006.04-.001.257-.005c4.548-.17 8.195-4.126 8.195-8.994 0-4.866-3.644-8.82-8.189-8.994-.087-.003-.175-.005-.262-.006l.262.006c-.099-.004-.199-.006-.299-.006zm5.65.968l.03.025C23.986 9.818 25.48 12.727 25.48 16c0 3.29-1.51 6.213-3.845 8.036 3.528-1.202 6.646-3.483 8.872-6.592.63-.856.63-2.022-.004-2.883-2.22-3.107-5.336-5.389-8.861-6.593zm-11.334.009l-.246.086c-3.411 1.225-6.423 3.467-8.59 6.493-.628.856-.628 2.022.005 2.883 2.214 3.098 5.317 5.375 8.826 6.582C7.982 22.196 6.48 19.28 6.48 16c0-3.283 1.504-6.2 3.828-8.023zM16.26 13c-.358.62-.357 1.384.002 2.003.36.62 1.022 1 1.738.997.35.002.695-.087 1-.26V16c0 1.657-1.343 3-3 3s-3-1.343-3-3 1.343-3 3-3z"/>
</svg>
