<svg xmlns="http://www.w3.org/2000/svg" width="32" height="33" viewBox="0 0 32 33">
    <path fill="#0050D7" fill-rule="evenodd" d="M11.578.985l8.888.002a1.75 1.75 0 0 1 1.597 1.744c0 .907-.693 1.664-1.641 1.746h-.625v9.645l10.82 11.222a4.437 4.437 0 0 1-3.01 7.642H4.385a4.437 4.437 0 0 1-4.066-2.82 4.429 4.429 0 0 1 1.057-4.815l3.008-3.121.021-.051a.5.5 0 0 1 .25-.229l7.548-7.828V4.476l-.669-.001a1.75 1.75 0 0 1-1.597-1.744c0-.907.693-1.664 1.641-1.746zm1.931 20.887a10.963 10.963 0 0 1-8.466 1.117L2.08 26.06a3.437 3.437 0 0 0 2.312 5.926H27.6a3.437 3.437 0 0 0 2.32-5.926l-.016-.015-3.8-3.94a10.975 10.975 0 0 1-10.74-.235 1.8 1.8 0 0 0-1.855.002zm5.264 3.685a2.4 2.4 0 1 1 0 4.801 2.4 2.4 0 0 1 0-4.801zm0 1a1.4 1.4 0 1 0 0 2.801 1.4 1.4 0 0 0 0-2.801zm-4.189-3.802a1.81 1.81 0 1 1 0 3.618 1.81 1.81 0 0 1 0-3.618zm0 1a.81.81 0 1 0 0 1.618.81.81 0 0 0 0-1.618zM11.622 1.983a.75.75 0 0 0-.685.748c0 .389.298.714.641.746h1.125a.5.5 0 0 1 .5.5v10.347a.5.5 0 0 1-.14.347l-7.218 7.486a9.96 9.96 0 0 0 7.153-1.144 2.797 2.797 0 0 1 2.878-.002 9.973 9.973 0 0 0 9.504.342l-6.443-6.682a.5.5 0 0 1-.14-.347V3.977a.5.5 0 0 1 .5-.5l1.08.002a.75.75 0 0 0 .686-.748c0-.39-.298-.714-.641-.746l-8.8-.002z"/>
</svg>
