<svg xmlns="http://www.w3.org/2000/svg" width="32" height="33" viewBox="0 0 32 33">
    <path fill="#0050D7" fill-rule="evenodd" d="M11.578.985l8.888.002c.904.08 1.597.837 1.597 1.744s-.693 1.664-1.641 1.746h-.625v9.645l10.82 11.222c1.3 1.243 1.72 3.148 1.064 4.823-.657 1.678-2.264 2.793-4.074 2.82H4.385C2.583 32.96.975 31.844.32 30.166c-.657-1.679-.234-3.588 1.057-4.816l3.008-3.121.021-.051c.055-.105.145-.185.25-.229l7.548-7.828V4.476l-.669-.001c-.904-.08-1.597-.837-1.597-1.744s.693-1.664 1.641-1.746zm1.931 20.887c-2.56 1.504-5.614 1.903-8.466 1.117L2.08 26.06c-1.012.963-1.34 2.442-.831 3.742.509 1.3 1.754 2.164 3.143 2.184H27.6c1.396-.02 2.641-.883 3.15-2.184.509-1.3.18-2.779-.83-3.742l-.016-.015-3.8-3.94c-3.366 1.794-7.435 1.714-10.74-.235-.57-.342-1.281-.342-1.855.002zm5.264 3.685c1.326 0 2.4 1.075 2.4 2.4 0 1.326-1.074 2.401-2.4 2.401-1.325 0-2.4-1.075-2.4-2.4 0-1.326 1.075-2.401 2.4-2.401zm0 1c-.773 0-1.4.627-1.4 1.4 0 .774.627 1.401 1.4 1.401.774 0 1.4-.627 1.4-1.4 0-.774-.626-1.401-1.4-1.401zm-4.189-3.802c1 0 1.81.81 1.81 1.809 0 .999-.81 1.809-1.81 1.809-.999 0-1.809-.81-1.809-1.81 0-.998.81-1.808 1.81-1.808zm0 1c-.447 0-.809.362-.809.809 0 .446.362.809.81.809.446 0 .808-.363.808-.81 0-.446-.362-.808-.809-.808zM11.622 1.983c-.387.034-.685.359-.685.748s.298.714.641.746h1.125c.276 0 .5.224.5.5v10.347c0 .13-.05.253-.14.347l-7.218 7.486c2.434.528 4.99.126 7.153-1.144.887-.533 1.995-.533 2.878-.002 2.918 1.72 6.495 1.837 9.504.342l-6.443-6.682c-.09-.094-.14-.218-.14-.347V3.977c0-.276.224-.5.5-.5l1.08.002c.388-.034.686-.359.686-.748 0-.39-.298-.714-.641-.746l-8.8-.002z"/>
</svg>
