<svg xmlns="http://www.w3.org/2000/svg" width="32" height="32" viewBox="0 0 32 32">
    <path fill="#0050D7" fill-rule="evenodd" d="M23.5 0C28.194 0 32 3.805 32 8.5c0 4.526-3.538 8.226-8 8.485V30.5c0 .828-.672 1.5-1.5 1.5h-21C.671 32 0 31.328 0 30.5v-21C0 8.671.671 8 1.5 8h13.514c.258-4.462 3.96-8 8.486-8zM5.99 9H1.5c-.276 0-.5.223-.5.5v21c0 .276.224.5.5.5h21c.275 0 .5-.224.5-.5V16.985c-2.43-.14-4.586-1.302-6.045-3.062-.148.05-.306.076-.465.077h-9c-.829 0-1.5-.672-1.5-1.5V9zm13.51 8c.276 0 .5.224.5.5v10c0 .276-.224.5-.5.5h-15c-.276 0-.5-.224-.5-.5v-10c0-.276.224-.5.5-.5zm-.5 1H5v9h14v-9zm-2.51 6c.276 0 .5.224.5.5s-.224.5-.5.5h-9c-.276 0-.5-.224-.5-.5s.224-.5.5-.5zm0-4c.276 0 .5.224.5.5s-.224.5-.5.5h-9c-.276 0-.5-.224-.5-.5s.224-.5.5-.5zM24 1.016V2.5c0 .276-.225.5-.5.5-.276 0-.5-.224-.5-.5V1.016c-3.744.246-6.738 3.24-6.984 6.984H17.5c.275 0 .5.223.5.5 0 .276-.225.5-.5.5h-1.484c.097 1.472.62 2.828 1.443 3.946.014.011.025.023.036.037l.041.066c1.277 1.67 3.237 2.788 5.464 2.934V14.5c0-.277.224-.5.5-.5.275 0 .5.223.5.5v1.483c3.743-.247 6.736-3.24 6.983-6.983H29.5c-.276 0-.5-.224-.5-.5 0-.277.224-.5.5-.5h1.483C30.737 4.256 27.744 1.263 24 1.016zM15.014 9H6.99l.001 3.5c0 .276.223.5.5.5l8.798.001c-.733-1.173-1.189-2.538-1.274-4zM27.32 5.66v4h.87v.62h-.87V12h-.779v-1.72h-2.87v-.54l2.73-4.08h.92zm-6.5-.13c.514-.042 1.02.142 1.386.503.367.36.56.863.525 1.377 0 1.2-1.09 2.39-2.6 4 .35 0 .74-.06 1.07-.06H23V12h-4.07v-.45c1.92-1.91 3-3.06 3-4.09.037-.335-.077-.668-.312-.909-.233-.242-.563-.367-.898-.34-.547.051-1.044.34-1.36.79l-.47-.47c.458-.61 1.168-.978 1.93-1zm5.721 1.01c-.16.31-.34.59-.52.9l-1.48 2.18h2z"/>
</svg>
