<svg xmlns="http://www.w3.org/2000/svg" width="32" height="32" viewBox="0 0 32 32">
    <path fill="#0050D7" fill-rule="evenodd" d="M25.417 1c.406-.002.796.16 1.082.452l4.081 4.201c.272.282.422.659.42 1.047v20.8c0 1.933-1.567 3.5-3.5 3.5h-23C2.567 31 1 29.433 1 27.5v-23C1 2.567 2.567 1 4.5 1h20.917zm.003 1H24v4.5c0 .828-.672 1.5-1.5 1.5h-13C8.672 8 8 7.328 8 6.5V2H4.5C3.12 2 2 3.12 2 4.5v23C2 28.88 3.12 30 4.5 30h23c1.38 0 2.5-1.12 2.5-2.5V6.697c0-.13-.05-.256-.139-.349L25.783 2.15c-.095-.097-.225-.15-.363-.15zm.08 10c.276 0 .5.224.5.5v13c0 .276-.224.5-.5.5h-19c-.276 0-.5-.224-.5-.5v-13c0-.276.224-.5.5-.5h19zm-.5 1H7v12h18V13zm-3.55 8c.276 0 .5.224.5.5s-.224.5-.5.5h-11c-.276 0-.5-.224-.5-.5s.224-.5.5-.5h11zm0-5c.276 0 .5.224.5.5s-.224.5-.5.5h-11c-.276 0-.5-.224-.5-.5s.224-.5.5-.5h11zM23 2H9v4.5c0 .276.224.5.5.5h13c.276 0 .5-.224.5-.5V2z"/>
</svg>
