<svg xmlns="http://www.w3.org/2000/svg" width="32" height="32" viewBox="0 0 32 32">
    <path fill="#0050D7" fill-rule="evenodd" d="M17.892 2.168c.101.12.136.272.11.415L18 5.5c0 .276-.224.5-.5.5s-.5-.224-.5-.5V3.683c-1.93 2.177-2.546 5.267-1.525 8.057.185.506.418.986.693 1.434.031.035.057.074.076.117 1.448 2.275 3.98 3.703 6.756 3.699h.5c.273 0 .496.22.5.492V30.49c0 .828-.672 1.5-1.5 1.5h-21c-.828 0-1.5-.672-1.5-1.5V9.5C0 8.672.672 8 1.5 8c7.268-.022 11.45-.024 12.545-.008.203-1.832.968-3.584 2.225-4.992H14.5c-.276 0-.5-.224-.5-.5s.224-.5.5-.5h2.914c.172-.034.357.024.478.168zM6.01 8.999L1.5 9c-.276 0-.5.224-.5.5v20.99c0 .276.224.5.5.5h21c.276 0 .5-.224.5-.5v-12.5c-1.042.002-2.055-.177-3.002-.51l.002.02v10c0 .276-.224.5-.5.5h-15c-.276 0-.5-.224-.5-.5v-10c0-.276.224-.5.5-.5l14.386.001c-1.352-.692-2.518-1.721-3.376-3l-8-.001c-.828 0-1.5-.672-1.5-1.5L6.009 9zM19 18H5v9h14v-9zm-2.51 6c.276 0 .5.224.5.5s-.224.5-.5.5h-9c-.276 0-.5-.224-.5-.5s.224-.5.5-.5h9zm0-4c.276 0 .5.224.5.5s-.224.5-.5.5h-9c-.276 0-.5-.224-.5-.5s.224-.5.5-.5h9zm11.618-4.178c-.102-.12-.137-.275-.109-.419L28 12.5c0-.276.224-.5.5-.5s.5.224.5.5l.001 1.805c1.93-2.177 2.545-5.266 1.524-8.055C29.37 3.093 26.363.995 23.001 1c-.276 0-.5-.223-.501-.5 0-.275.223-.5.5-.5 3.782-.006 7.164 2.354 8.464 5.907 1.154 3.151.45 6.644-1.743 9.094L31.5 15c.276 0 .5.224.5.5s-.224.5-.5.5h-3.01c-.142 0-.283-.06-.382-.178zM7.009 9L7.01 12.5c0 .276.224.5.5.5l7.42.001c-.147-.296-.279-.602-.394-.918-.37-1.007-.548-2.05-.55-3.082L7.01 8.999z"/>
</svg>
