<svg xmlns="http://www.w3.org/2000/svg" width="32" height="32" viewBox="0 0 32 32">
    <path fill="#0050D7" fill-rule="evenodd" d="M27.5 1h.012c.02 0 .041.002.062.005L27.5 1c.036 0 .071.004.105.011l.046.012.04.015c.014.005.027.012.04.019.013.006.025.013.036.02l.035.025c.014.01.027.02.04.033l.012.011 3 3c.195.196.195.512 0 .708-.196.195-.512.195-.708 0L28 2.707V16c0 4.92-2.961 9.15-7.199 11.001L29.292 27l-2.146-2.146c-.195-.196-.195-.512 0-.708.196-.195.512-.195.708 0l3 3 .011.013.029.033-.04-.046c.026.027.05.056.069.087l.02.035.02.041.014.04c.005.015.009.03.012.046l.006.033c.002.016.004.032.004.048L31 27.5v.02l-.005.052L31 27.5c0 .036-.004.071-.011.105l-.012.046-.015.04c-.005.014-.012.027-.019.04l-.018.033c-.008.013-.017.026-.027.038-.01.014-.02.027-.033.04l-.011.012-3 3c-.196.195-.512.195-.708 0-.195-.196-.195-.512 0-.708L29.292 28H16c-4.92 0-9.147-2.96-11-7.196v8.488l2.146-2.146c.196-.195.512-.195.708 0 .195.196.195.512 0 .708l-3 3-.013.011c-.012.012-.025.023-.039.033l.052-.044c-.027.026-.056.05-.087.069l-.035.02-.041.02-.04.014c-.015.005-.03.009-.046.012l-.033.006-.051.005H4.48l-.052-.005L4.5 31c-.036 0-.071-.004-.105-.011l-.046-.012-.04-.015c-.014-.005-.027-.012-.04-.019-.013-.006-.025-.013-.036-.02l-.035-.025c-.014-.01-.027-.02-.04-.033l-.012-.011-3-3c-.195-.196-.195-.512 0-.708.196-.195.512-.195.708 0L4 29.292V16c0-4.92 2.96-9.147 7.196-11H2.707l2.147 2.146c.195.196.195.512 0 .708-.196.195-.512.195-.708 0l-3-3-.011-.013c-.012-.012-.023-.025-.033-.039l.044.052c-.026-.027-.05-.056-.069-.087l-.02-.035-.02-.041-.014-.04c-.005-.015-.009-.03-.012-.046l-.006-.03c-.003-.022-.004-.043-.005-.063V4.49c0-.022.002-.043.005-.064L1 4.5c0-.036.004-.071.011-.105l.012-.046.015-.04c.005-.014.012-.027.019-.04.006-.013.013-.025.02-.036l.025-.035c.01-.014.02-.027.033-.04l.011-.012 3-3c.196-.195.512-.195.708 0 .195.196.195.512 0 .708L2.707 4H16c4.92 0 9.15 2.961 11.001 7.199L27 2.707l-2.146 2.147c-.196.195-.512.195-.708 0-.195-.196-.195-.512 0-.708l3-3 .013-.011c.012-.012.025-.023.039-.033l-.052.044c.027-.026.056-.05.087-.069l.035-.02.041-.02.04-.014c.015-.005.03-.009.046-.012l.03-.006c.022-.003.043-.004.064-.005h.011zM16 5C9.925 5 5 9.925 5 16s4.925 11 11 11 11-4.925 11-11S22.075 5 16 5zm1.592 2.189c.237.044.408.25.408.491v1.616c.46.136.903.32 1.324.547l1.169-1.193c.17-.174.442-.2.642-.06.888.616 1.659 1.387 2.276 2.275.137.198.114.466-.056.637l-1.16 1.169c.228.423.412.868.55 1.329h1.615c.24 0 .446.17.491.406.201 1.053.201 2.135 0 3.188-.045.236-.253.407-.493.406l-1.624-.008c-.137.46-.321.905-.55 1.327l1.17 1.179c.17.17.194.44.057.637-.617.888-1.388 1.659-2.276 2.276-.199.138-.469.113-.64-.059l-1.168-1.176c-.422.228-.867.412-1.327.548v1.616c0 .24-.17.446-.406.491-1.053.201-2.135.201-3.188 0-.235-.045-.406-.251-.406-.491v-1.616c-.46-.136-.905-.32-1.327-.548l-1.168 1.176c-.171.172-.441.197-.64.059-.888-.617-1.659-1.388-2.276-2.276-.138-.2-.113-.47.06-.641l1.175-1.159c-.228-.421-.412-.865-.548-1.325H7.66c-.24 0-.447-.171-.491-.408-.198-1.052-.198-2.132 0-3.184.044-.237.25-.408.491-.408h1.616c.137-.46.32-.905.55-1.328l-1.18-1.178c-.17-.172-.195-.44-.057-.64.617-.887 1.388-1.658 2.276-2.275.2-.139.472-.113.642.061l1.169 1.193c.421-.227.865-.41 1.324-.547V7.68c0-.24.171-.447.408-.491 1.052-.198 2.132-.198 3.184 0zM15 8.106V9.68c0 .232-.16.434-.385.487-.623.146-1.218.392-1.762.728-.2.123-.457.092-.62-.075l-1.137-1.16c-.539.417-1.022.9-1.44 1.44l1.148 1.146c.163.164.193.42.072.617-.336.544-.583 1.139-.73 1.762-.053.225-.254.385-.486.385H8.086c-.088.664-.088 1.336 0 2H9.66c.232 0 .434.16.487.385.146.623.392 1.218.728 1.762.123.199.092.455-.074.619L9.66 20.903c.417.538.9 1.022 1.44 1.44l1.136-1.145c.164-.165.42-.196.618-.073.544.336 1.139.582 1.761.728.226.053.386.255.386.487v1.575c.664.09 1.336.09 2 0V22.34c0-.232.16-.434.386-.487.622-.146 1.217-.392 1.761-.728.198-.123.454-.092.618.073l1.137 1.144c.54-.418 1.024-.903 1.442-1.443l-1.139-1.147c-.163-.164-.192-.418-.07-.615.336-.544.582-1.139.728-1.762.054-.226.257-.386.49-.385l1.582.008c.09-.663.09-1.335 0-1.998H22.36c-.232 0-.433-.16-.487-.385-.146-.623-.393-1.218-.729-1.762-.12-.197-.092-.451.071-.615l1.13-1.137c-.418-.54-.902-1.024-1.441-1.441l-1.137 1.16c-.163.167-.42.198-.62.075-.544-.336-1.139-.582-1.762-.728-.225-.053-.385-.255-.385-.487V8.106c-.664-.088-1.336-.088-2 0zM16 13c1.657 0 3 1.343 3 3s-1.343 3-3 3-3-1.343-3-3 1.343-3 3-3zm0 1c-1.105 0-2 .895-2 2s.895 2 2 2 2-.895 2-2-.895-2-2-2z"/>
</svg>
