<svg xmlns="http://www.w3.org/2000/svg" width="32" height="32" viewBox="0 0 32 32">
    <path fill="#0050D7" fill-rule="evenodd" d="M16 0c6.075 0 11 4.925 11 11 0 6.237-7.42 21-11 21S5 17.237 5 11C5 4.925 9.925 0 16 0zm0 1C10.477 1 6 5.477 6 11c0 5.756 7.158 20 10 20 2.842 0 10-14.244 10-20 0-5.523-4.477-10-10-10zm3.24 5.83l-4.8 8.34h-3.86c-1.828-2.237-2.094-5.367-.67-7.88l2.51 4.35 2.76-4.81h4.06zm2.848.463l.125.232c1.272 2.47.966 5.47-.803 7.635h-3.86l1.19-2.06h-1.57L19 9.89h1.59l1.498-2.597z"/>
</svg>
