<svg xmlns="http://www.w3.org/2000/svg" width="32" height="32" viewBox="0 0 32 32">
    <path fill="#0050D7" fill-rule="evenodd" d="M16 0c5.523 0 10 4.477 10 10 0 3.546-2.708 9.87-5.532 14H28.5c.2 0 .38.12.46.303l3 7c.141.33-.101.697-.46.697H.5c-.359 0-.601-.367-.46-.697l3-7c.08-.184.26-.303.46-.303h8.032C8.708 19.87 6 13.546 6 10 6 4.477 10.477 0 16 0zM3.83 25l-2.572 6h29.484l-2.572-6-8.422.001C18.375 26.81 17.026 28 16 28c-1.026 0-2.375-1.19-3.748-2.999L3.83 25zM16 1c-4.97 0-9 4.03-9 9 0 5.093 6.404 17 9 17s9-11.907 9-17c0-4.97-4.03-9-9-9zm0 4c2.761 0 5 2.239 5 5s-2.239 5-5 5-5-2.239-5-5 2.239-5 5-5zm0 1c-2.21 0-4 1.79-4 4s1.79 4 4 4 4-1.79 4-4-1.79-4-4-4z"/>
</svg>
