<svg xmlns="http://www.w3.org/2000/svg" width="32" height="32" viewBox="0 0 32 32">
    <path fill="#0050D7" fill-rule="evenodd" d="M16.533 4.3c2.044 0 3.7 1.657 3.7 3.7v.566H30.4c.865 0 1.567.702 1.567 1.567v3.2c0 .866-.702 1.567-1.567 1.567h-.567v15.5c0 .865-.701 1.567-1.566 1.567H3.733c-.865 0-1.566-.702-1.566-1.567V14.9H1.6c-.865 0-1.567-.701-1.567-1.567v-3.2c0-.865.702-1.566 1.567-1.566h10.166V8c0-2.043 1.657-3.7 3.7-3.7h1.067zm-4.767 10.6h-8.6v15.5c0 .313.254.567.567.567h24.534c.313 0 .566-.254.566-.567V14.9h-8.6v10.167c0 .427-.5.657-.825.38L16 22.524l-3.408 2.921c-.324.278-.825.048-.825-.38V14.9zm7.467-5.333h-6.466V23.98l2.908-2.493c.187-.16.463-.16.65 0l2.908 2.493V9.567zm11.167 0H20.233v4.332L30.4 13.9c.313 0 .567-.254.567-.567v-3.2c0-.313-.254-.566-.567-.566zm-18.634 0H1.6c-.313 0-.567.253-.567.566v3.2c0 .313.254.567.567.567h10.166V9.565zM16.533 5.3h-1.066c-1.492 0-2.7 1.209-2.7 2.7v.566h6.466V8c0-1.491-1.208-2.7-2.7-2.7zM29.595.674c1.867 1.081 2.776 3.282 2.215 5.366-.561 2.084-2.453 3.53-4.61 3.527-.277 0-.5-.225-.5-.501s.225-.5.5-.5c1.706.004 3.2-1.14 3.644-2.786.444-1.647-.274-3.386-1.75-4.24-1.476-.854-3.342-.61-4.546.592L19.78 6.975c-.193.197-.51.199-.707.005-.197-.193-.199-.51-.005-.707l4.77-4.845c1.528-1.526 3.889-1.835 5.757-.754zm-21.42.757l4.758 4.843c.193.197.19.513-.007.707-.197.193-.513.19-.707-.007L7.465 2.135C6.26.931 4.395.685 2.92 1.538 1.444 2.39.724 4.128 1.165 5.774 1.605 7.42 3.096 8.565 4.8 8.567c.277 0 .5.224.5.5s-.674 0-.95 0C2.193 9.065.756 8.115.2 6.032-.36 3.95.552 1.751 2.419.672c1.868-1.078 4.227-.769 5.756.759z"/>
</svg>
