<svg xmlns="http://www.w3.org/2000/svg" width="32" height="32" viewBox="0 0 32 32">
    <path fill="#0050D7" fill-rule="evenodd" d="M3.5 1c.165 0 .311.08.402.203l2.951 2.943c.196.195.196.511.001.707-.195.196-.511.196-.707.001L4 2.713V27h26.287l-2.141-2.147c-.195-.196-.195-.512.001-.707.196-.195.512-.195.707.001l2.943 2.95c.123.092.203.238.203.403 0 .165-.08.311-.203.402l-2.943 2.951c-.195.196-.511.196-.707.001-.196-.195-.196-.511-.001-.707L30.285 28H3.5c-.276 0-.5-.224-.5-.5V2.713L.853 4.854c-.196.195-.512.195-.707-.001-.195-.196-.195-.512.001-.707l2.95-2.943C3.19 1.08 3.336 1 3.5 1zm6 15c1.38 0 2.5 1.12 2.5 2.5v3c0 1.38-1.12 2.5-2.5 2.5S7 22.88 7 21.5v-3C7 17.12 8.12 16 9.5 16zm7-6c1.38 0 2.5 1.12 2.5 2.5v9c0 1.38-1.12 2.5-2.5 2.5S14 22.88 14 21.5v-9c0-1.38 1.12-2.5 2.5-2.5zm7-6C24.88 4 26 5.12 26 6.5v15c0 1.38-1.12 2.5-2.5 2.5S21 22.88 21 21.5v-15C21 5.12 22.12 4 23.5 4zm-14 13c-.828 0-1.5.672-1.5 1.5v3c0 .828.672 1.5 1.5 1.5s1.5-.672 1.5-1.5v-3c0-.828-.672-1.5-1.5-1.5zm7-6c-.828 0-1.5.672-1.5 1.5v9c0 .828.672 1.5 1.5 1.5s1.5-.672 1.5-1.5v-9c0-.828-.672-1.5-1.5-1.5zm7-6c-.828 0-1.5.672-1.5 1.5v15c0 .828.672 1.5 1.5 1.5s1.5-.672 1.5-1.5v-15c0-.828-.672-1.5-1.5-1.5z"/>
</svg>
