<svg xmlns="http://www.w3.org/2000/svg" width="32" height="33" viewBox="0 0 32 33">
    <path fill="#0050D7" fill-rule="evenodd" d="M27.449 4.785c2.58 2.524 4.05 5.973 4.081 9.592-.03 3.54-1.445 6.927-3.935 9.437l1.09-.523c.334-.182.708-.277 1.084-.275.197 0 .393.025.58.074.574.146 1.065.516 1.363 1.024.303.507.38 1.118.217 1.678-.157.57-.536 1.054-1.035 1.332l-7.562 4.624c-.317.196-.87.44-1.633.655-1.167.331-2.581.525-4.254.525-1.49 0-3.336-.484-5.39-1.301-.74-.295-1.466-.617-2.158-.95-.46-.221-.83-.41-1.078-.546-.889-.343-1.832-.518-2.782-.518v2.834c0 .276-.224.5-.5.5H.475c-.276 0-.5-.224-.5-.5s.224-.5.5-.5h4.562V18.518H.475c-.276 0-.5-.224-.5-.5s.224-.5.5-.5h3.99c-.24-.976-.367-1.978-.378-2.987V14.48v-.112c.032-3.602 1.493-7.042 4.064-9.565C10.72 2.28 14.188.883 17.778.917c3.61-.048 7.09 1.344 9.67 3.868zM6.036 21.355v7.258c1.074 0 2.145.2 3.198.61.293.156.65.338 1.097.553.672.324 1.377.636 2.094.922 1.946.774 3.685 1.23 5.02 1.23 2.731 0 4.51-.504 5.363-1.032l7.581-4.636c.283-.157.49-.422.578-.74.088-.301.046-.625-.116-.897-.164-.28-.434-.484-.752-.565-.107-.028-.218-.042-.332-.042-.21 0-.417.051-.625.165l-6.463 3.09c-.055.027-.109.053-.163.077-1.015.457-1.708.518-4.525.518-.443-.014-.885-.035-1.327-.063-.07 0-.142-.001-.214-.006l-.082-.014c-1.347-.094-2.677-.251-3.956-.47h-.107c-.276 0-.5-.224-.5-.5s.224-.5.5-.5l.19.007c1.39.232 2.79.393 4.189.483.511-.02.984-.294 1.254-.738.298-.49.298-1.106 0-1.597-.299-.49-.846-.774-1.468-.733l-3.434-.106-.126-.025c-.129.019-.259-.014-.362-.088-1.13-.3-2.169-.876-3.022-1.68l-3.49-.482zm-3.057 5.67c.5.218.82.716.808 1.261-.005.353-.149.69-.401.936-.253.247-.594.384-.942.38-.547 0-1.039-.331-1.245-.837-.206-.506-.085-1.086.306-1.468.39-.382.973-.489 1.474-.271zm-.775.987c-.1.098-.131.246-.078.376.052.13.178.214.323.214.09 0 .174-.033.238-.095.063-.062.1-.147.1-.235.004-.146-.078-.273-.206-.329-.128-.056-.277-.028-.377.07zm20.454-6.011L18.284 22l.001 1.349c.196.17.368.37.507.6.493.81.493 1.826 0 2.636l-.067.103c1.568-.5 2.972-2.225 3.933-4.687zm5.205 0h-4.135c-.688 1.89-1.63 3.433-2.741 4.458 2.154-.535 4.148-1.636 5.762-3.215.401-.391.773-.807 1.114-1.243zM17.284 22h-4.358c.082.215.167.428.256.64l3.268.096c.286-.02.567.01.835.082V22zm-6.692-7h-5.49c.043.851.176 1.695.396 2.519h.039c.276 0 .5.223.5.5v2.326l3.786.523c.107.015.207.064.283.14l.019.016c.048-.016.1-.024.154-.024l1.248.001c-.594-1.944-.91-3.966-.935-6zm6.692 0h-5.692c.027 2.041.36 4.063.983 6h4.71v-6zm6.683.001L18.284 15v6h4.726c.556-1.751.902-3.798.957-5.999zm6.542 0h-5.541c-.052 2.169-.374 4.21-.91 6h4.511c1.14-1.794 1.814-3.859 1.94-6zM11.44 8h-4.55c-1.087 1.805-1.711 3.867-1.794 6h5.501v-.045c.036-2.147.335-4.17.843-5.955zm5.845 0h-4.8c-.532 1.76-.853 3.805-.888 6h5.688V8zm5.8 0h-4.8v6h5.688c-.033-2.192-.356-4.238-.888-6zm5.641-.005L28.674 8h-4.546c.512 1.798.813 3.839.844 6h5.55c-.083-2.136-.709-4.2-1.797-6.005zM14.587 2.296c-2.145.541-4.13 1.644-5.736 3.22-.471.463-.903.96-1.291 1.484h4.194c.695-2.003 1.67-3.637 2.833-4.704zm2.697-.328C15.487 2.27 13.866 4.175 12.818 7h4.466V1.968zm1 0V7h4.464C21.7 4.179 20.08 2.27 18.285 1.969zm2.673.311l.073.067c1.14 1.067 2.096 2.681 2.782 4.653h4.246c-.394-.53-.83-1.032-1.309-1.5-1.62-1.584-3.624-2.688-5.792-3.22z"/>
</svg>
