<svg xmlns="http://www.w3.org/2000/svg" width="32" height="33" viewBox="0 0 32 33">
    <path fill="#0050D7" fill-rule="evenodd" d="M16.894.639c.028.002.057.007.085.014.043.011.085.028.125.051.036.02.07.047.101.078.392.389.995 1.041 1.71 1.904C20.083 4.1 21.15 5.607 22.01 7.16c1.26 2.272 1.97 4.448 1.975 6.461.003 1.893-.747 3.71-2.086 5.048-1.166 1.166-2.696 1.886-4.323 2.05v1.875c0 .108-.035.208-.093.29.535.19 1.001.561 1.308 1.065.493.81.493 1.827 0 2.637-.06.099-.126.192-.197.28 2.156-.01 2.742-.083 3.511-.429.044-.02.088-.04.136-.064l6.444-3.08c.333-.183.707-.278 1.083-.276.197 0 .393.025.58.074.574.146 1.065.516 1.363 1.024.303.507.38 1.118.217 1.678-.157.57-.536 1.054-1.035 1.332l-7.562 4.624c-.317.196-.87.44-1.633.655-1.167.331-2.581.525-4.254.525-1.49 0-3.336-.484-5.39-1.301-.74-.295-1.466-.617-2.158-.95-.46-.221-.83-.41-1.078-.546-.889-.343-1.832-.518-2.782-.518v2.834c0 .276-.224.5-.5.5H.475c-.276 0-.5-.224-.5-.5s.224-.5.5-.5h4.562V18.518H.475c-.276 0-.5-.224-.5-.5s.224-.5.5-.5h5.062c.276 0 .5.224.5.5v2.327l3.786.523c.107.015.207.064.283.14.854.843 1.94 1.413 3.038 1.63l3.306.098.147-.004c-.013-.044-.02-.09-.02-.14v-1.845h-.023c-1.782-.071-3.479-.811-4.747-2.08-1.338-1.338-2.089-3.154-2.086-5.047.004-2.013.716-4.19 1.975-6.46.86-1.553 1.928-3.062 3.097-4.474.649-.784 1.207-1.395 1.594-1.79l.115-.114.023-.02.042-.035c.05-.035.104-.06.161-.074.028-.007.057-.012.086-.014h.08zM6.036 21.354v7.26c1.074 0 2.145.2 3.198.61.293.155.65.337 1.097.552.672.324 1.377.636 2.094.922 1.946.774 3.685 1.23 5.02 1.23 2.731 0 4.51-.504 5.363-1.032l7.581-4.636c.283-.157.49-.422.578-.74.088-.301.046-.625-.116-.897-.164-.28-.434-.484-.752-.565-.107-.028-.218-.042-.332-.042-.21 0-.417.051-.625.165l-6.463 3.09c-.055.027-.109.053-.163.077-1.015.457-1.708.518-4.525.518-.443-.014-.885-.035-1.327-.063-.07 0-.142-.001-.214-.006l-.082-.014c-1.347-.094-2.677-.251-3.956-.47h-.107c-.276 0-.5-.224-.5-.5s.224-.5.5-.5l.19.007c1.39.232 2.79.393 4.189.483.511-.02.984-.294 1.254-.738.298-.49.298-1.106 0-1.597-.299-.49-.846-.774-1.468-.733l-3.434-.106c-1.318-.252-2.535-.875-3.51-1.792l-3.49-.483zM2.98 27.026c.5.217.82.715.808 1.26-.005.353-.149.69-.401.936-.253.247-.594.384-.942.38-.547 0-1.039-.331-1.245-.837-.206-.506-.085-1.086.306-1.468.39-.382.973-.489 1.474-.271zm-.775.986c-.1.098-.131.246-.078.376.052.13.178.214.323.214.09 0 .174-.033.238-.095.063-.062.1-.147.1-.235.004-.146-.078-.273-.206-.329-.128-.056-.277-.028-.377.07zm14.65-26.157c-.347.367-.79.864-1.291 1.47-1.132 1.367-2.165 2.827-2.992 4.319-1.185 2.136-1.846 4.16-1.85 5.978-.002 1.627.643 3.188 1.793 4.339 1.085 1.085 2.536 1.72 4.063 1.787v-2.722l-3.113-3.112c-.195-.195-.195-.512 0-.707.196-.195.512-.195.708 0l2.404 2.405v-3.306c-.026-.018-.052-.04-.076-.063l-2.828-2.829c-.196-.195-.196-.512 0-.707.195-.195.511-.195.707 0l2.197 2.197v-4.65c0-.276.225-.5.5-.5.277 0 .5.224.5.5v4.204l1.752-1.75c.196-.196.512-.196.708 0 .195.194.195.511 0 .706l-2.46 2.458v4.294l2.96-2.959c.195-.195.511-.195.707 0 .195.195.195.512 0 .707l-3.536 3.536c-.039.039-.083.07-.13.094v2.168c1.361-.16 2.637-.773 3.616-1.751 1.15-1.15 1.796-2.712 1.793-4.339-.004-1.818-.665-3.842-1.85-5.978-.827-1.492-1.86-2.952-2.992-4.32-.501-.605-.945-1.103-1.29-1.469z"/>
</svg>
