<svg xmlns="http://www.w3.org/2000/svg" width="32" height="32" viewBox="0 0 32 32">
    <path fill="#0050D7" fill-rule="evenodd" d="M17.47 2.07c.2.016.405.038.658.07l.677.089c.306.04.55.068.793.092.36.028.707.13 1.022.301.137-.013.28.03.389.13l3.129 2.88c1.06.97 2.79 2.59 4.904 4.583.613.575.829 1.458.55 2.25l-1.001 2.867 1.924 1.367c.752.4 1.276 1.127 1.424 2.017.05.75-.186 1.49-.656 2.063-.75.955-2.07 1.251-3.192.689l-.036-.023.009.057c.038.244.038.492-.01.786-.274 1.032-1.088 1.832-2.217 2.101-.423.023-.846-.012-1.258-.104-.037.283-.09.57-.163.867-.293.92-1.014 1.641-1.975 1.945-.6.137-1.22.108-1.797-.076-.029.169-.072.349-.127.54-.238 1.04-1.043 1.855-2.08 2.105-.673.163-1.385.025-1.911-.355l-.895-.529-.23.337c-.415.556-1.042.915-1.732.991-.674.074-1.348-.128-1.869-.56-.57-.34-.98-.894-1.142-1.54-.03-.122-.052-.247-.063-.371-.22.09-.456.15-.698.175-.662.067-1.323-.133-1.837-.555-.578-.35-.99-.92-1.141-1.582-.04-.173-.06-.348-.063-.522-.14.04-.286.065-.434.078-.661.058-1.317-.15-1.824-.575-.567-.342-.976-.897-1.135-1.541-.057-.233-.08-.47-.07-.706-.112.03-.229.05-.347.063-.66.069-1.32-.127-1.834-.543-.57-.343-.98-.898-1.139-1.544-.162-.66-.049-1.36.325-1.95l1.49-2.165-.168-.227-.44-.603-.018-.024c-.39-.531-.64-.87-.83-1.116-.38-.501-.376-.882-.013-1.427l4.168-6.007 2.414-3.526c.245-.347.346-.464.544-.556.179-.082.346-.081.534-.031.06.016.281.09.334.106 1.027.307 2.067.581 3.118.823.656-.343 1.325-.67 2.01-.985 1.608-.574 2.694-.73 3.928-.63zm-2.497 20.91c-.407.044-.778.252-1.013.556l-2.147 3.07c-.217.346-.284.766-.185 1.162.1.396.356.735.71.938l.079.055c.315.272.73.4 1.143.355.414-.045.79-.26 1.028-.58l2.109-3.062c.217-.346.284-.766.185-1.162-.1-.396-.356-.735-.784-.99-.313-.262-.72-.386-1.125-.342zm2.919 2.107l-.038.182c-.065.262-.173.517-.322.754l-1.333 1.934.873.517c.326.235.74.315 1.13.22.668-.161 1.187-.686 1.347-1.38.174-.616.171-.95-.008-1.1-.146-.12-.455-.338-.871-.617l-.09-.06c-.22-.146-.453-.298-.688-.45zm-6.314-4.848c-.397.031-.765.219-.995.483-.011.024-.025.046-.04.069L8.15 24.314c-.046.057-.094.112-.145.164-.147.302-.186.646-.11.977.092.405.348.754.708.963l.072.051c.31.265.716.39 1.123.35.406-.041.778-.246 1.012-.544l2.456-3.538c.213-.344.278-.76.18-1.152-.097-.393-.348-.73-.771-.986-.303-.261-.698-.39-1.096-.36zM7.934 3.755l-.064.091-.047.066L5.41 7.435l-4.165 6.002c-.13.196-.13.113-.02.257.195.253.448.595.842 1.133l.018.024.402.55.306-.449c.422-.513 1.03-.837 1.692-.9.662-.063 1.321.14 1.764.515.59.34 1.014.906 1.177 1.566.057.233.08.471.07.707.753-.21 1.583-.069 2.205.438.587.343 1.009.91 1.17 1.57.04.166.063.335.068.505.18-.059.368-.096.56-.11.665-.052 1.322.163 1.752.545.582.34 1.002.902 1.164 1.556.059.235.082.475.071.714.121-.034.249-.058.378-.072.677-.073 1.355.133 1.803.52.54.308.942.805 1.134 1.39.067.009.134.033.195.071l.356.227c.265.172.531.345.78.51l.093.062c.445.298.772.528.953.68.166.137.286.286.368.45l-.06-.03c.525.3 1.143.39 1.691.268.612-.195 1.09-.674 1.276-1.25.084-.354.143-.713.177-1.075l.567.357c-1.935-1.19-3.797-2.494-5.578-3.904-.217-.171-.253-.486-.082-.702.171-.217.486-.253.702-.082 1.732 1.37 3.542 2.639 5.421 3.799.365.096.74.135 1.03.128.68-.168 1.216-.695 1.385-1.323.022-.14.022-.284-.001-.434-.068-.494-.316-.945-.672-1.246-.133-.098-.38-.272-.768-.54l-1.17-.805-.03-.02c-1.095-.755-1.69-1.174-1.96-1.388-.088-.072-.188-.14-.346-.237l-.136-.082-.141-.088c-.233-.148-.302-.457-.154-.69.148-.233.457-.302.69-.154.061.039.061.039.127.078l.137.084c.192.118.323.206.45.309.238.19.835.61 1.9 1.344l.03.02.03.021 1.142.786c.396.274.648.451.818.578l.148.132c.042.015.082.036.12.063.134.095.23.159.33.22l.044.026c-.044-.026.578.331.91.534.662.33 1.465.15 1.93-.44.314-.384.47-.874.443-1.32-.09-.534-.424-.997-.956-1.285l-2.191-1.55c-4.847-3.458-8.211-5.84-9.207-6.501-.026-.018-.05-.038-.073-.06-.806-.723-1.668-1.394-2.573-2.002-.532.236-1.429.684-1.688.863-.8.484-1.632.912-2.452 1.262-.843.453-1.88.318-2.53-.294C8.583 8.764 8.17 7.958 8.17 7.1c0-.858.413-1.664 1.147-2.19.298-.176.598-.35.9-.519-.702-.173-1.398-.365-2.09-.572-.09-.027-.15-.045-.184-.06l-.008-.004zm-.942 14.529l-2.169 3.141-.07.103-.003.002-.127.187c-.218.345-.286.764-.189 1.16.098.397.353.736.706.94l.079.056c.307.268.71.4 1.116.364.323-.028.626-.16.853-.356.03-.056.064-.112.101-.166l2.444-3.52.05-.085c.158-.316.2-.68.117-1.027-.097-.396-.35-.736-.764-.984-.661-.534-1.63-.437-2.144.185zm-2.41-3.237c-.397.038-.763.233-.99.506l-.669.974-.01.014-1.68 2.446c-.218.345-.286.764-.189 1.16.098.397.353.736.706.94l.071.05c.312.261.716.385 1.12.342.401-.042.769-.244 1-.533l.129-.19 2.197-3.223c.218-.345.286-.764.189-1.16-.098-.397-.353-.736-.775-.988-.307-.254-.703-.376-1.1-.338zm9.337-11.423c-1.4.646-2.767 1.362-4.057 2.122-.435.313-.693.817-.693 1.354 0 .537.258 1.04.742 1.395.386.36.958.434 1.462.166.816-.351 1.608-.758 2.342-1.202.352-.244 1.593-.853 2.101-1.054l.02-.007c.015-.006.031-.01.047-.014l-.067.02c.035-.013.07-.022.106-.028l.04-.005.05-.001.034.002c.017.002.035.004.053.008l.027.006c.02.005.039.012.058.019l.025.01c.017.008.033.017.048.026l.017.01c1.024.672 1.995 1.419 2.907 2.235l.13.088c1.122.758 4.142 2.896 8.431 5.954l.906-2.594c.148-.419.034-.885-.291-1.19-2.112-1.99-3.84-3.61-4.896-4.576l-2.933-2.699c-.086-.005-.172-.033-.249-.085-.225-.153-.486-.245-.768-.266-.265-.027-.52-.057-.835-.098l-.673-.088c-.239-.03-.431-.051-.614-.066-1.09-.088-2.034.047-3.47.558z"/>
</svg>
