<svg xmlns="http://www.w3.org/2000/svg" width="32" height="32" viewBox="0 0 32 32">
    <path fill="#0050D7" fill-rule="evenodd" d="M24.5 0C26.433 0 28 1.567 28 3.5v25c0 1.933-1.567 3.5-3.5 3.5h-17C5.566 32 4 30.433 4 28.5v-25C4 1.567 5.566 0 7.5 0zm0 1h-17C6.12 1 5 2.12 5 3.5v3.33c.635-.14 1.282-.237 1.938-.288 7.141-.553 13.55 4.374 14.863 11.425.91 4.883-.824 9.804-4.42 13.034h7.12c1.38 0 2.5-1.12 2.5-2.5v-25C27 2.118 25.88 1 24.5 1zm-3.682 17.15c-1.22-6.549-7.172-11.125-13.802-10.61-.684.052-1.357.158-2.016.314V28.5C5 29.881 6.12 31 7.5 31h8.307c3.948-2.952 5.93-7.92 5.011-12.85zM8 27c.552 0 1 .447 1 1 0 .552-.448 1-1 1s-1-.448-1-1c0-.553.448-1 1-1zm16 0c.552 0 1 .447 1 1 0 .552-.448 1-1 1-.553 0-1-.448-1-1 0-.553.447-1 1-1zM8 3c.552 0 1 .448 1 1s-.448 1-1 1-1-.448-1-1 .448-1 1-1zm16 0c.552 0 1 .448 1 1s-.448 1-1 1c-.553 0-1-.448-1-1s.447-1 1-1z"/>
</svg>
