<svg xmlns="http://www.w3.org/2000/svg" width="32" height="32" viewBox="0 0 32 32">
    <path fill="#0050D7" fill-rule="evenodd" d="M4 5v3.268C4.294 8.098 4.636 8 5 8h25c1.105 0 2 .895 2 2v10c0 1.105-.895 2-2 2H5c-.364 0-.706-.097-1-.268V25H0v-1h3V5h1zm26 4H5c-.552 0-1 .448-1 1v10c0 .552.448 1 1 1h25c.552 0 1-.448 1-1V10c0-.552-.448-1-1-1zm-5 1.5c2.485 0 4.5 2.015 4.5 4.5s-2.015 4.5-4.5 4.5-4.5-2.015-4.5-4.5 2.015-4.5 4.5-4.5zm0 1c-1.933 0-3.5 1.567-3.5 3.5s1.567 3.5 3.5 3.5 3.5-1.567 3.5-3.5-1.567-3.5-3.5-3.5z"/>
</svg>
