<svg xmlns="http://www.w3.org/2000/svg" width="32" height="32" viewBox="0 0 32 32">
    <path fill="#0050D7" fill-rule="evenodd" d="M31.467 6.433c.276 0 .5.224.5.5v5.334c0 .276-.224.5-.5.5h-5.433l-.924 6.466h6.357c.276 0 .5.224.5.5v5.334c0 .276-.224.5-.5.5h-7.213l-.825 5.968c-.035.247-.246.432-.496.432H17.6c-.303 0-.537-.268-.495-.569l.806-5.831h-6.457l-.825 5.968c-.035.247-.246.432-.496.432H4.8c-.303 0-.537-.268-.495-.569l.806-5.831H.533c-.276 0-.5-.224-.5-.5v-5.334c0-.276.224-.5.5-.5h5.433l.924-6.466H.533c-.276 0-.5-.224-.5-.5V6.933c0-.276.224-.5.5-.5h7.213L8.57.465c.035-.247.246-.432.496-.432H14.4c.303 0 .537.268.495.569l-.806 5.831h6.457L21.37.465c.035-.247.246-.432.496-.432H27.2c.303 0 .537.268.495.569l-.806 5.831h4.578zm-.5 1h-4.652c-.304 0-.537-.268-.496-.568l.807-5.832h-4.324l-.825 5.969c-.035.247-.246.431-.496.431h-7.466c-.304 0-.537-.268-.496-.568l.807-5.832H9.502l-.825 5.969c-.035.247-.246.431-.496.431H1.033v4.334h6.434c.304 0 .538.27.495.57l-1.067 7.467c-.035.246-.246.43-.495.43H1.033v4.333h4.652c.304 0 .537.268.496.568l-.807 5.832h4.324l.825-5.969c.035-.247.246-.431.496-.431h7.466c.304 0 .537.268.496.568l-.807 5.832h4.324l.825-5.969c.035-.247.246-.431.496-.431h7.148v-4.334h-6.434c-.304 0-.538-.27-.495-.57l1.067-7.467c.035-.246.246-.43.495-.43h5.367V7.434zM19.69 12.767h-6.456l-.924 6.466h6.456l.924-6.466zm-.49 7.466h-7.467c-.304 0-.538-.27-.495-.57l1.067-7.467c.035-.246.246-.43.495-.43h7.467c.304 0 .538.27.495.571l-1.067 7.467c-.035.246-.246.43-.495.43z"/>
</svg>
