<svg xmlns="http://www.w3.org/2000/svg" width="32" height="32" viewBox="0 0 32 32">
    <path fill="#0050D7" fill-rule="evenodd" d="M16.336.13l15.466 14a.5.5 0 0 1-.67.74l-1.299-1.174V31.5a.5.5 0 0 1-.5.5H2.667a.5.5 0 0 1-.5-.5V13.695L.868 14.871a.5.5 0 1 1-.671-.742l15.466-14a.5.5 0 0 1 .672 0zM16 1.173L3.166 12.79V31h8.6v-8.5c0-.836.709-1.5 1.567-1.5h5.334c.858 0 1.566.664 1.566 1.5V31h8.6V12.791L16 1.174zM18.667 22h-5.334c-.32 0-.566.231-.566.5V31h6.466v-8.5c0-.269-.246-.5-.566-.5z"/>
</svg>
