<svg xmlns="http://www.w3.org/2000/svg" width="32" height="32" viewBox="0 0 32 32">
    <path fill="#0050D7" fill-rule="evenodd" d="M16 0c8.837 0 16 7.163 16 16s-7.163 16-16 16S0 24.837 0 16 7.163 0 16 0zm0 1C7.716 1 1 7.716 1 16c0 8.284 6.716 15 15 15 8.284 0 15-6.716 15-15 0-8.284-6.716-15-15-15zm.5 11.52V24h-1.05l-.04-11.48h1.09zm.183-4.309c.299.281.396.715.245 1.097-.15.38-.518.631-.928.632-.261.023-.52-.067-.71-.246-.191-.18-.297-.432-.29-.694-.025-.409.203-.792.574-.966.371-.173.81-.103 1.11.177z"/>
</svg>
