<svg xmlns="http://www.w3.org/2000/svg" width="32" height="32" viewBox="0 0 32 32">
    <path fill="#0050D7" fill-rule="evenodd" d="M9.5 3a.5.5 0 0 1 .5.5V6h2.5a.5.5 0 0 1 .5.5V9h6V6.5a.5.5 0 0 1 .5-.5H22V3.5a.5.5 0 0 1 .5-.5h3a.5.5 0 0 1 .5.5v3a.5.5 0 0 1-.5.5H23v2h2.5a.5.5 0 0 1 .5.5V12h2.5a.5.5 0 0 1 .5.5v2.947l2.497-.017a.5.5 0 0 1 .503.5v9.57a.5.5 0 0 1-.5.5h-3a.5.5 0 0 1-.5-.5V20h-2v5.5a.5.5 0 0 1-.5.5H23v2.5a.5.5 0 0 1-.5.5h-5a.5.5 0 0 1-.5-.5v-3a.5.5 0 0 1 .5-.5H22v-2H10v2h4.5a.5.5 0 0 1 .5.5v3a.5.5 0 0 1-.5.5h-5a.5.5 0 0 1-.5-.5V26H6.5a.5.5 0 0 1-.5-.5V20H4v5.5a.5.5 0 0 1-.5.5h-3a.5.5 0 0 1-.5-.5v-10a.5.5 0 0 1 .5-.5H3v-2.5a.5.5 0 0 1 .5-.5H6V9.5a.5.5 0 0 1 .5-.5H9V7H6.5a.5.5 0 0 1-.5-.5v-3a.5.5 0 0 1 .5-.5h3zM14 26h-4v2h4v-2zm8 0h-4v2h4v-2zM12 7h-2v2.5a.5.5 0 0 1-.5.5H7v2.5a.5.5 0 0 1-.5.5H4v2.5a.5.5 0 0 1-.5.5H1v9h2v-5.5a.5.5 0 0 1 .5-.5h3a.5.5 0 0 1 .5.5V25h2v-2.5a.5.5 0 0 1 .5-.5h13a.5.5 0 0 1 .5.5V25h2v-5.5a.5.5 0 0 1 .5-.5h3a.5.5 0 0 1 .5.5V25h2v-8.567l-2.497.017a.5.5 0 0 1-.503-.5V13h-2.5a.5.5 0 0 1-.5-.5V10h-2.5a.5.5 0 0 1-.5-.5V7h-2v2.5a.5.5 0 0 1-.5.5h-7a.5.5 0 0 1-.5-.5V7zm10.5 7a.5.5 0 0 1 .5.5v2a.5.5 0 0 1-.5.5h-2a.5.5 0 0 1-.5-.5v-2a.5.5 0 0 1 .5-.5h2zm-11 0a.5.5 0 0 1 .5.5v2a.5.5 0 0 1-.5.5h-2a.5.5 0 0 1-.5-.5v-2a.5.5 0 0 1 .5-.5h2zM25 4h-2v2h2V4zM9 4H7v2h2V4z"/>
</svg>
