<svg xmlns="http://www.w3.org/2000/svg" width="32" height="32" viewBox="0 0 32 32">
    <path fill="#0050D7" fill-rule="evenodd" d="M14.91 25.836c.792.008 1.546.347 2.08.936.532.589.798 1.374.73 2.167.09 1.062-.423 2.084-1.327 2.642-.904.559-2.043.559-2.947 0-.904-.558-1.417-1.58-1.328-2.642-.066-.79.196-1.571.725-2.16.53-.588 1.277-.93 2.067-.943zm-4.742-1.819v7.876h-1.39v-7.876h1.39zm14.045 0v1.186h-2.26v6.69h-1.391v-6.69H18.29v-1.186h5.922zM14.91 26.84c-.86 0-1.381.784-1.381 2.01 0 1.225.52 2.008 1.38 2.008.86 0 1.391-.783 1.391-2.009 0-1.225-.53-2.009-1.39-2.009zM26.608.147c5.856 5.884 5.856 15.419 0 21.302-.195.197-.512.197-.707 0-.196-.195-.196-.513 0-.71 5.465-5.49 5.465-14.39 0-19.882-.196-.196-.196-.514 0-.71.195-.196.512-.196.707 0zm-20.509 0c.196.196.196.514 0 .71C.635 6.35.635 15.248 6.1 20.74c.196.197.196.515 0 .71-.195.197-.512.197-.707 0-5.856-5.883-5.856-15.418 0-21.302.195-.196.512-.196.707 0zM23.777 2.99C25.84 5.062 27 7.873 27 10.803c0 2.931-1.16 5.742-3.223 7.814-.196.196-.512.196-.708 0-.195-.196-.195-.514 0-.71 1.877-1.884 2.93-4.44 2.93-7.104 0-2.664-1.053-5.22-2.93-7.103-.195-.196-.195-.514 0-.71.196-.196.512-.196.708 0zm-14.846 0c.195.196.195.514 0 .71C7.054 5.584 6 8.14 6 10.803c0 2.665 1.053 5.22 2.93 7.104.195.196.195.514 0 .71-.196.196-.512.196-.708 0C6.16 16.545 5 13.734 5 10.803c0-2.93 1.16-5.741 3.223-7.813.196-.196.512-.196.708 0zm12.025 2.843c2.733 2.745 2.733 7.195 0 9.941-.196.196-.512.196-.708 0-.195-.196-.195-.514 0-.71 2.343-2.353 2.343-6.168 0-8.521-.195-.196-.195-.514 0-.71.196-.197.512-.197.708 0zm-9.204 0c.195.196.195.514 0 .71-2.343 2.353-2.343 6.168 0 8.52.195.197.195.515 0 .711-.196.196-.512.196-.708 0-2.733-2.746-2.733-7.196 0-9.941.196-.197.512-.197.708 0zM16 8.788c1.105 0 2 .9 2 2.01 0 1.109-.895 2.008-2 2.008s-2-.9-2-2.009c0-1.11.895-2.009 2-2.009zm0 1.005c-.553 0-1 .45-1 1.004 0 .555.447 1.005 1 1.005.553 0 1-.45 1-1.005 0-.554-.447-1.004-1-1.004z"/>
</svg>
