<svg xmlns="http://www.w3.org/2000/svg" width="32" height="32" viewBox="0 0 32 32">
    <path fill="#0050D7" fill-rule="evenodd" d="M16 0c8.837 0 16 7.163 16 16s-7.163 16-16 16S0 24.837 0 16 7.163 0 16 0zm0 25c-1.265 0-2.469-.26-3.56-.732l-4.424 4.433C10.328 30.157 13.066 31 16 31c2.937 0 5.677-.844 7.99-2.303l-4.43-4.429C18.47 24.74 17.266 25 16 25zm-7.792-4.493l-4.333 4.325c.921 1.263 2.035 2.376 3.298 3.297l4.326-4.334c-1.364-.789-2.5-1.925-3.29-3.288zm12.294 3.288l4.33 4.33c1.261-.92 2.373-2.032 3.293-3.293l-4.33-4.33c-.79 1.365-1.928 2.503-3.293 3.293zM16 8c-4.418 0-8 3.582-8 8s3.582 8 8 8 8-3.582 8-8-3.582-8-8-8zM1 16c0 2.937.844 5.677 2.303 7.99l4.432-4.422C7.262 18.474 7 17.268 7 16c0-1.265.26-2.469.732-3.56L3.303 8.01C1.844 10.323 1 13.063 1 16zm27.7-7.984l-4.429 4.43c.47 1.09.729 2.292.729 3.554 0 1.265-.26 2.469-.732 3.56l4.429 4.43C30.156 21.677 31 18.937 31 16c0-2.935-.843-5.672-2.3-7.984zm-3.862-4.137l-4.33 4.33c1.364.79 2.502 1.93 3.29 3.296l4.332-4.331c-.92-1.262-2.031-2.374-3.292-3.295zM3.875 7.168l4.33 4.33c.79-1.365 1.928-2.503 3.293-3.293l-4.33-4.33c-1.261.92-2.373 2.032-3.293 3.293zM16 1c-2.937 0-5.677.844-7.99 2.303l4.43 4.429C13.53 7.26 14.734 7 16 7c1.267 0 2.474.262 3.568.735l4.428-4.428C21.682 1.846 18.94 1 16 1z"/>
</svg>
