<svg xmlns="http://www.w3.org/2000/svg" width="31" height="32" viewBox="0 0 31 32">
    <path fill="#0050D7" fill-rule="evenodd" d="M19.24 9.072c2.475 1.429 4 4.07 4 6.952-.146 2.99-1.238 5.849-3.107 8.168.067.084.107.191.107.308V27c0 2.761-2.239 5-5 5s-5-2.239-5-5v-2.5c0-.117.04-.224.107-.309C8.477 21.872 7.385 19.012 7.24 16c0-2.858 1.525-5.5 4-6.928 2.475-1.43 5.525-1.43 8 0zm0 15.928h-8v2c0 2.21 1.79 4 4 4 1.864 0 3.43-1.274 3.874-3H13.74c-.276 0-.5-.224-.5-.5s.224-.5.5-.5h5.5v-2zm-7.5-15.062c-2.166 1.25-3.5 3.561-3.5 6.038.143 2.969 1.292 5.798 3.254 8.025l7.49-.001.108-.121C20.99 21.67 22.1 18.89 22.24 16c0-2.5-1.334-4.812-3.5-6.062s-4.834-1.25-7 0zm-11.086.796l4.75 1.54c.263.086.407.368.322.63-.086.263-.368.407-.63.322l-4.75-1.54c-.263-.086-.407-.368-.322-.63.086-.263.368-.407.63-.322zm29.802.322c.085.262-.06.544-.322.63l-4.75 1.54c-.262.085-.544-.06-.63-.322-.085-.262.06-.544.322-.63l4.75-1.54c.262-.085.544.06.63.322zM6.535 3.166l2.94 4.05c.162.224.112.536-.111.699-.224.162-.536.112-.699-.111l-2.94-4.05c-.162-.224-.112-.536.111-.699.224-.162.536-.112.699.111zm18.11-.11c.222.162.272.475.11.698l-2.94 4.04c-.163.223-.476.273-.7.11-.222-.162-.272-.475-.11-.698l2.94-4.04c.163-.223.476-.273.7-.11zM14.74 0c.276 0 .5.224.5.5v5c0 .276-.224.5-.5.5s-.5-.224-.5-.5v-5c0-.276.224-.5.5-.5z"/>
</svg>
