<svg xmlns="http://www.w3.org/2000/svg" width="32" height="32" viewBox="0 0 32 32">
    <path fill="#0050D7" fill-rule="evenodd" d="M23.531 3.802c2.908 3.483 3.228 8.403.895 12.21C28.646 16.232 32 19.724 32 24c0 4.418-3.582 8-8 8s-8-3.582-8-8c0-1.073.211-2.097.595-3.032-.374.042-.75.062-1.125.062-2.687 0-5.18-1.02-7.063-2.73L.854 25.854c-.196.195-.512.195-.708 0-.195-.196-.195-.512 0-.708L7.7 17.593c-1.168-1.284-2.029-2.87-2.45-4.65-1.118-4.74 1.169-9.627 5.524-11.804C15.13-1.04 20.411.063 23.531 3.802zM24 17c-.135 0-.27.004-.403.011-.061.019-.126.023-.19.015-2.335.195-4.343 1.536-5.462 3.459-.02.062-.052.12-.094.169C17.308 21.648 17 22.788 17 24c0 3.866 3.134 7 7 7s7-3.134 7-7-3.134-7-7-7zm3.854 4.146c.195.196.195.512 0 .708l-5 5c-.196.195-.512.195-.708 0l-2-2c-.195-.196-.195-.512 0-.708.196-.195.512-.195.708 0l1.646 1.647 4.646-4.647c.196-.195.512-.195.708 0zM11.22 2.033c-3.94 1.97-6.01 6.392-4.997 10.68.401 1.7 1.245 3.2 2.391 4.395.062.022.12.059.169.108.05.05.086.107.11.169 1.722 1.653 4.054 2.645 6.576 2.645.56 0 1.119-.049 1.67-.146 1.27-2.114 3.49-3.592 6.068-3.845l-.138.191c2.644-3.525 2.517-8.404-.306-11.787C19.94 1.06 15.162.063 11.22 2.033zM15.5 3c.276 0 .5.224.5.5s-.224.5-.5.5C11.91 4 9 6.91 9 10.5c0 .276-.224.5-.5.5s-.5-.224-.5-.5C8 6.358 11.358 3 15.5 3z"/>
</svg>
