<svg xmlns="http://www.w3.org/2000/svg" width="32" height="32" viewBox="0 0 32 32">
    <path fill="#0050D7" fill-rule="evenodd" d="M18.5 0C25.956 0 32 6.044 32 13.5S25.956 27 18.5 27c-3.548 0-6.776-1.369-9.186-3.607l-8.46 8.46c-.196.196-.512.196-.708 0-.195-.195-.195-.511 0-.707l8.46-8.46C6.37 20.276 5 17.048 5 13.5 5 6.044 11.044 0 18.5 0zm0 1C11.596 1 6 6.596 6 13.5c0 3.443 1.392 6.56 3.644 8.821l.02.015.015.02C11.939 24.608 15.057 26 18.5 26 25.404 26 31 20.404 31 13.5S25.404 1 18.5 1zm0 12c3.59 0 6.5 2.91 6.5 6.5 0 .276-.224.5-.5.5h-12c-.276 0-.5-.224-.5-.5 0-3.59 2.91-6.5 6.5-6.5zm0 1c-2.869 0-5.225 2.197-5.478 5h10.956c-.253-2.803-2.609-5-5.478-5zm0-9C20.433 5 22 6.567 22 8.5S20.433 12 18.5 12 15 10.433 15 8.5 16.567 5 18.5 5zm0 1C17.12 6 16 7.12 16 8.5s1.12 2.5 2.5 2.5S21 9.88 21 8.5 19.88 6 18.5 6z"/>
</svg>
