<svg xmlns="http://www.w3.org/2000/svg" width="32" height="32" viewBox="0 0 32 32">
    <path fill="#0050D7" fill-rule="evenodd" d="M30.335 26.295c.276.844.386 1.734.324 2.62l-.019.103c-.266.927-.61 1.83-1.03 2.699-.153.32-.582.382-.82.12l-1-1.1c-.052-.058-.09-.125-.11-.2-.048-.166-.118-.435-.188-.754-.047-.215-.087-.424-.118-.623-.125-.793-.118-1.314.167-1.646.145-.17.333-.298.615-.45.093-.05.445-.229.52-.268.405-.216.634-.393.75-.595.217-.376.775-.318.91.094zm-.748 1.123c-.131.088-.278.173-.443.26-.086.047-.434.223-.514.266-.181.098-.286.17-.331.222-.007.008-.011.37.062.839.028.178.065.368.108.564.05.232.101.435.141.583l.409.45c.25-.59.466-1.194.646-1.809.028-.46.002-.922-.078-1.375zM16.205.194c2.8 3.616 6.898 5.998 11.425 6.641.408.058.575.557.284.849-.386.385-.624.902-.748 1.552-.092.488-.111.908-.107 1.698v.16l.001.066c0 .16-.076.31-.205.404-1.43 1.042-2.298 2.685-2.355 4.436 0 .616.157 1.376.449 2.243.22.651.51 1.345.852 2.061.29.605.6 1.192.911 1.737.186.326.33.564.41.692.089.14.102.312.038.463-.56 1.311-1.62 2.344-2.946 2.869-.11.044-.233.047-.346.008-4.35-1.486-6.358-1.133-7.104.253-.094.173-.167.36-.232.58-.033.108-.125.465-.145.53-.116.388-.25.602-.642.604-2.529.05-5.062-.758-7.482-2.129-.817-.463-1.562-.96-2.222-1.456-.232-.174-.437-.337-.613-.483-.107-.089-.182-.154-.223-.19-.167-.15-.213-.394-.113-.595.063-.125.175-.363.32-.692.242-.551.485-1.155.71-1.791.403-1.132.709-2.239.879-3.27.22-1.342.198-2.482-.103-3.35-.298-.856-1.107-1.683-2.276-2.433-.553-.355-1.149-.669-1.744-.937-.357-.16-.633-.269-.785-.323-.146-.051-.26-.168-.308-.315-.034-.102-.1-.294-.193-.558-.156-.44-.333-.918-.528-1.416-.101-.26.03-.553.29-.65 1.975-.738 4.31-.728 5.714-.11.067-.576-.126-1.488-.502-2.143-.223-.39.14-.852.57-.73.363.103.745.117 1.114.041.174-.036.354.024.473.157.5.56 1.225.866 1.997.833 1.584 0 2.644-1.9 2.872-4.346.022-.236.206-.424.441-.45.536-.062 1.045-.27 1.47-.6.22-.168.533-.128.702.09zm-.499.98c-.36.212-.752.366-1.16.456-.347 2.723-1.642 4.87-3.804 4.87-.956.041-1.883-.31-2.57-.965-.118.014-.237.021-.356.023.348 1.026.382 2.175-.085 2.801-.163.219-.472.266-.693.107-.888-.64-2.986-.793-4.854-.238.126.332.244.653.351.956l.123.352.012.005c.187.074.394.161.618.261.638.287 1.276.624 1.875 1.008 1.339.86 2.292 1.833 2.68 2.946.364 1.051.39 2.349.144 3.841-.18 1.096-.501 2.258-.922 3.442-.235.66-.486 1.286-.738 1.858-.063.144-.12.27-.17.38.13.106.293.234.485.38.627.471 1.337.943 2.115 1.384 2.189 1.24 4.463 1.986 6.701 2 .034-.126.088-.33.116-.422.083-.28.18-.527.31-.768 1.013-1.881 3.485-2.339 8.127-.785.923-.41 1.674-1.13 2.123-2.033-.08-.132-.178-.3-.29-.497-.322-.564-.644-1.172-.945-1.8-.36-.75-.664-1.48-.898-2.174-.324-.961-.501-1.821-.5-2.578.064-1.99 1.003-3.843 2.558-5.071-.004-.835.018-1.299.125-1.863.096-.505.251-.96.48-1.361-4.303-.81-8.186-3.116-10.958-6.516z"/>
</svg>
