<svg xmlns="http://www.w3.org/2000/svg" width="32" height="32" viewBox="0 0 32 32">
    <path fill="#0050D7" fill-rule="evenodd" d="M30.335 26.295a6.89 6.89 0 0 1 .324 2.62l-.019.103a17.14 17.14 0 0 1-1.03 2.699.5.5 0 0 1-.82.12l-1-1.1a.5.5 0 0 1-.11-.2 12.87 12.87 0 0 1-.306-1.377c-.125-.793-.118-1.314.167-1.646.145-.17.333-.298.615-.45.093-.05.445-.229.52-.268.405-.216.634-.393.75-.595a.5.5 0 0 1 .91.094zm-.748 1.123a5.186 5.186 0 0 1-.443.26c-.086.047-.434.223-.514.266-.181.098-.286.17-.331.222-.007.008-.011.37.062.839a12.879 12.879 0 0 0 .249 1.147l.409.45c.25-.59.466-1.194.646-1.809a5.89 5.89 0 0 0-.078-1.375zM16.205.194A17.57 17.57 0 0 0 27.63 6.835a.5.5 0 0 1 .284.849c-.386.385-.624.902-.748 1.552-.092.488-.111.908-.107 1.698v.16l.001.066a.5.5 0 0 1-.205.404A5.733 5.733 0 0 0 24.5 16c0 .616.157 1.376.449 2.243.22.651.51 1.345.852 2.061a27.462 27.462 0 0 0 1.322 2.43.5.5 0 0 1 .037.462 5.34 5.34 0 0 1-2.946 2.869.5.5 0 0 1-.346.008c-4.35-1.486-6.358-1.133-7.104.253-.094.173-.167.36-.232.58-.033.108-.125.465-.145.53-.116.388-.25.602-.642.604-2.529.05-5.062-.758-7.482-2.129a20.61 20.61 0 0 1-2.222-1.456 16.414 16.414 0 0 1-.836-.673.5.5 0 0 1-.113-.595c.063-.125.175-.363.32-.692.242-.551.485-1.155.71-1.791.403-1.132.709-2.239.879-3.27.22-1.342.198-2.482-.103-3.35-.298-.856-1.107-1.683-2.276-2.433a13.513 13.513 0 0 0-1.744-.937 11.12 11.12 0 0 0-.785-.323.5.5 0 0 1-.308-.315 46.881 46.881 0 0 0-.72-1.974.5.5 0 0 1 .29-.65c1.974-.738 4.309-.728 5.713-.11.067-.576-.126-1.488-.502-2.143a.5.5 0 0 1 .57-.73 2.35 2.35 0 0 0 1.114.041.5.5 0 0 1 .473.157c.5.56 1.225.866 1.997.833 1.584 0 2.644-1.9 2.872-4.346a.5.5 0 0 1 .441-.45 2.95 2.95 0 0 0 1.47-.6.5.5 0 0 1 .702.09zm-.499.98a3.95 3.95 0 0 1-1.16.456c-.347 2.723-1.642 4.87-3.804 4.87a3.5 3.5 0 0 1-2.57-.965 3.35 3.35 0 0 1-.356.023c.348 1.026.382 2.175-.085 2.801a.5.5 0 0 1-.693.107c-.888-.64-2.986-.793-4.854-.238a47.37 47.37 0 0 1 .474 1.308l.012.005a14.495 14.495 0 0 1 2.493 1.269c1.339.86 2.292 1.833 2.68 2.946.364 1.051.39 2.349.144 3.841-.18 1.096-.501 2.258-.922 3.442a27.756 27.756 0 0 1-.909 2.238 19.616 19.616 0 0 0 2.6 1.764c2.19 1.24 4.464 1.986 6.702 2 .034-.126.088-.33.116-.422.083-.28.18-.527.31-.768 1.013-1.881 3.485-2.339 8.127-.785a4.34 4.34 0 0 0 2.123-2.033 28.451 28.451 0 0 1-1.235-2.298c-.36-.75-.664-1.48-.898-2.173-.324-.961-.501-1.821-.5-2.578a6.74 6.74 0 0 1 2.558-5.071c-.004-.835.018-1.299.125-1.863.096-.505.251-.96.48-1.361a18.57 18.57 0 0 1-10.958-6.516z"/>
</svg>
