<svg xmlns="http://www.w3.org/2000/svg" width="32" height="32" viewBox="0 0 32 32">
    <path fill="#0050D7" fill-rule="evenodd" d="M24.5 1c.276 0 .5.224.5.5v13.792l5.146-5.146c.315-.315.854-.091.854.354v20c0 .276-.224.5-.5.5h-21c-.276 0-.5-.224-.5-.5v-29c0-.276.224-.5.5-.5h15zm-19.646.146l3 3c.195.196.195.512 0 .708-.196.195-.512.195-.708 0L5 2.707v26.585l2.146-2.146c.196-.195.512-.195.708 0 .195.196.195.512 0 .708l-3 3c-.196.195-.512.195-.708 0l-3-3c-.195-.196-.195-.512 0-.708.196-.195.512-.195.708 0L4 29.292V2.707L1.854 4.854c-.196.195-.512.195-.708 0-.195-.196-.195-.512 0-.708l3-3c.196-.195.512-.195.708 0zM14 24h-4v6h.292L14 26.292V24zm16-12.293L11.707 30H30V11.707zm-2.95 8.797l-.05 6c-.002.275-.225.496-.5.496h-6c-.446 0-.67-.54-.352-.855l6.05-6c.317-.314.856-.087.852.36zm-1.01 1.206L21.714 26h4.29l.036-4.29zM19 16h-4v9.292l4-4V16zm-5 0h-4v7h4v-7zm10 0h-4v4.292l4-4V16zM14 9h-4v6h4V9zm5 0h-4v6h4V9zm5 0h-4v6h4V9zM14 2h-4v6h4V2zm5 0h-4v6h4V2zm5 0h-4v6h4V2z"/>
</svg>
