<svg xmlns="http://www.w3.org/2000/svg" width="32" height="32" viewBox="0 0 32 32">
    <path fill="#0050D7" fill-rule="evenodd" d="M12.5 0c.215 0 .406.138.474.342L16 9.416 19.026.342C19.094.138 19.285 0 19.5 0h6c.341 0 .582.334.474.658l-4.956 14.87C23.42 17.144 25 19.888 25 23c0 4.97-4.03 9-9 9s-9-4.03-9-9c0-3.113 1.58-5.856 3.982-7.472L6.026.658C5.918.334 6.159 0 6.5 0h6zM16 15c-.365 0-.724.024-1.076.072-.038.012-.077.018-.117.018C10.955 15.664 8 18.987 8 23c0 4.418 3.582 8 8 8s8-3.582 8-8-3.582-8-8-8zm0 1c3.866 0 7 3.134 7 7s-3.134 7-7 7-7-3.134-7-7 3.134-7 7-7zm0 1c-3.314 0-6 2.686-6 6s2.686 6 6 6 6-2.686 6-6-2.686-6-6-6zm.986 3.234v4.464h1.026v1.242h-3.798v-1.242h1.224v-2.952h-1.08v-.954c.648-.126 1.062-.288 1.494-.558h1.134zM12.14 1H7.194l4.668 14.006c.792-.411 1.654-.708 2.562-.869l1.048-3.141L12.14 1zm12.666 0H19.86l-3.378 10.131c-.006.023-.013.045-.022.066l-.941 2.816c.16-.009.32-.013.481-.013 1.492 0 2.9.363 4.138 1.006L24.806 1z"/>
</svg>
