<svg xmlns="http://www.w3.org/2000/svg" width="32" height="32" viewBox="0 0 32 32">
    <path fill="#0050D7" fill-rule="evenodd" d="M10.716 32H7.5c-.276 0-.5-.224-.5-.5s.224-.5.5-.5l3.093-.001.119-.07C12.752 29.656 14 27.417 14 25v-1.223c-4.008-.91-7-4.494-7-8.777V9.5c0-.276.224-.5.5-.5s.5.224.5.5V15c0 4.418 3.582 8 8 8s8-3.582 8-8V9.5c0-.276.224-.5.5-.5s.5.224.5.5V15c0 4.283-2.992 7.867-7 8.777V25c0 2.463 1.296 4.74 3.406 6H24.5c.276 0 .5.224.5.5s-.224.5-.5.5H10.717zM15 23.945L15 25c0 2.322-1.008 4.5-2.715 6h7.43C18.008 29.5 17 27.322 17 25v-1.055c-.328.036-.662.055-1 .055-.338 0-.672-.019-1-.055zM16 0c3.314 0 6 2.686 6 6v9c0 3.314-2.686 6-6 6s-6-2.686-6-6V6c0-3.314 2.686-6 6-6zm0 1c-2.761 0-5 2.239-5 5v9c0 2.761 2.239 5 5 5s5-2.239 5-5V6c0-2.761-2.239-5-5-5z"/>
</svg>
