<svg xmlns="http://www.w3.org/2000/svg" width="32" height="32" viewBox="0 0 32 32">
    <path fill="#0050D7" fill-rule="evenodd" d="M20.5 7c.276 0 .5.224.5.5V18h9.545c.804 0 1.455.672 1.455 1.5v11c0 .828-.651 1.5-1.455 1.5H1.455C.65 32 0 31.328 0 30.5v-11c0-.828.651-1.5 1.455-1.5H20V7.5c0-.276.224-.5.5-.5zm10.045 12H1.455c-.268 0-.485.224-.485.5v11c0 .276.217.5.485.5h29.09c.268 0 .485-.224.485-.5v-11c0-.276-.217-.5-.485-.5zM6 25c.552 0 1 .448 1 1s-.448 1-1 1-1-.448-1-1 .448-1 1-1zm4 0c.552 0 1 .448 1 1s-.448 1-1 1-1-.448-1-1 .448-1 1-1zM13.859.152c.192.198.187.515-.011.707-1.8 1.745-2.826 4.138-2.848 6.637.022 2.507 1.048 4.9 2.848 6.645.198.192.203.509.011.707-.192.198-.509.203-.707.011-1.992-1.931-3.128-4.58-3.152-7.363.024-2.775 1.16-5.424 3.152-7.355.198-.192.515-.187.707.011zM27.848.141C29.84 2.072 30.976 4.721 31 7.504c-.024 2.775-1.16 5.424-3.152 7.355-.198.192-.515.187-.707-.011-.192-.198-.187-.515.011-.707 1.8-1.745 2.826-4.138 2.848-6.637-.022-2.507-1.048-4.9-2.848-6.645-.198-.192-.203-.509-.011-.707.192-.198.509-.203.707-.011zm-3.026 2.977c1.293 1.09 2.08 2.665 2.177 4.41-.097 1.69-.884 3.263-2.177 4.354-.21.178-.526.152-.704-.06-.178-.21-.152-.526.06-.704 1.082-.914 1.741-2.232 1.823-3.59-.082-1.414-.74-2.732-1.823-3.646-.212-.178-.238-.493-.06-.704.178-.212.493-.238.704-.06zm-7.94.06c.178.21.152.526-.06.704-1.082.914-1.741 2.232-1.823 3.59.082 1.414.74 2.732 1.823 3.646.212.178.238.493.06.704-.178.212-.493.238-.704.06-1.293-1.09-2.08-2.665-2.177-4.41.097-1.69.884-3.263 2.177-4.354.21-.178.526-.152.704.06z"/>
</svg>
