<svg xmlns="http://www.w3.org/2000/svg" width="32" height="32" viewBox="0 0 32 32">
    <path fill="#0050D7" fill-rule="evenodd" d="M28.5 2c.828 0 1.5.672 1.5 1.5V17h1.5c.276 0 .5.224.5.5v2c0 .828-.672 1.5-1.5 1.5H10v7.5c0 .828-.672 1.5-1.5 1.5h-7C.672 30 0 29.328 0 28.5v-14c0-.828.672-1.5 1.5-1.5H6V3.5C6 2.672 6.672 2 7.5 2h21zM9 26H1v2.5c0 .276.224.5.5.5h7c.276 0 .5-.224.5-.5V26zm-3.5 1c.276 0 .5.224.5.5s-.224.5-.5.5h-1c-.276 0-.5-.224-.5-.5s.224-.5.5-.5h1zm3-13h-7c-.276 0-.5.224-.5.5V25h8V14.5c0-.276-.224-.5-.5-.5zM31 18H10v2h20.5c.276 0 .5-.224.5-.5V18zM28.5 3h-21c-.276 0-.5.224-.5.5V13h1.5c.828 0 1.5.672 1.5 1.5V17h19V3.5c0-.276-.224-.5-.5-.5zm-10 1c.276 0 .5.224.5.5s-.224.5-.5.5h-1c-.276 0-.5-.224-.5-.5s.224-.5.5-.5h1z"/>
</svg>
