<svg xmlns="http://www.w3.org/2000/svg" width="32" height="32" viewBox="0 0 32 32">
    <path fill="#0050D7" fill-rule="evenodd" d="M28.27.03a3.7 3.7 0 1 1-3.638 4.375l-7.287 10.562H24.6a3.7 3.7 0 1 1 0 1h-7.945l-.014.02 7.985 11.598a3.701 3.701 0 1 1 .2 2.053l-8.793-12.77-8.939 12.96a3.7 3.7 0 1 1 .29-2.182l8.043-11.66-.014-.02-8.013.001a3.7 3.7 0 1 1 0-1h7.324L7.388 4.312A3.7 3.7 0 1 1 6.97 1.94l8.97 13.027h.191l8.706-12.62A3.701 3.701 0 0 1 28.27.03zM3.737 25.57a2.7 2.7 0 1 0 2.391 3.955.479.479 0 0 1 .074-.166l.015-.02a2.7 2.7 0 0 0-2.48-3.77zm24.526-.003a2.7 2.7 0 0 0-2.596 3.443l.054.167.015.025c.02.038.034.078.043.12a2.7 2.7 0 1 0 2.484-3.754zm-2.56 3.579l.02.039-.002-.008-.019-.031zm-21.97-16.38a2.7 2.7 0 1 0 0 5.4 2.7 2.7 0 0 0 0-5.4zm24.534 0a2.7 2.7 0 1 0 0 5.4 2.7 2.7 0 0 0 0-5.4zM3.733 1.034A2.7 2.7 0 1 0 6.12 2.468l-.013-.02a.503.503 0 0 1-.047-.082 2.692 2.692 0 0 0-2.326-1.333zM28.27 1.03a2.7 2.7 0 0 0-2.503 1.686 2.648 2.648 0 0 0-.197 1.013 2.7 2.7 0 1 0 2.7-2.7z"/>
</svg>
