<svg xmlns="http://www.w3.org/2000/svg" width="32" height="32" viewBox="0 0 32 32">
    <path fill="#0050D7" fill-rule="evenodd" d="M19 .5v31a.5.5 0 0 1-.812.39L8.325 24H1.5a.5.5 0 0 1-.5-.5v-15a.5.5 0 0 1 .5-.5h6.825L18.188.11A.5.5 0 0 1 19 .5zm-1 1.04L8.812 8.89A.5.5 0 0 1 8.5 9H2v14h6.5a.5.5 0 0 1 .312.11L18 30.46V1.54zm3.854 9.606L26 15.293l4.146-4.147a.5.5 0 0 1 .708.708L26.707 16l4.147 4.146a.5.5 0 0 1-.708.708L26 16.707l-4.146 4.147a.5.5 0 0 1-.708-.708L25.293 16l-4.147-4.146a.5.5 0 0 1 .708-.708z"/>
</svg>
