<svg xmlns="http://www.w3.org/2000/svg" width="32" height="32" viewBox="0 0 32 32">
    <path fill="#0050D7" fill-rule="evenodd" d="M6.34 20.726v1.004c.001.733.56 1.336 1.276 1.405l.136.006h12.576c.733 0 1.335-.56 1.404-1.275l.007-.136v-1.004h6.35v6.147c-.005 1.39-1.09 2.523-2.458 2.606l-.165.004H2.609C1.224 29.48.093 28.401.005 27.038L0 26.873v-6.147h6.34zm24.205 5.954c.774 0 1.402.626 1.403 1.4 0 .774-.627 1.403-1.402 1.403-.774 0-1.401-.627-1.402-1.401 0-.774.627-1.402 1.401-1.402zm.001.342c-.584 0-1.057.474-1.057 1.058 0 .584.473 1.058 1.057 1.058s1.058-.474 1.058-1.058c0-.584-.474-1.058-1.058-1.058zm.037.346c.137-.007.271.04.373.131.08.087.122.202.116.319.008.184-.096.345-.259.411l.293.51h-.327l-.253-.456h-.173v.457h-.284v-1.372zm-.028.258h-.204v.414h.21c.059.008.117-.01.16-.05.044-.04.067-.097.065-.155 0-.14-.078-.21-.23-.21zM6.342 12.57v6.342H0V12.57h6.342zm21.739 0v6.342h-6.342V12.57h6.342zM25.47 2c1.386 0 2.522 1.078 2.612 2.444l.005.165v6.148h-6.345V9.753c0-.733-.56-1.336-1.275-1.404l-.136-.007H7.756c-.733 0-1.336.56-1.404 1.275l-.007.136v1.004H.005V4.61c.004-1.384 1.081-2.515 2.444-2.603L2.613 2H25.47z"/>
</svg>
