<svg xmlns="http://www.w3.org/2000/svg" width="32" height="32" viewBox="0 0 32 32">
    <path fill="#0050D7" fill-rule="evenodd" d="M6.933 29.952c.276 0 .5.223.5.5 0 .276-.224.5-.5.5h-3.2c-.276 0-.5-.224-.5-.5 0-.277.224-.5.5-.5h3.2zm21.334 0c.276 0 .5.223.5.5 0 .276-.224.5-.5.5h-3.2c-.276 0-.5-.224-.5-.5 0-.277.224-.5.5-.5h3.2zm.2-16.517c1.933 0 3.5 1.567 3.5 3.5v8.452c0 1.933-1.567 3.5-3.5 3.5H3.533c-1.933 0-3.5-1.567-3.5-3.5v-8.452c0-1.933 1.567-3.5 3.5-3.5h24.934zm0 1H3.533c-1.38 0-2.5 1.12-2.5 2.5v8.452c0 1.38 1.12 2.5 2.5 2.5h24.934c1.38 0 2.5-1.12 2.5-2.5v-8.452c0-1.38-1.12-2.5-2.5-2.5zM16 18c1.653 0 3 1.34 3 3s-1.347 3-3 3-3-1.34-3-3 1.347-3 3-3zm0 .974c-1.137 0-2.053.91-2.053 2.026 0 1.115.916 2.026 2.053 2.026s2.053-.91 2.053-2.026c0-1.115-.916-2.026-2.053-2.026zM15.995 6.21c4.232 0 8.292 1.628 11.286 4.527.199.192.204.508.012.707-.193.198-.509.203-.707.011-2.807-2.718-6.618-4.245-10.591-4.245-3.974 0-7.784 1.527-10.591 4.245-.199.192-.515.187-.707-.011-.192-.199-.187-.515.011-.707 2.995-2.9 7.054-4.527 11.287-4.527zm0-3.094c5.08 0 9.953 1.953 13.547 5.432.199.192.204.509.012.707-.192.199-.509.204-.707.012-3.407-3.298-8.03-5.151-12.852-5.151-4.822 0-9.446 1.853-12.853 5.15-.198.193-.515.188-.707-.01-.192-.2-.186-.516.012-.708C6.04 5.07 10.914 3.117 15.995 3.117zm-.006-3.11c5.931 0 11.62 2.282 15.815 6.343.198.193.203.51.011.707-.192.199-.508.204-.707.012-4.007-3.88-9.446-6.062-15.119-6.062C10.317 1.007 4.878 3.188.87 7.07c-.198.192-.514.187-.707-.012-.192-.198-.187-.514.012-.707C4.37 2.29 10.058.007 15.989.007z"/>
</svg>
