<svg xmlns="http://www.w3.org/2000/svg" width="32" height="32" viewBox="0 0 32 32">
    <path fill="#0050D7" fill-rule="evenodd" d="M22.5 0c.029 0 .058.003.086.007L22.5 0c.037 0 .073.004.108.012.02.004.04.01.058.016l.032.013.041.02c.012.006.024.014.036.022l.03.02c.013.01.025.02.036.032l.013.011 6 6 .011.013c.011.011.022.023.031.036l-.042-.049c.024.025.045.05.063.079.008.012.016.024.022.036l.017.034.016.04c.006.018.012.037.016.057l.005.022c.004.028.007.057.007.086v24c0 .828-.672 1.5-1.5 1.5h-23c-.828 0-1.5-.672-1.5-1.5v-29C3 .672 3.672 0 4.5 0h18zM22 1H4.5c-.276 0-.5.224-.5.5v29c0 .276.224.5.5.5h23c.276 0 .5-.224.5-.5V7h-4.5c-.828 0-1.5-.672-1.5-1.5V1zm2.5 24c.276 0 .5.224.5.5s-.224.5-.5.5h-17c-.276 0-.5-.224-.5-.5s.224-.5.5-.5h17zm0-4c.276 0 .5.224.5.5s-.224.5-.5.5h-17c-.276 0-.5-.224-.5-.5s.224-.5.5-.5h17zm-9-14c3.038 0 5.5 2.462 5.5 5.5S18.538 18 15.5 18 10 15.538 10 12.5 12.462 7 15.5 7zm0 1c-2.485 0-4.5 2.015-4.5 4.5s2.015 4.5 4.5 4.5 4.5-2.015 4.5-4.5S17.985 8 15.5 8zm-.04 6c.345 0 .625.28.625.625s-.28.625-.625.625-.625-.28-.625-.625.28-.625.625-.625zm1.106-3.953c.285.254.444.621.434 1.003 0 1-1.25 1.38-1.14 2.41h-.81c-.17-1.17 1-1.62 1-2.34h.05c.012-.175-.053-.347-.178-.47s-.297-.185-.472-.17c-.322.012-.622.166-.82.42l-.51-.47c.336-.433.851-.69 1.4-.7.378-.053.76.063 1.046.317zM23 1.708V5.5c0 .276.224.5.5.5h3.793L23 1.708z"/>
</svg>
