<svg xmlns="http://www.w3.org/2000/svg" width="32" height="32" viewBox="0 0 32 32">
    <path fill="#0050D7" fill-rule="evenodd" d="M22.5 0l.079.007-.031-.005.007.001.025.004h.004l.024.005c.02.004.04.01.058.016l.032.013.041.02.036.022.03.02c.013.01.025.02.036.032l6.013 6.011c.093.094.146.221.146.354v24c0 .828-.672 1.5-1.5 1.5h-23c-.828 0-1.5-.672-1.5-1.5v-29C3 .672 3.672 0 4.5 0h18zM22 1H4.5c-.276 0-.5.224-.5.5v29c0 .276.224.5.5.5h23c.276 0 .5-.224.5-.5V7h-4.5c-.828 0-1.5-.672-1.5-1.5V1zm2.5 24c.276 0 .5.224.5.5s-.224.5-.5.5h-17c-.276 0-.5-.224-.5-.5s.224-.5.5-.5h17zm0-4c.276 0 .5.224.5.5s-.224.5-.5.5h-17c-.276 0-.5-.224-.5-.5s.224-.5.5-.5h17zm-9-14c3.038 0 5.5 2.462 5.5 5.5S18.538 18 15.5 18 10 15.538 10 12.5 12.462 7 15.5 7zm0 1c-2.485 0-4.5 2.015-4.5 4.5s2.015 4.5 4.5 4.5 4.5-2.015 4.5-4.5S17.985 8 15.5 8zm.52 3.98v2.99h-1v-2.99h1zm-.52-2c.276 0 .5.224.5.5s-.224.5-.5.5-.5-.224-.5-.5.224-.5.5-.5zM23 1.708V5.5c0 .276.224.5.5.5h3.793L23 1.708z"/>
</svg>
