<svg xmlns="http://www.w3.org/2000/svg" width="32" height="32" viewBox="0 0 32 32">
    <path fill="#0050D7" fill-rule="evenodd" d="M22.5 0l.079.007-.031-.005.007.001.025.004h.004l.024.005c.02.004.04.01.058.016l.032.013a.552.552 0 0 1 .041.02l.036.022a.531.531 0 0 1 .066.052l6.024 6.024c.011.011.022.023.031.036l-.009-.011.03.04a.479.479 0 0 1 .076.19A.509.509 0 0 1 29 6.5v24a1.5 1.5 0 0 1-1.5 1.5h-23A1.5 1.5 0 0 1 3 30.5v-29A1.5 1.5 0 0 1 4.5 0h18zM22 1H4.5a.5.5 0 0 0-.5.5v29a.5.5 0 0 0 .5.5h23a.5.5 0 0 0 .5-.5V7h-4.5A1.5 1.5 0 0 1 22 5.5V1zm2.5 25a.5.5 0 1 1 0 1h-17a.5.5 0 1 1 0-1h17zm0-5a.5.5 0 1 1 0 1h-17a.5.5 0 1 1 0-1h17zm0-5a.5.5 0 1 1 0 1h-17a.5.5 0 1 1 0-1h17zm0-5a.5.5 0 1 1 0 1h-17a.5.5 0 1 1 0-1h17zM23 1.708V5.5a.5.5 0 0 0 .5.5h3.793L23 1.708zM22.5 0l.043.002h.005L22.5 0z"/>
</svg>
