<svg xmlns="http://www.w3.org/2000/svg" width="32" height="32" viewBox="0 0 32 32">
    <path fill="#0050D7" fill-rule="evenodd" d="M30.641.02l.028.01c.004 0 .008.002.012.004.023.009.045.02.067.032l.006.003c.162.095.273.278.242.497l-.007.037-.001.007-7 31c-.087.384-.563.522-.842.244l-7.693-7.694L11.8 26.9c-.33.247-.8.012-.8-.4v-6.793l-8.854-8.853c-.26-.26-.16-.701.186-.825L30.302.04c.111-.05.23-.052.34-.02zm-1.01 2.055L12.208 19.5l11.005 11.005 6.42-28.43zM12 20.707V25.5l2.739-2.054-2.74-2.74zM28.573 1.719l-25.16 8.986 8.087 8.088L28.573 1.719z"/>
</svg>
