<svg xmlns="http://www.w3.org/2000/svg" width="32" height="32" viewBox="0 0 32 32">
    <path fill="#0050D7" fill-rule="evenodd" d="M16 0c8.837 0 16 7.163 16 16s-7.163 16-16 16S0 24.837 0 16 7.163 0 16 0zm0 1C7.716 1 1 7.716 1 16c0 8.284 6.716 15 15 15 8.284 0 15-6.716 15-15 0-8.284-6.716-15-15-15zm-3.5 8c.828 0 1.5.672 1.5 1.5v11c0 .828-.672 1.5-1.5 1.5h-2c-.828 0-1.5-.672-1.5-1.5v-11c0-.828.672-1.5 1.5-1.5h2zm9 0c.828 0 1.5.672 1.5 1.5v11c0 .828-.672 1.5-1.5 1.5h-2c-.828 0-1.5-.672-1.5-1.5v-11c0-.828.672-1.5 1.5-1.5h2zm-9 1h-2c-.276 0-.5.224-.5.5v11c0 .276.224.5.5.5h2c.276 0 .5-.224.5-.5v-11c0-.276-.224-.5-.5-.5zm9 0h-2c-.276 0-.5.224-.5.5v11c0 .276.224.5.5.5h2c.276 0 .5-.224.5-.5v-11c0-.276-.224-.5-.5-.5z"/>
</svg>
