<svg xmlns="http://www.w3.org/2000/svg" width="32" height="32" viewBox="0 0 32 32">
    <g fill="#0050D7" fill-rule="evenodd">
        <path d="M26.5 0a.5.5 0 0 1 .5.5V3h1.5A3.5 3.5 0 0 1 32 6.5v22a3.5 3.5 0 0 1-3.5 3.5h-25A3.5 3.5 0 0 1 0 28.5v-22A3.5 3.5 0 0 1 3.5 3H5V.5a.5.5 0 0 1 1 0V3h6V.5a.5.5 0 1 1 1 0V3h6V.5a.5.5 0 1 1 1 0V3h6V.5a.5.5 0 0 1 .5-.5zM31 11H1v17.5A2.5 2.5 0 0 0 3.5 31h25a2.5 2.5 0 0 0 2.5-2.5V11zM10.5 22a.5.5 0 0 1 .5.5v5a.5.5 0 0 1-.5.5h-5a.5.5 0 0 1-.5-.5v-5a.5.5 0 0 1 .5-.5h5zm8 0a.5.5 0 0 1 .5.5v5a.5.5 0 0 1-.5.5h-5a.5.5 0 0 1-.5-.5v-5a.5.5 0 0 1 .5-.5h5zM10 23H6v4h4v-4zm8 0h-4v4h4v-4zm-7.5-9a.5.5 0 0 1 .5.5v5a.5.5 0 0 1-.5.5h-5a.5.5 0 0 1-.5-.5v-5a.5.5 0 0 1 .5-.5h5zm8 0a.5.5 0 0 1 .5.5v5a.5.5 0 0 1-.5.5h-5a.5.5 0 0 1-.5-.5v-5a.5.5 0 0 1 .5-.5h5zM10 15H6v4h4v-4zm8 0h-4v4h4v-4zM5 4H3.5A2.5 2.5 0 0 0 1 6.5V10h30V6.5A2.5 2.5 0 0 0 28.5 4H27v2.5a.5.5 0 1 1-1 0V4h-6v2.5a.5.5 0 1 1-1 0V4h-6v2.5a.5.5 0 1 1-1 0V4H6v2.5a.5.5 0 0 1-1 0V4z"/>
        <text font-family="SourceSansPro-Regular, Source Sans Pro" font-size="17.2">
            <tspan x="20.426" y="26.1">$</tspan>
        </text>
    </g>
</svg>
