<svg xmlns="http://www.w3.org/2000/svg" width="32" height="32" viewBox="0 0 32 32">
    <path fill="#0050D7" fill-rule="evenodd" d="M16 32c-3.749 0-6.83-2.65-6.993-6H6.5C4.015 26 2 28.015 2 30.5v1c0 .276-.224.5-.5.5s-.5-.224-.5-.5v-1C1 27.462 3.462 25 6.5 25h3c.828 0 1.5-.672 1.5-1.5v-2c0-.077.018-.15.05-.216C9.192 19.82 8 17.549 8 15v-4.085c-.582-.206-1-.762-1-1.415v-5C7 3.12 8.12 2 9.5 2H12v-.5c0-.828.672-1.5 1.5-1.5h9C23.88 0 25 1.12 25 2.5v7c0 .653-.417 1.208-1 1.414V15c0 2.55-1.193 4.82-3.05 6.285.032.064.05.138.05.215v2c0 .78.595 1.42 1.356 1.493L22.5 25h3c3.038 0 5.5 2.462 5.5 5.5v1c0 .276-.224.5-.5.5s-.5-.224-.5-.5v-1c0-2.485-2.015-4.5-4.5-4.5h-2.507c-.164 3.35-3.244 6-6.993 6zm0-9c-1.457 0-2.823-.39-4-1.07v1.57c0 1.207-.856 2.215-1.994 2.449C10.142 28.745 12.763 31 16 31c3.237 0 5.858-2.255 5.994-5.051C20.856 25.715 20 24.707 20 23.5l.001-1.57C18.824 22.61 17.458 23 16 23zm6.5-22h-9c-.276 0-.5.224-.5.5v1c0 .276-.224.5-.5.5h-3C8.672 3 8 3.672 8 4.5v5l.005.053.003-.066c.038-.378.205-.733.475-1.004.31-.31.73-.483 1.167-.483h8.85c.276 0 .5.224.5.5s-.224.5-.5.5H9.65c-.172 0-.338.068-.46.19S9 9.478 9 9.65V15c0 3.866 3.134 7 7 7s7-3.134 7-7V8.5c0-.276.224-.5.5-.5s.5.224.5.5v-6c0-.828-.672-1.5-1.5-1.5z"/>
</svg>
