<svg xmlns="http://www.w3.org/2000/svg" width="32" height="32" viewBox="0 0 32 32">
    <path fill="#0050D7" fill-rule="evenodd" d="M2.25 0h5.97c.62-.036 1.227.2 1.659.647.432.447.647 1.06.591 1.627.022 1.968.3 3.925.827 5.82.395.783.194 1.738-.455 2.261l-3.526 3.499c2.436 4.521 6.143 8.23 10.662 10.671l3.588-3.58c.613-.444 1.388-.602 2.172-.42 1.944.648 3.98.977 6.028.975.615-.032 1.214.204 1.643.647.432.447.647 1.06.591 1.633v5.972c.034.606-.192 1.198-.621 1.627-.43.429-1.021.655-1.598.621-7.901.008-15.48-3.127-21.067-8.714C3.127 17.7-.008 10.12 0 2.25-.035 1.636.196 1.037.634.606 1.072.176 1.675-.044 2.25 0zm-.915 1.32c-.232.228-.355.546-.335.9-.008 7.636 3.022 14.96 8.42 20.36 5.4 5.398 12.724 8.428 20.388 8.42.322.02.636-.1.864-.328.227-.228.347-.542.328-.892l.002-6.047c.031-.328-.083-.654-.312-.891-.23-.237-.55-.363-.88-.343l-.03.001c-2.16.004-4.308-.342-6.312-1.013-.456-.105-.936-.007-1.254.217l-3.79 3.79c-.155.154-.392.19-.585.09-4.956-2.589-8.999-6.635-11.582-11.593-.102-.194-.065-.432.09-.586l3.828-3.793c.326-.265.417-.724.216-1.093l-.042-.104c-.56-1.996-.856-4.057-.877-6.182.031-.328-.083-.654-.312-.891-.23-.237-.55-.363-.91-.342L2.212.999c-.325-.025-.644.092-.877.32zM27.5 13c.828 0 1.5.672 1.5 1.5s-.672 1.5-1.5 1.5-1.5-.672-1.5-1.5.672-1.5 1.5-1.5zm-5 0c.828 0 1.5.672 1.5 1.5s-.672 1.5-1.5 1.5-1.5-.672-1.5-1.5.672-1.5 1.5-1.5zm-5 0c.828 0 1.5.672 1.5 1.5s-.672 1.5-1.5 1.5-1.5-.672-1.5-1.5.672-1.5 1.5-1.5z"/>
</svg>
