<svg xmlns="http://www.w3.org/2000/svg" width="32" height="32" viewBox="0 0 32 32">
    <path fill="#0050D7" fill-rule="evenodd" d="M8.354 23.646c.195.196.195.512 0 .708L1.74 30.966h5.193c.276 0 .5.225.5.5 0 .277-.224.5-.5.5H.522c-.021 0-.042-.002-.063-.005l.074.006c-.036 0-.071-.004-.105-.011l-.046-.013-.04-.014c-.013-.006-.027-.012-.04-.02-.013-.006-.024-.012-.036-.02-.012-.007-.023-.015-.035-.024l-.039-.033-.012-.012-.012-.012c-.012-.013-.023-.026-.033-.04l.045.052c-.027-.027-.05-.056-.07-.087L.09 31.7l-.02-.042c-.004-.012-.01-.026-.013-.04-.005-.014-.01-.03-.013-.045L.04 31.54c-.003-.021-.005-.043-.006-.064v-6.41c0-.276.224-.5.5-.5s.5.224.5.5v5.193l6.613-6.614c.196-.195.512-.195.708 0zM12.136.6c.396.394.606.938.577 1.465.017 1.78.27 3.552.731 5.213.29.714.126 1.532-.418 2.078l-3.13 3.13c2.17 4.01 5.46 7.3 9.469 9.47l3.071-3.06c.293-.427.677-.65 1.12-.681.282-.02.52.03.875.144l.114.037c1.73.588 3.545.893 5.373.901.551-.028 1.09.178 1.48.569.395.395.602.94.569 1.467l-.001 5.367c.034.558-.173 1.103-.568 1.498-.395.395-.94.602-1.467.569-7.083.008-13.879-2.802-18.888-7.81-5.008-5.01-7.818-11.805-7.809-18.861-.03-.556.179-1.097.572-1.49.393-.393.934-.601 1.463-.573l5.368.001c.557-.033 1.103.173 1.5.566zm-6.893.433c-.272-.015-.537.087-.73.28-.193.193-.295.458-.28.757-.008 6.818 2.697 13.359 7.518 18.18 4.82 4.82 11.361 7.525 18.21 7.518.272.016.537-.085.73-.277.192-.193.293-.458.276-.76v-5.428c.017-.272-.084-.537-.276-.73-.193-.192-.458-.293-.73-.277l-.032.001c-1.941-.007-3.868-.33-5.7-.952l-.106-.035c-.24-.077-.379-.106-.498-.098-.136.01-.243.072-.423.32l-3.392 3.392c-.155.155-.392.191-.585.09-4.445-2.317-8.07-5.944-10.388-10.388-.101-.194-.065-.43.09-.585l3.39-3.391c.261-.262.34-.653.183-1.048-.504-1.8-.769-3.659-.786-5.56.015-.273-.088-.54-.283-.732-.194-.193-.461-.294-.764-.277H5.243zm24.444 1.28c.195.195.195.512 0 .707l-6.614 6.613h5.194c.276 0 .5.224.5.5s-.224.5-.5.5h-6.423c-.014 0-.029-.002-.043-.004l.066.004c-.038 0-.074-.004-.109-.011l-.042-.012c-.014-.004-.03-.01-.043-.016-.012-.004-.022-.01-.033-.015-.015-.007-.03-.016-.044-.025l-.031-.022-.036-.03-.016-.015-.016-.017c-.01-.01-.019-.021-.027-.033l.043.05c-.027-.027-.05-.056-.07-.087-.007-.011-.014-.023-.02-.036l-.018-.037-.015-.043c-.005-.014-.008-.028-.012-.043l-.007-.041-.004-.044V3.733c0-.276.224-.5.5-.5s.5.224.5.5v5.193l6.613-6.613c.195-.195.512-.195.707 0z"/>
</svg>
