<svg xmlns="http://www.w3.org/2000/svg" width="32" height="32" viewBox="0 0 32 32">
    <path fill="#0050D7" fill-rule="evenodd" d="M11.38.62c.406.407.62.968.587 1.507.023 1.832.286 3.654.762 5.363.303.735.133 1.58-.429 2.144l-3.26 3.26c2.241 4.21 5.667 7.671 9.854 9.956l3.32-3.363c.58-.416 1.311-.563 2.053-.387 1.805.612 3.696.927 5.57.934.575-.033 1.136.18 1.542.587.407.406.62.967.588 1.512l-.001 5.571c.033.574-.18 1.135-.587 1.542-.406.406-.967.62-1.511.587-5.334.014-10.55-1.518-15.023-4.402-.442 3.682-3.577 6.536-7.378 6.536-2.024 0-3.86-.81-5.2-2.122-.021-.015-.041-.032-.06-.051l-.052-.06C.842 28.392.033 26.556.033 24.533c0-3.802 2.854-6.937 6.536-7.38-2.884-4.471-4.416-9.687-4.401-14.992-.034-.574.18-1.135.586-1.541.407-.407.968-.62 1.513-.588l5.57.001c.575-.033 1.136.18 1.542.587zm.976 19.732l-9.07 9.071c1.124.962 2.585 1.544 4.18 1.544 3.554 0 6.434-2.88 6.434-6.434 0-1.596-.581-3.056-1.544-4.18zm10.507-.108l-3.52 3.574c-.155.157-.394.194-.59.091-1.88-.99-3.62-2.206-5.18-3.614.789 1.133 1.27 2.496 1.322 3.969l-.21-.142c4.46 3.081 9.758 4.725 15.21 4.712.29.017.572-.09.777-.295.205-.205.312-.488.295-.806v-5.629c.017-.289-.09-.571-.295-.776-.205-.205-.487-.312-.807-.295-2.013-.007-4.012-.34-5.872-.973-.414-.096-.85-.009-1.13.184zM7.467 18.1c-3.553 0-6.434 2.88-6.434 6.433 0 1.597.582 3.058 1.545 4.182l9.07-9.07c-1.124-.963-2.585-1.545-4.181-1.545zM4.237 1.032c-.288-.016-.57.091-.776.296-.204.205-.312.487-.294.807-.014 5.337 1.578 10.553 4.567 14.97 1.474.052 2.838.533 3.971 1.321-1.461-1.621-2.715-3.434-3.723-5.398-.1-.193-.062-.428.091-.582l3.52-3.52c.277-.277.36-.693.192-1.11-.519-1.849-.794-3.757-.817-5.712.016-.289-.091-.571-.296-.776-.205-.205-.487-.312-.805-.295h-5.63z"/>
</svg>
