<svg xmlns="http://www.w3.org/2000/svg" width="30" height="30" viewBox="0 0 30 30">
    <path fill="#0050D7" fill-rule="evenodd" d="M10.69.56c.388.387.591.922.56 1.435.017 1.731.263 3.453.712 5.065.289.701.128 1.507-.408 2.044l-3.035 3.034c.556.997 1.18 1.953 1.869 2.863L15.5 15c.427 0 .658.501.38.825l-2.313 2.697.17.152c1.213 1.054 2.544 1.964 3.966 2.713l3.105-3.143c.55-.396 1.245-.535 1.953-.368 1.688.573 3.458.868 5.21.875.547-.032 1.082.171 1.469.559.388.387.591.922.56 1.44v5.221c.031.547-.172 1.082-.56 1.469-.387.388-.922.591-1.44.56-6.285.011-12.354-2.262-17.081-6.387L10 22.685V26.5c0 .133-.053.26-.146.354l-3 3c-.315.315-.854.091-.854-.354v-6.815l-5.88-6.86C-.158 15.501.073 15 .5 15l4.986.001C3.2 11.055 1.995 6.571 2 2.03 1.969 1.482 2.172.947 2.56.56 2.947.172 3.482-.031 4 0h5.221c.547-.031 1.082.172 1.469.56zM14.413 16H1.587l5.293 6.175c.077.09.12.206.12.325v5.793l2-2V22.5c0-.12.043-.235.12-.325l1.368-1.598.012-.013.007-.01L14.413 16zm7.043 3l-3.3 3.35c-.152.156-.387.194-.581.096-1.684-.85-3.25-1.913-4.66-3.163l-1.346 1.57c4.546 3.97 10.385 6.158 16.46 6.148.262.015.518-.082.704-.268.186-.186.283-.442.267-.733v-5.279c.016-.262-.081-.518-.267-.704-.186-.186-.442-.283-.735-.267-1.89-.006-3.768-.32-5.511-.913-.38-.088-.779-.009-1.03.164zM3.971 1c-.262-.016-.518.081-.704.267-.186.186-.283.442-.267.734-.005 4.588 1.259 9.087 3.65 13h2.497c-.618-.868-1.182-1.775-1.687-2.714-.105-.194-.07-.434.086-.59l3.3-3.3c.251-.251.327-.629.173-1.012-.492-1.752-.75-3.56-.768-5.414.015-.262-.082-.518-.268-.704C9.797 1.081 9.54.984 9.25 1H3.971z"/>
</svg>
