<svg xmlns="http://www.w3.org/2000/svg" width="32" height="32" viewBox="0 0 32 32">
    <path fill="#0050D7" fill-rule="evenodd" d="M16 0c5.523 0 10 4.477 10 10 0 3.546-2.708 9.87-5.532 14H28.5c.2 0 .38.12.46.303l3 7a.5.5 0 0 1-.46.697H.5a.5.5 0 0 1-.46-.697l3-7A.5.5 0 0 1 3.5 24h8.032C8.708 19.87 6 13.546 6 10 6 4.477 10.477 0 16 0zm0 28c-1.026 0-2.375-1.19-3.748-2.999L12.25 25H3.83l-2.572 6h29.484l-2.572-6-8.422.001C18.375 26.81 17.026 28 16 28zm0-27a9 9 0 0 0-9 9c0 5.093 6.404 17 9 17s9-11.907 9-17a9 9 0 0 0-9-9zm0 4a5 5 0 1 1 0 10 5 5 0 0 1 0-10zm0 1a4 4 0 1 0 0 8 4 4 0 0 0 0-8z"/>
</svg>
