<svg xmlns="http://www.w3.org/2000/svg" width="32" height="32" viewBox="0 0 32 32">
    <path fill="#0050D7" fill-rule="evenodd" d="M17.6.033c1.454 0 2.633 1.18 2.633 2.634v5.9h2.7c.276 0 .5.224.5.5v4.803c-.002.367-.021.733-.057 1.098l.09-.001c4.695 0 8.5 3.805 8.5 8.5 0 4.694-3.805 8.5-8.5 8.5-4.151 0-7.607-2.977-8.351-6.912l-.215.065v6.347c0 .276-.224.5-.5.5H9.067c-.276 0-.5-.224-.5-.5v-6.345c-5.03-1.409-8.534-6-8.534-11.255v-4.8c0-.276.224-.5.5-.5h2.7v-5.9c0-1.455 1.18-2.634 2.634-2.634S8.5 1.213 8.5 2.667v5.9h6.466v-5.9c0-1.455 1.18-2.634 2.634-2.634zm5.867 15.934c-.163 0-.324.005-.484.015l-.076.006c-.037.008-.075.012-.114.01-3.827.34-6.826 3.554-6.826 7.469 0 4.142 3.358 7.5 7.5 7.5 4.142 0 7.5-3.358 7.5-7.5 0-4.142-3.358-7.5-7.5-7.5zm-1.034-6.4h-21.4v4.3c0 4.926 3.367 9.214 8.152 10.383.224.055.382.256.382.486v6.23H13.9v-6.23c0-.23.157-.43.38-.485.238-.06.473-.127.707-.202-.014-.192-.02-.387-.02-.582 0-4.32 3.223-7.888 7.395-8.43l-.051.387c.078-.517.12-1.038.122-1.557v-4.3zm-.301 10.809l4.266 2.667c.314.196.314.652 0 .848l-4.266 2.666c-.333.208-.765-.03-.765-.424V20.8c0-.393.432-.632.765-.424zM5.867 1.033c-.902 0-1.634.732-1.634 1.634v5.9H7.5v-5.9c0-.902-.731-1.634-1.633-1.634zm11.733 0c-.902 0-1.633.732-1.633 1.634v5.9h3.266v-5.9c0-.902-.73-1.634-1.633-1.634z"/>
</svg>
