<svg xmlns="http://www.w3.org/2000/svg" width="32" height="32" viewBox="0 0 32 32">
    <path fill="#0050D7" fill-rule="evenodd" d="M17.6.033a2.633 2.633 0 0 1 2.633 2.634v5.9h2.7a.5.5 0 0 1 .5.5v4.803c-.002.367-.021.733-.057 1.098l.09-.001a8.5 8.5 0 1 1-8.351 10.088l-.215.065v6.347a.5.5 0 0 1-.5.5H9.067a.5.5 0 0 1-.5-.5v-6.345A11.69 11.69 0 0 1 .033 13.867v-4.8a.5.5 0 0 1 .5-.5h2.7v-5.9a2.633 2.633 0 0 1 5.267 0v5.9h6.466v-5.9A2.633 2.633 0 0 1 17.6.033zm5.867 15.934c-.163 0-.324.005-.484.015l-.076.006a.497.497 0 0 1-.114.01 7.5 7.5 0 1 0 .673-.032zm-1.034-6.4h-21.4v4.3A10.69 10.69 0 0 0 9.185 24.25a.5.5 0 0 1 .382.486v6.23H13.9v-6.23a.5.5 0 0 1 .38-.485c.238-.06.473-.127.707-.202a8.502 8.502 0 0 1 7.376-9.011l-.052.386c.078-.517.12-1.038.122-1.557v-4.3zm-.301 10.809l4.266 2.667a.5.5 0 0 1 0 .848l-4.266 2.666a.5.5 0 0 1-.765-.424V20.8a.5.5 0 0 1 .765-.424zM5.867 1.033c-.902 0-1.634.732-1.634 1.634v5.9H7.5v-5.9c0-.902-.731-1.634-1.633-1.634zm11.733 0c-.902 0-1.633.732-1.633 1.634v5.9h3.266v-5.9c0-.902-.73-1.634-1.633-1.634z"/>
</svg>
