<svg xmlns="http://www.w3.org/2000/svg" width="32" height="32" viewBox="0 0 32 32">
    <path fill="#0050D7" fill-rule="evenodd" d="M24.5 2c.276 0 .5.224.5.5V8h6.5c.276 0 .5.224.5.5v13c0 .276-.224.5-.5.5H25v7.5c0 .276-.224.5-.5.5h-17c-.276 0-.5-.224-.5-.5V22H.5c-.276 0-.5-.224-.5-.5v-13c0-.276.224-.5.5-.5H7V2.5c0-.276.224-.5.5-.5h17zM24 18H8v11h16V18zm-2 8c.276 0 .5.224.5.5s-.224.5-.5.5H10c-.276 0-.5-.224-.5-.5s.224-.5.5-.5h12zm0-3c.276 0 .5.224.5.5s-.224.5-.5.5H10c-.276 0-.5-.224-.5-.5s.224-.5.5-.5h12zm9-14H1v12h6v-3.5c0-.276.224-.5.5-.5h17c.276 0 .5.224.5.5V21h6V9zM5 12c.552 0 1 .448 1 1s-.448 1-1 1-1-.448-1-1 .448-1 1-1zm19-9H8v5h16V3z"/>
</svg>
