<svg xmlns="http://www.w3.org/2000/svg" width="32" height="32" viewBox="0 0 32 32">
    <path fill="#0050D7" fill-rule="evenodd" d="M16.534 0h1.07a.502.502 0 1 1 0 1.002h-.568v5.912a.502.502 0 0 1-.502.501h-1.603a.502.502 0 0 1-.402-.2 2.17 2.17 0 0 0-3.906 1.303A2.171 2.171 0 0 0 14.53 9.82a.502.502 0 0 1 .402-.201h1.603c.278 0 .502.224.502.501v5.912h5.41v-.865a3.173 3.173 0 1 1 5.116-3.378 3.173 3.173 0 0 1-.906 3.378v.865h4.339l.001-.567a.502.502 0 0 1 1.004 0V30.6A1.4 1.4 0 0 1 30.6 32H1.4A1.4 1.4 0 0 1 0 30.601V1.4A1.4 1.4 0 0 1 1.4 0h15.134zM1.004 30.601c0 .22.177.397.396.397l14.632-.001v-4.843c0-.276.225-.5.502-.5h1.604c.158 0 .307.074.402.2a2.17 2.17 0 0 0 3.905-1.303 2.171 2.171 0 0 0-3.905-1.303.502.502 0 0 1-.402.2h-1.604a.502.502 0 0 1-.502-.5v-5.913h-5.409v.866a3.173 3.173 0 1 1-5.116 3.378 3.173 3.173 0 0 1 .906-3.378v-.866H1.004v13.566zm23.547-19.979a2.17 2.17 0 0 0-1.302 3.909.5.5 0 0 1 .2.4v1.603a.502.502 0 0 1-.502.501h-5.91v5.412h.862a3.175 3.175 0 0 1 5.55 2.104 3.173 3.173 0 0 1-5.55 2.105h-.863v4.342H30.6a.396.396 0 0 0 .396-.397V17.035h-4.842a.502.502 0 0 1-.502-.5V14.93a.5.5 0 0 1 .2-.4 2.172 2.172 0 0 0-1.301-3.909zm-8.519-9.62H1.4a.396.396 0 0 0-.396.397v14.634h5.911c.277 0 .502.225.502.501v1.604a.5.5 0 0 1-.2.4 2.172 2.172 0 0 0 1.301 3.909 2.17 2.17 0 0 0 1.302-3.909.5.5 0 0 1-.2-.4v-1.604c0-.276.224-.5.501-.5h5.911v-5.412h-.863a3.175 3.175 0 0 1-5.55-2.104 3.173 3.173 0 0 1 5.55-2.105h.863v-5.41zm15.455 11.554c.278 0 .502.225.502.501v.88a.502.502 0 0 1-1.004 0v-.88c0-.276.225-.5.502-.5zm0-3.808c.278 0 .502.225.502.501v1.904a.502.502 0 0 1-1.004 0V9.25c0-.276.225-.5.502-.5zm0-3.808c.278 0 .502.225.502.501v1.904a.502.502 0 0 1-1.004 0V5.441c0-.276.225-.5.502-.5zm0-3.807c.278 0 .502.224.502.5v1.905a.502.502 0 0 1-1.004 0V1.634c0-.277.225-.501.502-.501zM22.557 0a.502.502 0 1 1 0 1.002H20.65a.502.502 0 1 1 0-1.002h1.908zm3.815 0a.502.502 0 1 1 0 1.002h-1.907a.502.502 0 1 1 0-1.002h1.907zm3.816 0a.502.502 0 1 1 0 1.002H28.28a.502.502 0 1 1 0-1.002h1.908z"/>
</svg>
