<svg xmlns="http://www.w3.org/2000/svg" width="32" height="32" viewBox="0 0 32 32">
    <path fill="#0050D7" fill-rule="evenodd" d="M8.508 2c.276 0 .5.224.5.5v5c0 .276-.224.5-.5.5s-.5-.224-.5-.5V3.308l-.038.023C2.398 6.861-.224 13.636 1.55 20.017 3.353 26.511 9.267 31.003 16.007 31c.276 0 .5.224.5.5s-.223.5-.5.5C8.82 32.003 2.511 27.211.586 20.285c-1.81-6.51.67-13.401 6.087-17.285H3.508c-.276 0-.5-.224-.5-.5s.224-.5.5-.5h5zm7.5-2c7.121.002 13.384 4.71 15.364 11.55 1.893 6.54-.563 13.524-6.043 17.451L28.51 29c.275 0 .5.224.5.5s-.225.5-.5.5h-5c-.277 0-.5-.224-.5-.5v-5c0-.276.223-.5.5-.5.275 0 .5.224.5.5l-.001 4.186.013-.009c5.642-3.568 8.247-10.436 6.39-16.848C28.556 5.416 22.685 1.002 16.009 1c-.276 0-.5-.224-.5-.5s.224-.5.5-.5z"/>
</svg>
