<svg xmlns="http://www.w3.org/2000/svg" width="32" height="32" viewBox="0 0 32 32">
    <path fill="#0050D7" fill-rule="evenodd" d="M3.5 25C5.433 25 7 26.567 7 28.5S5.433 32 3.5 32 0 30.433 0 28.5 1.567 25 3.5 25zM.5 0C17.897 0 32 14.103 32 31.5c0 .276-.224.5-.5.5h-7c-.276 0-.5-.224-.5-.5C24 18.521 13.479 8 .5 8 .224 8 0 7.776 0 7.5v-7C0 .224.224 0 .5 0zm0 12C11.27 12 20 20.73 20 31.5c0 .276-.224.5-.5.5h-7c-.276 0-.5-.224-.5-.5C12 25.149 6.851 20 .5 20c-.276 0-.5-.224-.5-.5v-7c0-.276.224-.5.5-.5zm3 14C2.12 26 1 27.12 1 28.5S2.12 31 3.5 31 6 29.88 6 28.5 4.88 26 3.5 26zM1 1.004v6.001C14.134 7.268 24.732 17.866 24.995 31h6.001C30.732 14.552 17.448 1.268 1 1.004zm0 12.003v6.003c6.506.256 11.734 5.484 11.99 11.99h6.003C18.733 21.18 10.82 13.267 1 13.007z"/>
</svg>
