<svg xmlns="http://www.w3.org/2000/svg" width="32" height="32" viewBox="0 0 32 32">
    <g fill="#0050D7" fill-rule="evenodd">
        <path d="M30.5 2c.828 0 1.5.672 1.5 1.5v9c0 .828-.672 1.5-1.5 1.5h-29C.672 14 0 13.328 0 12.5v-9C0 2.672.672 2 1.5 2h29zm0 1h-29c-.276 0-.5.224-.5.5v9c0 .276.224.5.5.5h29c.276 0 .5-.224.5-.5v-9c0-.276-.224-.5-.5-.5zM27 6c.552 0 1 .448 1 1s-.448 1-1 1-1-.448-1-1 .448-1 1-1zM5.562 15c.276 0 .5.224.5.5l-.001 2.327 3.316.458.471.065c.107.015.206.064.283.14.854.842 1.94 1.413 3.038 1.63l3.306.098.189-.006.186.008c.805.064 1.54.508 1.967 1.21.493.81.493 1.827 0 2.637-.046.075-.096.148-.148.217l-.05.063.223-.002.176-.001.13-.001.16-.002.236-.005c.085-.001.167-.003.246-.006.035 0 .067-.002.1-.003l-.1.003.138-.004-.039.001c.178-.006.34-.013.49-.022.153-.01.294-.022.423-.036.162-.017.307-.039.44-.064l-.055.01.13-.025-.074.015.114-.024-.04.009.082-.019-.042.01.103-.024-.061.014.112-.028-.051.014.096-.026-.045.012c.135-.036.262-.078.39-.128l.04-.016-.04.016c.076-.03.152-.062.23-.097l.136-.064 6.444-3.081c.333-.182.707-.277 1.082-.275.197 0 .393.025.58.074.575.146 1.066.516 1.364 1.023.302.508.38 1.119.217 1.679-.157.57-.536 1.054-1.036 1.331l-7.56 4.624c-.318.197-.87.44-1.634.656-1.061.3-2.326.488-3.804.52l-.45.005c-1.49 0-3.336-.484-5.39-1.301-.74-.295-1.466-.617-2.158-.95-.46-.221-.83-.41-1.078-.546-.27-.104-.543-.192-.82-.265-.296-.078-.596-.137-.898-.18l-.1-.013.1.014c-.115-.017-.231-.03-.348-.04l.248.026c-.116-.014-.233-.026-.35-.036l.102.01c-.238-.023-.477-.034-.716-.034v2.834c0 .246-.177.45-.41.492l-.09.008H.5c-.276 0-.5-.224-.5-.5s.224-.5.5-.5h4.562V16H.5c-.276 0-.5-.224-.5-.5s.224-.5.5-.5h5.062zm.499 3.836v7.259l.25.004.099.003-.349-.007c.334 0 .667.02 1 .058l.061.008c.17.02.34.047.51.079.188.034.376.076.563.123.234.06.466.13.698.208.123.042.244.087.366.134.292.156.65.338 1.096.553.673.323 1.377.636 2.095.922 1.946.774 3.685 1.23 5.02 1.23 2.73 0 4.51-.504 5.363-1.032l7.581-4.636c.283-.157.49-.422.578-.74.088-.301.046-.625-.116-.898-.164-.28-.434-.483-.752-.564-.072-.019-.145-.031-.22-.037l-.112-.005c-.21-.001-.417.051-.625.165l-6.464 3.09c-.054.027-.108.053-.162.077-.94.423-1.603.507-3.933.517h-.592c-.242-.007-.485-.017-.727-.029l.727.03c-.365-.012-.73-.028-1.094-.049l-.233-.014c-.07 0-.142-.001-.214-.006l-.082-.014c-1.347-.094-2.678-.252-3.956-.47h-.107c-.276 0-.5-.224-.5-.5s.224-.5.5-.5l.19.007.827.13.115.016c.224.032.447.062.67.09l-.67-.09c.347.05.694.095 1.041.136l-.37-.045c.276.035.552.067.829.097l-.459-.052c.27.032.538.06.808.087l-.35-.035c.265.028.528.053.792.076l-.442-.04c.286.027.573.052.86.075l-.418-.035c.278.024.555.046.833.064l-.415-.03c.18.014.359.027.539.039.066-.004.13-.01.195-.021.028-.005.057-.01.085-.017l-.085.017c.05-.009.101-.02.15-.034l-.065.017c.044-.01.087-.022.13-.035l-.064.018c.051-.014.102-.03.151-.05l-.087.032c.045-.015.09-.032.134-.05l-.047.018c.041-.016.081-.033.12-.053l-.073.034c.045-.019.09-.04.133-.064l-.06.03c.045-.021.088-.045.13-.07l-.07.04c.042-.023.082-.048.122-.075l-.052.034c.04-.025.081-.053.12-.082l-.068.048c.041-.028.082-.058.12-.09l-.052.042c.037-.028.073-.058.108-.09l-.056.048c.04-.032.078-.067.115-.104l-.059.056c.036-.032.07-.066.102-.102l-.043.046c.082-.084.156-.178.219-.28.298-.491.298-1.108 0-1.598-.299-.49-.846-.774-1.468-.733l-3.435-.106c-1.317-.253-2.534-.875-3.51-1.792l-3.489-.483zm-3.623 5.56l.144.005c.143.012.286.047.422.107.5.217.82.715.808 1.26-.005.353-.15.69-.402.936-.216.212-.498.342-.793.373l-.149.007c-.546 0-1.038-.331-1.244-.837-.206-.506-.085-1.086.306-1.468.248-.243.575-.375.908-.382zm.008 1.001l-.078.015c-.052.015-.1.043-.14.082-.1.098-.13.246-.078.376.053.129.179.214.324.214.089 0 .174-.033.238-.095.063-.062.1-.147.1-.235.003-.146-.078-.273-.206-.33-.052-.021-.106-.03-.16-.027z"/>
    </g>
</svg>
