<svg xmlns="http://www.w3.org/2000/svg" width="32" height="32" viewBox="0 0 32 32">
    <path fill="#0050D7" fill-rule="evenodd" d="M26 0c2.761 0 5 2.239 5 5s-2.239 5-5 5c-1.708 0-3.215-.856-4.117-2.162l-11.283 6.2c.258.603.4 1.266.4 1.962s-.142 1.36-.4 1.962l11.283 6.2C22.785 22.856 24.293 22 26 22c2.761 0 5 2.239 5 5s-2.239 5-5 5-5-2.239-5-5c0-.696.142-1.36.4-1.962l-11.283-6.2C9.215 20.144 7.707 21 6 21c-2.761 0-5-2.239-5-5s2.239-5 5-5c1.708 0 3.215.856 4.117 2.162l11.283-6.2C21.142 6.359 21 5.696 21 5c0-2.761 2.239-5 5-5zm0 23c-1.504 0-2.814.83-3.498 2.058 0 .005-.002.009-.004.013l-.008.01c-.312.57-.49 1.223-.49 1.919 0 2.21 1.79 4 4 4s4-1.79 4-4-1.79-4-4-4zM6 12c-2.21 0-4 1.79-4 4s1.79 4 4 4c1.504 0 2.814-.83 3.498-2.058 0-.005.002-.009.004-.013l.008-.01c.312-.57.49-1.223.49-1.919s-.178-1.35-.49-1.92c-.004-.001-.006-.005-.008-.01l-.004-.012C8.814 12.83 7.504 12 6 12zM26 1c-2.21 0-4 1.79-4 4 0 .696.178 1.35.49 1.92.004.001.006.005.008.01l.004.012C23.186 8.17 24.496 9 26 9c2.21 0 4-1.79 4-4s-1.79-4-4-4z"/>
</svg>
