<svg xmlns="http://www.w3.org/2000/svg" width="32" height="32" viewBox="0 0 32 32">
    <path fill="#0050D7" fill-rule="evenodd" d="M16 0c8.837 0 16 7.163 16 16s-7.163 16-16 16S0 24.837 0 16 7.163 0 16 0zm0 1C7.716 1 1 7.716 1 16c0 8.284 6.716 15 15 15 8.284 0 15-6.716 15-15 0-8.284-6.716-15-15-15zm.006 18c3.716 0 7.083 1.15 8.832 2.993.21.221.217.586.015.816-.2.23-.534.238-.743.017-1.528-1.61-4.636-2.672-8.104-2.672-3.476 0-6.591 1.067-8.115 2.684-.208.221-.541.215-.743-.014-.202-.23-.196-.595.012-.816C8.906 20.156 12.28 19 16.006 19zM21 9c.552 0 1 .672 1 1.5s-.448 1.5-1 1.5-1-.672-1-1.5.448-1.5 1-1.5zM11 9c.552 0 1 .672 1 1.5s-.448 1.5-1 1.5-1-.672-1-1.5.448-1.5 1-1.5z"/>
</svg>
