<svg xmlns="http://www.w3.org/2000/svg" width="32" height="32" viewBox="0 0 32 32">
    <path fill="#0050D7" fill-rule="evenodd" d="M26.5 5c3.038 0 5.5 2.462 5.5 5.5v11c0 3.038-2.462 5.5-5.5 5.5H9.499c-.794-.002-1.563-.273-2.186-.774-.473-.388-1.153-.388-1.63.004-.619.497-1.388.768-2.183.77h-3c-.505 0-.692-.663-.26-.927C1.857 25.084 2.89 23.365 3 21.5v-11C3 7.462 5.462 5 8.5 5h18zm0 1h-18C6.015 6 4 8.015 4 10.5v11.03c-.101 1.71-.842 3.3-2.045 4.47h1.544c.567-.001 1.116-.195 1.554-.546.84-.691 2.053-.691 2.89-.004.442.355.991.549 1.557.55h17c2.485 0 4.5-2.015 4.5-4.5v-11C31 8.015 28.985 6 26.5 6zm-1 13c.276 0 .5.224.5.5s-.224.5-.5.5h-16c-.276 0-.5-.224-.5-.5s.224-.5.5-.5h16zm0-4c.276 0 .5.224.5.5s-.224.5-.5.5h-16c-.276 0-.5-.224-.5-.5s.224-.5.5-.5h16zm0-4c.276 0 .5.224.5.5s-.224.5-.5.5h-16c-.276 0-.5-.224-.5-.5s.224-.5.5-.5h16z"/>
</svg>
