<svg xmlns="http://www.w3.org/2000/svg" width="32" height="32" viewBox="0 0 32 32">
    <path fill="#0050D7" fill-rule="evenodd" d="M19.992.41l1.572 8.641A8.5 8.5 0 1 1 22.5 26l-.19-.003-1.363 2.727a.5.5 0 0 1-.349.266l-15 3-.024.005-.027.003-.004-.001-.005.002-.007-.001L5.52 32l.006-.002-.048.002a.494.494 0 0 1-.171-.039l-.03-.014-.01-.005-.043-.025.018.01-.01-.005a.5.5 0 0 1-.156-.157l-.023-.04a.55.55 0 0 1-.043-.128l-.002-.008-4-22a.5.5 0 0 1 .045-.313l3-6 .006-.012a.503.503 0 0 1 .024-.04l-.03.052a.502.502 0 0 1 .349-.266l15-3a.5.5 0 0 1 .59.4zM5.598 31.99l-.072.008h.005l.012-.001.055-.007zm11.73-7.744l-8.491 1.696-2.433 4.867 13.758-2.751 1.075-2.151a8.458 8.458 0 0 1-3.908-1.66zM4.277 5.065l-2.254 4.51 3.7 20.36 2.256-4.511-3.702-20.36zM22.5 10c-.402 0-.797.032-1.182.093a.327.327 0 0 1-.068.019l-.09.008-.085.015a7.502 7.502 0 0 0-3.32 13.174A7.455 7.455 0 0 0 22.5 25a7.5 7.5 0 0 0 .001-14.999zm-3.4-8.91L5.08 3.894 8.9 24.91l7.494-1.496A8.503 8.503 0 0 1 20.58 9.218L19.1 1.09zM22.5 15a2.5 2.5 0 1 1 0 5 2.5 2.5 0 0 1 0-5zm0 1a1.5 1.5 0 1 0 0 3 1.5 1.5 0 0 0 0-3z"/>
</svg>
