<svg xmlns="http://www.w3.org/2000/svg" width="32" height="32" viewBox="0 0 32 32">
    <path fill="#0050D7" fill-rule="evenodd" d="M19 .5v31c0 .42-.485.652-.812.39L8.325 24H1.5c-.276 0-.5-.224-.5-.5v-15c0-.276.224-.5.5-.5h6.825L18.188.11c.327-.262.812-.03.812.39zm-1 1.04L8.812 8.89c-.088.071-.198.11-.312.11H2v14h6.5c.114 0 .224.039.312.11L18 30.46V1.54zm3.854 9.606L26 15.293l4.146-4.147c.196-.195.512-.195.708 0 .195.196.195.512 0 .708L26.707 16l4.147 4.146c.195.196.195.512 0 .708-.196.195-.512.195-.708 0L26 16.707l-4.146 4.147c-.196.195-.512.195-.708 0-.195-.196-.195-.512 0-.708L25.293 16l-4.147-4.146c-.195-.196-.195-.512 0-.708.196-.195.512-.195.708 0z"/>
</svg>
