<svg xmlns="http://www.w3.org/2000/svg" width="32" height="32" viewBox="0 0 32 32">
    <path fill="#0050D7" fill-rule="evenodd" d="M19 .5v31c0 .42-.485.652-.812.39L8.325 24H1.5c-.276 0-.5-.224-.5-.5v-15c0-.276.224-.5.5-.5h6.825L18.188.11c.327-.262.812-.03.812.39zm-1 1.04L8.812 8.89c-.088.071-.198.11-.312.11H2v14h6.5c.114 0 .224.039.312.11L18 30.46V1.54zm8.375 4.762c2.92 2.374 4.614 5.936 4.614 9.698 0 3.762-1.695 7.324-4.614 9.698-.214.174-.529.142-.703-.073-.174-.214-.142-.529.073-.703 2.685-2.184 4.244-5.46 4.244-8.922 0-3.461-1.56-6.738-4.244-8.922-.215-.174-.247-.49-.073-.703.174-.215.49-.247.703-.073zM22.786 9.85c2.01 1.403 3.207 3.7 3.207 6.15s-1.197 4.747-3.207 6.15c-.226.158-.538.103-.696-.124-.158-.226-.103-.538.124-.696 1.742-1.216 2.78-3.206 2.78-5.33s-1.038-4.114-2.78-5.33c-.227-.158-.282-.47-.124-.696.158-.227.47-.282.696-.124z"/>
</svg>
