<svg xmlns="http://www.w3.org/2000/svg" width="32" height="32" viewBox="0 0 32 32">
    <path fill="#0050D7" fill-rule="evenodd" d="M25.5 5.96a3.5 3.5 0 0 1 3.5 3.5v5.97a5.79 5.79 0 0 0 2.76 4.603c.432.264.245.927-.26.927h-3.001a3.503 3.503 0 0 1-2.185-.773 1.281 1.281 0 0 0-1.621.003 3.5 3.5 0 0 1-2.183.77h-.52v2.54a3.5 3.5 0 0 1-3.5 3.5H9.489a3.503 3.503 0 0 1-2.185-.773 1.281 1.281 0 0 0-1.621.003A3.5 3.5 0 0 1 3.5 27h-3c-.505 0-.692-.663-.26-.927A5.78 5.78 0 0 0 3 21.5v-6A3.5 3.5 0 0 1 6.5 12l3.5-.001V9.46a3.5 3.5 0 0 1 3.5-3.5h12zm-7 7.04h-12A2.5 2.5 0 0 0 4 15.5v6.03A6.79 6.79 0 0 1 1.954 26h1.544a2.497 2.497 0 0 0 1.555-.547 2.279 2.279 0 0 1 2.879-.003A2.5 2.5 0 0 0 9.49 26h9a2.5 2.5 0 0 0 2.5-2.5v-8A2.5 2.5 0 0 0 18.5 13zm7-6.04h-12a2.5 2.5 0 0 0-2.5 2.5v2.539l7.5.001a3.5 3.5 0 0 1 3.49 3.5v4.46h.519a2.497 2.497 0 0 0 1.555-.547 2.279 2.279 0 0 1 2.879-.003 2.5 2.5 0 0 0 1.557.55h1.545A6.819 6.819 0 0 1 28 15.46v-6a2.5 2.5 0 0 0-2.5-2.5z"/>
</svg>
