<svg xmlns="http://www.w3.org/2000/svg" width="32" height="32" viewBox="0 0 32 32">
    <path fill="#0050D7" fill-rule="evenodd" d="M15.752 25.086c.154-.088.342-.088.496 0l8.618 4.911-2.016-9.715c-.036-.174.023-.353.154-.472l7.34-6.675-9.859-1.088c-.176-.02-.328-.13-.4-.291L16 2.715l-4.084 9.04c-.073.162-.225.273-.401.292l-9.859 1.088 7.34 6.675c.131.12.19.298.154.472l-2.016 9.715 8.618-4.911zm.248 1.01l-9.332 5.318c-.374.214-.825-.114-.738-.536l2.182-10.52L.164 13.13c-.319-.29-.147-.82.281-.867l10.677-1.179 4.422-9.79c.178-.392.734-.392.912 0l4.422 9.79 10.677 1.179c.428.047.6.577.281.867l-7.948 7.228 2.182 10.52c.087.422-.364.75-.738.536L16 26.096z"/>
</svg>
