<svg xmlns="http://www.w3.org/2000/svg" width="32" height="32" viewBox="0 0 32 32">
    <path fill="#0050D7" fill-rule="evenodd" d="M26.854 17.146l5 5 .011.013c.012.012.023.025.033.039l-.044-.052c.026.027.05.056.069.087l.02.035.02.041.014.04c.005.015.009.03.012.046l.006.033.005.052v.04l-.005.052L32 22.5c0 .036-.004.071-.011.105l-.012.046-.015.04c-.005.014-.012.027-.019.04-.006.013-.013.025-.02.036l-.025.035c-.01.014-.02.027-.033.04l-.011.012-5 5c-.196.195-.512.195-.708 0-.195-.196-.195-.512 0-.708L30.292 23H28.5c-.276 0-.5-.224-.5-.5s.224-.5.5-.5h1.792l-4.146-4.146c-.195-.196-.195-.512 0-.708.196-.195.512-.195.708 0zM25.5 22c.276 0 .5.224.5.5s-.224.5-.5.5h-3c-.276 0-.5-.224-.5-.5s.224-.5.5-.5h3zm-6 0c.276 0 .5.224.5.5s-.224.5-.5.5h-3c-.276 0-.5-.224-.5-.5s.224-.5.5-.5h3zm-6 0c.276 0 .5.224.5.5s-.224.5-.5.5h-3c-.276 0-.5-.224-.5-.5s.224-.5.5-.5h3zm-6 0c.276 0 .5.224.5.5s-.224.5-.5.5h-3c-.276 0-.5-.224-.5-.5s.224-.5.5-.5h3zm-6 0c.276 0 .5.224.5.5s-.224.5-.5.5h-1c-.276 0-.5-.224-.5-.5s.224-.5.5-.5h1zM26.854 4.146l5 5 .011.013c.012.012.023.025.033.039l-.044-.052c.026.027.05.056.069.087l.02.035.02.041.014.04c.005.015.009.03.012.046l.006.033.005.052v.04l-.005.052L32 9.5c0 .036-.004.071-.011.105l-.012.046-.015.04c-.005.014-.012.027-.019.04-.006.013-.013.025-.02.036l-.025.035c-.01.014-.02.027-.033.04l-.011.012-5 5c-.196.195-.512.195-.708 0-.195-.196-.195-.512 0-.708L30.292 10H.5c-.276 0-.5-.224-.5-.5S.224 9 .5 9h29.792l-4.146-4.146c-.195-.196-.195-.512 0-.708.196-.195.512-.195.708 0z"/>
</svg>
