<svg xmlns="http://www.w3.org/2000/svg" width="32" height="32" viewBox="0 0 32 32">
    <path fill="#0050D7" fill-rule="evenodd" d="M31.5 5c.276 0 .5.224.5.5v21c0 .276-.224.5-.5.5H.5c-.276 0-.5-.224-.5-.5v-21c0-.276.224-.5.5-.5h31zM31 6H1v20h30V6zM9.5 21C7.015 21 5 18.985 5 16.5S7.015 12 9.5 12s4.5 2.015 4.5 4.5c0 1.414-.652 2.676-1.672 3.5h7.344C18.652 19.177 18 17.915 18 16.5c0-2.485 2.015-4.5 4.5-4.5s4.5 2.015 4.5 4.5-2.015 4.5-4.5 4.5h-13zm0-8C7.567 13 6 14.567 6 16.5S7.567 20 9.5 20s3.5-1.567 3.5-3.5S11.433 13 9.5 13zm13 0c-1.933 0-3.5 1.567-3.5 3.5s1.567 3.5 3.5 3.5 3.5-1.567 3.5-3.5-1.567-3.5-3.5-3.5z"/>
</svg>
