<svg xmlns="http://www.w3.org/2000/svg" width="32" height="32" viewBox="0 0 32 32">
    <path fill="#0050D7" fill-rule="evenodd" d="M28 19h-5.53c-.277 0-.5.224-.5.5s.223.5.5.5H27c1.104 0 2 .896 2 2s-.896 2-2 2H22.45c-.275 0-.5.224-.5.5s.225.5.5.5h2.383c1.142.008 2.088.894 2.17 2.035-.007 1.067-.9 1.96-2.004 1.965H7V9.993l2.496.017c.073 0 .143-.015.206-.045 2.321-.102 4.185-1.963 4.293-4.283l.003-.134L14 5.53v-2.4c.026-.626.56-1.134 1.206-1.13C16.743 1.995 17.99 3.231 18 4.763V9.5c0 .276.224.5.5.5H28c1.104 0 2 .896 2 2s-.896 2-2 2h-5.53c-.277 0-.5.224-.5.5s.223.5.5.5H28c1.104 0 2 .896 2 2s-.896 2-2 2m1.656-4.499c.81-.537 1.344-1.457 1.344-2.5 0-1.658-1.344-3-3-3h-9V4.76C18.987 2.673 17.291.993 15.208 1 14.028.992 13.05 1.925 13 3.11v2.36c0 1.933-1.567 3.5-3.5 3.5-.068 0-.133.013-.19.038L7 8.993V7.5c0-.276-.224-.5-.5-.5h-5c-.276 0-.5.224-.5.5s.224.5.5.5H6v22H1.5c-.276 0-.5.224-.5.5s.224.5.5.5h5c.276 0 .5-.224.5-.5V30h18.1c.017 0 .035 0 .05-.004 1.585-.085 2.843-1.392 2.85-2.994-.056-.784-.378-1.48-.874-2.005C28.726 24.931 30 23.614 30 22c0-.864-.365-1.643-.95-2.188C30.188 19.386 31 18.287 31 17c0-1.044-.534-1.964-1.344-2.499"/>
</svg>
