<svg xmlns="http://www.w3.org/2000/svg" width="32" height="32" viewBox="0 0 32 32">
    <path fill="#0050D7" fill-rule="evenodd" d="M3.5 25C5.433 25 7 26.567 7 28.5S5.433 32 3.5 32 0 30.433 0 28.5 1.567 25 3.5 25zm28 5c.276 0 .5.224.5.5s-.224.5-.5.5h-20c-.276 0-.5-.224-.5-.5s.224-.5.5-.5h20zm-28-4C2.12 26 1 27.12 1 28.5S2.12 31 3.5 31 6 29.88 6 28.5 4.88 26 3.5 26zm28 1c.276 0 .5.224.5.5s-.224.5-.5.5h-20c-.276 0-.5-.224-.5-.5s.224-.5.5-.5h20zm-28-15C5.433 12 7 13.567 7 15.5S5.433 19 3.5 19 0 17.433 0 15.5 1.567 12 3.5 12zm0 1C2.12 13 1 14.12 1 15.5S2.12 18 3.5 18 6 16.88 6 15.5 4.88 13 3.5 13zm28 4c.276 0 .5.224.5.5s-.224.5-.5.5h-20c-.276 0-.5-.224-.5-.5s.224-.5.5-.5h20zm0-3c.276 0 .5.224.5.5s-.224.5-.5.5h-20c-.276 0-.5-.224-.5-.5s.224-.5.5-.5h20zM7.82.116c.212.177.24.492.064.704l-5 6c-.188.226-.53.241-.738.034l-2-2c-.195-.196-.195-.512 0-.708.196-.195.512-.195.708 0L2.466 5.76 7.116.18c.177-.211.492-.24.704-.063zM31.5 5c.276 0 .5.224.5.5s-.224.5-.5.5h-20c-.276 0-.5-.224-.5-.5s.224-.5.5-.5h20zm0-3c.276 0 .5.224.5.5s-.224.5-.5.5h-20c-.276 0-.5-.224-.5-.5s.224-.5.5-.5h20z"/>
</svg>
