<svg xmlns="http://www.w3.org/2000/svg" width="32" height="32" viewBox="0 0 32 32">
    <path fill="#0050D7" fill-rule="evenodd" d="M16.468.324L26.846 28H31.5c.276 0 .5.224.5.5v3c0 .276-.224.5-.5.5H.5c-.276 0-.5-.224-.5-.5v-3c0-.276.224-.5.5-.5h4.653L15.532.324c.162-.432.774-.432.936 0zM31 29H1v2h30v-2zm-7.847-8H8.846l-2.625 7h19.557l-2.625-7zm-1.5-4H10.346l-1.125 3h13.557l-1.125-3zm-1.5-4h-8.307l-1.125 3h10.557l-1.125-3zm-1.5-4h-5.307l-1.125 3h7.557l-1.125-3zM16 1.924L13.721 8h4.557L16 1.924z"/>
</svg>
