<svg xmlns="http://www.w3.org/2000/svg" width="32" height="32" viewBox="0 0 32 32">
    <path fill="#0050D7" fill-rule="evenodd" d="M20.8.033c.865 0 1.567.702 1.567 1.567v8.032l8.033.001c.865 0 1.567.702 1.567 1.567v19.2c0 .865-.702 1.567-1.567 1.567H11.2c-.865 0-1.567-.702-1.567-1.567v-8.034H1.6c-.865 0-1.567-.7-1.567-1.566V1.6C.033.735.735.033 1.6.033h19.2zm0 1H1.6c-.313 0-.567.254-.567.567v19.2c0 .313.254.567.567.567h8.032l.001-4.834c0-.276.224-.5.5-.5s.5.224.5.5V30.4c0 .313.254.567.567.567h19.2c.313 0 .567-.254.567-.567V11.2c0-.313-.254-.567-.567-.567H16.533c-.276 0-.5-.224-.5-.5s.224-.5.5-.5h4.833V1.6c0-.313-.253-.567-.566-.567zM10.487 9.78l13.012 13.012.001-4.125c0-.276.224-.5.5-.5s.5.224.5.5v5.356l-.004.043L24.5 24c0 .037-.004.073-.012.108l-.011.042-.016.044-.015.033c-.008.014-.016.03-.025.043l-.022.032-.03.035-.015.017-.016.015-.036.03.052-.045c-.026.025-.054.048-.083.066-.015.01-.03.018-.045.026l-.032.015-.044.016-.042.011-.042.008-.043.003L24 24.5h-5.333c-.276 0-.5-.224-.5-.5s.224-.5.5-.5h4.125L9.78 10.486c-.195-.195-.195-.512 0-.707.195-.195.512-.195.707 0z"/>
</svg>
