<svg xmlns="http://www.w3.org/2000/svg" width="32" height="32" viewBox="0 0 32 32">
    <path fill="#0050D7" fill-rule="evenodd" d="M20.5 0A1.5 1.5 0 0 1 22 1.5V4h6.5A1.5 1.5 0 0 1 30 5.5v5a.5.5 0 0 1-.5.5H28v17.5a3.5 3.5 0 0 1-3.5 3.5h-17A3.5 3.5 0 0 1 4 28.5V11H2.5a.5.5 0 0 1-.5-.5v-5A1.5 1.5 0 0 1 3.5 4H10V1.5A1.5 1.5 0 0 1 11.5 0h9zM27 11H5v17.5A2.5 2.5 0 0 0 7.5 31h17a2.5 2.5 0 0 0 2.5-2.5V11zM8.5 15a.5.5 0 0 1 .5.5v11a.5.5 0 1 1-1 0v-11a.5.5 0 0 1 .5-.5zm15 0a.5.5 0 0 1 .5.5v11a.5.5 0 1 1-1 0v-11a.5.5 0 0 1 .5-.5zm-10 0a.5.5 0 0 1 .5.5v11a.5.5 0 1 1-1 0v-11a.5.5 0 0 1 .5-.5zm5 0a.5.5 0 0 1 .5.5v11a.5.5 0 1 1-1 0v-11a.5.5 0 0 1 .5-.5zm10-10h-25a.5.5 0 0 0-.5.5V10h26V5.5a.5.5 0 0 0-.5-.5zm-8-4h-9a.5.5 0 0 0-.5.5V4h10V1.5a.5.5 0 0 0-.5-.5z"/>
</svg>
