<svg xmlns="http://www.w3.org/2000/svg" width="32" height="32" viewBox="0 0 32 32">
    <path fill="#0050D7" fill-rule="evenodd" d="M20.5 0c.828 0 1.5.672 1.5 1.5V4h6.5c.828 0 1.5.672 1.5 1.5v5c0 .276-.224.5-.5.5H28v17.5c0 1.933-1.567 3.5-3.5 3.5h-17C5.567 32 4 30.433 4 28.5V11H2.5c-.276 0-.5-.224-.5-.5v-5C2 4.672 2.672 4 3.5 4H10V1.5c0-.828.672-1.5 1.5-1.5h9zM27 11H5v17.5C5 29.88 6.12 31 7.5 31h17c1.38 0 2.5-1.12 2.5-2.5V11zM8.5 15c.276 0 .5.224.5.5v11c0 .276-.224.5-.5.5s-.5-.224-.5-.5v-11c0-.276.224-.5.5-.5zm15 0c.276 0 .5.224.5.5v11c0 .276-.224.5-.5.5s-.5-.224-.5-.5v-11c0-.276.224-.5.5-.5zm-10 0c.276 0 .5.224.5.5v11c0 .276-.224.5-.5.5s-.5-.224-.5-.5v-11c0-.276.224-.5.5-.5zm5 0c.276 0 .5.224.5.5v11c0 .276-.224.5-.5.5s-.5-.224-.5-.5v-11c0-.276.224-.5.5-.5zm10-10h-25c-.276 0-.5.224-.5.5V10h26V5.5c0-.276-.224-.5-.5-.5zm-8-4h-9c-.276 0-.5.224-.5.5V4h10V1.5c0-.276-.224-.5-.5-.5z"/>
</svg>
