<svg xmlns="http://www.w3.org/2000/svg" width="32" height="32" viewBox="0 0 32 32">
    <path fill="#0050D7" fill-rule="evenodd" d="M11.5 8c.276 0 .5.224.5.5s-.224.5-.5.5H3.124c-.295-.004-.578.11-.79.315-.21.206-.33.487-.334.775v18.814c.004.294.124.575.335.78.21.206.494.32.795.316h25.746c.295.004.578-.11.79-.315.21-.206.33-.487.334-.775V10.096c-.004-.294-.124-.575-.335-.78-.21-.206-.494-.32-.795-.316H21.5c-.276 0-.5-.224-.5-.5s.224-.5.5-.5h7.364c.56-.007 1.099.209 1.5.6.4.39.63.924.636 1.49v18.826c-.007.56-.236 1.094-.637 1.485-.4.39-.94.606-1.493.6H3.136c-.56.006-1.099-.21-1.5-.6-.4-.391-.63-.925-.636-1.491V10.084c.007-.56.236-1.094.637-1.485.4-.39.94-.606 1.493-.6h8.37zm5.354-6.854l4 4c.195.196.195.512 0 .708-.196.195-.512.195-.708 0L17 2.707V16.49c0 .276-.224.5-.5.5s-.5-.224-.5-.5V2.707l-3.146 3.147c-.196.195-.512.195-.708 0-.195-.196-.195-.512 0-.708l4-4c.196-.195.512-.195.708 0z"/>
</svg>
