<svg xmlns="http://www.w3.org/2000/svg" width="32" height="32" viewBox="0 0 32 32">
    <path fill="#0050D7" fill-rule="evenodd" d="M11.995 12c2.892-.032 5.55 1.547 6.914 4.075.355-.05.72-.075 1.091-.075 4.418 0 8 3.582 8 8s-3.582 8-8 8-8-3.582-8-8H4.5c-.276 0-.5-.224-.5-.5v-3c0-4.79 3.399-8.5 7.995-8.5zm13.296 7.416l-9.875 9.875C16.644 30.356 18.246 31 20 31c3.866 0 7-3.134 7-7 0-1.753-.644-3.356-1.71-4.584zM20 17c-.419 0-.83.037-1.228.107l.074-.026c-.06.028-.12.044-.181.048C15.437 17.75 13 20.59 13 24c0 1.753.644 3.356 1.71 4.584l9.874-9.875C23.356 17.644 21.754 17 20 17zm-8-4c-4.028 0-7 3.244-7 7.5V23h7.062c.403-3.235 2.738-5.87 5.815-6.715C16.652 14.238 14.422 12.974 12 13zm0-13c2.761 0 5 2.239 5 5s-2.239 5-5 5-5-2.239-5-5 2.239-5 5-5zm0 1C9.79 1 8 2.79 8 5s1.79 4 4 4 4-1.79 4-4-1.79-4-4-4z"/>
</svg>
