<svg xmlns="http://www.w3.org/2000/svg" width="32" height="32" viewBox="0 0 32 32">
    <path fill="#0050D7" fill-rule="evenodd" d="M15.23 18h1.557c4.55.153 8.155 3.86 8.214 8.374L25 31.5c0 .276-.224.5-.5.5h-17c-.276 0-.5-.224-.5-.5v-4.862C6.922 22 10.577 18.156 15.23 18zm.02.999h-.003c-4.09.138-7.316 3.53-7.247 7.631V31h16v-4.378c.069-4.093-3.156-7.485-7.23-7.622h-.02l2.212 5.308c.071.172.041.369-.078.512l-2.5 3c-.2.24-.568.24-.768 0l-2.5-3c-.12-.143-.15-.34-.078-.512l2.212-5.309zm.75.801l-1.922 4.613L16 26.719l1.922-2.306L16 19.8zM16.002 0c4.41.018 7.98 3.588 7.998 8v3.525l-.003.033L24 11.5c0 .038-.004.074-.012.11l-.012.043-.012.034-.02.044-.02.035-.023.032-.03.038-.025.025c-.012.012-.025.023-.039.034l-.03.022-.038.022c-.013.007-.027.014-.042.02-.014.007-.028.012-.042.017l-.018.005-1.95.558C20.904 15.202 18.736 17 16 17c-3.453 0-6-2.861-6-6.71C10 6.335 12.624 3 16 3s6 3.335 6 7.29c0 .391-.026.772-.077 1.14L23 11.123v-3.12c-.015-3.86-3.141-6.987-6.998-7.002-3.86.015-6.987 3.141-7.002 7v3.5c0 .276-.224.5-.5.5s-.5-.224-.5-.5V7.998C8.018 3.588 11.588.018 16.002 0zM16 4c-2.764 0-5 2.842-5 6.29 0 3.32 2.126 5.71 5 5.71 2.053 0 3.724-1.219 4.511-3.126l-3.874 1.107c-.265.076-.542-.078-.618-.344-.076-.265.078-.542.344-.618l4.494-1.283c.094-.457.143-.94.143-1.446C21 6.842 18.764 4 16 4z"/>
</svg>
