<?xml version="1.0" encoding="utf-8"?>
<!-- Generator: $$$/GeneralStr/196=Adobe Illustrator 27.6.0, SVG Export Plug-In . SVG Version: 6.00 Build 0)  -->
<svg version="1.1" xmlns="http://www.w3.org/2000/svg" xmlns:xlink="http://www.w3.org/1999/xlink" x="0px" y="0px"
	 viewBox="0 0 32 32" style="enable-background:new 0 0 32 32;" xml:space="preserve">
<style type="text/css">
	.st0{fill:#0050D7;}
	.st1{display:none;}
	.st2{display:inline;}
</style>
<g id="Calque_1">
	<g>
		<path class="st0" d="M19.4,2.5v8.3H11V2.5H19.4 M20.4,1.5H10v10.3h10.3V1.5L20.4,1.5z"/>
	</g>
	<g>
		<path class="st0" d="M15.2,20.5l4.3,4.3l-4.3,4.3l-4.3-4.3L15.2,20.5 M15.2,19.1l-5.7,5.7l5.7,5.7l5.7-5.7L15.2,19.1L15.2,19.1z"
			/>
	</g>
	
		<rect id="Rectangle_4922_00000034789594688049576240000000329748729541268106_" x="14.6" y="11.2" class="st0" width="1.1" height="9.2"/>
	
		<rect id="Rectangle_4923_00000107586890767377857170000015922369568759025843_" x="13.1" y="22.7" transform="matrix(0.7071 -0.7071 0.7071 0.7071 -13.0905 18.0007)" class="st0" width="4.2" height="4.2"/>
</g>
<g id="Calque_2" class="st1">
	<g id="Groupe_192593" transform="translate(415.662 302.087)" class="st2">
		<rect id="Rectangle_4922" x="-399.9" y="-292.8" class="st0" width="1.5" height="8.8"/>
		<path id="Tracé_29542" class="st0" d="M-402.8-300.1h7.3v7.3h-7.3V-300.1z M-404.3-301.6v10.3h10.3v-10.3H-404.3z"/>
		<path id="Tracé_29543" class="st0" d="M-404.3-278.8l5.2-5.2l5.2,5.2l-5.2,5.2L-404.3-278.8z M-400.2-285l-5.2,5.2l-1.1,1.1
			l1.1,1.1l5.2,5.2l1.1,1.1l1.1-1.1l5.2-5.2l1.1-1.1l-1.1-1.1l-5.2-5.2l-1.1-1.1L-400.2-285z"/>
		
			<rect id="Rectangle_4923" x="-401.3" y="-280.9" transform="matrix(0.7071 -0.7071 0.7071 0.7071 80.2045 -363.9119)" class="st0" width="4.2" height="4.2"/>
	</g>
</g>
</svg>
