<svg xmlns="http://www.w3.org/2000/svg" width="32" height="32" viewBox="0 0 32 32">
    <path fill="#0050D7" fill-rule="evenodd" d="M21.326 1.808c5.56 3.056 8.451 9.393 7.13 15.586 2.117 1.432 3.51 3.856 3.51 6.606 0 4.4-3.566 7.967-7.966 7.967-2.752 0-5.178-1.396-6.61-3.518l.17-.036c-1.033.233-2.071.348-3.099.352l-.061.002-.09-.002c-5.116-.033-9.938-2.807-12.488-7.434-3.085-5.6-2.1-12.564 2.419-17.087C8.76-.28 15.724-1.272 21.326 1.808zM24 17.033c-3.848 0-6.967 3.12-6.967 6.967 0 .957.193 1.869.542 2.699l.135.3.036.058c.012.024.023.048.03.073 1.145 2.276 3.502 3.837 6.224 3.837 3.848 0 6.967-3.12 6.967-6.967 0-3.848-3.12-6.967-6.967-6.967zM13.9 27.736V21.3l-5.776.001c1.218 3.64 3.36 6.135 5.777 6.436zm2.603-6.437h-1.604l.002 6.432c.624-.08 1.226-.291 1.764-.62-.407-.957-.632-2.008-.632-3.111 0-.948.166-1.857.47-2.7zM24 20.3c.276 0 .5.224.5.5v2.7h2.7c.276 0 .5.224.5.5s-.224.5-.5.5h-2.7v2.7c0 .276-.224.5-.5.5s-.5-.224-.5-.5v-2.7h-2.7c-.276 0-.5-.224-.5-.5s.224-.5.5-.5h2.7v-2.7c0-.276.224-.5.5-.5zm-13.408 6.909c-1.497-1.314-2.722-3.383-3.52-5.908H2.96c1.757 2.914 4.509 4.977 7.633 5.908zm11.146-12.308L14.9 14.9v5.4h2.044c.979-1.862 2.673-3.289 4.716-3.916l-.002.014.008-.057c.05-.404.068-.786.073-1.439zM2.412 20.3h4.374c-.43-1.659-.683-3.483-.721-5.4H1.047c.069 1.84.518 3.68 1.365 5.4zm5.409 0h6.078v-5.4H7.065c.04 1.937.308 3.764.756 5.4zm19.942-5.4h-5.025c-.003.531-.016.898-.046 1.241.425-.071.862-.108 1.308-.108 1.272 0 2.475.299 3.542.83.123-.656.196-1.311.22-1.963zM26.4 8.5h-4.386c.43 1.658.683 3.483.721 5.4h5.028c-.07-1.891-.542-3.73-1.363-5.4zm-5.421 0h-6.08v5.4h6.836c-.04-1.937-.308-3.764-.756-5.4zM1.047 13.9h5.018c.038-1.917.29-3.742.72-5.401H2.41c-.832 1.693-1.292 3.535-1.362 5.4zm6.018 0H13.9V8.5H7.821c-.448 1.636-.716 3.463-.756 5.4zM18.193 1.578l.162.146c1.43 1.318 2.601 3.332 3.372 5.775h4.127c-1.187-1.971-2.89-3.65-5.01-4.815-.855-.47-1.744-.838-2.651-1.106zM14.9 1.065l-.002 6.434h5.776c-1.217-3.635-3.357-6.13-5.774-6.434zm-4.3.518l-.112.034c-2.044.625-3.954 1.745-5.54 3.333-.779.78-1.445 1.637-1.995 2.55h4.119C7.87 4.967 9.1 2.895 10.602 1.582zM8.126 7.499h5.774l.001-6.434c-2.418.304-4.558 2.799-5.775 6.434z"/>
</svg>
