<?xml version="1.0" encoding="utf-8"?>
<!-- Generator: Adobe Illustrator 21.0.0, SVG Export Plug-In . SVG Version: 6.00 Build 0)  -->
<svg version="1.1" id="Calque_1" xmlns="http://www.w3.org/2000/svg" xmlns:xlink="http://www.w3.org/1999/xlink" x="0px" y="0px"
	 viewBox="0 0 64 64" style="enable-background:new 0 0 64 64;" xml:space="preserve">
<path d="M60,4.2c-4.9-4.9-12.1-5.5-16.6-1.5c-0.2,0.1-0.3,0.2-0.4,0.3L2.9,43.3c-0.1,0.1-0.2,0.2-0.2,0.3H2.6l0,0.6L0,62.3
	c0,0.5,0.1,0.8,0.4,1.3c0.3,0.3,0.6,0.4,1.1,0.4l18.2-2.3H20c0.1,0,0.2,0,0.3-0.1c0.1,0,0.1-0.1,0.2-0.1l40.6-40.6
	C65.4,16.6,64.9,9.1,60,4.2z M16.2,58.9L3.4,60.6L5,47.8L16.2,58.9z M55,22.7L19.7,58L6,44.4L41.4,9.1L55,22.7z M59.7,17.8l-2.6,2.6
	L43.6,7l2.7-2.5c3.1-2.3,8.2-1.4,11.6,2C61.2,9.7,62,14.7,59.7,17.8z"/>
</svg>
