<?xml version="1.0" encoding="UTF-8"?>
<svg width="24px" height="24px" viewBox="0 0 24 24" version="1.1" xmlns="http://www.w3.org/2000/svg" xmlns:xlink="http://www.w3.org/1999/xlink">
    <!-- Generator: Sketch 54.1 (76490) - https://sketchapp.com -->
    <title>Icons/System/chevron-up and Down</title>
    <desc>Created with Sketch.</desc>
    <g id="Icons/System/chevron-up-and-Down" stroke="none" stroke-width="1" fill="none" fill-rule="evenodd">
        <path d="M17.2928932,13.7071068 C17.6834175,13.3165825 18.3165825,13.3165825 18.7071068,13.7071068 C19.0976311,14.0976311 19.0976311,14.7307961 18.7071068,15.1213203 L12,21.8284271 L5.29289322,15.1213203 C4.90236893,14.7307961 4.90236893,14.0976311 5.29289322,13.7071068 C5.68341751,13.3165825 6.31658249,13.3165825 6.70710678,13.7071068 L12,19 L17.2928932,13.7071068 Z M17.2928932,11.1213203 L12,5.82842712 L6.70710678,11.1213203 C6.31658249,11.5118446 5.68341751,11.5118446 5.29289322,11.1213203 C4.90236893,10.7307961 4.90236893,10.0976311 5.29289322,9.70710678 L12,3 L18.7071068,9.70710678 C19.0976311,10.0976311 19.0976311,10.7307961 18.7071068,11.1213203 C18.3165825,11.5118446 17.6834175,11.5118446 17.2928932,11.1213203 Z" id="Color" fill="#2859C0"></path>
    </g>
</svg>