<?xml version="1.0" encoding="UTF-8"?>
<svg width="24px" height="24px" viewBox="0 0 24 24" version="1.1" xmlns="http://www.w3.org/2000/svg" xmlns:xlink="http://www.w3.org/1999/xlink">
    <!-- Generator: Sketch 54.1 (76490) - https://sketchapp.com -->
    <title>Icons/System/time</title>
    <desc>Created with Sketch.</desc>
    <g id="Icons/System/time" stroke="none" stroke-width="1" fill="none" fill-rule="evenodd">
        <path d="M12,21 C16.9705627,21 21,16.9705627 21,12 C21,7.02943725 16.9705627,3 12,3 C7.02943725,3 3,7.02943725 3,12 C3,16.9705627 7.02943725,21 12,21 Z M12,23 C5.92486775,23 1,18.0751322 1,12 C1,5.92486775 5.92486775,1 12,1 C18.0751322,1 23,5.92486775 23,12 C23,18.0751322 18.0751322,23 12,23 Z M13,11.5857864 L16.7071068,15.2928932 C17.0976311,15.6834175 17.0976311,16.3165825 16.7071068,16.7071068 C16.3165825,17.0976311 15.6834175,17.0976311 15.2928932,16.7071068 L11,12.4142136 L11,5 C11,4.44771525 11.4477153,4 12,4 C12.5522847,4 13,4.44771525 13,5 L13,11.5857864 Z" id="Color" fill="#2859C0"></path>
    </g>
</svg>