<?xml version="1.0" encoding="UTF-8"?>
<svg width="24px" height="24px" viewBox="0 0 24 24" version="1.1" xmlns="http://www.w3.org/2000/svg" xmlns:xlink="http://www.w3.org/1999/xlink">
    <!-- Generator: Sketch 57.1 (83088) - https://sketch.com -->
    <title>Icons/System/external-link</title>
    <desc>Created with Sketch.</desc>
    <g id="Icons/System/external-link" stroke="none" stroke-width="1" fill="none" fill-rule="evenodd">
        <path d="M12.1295725,5.39429112 C12.6818572,5.39429112 13.1295725,5.84200637 13.1295725,6.39429112 L13.1286216,21.979408 L17.4224657,17.6871843 C17.81299,17.29666 18.446155,17.29666 18.8366793,17.6871843 C19.2272036,18.0777086 19.2272036,18.7108736 18.8366793,19.1013979 L12.1295725,25.8085047 L5.42246571,19.1013979 C5.03194142,18.7108736 5.03194142,18.0777086 5.42246571,17.6871843 C5.81299,17.29666 6.44615498,17.29666 6.83667927,17.6871843 L11.1286216,21.979408 L11.1295725,6.39429112 C11.1295725,5.84200637 11.5772877,5.39429112 12.1295725,5.39429112 Z M12.9016504,-1.90469876 L25.6295725,10.8232233 C26.0200968,11.2137476 26.0200968,11.8469126 25.6295725,12.2374369 L22.8188403,15.0481691 C22.428316,15.4386934 21.795151,15.4386934 21.4046267,15.0481691 C21.0141024,14.6576448 21.0141024,14.0244798 21.4046267,13.6339555 L23.5082521,11.5303301 L12.1945436,0.216621587 L0.880835149,11.5303301 L3.01216824,13.6616632 C3.40269253,14.0521875 3.40269253,14.6853524 3.01216824,15.0758767 C2.62164394,15.466401 1.98847896,15.466401 1.59795467,15.0758767 L-1.24048519,12.2374369 C-1.63100949,11.8469126 -1.63100949,11.2137476 -1.24048519,10.8232233 L11.4874369,-1.90469876 C11.8779612,-2.29522305 12.5111261,-2.29522305 12.9016504,-1.90469876 Z" id="Color" fill="#0050D7" transform="translate(12.194544, 11.805456) rotate(-135.000000) translate(-12.194544, -11.805456) "></path>
    </g>
</svg>