<?xml version="1.0" encoding="UTF-8"?>
<svg width="24px" height="24px" viewBox="0 0 24 24" version="1.1" xmlns="http://www.w3.org/2000/svg" xmlns:xlink="http://www.w3.org/1999/xlink">
    <!-- Generator: Sketch 57.1 (83088) - https://sketch.com -->
    <title>Icons/System/filter</title>
    <desc>Created with Sketch.</desc>
    <g id="Icons/System/filter" stroke="none" stroke-width="1" fill="none" fill-rule="evenodd">
        <path d="M3.5,3 L20.5,3 C20.5869337,3 20.6712765,3.01109308 20.75169,3.03194094 C21.082013,2.94657701 21.4479763,3.03376272 21.7071068,3.29289322 C22.0675907,3.65337718 22.0953203,4.22060824 21.7902954,4.61289944 L21.7071068,4.70710678 L15,11.414 L15,16 C15,16.0074817 14.9999178,16.0149442 14.9997544,16.0223866 C14.999371,16.0395095 14.9985796,16.0561858 14.9973727,16.0728394 C14.9959132,16.0933319 14.9938172,16.1136821 14.9911206,16.1338423 C14.9884944,16.153096 14.9853173,16.1724729 14.9815674,16.1917634 C14.9774888,16.2130826 14.9727006,16.2340368 14.967266,16.254729 C14.9636933,16.2681093 14.9598819,16.2814945 14.9557853,16.2948126 C14.9483856,16.3189816 14.9400731,16.3426916 14.9309123,16.365975 C14.9257118,16.3792181 14.9201302,16.3925774 14.9142451,16.4058369 C14.9040379,16.4287086 14.8932399,16.450726 14.8816754,16.4722705 C14.8754268,16.4840684 14.8684913,16.4963858 14.8612733,16.508585 C14.8475516,16.5316138 14.8332669,16.5536855 14.8181599,16.5751364 C14.8109681,16.5854477 14.8031729,16.5960707 14.7951406,16.6065731 C14.7764566,16.6309389 14.757083,16.6540327 14.7367215,16.6762047 C14.7323669,16.6809508 14.7275377,16.6861059 14.7226434,16.6912226 L10.7226434,20.8730408 C10.3408917,21.2721449 9.70788298,21.2862118 9.3087789,20.90446 C9.08049452,20.6861011 8.97818468,20.3855371 9.00386702,20.093562 L9,20 L9,11.415 L2.29289322,4.70710678 C1.90236893,4.31658249 1.90236893,3.68341751 2.29289322,3.29289322 C2.55202372,3.03376272 2.91798701,2.94657701 3.24900634,3.03133608 C3.30215112,3.01784075 3.35735172,3.00841205 3.41400529,3.00362572 L3.5,3 L20.5,3 Z M18.584,5 L5.415,5 L10.7071068,10.2928932 L10.775,10.37 L10.8036654,10.4046934 C10.8215099,10.4288693 10.8382813,10.453725 10.8539326,10.4793398 L10.8753288,10.5159379 C10.8862061,10.5357061 10.8966234,10.5561086 10.9063462,10.5769009 L10.9287745,10.628664 C10.9366843,10.6484208 10.9438775,10.6682023 10.9504533,10.6882636 C10.9552713,10.7031487 10.9599023,10.7185367 10.9641549,10.734007 C10.9701664,10.7555635 10.9753602,10.7772539 10.9798348,10.7992059 C10.9832978,10.8166247 10.9863719,10.834051 10.9889822,10.8515331 L10.9972123,10.9248232 L10.998,10.94 L10.999,10.967 L11,11 L11,17.689 L13,15.598 L13,11 C13,10.9935938 13.0000602,10.9872016 13.0001802,10.980824 C13.0005993,10.9579802 13.0018656,10.9343349 13.0039664,10.9107499 C13.0057661,10.890153 13.0081122,10.8705042 13.0110193,10.8510388 C13.0136281,10.834051 13.0167022,10.8166247 13.0202401,10.7992742 C13.0246398,10.7772539 13.0298336,10.7555635 13.035721,10.7341604 C13.0400977,10.7185367 13.0447287,10.7031487 13.0497381,10.6878575 C13.0562367,10.6678538 13.0635659,10.6477335 13.0715105,10.6279264 C13.0786181,10.6102044 13.0861258,10.5928959 13.0941459,10.5757679 C13.1038681,10.5551184 13.1143159,10.5347123 13.1254289,10.514727 C13.1318769,10.5029561 13.1388033,10.4910654 13.1459955,10.4792912 C13.161934,10.4533726 13.1789518,10.4281855 13.1970498,10.4038493 C13.2012133,10.3981398 13.2054262,10.392603 13.2097046,10.3871006 C13.2376688,10.3515341 13.2644269,10.3213595 13.2928932,10.2928932 L18.584,5 Z M10.7071068,10.2928932 L10.7485042,10.336853 L10.757,10.347 L10.7071068,10.2928932 Z M10.775,10.37 L10.757,10.347 L10.779,10.374 L10.775,10.37 Z" id="Color" fill="#0050D7"></path>
    </g>
</svg>