<?xml version="1.0" encoding="UTF-8"?>
<svg width="24px" height="24px" viewBox="0 0 24 24" version="1.1" xmlns="http://www.w3.org/2000/svg" xmlns:xlink="http://www.w3.org/1999/xlink">
    <!-- Generator: Sketch 57.1 (83088) - https://sketch.com -->
    <title>Icons/System/success-circle</title>
    <desc>Created with Sketch.</desc>
    <g id="Icons/System/success-circle" stroke="none" stroke-width="1" fill="none" fill-rule="evenodd">
        <path d="M12,1 C18.0751322,1 23,5.92486775 23,12 C23,18.0751322 18.0751322,23 12,23 C5.92486775,23 1,18.0751322 1,12 C1,5.92486775 5.92486775,1 12,1 Z M12,3 C7.02943725,3 3,7.02943725 3,12 C3,16.9705627 7.02943725,21 12,21 C16.9705627,21 21,16.9705627 21,12 C21,7.02943725 16.9705627,3 12,3 Z M17.888925,8.29289322 C18.2494089,8.65337718 18.2771385,9.22060824 17.9721136,9.61289944 L17.888925,9.70710678 L10.888925,16.7071068 C10.7387233,16.8573084 10.5526281,16.9497402 10.3582497,16.9844021 L10.2408496,16.9982669 L10.1227868,16.9982669 C9.92619958,16.9867129 9.73237341,16.9173891 9.56891874,16.7902954 L9.4747114,16.7071068 L6.29289322,13.5252886 C5.90236893,13.1347643 5.90236893,12.5015993 6.29289322,12.111075 C6.65337718,11.7505911 7.22060824,11.7228615 7.61289944,12.0278864 L7.70710678,12.111075 L10.181,14.585 L16.4747114,8.29289322 C16.8652357,7.90236893 17.4984007,7.90236893 17.888925,8.29289322 Z" id="Color" fill="#0050D7"></path>
    </g>
</svg>