<?xml version="1.0" encoding="UTF-8"?>
<svg width="24px" height="24px" viewBox="0 0 24 24" version="1.1" xmlns="http://www.w3.org/2000/svg" xmlns:xlink="http://www.w3.org/1999/xlink">
    <!-- Generator: Sketch 54.1 (76490) - https://sketchapp.com -->
    <title>Icons/System/error</title>
    <desc>Created with Sketch.</desc>
    <g id="Icons/System/error" stroke="none" stroke-width="1" fill="none" fill-rule="evenodd">
        <path d="M11,10 C11,9.44771525 11.4477153,9 12,9 C12.5522847,9 13,9.44771525 13,10 L13,13 C13,13.5522847 12.5522847,14 12,14 C11.4477153,14 11,13.5522847 11,13 L11,10 Z M11.2928932,16.7071068 C10.9023689,16.3165825 10.9023689,15.6834175 11.2928932,15.2928932 C11.6834175,14.9023689 12.3165825,14.9023689 12.7071068,15.2928932 C13.0976311,15.6834175 13.0976311,16.3165825 12.7071068,16.7071068 C12.3165825,17.0976311 11.6834175,17.0976311 11.2928932,16.7071068 Z M12,4.97230829 L3.74841664,19 L20.2515834,19 L12,4.97230829 Z M13.7238684,3.95826804 L21.9754518,17.9859597 C22.5354908,18.938026 22.2176899,20.1638295 21.2656236,20.7238684 C20.9582703,20.9046645 20.6081689,21 20.2515834,21 L3.74841664,21 C2.64384714,21 1.74841664,20.1045695 1.74841664,19 C1.74841664,18.6434144 1.84375216,18.293313 2.02454821,17.9859597 L10.2761316,3.95826804 C10.8361705,3.00620179 12.061974,2.68840089 13.0140403,3.24843986 C13.3071476,3.42085594 13.5514524,3.66516071 13.7238684,3.95826804 Z" id="Color" fill="#2859C0"></path>
    </g>
</svg>