<?xml version="1.0" encoding="utf-8"?>
<!-- Generator: Adobe Illustrator 19.1.1, SVG Export Plug-In . SVG Version: 6.00 Build 0)  -->
<svg version="1.1" id="Calque_1" xmlns="http://www.w3.org/2000/svg" xmlns:xlink="http://www.w3.org/1999/xlink" x="0px" y="0px"
	 viewBox="0 0 80 80" style="enable-background:new 0 0 80 80;" xml:space="preserve">

<path d="M53.2,71.1H27.1v-8.5c-6.5-4.2-10.4-11.8-10.4-20.4c0-14,9.8-24.1,23.3-24.1c13.7,0,23.3,9.9,23.3,24.1
	c0,8.6-3.8,16.1-10.2,20.3V71.1z M31.1,67.1h18.1v-6.8l1-0.6c5.7-3.3,9.2-9.9,9.2-17.5c0-11.8-7.9-20.1-19.3-20.1
	c-11.2,0-19.3,8.5-19.3,20.1c0,7.7,3.5,14.2,9.4,17.6l1,0.6V67.1z"/>

<path d="M52.4,79.2H27.6c-1.1,0-2-0.9-2-2s0.9-2,2-2h24.8c1.1,0,2,0.9,2,2S53.5,79.2,52.4,79.2z"/>

<path d="M25.8,44.2c-1.1,0-2-0.9-2-2c0-9.7,6.8-16.8,16.3-16.8c1.1,0,2,0.9,2,2s-0.9,2-2,2c-7.1,0-12.3,5.4-12.3,12.8
	C27.8,43.3,26.9,44.2,25.8,44.2z"/>

<path d="M39.9,13.6c-1.1,0-2-0.9-2-2V2.8c0-1.1,0.9-2,2-2s2,0.9,2,2v8.8C41.9,12.7,41,13.6,39.9,13.6z"/>

<path d="M10.5,44.2H2c-1.1,0-2-0.9-2-2s0.9-2,2-2h8.5c1.1,0,2,0.9,2,2S11.6,44.2,10.5,44.2z"/>

<path d="M78,44.2h-8.5c-1.1,0-2-0.9-2-2s0.9-2,2-2H78c1.1,0,2,0.9,2,2S79.1,44.2,78,44.2z"/>

<path d="M18.4,22.8c-0.5,0-1-0.2-1.4-0.6l-6.2-6.2c-0.8-0.8-0.8-2,0-2.8c0.8-0.8,2-0.8,2.8,0l6.2,6.2c0.8,0.8,0.8,2,0,2.8
	C19.5,22.6,19,22.8,18.4,22.8z"/>

<path d="M61.6,22.5c-0.5,0-1-0.2-1.4-0.6c-0.8-0.8-0.8-2,0-2.8l6.2-6.2c0.8-0.8,2-0.8,2.8,0c0.8,0.8,0.8,2,0,2.8L63,21.9
	C62.6,22.3,62.1,22.5,61.6,22.5z"/>
</svg>
