<?xml version="1.0" encoding="utf-8"?>
<!-- Generator: Adobe Illustrator 19.1.1, SVG Export Plug-In . SVG Version: 6.00 Build 0)  -->
<svg version="1.1" id="Calque_1" xmlns="http://www.w3.org/2000/svg" xmlns:xlink="http://www.w3.org/1999/xlink" x="0px" y="0px"
	 viewBox="0 0 80 80" style="enable-background:new 0 0 80 80;" xml:space="preserve">
<g>
	<path d="M40,80C13.4,80,1.3,59.3,1.3,40C1.3,16.9,17.6,0,40,0c22.8,0,38.7,16.5,38.7,40.1C78.7,63.6,62.8,80,40,80z M40,4
		C19.9,4,5.3,19.2,5.3,40.1c0,17.3,10.9,36,34.7,36c23.9,0,34.7-18.6,34.7-36C74.7,18.8,60.4,4,40,4z"/>
</g>
<path d="M42.8,40L58,24.7c0.8-0.8,0.8-2.1,0-2.8c-0.8-0.8-2.1-0.8-2.8,0L40,37.1L24.9,21.9c-0.8-0.8-2-0.8-2.8,0s-0.8,2,0,2.8
	L37.2,40L22.1,55.2c-0.8,0.8-0.8,2.1,0,2.8c0.4,0.4,0.9,0.6,1.4,0.6s1-0.2,1.4-0.6L40,42.8L55.1,58c0.4,0.4,0.9,0.6,1.4,0.6
	s1-0.2,1.4-0.6c0.8-0.8,0.8-2,0-2.8L42.8,40z"/>
</svg>
