<?xml version="1.0" encoding="utf-8"?>
<!-- Generator: Adobe Illustrator 20.0.0, SVG Export Plug-In . SVG Version: 6.00 Build 0)  -->
<svg version="1.1" id="Calque_1" xmlns="http://www.w3.org/2000/svg" xmlns:xlink="http://www.w3.org/1999/xlink" x="0px" y="0px"
	 viewBox="0 0 80 80" style="enable-background:new 0 0 80 80;" xml:space="preserve">
<g>
	<rect x="13" y="13.9" width="30.8" height="4"/>
</g>
<g>
	<rect x="13" y="23.1" width="30.8" height="4"/>
</g>
<path d="M71,32v-1c0-1.1-0.9-2-2-2s-2,0.9-2,2v1h-6v-1c0-1.1-0.9-2-2-2s-2,0.9-2,2v1h-6v-1c0-1.1-0.9-2-2-2s-2,0.9-2,2v1h-6v-1
	c0-1.1-0.9-2-2-2s-2,0.9-2,2v1.4c-5,0.4-9,4.7-9,9.9V80h41.8c5.5,0,10.2-4,10.2-9.5V32H71z M37,36.4v3.2c0,1.1,0.9,2,2,2s2-0.9,2-2
	V36h6v3.6c0,1.1,0.9,2,2,2s2-0.9,2-2V36h6v3.6c0,1.1,0.9,2,2,2s2-0.9,2-2V36h6v3.6c0,1.1,0.9,2,2,2s2-0.9,2-2V36h5v9H32v-2.7
	C32,39.3,34,36.8,37,36.4z M69.8,76H32V49h44v21.5C76,73.8,73.1,76,69.8,76z"/>
<g>
	<path d="M53.8,62.7c0,1.3-0.1,2.4-0.4,3.3c-0.3,0.9-0.7,1.7-1.1,2.3s-1.1,1.1-1.7,1.4c-0.7,0.3-1.4,0.5-2.2,0.5s-1.5-0.2-2.1-0.5
		c-0.7-0.3-1.2-0.8-1.7-1.4c-0.5-0.6-0.9-1.4-1.1-2.3c-0.3-0.9-0.4-2-0.4-3.3s0.1-2.4,0.4-3.3c0.3-0.9,0.6-1.7,1.1-2.3
		c0.5-0.6,1-1.1,1.7-1.4c0.7-0.3,1.4-0.4,2.1-0.4s1.5,0.1,2.2,0.4c0.7,0.3,1.2,0.8,1.7,1.4s0.9,1.4,1.1,2.3
		C53.7,60.3,53.8,61.4,53.8,62.7z M50.6,62.7c0-1-0.1-1.8-0.2-2.5c-0.1-0.6-0.3-1.1-0.5-1.5c-0.2-0.4-0.4-0.6-0.7-0.8
		s-0.5-0.2-0.8-0.2s-0.5,0.1-0.8,0.2c-0.3,0.1-0.5,0.4-0.7,0.8c-0.2,0.4-0.4,0.9-0.5,1.5c-0.1,0.6-0.2,1.5-0.2,2.5
		c0,1,0.1,1.8,0.2,2.5c0.1,0.6,0.3,1.1,0.5,1.5c0.2,0.4,0.4,0.6,0.7,0.8c0.3,0.1,0.5,0.2,0.8,0.2s0.5-0.1,0.8-0.2s0.5-0.4,0.7-0.8
		s0.4-0.9,0.5-1.5C50.6,64.6,50.6,63.7,50.6,62.7z"/>
	<path d="M64.7,67.8V70h-8.3v-2.2h2.8v-7.3c0-0.2,0-0.4,0-0.6c0-0.2,0-0.4,0-0.6l-1.7,1.4c-0.1,0.1-0.3,0.2-0.4,0.2s-0.3,0-0.4,0
		s-0.2-0.1-0.3-0.1c-0.1-0.1-0.2-0.1-0.2-0.2l-1-1.3l4.5-3.8h2.6v12.3H64.7z"/>
</g>
<path d="M27.4,32H13v4h11.5C25.2,35,26.2,33,27.4,32z"/>
<path d="M4,51.4V7.8C4,5.8,5.4,4,7.5,4H53v22h4V0H7.5C3.2,0,0,3.6,0,7.8v50L17.3,49H23v-4h-6.6L4,51.4z"/>
</svg>
