<?xml version="1.0" encoding="utf-8"?>
<!-- Generator: Adobe Illustrator 20.1.0, SVG Export Plug-In . SVG Version: 6.00 Build 0)  -->
<svg version="1.1" id="Calque_1" xmlns="http://www.w3.org/2000/svg" xmlns:xlink="http://www.w3.org/1999/xlink" x="0px" y="0px"
	 viewBox="0 0 80 80" style="enable-background:new 0 0 80 80;" xml:space="preserve">
<path d="M62.6,49.1c0-0.4,0.1-0.8,0.2-1.1c0.1-0.3,0.3-0.6,0.6-0.9c0.3-0.3,0.5-0.5,0.9-0.6c0.3-0.1,0.7-0.2,1.1-0.2
	c0.4,0,0.8,0.1,1.1,0.2c0.3,0.1,0.6,0.3,0.9,0.6c0.3,0.3,0.5,0.6,0.6,0.9c0.1,0.3,0.2,0.7,0.2,1.1c0,0.4-0.1,0.7-0.2,1.1
	c-0.1,0.3-0.3,0.6-0.6,0.9c-0.3,0.3-0.6,0.5-0.9,0.6c-0.3,0.1-0.7,0.2-1.1,0.2c-0.4,0-0.7-0.1-1.1-0.2c-0.3-0.1-0.6-0.3-0.9-0.6
	c-0.3-0.3-0.5-0.5-0.6-0.9C62.6,49.9,62.6,49.5,62.6,49.1z"/>
<g>
	<path d="M40,54c-0.6,0-1.2-0.3-1.6-0.8l-13-18c-0.4-0.6-0.5-1.4-0.2-2.1c0.3-0.7,1-1.1,1.8-1.1h6.8V10c0-1.1,0.9-2,2-2h8
		c1.1,0,2,0.9,2,2v22H53c0.8,0,1.4,0.4,1.8,1.1c0.3,0.7,0.3,1.5-0.2,2.1l-13,18C41.2,53.7,40.6,54,40,54z M30.9,36L40,48.6L49.1,36
		h-5.3c-1.1,0-2-0.9-2-2V12h-4v22c0,1.1-0.9,2-2,2H30.9z"/>
</g>
<g>
	<path d="M69,72H11C4.9,72,0,67.1,0,61V46c0-6,4.9-11,11-11h9c1.1,0,2,0.9,2,2s-0.9,2-2,2h-9c-3.9,0-7,3.1-7,7v15c0,3.9,3.1,7,7,7
		h58c3.9,0,7-3.1,7-7V46c0-3.8-3.1-7-7-7h-9c-1.1,0-2-0.9-2-2s0.9-2,2-2h9c6.1,0,11,4.9,11,11v15C80,67.1,75.1,72,69,72z"/>
</g>
</svg>
