<?xml version="1.0" encoding="utf-8"?>
<!-- Generator: Adobe Illustrator 19.1.1, SVG Export Plug-In . SVG Version: 6.00 Build 0)  -->
<svg version="1.1" id="Calque_1" xmlns="http://www.w3.org/2000/svg" xmlns:xlink="http://www.w3.org/1999/xlink" x="0px" y="0px"
	 viewBox="0 0 80 80" style="enable-background:new 0 0 80 80;" xml:space="preserve">
<path d="M62.7,47.2H54v-26h-4v26H9.9c-5.5,0-9.9,4.5-9.9,10v12.4c0,5.5,4.3,9.6,9.8,9.6h52.1c5.5,0,10.1-4.2,10.1-9.7V56.4
	C72,51.3,67.8,47.2,62.7,47.2z M68,69.5c0,3.3-2.8,5.7-6.1,5.7H9.8c-3.2,0-5.8-2.4-5.8-5.6V57.2c0-3.3,2.6-6,5.9-6h52.8
	c2.8,0,5.3,2.3,5.3,5.2V69.5z"/>
<g>
	<circle cx="13.1" cy="63.6" r="3"/>
</g>
<g>
	<circle cx="25.1" cy="63.6" r="3"/>
</g>
<g>
	<g>
		<path d="M72.6,41.6l-2.9-2.7c4.1-4.5,6.4-10.8,6.4-17.7c0-6.9-2.3-13.2-6.4-17.7l2.9-2.7C77.3,6,80,13.3,80,21.2
			C80,29.2,77.4,36.4,72.6,41.6z"/>
	</g>
	<g>
		<path d="M31.5,41.6C26.7,36.3,24,29.1,24,21.2c0-7.8,2.7-15.1,7.6-20.4l2.9,2.7C30.3,8.1,28,14.4,28,21.2c0,6.8,2.3,13.1,6.4,17.7
			L31.5,41.6z"/>
	</g>
</g>
<g>
	<g>
		<path d="M66.7,35.8l-2.9-2.7c2.8-3,4.3-7.2,4.3-11.8c0-4.7-1.5-8.9-4.3-11.9l2.9-2.7c3.4,3.7,5.3,8.9,5.3,14.6
			C72,26.9,70.1,32,66.7,35.8z"/>
	</g>
	<g>
		<path d="M37.3,35.7C33.9,32,32,26.8,32,21.2c0-5.6,1.9-10.7,5.4-14.5l2.9,2.7c-2.8,3-4.3,7.2-4.3,11.8c0,4.6,1.5,8.8,4.3,11.8
			L37.3,35.7z"/>
	</g>
</g>
<g>
	<g>
		<path d="M60.8,29.9l-2.9-2.7c1.4-1.5,2.1-3.6,2.1-6c0-2.4-0.8-4.5-2.1-6l2.9-2.7c2.1,2.2,3.2,5.3,3.2,8.7
			C64,24.6,62.9,27.7,60.8,29.9z"/>
	</g>
	<g>
		<path d="M43.2,29.9c-2.1-2.3-3.2-5.3-3.2-8.7s1.2-6.4,3.2-8.7l2.9,2.7c-1.4,1.5-2.2,3.6-2.2,5.9c0,2.3,0.8,4.4,2.2,6L43.2,29.9z"
			/>
	</g>
</g>
</svg>
