<?xml version="1.0" encoding="utf-8"?>
<!-- Generator: Adobe Illustrator 19.1.1, SVG Export Plug-In . SVG Version: 6.00 Build 0)  -->
<svg version="1.1" id="Calque_1" xmlns="http://www.w3.org/2000/svg" xmlns:xlink="http://www.w3.org/1999/xlink" x="0px" y="0px"
	 viewBox="0 0 80 80" style="enable-background:new 0 0 80 80;" xml:space="preserve">
<g>
	<path d="M40,51.5c-5.5,0-10-4.5-10-10c0-5.5,4.5-10,10-10c1.4,0,2.7,0.3,3.8,0.8c1,0.4,1.5,1.6,1,2.6c-0.4,1-1.6,1.5-2.6,1
		c-0.6-0.3-1.4-0.4-2.2-0.4c-3.3,0-6,2.7-6,6s2.7,6,6,6s6-2.7,6-6c0-0.7-0.1-1.3-0.4-2.2c-0.3-1,0.2-2.2,1.3-2.5
		c1-0.3,2.2,0.2,2.5,1.3c0.4,1.2,0.6,2.3,0.6,3.4C50,47,45.5,51.5,40,51.5z"/>
</g>
<path d="M70,17.3H10c-5.5,0-10,4.5-10,10v20.2c0,4.8,3.4,8.9,7.9,9.9v1.2c0,2.3,1.8,4.1,4.1,4.1h8c2.3,0,4.1-1.8,4.1-4.1v-1h31.8v1
	c0,2.3,1.8,4.1,4.1,4.1h8c2.3,0,4.1-1.8,4.1-4.1v-1.2c4.5-1,7.9-5,7.9-9.8V27.3C80,21.8,75.5,17.3,70,17.3z M19.9,58.5h-7.8v-0.9
	h7.8V58.5z M60.1,58.5v-0.9h7.8v0.9H60.1z M70,53.6H10c-3.3,0-6-2.7-6-6.1V29.3h52c1.1,0,2-0.9,2-2s-0.9-2-2-2H4.4
	c0.8-2.3,3-4,5.6-4h60c2.6,0,4.8,1.7,5.6,4H66c-1.1,0-2,0.9-2,2s0.9,2,2,2h10v18.3C76,50.9,73.3,53.6,70,53.6z"/>
<g>
	<circle cx="40" cy="41.6" r="3"/>
</g>
</svg>
