<?xml version="1.0" encoding="utf-8"?>
<!-- Generator: Adobe Illustrator 19.1.1, SVG Export Plug-In . SVG Version: 6.00 Build 0)  -->
<svg version="1.1" id="Calque_1" xmlns="http://www.w3.org/2000/svg" xmlns:xlink="http://www.w3.org/1999/xlink" x="0px" y="0px"
	 viewBox="0.2 -0.2 80 80" style="enable-background:new 0.2 -0.2 80 80;" xml:space="preserve">
<path d="M27.9,63.8c0,8.6-6.4,13.7-13.9,13.7c-7.6,0-14-5.4-14-13.7c0-6.9,5-13.7,14-13.7C23.7,50.2,27.9,57.8,27.9,63.8z
	 M21.6,63.8c0-5.5-3.1-8.6-7.6-8.6c-4.9,0-7.6,3.4-7.6,8.6s2.7,8.6,7.6,8.6C18.5,72.3,21.6,69.4,21.6,63.8z"/>
<path d="M54.7,50.5L43.9,77.2h-5.6L27.6,50.5h5c0.5,0,1,0.1,1.3,0.4c0.3,0.3,0.6,0.6,0.8,1l5.2,14.4c0.2,0.6,0.5,1.3,0.7,2.1
	c0.2,0.8,0.5,1.5,0.7,2.3c0.2-0.8,0.4-1.6,0.6-2.3c0.2-0.7,0.4-1.4,0.7-2.1l5.2-14.4c0.1-0.3,0.4-0.7,0.7-0.9
	c0.4-0.3,0.8-0.4,1.3-0.4L54.7,50.5L54.7,50.5z"/>
<path d="M80.1,50.5v26.7h-6.2V65.9H63v11.3h-6.3V50.5H63v11.2h10.9V50.5H80.1z"/>
<path d="M78.6,20.6L47,2.4c-0.6-0.4-1.4-0.4-2,0s-1,1-1,1.7v15.9H2.1c-1.1,0-2,0.9-2,2s0.9,2,2,2H44v16.8c0,0.7,0.4,1.4,1,1.7
	c0.3,0.2,0.7,0.3,1,0.3s0.7-0.1,1-0.3l31.6-18.3c0.6-0.4,1-1,1-1.7C79.6,21.7,79.3,21,78.6,20.6z M48,37.2V7.6l25.6,14.9L48,37.2z"
	/>
</svg>
