<?xml version="1.0" encoding="utf-8"?>
<!-- Generator: Adobe Illustrator 19.1.1, SVG Export Plug-In . SVG Version: 6.00 Build 0)  -->
<svg version="1.1" id="Calque_1" xmlns="http://www.w3.org/2000/svg" xmlns:xlink="http://www.w3.org/1999/xlink" x="0px" y="0px"
	 viewBox="0 0 80 80" style="enable-background:new 0 0 80 80;" xml:space="preserve">
<g>
	<path d="M21,79.6c-2.1,0-4.1-0.8-5.6-2.3L2.5,64.4c-3.1-3.1-3.1-8.3,0-11.3l30.4-30.4c3.2-3.1,8.3-3.1,11.3,0l12.9,12.9
		c3.1,3.2,3.1,8.3,0,11.3L26.7,77.3C25.1,78.9,23.1,79.6,21,79.6z M38.6,24.4c-1,0-2.1,0.4-2.9,1.2L5.3,55.9
		c-0.7,0.7-1.1,1.7-1.1,2.8s0.4,2.1,1.1,2.8l12.9,12.9c1.5,1.5,4.1,1.5,5.7,0l30.4-30.4c1.5-1.5,1.5-4.1,0-5.7L41.4,25.5
		C40.6,24.8,39.6,24.4,38.6,24.4z"/>
</g>
<g>
	<path d="M75.9,29.4c-0.3-6.1-3.1-12.2-8-17.1c-4.9-4.9-11-7.7-17.1-8l0.2-4c7.1,0.3,14.1,3.6,19.7,9.2c5.6,5.6,8.9,12.6,9.2,19.7
		L75.9,29.4z"/>
</g>
<g>
	<path d="M67.6,29.4c-0.2-4.1-2.1-8.1-5.3-11.4c-3.3-3.3-7.4-5.2-11.4-5.4l0.2-4c5,0.2,10,2.6,14,6.6c4,4,6.3,8.9,6.5,14L67.6,29.4z
		"/>
</g>
<g>
	<path d="M59.3,29.4c-0.1-2-1-4.1-2.7-5.8s-3.7-2.6-5.8-2.7l0.2-4c3.1,0.1,6,1.5,8.4,3.9s3.8,5.4,3.9,8.4L59.3,29.4z"/>
</g>
<g>
	<circle cx="25.8" cy="45.3" r="3"/>
</g>
<g>
	<circle cx="34.5" cy="53.9" r="3"/>
</g>
<g>
	<path d="M40.8,44.7c-3.2,0-5.7-2.6-5.7-5.7s2.6-5.7,5.7-5.7s5.7,2.6,5.7,5.7S44,44.7,40.8,44.7z M40.8,36.7c-1.3,0-2.3,1-2.3,2.3
		s1,2.3,2.3,2.3s2.3-1,2.3-2.3S42.1,36.7,40.8,36.7z"/>
</g>
<g>
	<circle cx="20.2" cy="50.9" r="3"/>
</g>
<g>
	<circle cx="28.9" cy="59.6" r="3"/>
</g>
<g>
	<circle cx="14.5" cy="56.6" r="3"/>
</g>
<g>
	<circle cx="23.2" cy="65.3" r="3"/>
</g>
</svg>
