<?xml version="1.0" encoding="utf-8"?>
<!-- Generator: Adobe Illustrator 19.2.1, SVG Export Plug-In . SVG Version: 6.00 Build 0)  -->
<svg version="1.1" id="Calque_1" xmlns="http://www.w3.org/2000/svg" xmlns:xlink="http://www.w3.org/1999/xlink" x="0px" y="0px"
	 viewBox="0 0 80 80" style="enable-background:new 0 0 80 80;" xml:space="preserve">
<g>
	<path d="M40,80C13.4,80,1.3,59.3,1.3,40.1C1.3,16.8,17.6,0,40,0c22.8,0,38.7,16.5,38.7,40.1C78.7,63.6,62.8,80,40,80z M40,4
		C19.9,4,5.3,19.2,5.3,40.1C5.3,57.4,16.2,76,40,76c23.8,0,34.7-18.6,34.7-35.9C74.7,18.8,60.4,4,40,4z"/>
</g>
<path d="M54.4,22.8c-0.8-0.7-2.1-0.6-2.8,0.2L43,33.3c-0.9-0.4-1.9-0.6-3-0.6c-4.1,0-7.4,3.3-7.4,7.4c0,4.1,3.3,7.4,7.4,7.4
	c4.1,0,7.4-3.3,7.4-7.4c0-1.6-0.5-3-1.3-4.2l8.6-10.2C55.3,24.8,55.2,23.6,54.4,22.8z M43.4,40c0,1.9-1.5,3.4-3.4,3.4
	s-3.4-1.5-3.4-3.4s1.5-3.4,3.4-3.4c0,0,0.1,0,0.1,0l-1.8,2.2c-0.7,0.8-0.6,2.1,0.2,2.8c0.4,0.3,0.8,0.5,1.3,0.5
	c0.6,0,1.1-0.2,1.5-0.7l1.9-2.3C43.3,39.4,43.4,39.7,43.4,40z"/>
<path d="M70.9,40.4c0-0.1,0.1-0.3,0.1-0.4c0-0.2,0-0.4-0.1-0.5C70.7,20.9,58.1,7.9,40,7.9c0,0,0,0,0,0c0,0,0,0,0,0c0,0,0,0,0,0
	C22.2,7.9,9.3,21.2,9.1,39.5C9,39.6,9,39.8,9,40c0,0.2,0,0.2,0.1,0.4C9.2,56.1,19.8,71.9,40,71.9c0,0,0,0,0,0c0,0,0,0,0,0
	c0,0,0,0,0,0C58.1,71.9,70.8,59,70.9,40.4z M42.1,67.9v-3c0-1.1-0.9-2-2-2s-2,0.9-2,2v3c-16-0.9-24.2-13.1-25-26.1h2.8
	c1.1,0,2-0.9,2-2s-0.9-2-2-2h-2.8c0.9-14,11-24.9,25-25.8v2.9c0,1.1,0.9,2,2,2s2-0.9,2-2v-2.9c14,0.9,23.9,10.8,24.8,25.8h-2.7
	c-1.1,0-2,0.9-2,2s0.9,2,2,2h2.7C66.1,54.9,58.1,67,42.1,67.9z"/>
</svg>
