<?xml version="1.0" encoding="utf-8"?>
<!-- Generator: Adobe Illustrator 20.0.0, SVG Export Plug-In . SVG Version: 6.00 Build 0)  -->
<svg version="1.1" id="Layer_1" xmlns="http://www.w3.org/2000/svg" xmlns:xlink="http://www.w3.org/1999/xlink" x="0px" y="0px"
	 viewBox="0 0 80 80" style="enable-background:new 0 0 80 80;" xml:space="preserve">
<title>icône NAS ancien 2</title>
<path d="M29.3,54.2v23.3h-2.8c-0.4,0-0.8-0.1-1-0.2c-0.3-0.1-0.6-0.4-0.8-0.7l-11-13.9c0,0.4,0.1,0.8,0.1,1.2c0,0.4,0,0.8,0,1.1
	v12.5H8.9V54.2h2.8c0.2,0,0.4,0,0.6,0c0.2,0,0.3,0.1,0.4,0.1c0.1,0.1,0.3,0.1,0.4,0.2c0.1,0.1,0.3,0.3,0.4,0.4l11.1,14
	c-0.1-0.4-0.1-0.9-0.1-1.3c0-0.4,0-0.8,0-1.2V54.2H29.3z"/>
<path d="M54.7,77.5h-4.2c-0.5,0-0.8-0.1-1.1-0.3c-0.3-0.2-0.5-0.5-0.7-0.8l-1.4-4.1h-8.9l-1.4,4.1c-0.1,0.3-0.3,0.6-0.6,0.8
	c-0.3,0.2-0.7,0.4-1.1,0.4h-4.2l9-23.3h5.5L54.7,77.5z M46.1,68.6l-2.2-6.4c-0.2-0.4-0.3-0.9-0.5-1.4c-0.2-0.5-0.4-1.1-0.5-1.8
	c-0.2,0.7-0.3,1.3-0.5,1.8c-0.2,0.6-0.4,1-0.5,1.4l-2.1,6.4H46.1z"/>
<path d="M69.4,58.9c-0.2,0.3-0.3,0.4-0.5,0.6c-0.2,0.1-0.4,0.2-0.7,0.2c-0.2,0-0.5-0.1-0.8-0.2c-0.3-0.2-0.6-0.3-1-0.5
	c-0.4-0.2-0.8-0.4-1.2-0.5c-0.5-0.2-1-0.2-1.6-0.2c-1,0-1.8,0.2-2.3,0.6c-0.5,0.4-0.7,1-0.7,1.8c0,0.5,0.1,0.9,0.4,1.2
	c0.3,0.3,0.7,0.6,1.2,0.8c0.5,0.2,1,0.4,1.7,0.6c0.6,0.2,1.3,0.4,1.9,0.6c0.7,0.2,1.3,0.5,1.9,0.8c0.6,0.3,1.2,0.7,1.7,1.2
	c0.5,0.5,0.9,1.1,1.2,1.8c0.3,0.7,0.4,1.5,0.4,2.5c0,1.1-0.2,2.1-0.6,3c-0.4,0.9-0.9,1.8-1.6,2.5c-0.7,0.7-1.6,1.2-2.6,1.6
	c-1,0.4-2.2,0.6-3.5,0.6c-0.7,0-1.5-0.1-2.2-0.2s-1.5-0.4-2.2-0.6c-0.7-0.3-1.4-0.6-2-1c-0.6-0.4-1.2-0.8-1.6-1.2l1.6-2.5
	c0.1-0.2,0.3-0.3,0.5-0.5c0.2-0.1,0.4-0.2,0.7-0.2c0.3,0,0.6,0.1,1,0.3c0.3,0.2,0.7,0.4,1.1,0.7c0.4,0.2,0.9,0.5,1.4,0.7
	c0.5,0.2,1.2,0.3,1.9,0.3c1,0,1.7-0.2,2.3-0.6c0.5-0.4,0.8-1.1,0.8-2.1c0-0.5-0.1-1-0.4-1.3c-0.3-0.3-0.7-0.6-1.2-0.8
	c-0.5-0.2-1-0.4-1.7-0.6c-0.6-0.2-1.3-0.4-1.9-0.6c-0.7-0.2-1.3-0.5-1.9-0.8c-0.6-0.3-1.2-0.7-1.7-1.2c-0.5-0.5-0.9-1.1-1.2-1.9
	c-0.3-0.7-0.4-1.7-0.4-2.7c0-0.9,0.2-1.7,0.5-2.6c0.4-0.8,0.9-1.6,1.6-2.2c0.7-0.7,1.5-1.2,2.5-1.6c1-0.4,2.1-0.6,3.4-0.6
	c0.7,0,1.4,0.1,2.1,0.2c0.7,0.1,1.3,0.3,1.9,0.5c0.6,0.2,1.2,0.5,1.7,0.8c0.5,0.3,1,0.6,1.4,1L69.4,58.9z"/>
<g id="XMLID_132_">
	<path d="M71.2,37.6c-1.3,0-2.5-0.4-3.5-1.2c-1.2-0.9-1.9-2.3-2.1-3.8c-0.2-1.5,0.2-3,1.2-4.2c3.1-4,2.4-9.8-1.5-12.9
		c-2.6-2.1-6-2.5-9-1.3l2.8,2.1c0.8,0.6,1.2,1.6,1,2.6s-0.9,1.8-1.9,2.1l-17.3,5.2c-0.9,0.3-1.8,0.1-2.5-0.5c-0.7-0.6-1.1-1.4-1-2.3
		L38.5,6c0.1-1,0.7-1.9,1.6-2.3c0.9-0.4,2-0.3,2.8,0.3l3.7,2.8c7.3-6,18.1-6.2,25.7-0.2l0,0c4.3,3.4,7,8.3,7.7,13.7
		c0.7,5.4-0.9,10.8-4.2,15.1C74.5,36.8,72.9,37.6,71.2,37.6z M59.5,9.5c2.9,0,5.7,0.9,8.1,2.8c5.7,4.5,6.7,12.8,2.2,18.5
		c-0.3,0.3-0.4,0.8-0.3,1.2c0.1,0.4,0.3,0.8,0.6,1.1c0.4,0.3,0.8,0.4,1,0.4c0.5,0,1-0.2,1.3-0.6c2.7-3.5,3.9-7.8,3.4-12.2
		c-0.5-4.4-2.7-8.3-6.2-11l0,0C63.2,4.7,53.9,5.1,48,10.9c-0.7,0.7-1.8,0.8-2.6,0.2l-3.1-2.3l-0.9,13.2L54.5,18l-3.2-2.4
		c-0.5-0.4-0.8-1-0.8-1.6c0-0.6,0.3-1.2,0.8-1.6C53.7,10.5,56.6,9.5,59.5,9.5z"/>
</g>
<path d="M73.4,41.3c-0.1,0-0.2,0.1-0.3,0.1c-1.4,1.1-3.2,1.8-5.1,1.8H12c-4.4,0-8-3.6-8-8v-13c0-4.4,3.6-8,8-8h21.9l0.3-4H12
	c-6.6,0-12,5.4-12,12v13c0,6.6,5.4,12,12,12h56c4.6,0,8.6-2.6,10.6-6.4L73.4,41.3z"/>
</svg>
