<?xml version="1.0" encoding="utf-8"?>
<!-- Generator: Adobe Illustrator 19.1.1, SVG Export Plug-In . SVG Version: 6.00 Build 0)  -->
<svg version="1.1" id="Calque_1" xmlns="http://www.w3.org/2000/svg" xmlns:xlink="http://www.w3.org/1999/xlink" x="0px" y="0px"
	 viewBox="0 0 80 80" style="enable-background:new 0 0 80 80;" xml:space="preserve">
<path d="M60,42c0.9,4,4.1,6.3,8,6.3c4.6,0,8.3-3.7,8.3-8.3c0-4.6-3.7-8.3-8.3-8.3c-3.9,0-7.1,2.2-8,6.2H43.7l16.9-26
	c1.4,2.7,4.2,4.6,7.4,4.6c4.6,0,8.3-3.7,8.3-8.3c0-4.6-3.7-8.3-8.3-8.3c-3.3,0-6.1,1.9-7.4,4.7l0,0L40,36.3L19.5,4.7l0,0
	C18.1,2,15.3,0.1,12,0.1c-4.6,0-8.3,3.7-8.3,8.3c0,4.6,3.7,8.3,8.3,8.3c3.2,0,6-1.9,7.4-4.6l16.9,26H20c-0.9-4-4.1-6.2-8-6.2
	c-4.6,0-8.3,3.7-8.3,8.3c0,4.6,3.7,8.2,8.3,8.2c3.9,0,7.1-2.3,8-6.3h16.2l-16.9,26c-1.4-2.7-4.2-4.5-7.4-4.5c-4.6,0-8.3,3.7-8.3,8.3
	c0,4.6,3.7,8.3,8.3,8.3c3.4,0,6.2-2,7.5-4.9L40,43.6l20.4,31.4c1.3,2.9,4.2,4.9,7.5,4.9c4.6,0,8.3-3.7,8.3-8.3
	c0-4.6-3.7-8.3-8.3-8.3c-3.2,0-6,1.8-7.4,4.5L43.7,42H60z M68,35.7c2.4,0,4.3,1.9,4.3,4.3c0,2.4-1.9,4.3-4.3,4.3s-4.3-1.9-4.3-4.3
	C63.7,37.7,65.6,35.7,68,35.7z M12,44.3c-2.4,0-4.3-1.9-4.3-4.3c0-2.4,1.9-4.3,4.3-4.3s4.3,1.9,4.3,4.3C16.3,42.4,14.4,44.3,12,44.3
	z M68,4.1c2.4,0,4.3,1.9,4.3,4.3c0,2.4-1.9,4.3-4.3,4.3s-4.3-1.9-4.3-4.3C63.7,6,65.6,4.1,68,4.1z M12,12.6c-2.4,0-4.3-1.9-4.3-4.3
	C7.8,6,9.7,4.1,12,4.1s4.3,1.9,4.3,4.3C16.3,10.7,14.4,12.6,12,12.6z M12,75.9c-2.4,0-4.3-1.9-4.3-4.3c0-2.4,1.9-4.3,4.3-4.3
	s4.3,1.9,4.3,4.3C16.3,74,14.4,75.9,12,75.9z M68,67.4c2.4,0,4.3,1.9,4.3,4.3c0,2.4-1.9,4.3-4.3,4.3s-4.3-1.9-4.3-4.3
	C63.7,69.3,65.6,67.4,68,67.4z"/>
</svg>
