<?xml version="1.0" encoding="utf-8"?>
<!-- Generator: Adobe Illustrator 19.1.1, SVG Export Plug-In . SVG Version: 6.00 Build 0)  -->
<svg version="1.1" id="Calque_2" xmlns="http://www.w3.org/2000/svg" xmlns:xlink="http://www.w3.org/1999/xlink" x="0px" y="0px"
	 viewBox="0 0 80 80" style="enable-background:new 0 0 80 80;" xml:space="preserve">
<path d="M62.1,80H18.9c-4.8,0-8.8-3.9-8.8-8.8V40.3h4v30.9c0,2.6,2.1,4.8,4.8,4.8h43.2c2.2,0,4-1.8,4-4V40.3h4V72
	C70.1,76.4,66.5,80,62.1,80z"/>
<polygon points="72.1,37.5 62,27.5 62,8 52,8 52,18.5 39.6,5.7 7.9,37.5 5.1,34.7 39.6,0 48,8.7 48,4 66,4 66,25.8 
	74.9,34.7"/>
</svg>
