<?xml version="1.0" encoding="utf-8"?>
<!-- Generator: Adobe Illustrator 19.1.1, SVG Export Plug-In . SVG Version: 6.00 Build 0)  -->
<svg version="1.1" id="Calque_1" xmlns="http://www.w3.org/2000/svg" xmlns:xlink="http://www.w3.org/1999/xlink" x="0px" y="0px"
	 viewBox="0 0 80 80" style="enable-background:new 0 0 80 80;" xml:space="preserve">
<g>
	<g>
		<path d="M74.6,80H5.4V0h51.2c9.9,0,18,8.1,18,18V80z M9.4,76h61.3V18c0-7.7-6.3-14-14-14H9.4V76z"/>
	</g>
</g>
<path d="M49.5,25.3c-1-0.6-2.2-0.2-2.7,0.7l-5,8.6V18c0-1.1-0.9-2-2-2s-2,0.9-2,2v16.1l-4.7-8.1c-0.6-1-1.8-1.3-2.7-0.7
	c-1,0.6-1.3,1.8-0.7,2.7l8.5,14.8c0.4,0.6,1,1,1.7,1s1.4-0.4,1.7-1l8.5-14.8C50.8,27.1,50.5,25.9,49.5,25.3z"/>
<path d="M26.5,53.4c3.6,0,5.9,1.7,5.9,4.8c0,3-2,4.9-5.9,4.9h-1.8V68h-3.4V53.4H26.5z M26.5,60.6c1.7,0,2.5-0.8,2.5-2.4
	c0-1.2-0.7-2.2-2.5-2.2h-1.8v4.6H26.5z"/>
<path d="M52.7,56v3.7h5v2.6h-5V68h-3.4V53.4h9.4V56H52.7z"/>
<path d="M47.3,60.7c0,4.2-3,7.3-7.6,7.3h-5.7V53.4h5.7C44.3,53.4,47.3,56.6,47.3,60.7z M43.8,60.7c0-2.8-1.5-4.7-4.1-4.7h-2.3v9.4
	h2.3C42.4,65.4,43.8,63.3,43.8,60.7z"/>
</svg>
