<?xml version="1.0" encoding="utf-8"?>
<!-- Generator: Adobe Illustrator 19.2.1, SVG Export Plug-In . SVG Version: 6.00 Build 0)  -->
<svg version="1.1" id="Calque_1" xmlns="http://www.w3.org/2000/svg" xmlns:xlink="http://www.w3.org/1999/xlink" x="0px" y="0px"
	 viewBox="0 0 80 80" style="enable-background:new 0 0 80 80;" xml:space="preserve">
<style type="text/css">
	.st0{fill:#12100B;}
</style>
<g>
	<g>
		<path class="st0" d="M62.4,80H19.2c-4.8,0-8.8-3.9-8.8-8.8V40.3h4v30.9c0,2.6,2.1,4.8,4.8,4.8h43.2c2.2,0,4-1.8,4-4V40.3h4V72
			C70.4,76.4,66.8,80,62.4,80z"/>
	</g>
	<g>
		<polygon class="st0" points="72.1,37.5 39.6,5.7 7.9,37.5 5.1,34.7 39.7,0 74.9,34.7 		"/>
	</g>
</g>
<path d="M32.4,44.7v15.4h-1.9c-0.3,0-0.5,0-0.7-0.1c-0.2-0.1-0.4-0.2-0.6-0.5L22,50.4c0,0.3,0,0.5,0.1,0.8s0,0.5,0,0.7v8.3h-3.2
	V44.7h1.9c0.2,0,0.3,0,0.4,0c0.1,0,0.2,0,0.3,0.1c0.1,0,0.2,0.1,0.2,0.2c0.1,0.1,0.2,0.2,0.3,0.3l7.3,9.3c0-0.3-0.1-0.6-0.1-0.9
	c0-0.3,0-0.5,0-0.8v-8.2H32.4z"/>
<path d="M48,60.2h-3.2c-0.6,0-1-0.2-1.3-0.7L40.9,55c-0.1-0.2-0.3-0.3-0.4-0.4c-0.1-0.1-0.4-0.1-0.6-0.1H39v5.7h-3.6V44.7h5
	c1.1,0,2.1,0.1,2.9,0.3s1.4,0.5,1.9,1c0.5,0.4,0.9,0.9,1.1,1.5c0.2,0.6,0.3,1.2,0.3,1.8c0,0.5-0.1,1-0.2,1.4
	c-0.1,0.4-0.3,0.9-0.6,1.2s-0.6,0.7-1,1c-0.4,0.3-0.8,0.5-1.3,0.7c0.2,0.1,0.5,0.3,0.7,0.5c0.2,0.2,0.4,0.4,0.6,0.6L48,60.2z
	 M40.4,52c0.5,0,0.9-0.1,1.2-0.2c0.3-0.1,0.6-0.3,0.8-0.5c0.2-0.2,0.4-0.5,0.5-0.8s0.1-0.6,0.1-0.9c0-0.7-0.2-1.2-0.7-1.6
	c-0.4-0.4-1.1-0.6-2.1-0.6H39V52H40.4z"/>
<path d="M63.2,60.2h-2.8c-0.3,0-0.6-0.1-0.8-0.2c-0.2-0.1-0.3-0.3-0.4-0.6l-0.9-2.7h-5.9l-0.9,2.7c-0.1,0.2-0.2,0.4-0.4,0.5
	c-0.2,0.2-0.5,0.2-0.7,0.2h-2.8l6-15.4h3.7L63.2,60.2z M57.5,54.3L56,50c-0.1-0.3-0.2-0.6-0.3-0.9s-0.2-0.8-0.4-1.2
	c-0.1,0.4-0.2,0.8-0.3,1.2s-0.2,0.7-0.3,1l-1.4,4.2H57.5z"/>
</svg>
