<?xml version="1.0" encoding="utf-8"?>
<!-- Generator: Adobe Illustrator 19.1.1, SVG Export Plug-In . SVG Version: 6.00 Build 0)  -->
<svg version="1.1" id="Calque_1" xmlns="http://www.w3.org/2000/svg" xmlns:xlink="http://www.w3.org/1999/xlink" x="0px" y="0px"
	 viewBox="0 0 80 80" style="enable-background:new 0 0 80 80;" xml:space="preserve">
<path d="M63.6,50L50.5,27.5c2.5-1.8,4-4.6,4-7.9V0H35.6c-5.5,0-10.1,4.5-10.1,10v20h3.4L17,50h-6.3C5.1,50,0.5,54.7,0.5,60.2V80
	h19.1c4.8,0,8.7-3.6,9.7-8h21.1v8h19c5.5,0,10-4.7,10-10.2V50H63.6z M29.5,10c0-3.3,2.8-6,6.1-6h14.9v15.6c0,3.3-2.6,6.4-5.9,6.4
	H29.5V10z M25.5,69.8c0,3.3-2.6,6.2-5.9,6.2H4.5V60.2c0-3.3,2.9-6.2,6.2-6.2h14.8V69.8z M50.5,60.2V68h-21V50h-7.9l11.9-20h11.1
	c0.8,0,1.6-0.3,2.3-0.5L59,50.4C54.2,51.2,50.5,55.2,50.5,60.2z M75.5,69.8c0,3.3-2.7,6.2-6,6.2h-15V60.2c0-3.3,2.7-6.2,6-6.2h15
	V69.8z"/>
</svg>
