<?xml version="1.0" encoding="utf-8"?>
<!-- Generator: Adobe Illustrator 19.1.1, SVG Export Plug-In . SVG Version: 6.00 Build 0)  -->
<svg version="1.1" id="Calque_1" xmlns="http://www.w3.org/2000/svg" xmlns:xlink="http://www.w3.org/1999/xlink" x="0px" y="0px"
	 viewBox="0 0 80 80" style="enable-background:new 0 0 80 80;" xml:space="preserve">
<g>
	<path d="M35.1,58.3l-2.7-2.7c-0.8-0.8-0.8-2,0-2.8s2-0.8,2.8,0l2.7,2.7c0.8,0.8,0.8,2,0,2.8C37,59.2,35.8,59.1,35.1,58.3z
		 M25.5,48.8L22.8,46c-0.8-0.8-0.8-2,0-2.8s2-0.8,2.8,0l2.7,2.7c0.8,0.8,0.8,2,0,2.8C27.5,49.6,26.3,49.5,25.5,48.8z"/>
</g>
<path d="M75.7,19.6l-1.4-1.2l-1.3,1.3c-2.2,2.2-7.7,5.4-13.1,0c-5.2-5.2-2.3-10.9,0-13.1l1.4-1.4l-1.3-1.4c-1.2-1.3-3.7-3.5-7.4-3.6
	c-3-0.1-6.1,1.4-9,4.3l-39,39c-2.9,2.9-4.4,6-4.3,9.1c0.1,2.7,1.3,5.4,3.5,7.3l1.4,1.3l1.3-1.4c5-4.6,10-3.5,13.3-0.2
	c3.6,3.6,4.2,8.9-0.2,13.3l-1.4,1.3l1.2,1.5c2,2.4,5.3,3.9,8.7,4.1c0.2,0,0.3,0,0.5,0c3.2,0,6.2-1.3,8.6-3.6l39-39
	c2.4-2.4,3.6-5.4,3.5-8.7C79.7,25.1,78.1,21.7,75.7,19.6z M73.4,34.4L45.1,62.7l-0.4-0.4c-0.8-0.8-2-0.8-2.8,0s-0.8,2,0,2.8l0.4,0.4
	l-7.9,7.9c-2.1,2.1-4.5,2.5-6.1,2.4c-1.6-0.1-3.3-0.6-4.5-1.5c2.9-3.7,5.3-10.9-1.4-17.7c-5.9-5.9-13.1-3.9-17.2-1.3
	c-0.5-0.8-1-1.6-1-2.9c0-2,1-4.1,3.1-6.2l7.9-7.9l0.8,0.8c0.6,0.6,1.9,0.9,2.8,0c0.8-0.8,0.8-2,0-2.8L18,35.6L46.3,7.3
	c2.1-2.1,4.1-3.1,6.1-3.1c1.3,0,2.4,0.5,3.2,1.1c-3,4.2-4.6,11.1,1.4,17.2c6.4,6.4,13.7,4.1,17.2,1.4c0.9,1.2,1.6,2.9,1.6,4.8
	C75.9,30.8,75.1,32.8,73.4,34.4z"/>
</svg>
