<?xml version="1.0" encoding="utf-8"?>
<!-- Generator: Adobe Illustrator 20.1.0, SVG Export Plug-In . SVG Version: 6.00 Build 0)  -->
<svg version="1.1" id="Layer_1" xmlns="http://www.w3.org/2000/svg" xmlns:xlink="http://www.w3.org/1999/xlink" x="0px" y="0px"
	 viewBox="0 0 80 80" style="enable-background:new 0 0 80 80;" xml:space="preserve">
<title>anti-affinity</title>
<path d="M54.3,14c-4.8,0-9.5,1.4-13.6,3.9l0,0c-0.8,0.6-2,1.4-3.5,2.6l0,0c-10.7,9.2-11.9,25.4-2.7,36.1c0.8,0.9,1.6,1.7,2.5,2.5
	c-10.7,5.5-23.8,1.2-29.3-9.5s-1.2-23.8,9.5-29.3c5.2-2.7,11.3-3.1,16.9-1.2c1-1.1,2-2.1,3.1-3c-6.4-2.8-13.7-2.8-20.2,0
	C3.7,20.9-3.3,35.6,1.5,48.9S21,69.3,34.3,64.5c0.8-0.3,1.7-0.7,2.5-1c1.2-0.5,2.4-1.1,3.5-1.7c0.8-0.6,3.8-2.9,4.2-3.2
	c10.4-9.6,11.1-25.8,1.6-36.2c-0.6-0.7-1.3-1.3-2-1.9c10.6-5.6,23.8-1.6,29.4,9s1.6,23.8-9,29.4c-5.4,2.9-11.7,3.3-17.4,1.3
	c-1,1-2.2,2.2-3.3,3.2c13,5.8,28.2-0.1,34-13.1s-0.1-28.2-13.1-34C61.4,14.8,57.9,14,54.3,14L54.3,14z"/>
</svg>
