<?xml version="1.0" encoding="utf-8"?>
<!-- Generator: Adobe Illustrator 19.1.1, SVG Export Plug-In . SVG Version: 6.00 Build 0)  -->
<svg version="1.1" id="Calque_1" xmlns="http://www.w3.org/2000/svg" xmlns:xlink="http://www.w3.org/1999/xlink" x="0px" y="0px"
	 viewBox="0 0 80 80" style="enable-background:new 0 0 80 80;" xml:space="preserve">
<g>
	<path d="M26.3,79.5H12.2c-1.1,0-2-0.9-2-2V63.8c0-0.5,0.2-1.2,0.6-1.5c0.4-0.4,0.9-0.7,1.4-0.7c0,0,0,0,0,0c0,0,6.3,0.2,14,0.2
		c6.7,0,12-5.1,12-11.7c0-2.6,0-6.1,0-9.5h-12c-0.7,0-1.4-0.4-1.7-1c-0.4-0.6-0.4-1.4,0-2l20.8-36c0.4-0.6,1-1,1.7-1s1.4,0.4,1.7,1
		l20.8,36c0.4,0.6,0.4,1.4,0,2c-0.4,0.6-1,1-1.7,1H56.2v9.1C56.2,66.1,42.8,79.5,26.3,79.5z M14.2,75.5h12.1
		c14.3,0,25.9-11.6,25.9-25.9V38.5c0-1.1,0.9-2,2-2h10.2L47,6.5l-17.3,30h10.5c1.1,0,2,0.9,2,2c0,4,0,8.5,0,11.6
		c0,8.8-7,15.7-16,15.7c-5.1,0-9.6,0-12.1,0V75.5z"/>
</g>
</svg>
