<?xml version="1.0" encoding="utf-8"?>
<!-- Generator: Adobe Illustrator 20.0.0, SVG Export Plug-In . SVG Version: 6.00 Build 0)  -->
<svg version="1.1" id="Layer_1" xmlns="http://www.w3.org/2000/svg" xmlns:xlink="http://www.w3.org/1999/xlink" x="0px" y="0px"
	 viewBox="0 0 80 80" style="enable-background:new 0 0 80 80;" xml:space="preserve">
<title>Artboard 7 copy 2</title>
<g>
	<path d="M80,59.4c0-1.3,0-2.7,0-4c0-0.8-0.2-1.7-0.2-2.5c-0.1-0.7-0.1-0.6-0.1-0.4c-0.1-0.5-0.3-1-0.6-1.5c-0.4-0.6-1-0.9-1.4-1.5
		c-0.3-0.5-0.2-1.2-0.3-1.8c-0.2-0.9-0.4-1.7-0.8-2.5c-0.6-1.3-1.6-2.5-2.7-3.5c-0.6-0.5-1.2-0.9-1.9-1.2c-0.6-0.3-1.7-0.4-2-1
		c-0.2-0.5,0-1.8-0.1-2.3c-0.1-0.8-0.2-1.5-0.4-2.3c-0.4-1.6-1.1-3.2-2-4.7c-1.6-2.6-3.9-4.7-6.7-6c-1.3-0.6-2.7-1-4.1-1.2
		c-0.6-0.1-1.5,0-2.1-0.3c-0.6-0.3-0.8-1.1-1.2-1.7c-1.5-2.3-3.5-4.3-6-5.7c-4.5-2.5-9.5-2.9-14.3-1.2c-2.7,0.9-5.1,2.6-7,4.7
		c-0.9,1.1-1.5,2.3-2.3,3.4c-0.7,1-2.5,0.7-3.7,1c-5.3,1.2-9.6,5.2-11.3,10.2c-0.5,1.5-0.9,3-0.9,4.6c0,0.6,0.2,1.5-0.2,2
		c-0.3,0.4-1.5,0.5-1.9,0.7c-2.4,1.1-4.3,3.2-5.1,5.7c-0.7,2.1-0.9,3.8-0.2,5.9c1,2.9,2.5,5.1,5.3,6.6c3.6,2,7.4,1.7,11.4,1.7
		c2.8,0,5.7,0.2,8.5,0.2c3.2,0,6.5,0,9.7,0c0,2,0,3.7,1.2,5.4c1.1,1.4,2.7,2.1,4.4,2.5c0.7,0.2,1.4,0.1,2.1,0.1c4.1,0,8.3,0,12.4,0
		c4.8,0,9.6,0,14.3,0c3.4,0,6.9,0.5,9.1-2.7C80.3,64.1,80,61.7,80,59.4z M71.8,45.8c0.8,0.5,1.4,1.3,1.5,2.2h-1.5V45.8z M14.1,56.5
		c-3.5,0-7.2-0.3-9.1-3.7c-1.4-2.6-0.7-5.9,1.7-7.7c1.6-1.2,3.7-1.5,5.6-2.1c-0.4-3-0.5-6,0.8-8.8c1.2-2.7,3.3-4.9,6-6.2
		c1.2-0.6,2.5-0.9,3.8-1c0.7-0.1,1.4-0.1,2.2,0c1.2,0.1,1.2,0.2,1.6-0.9c0.9-2.6,2.6-5,5-6.5c4.9-3.2,11.7-2.7,16.1,1.2
		c1,0.9,1.8,1.9,2.5,3c0.4,0.7,0.9,3.2,1.7,3.5c0.4,0.1,1.2-0.1,1.7-0.2c0.8,0,1.7,0,2.5,0.2c1.4,0.3,2.8,0.8,4,1.5
		c2.5,1.5,4.3,3.8,5.1,6.6c0.3,0.9,0.5,1.8,0.6,2.7c0,0.4,0.4,2.1,0,2.4c-0.3,0.3-1.5,0.1-1.9,0.1c0-3.4-0.8-6.9-4.6-7.9
		c-1-0.3-2.1-0.2-3.1-0.2c-4,0-8.1,0-12.1,0c-4.7,0-16.8,0-18.1,0c-1.8,0-3.6,0.2-4.9,1.3c-1.5,1.1-2.3,2.8-2.4,4.6
		c-0.1,2.7,0,5.4,0,8.1c0,2.1,0.8,4,2.6,5.2c1.6,1.1,3.6,1.2,5.6,1.1c-0.1,1.2,0,2.4,0.3,3.6C27.3,56.4,18.2,56.5,14.1,56.5z
		 M27.1,45.1c0,0.1,0,0.1,0,0.1C27,46.3,27,47.3,27,48.4c-1.7,0-3.4,0.2-4-1.8c-0.2-0.5-0.1-1.1-0.2-1.8c0-1.4,0-5.4,0-6.1
		c0-1.4,0.3-2.6,2.2-2.6c2.1,0,4.2,0,6.3,0c7.5,0,15.1,0,22.6,0c1.1,0,2.3,0,3.4,0c0.2,0,0.3,0,0.5,0c0.8,0,1.7,0.1,2,0.9
		c0.3,0.8,0.1,2.1,0.1,3c-6.3,0-23.3,0.1-25.3,0.2c-3.6,0.1-6.4,0.8-7.4,4.5C27.3,44.1,27.5,43.2,27.1,45.1z M35.2,54.2
		c0,0.5,0.1,1.1,0,1.6c-0.1,0.7,0,0.6-0.7,0.7c-0.9,0.2-2,0-2.7-0.7c-0.8-0.9-0.7-2-0.7-3.1c0-1.3,0-2.6,0-3.9
		c0-1.7-0.6-4.3,1.7-4.5c2.5-0.2,5,0,7.4,0c5.5,0,10.9,0,16.4,0c2.7,0,5.5,0,8.2,0c0.9,0,2.3-0.2,3,0.6c0.6,0.7,0.3,2.4,0.3,3.2
		c-8.8,0-17.6-0.1-26.4,0C38.2,48.1,35.2,50.5,35.2,54.2z M76.2,56.5c-0.1,1.2-0.1,2.2-0.1,3.3c0,2,0.2,4.5-2.4,4.7
		c-0.6,0-1.3,0-1.9,0c-2.9,0-5.8,0-8.7,0c-6.5,0-13,0-19.4,0c-0.6,0-1.2,0-1.8,0c-2.6-0.1-2.6-2.3-2.6-4.4c0-1.8,0-3.7,0-5.5
		c0-1.1-0.1-2,1.1-2.5c0.7-0.3,1.6-0.2,2.3-0.2c6.4,0,12.7,0.1,19.1,0.1c3.4,0,6.8,0,10.2,0.1c0.7,0,1.4,0,2,0
		c1,0.1,1.9,0.3,2.2,1.4C76.4,54.4,76.2,55.6,76.2,56.5z"/>
	<rect x="67.9" y="56.5" width="4" height="4"/>
</g>
</svg>
