<?xml version="1.0" encoding="utf-8"?>
<!-- Generator: Adobe Illustrator 20.1.0, SVG Export Plug-In . SVG Version: 6.00 Build 0)  -->
<svg version="1.1" id="Layer_1" xmlns="http://www.w3.org/2000/svg" xmlns:xlink="http://www.w3.org/1999/xlink" x="0px" y="0px"
	 viewBox="0 0 80 80" style="enable-background:new 0 0 80 80;" xml:space="preserve">
<title>affinity</title>
<path d="M53.9,13.8c-4.9,0-9.7,1.4-13.9,4c-12.2-7.7-28.4-4-36,8.3s-4,28.4,8.3,36c8.5,5.3,19.3,5.3,27.8,0
	c12.3,7.6,28.4,3.9,36-8.4s3.9-28.4-8.4-36C63.5,15.2,58.8,13.8,53.9,13.8z M28.7,39.9c0-8.4,4.3-16.3,11.3-20.9
	c11.6,7.6,14.8,23.2,7.2,34.8c-1.9,2.9-4.3,5.3-7.2,7.2C33,56.3,28.7,48.4,28.7,39.9z"/>
</svg>
