<?xml version="1.0" encoding="utf-8"?>
<!-- Generator: Adobe Illustrator 19.2.1, SVG Export Plug-In . SVG Version: 6.00 Build 0)  -->
<svg version="1.1" id="Calque_1" xmlns="http://www.w3.org/2000/svg" xmlns:xlink="http://www.w3.org/1999/xlink" x="0px" y="0px"
	 viewBox="0 0 80 80" style="enable-background:new 0 0 80 80;" xml:space="preserve">
<g>
	<path d="M40,80C13.4,80,1.3,59.3,1.3,40.1C1.3,16.8,17.6,0,40,0c22.8,0,38.7,16.5,38.7,40.1C78.7,63.6,62.8,80,40,80z M40,4
		C19.9,4,5.3,19.2,5.3,40.1c0,17.3,10.8,36,34.7,36c23.8,0,34.7-18.6,34.7-36C74.7,18.8,60.4,4,40,4z"/>
</g>
<g>
	<g>
		<path d="M52.8,57.8H27c-2.1,0-3.8-1.7-3.8-3.8V26c0-2.1,1.7-3.8,3.8-3.8h25.8c2.1,0,3.8,1.7,3.8,3.8v28
			C56.7,56.1,55,57.8,52.8,57.8z M27,25.8c-0.1,0-0.2,0.1-0.2,0.2v28c0,0.1,0.1,0.2,0.2,0.2h25.8c0.1,0,0.2-0.1,0.2-0.2V26
			c0-0.1-0.1-0.2-0.2-0.2H27z"/>
	</g>
</g>
</svg>
