<?xml version="1.0" encoding="utf-8"?>
<!-- Generator: Adobe Illustrator 21.0.0, SVG Export Plug-In . SVG Version: 6.00 Build 0)  -->
<svg version="1.1" id="Calque_1" xmlns="http://www.w3.org/2000/svg" xmlns:xlink="http://www.w3.org/1999/xlink" x="0px" y="0px"
	 viewBox="0 0 80 80" style="enable-background:new 0 0 80 80;" xml:space="preserve">
<path d="M72.4,39.8c-1.8,0-3.6,0.7-5,1.9h-5.8V20.5c0-1.1-0.9-2-2-2H37.4v-6c1.2-1.4,1.9-3.1,1.9-5c0-4.2-3.4-7.6-7.6-7.6
	s-7.6,3.4-7.6,7.6c0,1.8,0.7,3.5,1.8,4.9v6.1H2.1c-1.1,0-2,0.9-2,2v24.9c0,1.1,0.9,2,2,2h8.9c0.6,0,1.1-0.2,1.5-0.7
	c0.7-0.8,1.6-1.2,2.6-1.2c2,0,3.6,1.6,3.6,3.6c0,2-1.6,3.6-3.6,3.6c-1,0-2-0.4-2.7-1.2c-0.4-0.4-0.9-0.7-1.5-0.7H2.1
	c-1.1,0-2,0.9-2,2c0,0,0,0.1,0,0.1c0,0,0,0.1,0,0.1V78c0,1.1,0.9,2,2,2h24c1.1,0,2-0.9,2-2v-8.8c0-0.6-0.2-1.1-0.7-1.5
	C26.6,67,26.2,66,26.2,65c0-2,1.6-3.6,3.6-3.6s3.6,1.6,3.6,3.6c0,1-0.4,1.9-1.2,2.6c-0.4,0.4-0.7,0.9-0.7,1.5V78c0,1.1,0.9,2,2,2H54
	c4.2,0,7.6-3.4,7.6-7.6V53.1h5.9c1.4,1.2,3.1,1.8,4.9,1.8c4.2,0,7.6-3.4,7.6-7.6C79.9,43.2,76.5,39.8,72.4,39.8z M72.4,50.9
	c-1,0-1.9-0.4-2.6-1.2c-0.4-0.4-0.9-0.7-1.5-0.7h-8.7c-1.1,0-2,0.9-2,2v21.4c0,2-1.6,3.6-3.6,3.6H35.5v-6.1c1.2-1.4,1.8-3.1,1.8-4.9
	c0-4.2-3.4-7.6-7.6-7.6s-7.6,3.4-7.6,7.6c0,1.8,0.7,3.6,1.9,5v6h-20V54.9h6c1.4,1.2,3.1,1.9,5,1.9c4.2,0,7.6-3.4,7.6-7.6
	c0-4.2-3.4-7.6-7.6-7.6c-1.8,0-3.5,0.7-4.9,1.8H4.1V22.5H28c1.1,0,2-0.9,2-2v-8.9c0-0.6-0.2-1.1-0.7-1.5c-0.8-0.7-1.2-1.6-1.2-2.6
	c0-2,1.6-3.6,3.6-3.6s3.6,1.6,3.6,3.6c0,1-0.4,2-1.2,2.7c-0.4,0.4-0.7,0.9-0.7,1.5v8.8c0,1.1,0.9,2,2,2h22.1v21.1c0,1.1,0.9,2,2,2
	h8.7c0.6,0,1.1-0.2,1.5-0.7c0.7-0.8,1.6-1.2,2.7-1.2c2,0,3.6,1.6,3.6,3.6C75.9,49.3,74.3,50.9,72.4,50.9z"/>
</svg>
