<?xml version="1.0" encoding="utf-8"?>
<!-- Generator: Adobe Illustrator 19.1.1, SVG Export Plug-In . SVG Version: 6.00 Build 0)  -->
<svg version="1.1" id="Calque_1" xmlns="http://www.w3.org/2000/svg" xmlns:xlink="http://www.w3.org/1999/xlink" x="0px" y="0px"
	 viewBox="0 0 80 80" style="enable-background:new 0 0 80 80;" xml:space="preserve">
<g>
	<g>
		<path d="M74.6,80H5.4V0h51.2c9.9,0,18,8.1,18,18V80z M9.4,76h61.3V18c0-7.7-6.3-14-14-14H9.4V76z"/>
	</g>
</g>
<g>
	<g>
		<rect x="17.6" y="16.2" width="44.8" height="4"/>
	</g>
</g>
<path d="M33.9,37.9c1.8-1.4,3.6-2.2,6.1-2.2c3.7,0,6.1,2.1,6.1,5.3c0,1.7-0.6,2.9-1.4,3.8c-0.9,0.9-1.9,1.5-2.8,2.3
	c-0.2,0.3-0.4,0.5-0.5,0.8l-0.4,2.1h-3.2l-0.3-2.4c-0.1-1,0.1-1.4,0.9-2.3c0.4-0.4,1.1-0.9,1.7-1.3c0.6-0.5,1.7-1.2,1.7-2.7
	c0-1.1-0.8-2-2.2-2c-1.4,0-2.2,0.5-2.9,0.9c-0.5,0.3-1.2,0.2-1.5-0.4L33.9,37.9z"/>
<g>
	<path d="M40,67.9c-13.2,0-20.2-10.5-20.2-20.8c0-12.1,8.5-20.9,20.2-20.9c11.9,0,20.2,8.6,20.2,20.9C60.2,59.4,51.9,67.9,40,67.9z
		 M40,30.2c-9.4,0-16.2,7.1-16.2,16.9c0,8.1,5.1,16.8,16.2,16.8c11.2,0,16.2-8.4,16.2-16.8C56.2,37.2,49.5,30.2,40,30.2z"/>
</g>
<g>
	<circle cx="39.4" cy="55.4" r="2.5"/>
</g>
</svg>
