<?xml version="1.0" encoding="utf-8"?>
<!-- Generator: Adobe Illustrator 19.1.1, SVG Export Plug-In . SVG Version: 6.00 Build 0)  -->
<svg version="1.1" id="Calque_1" xmlns="http://www.w3.org/2000/svg" xmlns:xlink="http://www.w3.org/1999/xlink" x="0px" y="0px"
	 viewBox="0 0 80 80" style="enable-background:new 0 0 80 80;" xml:space="preserve">
<g>
	<g>
		<polygon points="62.3,80 58.2,80 58.2,76 58.3,76 58.3,75.9 62.3,75.9 		"/>
	</g>
	<g>
		<path d="M54.2,80h-4.1v-4h4.1V80z M46.1,80H42v-4h4.1V80z M38,80h-4.1v-4H38V80z M29.9,80h-4.1v-4h4.1V80z"/>
	</g>
	<g>
		<polygon points="21.8,80 17.7,80 17.7,75.9 21.7,75.9 21.7,76 21.8,76 		"/>
	</g>
	<g>
		<path d="M21.7,71.7h-4v-4.2h4V71.7z M21.7,63.3h-4V59h4V63.3z M21.7,54.8h-4v-4.2h4V54.8z M21.7,46.3h-4v-4.2h4V46.3z M21.7,37.9
			h-4v-4.2h4V37.9z M21.7,29.4h-4v-4.2h4V29.4z M21.7,21h-4v-4.2h4V21z M21.7,12.5h-4V8.3h4V12.5z"/>
	</g>
	<g>
		<polygon points="21.7,4.1 17.7,4.1 17.7,0 21.8,0 21.8,4 21.7,4 		"/>
	</g>
	<g>
		<path d="M54.2,4h-4.1V0h4.1V4z M46.1,4H42V0h4.1V4z M38,4h-4.1V0H38V4z M29.9,4h-4.1V0h4.1V4z"/>
	</g>
	<g>
		<polygon points="62.3,4.1 58.3,4.1 58.3,4 58.2,4 58.2,0 62.3,0 		"/>
	</g>
	<g>
		<path d="M62.3,71.7h-4v-4.2h4V71.7z M62.3,63.3h-4V59h4V63.3z M62.3,54.8h-4v-4.2h4V54.8z M62.3,46.3h-4v-4.2h4V46.3z M62.3,37.9
			h-4v-4.2h4V37.9z M62.3,29.4h-4v-4.2h4V29.4z M62.3,21h-4v-4.2h4V21z M62.3,12.5h-4V8.3h4V12.5z"/>
	</g>
</g>
<path d="M48.3,34.9c2.2,0,3.7-2.2,3.7-4.4V10.9H32.3c-2.2,0-4.3,1.4-4.3,3.6v20.4h10v10h-5.7c-2.2,0-4.3,1.4-4.3,3.6v20.4h20.3
	c2.2,0,3.7-2.2,3.7-4.4V44.9H42v-10H48.3z M48,64.9H32v-16h16V64.9z M32,14.9h16v16H32V14.9z"/>
</svg>
