<?xml version="1.0" encoding="utf-8"?>
<!-- Generator: Adobe Illustrator 19.1.1, SVG Export Plug-In . SVG Version: 6.00 Build 0)  -->
<svg version="1.1" id="Calque_1" xmlns="http://www.w3.org/2000/svg" xmlns:xlink="http://www.w3.org/1999/xlink" x="0px" y="0px"
	 viewBox="0 0 80 80" style="enable-background:new 0 0 80 80;" xml:space="preserve">
<g>
	<path d="M74,23.5V11.2C74,6.8,70.4,3,66,3H12C5.4,3,0,9,0,15l0,0v50.2C0,71.8,5.4,77,12,77h60c4.4,0,8-3.4,8-7.8v-38
		C80,27.5,77,24.4,74,23.5z M12,7h54c2.2,0,4,2,4,4.2V23h-2v-7.8c0-2.2-1.8-4.2-4-4.2H10c-2.2,0-4,1.9-4,4.1l0,5.3
		c-1.2-1.4-2-3.3-2-5.3C4,10.7,7.6,7,12,7z M9.9,22.7l0-1.7H64v2H12C11.3,23,10.6,22.9,9.9,22.7z M64,17H10l0-2h54V17z M72,73H12
		c-4.4,0-8-3.4-8-7.8V24.1c2,1.9,4.9,3,8,3l0-0.1h60c2.2,0,4,2,4,4.2V40H57.9c-3.3,0-5.9,2.9-5.9,6.2v8c0,3.3,2.6,5.8,5.9,5.8H76
		v9.2C76,71.4,74.2,73,72,73z M76,44v12H57.9c-1.1,0-1.9-0.7-1.9-1.8v-8c0-1.1,0.8-2.2,1.9-2.2H76z"/>
	<circle cx="62.9" cy="50.2" r="3"/>
</g>
</svg>
