<?xml version="1.0" encoding="utf-8"?>
<!-- Generator: Adobe Illustrator 19.1.1, SVG Export Plug-In . SVG Version: 6.00 Build 0)  -->
<svg version="1.1" id="Calque_1" xmlns="http://www.w3.org/2000/svg" xmlns:xlink="http://www.w3.org/1999/xlink" x="0px" y="0px"
	 viewBox="0 0 80 80" style="enable-background:new 0 0 80 80;" xml:space="preserve">
<g>
	<path d="M40,80C13.4,80,1.3,59.3,1.3,40C1.3,16.9,17.6,0,40,0c22.8,0,38.7,16.5,38.7,40.1C78.7,63.6,62.8,80,40,80z M40,4
		C19.9,4,5.3,19.2,5.3,40.1c0,17.3,10.9,36,34.7,36c23.9,0,34.7-18.6,34.7-36C74.7,18.8,60.4,4,40,4z"/>
</g>
<path d="M63.5,37.7L63.5,37.7L42,37.8l0.1-21.2c0-1.1-0.9-2-2-2s-2,0.9-2,2L38,37.8l-21.5,0.1c-1.1,0-2,0.9-2,2s0.9,1.8,2,1.8l0,0
	H38l-0.1,21.9c0,1.1,0.9,2.1,2,2.1l0,0c1.1,0,2-1,2-2.1L42,41.7h21.5c1.1,0,2-0.8,2-1.9C65.5,38.7,64.6,37.7,63.5,37.7z"/>
</svg>
