<?xml version="1.0" encoding="utf-8"?>
<!-- Generator: Adobe Illustrator 19.1.1, SVG Export Plug-In . SVG Version: 6.00 Build 0)  -->
<svg version="1.1" id="Calque_1" xmlns="http://www.w3.org/2000/svg" xmlns:xlink="http://www.w3.org/1999/xlink" x="0px" y="0px"
	 viewBox="0 0 80 80" style="enable-background:new 0 0 80 80;" xml:space="preserve">
<g>
	<path d="M62.4,80H5.6V12c0-6.6,5.4-12,12-12h56.9V68C74.4,74.6,69,80,62.4,80z M9.6,76h52.9c4.4,0,8-3.6,8-8V4H17.6
		c-4.4,0-8,3.6-8,8V76z"/>
</g>
<g>
	<circle cx="55.9" cy="35" r="2"/>
</g>
<g>
	<circle cx="56.2" cy="18.7" r="2"/>
</g>
<g>
	<circle cx="55.8" cy="51" r="2"/>
</g>
<path d="M56.5,8.7h-32C19,8.7,14,13.6,14,19.1v32c0,5.5,5,9.6,10.5,9.6H38v2.6c-1,0.5-1.7,1.4-2.2,2.4H24v4h11.8
	c0.8,2,2.5,2.9,4.5,2.9s3.8-0.9,4.5-2.9H57v-4H45c-0.5-1-1-1.8-3-2.4v-2.6h14.5c5.5,0,9.5-4.1,9.5-9.6v-32C66,13.6,62,8.7,56.5,8.7z
	 M40.4,68.9c-0.6,0-1-0.4-1-1s0.4-1,1-1s1,0.4,1,1S40.9,68.9,40.4,68.9z M24.5,12.7h32c3.3,0,5.5,3.1,5.5,6.4v5.6H18v-5.6
	C18,15.8,21.2,12.7,24.5,12.7z M62,28.7v12H18v-12H62z M56.5,56.7h-32c-3.3,0-6.5-2.3-6.5-5.6v-6.4h44v6.4
	C62,54.4,59.8,56.7,56.5,56.7z"/>
</svg>
