<?xml version="1.0" encoding="utf-8"?>
<!-- Generator: Adobe Illustrator 19.2.1, SVG Export Plug-In . SVG Version: 6.00 Build 0)  -->
<svg version="1.1" id="Calque_1" xmlns="http://www.w3.org/2000/svg" xmlns:xlink="http://www.w3.org/1999/xlink" x="0px" y="0px"
	 viewBox="0 0 80 80" style="enable-background:new 0 0 80 80;" xml:space="preserve">
<g>
	<circle cx="61.2" cy="30.2" r="3.3"/>
</g>
<g>
	<circle cx="71.2" cy="30.2" r="3.3"/>
</g>
<g>
	<circle cx="51.2" cy="30.2" r="3.3"/>
</g>
<g>
	<path d="M55.2,80c-5.8,0-11.5-1.9-16-5.9L39.1,74L6.9,41.8C-2.3,31.4-2.3,16.6,7,7.3L12.3,2c2.7-2.7,7.2-2.7,9.9,0L33,12.8
		c2.7,2.7,2.7,7.1,0,9.7l-4.7,4.7c-1.2,1.2-2,3.2-2,5.3c0,2.1,0.7,4,2,5.3l15,15c1.3,1.3,2.9,2,4.7,2c1.8,0,3.4-0.7,4.7-1.9l4.8-5.9
		c2.7-2.7,7.1-2.7,9.7,0l10.8,10.8c1.3,1.3,2.1,3.1,2.1,5c0,1.9-0.7,3.6-2.1,5l-5.3,5.3C67.9,77.6,61.6,80,55.2,80z M41.9,71.1
		c7.9,6.9,20.4,6.4,27.9-1l5.3-5.3c0.6-0.6,0.9-1.3,0.9-2.1c0-0.8-0.3-1.6-0.9-2.1L64.3,49.8c-1.1-1.1-2.9-1.1-4-0.1l-4.8,5.9
		c-2,2-4.7,3.1-7.6,3.1c-2.9,0-5.5-1.1-7.6-3.1l-15-15c-2-2-3.1-4.9-3.1-8.1c0-3.2,1.1-6.1,3.1-8.1l4.7-4.7c1.1-1.1,1.1-3,0-4.1
		L19.4,4.9c-1.2-1.2-3.1-1.2-4.2,0l-5.3,5.3c-7.7,7.7-7.7,20.2,0,29L41.9,71.1z"/>
</g>
</svg>
