<svg id="Layer_1" data-name="Layer 1" xmlns="http://www.w3.org/2000/svg" viewBox="0 0 26 32"><title>typeArtboard 1</title><path d="M26,6.31a.5.5,0,0,0-.11-.16l-6-6A.5.5,0,0,0,19.5,0H1.5A1.44,1.44,0,0,0,0,1.5v29A1.45,1.45,0,0,0,1.5,32h23A1.45,1.45,0,0,0,26,30.5V6.5A.5.5,0,0,0,26,6.31Zm-6-4.6L24.29,6H20.5a.45.45,0,0,1-.5-.5ZM25,30.5a.45.45,0,0,1-.5.5H1.5a.45.45,0,0,1-.5-.5V1.5A.45.45,0,0,1,1.5,1H19V5.5A1.45,1.45,0,0,0,20.5,7H25Z" fill="#122844"/><path d="M4,11.5a.5.5,0,0,0,.5.5h17a.5.5,0,0,0,0-1H4.5A.5.5,0,0,0,4,11.5Z" fill="#122844"/><path d="M21.5,16H4.5a.5.5,0,0,0,0,1h17a.5.5,0,0,0,0-1Z" fill="#122844"/><path d="M21.5,21H4.5a.5.5,0,0,0,0,1h17a.5.5,0,0,0,0-1Z" fill="#122844"/><path d="M21.5,26H4.5a.5.5,0,0,0,0,1h17a.5.5,0,0,0,0-1Z" fill="#122844"/></svg>