<?xml version="1.0" encoding="utf-8"?>
<!-- Generator: Adobe Illustrator 21.0.0, SVG Export Plug-In . SVG Version: 6.00 Build 0)  -->
<svg version="1.1" id="Calque_1" xmlns="http://www.w3.org/2000/svg" xmlns:xlink="http://www.w3.org/1999/xlink" x="0px" y="0px"
	 viewBox="0 0 64 64" style="enable-background:new 0 0 64 64;" xml:space="preserve">
<path d="M32,0C14.3,0,0,14.3,0,32s14.3,32,32,32s32-14.3,32-32S49.7,0,32,0z M30.4,53.8c-2.5,0-4.4-2-4.4-4.6c0-2.7,1.9-4.7,4.5-4.7
	c2.6,0,4.4,2,4.4,4.7C34.9,51.8,33,53.8,30.4,53.8z M36.9,30.9c-2.4,2.9-3.4,3.6-3.2,6.5l0.1,2.5h-6.4l-0.2-2.4
	c-0.4-3.7,0.9-5.6,3.9-9.3c2.5-3,4-5.2,4-7.7c0-2.7-1.7-4.2-4.8-4.3c-2,0-4.2,0.7-5.5,1.7l-0.9,0.7l-2.1-5.5l0.5-0.4
	c2.1-1.6,5.7-2.6,9.1-2.6c7.5,0,10.9,4.9,10.9,9.7C42.3,24.2,39.9,27.3,36.9,30.9z"/>
</svg>
