<svg id="Layer_1" data-name="Layer 1" xmlns="http://www.w3.org/2000/svg" viewBox="0 0 18 20"><title>typeArtboard 1</title><path d="M18,.49a.49.49,0,0,0-.14-.33l0,0L17.75.07h0A.49.49,0,0,0,17.46,0h-.05l-.1,0L.31,7a.5.5,0,0,0-.16.82L5,12.71V17.5a.5.5,0,0,0,.26.44A.49.49,0,0,0,5.5,18a.5.5,0,0,0,.28-.08l2.66-1.77,3.71,3.71a.5.5,0,0,0,.35.15l.13,0a.5.5,0,0,0,.35-.36l5-19a.48.48,0,0,0,0-.08A.48.48,0,0,0,18,.49ZM15.38,1.91,5.5,11.79,1.38,7.68ZM6,16.57V13.71l1.72,1.72Zm6.24,2-6-6L16.55,2.16Z" fill="#122844"/></svg>