<svg id="Layer_1" data-name="Layer 1" xmlns="http://www.w3.org/2000/svg" viewBox="0 0 22 32"><title>typeArtboard 1</title><g id="Review_Identify_Pay_Approval" data-name="Review/Identify/Pay/Approval"><g id="C---Order-Approval"><g id="Bloc-1"><g id="Bloc"><g id="Group-2"><g id="Options"><g id="user_64px-bkg-light" data-name="user 64px-bkg-light"><path d="M11,12a6,6,0,1,1,6-6A6,6,0,0,1,11,12ZM11,1a5,5,0,1,0,5,5A5,5,0,0,0,11,1Z" fill="#122844"/><path d="M21.5,32H.5a.5.5,0,0,1-.5-.5V25.8a11,11,0,0,1,22,0v5.7A.5.5,0,0,1,21.5,32ZM1,31H21V25.8a10,10,0,0,0-20,0Z" fill="#122844"/></g></g></g></g></g></g></g></svg>