<?xml version="1.0" encoding="utf-8"?>
<!-- Generator: Adobe Illustrator 21.0.0, SVG Export Plug-In . SVG Version: 6.00 Build 0)  -->
<svg version="1.1" id="Calque_1" xmlns="http://www.w3.org/2000/svg" xmlns:xlink="http://www.w3.org/1999/xlink" x="0px" y="0px"
	 viewBox="0 0 64 64" style="enable-background:new 0 0 64 64;" xml:space="preserve">
<path d="M63.4,56.6L51.7,36.5l-5.4-9.2L34.7,7.3c-1.5-2.5-3.9-2.5-5.3,0L17.7,27.3l-5.4,9.2L0.6,56.6c-1.5,2.5-0.3,4.6,2.6,4.6h57.4
	C63.7,61.2,64.8,59.1,63.4,56.6z M28.7,21c0-1.8,1.3-2.9,3.3-2.9s3.1,1,3.1,2.9c0.2,6.9-0.1,13.9-0.8,20.8c0,0.1,0,0.2,0,0.3
	c-0.2,1.1-1.2,1.9-2.3,1.7c-1,0-2.2-0.2-2.4-2C29,34.9,28.6,27.9,28.7,21z M32,54.2c-1.8,0-3.3-1.5-3.3-3.3c0-1.8,1.5-3.3,3.3-3.3
	s3.3,1.5,3.3,3.3C35.3,52.7,33.8,54.2,32,54.2z"/>
</svg>
