<svg xmlns="http://www.w3.org/2000/svg" width="24" height="24" viewBox="0 0 24 24">
    <path fill="#0050D7" fill-rule="evenodd" d="M15 5h4c.552 0 1 .448 1 1s-.448 1-1 1H5c-.552 0-1-.448-1-1s.448-1 1-1h4c0-1.857.386-1.99.883-2h4.234c.497.01.883.143.883 2zm-5 4c.552 0 1 .448 1 1v7c0 .552-.448 1-1 1s-1-.448-1-1v-7c0-.552.448-1 1-1zm8-1c.552 0 1 .448 1 1v11c0 1.219-.781 2-2 2H7c-1.219 0-2-.781-2-2V9c0-.552.448-1 1-1s1 .448 1 1v11h10V9c0-.552.448-1 1-1zm-4 1c.552 0 1 .448 1 1v7c0 .552-.448 1-1 1s-1-.448-1-1v-7c0-.552.448-1 1-1z"/>
</svg>
