<svg xmlns="http://www.w3.org/2000/svg" width="24" height="24" viewBox="0 0 24 24">
    <path fill="#0050D7" fill-rule="evenodd" d="M8.246 20.703l-4.245-4.2 4.243-4.2c.4-.396 1.045-.396 1.445 0 .395.393.41 1.027.034 1.438L7.98 15.468h7.995c.565.008 1.02.463 1.031 1.027v.013c.001.274-.108.538-.302.73-.195.194-.46.3-.734.297H7.982l1.716 1.7c.398.394.41 1.034.028 1.443-.202.203-.475.319-.761.322-.27.001-.529-.106-.719-.297zm6.066-8c-.4-.394-.412-1.034-.029-1.444l1.742-1.727H8.03c-.568 0-1.029-.46-1.031-1.028V8.49c-.002-.275.107-.538.302-.731.195-.194.46-.3.735-.294h7.987l-1.716-1.7c-.191-.188-.301-.444-.306-.713-.007-.27.093-.532.279-.729.19-.2.453-.317.73-.323.276-.006.543.1.742.292l4.245 4.2-4.243 4.2c-.193.191-.453.299-.724.3-.268.001-.526-.103-.718-.289z"/>
</svg>
