<?xml version="1.0" encoding="UTF-8"?>
<svg width="36px" height="24px" viewBox="0 0 36 24" version="1.1" xmlns="http://www.w3.org/2000/svg" xmlns:xlink="http://www.w3.org/1999/xlink">
    <!-- Generator: Sketch 57 (83077) - https://sketch.com -->
    <title>oui-Flag/Argentina</title>
    <desc>Created with Sketch.</desc>
    <g id="oui-Flag/Argentina" stroke="none" stroke-width="1" fill="none" fill-rule="evenodd">
        <g id="Argentina" fill-rule="nonzero">
            <rect id="Rectangle-path" fill="#54ABDD" x="0" y="0" width="35.8208955" height="7.93970149"></rect>
            <polygon id="Rectangle-path" fill="#54ABDD" points="0 16.0602985 35.8208955 16.0602985 35.8208955 24 0 24"></polygon>
            <path d="M0,16.0602985 L35.8208955,16.0602985 L35.8208955,7.93970149 L0,7.93970149 L0,16.0602985 Z M14.5898507,11.958806 L16.56,11.8835821 C16.56,11.8835821 16.56,11.8638806 16.56,11.8531343 C16.2626866,11.7492537 16.0602985,11.8531343 15.680597,11.6543284 C15.2328358,11.4250746 15.1056716,11.5576119 14.881791,11.5020896 C14.6579104,11.4465672 14.5826866,11.3032836 14.6220896,11.2674627 C14.6614925,11.2316418 14.7080597,11.3713433 14.8746269,11.3838806 C15.041194,11.3964179 15.3420896,11.2764179 15.7074627,11.4680597 C16.0047761,11.6238806 16.2877612,11.5450746 16.6029851,11.6149254 L16.6029851,11.5916418 L14.8119403,10.7677612 C14.8119403,10.7677612 14.7546269,10.7426866 14.7689552,10.7050746 C14.7832836,10.6674627 14.8441791,10.6907463 14.8441791,10.6907463 L16.6943284,11.3767164 C16.7001608,11.3677299 16.7049669,11.3581176 16.7086567,11.3480597 C16.4758209,11.1385075 16.2501493,11.1528358 15.9725373,10.8286567 C15.6483582,10.4453731 15.478209,10.520597 15.2937313,10.3826866 C15.1092537,10.2447761 15.0931343,10.0853731 15.1432836,10.0674627 C15.1934328,10.0495522 15.1826866,10.1946269 15.3331343,10.2698507 C15.4835821,10.3450746 15.8059701,10.3504478 16.0692537,10.6674627 C16.2985075,10.9253731 16.5904478,10.961194 16.8591045,11.1474627 L16.8752239,11.1295522 L15.5319403,9.68059701 C15.5319403,9.68059701 15.4871642,9.63761194 15.5176119,9.60716418 C15.5480597,9.57671642 15.5910448,9.62149254 15.5910448,9.62149254 L17.038209,10.9647761 L17.0632836,10.9450746 C16.9289552,10.6602985 16.7050746,10.5868657 16.5814925,10.1820896 C16.4274627,9.7038806 16.2429851,9.70746269 16.1247761,9.51044776 C16.0065672,9.31343284 16.0549254,9.15223881 16.1068657,9.15223881 C16.158806,9.15223881 16.0943284,9.28477612 16.2035821,9.4119403 C16.3128358,9.53910448 16.6101493,9.6680597 16.7408955,10.0602985 C16.839403,10.3808955 17.0991045,10.5259701 17.278209,10.8 C17.2857146,10.797146 17.2929149,10.7935459 17.2997015,10.7892537 L16.601194,8.95522388 C16.601194,8.95522388 16.5761194,8.8961194 16.6155224,8.88 C16.6549254,8.8638806 16.678209,8.92298507 16.678209,8.92298507 L17.5002985,10.7140299 L17.5307463,10.7140299 C17.5146269,10.400597 17.3516418,10.2501493 17.3785075,9.81850746 C17.4197015,9.31701493 17.2477612,9.24895522 17.2137313,9.02149254 C17.1797015,8.79402985 17.2835821,8.66328358 17.3301493,8.6919403 C17.3767164,8.72059701 17.2674627,8.81014925 17.321194,8.96955224 C17.3749254,9.12895522 17.5970149,9.36179104 17.561194,9.7719403 C17.5307463,10.1050746 17.7098507,10.3379104 17.7689552,10.6585075 L17.7940299,10.6585075 L17.8692537,8.68835821 C17.8692537,8.68835821 17.8692537,8.62567164 17.9104478,8.62567164 C17.9516418,8.62567164 17.9516418,8.68835821 17.9516418,8.68835821 L18.0268657,10.6585075 L18.0573134,10.6585075 C18.161194,10.361194 18.0573134,10.158806 18.2561194,9.77910448 C18.4853731,9.33134328 18.3528358,9.2041791 18.4083582,8.98029851 C18.4638806,8.75641791 18.6071642,8.68119403 18.641194,8.72059701 C18.6752239,8.76 18.5391045,8.80656716 18.5265672,8.97313433 C18.5140299,9.13970149 18.6340299,9.44059701 18.4423881,9.80597015 C18.2865672,10.1032836 18.3635821,10.3862687 18.2955224,10.7014925 L18.318806,10.7014925 L19.1426866,8.91044776 C19.1426866,8.91044776 19.1659701,8.85313433 19.2053731,8.86746269 C19.2447761,8.88179104 19.2197015,8.94268657 19.2197015,8.94268657 L18.5337313,10.7928358 L18.560597,10.8089552 C18.7719403,10.5743284 18.7558209,10.3486567 19.081791,10.0710448 C19.4650746,9.74686567 19.3898507,9.57671642 19.5277612,9.39223881 C19.6656716,9.20776119 19.8250746,9.19164179 19.8429851,9.24179104 C19.8608955,9.2919403 19.7158209,9.28119403 19.638806,9.43164179 C19.561791,9.58208955 19.56,9.90447761 19.2429851,10.1677612 C18.9850746,10.3826866 18.9492537,10.6746269 18.7629851,10.9432836 L18.7808955,10.959403 L20.2298507,9.6161194 C20.2298507,9.6161194 20.2728358,9.57313433 20.3032836,9.60179104 C20.3337313,9.63044776 20.2889552,9.67522388 20.2889552,9.67522388 L18.9456716,11.1241791 L18.9653731,11.1474627 C19.2501493,11.0131343 19.3235821,10.7892537 19.7283582,10.6656716 C20.2065672,10.5116418 20.2029851,10.3271642 20.4,10.2089552 C20.5970149,10.0907463 20.758209,10.1391045 20.7492537,10.1910448 C20.7402985,10.2429851 20.6167164,10.1785075 20.4895522,10.2877612 C20.3623881,10.3970149 20.2334328,10.6943284 19.839403,10.8250746 C19.520597,10.9253731 19.3755224,11.1832836 19.0997015,11.3623881 C19.0997015,11.3623881 19.0997015,11.3767164 19.1122388,11.3838806 L20.9552239,10.6907463 C20.9552239,10.6907463 21.0143284,10.6656716 21.0286567,10.7050746 C21.0429851,10.7444776 20.9874627,10.7677612 20.9874627,10.7677612 L19.1964179,11.5916418 C19.1964179,11.5916418 19.1964179,11.6113433 19.1964179,11.6202985 C19.5098507,11.6041791 19.6602985,11.441194 20.0919403,11.4680597 C20.5934328,11.5092537 20.6614925,11.3373134 20.8871642,11.3032836 C21.1128358,11.2692537 21.2453731,11.3731343 21.2185075,11.4197015 C21.1916418,11.4662687 21.1002985,11.3570149 20.9408955,11.4197015 C20.7814925,11.4823881 20.5486567,11.6955224 20.1385075,11.6597015 C19.8035821,11.6292537 19.5725373,11.8083582 19.2429851,11.8692537 L19.2429851,11.8925373 L21.2131343,11.9677612 C21.2131343,11.9677612 21.2758209,11.9677612 21.2758209,12.0089552 C21.2758209,12.0501493 21.2131343,12.0501493 21.2131343,12.0501493 L19.2429851,12.1253731 C19.2438493,12.135504 19.2438493,12.14569 19.2429851,12.1558209 C19.5385075,12.2597015 19.7426866,12.1558209 20.1223881,12.3546269 C20.5701493,12.5838806 20.6973134,12.4513433 20.919403,12.5068657 C21.1414925,12.5623881 21.2185075,12.7056716 21.1808955,12.7397015 C21.1432836,12.7737313 21.0949254,12.6376119 20.9283582,12.6250746 C20.761791,12.6125373 20.4591045,12.7325373 20.0955224,12.5408955 C19.798209,12.3850746 19.5152239,12.4620896 19.2,12.3940299 C19.2010133,12.401758 19.2010133,12.4095853 19.2,12.4173134 L20.9910448,13.241194 C20.9910448,13.241194 21.0483582,13.2644776 21.0322388,13.3038806 C21.0161194,13.3432836 20.958806,13.318209 20.958806,13.318209 L19.1086567,12.6322388 L19.0925373,12.6608955 C19.3271642,12.8704478 19.5528358,12.8561194 19.8286567,13.1802985 C20.1546269,13.5635821 20.3247761,13.4883582 20.5092537,13.6262687 C20.6937313,13.7641791 20.7080597,13.9235821 20.6597015,13.9414925 C20.6113433,13.959403 20.6202985,13.8143284 20.4698507,13.7373134 C20.319403,13.6602985 19.9970149,13.6585075 19.7337313,13.3414925 C19.518806,13.0835821 19.2268657,13.0477612 18.958209,12.8614925 L18.9420896,12.879403 L20.2853731,14.3283582 C20.2853731,14.3283582 20.3283582,14.3713433 20.2997015,14.401791 C20.2710448,14.4322388 20.2262687,14.3874627 20.2262687,14.3874627 L18.7773134,13.0441791 L18.7540299,13.0638806 C18.8883582,13.3486567 19.1122388,13.4220896 19.2340299,13.8268657 C19.3898507,14.3050746 19.5743284,14.3014925 19.6907463,14.4985075 C19.8071642,14.6955224 19.7623881,14.8567164 19.7104478,14.8477612 C19.6585075,14.838806 19.7229851,14.7152239 19.6137313,14.5880597 C19.5044776,14.4608955 19.2071642,14.3319403 19.0764179,13.9397015 C18.9779104,13.6191045 18.718209,13.4740299 18.5391045,13.198209 C18.5323179,13.2025011 18.5251176,13.2061013 18.5176119,13.2089552 L19.2197015,15.0447761 C19.2197015,15.0447761 19.2429851,15.1038806 19.2053731,15.118209 C19.1677612,15.1325373 19.1426866,15.0770149 19.1426866,15.0770149 L18.318806,13.2859701 L18.2901493,13.2859701 C18.3062687,13.599403 18.4692537,13.7498507 18.440597,14.1814925 C18.401194,14.6829851 18.5731343,14.7510448 18.6071642,14.9767164 C18.641194,15.2023881 18.5373134,15.3349254 18.4907463,15.3080597 C18.4441791,15.281194 18.5516418,15.1898507 18.4997015,15.0304478 C18.4477612,14.8710448 18.2220896,14.638209 18.2597015,14.2280597 C18.2901493,13.8949254 18.1092537,13.6620896 18.0501493,13.3325373 L18.0268657,13.3325373 L17.9516418,15.3026866 C17.9516418,15.3026866 17.9516418,15.3653731 17.9104478,15.3653731 C17.8692537,15.3653731 17.8692537,15.3026866 17.8692537,15.3026866 L17.7940299,13.3325373 L17.7635821,13.3325373 C17.6597015,13.6280597 17.7635821,13.8322388 17.5647761,14.2119403 C17.3355224,14.6597015 17.4680597,14.7868657 17.4125373,15.0107463 C17.3570149,15.2346269 17.2137313,15.3098507 17.1779104,15.2704478 C17.1420896,15.2310448 17.28,15.1844776 17.2943284,15.0179104 C17.3086567,14.8513433 17.1868657,14.5504478 17.3785075,14.1850746 C17.5343284,13.8877612 17.4555224,13.6047761 17.5253731,13.2895522 L17.5002985,13.2895522 L16.678209,15.080597 C16.678209,15.080597 16.6531343,15.1379104 16.6155224,15.121791 C16.5779104,15.1056716 16.601194,15.0483582 16.601194,15.0483582 L17.2871642,13.2 L17.2585075,13.1856716 C17.0489552,13.4202985 17.0632836,13.6459701 16.7391045,13.921791 C16.3558209,14.2477612 16.4310448,14.4179104 16.2931343,14.6023881 C16.1552239,14.7868657 15.9958209,14.8029851 15.9779104,14.7528358 C15.96,14.7026866 16.1050746,14.7134328 16.1802985,14.5629851 C16.2555224,14.4125373 16.2608955,14.0901493 16.5779104,13.8268657 C16.8358209,13.6119403 16.8716418,13.32 17.0579104,13.0513433 L17.038209,13.0352239 L15.5910448,14.3785075 C15.5910448,14.3785075 15.5462687,14.4214925 15.5176119,14.3928358 C15.4889552,14.3641791 15.5319403,14.319403 15.5319403,14.319403 L16.8752239,12.8704478 L16.8555224,12.8471642 C16.5707463,12.9814925 16.4973134,13.2053731 16.0925373,13.3271642 C15.6143284,13.4829851 15.6179104,13.6674627 15.4208955,13.7856716 C15.2238806,13.9038806 15.0626866,13.8555224 15.0716418,13.8035821 C15.080597,13.7516418 15.2041791,13.8161194 15.3313433,13.7068657 C15.4585075,13.5976119 15.5874627,13.3002985 15.9797015,13.1695522 C16.3002985,13.0710448 16.4453731,12.8113433 16.719403,12.6322388 L16.7086567,12.6107463 L14.8656716,13.3092537 C14.8656716,13.3092537 14.8065672,13.3343284 14.7904478,13.2949254 C14.7743284,13.2555224 14.8334328,13.2322388 14.8334328,13.2322388 L16.6244776,12.4083582 C16.625292,12.3988233 16.625292,12.3892364 16.6244776,12.3797015 C16.3110448,12.3958209 16.160597,12.558806 15.7289552,12.5319403 C15.2292537,12.4907463 15.161194,12.6626866 14.9355224,12.6967164 C14.7098507,12.7307463 14.5773134,12.6268657 14.6041791,12.5802985 C14.6310448,12.5337313 14.7223881,12.6429851 14.881791,12.5892537 C15.041194,12.5355224 15.2740299,12.3116418 15.6841791,12.3492537 C16.0173134,12.3797015 16.2501493,12.198806 16.5797015,12.1397015 C16.5805894,12.1319657 16.5805894,12.1241537 16.5797015,12.1164179 L14.6095522,12.041194 C14.6095522,12.041194 14.5468657,12.041194 14.5468657,12 C14.5468657,11.958806 14.5898507,11.958806 14.5898507,11.958806 L14.5898507,11.958806 Z" id="Shape" fill="#FFFFFF"></path>
            <path d="M18.0440299,14.28 L17.9709529,13.3522388 C17.9132606,13.3522388 17.8517222,13.3522388 17.7940299,13.3522388 L17.9555683,15.3223881 C17.9555683,15.3223881 17.9555683,15.3850746 18.0440299,15.3850746 C18.1324914,15.3850746 18.1324914,15.3223881 18.1324914,15.3223881 L18.2940299,13.3522388 L18.1171068,13.3522388 L18.0440299,14.28 Z" id="Shape" fill="#FFBE3D"></path>
            <polygon id="Shape" fill="#973412" points="18.0664179 13.3522388 17.8764179 13.3522388 17.9714179 14.28"></polygon>
            <path d="M17.4573134,14.2244776 C17.6364179,13.9128358 17.5325373,13.6602985 17.6095522,13.318209 C17.5810401,13.3129508 17.5529162,13.3057703 17.5253731,13.2967164 C17.4555224,13.6173134 17.5343284,13.9002985 17.3785075,14.1922388 C17.1868657,14.5504478 17.3068657,14.8567164 17.2943284,15.0250746 C17.281791,15.1934328 17.1438806,15.238209 17.1779104,15.2776119 C17.2119403,15.3170149 17.3570149,15.24 17.4125373,15.0179104 C17.4680597,14.7958209 17.3355224,14.6597015 17.5647761,14.2191045 C17.758209,13.839403 17.6597015,13.6352239 17.7635821,13.3397015 L17.6829851,13.3271642 C17.5522388,13.7032836 17.6579104,13.9952239 17.4573134,14.2244776 Z" id="Shape" fill="#FFBE3D"></path>
            <path d="M17.9573134,13.3325373 L17.794615,13.318209 C17.6239801,13.6602985 17.8501706,13.9128358 17.4573134,14.2244776 C17.9017579,13.9952239 17.6676309,13.7032836 17.9573134,13.3325373 Z" id="Shape" fill="#973412"></path>
            <path d="M18.0440299,9.72 L18.1171068,10.6477612 L18.2940299,10.6477612 L18.1324914,8.67761194 C18.1324914,8.67761194 18.1324914,8.61492537 18.0440299,8.61492537 C17.9555683,8.61492537 17.9555683,8.67761194 17.9555683,8.67761194 L17.7940299,10.6477612 C17.8517222,10.6477612 17.9132606,10.6477612 17.9709529,10.6477612 L18.0440299,9.72 Z" id="Shape" fill="#FFBE3D"></path>
            <polygon id="Shape" fill="#973412" points="17.8764179 10.6477612 18.0664179 10.6477612 17.9714179 9.72"></polygon>
            <path d="M18.3635821,9.77552239 C18.1844776,10.0871642 18.2883582,10.3397015 18.2113433,10.681791 C18.2398555,10.6870492 18.2679793,10.6942297 18.2955224,10.7032836 C18.3635821,10.3826866 18.2865672,10.0997015 18.4423881,9.80776119 C18.6340299,9.44955224 18.5140299,9.14328358 18.5265672,8.97492537 C18.5391045,8.80656716 18.6770149,8.76179104 18.641194,8.72238806 C18.6053731,8.68298507 18.4620896,8.76 18.4083582,8.98208955 C18.3546269,9.2041791 18.4853731,9.34029851 18.2561194,9.78089552 C18.0626866,10.160597 18.161194,10.3629851 18.0573134,10.6602985 C18.0844228,10.6627235 18.1113454,10.6669114 18.1379104,10.6728358 C18.2686567,10.2967164 18.1629851,10.0047761 18.3635821,9.77552239 Z" id="Shape" fill="#FFBE3D"></path>
            <path d="M18.1379104,10.6674627 L18.3006089,10.681791 C18.4712438,10.3397015 18.2450533,10.0871642 18.6379104,9.77552239 C18.193466,10.0047761 18.427593,10.2967164 18.1379104,10.6674627 Z" id="Shape" fill="#973412"></path>
            <path d="M14.5898507,12.2220436 L16.56,12.3835821 C16.56,12.3258898 16.56,12.2643513 16.56,12.206659 L15.6304478,12.1335821 L16.558209,12.0605052 C16.558209,12.0028129 16.558209,11.9412744 16.558209,11.8835821 L14.5880597,12.0451206 C14.5880597,12.0451206 14.5253731,12.0451206 14.5253731,12.1335821 C14.5253731,12.2220436 14.5898507,12.2220436 14.5898507,12.2220436 Z" id="Shape" fill="#FFBE3D"></path>
            <path d="M16.558209,11.9659701 L15.6304478,12.0609701 L16.558209,12.1559701 C16.558209,12.1259701 16.558209,12.0909701 16.558209,12.0609701 C16.558209,12.0309701 16.558209,11.9959701 16.558209,11.9659701 Z" id="Shape" fill="#973412"></path>
            <path d="M15.6859701,11.5468657 C15.9976119,11.7259701 16.2501493,11.6220896 16.5922388,11.6991045 C16.5974969,11.6705923 16.6046775,11.6424684 16.6137313,11.6149254 C16.2931343,11.5450746 16.0101493,11.6238806 15.718209,11.4680597 C15.36,11.2764179 15.0537313,11.3964179 14.8853731,11.3838806 C14.7170149,11.3713433 14.6722388,11.2334328 14.6328358,11.2674627 C14.5934328,11.3014925 14.6704478,11.4465672 14.8925373,11.5020896 C15.1146269,11.5576119 15.2507463,11.4250746 15.6913433,11.6543284 C16.0710448,11.8477612 16.2734328,11.7492537 16.5707463,11.8531343 C16.5731712,11.826025 16.5773592,11.7991023 16.5832836,11.7725373 C16.2053731,11.641791 15.9152239,11.7474627 15.6859701,11.5468657 Z" id="Shape" fill="#FFBE3D"></path>
            <path d="M16.5779104,12.0468657 C16.5779104,11.9913101 16.5779104,11.9397228 16.5922388,11.8841673 C16.2501493,11.7135323 15.9976119,11.9397228 15.6859701,11.5468657 C15.9152239,11.9913101 16.2053731,11.7571831 16.5779104,12.0468657 Z" id="Shape" fill="#973412"></path>
            <path d="M20.1904478,12.1335821 L19.2626866,12.206659 C19.2626866,12.2643513 19.2626866,12.3258898 19.2626866,12.3835821 L21.2328358,12.2220436 C21.2328358,12.2220436 21.2955224,12.2220436 21.2955224,12.1335821 C21.2955224,12.0451206 21.2328358,12.0451206 21.2328358,12.0451206 L19.2626866,11.8835821 C19.2626866,11.9412744 19.2626866,12.0028129 19.2626866,12.0605052 L20.1904478,12.1335821 Z" id="Shape" fill="#FFBE3D"></path>
            <path d="M19.2626866,11.9659701 C19.2626866,11.9959701 19.2626866,12.0309701 19.2626866,12.0609701 C19.2626866,12.0909701 19.2626866,12.1259701 19.2626866,12.1559701 L20.1904478,12.0609701 L19.2626866,11.9659701 Z" id="Shape" fill="#973412"></path>
            <path d="M20.1349254,12.4531343 C19.8232836,12.2740299 19.5707463,12.3779104 19.2286567,12.3008955 C19.2233986,12.3294077 19.216218,12.3575316 19.2071642,12.3850746 C19.5277612,12.4531343 19.8107463,12.3761194 20.1026866,12.5319403 C20.4608955,12.7235821 20.7671642,12.6035821 20.9355224,12.6161194 C21.1038806,12.6286567 21.1486567,12.7665672 21.1880597,12.7307463 C21.2274627,12.6949254 21.1504478,12.5516418 20.9265672,12.4979104 C20.7026866,12.4441791 20.5683582,12.5749254 20.1295522,12.3456716 C19.7498507,12.1522388 19.5456716,12.2507463 19.2501493,12.1468657 C19.2501493,12.1737313 19.2501493,12.200597 19.2376119,12.2274627 C19.6137313,12.358209 19.9056716,12.2525373 20.1349254,12.4531343 Z" id="Shape" fill="#FFBE3D"></path>
            <path d="M19.2429851,12.2274627 C19.2429851,12.2830182 19.2429851,12.3346055 19.2286567,12.3901611 C19.5707463,12.560796 19.8232836,12.3346055 20.1349254,12.7274627 C19.9056716,12.2830182 19.6137313,12.5171452 19.2429851,12.2274627 Z" id="Shape" fill="#973412"></path>
            <path d="M16.2985075,13.6119403 L16.9307463,12.9313433 C16.9110448,12.9116418 16.8931343,12.8919403 16.8752239,12.8704478 L15.5319403,14.3283582 C15.5319403,14.3283582 15.4871642,14.3713433 15.5176119,14.401791 C15.5480597,14.4322388 15.5910448,14.3874627 15.5910448,14.3874627 L17.038209,13.0441791 L16.9773134,12.9886567 L16.2985075,13.6119403 Z" id="Shape" fill="#FFBE3D"></path>
            <polygon id="Shape" fill="#973412" points="16.9773134 12.9797015 16.9307463 12.9313433 16.2985075 13.6119403"></polygon>
            <path d="M16.0173134,13.2537313 C16.3629851,13.158806 16.4704478,12.9080597 16.7659701,12.7164179 C16.7498507,12.6913433 16.7337313,12.6662687 16.719403,12.641194 C16.4453731,12.8202985 16.3002985,13.0746269 15.9797015,13.1785075 C15.5874627,13.3020896 15.4585075,13.599403 15.3313433,13.7158209 C15.2041791,13.8322388 15.0752239,13.760597 15.0716418,13.8125373 C15.0680597,13.8644776 15.2238806,13.9110448 15.4208955,13.7946269 C15.6179104,13.678209 15.6143284,13.4919403 16.0925373,13.3361194 C16.4991045,13.2053731 16.5707463,12.9904478 16.8555224,12.8561194 C16.8376119,12.8346269 16.8232836,12.8131343 16.8071642,12.7916418 C16.4579104,12.9564179 16.321791,13.2322388 16.0173134,13.2537313 Z" id="Shape" fill="#FFBE3D"></path>
            <path d="M16.8071642,12.7826866 C16.7928358,12.761194 16.7785075,12.7414925 16.7659701,12.72 C16.4704478,12.8991045 16.3629851,13.1570149 16.0173134,13.2573134 C16.321791,13.2322388 16.4579104,12.9564179 16.8071642,12.7826866 Z" id="Shape" fill="#973412"></path>
            <path d="M19.5223881,10.3880597 L18.8901493,11.0686567 C18.9098507,11.0883582 18.9277612,11.1080597 18.9456716,11.1295522 L20.2889552,9.68059701 C20.2889552,9.68059701 20.3319403,9.63761194 20.3032836,9.60716418 C20.2746269,9.57671642 20.2298507,9.62149254 20.2298507,9.62149254 L18.7808955,10.9647761 L18.841791,11.0202985 L19.5223881,10.3880597 Z" id="Shape" fill="#FFBE3D"></path>
            <polygon id="Shape" fill="#973412" points="18.841791 11.0202985 18.8901493 11.0686567 19.5223881 10.3880597"></polygon>
            <path d="M19.8035821,10.7462687 C19.4579104,10.8429851 19.3504478,11.0937313 19.0549254,11.2835821 C19.071162,11.3078526 19.0861081,11.3329621 19.0997015,11.358806 C19.3755224,11.1797015 19.520597,10.9253731 19.839403,10.8214925 C20.2334328,10.6997015 20.3623881,10.4023881 20.4895522,10.2841791 C20.6167164,10.1659701 20.7456716,10.239403 20.7492537,10.1874627 C20.7528358,10.1355224 20.5970149,10.0889552 20.4,10.2053731 C20.2029851,10.321791 20.2065672,10.5080597 19.7283582,10.6620896 C19.321791,10.7946269 19.2501493,11.0095522 18.9653731,11.1438806 L19.0137313,11.2083582 C19.3629851,11.041791 19.4991045,10.7677612 19.8035821,10.7462687 Z" id="Shape" fill="#FFBE3D"></path>
            <path d="M19.0137313,11.2173134 C19.0280597,11.238806 19.0423881,11.2585075 19.0549254,11.28 C19.3504478,11.1008955 19.4579104,10.8429851 19.8035821,10.7426866 C19.4991045,10.7677612 19.3629851,11.041791 19.0137313,11.2173134 Z" id="Shape" fill="#973412"></path>
            <path d="M16.2985075,10.3880597 L16.9773134,11.0202985 L17.038209,10.9647761 L15.5910448,9.62149254 C15.5910448,9.62149254 15.5462687,9.57850746 15.5176119,9.60716418 C15.4889552,9.6358209 15.5319403,9.68059701 15.5319403,9.68059701 L16.8752239,11.1295522 C16.8931343,11.1080597 16.9110448,11.0883582 16.9307463,11.0686567 L16.2985075,10.3880597 Z" id="Shape" fill="#FFBE3D"></path>
            <polygon id="Shape" fill="#973412" points="16.9307463 11.0686567 16.9773134 11.0202985 16.2985075 10.3880597"></polygon>
            <path d="M16.6567164,10.1068657 C16.7534328,10.4525373 17.0023881,10.56 17.1940299,10.8555224 C17.2191045,10.839403 17.2423881,10.8232836 17.2692537,10.8089552 C17.0901493,10.5349254 16.8358209,10.3898507 16.7319403,10.0692537 C16.6083582,9.67701493 16.3110448,9.5480597 16.1946269,9.42089552 C16.078209,9.29373134 16.1498507,9.16477612 16.0979104,9.16119403 C16.0459701,9.15761194 15.9976119,9.31343284 16.1158209,9.51940299 C16.2340299,9.72537313 16.4185075,9.71283582 16.5725373,10.1910448 C16.7050746,10.5976119 16.92,10.6692537 17.0543284,10.9540299 L17.118806,10.9056716 C16.9522388,10.5474627 16.678209,10.4113433 16.6567164,10.1068657 Z" id="Shape" fill="#FFBE3D"></path>
            <path d="M17.1277612,10.8967164 L17.1904478,10.8555224 C17.0113433,10.56 16.7534328,10.4525373 16.6531343,10.1068657 C16.678209,10.4113433 16.9522388,10.5474627 17.1277612,10.8967164 Z" id="Shape" fill="#973412"></path>
            <path d="M19.5223881,13.6119403 L18.841791,12.9797015 L18.7808955,13.0352239 L20.2298507,14.3785075 C20.2298507,14.3785075 20.2728358,14.4214925 20.3032836,14.3928358 C20.3337313,14.3641791 20.2889552,14.319403 20.2889552,14.319403 L18.9456716,12.8704478 C18.9277612,12.8919403 18.9098507,12.9116418 18.8901493,12.9313433 L19.5223881,13.6119403 Z" id="Shape" fill="#FFBE3D"></path>
            <polygon id="Shape" fill="#973412" points="18.8901493 12.9313433 18.841791 12.9797015 19.5223881 13.6119403"></polygon>
            <path d="M19.1641791,13.8931343 C19.0692537,13.5474627 18.8185075,13.44 18.6268657,13.1444776 C18.6025951,13.1607142 18.5774857,13.1756603 18.5516418,13.1892537 C18.7307463,13.4650746 18.9850746,13.6101493 19.0889552,13.9307463 C19.2125373,14.3229851 19.5098507,14.4519403 19.6262687,14.5791045 C19.7426866,14.7062687 19.6710448,14.8352239 19.7229851,14.838806 C19.7749254,14.8423881 19.8214925,14.6865672 19.7032836,14.4895522 C19.5850746,14.2925373 19.4023881,14.2961194 19.2465672,13.8179104 C19.1158209,13.4113433 18.9008955,13.3397015 18.7665672,13.0549254 L18.7020896,13.1032836 C18.8686567,13.4525373 19.1426866,13.5886567 19.1641791,13.8931343 Z" id="Shape" fill="#FFBE3D"></path>
            <path d="M18.6931343,13.1032836 L18.6304478,13.1444776 C18.8095522,13.44 19.0674627,13.5474627 19.1677612,13.8931343 C19.1426866,13.5886567 18.8686567,13.4525373 18.6931343,13.1032836 Z" id="Shape" fill="#973412"></path>
            <path d="M17.038209,14.1062687 L17.3623881,13.2358209 C17.3355224,13.2250746 17.3122388,13.2125373 17.2871642,13.2 L16.601194,15.0447761 C16.601194,15.0447761 16.5761194,15.1038806 16.6155224,15.118209 C16.6549254,15.1325373 16.678209,15.0770149 16.678209,15.0770149 L17.5002985,13.2859701 L17.4250746,13.2591045 L17.038209,14.1062687 Z" id="Shape" fill="#FFBE3D"></path>
            <path d="M17.538209,13.2626866 C17.5106217,13.2548192 17.4835793,13.2458519 17.4571904,13.2358209 L17.038209,14.1062687 L17.538209,13.2626866 Z" id="Shape" fill="#973412"></path>
            <path d="M16.640597,13.8823881 C16.9235821,13.6602985 16.9271642,13.3898507 17.1277612,13.1032836 L17.0579104,13.0513433 C16.878806,13.32 16.8358209,13.6119403 16.5779104,13.8268657 C16.2608955,14.0901493 16.2573134,14.4143284 16.1802985,14.5629851 C16.1032836,14.7116418 15.961791,14.7044776 15.9779104,14.7528358 C15.9940299,14.801194 16.1570149,14.7850746 16.2931343,14.6023881 C16.4292537,14.4197015 16.3558209,14.2441791 16.7391045,13.921791 C17.0632836,13.6459701 17.0489552,13.4202985 17.2585075,13.1856716 L17.1940299,13.1444776 C16.9343284,13.4328358 16.9146269,13.7462687 16.640597,13.8823881 Z" id="Shape" fill="#FFBE3D"></path>
            <path d="M16.640597,13.8823881 C16.9146269,13.7462687 16.9343284,13.44 17.1904478,13.1444776 L17.1277612,13.1032836 C16.9271642,13.3898507 16.9235821,13.6602985 16.640597,13.8823881 Z" id="Shape" fill="#973412"></path>
            <path d="M18.7826866,9.89373134 L18.4585075,10.7641791 L18.5337313,10.798209 L19.2197015,8.95522388 C19.2197015,8.95522388 19.2429851,8.8961194 19.2053731,8.88 C19.1677612,8.8638806 19.1426866,8.92298507 19.1426866,8.92298507 L18.318806,10.7140299 C18.3456716,10.7140299 18.3707463,10.7319403 18.3958209,10.7408955 L18.7826866,9.89373134 Z" id="Shape" fill="#FFBE3D"></path>
            <path d="M18.3958209,10.7462687 C18.4234082,10.7541361 18.4504506,10.7631033 18.4768394,10.7731343 L18.8958209,9.90268657 L18.3958209,10.7462687 Z" id="Shape" fill="#973412"></path>
            <path d="M19.1802985,10.1176119 C18.8973134,10.3379104 18.8937313,10.6101493 18.6931343,10.8967164 L18.7629851,10.9486567 C18.9420896,10.68 18.9850746,10.3880597 19.2429851,10.1731343 C19.56,9.90985075 19.5635821,9.58567164 19.638806,9.43701493 C19.7140299,9.28835821 19.8591045,9.29552239 19.8429851,9.24716418 C19.8268657,9.19880597 19.6638806,9.21492537 19.5277612,9.39761194 C19.3916418,9.58029851 19.4650746,9.7558209 19.081791,10.0764179 C18.7558209,10.3540299 18.7719403,10.5797015 18.560597,10.8143284 C18.5856716,10.8268657 18.6071642,10.841194 18.6304478,10.8555224 C18.8865672,10.5671642 18.9062687,10.2537313 19.1802985,10.1176119 Z" id="Shape" fill="#FFBE3D"></path>
            <path d="M19.1802985,10.1176119 C18.9062687,10.2537313 18.8865672,10.56 18.6304478,10.8555224 L18.6931343,10.8967164 C18.8937313,10.6101493 18.8973134,10.3379104 19.1802985,10.1176119 Z" id="Shape" fill="#973412"></path>
            <path d="M15.8041791,11.1277612 L16.6746269,11.4519403 C16.6853731,11.4268657 16.6961194,11.401791 16.7086567,11.3767164 L14.8656716,10.6907463 C14.8656716,10.6907463 14.8065672,10.6656716 14.7904478,10.7050746 C14.7743284,10.7444776 14.8334328,10.7677612 14.8334328,10.7677612 L16.6244776,11.5916418 C16.6244776,11.5647761 16.6441791,11.5397015 16.6531343,11.5146269 L15.8041791,11.1277612 Z" id="Shape" fill="#FFBE3D"></path>
            <path d="M16.6567164,11.6277612 C16.6645838,11.6001739 16.6735511,11.5731315 16.6835821,11.5467427 L15.8131343,11.1277612 L16.6567164,11.6277612 Z" id="Shape" fill="#973412"></path>
            <path d="M16.0280597,10.7301493 C16.2483582,11.0131343 16.520597,11.0167164 16.8071642,11.2173134 L16.8591045,11.1474627 C16.5904478,10.9683582 16.2985075,10.9253731 16.0835821,10.6674627 C15.8202985,10.3504478 15.4961194,10.3468657 15.3474627,10.2698507 C15.198806,10.1928358 15.2059701,10.0513433 15.1576119,10.0674627 C15.1092537,10.0835821 15.1253731,10.2465672 15.3080597,10.3826866 C15.4907463,10.518806 15.6662687,10.4453731 15.9868657,10.8286567 C16.2644776,11.1528358 16.4901493,11.1385075 16.7229851,11.3480597 L16.7659701,11.28 C16.4776119,11.0238806 16.1623881,11.0041791 16.0280597,10.7301493 Z" id="Shape" fill="#FFBE3D"></path>
            <path d="M16.0280597,10.7301493 C16.1623881,11.0041791 16.4704478,11.0238806 16.7659701,11.28 C16.7785075,11.2585075 16.7928358,11.2370149 16.8071642,11.2173134 C16.520597,11.0167164 16.2483582,11.0131343 16.0280597,10.7301493 Z" id="Shape" fill="#973412"></path>
            <path d="M20.0167164,12.8722388 L19.1462687,12.5480597 C19.1355224,12.5731343 19.1247761,12.598209 19.1122388,12.6232836 L20.9552239,13.3092537 C20.9552239,13.3092537 21.0143284,13.3343284 21.0286567,13.2949254 C21.0429851,13.2555224 20.9874627,13.2322388 20.9874627,13.2322388 L19.1964179,12.4083582 C19.1887444,12.4346903 19.1791669,12.4604298 19.1677612,12.4853731 L20.0167164,12.8722388 Z" id="Shape" fill="#FFBE3D"></path>
            <path d="M19.1641791,12.4853731 C19.15769,12.513284 19.1492989,12.5403963 19.1391045,12.5663917 L20.0095522,12.9853731 L19.1641791,12.4853731 Z" id="Shape" fill="#973412"></path>
            <path d="M19.7928358,13.2698507 C19.5707463,12.9868657 19.3002985,12.9832836 19.0137313,12.7826866 L18.961791,12.8525373 C19.2304478,13.0316418 19.5223881,13.0746269 19.7373134,13.3325373 C20.000597,13.6495522 20.3247761,13.6531343 20.4734328,13.7283582 C20.6220896,13.8035821 20.6149254,13.9486567 20.6632836,13.9325373 C20.7116418,13.9164179 20.6955224,13.7534328 20.5128358,13.6173134 C20.3301493,13.481194 20.1546269,13.5546269 19.8322388,13.1713433 C19.5564179,12.8471642 19.3307463,12.8614925 19.0961194,12.6519403 C19.0835821,12.6752239 19.0692537,12.6967164 19.0549254,12.72 C19.3432836,12.9761194 19.6567164,12.9958209 19.7928358,13.2698507 Z" id="Shape" fill="#FFBE3D"></path>
            <path d="M19.7928358,13.2698507 C19.6567164,12.9958209 19.3504478,12.9761194 19.0549254,12.72 C19.0423881,12.7414925 19.0280597,12.761194 19.0137313,12.7826866 C19.3002985,12.9832836 19.5707463,12.9868657 19.7928358,13.2698507 Z" id="Shape" fill="#973412"></path>
            <path d="M15.8041791,12.8722388 L16.6567164,12.4853731 C16.6567164,12.4602985 16.6370149,12.4352239 16.6280597,12.4083582 L14.8370149,13.2322388 C14.8370149,13.2322388 14.7797015,13.2555224 14.7940299,13.2949254 C14.8083582,13.3343284 14.8692537,13.3092537 14.8692537,13.3092537 L16.719403,12.6232836 C16.7068657,12.598209 16.6961194,12.5731343 16.6853731,12.5480597 L15.8041791,12.8722388 Z" id="Shape" fill="#FFBE3D"></path>
            <path d="M16.6746269,12.5663917 C16.6645958,12.5400028 16.6556286,12.5129604 16.6477612,12.4853731 L15.8041791,12.9853731 L16.6746269,12.5663917 Z" id="Shape" fill="#973412"></path>
            <path d="M15.6823881,12.4334328 C16.040597,12.4764179 16.2322388,12.2865672 16.5779104,12.2256716 C16.5779104,12.198806 16.5671642,12.1701493 16.5635821,12.1397015 C16.2429851,12.198806 16.0101493,12.3797015 15.6680597,12.3492537 C15.2579104,12.3116418 15.0250746,12.5283582 14.8656716,12.5892537 C14.7062687,12.6501493 14.6113433,12.5337313 14.5880597,12.5802985 C14.5647761,12.6268657 14.6919403,12.7307463 14.919403,12.6967164 C15.1468657,12.6626866 15.2238806,12.4907463 15.721791,12.5373134 C16.1480597,12.5713433 16.2985075,12.401194 16.6173134,12.3850746 L16.5958209,12.3062687 C16.201791,12.3277612 15.9707463,12.5373134 15.6823881,12.4334328 Z" id="Shape" fill="#FFBE3D"></path>
            <path d="M15.6823881,12.6700766 C15.9707463,12.8769547 16.201791,12.444043 16.5904478,12.3865769 C16.5904478,12.3329418 16.5904478,12.2793067 16.5779104,12.2256716 C16.2322388,12.3559283 16.0370149,12.7620224 15.6823881,12.6700766 Z" id="Shape" fill="#973412"></path>
            <path d="M20.0167164,11.1277612 L19.1641791,11.5146269 C19.1755848,11.5395702 19.1851623,11.5653097 19.1928358,11.5916418 L20.9838806,10.7677612 C20.9838806,10.7677612 21.041194,10.7426866 21.0250746,10.7050746 C21.0089552,10.6674627 20.9516418,10.6907463 20.9516418,10.6907463 L19.1014925,11.3767164 C19.1140299,11.401791 19.1247761,11.4250746 19.1355224,11.4519403 L20.0167164,11.1277612 Z" id="Shape" fill="#FFBE3D"></path>
            <path d="M19.1462687,11.5467427 C19.1564631,11.572738 19.1648542,11.5998503 19.1713433,11.6277612 L20.0167164,11.1277612 L19.1462687,11.5467427 Z" id="Shape" fill="#973412"></path>
            <path d="M20.1385075,11.5665672 C19.7802985,11.5235821 19.5886567,11.7134328 19.2429851,11.7725373 C19.2429851,11.801194 19.2537313,11.8298507 19.2573134,11.8602985 C19.5779104,11.799403 19.8089552,11.6202985 20.1528358,11.6507463 C20.5629851,11.6865672 20.7940299,11.4716418 20.9552239,11.4107463 C21.1164179,11.3498507 21.2095522,11.4662687 21.2328358,11.4107463 C21.2561194,11.3552239 21.1289552,11.2602985 20.9014925,11.2943284 C20.6740299,11.3283582 20.6077612,11.5002985 20.1062687,11.4591045 C19.681791,11.4250746 19.5313433,11.5952239 19.2107463,11.6113433 C19.2107463,11.638209 19.2250746,11.6632836 19.2304478,11.6901493 C19.6191045,11.6722388 19.8501493,11.4626866 20.1385075,11.5665672 Z" id="Shape" fill="#FFBE3D"></path>
            <path d="M20.1385075,11.5966006 C19.8501493,11.3881251 19.6191045,11.8243794 19.2286567,11.8822893 C19.2286567,11.9363385 19.239403,11.9903877 19.2429851,12.0405762 C19.5886567,11.9131745 19.7838806,11.5039448 20.1385075,11.5966006 Z" id="Shape" fill="#973412"></path>
            <path d="M17.038209,9.89373134 L17.4250746,10.7462687 L17.5002985,10.719403 L16.678209,8.92835821 C16.678209,8.92835821 16.6531343,8.87104478 16.6155224,8.88537313 C16.5779104,8.89970149 16.601194,8.96059701 16.601194,8.96059701 L17.2871642,10.8107463 L17.360597,10.7767164 L17.038209,9.89373134 Z" id="Shape" fill="#FFBE3D"></path>
            <path d="M17.4548756,10.7641791 C17.4826534,10.7534328 17.5104312,10.7462687 17.538209,10.7373134 L17.038209,9.89373134 L17.4548756,10.7641791 Z" id="Shape" fill="#973412"></path>
            <path d="M17.4770149,9.7719403 C17.4340299,10.1301493 17.6238806,10.321791 17.6829851,10.6674627 L17.7689552,10.6531343 C17.7098507,10.3325373 17.5307463,10.0997015 17.561194,9.76656716 C17.5970149,9.35641791 17.3820896,9.12358209 17.321194,8.9641791 C17.2602985,8.80477612 17.3767164,8.70985075 17.3301493,8.68656716 C17.2835821,8.66328358 17.1797015,8.79044776 17.2137313,9.0161194 C17.2477612,9.24179104 17.4197015,9.31343284 17.3731343,9.81313433 C17.3391045,10.2376119 17.5092537,10.3880597 17.5253731,10.7086567 L17.6041791,10.6889552 C17.5808955,10.2913433 17.3731343,10.0602985 17.4770149,9.7719403 Z" id="Shape" fill="#FFBE3D"></path>
            <path d="M17.5071931,9.7719403 C17.2988601,10.0602985 17.7309582,10.2913433 17.7926866,10.681791 L17.9508653,10.6674627 C17.8235507,10.321791 17.4146007,10.1265672 17.5071931,9.7719403 Z" id="Shape" fill="#973412"></path>
            <path d="M18.7826866,14.1062687 L18.3958209,13.2626866 C18.3707463,13.2626866 18.3456716,13.2823881 18.318806,13.2895522 L19.1426866,15.080597 C19.1426866,15.080597 19.1659701,15.1379104 19.2053731,15.121791 C19.2447761,15.1056716 19.2197015,15.0483582 19.2197015,15.0483582 L18.5337313,13.2 L18.4585075,13.2358209 L18.7826866,14.1062687 Z" id="Shape" fill="#FFBE3D"></path>
            <path d="M18.4768394,13.2358209 C18.4504506,13.2458519 18.4234082,13.2548192 18.3958209,13.2626866 L18.8958209,14.1062687 L18.4768394,13.2358209 Z" id="Shape" fill="#973412"></path>
            <path d="M18.3438806,14.2280597 C18.3868657,13.8698507 18.1970149,13.678209 18.1379104,13.3325373 L18.0501493,13.3468657 C18.1092537,13.6674627 18.2901493,13.9002985 18.2597015,14.2423881 C18.2220896,14.6525373 18.438806,14.8853731 18.4997015,15.0447761 C18.560597,15.2041791 18.4441791,15.2991045 18.4907463,15.3223881 C18.5373134,15.3456716 18.639403,15.2185075 18.6071642,14.9910448 C18.5749254,14.7635821 18.401194,14.6865672 18.4477612,14.1868657 C18.4835821,13.7623881 18.3134328,13.6119403 18.2973134,13.2913433 L18.2185075,13.3110448 C18.238209,13.7086567 18.4477612,13.9397015 18.3438806,14.2280597 Z" id="Shape" fill="#FFBE3D"></path>
            <path d="M18.5818861,14.2280597 C18.7903616,13.9397015 18.3541073,13.7086567 18.2961974,13.318209 L18.1379104,13.3325373 C18.2653122,13.678209 18.6745419,13.8734328 18.5818861,14.2280597 Z" id="Shape" fill="#973412"></path>
            <path d="M16.5564179,12 C16.5564179,12.0107463 16.5564179,12.0232836 16.5564179,12.0340299 C16.5564179,12.0447761 16.5564179,12.0895522 16.5564179,12.1164179 C16.5573059,12.1241537 16.5573059,12.1319657 16.5564179,12.1397015 C16.5564179,12.1701493 16.5564179,12.198806 16.5707463,12.2256716 C16.5850746,12.2525373 16.5707463,12.2758209 16.5832836,12.3008955 L16.6047761,12.3797015 C16.6055906,12.3892364 16.6055906,12.3988233 16.6047761,12.4083582 C16.6047761,12.4352239 16.6244776,12.4602985 16.6334328,12.4853731 C16.6413003,12.5067183 16.6502675,12.5276418 16.6602985,12.5480597 C16.6710448,12.5731343 16.681791,12.598209 16.6943284,12.6232836 L16.7050746,12.6447761 C16.719403,12.6698507 16.7355224,12.6949254 16.7516418,12.72 C16.7677612,12.7450746 16.7785075,12.761194 16.7928358,12.7826866 C16.8071642,12.8041791 16.8232836,12.8256716 16.841194,12.8471642 L16.8608955,12.8704478 C16.878806,12.8919403 16.8967164,12.9116418 16.9164179,12.9313433 L16.9629851,12.9797015 L17.0238806,13.0352239 L17.0435821,13.0513433 L17.1134328,13.1032836 L17.1761194,13.1444776 L17.2441791,13.1856716 L17.2728358,13.2 C17.2979104,13.2125373 17.321194,13.2250746 17.3480597,13.2358209 C17.3684776,13.2458519 17.3894011,13.2548192 17.4107463,13.2626866 L17.4859701,13.2895522 L17.5110448,13.2895522 C17.5385878,13.2986061 17.5667117,13.3057867 17.5952239,13.3110448 L17.6686567,13.3253731 L17.7492537,13.3379104 L17.7797015,13.3379104 C17.8065672,13.3379104 17.8352239,13.3379104 17.8620896,13.3379104 L17.9301493,13.3379104 L18.0125373,13.3379104 L18.0358209,13.3379104 L18.1235821,13.3235821 L18.1970149,13.3092537 L18.2758209,13.2895522 L18.3044776,13.2895522 C18.3313433,13.2895522 18.3564179,13.2716418 18.3814925,13.2626866 C18.4028377,13.2548192 18.4237612,13.2458519 18.4441791,13.2358209 L18.519403,13.2 C18.5269087,13.197146 18.5341089,13.1935459 18.5408955,13.1892537 C18.5667394,13.1756603 18.5918488,13.1607142 18.6161194,13.1444776 L18.678806,13.1032836 L18.7432836,13.0549254 L18.7665672,13.0352239 L18.8274627,12.9797015 L18.8758209,12.9313433 C18.8955224,12.9116418 18.9134328,12.8919403 18.9313433,12.8704478 L18.9474627,12.8525373 L18.999403,12.7826866 C19.0137313,12.761194 19.0280597,12.7414925 19.040597,12.72 C19.0531343,12.6985075 19.0692537,12.6752239 19.081791,12.6519403 L19.0979104,12.6232836 C19.1104478,12.598209 19.121194,12.5731343 19.1319403,12.5480597 C19.1421347,12.5279463 19.1505258,12.5069687 19.1570149,12.4853731 C19.1684207,12.4604298 19.1779981,12.4346903 19.1856716,12.4083582 C19.1866849,12.4006301 19.1866849,12.3928027 19.1856716,12.3850746 C19.1947255,12.3575316 19.2019061,12.3294077 19.2071642,12.3008955 C19.2071642,12.2758209 19.2179104,12.2525373 19.2214925,12.2274627 C19.2250746,12.2023881 19.2214925,12.1737313 19.2340299,12.1468657 C19.2348941,12.1367348 19.2348941,12.1265488 19.2340299,12.1164179 C19.2340299,12.0895522 19.2340299,12.0608955 19.2340299,12.0340299 C19.2340299,12.0071642 19.2340299,12.0107463 19.2340299,12 C19.2340299,11.9892537 19.2340299,11.9767164 19.2340299,11.9659701 C19.2340299,11.9552239 19.2340299,11.9104478 19.2340299,11.8835821 L19.2340299,11.8602985 C19.2340299,11.8298507 19.2340299,11.801194 19.2197015,11.7725373 C19.2053731,11.7438806 19.2197015,11.7241791 19.2053731,11.6991045 C19.1910448,11.6740299 19.1928358,11.6471642 19.1856716,11.6202985 C19.1785075,11.5934328 19.1856716,11.600597 19.1856716,11.5916418 C19.1779981,11.5653097 19.1684207,11.5395702 19.1570149,11.5146269 C19.1505258,11.4930313 19.1421347,11.4720537 19.1319403,11.4519403 C19.121194,11.4250746 19.1104478,11.401791 19.0979104,11.3767164 C19.0853731,11.3516418 19.0979104,11.3623881 19.0853731,11.3552239 C19.0717797,11.32938 19.0568336,11.3042706 19.040597,11.28 C19.0280597,11.2585075 19.0137313,11.238806 18.999403,11.2173134 L18.9510448,11.1528358 L18.9313433,11.1295522 C18.9134328,11.1080597 18.8955224,11.0883582 18.8758209,11.0686567 L18.8274627,11.0202985 L18.7665672,10.9647761 L18.7486567,10.9486567 L18.678806,10.8967164 L18.6161194,10.8555224 C18.5928358,10.841194 18.5713433,10.8268657 18.5462687,10.8143284 L18.519403,10.798209 L18.4441791,10.7641791 C18.4237612,10.7541481 18.4028377,10.7451808 18.3814925,10.7373134 C18.3564179,10.7283582 18.3313433,10.7176119 18.3044776,10.7104478 L18.281194,10.7104478 C18.253651,10.7013939 18.2255271,10.6942133 18.1970149,10.6889552 L18.1235821,10.6746269 C18.0970171,10.6687025 18.0700944,10.6645145 18.0429851,10.6620896 L18.0125373,10.6620896 L17.9301493,10.6620896 L17.8620896,10.6620896 C17.8352239,10.6620896 17.8065672,10.6620896 17.7797015,10.6620896 L17.7546269,10.6620896 L17.6686567,10.6764179 L17.5952239,10.6907463 L17.5164179,10.7104478 L17.4859701,10.7104478 L17.4107463,10.7373134 C17.3892537,10.7373134 17.3677612,10.7534328 17.3462687,10.7641791 L17.2728358,10.798209 C17.2660492,10.8025011 17.258849,10.8061013 17.2513433,10.8089552 C17.2244776,10.8232836 17.201194,10.839403 17.1761194,10.8555224 L17.1134328,10.8967164 L17.0489552,10.9450746 L17.0238806,10.9647761 L16.9629851,11.0202985 L16.9164179,11.0686567 C16.8967164,11.0883582 16.878806,11.1080597 16.8608955,11.1295522 L16.8447761,11.1474627 L16.7928358,11.2173134 C16.7785075,11.2370149 16.7641791,11.2585075 16.7516418,11.28 L16.7086567,11.3480597 C16.7049669,11.3581176 16.7001608,11.3677299 16.6943284,11.3767164 C16.681791,11.401791 16.6710448,11.4268657 16.6602985,11.4519403 C16.6502675,11.4723582 16.6413003,11.4932817 16.6334328,11.5146269 C16.6334328,11.5397015 16.6137313,11.5647761 16.6047761,11.5916418 L16.6047761,11.6149254 C16.5957223,11.6424684 16.5885417,11.6705923 16.5832836,11.6991045 C16.5832836,11.7241791 16.5725373,11.7474627 16.5689552,11.7725373 C16.5630308,11.7991023 16.5588429,11.826025 16.5564179,11.8531343 C16.5564179,11.8638806 16.5564179,11.8746269 16.5564179,11.8835821 C16.5564179,11.8925373 16.5564179,11.9391045 16.5564179,11.9659701 C16.5564179,11.9928358 16.5564179,11.9892537 16.5564179,12 Z M17.4304478,11.641791 C17.5163004,11.6329046 17.6014783,11.6639384 17.6614925,11.7259701 C17.6918214,11.7508004 17.7273116,11.7685455 17.7653731,11.7779104 C17.7653731,11.7886567 17.7653731,11.8191045 17.7438806,11.8083582 C17.6983228,11.7871073 17.6560913,11.7593552 17.6185075,11.7259701 C17.564869,11.685044 17.4974876,11.6664339 17.4304478,11.6740299 C17.2513433,11.6740299 17.1402985,11.8298507 17.118806,11.8191045 C17.0973134,11.8083582 17.2226866,11.641791 17.4304478,11.641791 Z M17.6543284,12.2632836 C17.6655162,12.2895376 17.693025,12.3049213 17.7212508,12.3007085 C17.7494765,12.2964957 17.7712943,12.2737498 17.7743284,12.2453731 C17.8004184,12.2966533 17.8529138,12.3291175 17.9104478,12.3295522 C17.9675744,12.3292716 18.0196136,12.2966604 18.0447761,12.2453731 C18.0453668,12.2713085 18.0628006,12.2938271 18.0877612,12.3008955 C18.1199091,12.3122709 18.1551917,12.2954315 18.1665672,12.2632836 C18.1779426,12.2311357 18.1611031,12.195853 18.1289552,12.1844776 C18.1531857,12.1878318 18.1747588,12.2015602 18.1880597,12.2220896 C18.2175277,12.2642909 18.2079938,12.3222884 18.1665672,12.3528358 C18.1462087,12.3672928 18.1208977,12.3729694 18.096315,12.3685917 C18.0717323,12.3642139 18.049937,12.3501485 18.0358209,12.3295522 C17.9978833,12.3516858 17.9543113,12.3622676 17.9104478,12.36 C17.8665645,12.3624805 17.822932,12.3518841 17.7850746,12.3295522 C17.7709585,12.3501485 17.7491632,12.3642139 17.7245805,12.3685917 C17.6999979,12.3729694 17.6746869,12.3672928 17.6543284,12.3528358 C17.6131434,12.3223115 17.6029293,12.264955 17.6310448,12.2220896 C17.6453816,12.2017904 17.6673705,12.1882091 17.6919403,12.1844776 C17.6754589,12.1896491 17.6619493,12.2015769 17.6547757,12.2172905 C17.6476021,12.2330042 17.6474394,12.2510251 17.6543284,12.2668657 L17.6543284,12.2632836 Z M18.3886567,11.641791 C18.598209,11.641791 18.721791,11.8083582 18.7020896,11.8208955 C18.6823881,11.8334328 18.5767164,11.6758209 18.3886567,11.6758209 C18.3245494,11.6700122 18.2606055,11.688556 18.2095522,11.7277612 C18.1716543,11.7607343 18.1294833,11.7884467 18.0841791,11.8101493 C18.0626866,11.8208955 18.0519403,11.7904478 18.0626866,11.7797015 C18.1006074,11.7699572 18.1360192,11.7522513 18.1665672,11.7277612 C18.2240664,11.6674101 18.3055091,11.6358839 18.3886567,11.641791 L18.3886567,11.641791 Z M18.1397015,11.8208955 C18.1992122,11.7474066 18.2887206,11.7047136 18.3832836,11.7047136 C18.4778465,11.7047136 18.5673549,11.7474066 18.6268657,11.8208955 C18.5515106,11.8744216 18.4613859,11.9032114 18.3689552,11.9032836 L18.3689552,11.9032836 C18.2866527,11.9080834 18.2053447,11.8833098 18.1397015,11.8334328 L18.1397015,11.8208955 Z M17.4537313,11.8943284 L17.4537313,11.8943284 C17.3616141,11.8976191 17.2707845,11.8719362 17.1940299,11.8208955 C17.2551326,11.7480276 17.3460131,11.7068409 17.4410863,11.7089304 C17.5361595,11.7110199 17.6251428,11.7561597 17.6829851,11.8316418 C17.6180828,11.8834382 17.5367039,11.9101406 17.4537313,11.9068657 L17.4537313,11.8943284 Z M17.1814925,11.8620896 C17.3082252,11.9348928 17.4598937,11.9505154 17.598806,11.9050746 C17.681194,11.8620896 17.7026866,11.8423881 17.7223881,11.8423881 C17.7420896,11.8423881 17.7438806,11.8620896 17.64,11.9247761 C17.4914513,12.0042375 17.3093524,11.9843204 17.1814925,11.8746269 L17.1814925,11.8620896 Z M17.9104478,12.7576119 C18.0093644,12.7576119 18.0895522,12.8377997 18.0895522,12.9367164 C18.0844751,12.9140514 18.0747139,12.8926988 18.0608955,12.8740299 C18.0585195,12.8684581 18.0548328,12.8635426 18.0501493,12.8597015 C18.0397315,12.8450774 18.0262941,12.8328616 18.0107463,12.8238806 L18,12.8238806 C17.981842,12.8130283 17.961783,12.8057341 17.9408955,12.8023881 C17.9158778,12.8 17.8906894,12.8 17.8656716,12.8023881 C17.8442386,12.8058035 17.8236048,12.813086 17.8047761,12.8238806 L17.7940299,12.8238806 C17.7791839,12.8337907 17.7659028,12.8458644 17.7546269,12.8597015 L17.7438806,12.8740299 C17.7307513,12.8930975 17.7210534,12.9143118 17.7152239,12.9367164 C17.7152239,12.8377997 17.7954117,12.7576119 17.8943284,12.7576119 C17.6650746,12.7576119 17.7689552,12.6322388 17.5504478,12.6125373 C17.6453731,12.5498507 17.6865672,12.4567164 17.7904478,12.4567164 C17.8268193,12.4595088 17.8622043,12.4698803 17.8943284,12.4871642 C17.9263691,12.4696779 17.9617983,12.4592935 17.998209,12.4567164 C18.1020896,12.4567164 18.1432836,12.5498507 18.238209,12.6125373 C18.0358209,12.6447761 18.1397015,12.7701493 17.9104478,12.7701493 L17.9104478,12.7576119 Z M18.1808955,11.9247761 C18.0770149,11.8620896 18.0770149,11.8423881 18.0967164,11.8423881 C18.1164179,11.8423881 18.1397015,11.8620896 18.2220896,11.9050746 C18.3610019,11.9505154 18.5126703,11.9348928 18.639403,11.8620896 C18.5171169,11.9801438 18.3344923,12.0101056 18.1808955,11.9373134 L18.1808955,11.9247761 Z M18.7647761,11.6955224 C18.5247761,11.4877612 18.2274627,11.4573134 18.0483582,11.6131343 C17.9225993,11.7866978 17.9399863,12.0255805 18.0895522,12.1791045 C18.0737676,12.1818644 18.0589621,12.1886503 18.0465672,12.198806 C17.9441152,12.0180725 17.9251639,11.8017656 17.9946269,11.6059701 C18.1040851,11.5022157 18.2545486,11.4534482 18.4040588,11.473267 C18.553569,11.4930858 18.6861302,11.5793705 18.7647761,11.7080597 L18.7647761,11.6955224 Z M17.8262687,11.5916418 C17.8974519,11.7872145 17.8784356,12.0042627 17.7743284,12.1844776 C17.7607588,12.1787973 17.7458935,12.1769392 17.7313433,12.1791045 C17.8703909,12.0256487 17.8838078,11.7960708 17.7635821,11.6274627 C17.5970149,11.4716418 17.2943284,11.5020896 17.0471642,11.7098507 C17.1243261,11.5769195 17.2585567,11.4870763 17.4108654,11.4664183 C17.563174,11.4457604 17.7164863,11.4966035 17.8262687,11.6041791 L17.8262687,11.5916418 Z" id="Shape" fill="#FFBE3D"></path>
            <path d="M17.600597,12.8525539 C17.6996253,12.7492788 17.8072603,12.7284362 17.9104478,12.7925539 C18.0136353,12.7284362 18.1212702,12.7492788 18.2202985,12.8525539 L18.2543284,12.8525539 C18.2023881,12.7925539 18.159403,12.6775539 18.0877612,12.5625539 C18.0161194,12.4475539 17.9516418,12.5625539 17.9086567,12.5625539 C17.8656716,12.5625539 17.8047761,12.4175539 17.7295522,12.5625539 C17.6543284,12.7075539 17.6149254,12.7925539 17.5629851,12.8525539 L17.600597,12.8525539 Z" id="Shape" fill="#FFBE3D"></path>
            <path d="M17.5288806,11.9556716 C17.5307853,11.8711361 17.5736799,11.792807 17.6438806,11.7456716 C17.4538806,11.7756716 17.2938806,11.8656716 17.2638806,11.9556716 C17.3680213,12.0710783 17.5064975,12.1499572 17.6588806,12.1806716 C17.5806105,12.1321663 17.5318114,12.0477063 17.5288806,11.9556716 Z" id="Shape" fill="#FFBE3D"></path>
            <path d="M17.5288806,11.7420896 C17.599421,11.7929343 17.6405291,11.8751504 17.6388806,11.9620896 C17.6385484,12.0574637 17.5869909,12.1453025 17.5038806,12.1920896 C17.6498189,12.1714956 17.78777,12.1128664 17.9038806,12.0220896 C17.8228255,11.8810509 17.6871355,11.7797357 17.5288806,11.7420896 Z" id="Shape" fill="#FFBE3D"></path>
            <path d="M18.4305224,11.7367164 C18.5007231,11.7838517 18.5436177,11.8621809 18.5455224,11.9467164 C18.5425916,12.0387511 18.4937925,12.1232111 18.4155224,12.1717164 C18.5668879,12.1420706 18.7040911,12.0629149 18.8055224,11.9467164 C18.7805224,11.8567164 18.6205224,11.7667164 18.4305224,11.7367164 Z" id="Shape" fill="#FFBE3D"></path>
            <path d="M18.4355224,11.9460448 C18.4385395,11.8706231 18.4729905,11.799908 18.5305224,11.7510448 C18.3847529,11.7892756 18.2582946,11.8801118 18.1755224,12.0060448 C18.2916329,12.0968216 18.4295841,12.1554509 18.5755224,12.1760448 C18.4904813,12.130564 18.4368617,12.0424745 18.4355224,11.9460448 Z" id="Shape" fill="#FFBE3D"></path>
            <path d="M17.9104478,12.7056986 C17.8280597,12.7056986 17.7850746,12.5356986 17.600597,12.6506986 C17.7797015,12.6506986 17.7331343,12.9706986 17.9104478,12.9706986 C18.0877612,12.9706986 18.0358209,12.6406986 18.2202985,12.6506986 C18.0358209,12.5356986 17.9928358,12.7056986 17.9104478,12.7056986 Z" id="Shape" fill="#FFBE3D"></path>
            <path d="M17.9928358,11.6041791 C17.9233728,11.7999746 17.9423242,12.0162815 18.0447761,12.1970149 C18.0578701,12.1872171 18.0733132,12.1810398 18.0895522,12.1791045 C17.9505046,12.0256487 17.9370877,11.7960708 18.0573134,11.6274627 C18.2238806,11.4716418 18.5265672,11.5020896 18.7737313,11.7098507 C18.6961741,11.5768582 18.561643,11.4870403 18.4090785,11.4663951 C18.2565139,11.4457499 18.1029499,11.4965824 17.9928358,11.6041791 Z" id="Shape" fill="#973412"></path>
            <path d="M18.159403,11.8831857 C18.1288551,11.9510859 18.0934432,12.0001764 18.0555224,12.0271929 C18.0447761,12.0569875 18.0555224,12.1414055 18.0770149,12.1116109 C18.1223192,12.0514393 18.1644901,11.9746053 18.2023881,11.8831857 C18.2534413,11.7744871 18.3173853,11.7230736 18.3814925,11.7391785 C18.560597,11.7391785 18.6734328,12.1712001 18.6949254,12.1414055 C18.7164179,12.1116109 18.5910448,11.6448289 18.3814925,11.6448289 C18.2983449,11.628451 18.2169022,11.715859 18.159403,11.8831857 L18.159403,11.8831857 Z" id="Shape" fill="#973412"></path>
            <path d="M18.1818665,12.0216356 L18.1818665,12.0816356 C18.212186,11.9557026 18.2585077,11.8648664 18.3119031,11.8266356 C18.3290248,11.7847955 18.3511951,11.7616537 18.3741742,11.7616356 C18.3934054,11.7619935 18.4120631,11.7795574 18.4272877,11.8116356 C18.4968848,11.8416356 18.5554929,11.9316356 18.5646504,12.0216356 L18.6379104,12.0216356 C18.5754275,11.8182126 18.4824941,11.703233 18.3852733,11.7090663 C18.2880526,11.7148995 18.1970593,11.8409147 18.1379104,12.0516356 L18.1818665,12.0216356 Z" id="Shape" fill="#973412"></path>
            <path d="M18.7686567,11.9877612 C18.7668931,11.9032257 18.7271759,11.8248965 18.6621752,11.7777612 C18.6236908,11.7456831 18.5765282,11.7281191 18.527916,11.7277612 C18.4698299,11.7277793 18.4137884,11.7509212 18.3705086,11.7927612 C18.3120289,11.83878 18.2748788,11.9099055 18.2686567,11.9877612 C18.2698968,12.0841909 18.3195446,12.1722804 18.3982863,12.2177612 C18.4765629,12.2302857 18.5561209,12.2302857 18.6343975,12.2177612 C18.7135675,12.1720212 18.7645806,12.0846304 18.7686567,11.9877612 Z" id="Shape" fill="#973412"></path>
            <path d="M18.6397015,11.8208955 L18.5661721,11.8208955 C18.5288812,11.937094 18.4784388,12.0162497 18.4227897,12.0458955 C18.3917093,12.05842 18.3601201,12.05842 18.3290397,12.0458955 C18.2753859,12.0253016 18.2246686,11.9666724 18.1819809,11.8758955 L18.1819809,11.8208955 L18.1397015,11.8808955 C18.2060822,12.0225639 18.2888524,12.0952453 18.3731574,12.0858955 L18.3731574,12.0858955 C18.4700834,12.076603 18.5634191,11.983808 18.6397015,11.8208955 L18.6397015,11.8208955 Z" id="Shape" fill="#973412"></path>
            <path d="M18.2220896,12.0299254 C18.1397015,11.9099254 18.118209,11.8549254 18.0967164,11.8549254 C18.0752239,11.8549254 18.0770149,11.9099254 18.1808955,12.0849254 C18.3319643,12.2973134 18.5142994,12.227721 18.639403,11.9099254 C18.5126703,12.1131679 18.3610019,12.1567807 18.2220896,12.0299254 L18.2220896,12.0299254 Z" id="Shape" fill="#973412"></path>
            <path d="M17.9104478,12.6556472 C17.9848647,12.6617575 18.0587869,12.633244 18.1231501,12.573603 C18.1470989,12.6291015 18.1840758,12.6670021 18.2257816,12.6787983 C18.2674875,12.6905945 18.3104289,12.6752983 18.3449682,12.6363427 C18.4152509,12.5540301 18.4314256,12.3977505 18.3814315,12.2840353 C18.3588659,12.228717 18.3222659,12.1917248 18.2811575,12.1826866 C18.3356982,12.2133386 18.3642673,12.3084108 18.3449682,12.3950362 C18.3256692,12.4816617 18.2658103,12.527037 18.2112696,12.496385 C18.1689227,12.4773386 18.1393453,12.4166601 18.1383431,12.346775 C18.0956535,12.484973 18.0073663,12.5728467 17.9104478,12.573603 L17.946911,12.573603 L17.9104478,12.6556472 Z" id="Shape" fill="#973412"></path>
            <path d="M17.9104478,12.6303731 C17.9700333,12.6303731 18.0607068,12.4853731 18.1695151,12.6303731 C18.2783234,12.7753731 18.3353182,12.8603731 18.4104478,12.9203731 C18.2731421,12.7453731 18.2135566,12.4853731 18.0632975,12.4853731 C18.010631,12.4925675 17.959384,12.5215574 17.9130384,12.5703731 L17.9441265,12.5703731 L17.9104478,12.6303731 Z" id="Shape" fill="#973412"></path>
            <path d="M17.9104478,12.6269614 L17.9451298,12.6269614 L17.9104478,12.7419614 C18.0433957,12.7419614 18.1127599,12.5719614 18.4104478,12.6869614 L18.4104478,12.6869614 C18.2506477,12.5836862 18.0769594,12.5628436 17.9104478,12.6269614 L17.9104478,12.6269614 Z" id="Shape" fill="#973412"></path>
            <path d="M18.3609686,12.6250746 L18.3609686,12.6250746 C18.1005519,12.6250746 18.1656561,12.9450746 17.9104478,12.9450746 L17.9416978,12.9450746 L17.9104478,13.0300746 C18.2437811,13.0300746 18.0927394,12.6800746 18.4104478,12.6250746 L18.3609686,12.6250746 Z" id="Shape" fill="#973412"></path>
            <path d="M17.8023881,12.8955224 C17.7657356,12.9487528 17.7386621,13.0079761 17.7223881,13.0705224 C17.7386621,13.0079761 17.7657356,12.9487528 17.8023881,12.8955224 L17.8023881,12.8955224 Z" id="Shape" fill="#973412"></path>
            <path d="M18.0573134,12.881194 C18.0703885,12.8919172 18.0806802,12.9056395 18.0873134,12.921194 C18.0806802,12.9056395 18.0703885,12.8919172 18.0573134,12.881194 Z" id="Shape" fill="#973412"></path>
            <path d="M17.761791,12.9453731 C17.7932698,12.9067447 17.8303462,12.8730389 17.871791,12.8453731 C17.8316052,12.8746172 17.7947214,12.908148 17.761791,12.9453731 Z" id="Shape" fill="#973412"></path>
            <path d="M18.0371642,12.8453731 L18.0071642,12.8453731 L18.0371642,12.8453731 Z" id="Shape" fill="#973412"></path>
            <path d="M17.8119403,12.8749254 C17.8645036,12.8447905 17.9221064,12.8244601 17.9819403,12.8149254 L17.9819403,12.8149254 C17.9228294,12.8271756 17.8656452,12.8473582 17.8119403,12.8749254 Z" id="Shape" fill="#973412"></path>
            <path d="M17.9104478,12.8155369 C17.9452698,12.8105455 17.9806257,12.8105455 18.0154478,12.8155369 C17.9806257,12.8105455 17.9452698,12.8105455 17.9104478,12.8155369 Z" id="Shape" fill="#973412"></path>
            <path d="M17.7653731,11.6256716 C17.8860829,11.7950562 17.8718957,12.0257846 17.7313433,12.1791045 C17.7466867,12.1815632 17.7609923,12.188405 17.7725373,12.198806 C17.8766445,12.0185911 17.8956608,11.8015428 17.8244776,11.6059701 C17.7150647,11.5017269 17.5642296,11.4528165 17.4144639,11.4730175 C17.2646983,11.4932184 17.1322122,11.5803442 17.0543284,11.7098507 C17.2961194,11.5002985 17.598806,11.4626866 17.7653731,11.6256716 Z" id="Shape" fill="#973412"></path>
            <path d="M17.4304478,11.7428348 C17.4974876,11.7218531 17.564869,11.7732585 17.6185075,11.886306 C17.6560913,11.9785234 17.6983228,12.0551811 17.7438806,12.1138809 C17.7653731,12.1435646 17.7743284,12.0594608 17.7653731,12.0297771 C17.7273116,12.0039091 17.6918214,11.9548929 17.6614925,11.886306 C17.6021505,11.7113313 17.51688,11.6218638 17.4304478,11.6438892 C17.2226866,11.6438892 17.0973134,12.1039864 17.118806,12.1386173 C17.1402985,12.1732483 17.2441791,11.7428348 17.4304478,11.7428348 Z" id="Shape" fill="#973412"></path>
            <path d="M17.4054269,11.7756699 C17.4207075,11.7435917 17.4394338,11.7260278 17.4587357,11.7256699 C17.4817993,11.725688 17.5040511,11.7488299 17.5212357,11.7906699 C17.5751387,11.8270859 17.6218524,11.9183554 17.6517504,12.0456699 L17.6517504,12.0106699 L17.6940299,12.0706699 C17.6363482,11.8579052 17.5463943,11.7274782 17.4492987,11.7158267 C17.3522032,11.7041753 17.2583759,11.8125486 17.1940299,12.0106699 L17.2675593,11.9806699 C17.2767504,11.8956699 17.335574,11.8056699 17.4054269,11.7756699 Z" id="Shape" fill="#973412"></path>
            <path d="M17.8659701,11.9877612 C17.8648779,11.9129726 17.8334464,11.842147 17.7794317,11.7927612 C17.7344873,11.7509212 17.6762903,11.7277793 17.6159701,11.7277612 C17.5654882,11.7281191 17.5165117,11.7456831 17.4765471,11.7777612 C17.4090464,11.8248965 17.3678016,11.9032257 17.3659701,11.9877612 C17.3687882,12.0797959 17.4157105,12.1642559 17.4909701,12.2127612 C17.5722573,12.2252857 17.6548753,12.2252857 17.7361625,12.2127612 C17.8146036,12.1668667 17.863946,12.0813399 17.8659701,11.9877612 L17.8659701,11.9877612 Z" id="Shape" fill="#973412"></path>
            <path d="M17.6940299,11.8558955 L17.6517504,11.8208955 L17.6517504,11.8808955 C17.6090627,11.9716724 17.5583454,12.0303016 17.5046916,12.0508955 C17.4736112,12.06342 17.442022,12.06342 17.4109416,12.0508955 C17.3549184,12.020181 17.304008,11.9413022 17.265721,11.8258955 L17.1940299,11.8208955 C17.2712032,11.9712305 17.3638124,12.0516977 17.4587357,12.0508955 L17.4587357,12.0508955 C17.5432068,12.064295 17.6266571,11.9951355 17.6940299,11.8558955 Z" id="Shape" fill="#973412"></path>
            <path d="M17.64,12.0849254 C17.7438806,11.9099254 17.7438806,11.8549254 17.7223881,11.8549254 C17.7008955,11.8549254 17.681194,11.9099254 17.598806,12.0299254 C17.4598937,12.1567807 17.3082252,12.1131679 17.1814925,11.9099254 C17.3065962,12.227721 17.4889312,12.2973134 17.64,12.0849254 Z" id="Shape" fill="#973412"></path>
            <path d="M17.6402154,12.2894084 C17.5958337,12.4049132 17.6119573,12.5594655 17.6769697,12.6417158 C17.7091066,12.6806714 17.7490612,12.6959676 17.7878662,12.6841714 C17.8266711,12.6723752 17.861076,12.6344747 17.883359,12.5789762 C17.9431188,12.6391512 18.0119948,12.6677044 18.0812666,12.6610204 L18.1151937,12.5789762 L18.0812666,12.5789762 C17.9904465,12.5778048 17.90758,12.490327 17.8663955,12.3521481 C17.8632805,12.4335814 17.8255814,12.4987316 17.777918,12.5050518 C17.7302546,12.511372 17.6871138,12.4569413 17.676669,12.3773061 C17.6662242,12.2976708 17.69165,12.2170355 17.736342,12.1880597 C17.6975573,12.1981144 17.6628468,12.2347105 17.6402154,12.2894084 Z" id="Shape" fill="#973412"></path>
            <path d="M17.7920574,12.6302985 C17.8925476,12.5102985 17.9783319,12.6302985 18.0371554,12.6302985 L18.0665672,12.5452985 L18.0371554,12.5452985 C17.9931948,12.4970476 17.9447717,12.468094 17.8949985,12.4602985 C17.7528417,12.4602985 17.6964691,12.7202985 17.5665672,12.8952985 C17.6376456,12.8602985 17.6964691,12.7452985 17.7920574,12.6302985 Z" id="Shape" fill="#973412"></path>
            <path d="M18.0681646,12.7419614 L18.100597,12.6269614 L18.0681646,12.6269614 C17.9124537,12.5628436 17.7500316,12.5836862 17.600597,12.6869614 L17.600597,12.6869614 C17.8789754,12.5719614 17.9438403,12.7419614 18.0681646,12.7419614 Z" id="Shape" fill="#973412"></path>
            <path d="M18.0371554,12.9452176 C17.7920574,12.9452176 17.8655868,12.6152176 17.6131358,12.6252176 L17.5665672,12.6252176 C17.8655868,12.6802176 17.7234299,13.0302176 18.0371554,13.0302176 L18.0665672,12.9452176 L18.0371554,12.9452176 Z" id="Shape" fill="#973412"></path>
            <path d="M17.7337485,13.2710448 C17.7415351,13.2111918 17.7544889,13.1545189 17.772026,13.1035807 L17.7863801,13.0653031 C17.8021362,13.029681 17.819784,12.9975941 17.8390116,12.9696094 L17.8533657,12.9696094 C17.8760436,12.944751 17.9001422,12.9254721 17.925136,12.9121931 L17.925136,12.9121931 C17.9585529,12.9058135 17.9921976,12.9058135 18.0256145,12.9121931 C18.0535145,12.921132 18.0803078,12.940618 18.1045619,12.9696094 L18.1189159,12.9696094 C18.1396836,12.9936016 18.1576323,13.0262356 18.1715475,13.0653031 C18.1778035,13.0755645 18.1827278,13.088696 18.1859016,13.1035807 C18.2043591,13.1534539 18.2173974,13.2104964 18.2241791,13.2710448 C18.2241791,12.9949024 18.1122503,12.7710448 17.9741791,12.7710448 C17.8361079,12.7710448 17.7241791,12.9949024 17.7241791,13.2710448 L17.7337485,13.2710448 Z" id="Shape" fill="#973412"></path>
        </g>
    </g>
</svg>