<?xml version="1.0" encoding="UTF-8"?>
<svg width="36px" height="24px" viewBox="0 0 36 24" version="1.1" xmlns="http://www.w3.org/2000/svg" xmlns:xlink="http://www.w3.org/1999/xlink">
    <!-- Generator: Sketch 57 (83077) - https://sketch.com -->
    <title>oui-Flag/Singapore</title>
    <desc>Created with Sketch.</desc>
    <g id="oui-Flag/Singapore" stroke="none" stroke-width="1" fill="none" fill-rule="evenodd">
        <g id="Singapore" fill-rule="nonzero">
            <polygon id="Shape" fill="#ED2939" points="36 12 36 0 0 0 0 12 24.0642 12"></polygon>
            <polygon id="Shape" fill="#FFFFFF" points="24.0642 24 36 24 36 12 24.0642 12 0 12 0 24"></polygon>
            <path d="M12,6 C12,8.76142375 9.76142375,11 7,11 C4.23857625,11 2,8.76142375 2,6 C2,3.23857625 4.23857625,1 7,1 C8.32608245,1 9.59785201,1.5267842 10.5355339,2.46446609 C11.4732158,3.40214799 12,4.67391755 12,6 Z" id="Shape" fill="#FFFFFF"></path>
            <path d="M13,5.49828539 C13.0009464,7.98311899 10.987694,9.99841941 8.50286075,10 C6.01802747,10.0015787 4.00221436,7.98883966 4,5.50400686 C3.99778929,3.01917406 6.01001487,1.00284836 8.49484702,1 C9.68891618,0.998635612 10.8345725,1.47190192 11.6795515,2.31559235 C12.5245305,3.15928278 12.9995447,4.30421552 13,5.49828539 L13,5.49828539 Z" id="Shape" fill="#ED2939"></path>
            <polygon id="star" fill="#FFFFFF" points="7.62397373 6 7 5.52584085 6.38095238 6 6.61904762 5.23543888 6 4.76456112 6.76518883 4.76456112 7 4 7.23481117 4.76456112 8 4.76456112 7.37931034 5.23543888"></polygon>
            <polygon id="star-2" fill="#FFFFFF" points="12.6157635 6 11.9967159 5.52584085 11.3825944 6 11.6206897 5.23543888 11 4.76456112 11.7651888 4.76456112 12 4 12.2348112 4.76456112 13 4.76456112 12.3809524 5.23543888"></polygon>
            <polygon id="star-3" fill="#FFFFFF" points="10.6147541 3.99835391 10 3.52427984 9.38196721 4 9.61967213 3.23292181 9 2.76049383 9.76557377 2.76049383 10 2 10.2360656 2.76872428 11 2.76872428 10.3770492 3.23292181"></polygon>
            <polygon id="star-4" fill="#FFFFFF" points="8.61771944 8.99836066 8.00082034 8.52622951 7.38884331 9 7.62018048 8.23606557 7 7.76557377 7.7662018 7.76557377 8.00082034 7 8.23543888 7.76557377 9 7.76557377 8.37325677 8.23606557"></polygon>
            <polygon id="star-5" fill="#FFFFFF" points="11.6210008 8.99836066 11.0041017 8.52622951 10.3855619 9 10.6201805 8.23606557 10 7.76557377 10.7645611 7.76557377 10.9991797 7 11.2354389 7.76557377 12 7.76557377 11.3798195 8.23606557"></polygon>
        </g>
    </g>
</svg>