<?xml version="1.0" encoding="UTF-8"?>
<svg width="36px" height="24px" viewBox="0 0 36 24" version="1.1" xmlns="http://www.w3.org/2000/svg" xmlns:xlink="http://www.w3.org/1999/xlink">
    <!-- Generator: Sketch 57 (83077) - https://sketch.com -->
    <title>oui-Flag/Togo</title>
    <desc>Created with Sketch.</desc>
    <g id="oui-Flag/Togo" stroke="none" stroke-width="1" fill="none" fill-rule="evenodd">
        <g id="Togo" fill-rule="nonzero">
            <rect id="Rectangle-path" fill="#006B4C" x="14" y="10" width="22" height="5"></rect>
            <rect id="Rectangle-path" fill="#006B4C" x="0" y="19" width="36" height="5"></rect>
            <rect id="Rectangle-path" fill="#006B4C" x="14" y="0" width="22" height="5"></rect>
            <rect id="Rectangle-path" fill="#FFCF00" x="14" y="5" width="22" height="5"></rect>
            <polygon id="Shape" fill="#FFCF00" points="0 14 0 19 36 19 36 14 14.3244 14"></polygon>
            <path d="M14,9.32463011 L14,0 L0,0 L0,14 L14,14 L14,9.32463011 Z M4.72178748,11 L5.7800659,7.94280763 L3,6.05545927 L6.4398682,6.05545927 L7.50185338,3 L8.5601318,6.05545927 L12,6.05545927 L9.2199341,7.94280763 L10.2819193,11 L7.50185338,9.11091854 L4.72178748,11 Z" id="Shape" fill="#F51934"></path>
            <polygon id="Shape" fill="#FFFFFF" points="12 6.05612134 8.56242274 6.05612134 7.5 3 6.43757726 6.05612134 3 6.05612134 5.78121137 7.94387866 4.71878863 11 7.5 9.11224269 10.2812114 11 9.21878863 7.94387866"></polygon>
        </g>
    </g>
</svg>