<?xml version="1.0" encoding="UTF-8"?>
<svg width="36px" height="24px" viewBox="0 0 36 24" version="1.1" xmlns="http://www.w3.org/2000/svg" xmlns:xlink="http://www.w3.org/1999/xlink">
    <!-- Generator: Sketch 57 (83077) - https://sketch.com -->
    <title>oui-Flag/Tunisie</title>
    <desc>Created with Sketch.</desc>
    <g id="oui-Flag/Tunisie" stroke="none" stroke-width="1" fill="none" fill-rule="evenodd">
        <g id="Tunisie" fill-rule="nonzero">
            <polygon id="Shape" fill="#EF242E" points="36 0 0 0 0 24 36 24"></polygon>
            <circle id="Oval" fill="#FFFFFF" cx="18.5" cy="12.5" r="6.5"></circle>
            <path d="M17.9736356,7 C15.6253038,7.0053644 13.599222,8.65413745 13.1099004,10.957982 C12.6205788,13.2618265 13.8007563,15.5957765 15.9429895,16.5607736 C18.0852228,17.5257708 20.6083863,16.8600394 22,14.9626442 C20.4086987,16.4307719 17.9415474,16.3618472 16.4341783,14.8071522 C14.9268092,13.2524572 14.9268092,10.776771 16.4341783,9.22207595 C17.9415474,7.66738095 20.4086987,7.5984563 22,9.06658394 C21.0646287,7.77143564 19.5680208,7.00328215 17.9736356,7 L17.9736356,7 Z" id="Shape" fill="#E70013"></path>
            <polygon id="Shape" fill="#E70013" points="16 11.9961165 21 10.1456311 17.9103613 15 17.9103613 9 21 13.8543689"></polygon>
        </g>
    </g>
</svg>