<?xml version="1.0" encoding="UTF-8"?>
<svg width="36px" height="24px" viewBox="0 0 36 24" version="1.1" xmlns="http://www.w3.org/2000/svg" xmlns:xlink="http://www.w3.org/1999/xlink">
    <!-- Generator: Sketch 57 (83077) - https://sketch.com -->
    <title>oui-Flag/Venezuela</title>
    <desc>Created with Sketch.</desc>
    <g id="oui-Flag/Venezuela" stroke="none" stroke-width="1" fill="none" fill-rule="evenodd">
        <g id="Venezuela" fill-rule="nonzero">
            <rect id="Rectangle-path" fill="#FFD500" x="0" y="0" width="36" height="8"></rect>
            <path d="M0,16 L36,16 L36,8 L0,8 L0,16 Z M11.5783699,15 L10.976489,14.5110024 L10.3401254,14.9559902 L10.6018809,14.207824 L10,13.7188264 L10.7633229,13.7465363 L11.0250784,13 L11.2366771,13.7644662 L12,13.792176 L11.3730408,14.2355338 L11.5783699,15 Z M12.1815981,13 L11.763519,12.3500785 L11,12.5353218 L11.5052462,11.9481947 L11.0887813,11.299843 L11.8184019,11.5855573 L12.3252623,11 L12.2703793,11.7629513 L13,12.0502355 L12.236481,12.2354788 L12.1815981,13 Z M13.9219858,12 L13.7643814,11.2368 L13,11.1552 L13.6666667,10.7648 L13.5090623,10 L14.0811663,10.5232 L14.7399527,10.136 L14.4247439,10.8496 L15,11.368 L14.2356186,11.2864 L13.9219858,12 Z M17.8249801,10.7833992 L17.1280827,10.4450593 L16.5887033,11 L16.6968974,10.2363636 L16,9.89802372 L16.7637232,9.76363636 L16.8719173,9 L17.2362768,9.68142292 L18,9.54703557 L17.4606205,10.1019763 L17.8249801,10.7833992 Z M19.4112967,11 L18.8719173,10.4463722 L18.1734288,10.7839117 L18.5393795,10.1041009 L18,9.54574132 L18.7637232,9.67981073 L19.1280827,9 L19.2362768,9.76182965 L20,9.89589905 L19.3031026,10.2334385 L19.4112967,11 Z M21,11.368 L21.5700787,10.8464 L21.2551181,10.1328 L21.919685,10.5232 L22.4913386,10 L22.3338583,10.7648 L23,11.1552 L22.2362205,11.2368 L22.0787402,12 L21.7637795,11.2864 L21,11.368 Z M22,12.0502355 L22.7290323,11.7629513 L22.6741935,11 L23.1806452,11.5855573 L23.9112903,11.299843 L23.4951613,11.9481947 L24,12.5353218 L23.2370968,12.3500785 L22.8193548,13 L22.7645161,12.2354788 L22,12.0502355 Z M25.6603774,14.9558463 L25.0314465,14.5094031 L24.427673,15 L24.6289308,14.2412101 L24,13.794767 L24.7657233,13.7669665 L24.9779874,13 L25.2342767,13.7506132 L26,13.7228128 L25.3962264,14.2134096 L25.6603774,14.9558463 Z" id="Shape" fill="#00429E"></path>
            <rect id="Rectangle-path" fill="#F12533" x="0" y="16" width="36" height="8"></rect>
            <polygon id="Shape" fill="#FFFFFF" points="17.2362768 9.68142292 16.8719173 9 16.7637232 9.76363636 16 9.89802372 16.6968974 10.2363636 16.5887033 11 17.1280827 10.4450593 17.8249801 10.7833992 17.4622116 10.1019763 18 9.54703557"></polygon>
            <polygon id="Shape" fill="#FFFFFF" points="19.2362768 9.76363636 19.1280827 9 18.7637232 9.68142292 18 9.54703557 18.5377884 10.1019763 18.1734288 10.7833992 18.8719173 10.4450593 19.4112967 11 19.3031026 10.2363636 20 9.89802372"></polygon>
            <polygon id="Shape" fill="#FFFFFF" points="14.4299213 10.8464 14.7417323 10.1328 14.0771654 10.5232 13.5055118 10 13.6661417 10.7648 13 11.1552 13.7637795 11.2368 13.9244094 12 14.2362205 11.2864 15 11.368"></polygon>
            <polygon id="Shape" fill="#FFFFFF" points="22.2362205 11.2368 23 11.1552 22.3338583 10.7648 22.4944882 10 21.9228346 10.5232 21.2582677 10.1328 21.5700787 10.8464 21 11.368 21.7637795 11.2864 22.0755906 12"></polygon>
            <polygon id="Shape" fill="#FFFFFF" points="12.2703793 11.7629513 12.3252623 11 11.8184019 11.5855573 11.0887813 11.299843 11.5052462 11.9481947 11 12.5353218 11.763519 12.3500785 12.1815981 13 12.236481 12.2354788 13 12.0502355"></polygon>
            <polygon id="Shape" fill="#FFFFFF" points="23.236481 12.3500785 24 12.5353218 23.4947538 11.9481947 23.9112187 11.299843 23.1815981 11.5855573 22.6747377 11 22.7296207 11.7629513 22 12.0502355 22.763519 12.2354788 22.8184019 13"></polygon>
            <polygon id="Shape" fill="#FFFFFF" points="11.2366771 13.7644662 11.0250784 13 10.7648903 13.7465363 10 13.7188264 10.6018809 14.207824 10.3401254 14.9559902 10.9749216 14.5110024 11.5768025 15 11.3667712 14.2355338 12 13.792176"></polygon>
            <polygon id="Shape" fill="#FFFFFF" points="25.2366771 13.7465363 24.9749216 13 24.7633229 13.7644662 24 13.792176 24.6332288 14.2355338 24.4231975 15 25.0250784 14.5110024 25.6583072 14.9559902 25.3981191 14.207824 26 13.7188264"></polygon>
        </g>
    </g>
</svg>